<svg width="33" height="32" viewBox="0 0 33 32" fill="none" xmlns="http://www.w3.org/2000/svg">
<path d="M5.94938 28.0285C5.53134 27.6614 5.13251 27.2729 4.75456 26.8648C4.59618 26.6937 4.44146 26.5191 4.29065 26.3411C1.926 23.5524 0.5 19.9428 0.5 16C0.5 7.16352 7.66351 0 16.5 0C25.3365 0 32.5 7.16352 32.5 16C32.5 19.9428 31.074 23.5524 28.7093 26.3411C28.5585 26.5191 28.4038 26.6937 28.2454 26.8648C27.8675 27.2729 27.4686 27.6614 27.0506 28.0285H5.94938Z" fill="#1A6980"/>
<path d="M27.0504 28.0287C24.2339 30.5011 20.5417 32.0002 16.4998 32.0002C12.4579 32.0002 8.76569 30.5011 5.94922 28.0287C8.31839 24.268 12.1614 21.8228 16.4998 21.8228C20.8382 21.8228 24.6812 24.268 27.0504 28.0287Z" fill="#1A6980"/>
<path d="M16.5003 19.1486C20.0693 19.1486 22.9626 16.2553 22.9626 12.6864C22.9626 9.11736 20.0693 6.22412 16.5003 6.22412C12.9313 6.22412 10.0381 9.11736 10.0381 12.6864C10.0381 16.2553 12.9313 19.1486 16.5003 19.1486Z" fill="#1A6980"/>
<path d="M13.1814 6.9059C12.6798 7.01371 12.1267 7.39809 11.883 7.81996C11.7423 8.05902 9.40796 13.895 9.44077 13.9231C9.45483 13.9371 9.83921 13.895 10.2986 13.8246C12.7736 13.4731 14.7517 13.3465 17.2033 13.3887C19.2845 13.4262 20.5876 13.5293 22.5189 13.8012C23.058 13.8762 23.5033 13.9325 23.5126 13.9231C23.522 13.9184 23.3345 13.4262 23.1048 12.8356C22.8705 12.2403 22.3501 10.9137 21.9517 9.88246C21.5533 8.85121 21.1783 7.92309 21.1173 7.81996C20.958 7.5434 20.5689 7.20121 20.2595 7.0559C19.9126 6.89652 19.3126 6.85902 18.933 6.97152C18.783 7.01371 18.333 7.25746 17.8501 7.55746C16.8142 8.20434 16.7673 8.22777 16.5283 8.22777C16.2564 8.22777 16.2048 8.19965 15.258 7.60902C14.7939 7.3184 14.3111 7.04184 14.1798 6.99496C13.8845 6.89184 13.4439 6.85434 13.1814 6.9059Z" fill="#F9F9F9"/>
<path d="M14.9251 14.5468C12.2626 14.6546 9.54385 15.0249 6.98447 15.6296C5.99541 15.8593 5.85479 15.9483 5.8501 16.3327C5.8501 16.5577 5.95322 16.7312 6.16416 16.8296C6.31885 16.9046 6.35635 16.8999 7.2751 16.689C10.3173 15.9952 12.7829 15.6952 15.8673 15.639C19.4673 15.5733 22.6267 15.9343 26.4657 16.8483C26.6579 16.8905 26.7282 16.8905 26.836 16.839C27.1313 16.6937 27.2485 16.2999 27.0751 16.0374C26.9673 15.8733 26.7938 15.8077 25.8235 15.5874C22.3267 14.7765 18.422 14.4015 14.9251 14.5468Z" fill="#F9F9F9"/>
<path d="M11.2503 18.081C10.4581 18.2544 9.80654 18.6294 9.29092 19.2154L9.05654 19.4826L8.95342 19.0185C8.8081 18.3482 8.77529 18.2638 8.62529 18.156C8.44717 18.0294 8.11904 18.0294 7.95498 18.1607C7.69248 18.3623 7.69717 18.456 8.0581 20.0732C8.24092 20.8841 8.40967 21.7185 8.43779 21.9341C8.59717 23.2232 9.30029 24.2404 10.3831 24.7466C10.8706 24.9716 11.2128 25.0513 11.8362 25.0794C12.3097 25.0982 12.4644 25.0888 12.8206 25.0044C13.8003 24.7701 14.5644 24.2123 15.0472 23.3826C15.2112 23.0919 15.4503 22.3888 15.4972 22.0607C15.5253 21.8498 15.5487 21.7982 15.68 21.7185C15.919 21.5732 16.3831 21.4701 16.669 21.5076C16.9409 21.5404 17.3909 21.7466 17.4425 21.8591C17.4565 21.8966 17.5081 22.1076 17.5456 22.3185C17.6581 22.9138 17.9581 23.4904 18.3987 23.9591C19.0034 24.6013 19.6175 24.9341 20.4706 25.0794C21.0378 25.1732 21.6331 25.1169 22.2097 24.9154C22.7581 24.7232 23.0815 24.5123 23.5315 24.0623C23.8456 23.7482 23.9815 23.5701 24.155 23.2326C24.3753 22.806 24.5628 22.1779 24.5628 21.8591C24.5628 21.7654 24.7222 20.9826 24.9144 20.1154C25.1065 19.2482 25.2519 18.4982 25.2378 18.4513C25.1112 18.0529 24.7737 17.9029 24.4175 18.0904C24.244 18.1794 24.1831 18.3201 24.0472 18.9529C23.9909 19.2248 23.9347 19.4498 23.93 19.4591C23.9253 19.4638 23.7753 19.3185 23.5972 19.1357C22.8894 18.3951 22.0128 18.0154 21.0237 18.0154C20.0394 18.0154 19.2097 18.3576 18.5159 19.0466C18.1409 19.4169 17.9065 19.7685 17.705 20.2654C17.569 20.6029 17.5878 20.5982 17.1331 20.481C16.744 20.3779 16.2144 20.3873 15.7737 20.4998C15.5722 20.5513 15.4034 20.5935 15.3987 20.5935C15.394 20.5935 15.3659 20.5044 15.3331 20.3919C15.244 20.1013 14.9815 19.6232 14.7425 19.3185C14.3394 18.8029 13.6409 18.3576 12.9284 18.156C12.4831 18.0294 11.6675 17.9919 11.2503 18.081Z" fill="#F9F9F9"/>
</svg>
