<svg width="327" height="212" viewBox="0 0 327 212" fill="none" xmlns="http://www.w3.org/2000/svg">
<path d="M3.69886 12.9893C3.11364 12.9893 2.59659 12.8856 2.14773 12.6782C1.7017 12.468 1.35369 12.1797 1.10369 11.8132C0.853693 11.4439 0.730114 11.0234 0.732955 10.5518C0.730114 10.1825 0.802557 9.84159 0.950284 9.52909C1.09801 9.21374 1.29972 8.95096 1.5554 8.74073C1.81392 8.52767 2.10227 8.39272 2.42045 8.3359V8.28477C2.00284 8.17681 1.67045 7.94244 1.4233 7.58164C1.17614 7.21801 1.05398 6.80465 1.05682 6.34159C1.05398 5.8984 1.16619 5.5021 1.39347 5.15267C1.62074 4.80323 1.93324 4.52767 2.33097 4.32596C2.73153 4.12426 3.1875 4.0234 3.69886 4.0234C4.20455 4.0234 4.65625 4.12426 5.05398 4.32596C5.4517 4.52767 5.7642 4.80323 5.99148 5.15267C6.22159 5.5021 6.33807 5.8984 6.34091 6.34159C6.33807 6.80465 6.21165 7.21801 5.96165 7.58164C5.71449 7.94244 5.38636 8.17681 4.97727 8.28477V8.3359C5.29261 8.39272 5.5767 8.52767 5.82955 8.74073C6.08239 8.95096 6.28409 9.21374 6.43466 9.52909C6.58523 9.84159 6.66193 10.1825 6.66477 10.5518C6.66193 11.0234 6.53409 11.4439 6.28125 11.8132C6.03125 12.1797 5.68324 12.468 5.23722 12.6782C4.79403 12.8856 4.28125 12.9893 3.69886 12.9893ZM3.69886 12.0518C4.09375 12.0518 4.43466 11.9879 4.72159 11.8601C5.00852 11.7322 5.23011 11.5518 5.38636 11.3189C5.54261 11.0859 5.62216 10.8132 5.625 10.5007C5.62216 10.1711 5.53693 9.87994 5.36932 9.6271C5.2017 9.37426 4.97301 9.17539 4.68324 9.03051C4.39631 8.88562 4.06818 8.81318 3.69886 8.81318C3.3267 8.81318 2.99432 8.88562 2.7017 9.03051C2.41193 9.17539 2.18324 9.37426 2.01562 9.6271C1.85085 9.87994 1.76989 10.1711 1.77273 10.5007C1.76989 10.8132 1.84517 11.0859 1.99858 11.3189C2.15483 11.5518 2.37784 11.7322 2.66761 11.8601C2.95739 11.9879 3.30114 12.0518 3.69886 12.0518ZM3.69886 7.90977C4.01136 7.90977 4.28835 7.84727 4.52983 7.72227C4.77415 7.59727 4.96591 7.42255 5.10511 7.19812C5.24432 6.97369 5.31534 6.7109 5.31818 6.40977C5.31534 6.11431 5.24574 5.85721 5.10938 5.63846C4.97301 5.41687 4.78409 5.24642 4.54261 5.1271C4.30114 5.00494 4.01989 4.94386 3.69886 4.94386C3.37216 4.94386 3.08665 5.00494 2.84233 5.1271C2.59801 5.24642 2.40909 5.41687 2.27557 5.63846C2.14205 5.85721 2.0767 6.11431 2.07955 6.40977C2.0767 6.7109 2.14347 6.97369 2.27983 7.19812C2.41903 7.42255 2.6108 7.59727 2.85511 7.72227C3.09943 7.84727 3.38068 7.90977 3.69886 7.90977ZM11.0252 12.9893C10.5252 12.9893 10.0749 12.8899 9.67436 12.691C9.27379 12.4922 8.95277 12.2194 8.71129 11.8728C8.46982 11.5262 8.33771 11.1314 8.31499 10.6882H9.33771C9.37749 11.0831 9.55646 11.4098 9.87464 11.6683C10.1957 11.924 10.5792 12.0518 11.0252 12.0518C11.3832 12.0518 11.7013 11.968 11.9798 11.8004C12.261 11.6328 12.4812 11.4027 12.6403 11.1101C12.8022 10.8146 12.8832 10.4808 12.8832 10.1086C12.8832 9.72795 12.7994 9.38846 12.6317 9.09017C12.467 8.78903 12.2397 8.55181 11.9499 8.37852C11.6602 8.20522 11.3292 8.11715 10.957 8.11431C10.69 8.11147 10.4158 8.15267 10.1346 8.23789C9.85334 8.32028 9.6218 8.42681 9.43999 8.5575L8.45135 8.43818L8.97976 4.14272H13.5138V5.08022H9.86612L9.5593 7.65409H9.61044C9.78942 7.51204 10.0138 7.39414 10.2837 7.30039C10.5536 7.20664 10.8349 7.15977 11.1275 7.15977C11.6616 7.15977 12.1374 7.28761 12.555 7.54329C12.9755 7.79613 13.305 8.14272 13.5437 8.58306C13.7852 9.0234 13.9059 9.52624 13.9059 10.0916C13.9059 10.6484 13.7809 11.1456 13.5309 11.5831C13.2837 12.0177 12.9428 12.3615 12.5082 12.6143C12.0735 12.8643 11.5792 12.9893 11.0252 12.9893Z" fill="black"/>
<path d="M3.69886 64.3012C3.11364 64.3012 2.59659 64.1975 2.14773 63.9901C1.7017 63.7799 1.35369 63.4915 1.10369 63.1251C0.853693 62.7557 0.730114 62.3353 0.732955 61.8637C0.730114 61.4944 0.802557 61.1535 0.950284 60.841C1.09801 60.5256 1.29972 60.2629 1.5554 60.0526C1.81392 59.8396 2.10227 59.7046 2.42045 59.6478V59.5967C2.00284 59.4887 1.67045 59.2543 1.4233 58.8935C1.17614 58.5299 1.05398 58.1165 1.05682 57.6535C1.05398 57.2103 1.16619 56.814 1.39347 56.4646C1.62074 56.1151 1.93324 55.8396 2.33097 55.6379C2.73153 55.4361 3.1875 55.3353 3.69886 55.3353C4.20455 55.3353 4.65625 55.4361 5.05398 55.6379C5.4517 55.8396 5.7642 56.1151 5.99148 56.4646C6.22159 56.814 6.33807 57.2103 6.34091 57.6535C6.33807 58.1165 6.21165 58.5299 5.96165 58.8935C5.71449 59.2543 5.38636 59.4887 4.97727 59.5967V59.6478C5.29261 59.7046 5.5767 59.8396 5.82955 60.0526C6.08239 60.2629 6.28409 60.5256 6.43466 60.841C6.58523 61.1535 6.66193 61.4944 6.66477 61.8637C6.66193 62.3353 6.53409 62.7557 6.28125 63.1251C6.03125 63.4915 5.68324 63.7799 5.23722 63.9901C4.79403 64.1975 4.28125 64.3012 3.69886 64.3012ZM3.69886 63.3637C4.09375 63.3637 4.43466 63.2998 4.72159 63.1719C5.00852 63.0441 5.23011 62.8637 5.38636 62.6307C5.54261 62.3978 5.62216 62.1251 5.625 61.8126C5.62216 61.483 5.53693 61.1918 5.36932 60.939C5.2017 60.6861 4.97301 60.4873 4.68324 60.3424C4.39631 60.1975 4.06818 60.1251 3.69886 60.1251C3.3267 60.1251 2.99432 60.1975 2.7017 60.3424C2.41193 60.4873 2.18324 60.6861 2.01562 60.939C1.85085 61.1918 1.76989 61.483 1.77273 61.8126C1.76989 62.1251 1.84517 62.3978 1.99858 62.6307C2.15483 62.8637 2.37784 63.0441 2.66761 63.1719C2.95739 63.2998 3.30114 63.3637 3.69886 63.3637ZM3.69886 59.2217C4.01136 59.2217 4.28835 59.1592 4.52983 59.0342C4.77415 58.9092 4.96591 58.7344 5.10511 58.51C5.24432 58.2856 5.31534 58.0228 5.31818 57.7217C5.31534 57.4262 5.24574 57.1691 5.10938 56.9504C4.97301 56.7288 4.78409 56.5583 4.54261 56.439C4.30114 56.3168 4.01989 56.2557 3.69886 56.2557C3.37216 56.2557 3.08665 56.3168 2.84233 56.439C2.59801 56.5583 2.40909 56.7288 2.27557 56.9504C2.14205 57.1691 2.0767 57.4262 2.07955 57.7217C2.0767 58.0228 2.14347 58.2856 2.27983 58.51C2.41903 58.7344 2.6108 58.9092 2.85511 59.0342C3.09943 59.1592 3.38068 59.2217 3.69886 59.2217ZM11.1445 64.3012C10.5025 64.3012 9.95561 64.1265 9.50391 63.7771C9.0522 63.4248 8.70703 62.9148 8.46839 62.2472C8.22976 61.5768 8.11044 60.7671 8.11044 59.8182C8.11044 58.8751 8.22976 58.0697 8.46839 57.4021C8.70987 56.7316 9.05646 56.2202 9.50817 55.868C9.96271 55.5129 10.5082 55.3353 11.1445 55.3353C11.7809 55.3353 12.3249 55.5129 12.7766 55.868C13.2312 56.2202 13.5778 56.7316 13.8164 57.4021C14.0579 58.0697 14.1786 58.8751 14.1786 59.8182C14.1786 60.7671 14.0593 61.5768 13.8207 62.2472C13.582 62.9148 13.2369 63.4248 12.7852 63.7771C12.3335 64.1265 11.7866 64.3012 11.1445 64.3012ZM11.1445 63.3637C11.7809 63.3637 12.2752 63.0569 12.6275 62.4432C12.9798 61.8296 13.1559 60.9546 13.1559 59.8182C13.1559 59.0626 13.0749 58.4191 12.913 57.8879C12.7539 57.3566 12.5238 56.9518 12.2227 56.6734C11.9244 56.395 11.565 56.2557 11.1445 56.2557C10.5138 56.2557 10.021 56.5668 9.66584 57.189C9.31072 57.8083 9.13317 58.6847 9.13317 59.8182C9.13317 60.5739 9.21271 61.216 9.3718 61.7444C9.53089 62.2728 9.75959 62.6748 10.0579 62.9504C10.359 63.2259 10.7212 63.3637 11.1445 63.3637Z" fill="black"/>
<path d="M1.17614 115.494L5.07955 107.772V107.704H0.579545V106.767H6.17045V107.755L2.28409 115.494H1.17614ZM10.369 115.613C9.86896 115.613 9.41868 115.514 9.01811 115.315C8.61754 115.116 8.29652 114.843 8.05504 114.497C7.81357 114.15 7.68146 113.755 7.65874 113.312H8.68146C8.72124 113.707 8.90021 114.034 9.21839 114.292C9.53942 114.548 9.92294 114.676 10.369 114.676C10.7269 114.676 11.0451 114.592 11.3235 114.424C11.6048 114.257 11.8249 114.026 11.984 113.734C12.146 113.438 12.2269 113.105 12.2269 112.732C12.2269 112.352 12.1431 112.012 11.9755 111.714C11.8107 111.413 11.5835 111.176 11.2937 111.002C11.0039 110.829 10.6729 110.741 10.3008 110.738C10.0337 110.735 9.75959 110.776 9.47834 110.862C9.19709 110.944 8.96555 111.051 8.78374 111.181L7.7951 111.062L8.32351 106.767H12.8576V107.704H9.20987L8.90305 110.278H8.95419C9.13317 110.136 9.3576 110.018 9.62749 109.924C9.89737 109.83 10.1786 109.784 10.4712 109.784C11.0053 109.784 11.4812 109.911 11.8988 110.167C12.3192 110.42 12.6488 110.767 12.8874 111.207C13.1289 111.647 13.2496 112.15 13.2496 112.715C13.2496 113.272 13.1246 113.769 12.8746 114.207C12.6275 114.642 12.2866 114.985 11.8519 115.238C11.4173 115.488 10.9229 115.613 10.369 115.613Z" fill="black"/>
<path d="M1.17614 166.806L5.07955 159.084V159.016H0.579545V158.078H6.17045V159.067L2.28409 166.806H1.17614ZM10.418 166.925C9.77592 166.925 9.22905 166.75 8.77734 166.401C8.32564 166.049 7.98047 165.539 7.74183 164.871C7.5032 164.201 7.38388 163.391 7.38388 162.442C7.38388 161.499 7.5032 160.693 7.74183 160.026C7.98331 159.355 8.3299 158.844 8.78161 158.492C9.23615 158.137 9.78161 157.959 10.418 157.959C11.0543 157.959 11.5984 158.137 12.0501 158.492C12.5046 158.844 12.8512 159.355 13.0898 160.026C13.3313 160.693 13.4521 161.499 13.4521 162.442C13.4521 163.391 13.3327 164.201 13.0941 164.871C12.8555 165.539 12.5103 166.049 12.0586 166.401C11.6069 166.75 11.06 166.925 10.418 166.925ZM10.418 165.987C11.0543 165.987 11.5487 165.681 11.9009 165.067C12.2532 164.453 12.4293 163.578 12.4293 162.442C12.4293 161.686 12.3484 161.043 12.1864 160.512C12.0273 159.98 11.7972 159.576 11.4961 159.297C11.1978 159.019 10.8384 158.88 10.418 158.88C9.78729 158.88 9.29439 159.191 8.93928 159.813C8.58416 160.432 8.40661 161.309 8.40661 162.442C8.40661 163.198 8.48615 163.84 8.64524 164.368C8.80433 164.897 9.03303 165.299 9.33132 165.574C9.63246 165.85 9.99467 165.987 10.418 165.987Z" fill="black"/>
<path d="M43.9833 197.159V205.886H42.9265V198.267H42.8754L40.7447 199.682V198.608L42.9265 197.159H43.9833ZM49.5614 197.159V205.886H48.5046V198.267H48.4535L46.3228 199.682V198.608L48.5046 197.159H49.5614Z" fill="black"/>
<path d="M79.6969 205.886V205.119L82.5775 201.966C82.9156 201.596 83.194 201.275 83.4128 201.003C83.6315 200.727 83.7935 200.469 83.8986 200.227C84.0065 199.983 84.0605 199.727 84.0605 199.46C84.0605 199.153 83.9866 198.888 83.8389 198.663C83.694 198.439 83.4952 198.265 83.2423 198.143C82.9895 198.021 82.7054 197.96 82.39 197.96C82.0548 197.96 81.7622 198.03 81.5122 198.169C81.265 198.305 81.0733 198.497 80.9369 198.744C80.8034 198.991 80.7366 199.281 80.7366 199.614H79.731C79.731 199.102 79.8489 198.653 80.0847 198.267C80.3204 197.881 80.6415 197.579 81.0477 197.364C81.4568 197.148 81.9156 197.04 82.4241 197.04C82.9355 197.04 83.3886 197.148 83.7835 197.364C84.1784 197.579 84.4881 197.871 84.7125 198.237C84.9369 198.604 85.0491 199.011 85.0491 199.46C85.0491 199.781 84.9909 200.095 84.8744 200.402C84.7608 200.706 84.5619 201.045 84.2778 201.42C83.9966 201.792 83.606 202.247 83.106 202.784L81.1457 204.881V204.949H85.2025V205.886H79.6969ZM90.0307 197.159V205.886H88.9739V198.267H88.9227L86.792 199.682V198.608L88.9739 197.159H90.0307Z" fill="black"/>
<path d="M121.428 206.006C120.865 206.006 120.364 205.909 119.924 205.716C119.486 205.523 119.138 205.254 118.88 204.91C118.624 204.564 118.485 204.162 118.462 203.704H119.536C119.559 203.986 119.655 204.229 119.826 204.433C119.996 204.635 120.219 204.791 120.495 204.902C120.77 205.013 121.076 205.068 121.411 205.068C121.786 205.068 122.118 205.003 122.408 204.872C122.698 204.741 122.925 204.56 123.09 204.327C123.255 204.094 123.337 203.824 123.337 203.517C123.337 203.196 123.258 202.913 123.098 202.669C122.939 202.422 122.706 202.229 122.4 202.089C122.093 201.95 121.718 201.881 121.275 201.881H120.576V200.943H121.275C121.621 200.943 121.925 200.881 122.186 200.756C122.451 200.631 122.657 200.454 122.804 200.227C122.955 200 123.03 199.733 123.03 199.426C123.03 199.131 122.965 198.873 122.834 198.655C122.704 198.436 122.519 198.265 122.28 198.143C122.044 198.021 121.766 197.96 121.445 197.96C121.144 197.96 120.86 198.015 120.593 198.126C120.329 198.234 120.113 198.392 119.945 198.599C119.777 198.804 119.686 199.051 119.672 199.341H118.65C118.667 198.883 118.804 198.483 119.063 198.139C119.321 197.792 119.659 197.523 120.077 197.329C120.498 197.136 120.959 197.04 121.462 197.04C122.002 197.04 122.465 197.149 122.851 197.368C123.238 197.584 123.534 197.869 123.742 198.224C123.949 198.579 124.053 198.963 124.053 199.375C124.053 199.866 123.924 200.285 123.665 200.632C123.409 200.979 123.061 201.219 122.621 201.352V201.42C123.172 201.511 123.603 201.746 123.912 202.123C124.222 202.498 124.377 202.963 124.377 203.517C124.377 203.991 124.248 204.417 123.989 204.795C123.733 205.17 123.384 205.466 122.941 205.682C122.498 205.898 121.993 206.006 121.428 206.006ZM129.188 197.159V205.886H128.131V198.267H128.08L125.949 199.682V198.608L128.131 197.159H129.188Z" fill="black"/>
<path d="M157.057 204.096V203.227L160.892 197.159H161.523V198.506H161.097L158.199 203.091V203.159H163.364V204.096H157.057ZM161.165 205.886V203.832V203.427V197.159H162.171V205.886H161.165ZM167.912 197.159V205.886H166.855V198.267H166.804L164.673 199.682V198.608L166.855 197.159H167.912Z" fill="black"/>
<path d="M198.771 206.006C198.271 206.006 197.821 205.906 197.42 205.707C197.02 205.508 196.699 205.236 196.457 204.889C196.216 204.542 196.084 204.148 196.061 203.704H197.084C197.124 204.099 197.303 204.426 197.621 204.685C197.942 204.94 198.325 205.068 198.771 205.068C199.129 205.068 199.447 204.984 199.726 204.817C200.007 204.649 200.227 204.419 200.386 204.126C200.548 203.831 200.629 203.497 200.629 203.125C200.629 202.744 200.545 202.405 200.378 202.106C200.213 201.805 199.986 201.568 199.696 201.395C199.406 201.221 199.075 201.133 198.703 201.131C198.436 201.128 198.162 201.169 197.881 201.254C197.599 201.337 197.368 201.443 197.186 201.574L196.197 201.454L196.726 197.159H201.26V198.096H197.612L197.305 200.67H197.357C197.536 200.528 197.76 200.41 198.03 200.317C198.3 200.223 198.581 200.176 198.874 200.176C199.408 200.176 199.884 200.304 200.301 200.56C200.722 200.812 201.051 201.159 201.29 201.599C201.531 202.04 201.652 202.542 201.652 203.108C201.652 203.665 201.527 204.162 201.277 204.599C201.03 205.034 200.689 205.378 200.254 205.631C199.82 205.881 199.325 206.006 198.771 206.006ZM206.413 197.159V205.886H205.356V198.267H205.305L203.174 199.682V198.608L205.356 197.159H206.413Z" fill="black"/>
<path d="M237.724 206.006C237.366 206 237.008 205.932 236.65 205.801C236.292 205.67 235.965 205.45 235.67 205.14C235.375 204.828 235.137 204.406 234.958 203.875C234.779 203.341 234.69 202.67 234.69 201.864C234.69 201.091 234.762 200.406 234.907 199.81C235.052 199.21 235.262 198.706 235.538 198.297C235.813 197.885 236.146 197.572 236.535 197.359C236.927 197.146 237.369 197.04 237.86 197.04C238.349 197.04 238.784 197.138 239.164 197.334C239.548 197.527 239.86 197.797 240.102 198.143C240.343 198.49 240.5 198.889 240.571 199.341H239.531C239.434 198.949 239.247 198.623 238.968 198.365C238.69 198.106 238.321 197.977 237.86 197.977C237.184 197.977 236.652 198.271 236.262 198.859C235.876 199.447 235.681 200.273 235.679 201.335H235.747C235.906 201.094 236.095 200.888 236.313 200.717C236.535 200.544 236.779 200.41 237.046 200.317C237.313 200.223 237.596 200.176 237.894 200.176C238.394 200.176 238.852 200.301 239.267 200.551C239.681 200.798 240.014 201.14 240.264 201.578C240.514 202.013 240.639 202.511 240.639 203.074C240.639 203.614 240.518 204.108 240.277 204.557C240.035 205.003 239.696 205.358 239.258 205.622C238.823 205.883 238.312 206.011 237.724 206.006ZM237.724 205.068C238.082 205.068 238.403 204.979 238.687 204.8C238.974 204.621 239.2 204.381 239.365 204.079C239.532 203.778 239.616 203.443 239.616 203.074C239.616 202.713 239.535 202.385 239.373 202.089C239.214 201.791 238.994 201.554 238.713 201.378C238.434 201.202 238.116 201.114 237.758 201.114C237.488 201.114 237.237 201.167 237.004 201.275C236.771 201.381 236.566 201.525 236.39 201.71C236.217 201.895 236.081 202.106 235.981 202.345C235.882 202.581 235.832 202.829 235.832 203.091C235.832 203.437 235.913 203.761 236.075 204.062C236.24 204.364 236.464 204.606 236.748 204.791C237.035 204.976 237.36 205.068 237.724 205.068ZM245.383 197.159V205.886H244.326V198.267H244.275L242.144 199.682V198.608L244.326 197.159H245.383Z" fill="black"/>
<path d="M273.881 205.886L277.785 198.165V198.096H273.285V197.159H278.876V198.148L274.989 205.886H273.881ZM283.532 197.159V205.886H282.475V198.267H282.424L280.294 199.682V198.608L282.475 197.159H283.532Z" fill="black"/>
<path d="M315.186 206.006C314.601 206.006 314.084 205.902 313.635 205.694C313.189 205.484 312.841 205.196 312.591 204.829C312.341 204.46 312.217 204.04 312.22 203.568C312.217 203.199 312.29 202.858 312.438 202.545C312.585 202.23 312.787 201.967 313.043 201.757C313.301 201.544 313.59 201.409 313.908 201.352V201.301C313.49 201.193 313.158 200.959 312.911 200.598C312.663 200.234 312.541 199.821 312.544 199.358C312.541 198.915 312.653 198.518 312.881 198.169C313.108 197.819 313.421 197.544 313.818 197.342C314.219 197.14 314.675 197.04 315.186 197.04C315.692 197.04 316.144 197.14 316.541 197.342C316.939 197.544 317.252 197.819 317.479 198.169C317.709 198.518 317.825 198.915 317.828 199.358C317.825 199.821 317.699 200.234 317.449 200.598C317.202 200.959 316.874 201.193 316.465 201.301V201.352C316.78 201.409 317.064 201.544 317.317 201.757C317.57 201.967 317.771 202.23 317.922 202.545C318.073 202.858 318.149 203.199 318.152 203.568C318.149 204.04 318.021 204.46 317.769 204.829C317.519 205.196 317.171 205.484 316.725 205.694C316.281 205.902 315.769 206.006 315.186 206.006ZM315.186 205.068C315.581 205.068 315.922 205.004 316.209 204.876C316.496 204.748 316.717 204.568 316.874 204.335C317.03 204.102 317.109 203.829 317.112 203.517C317.109 203.187 317.024 202.896 316.857 202.643C316.689 202.39 316.46 202.192 316.171 202.047C315.884 201.902 315.555 201.829 315.186 201.829C314.814 201.829 314.482 201.902 314.189 202.047C313.899 202.192 313.671 202.39 313.503 202.643C313.338 202.896 313.257 203.187 313.26 203.517C313.257 203.829 313.332 204.102 313.486 204.335C313.642 204.568 313.865 204.748 314.155 204.876C314.445 205.004 314.788 205.068 315.186 205.068ZM315.186 200.926C315.499 200.926 315.776 200.864 316.017 200.739C316.261 200.614 316.453 200.439 316.592 200.214C316.732 199.99 316.803 199.727 316.805 199.426C316.803 199.131 316.733 198.873 316.597 198.655C316.46 198.433 316.271 198.263 316.03 198.143C315.788 198.021 315.507 197.96 315.186 197.96C314.859 197.96 314.574 198.021 314.33 198.143C314.085 198.263 313.896 198.433 313.763 198.655C313.629 198.873 313.564 199.131 313.567 199.426C313.564 199.727 313.631 199.99 313.767 200.214C313.906 200.439 314.098 200.614 314.342 200.739C314.587 200.864 314.868 200.926 315.186 200.926ZM322.853 197.159V205.886H321.797V198.267H321.745L319.615 199.682V198.608L321.797 197.159H322.853Z" fill="black"/>
<path d="M67.457 152.419L112.206 120.2L171.871 108.267L203.493 97.5273L223.779 120.2L278.671 123.78L313.873 81.4177" stroke="#1A6980" stroke-width="2"/>
<circle cx="71.6335" cy="149.436" r="4.36985" fill="white" stroke="#1A6980" stroke-width="2"/>
<circle cx="112.206" cy="119.902" r="4.36985" fill="white" stroke="#1A6980" stroke-width="2"/>
<circle cx="169.186" cy="108.864" r="4.36985" fill="white" stroke="#1A6980" stroke-width="2"/>
<circle cx="203.493" cy="96.6323" r="4.36985" fill="white" stroke="#1A6980" stroke-width="2"/>
<circle cx="225.57" cy="119.902" r="4.36985" fill="white" stroke="#1A6980" stroke-width="2"/>
<circle cx="278.373" cy="122.288" r="4.36985" fill="white" stroke="#1A6980" stroke-width="2"/>
<circle cx="313.158" cy="83.8044" r="4.36985" fill="white" stroke="#1A6980" stroke-width="2"/>
<line opacity="0.11" x1="46.6709" y1="172.705" x2="46.6709" y2="4.30954" stroke="black" stroke-opacity="0.45"/>
<line opacity="0.11" x1="24.3579" y1="163.255" x2="322.823" y2="163.255" stroke="black" stroke-opacity="0.45"/>
<line opacity="0.11" x1="24.3579" y1="113.734" x2="322.823" y2="113.734" stroke="black" stroke-opacity="0.45"/>
<line opacity="0.11" x1="24.3579" y1="64.2115" x2="322.823" y2="64.2115" stroke="black" stroke-opacity="0.45"/>
<line opacity="0.11" x1="24.3579" y1="14.6896" x2="322.823" y2="14.6896" stroke="black" stroke-opacity="0.45"/>
<line opacity="0.11" x1="86.0503" y1="172.705" x2="86.0503" y2="4.30954" stroke="black" stroke-opacity="0.45"/>
<line opacity="0.11" x1="125.429" y1="172.705" x2="125.429" y2="4.30954" stroke="black" stroke-opacity="0.45"/>
<line opacity="0.11" x1="164.808" y1="172.705" x2="164.808" y2="4.30954" stroke="black" stroke-opacity="0.45"/>
<line opacity="0.11" x1="204.187" y1="172.705" x2="204.187" y2="4.30954" stroke="black" stroke-opacity="0.45"/>
<line opacity="0.11" x1="243.565" y1="172.705" x2="243.565" y2="4.30954" stroke="black" stroke-opacity="0.45"/>
<line opacity="0.11" x1="282.945" y1="172.705" x2="282.945" y2="4.30954" stroke="black" stroke-opacity="0.45"/>
<line opacity="0.11" x1="322.323" y1="172.705" x2="322.323" y2="4.30954" stroke="black" stroke-opacity="0.45"/>
</svg>
