<svg width="24" height="24" viewBox="0 0 24 24" fill="none" xmlns="http://www.w3.org/2000/svg">
<path d="M17.6856 12.9188C17.6593 10.2806 19.8369 9.01528 19.9343 8.95135C18.7105 7.16192 16.8038 6.91639 16.1252 6.88845C14.5038 6.72377 12.9599 7.84349 12.1374 7.84349C11.3165 7.84349 10.0457 6.91258 8.70118 6.93629C6.9325 6.96253 5.30224 7.96499 4.39208 9.54825C2.55523 12.7347 3.92218 17.457 5.71203 20.0431C6.58706 21.3072 7.63057 22.7296 8.99963 22.6775C10.3192 22.6254 10.817 21.8241 12.4121 21.8241C14.0072 21.8241 14.4551 22.6775 15.8508 22.6508C17.2699 22.625 18.1694 21.3626 19.0373 20.0935C20.0418 18.6249 20.4554 17.203 20.48 17.131C20.4491 17.1166 17.7139 16.0688 17.6856 12.9188Z" fill="black"/>
<path d="M15.063 5.17693C15.789 4.29555 16.281 3.07085 16.1472 1.85165C15.0994 1.89399 13.8311 2.54804 13.0789 3.42857C12.4049 4.21004 11.8156 5.45422 11.9735 6.6514C13.1424 6.74199 14.3345 6.05662 15.063 5.17693Z" fill="black"/>
</svg>
