<svg width="32" height="32" viewBox="0 0 32 32" fill="none" xmlns="http://www.w3.org/2000/svg">
<rect width="32" height="32" rx="8" fill="#1A6980"/>
<g clip-path="url(#clip0_508_858)">
<path d="M22.4401 14.4067L16.0001 8L9.56014 14.4067C9.48415 14.4645 9.42149 14.538 9.37639 14.6222C9.33129 14.7064 9.3048 14.7993 9.29872 14.8946C9.29264 14.9899 9.3071 15.0854 9.34114 15.1747C9.37518 15.2639 9.42799 15.3448 9.496 15.4118C9.56402 15.4789 9.64564 15.5305 9.73535 15.5633C9.82506 15.596 9.92076 15.6091 10.016 15.6017C10.1112 15.5943 10.2037 15.5664 10.2872 15.5201C10.3708 15.4738 10.4434 15.4101 10.5001 15.3333L15.3335 10.54V23.2933C15.3335 23.4701 15.4037 23.6397 15.5287 23.7647C15.6538 23.8898 15.8233 23.96 16.0001 23.96C16.1769 23.96 16.3465 23.8898 16.4715 23.7647C16.5966 23.6397 16.6668 23.4701 16.6668 23.2933V10.54L21.5001 15.3333C21.6257 15.458 21.7956 15.5277 21.9725 15.527C22.1494 15.5264 22.3188 15.4555 22.4435 15.33C22.5681 15.2045 22.6378 15.0346 22.6372 14.8576C22.6365 14.6807 22.5657 14.5113 22.4401 14.3867V14.4067Z" fill="white"/>
</g>
<defs>
<clipPath id="clip0_508_858">
<rect width="24" height="24" fill="white" transform="translate(4 4)"/>
</clipPath>
</defs>
</svg>
