<svg width="25" height="24" viewBox="0 0 25 24" fill="none" xmlns="http://www.w3.org/2000/svg">
<g clip-path="url(#clip0_546_935)">
<path d="M12.3005 14.2498C11.4342 14.2506 10.5813 14.0366 9.81784 13.6271C9.05443 13.2177 8.40437 12.6254 7.92578 11.9033L9.17528 11.0728C9.51741 11.5884 9.98183 12.0114 10.5271 12.3041C11.0724 12.5967 11.6817 12.7498 12.3005 12.7498C12.9194 12.7498 13.5286 12.5967 14.0739 12.3041C14.6192 12.0114 15.0837 11.5884 15.4258 11.0728L16.6753 11.9033C16.1967 12.6254 15.5466 13.2177 14.7832 13.6271C14.0198 14.0366 13.1668 14.2506 12.3005 14.2498Z" fill="#AEAEAE"/>
<path d="M15.3003 6.00007C15.0036 6.00007 14.7136 6.08805 14.4669 6.25287C14.2203 6.41769 14.028 6.65196 13.9145 6.92605C13.8009 7.20014 13.7712 7.50174 13.8291 7.79271C13.887 8.08368 14.0299 8.35095 14.2396 8.56073C14.4494 8.77051 14.7167 8.91337 15.0077 8.97125C15.2986 9.02913 15.6002 8.99942 15.8743 8.88589C16.1484 8.77236 16.3827 8.5801 16.5475 8.33343C16.7123 8.08675 16.8003 7.79674 16.8003 7.50007C16.8022 7.30255 16.7648 7.10662 16.6901 6.92375C16.6154 6.74089 16.505 6.57476 16.3653 6.43508C16.2256 6.2954 16.0595 6.18499 15.8766 6.11029C15.6937 6.0356 15.4978 5.99813 15.3003 6.00007Z" fill="#AEAEAE"/>
<path d="M9.30029 6.00007C9.00362 6.00007 8.71361 6.08805 8.46694 6.25287C8.22026 6.41769 8.02801 6.65196 7.91447 6.92605C7.80094 7.20014 7.77124 7.50174 7.82912 7.79271C7.88699 8.08368 8.02986 8.35095 8.23963 8.56073C8.44941 8.77051 8.71669 8.91337 9.00766 8.97125C9.29863 9.02913 9.60023 8.99942 9.87432 8.88589C10.1484 8.77236 10.3827 8.5801 10.5475 8.33343C10.7123 8.08675 10.8003 7.79674 10.8003 7.50007C10.8022 7.30255 10.7648 7.10662 10.6901 6.92375C10.6154 6.74089 10.505 6.57476 10.3653 6.43508C10.2256 6.2954 10.0595 6.18499 9.87661 6.11029C9.69374 6.0356 9.49782 5.99813 9.30029 6.00007Z" fill="#AEAEAE"/>
<path d="M13.6021 22.5L12.3003 21.75L15.3003 16.5H19.8003C19.9974 16.5003 20.1926 16.4618 20.3747 16.3865C20.5569 16.3112 20.7223 16.2008 20.8617 16.0614C21.0011 15.9221 21.1115 15.7566 21.1868 15.5744C21.2621 15.3923 21.3006 15.1971 21.3003 15V4.5C21.3006 4.30292 21.2621 4.10772 21.1868 3.92558C21.1115 3.74344 21.0011 3.57795 20.8617 3.43859C20.7223 3.29924 20.5569 3.18876 20.3747 3.1135C20.1926 3.03823 19.9974 2.99966 19.8003 3H4.80029C4.60322 2.99966 4.40801 3.03823 4.22587 3.1135C4.04373 3.18876 3.87824 3.29924 3.73888 3.43859C3.59953 3.57795 3.48905 3.74344 3.41379 3.92558C3.33853 4.10772 3.29996 4.30292 3.30029 4.5V15C3.29996 15.1971 3.33853 15.3923 3.41379 15.5744C3.48905 15.7566 3.59953 15.9221 3.73888 16.0614C3.87824 16.2008 4.04373 16.3112 4.22587 16.3865C4.40801 16.4618 4.60322 16.5003 4.80029 16.5H11.5503V18H4.80029C4.40631 18.0001 4.01617 17.9225 3.65216 17.7718C3.28815 17.621 2.95741 17.4001 2.67882 17.1215C2.40023 16.8429 2.17925 16.5121 2.02851 16.1481C1.87777 15.7841 1.80022 15.394 1.80029 15V4.5C1.80017 4.106 1.87769 3.71584 2.02841 3.35181C2.17914 2.98778 2.40011 2.65702 2.67871 2.37842C2.95731 2.09982 3.28807 1.87884 3.6521 1.72812C4.01613 1.5774 4.40629 1.49988 4.80029 1.5H19.8003C20.1943 1.49988 20.5845 1.5774 20.9485 1.72812C21.3125 1.87884 21.6433 2.09982 21.9219 2.37842C22.2005 2.65702 22.4214 2.98778 22.5722 3.35181C22.7229 3.71584 22.8004 4.106 22.8003 4.5V15C22.8004 15.394 22.7228 15.7841 22.5721 16.1481C22.4213 16.5121 22.2004 16.8429 21.9218 17.1215C21.6432 17.4001 21.3124 17.621 20.9484 17.7718C20.5844 17.9225 20.1943 18.0001 19.8003 18H16.1737L13.6021 22.5Z" fill="#AEAEAE"/>
</g>
<defs>
<clipPath id="clip0_546_935">
<rect width="24" height="24" fill="white" transform="translate(0.300293)"/>
</clipPath>
</defs>
</svg>
