<svg width="32" height="33" viewBox="0 0 32 33" fill="none" xmlns="http://www.w3.org/2000/svg">
<rect y="0.5" width="32" height="32" rx="16" fill="black" fill-opacity="0.05"/>
<path d="M10.6668 20.5H12.0002V23.2207L15.4008 20.5H18.6668C19.4022 20.5 20.0002 19.902 20.0002 19.1667V13.8333C20.0002 13.098 19.4022 12.5 18.6668 12.5H10.6668C9.9315 12.5 9.3335 13.098 9.3335 13.8333V19.1667C9.3335 19.902 9.9315 20.5 10.6668 20.5Z" fill="black"/>
<path d="M21.3333 9.83337H13.3333C12.598 9.83337 12 10.4314 12 11.1667H20C20.7353 11.1667 21.3333 11.7647 21.3333 12.5V17.8334C22.0687 17.8334 22.6667 17.2354 22.6667 16.5V11.1667C22.6667 10.4314 22.0687 9.83337 21.3333 9.83337Z" fill="black"/>
</svg>
