<svg width="18" height="18" viewBox="0 0 18 18" fill="none" xmlns="http://www.w3.org/2000/svg">
<path d="M14.5 10.5H3.5V9.5H14.5V10.5ZM14.5 7.5H3.5V6.5H14.5V7.5ZM14.5 4.5H3.5V3.5H14.5V4.5ZM-1.90735e-06 17.077L3.077 14H16.384C16.8447 14 17.2293 13.846 17.538 13.538C17.8467 13.23 18.0007 12.8457 18 12.385V1.615C18 1.155 17.8457 0.770669 17.537 0.462002C17.2283 0.153335 16.8443 -0.000664511 16.385 2.15517e-06H1.615C1.155 2.15517e-06 0.770998 0.154002 0.462997 0.462002C0.154997 0.770002 0.000665665 1.15434 -1.90735e-06 1.615V17.077ZM16.384 13H2.65L0.999998 14.644V1.616C0.999998 1.462 1.064 1.32067 1.192 1.192C1.32 1.06334 1.461 0.999335 1.615 1H16.385C16.5383 1 16.6793 1.064 16.808 1.192C16.9367 1.32 17.0007 1.461 17 1.615V12.385C17 12.5383 16.936 12.6793 16.808 12.808C16.68 12.9367 16.539 13.0007 16.385 13" fill="#1E1E1E"/>
</svg>
