<svg width="18" height="21" viewBox="0 0 18 21" fill="none" xmlns="http://www.w3.org/2000/svg">
<path fill-rule="evenodd" clip-rule="evenodd" d="M9.54417 20.3202L9.53317 20.3221L9.46809 20.3541L9.44975 20.3578L9.43692 20.3541L9.37184 20.3211C9.36206 20.3187 9.35472 20.3205 9.34984 20.3266L9.34617 20.3358L9.33059 20.7281L9.33517 20.7465L9.34434 20.7584L9.43967 20.8262L9.45342 20.8299L9.46442 20.8262L9.55975 20.7584L9.57075 20.7437L9.57442 20.7281L9.55884 20.3367C9.55639 20.3269 9.5515 20.3214 9.54417 20.3202ZM9.78617 20.2166L9.77334 20.2185L9.60467 20.3037L9.5955 20.3129L9.59275 20.323L9.60925 20.7171L9.61384 20.7281L9.62117 20.7355L9.80542 20.8198C9.81703 20.8229 9.82589 20.8204 9.832 20.8125L9.83567 20.7996L9.8045 20.2368C9.80145 20.2252 9.79534 20.2185 9.78617 20.2166ZM9.13075 20.2185C9.12671 20.216 9.12188 20.2152 9.11727 20.2163C9.11266 20.2173 9.10863 20.22 9.106 20.224L9.1005 20.2368L9.06934 20.7996C9.06995 20.8106 9.07514 20.818 9.08492 20.8216L9.09867 20.8198L9.28292 20.7346L9.29209 20.7272L9.29484 20.7171L9.31134 20.323L9.30859 20.312L9.29942 20.3028L9.13075 20.2185Z" fill="#1A6980"/>
<path fill-rule="evenodd" clip-rule="evenodd" d="M5.40303 5.65518L5.49011 5.73127L13.2689 13.5092C13.3709 13.611 13.4474 13.7355 13.4923 13.8724C13.5371 14.0094 13.549 14.155 13.5271 14.2974C13.5051 14.4398 13.4499 14.5751 13.3658 14.6922C13.2818 14.8092 13.1714 14.9049 13.0434 14.9713L12.9371 15.0171L3.41753 18.5252C1.6282 19.1852 -0.114386 17.5031 0.429197 15.7165L0.47503 15.5827L3.9822 6.0631C4.02856 5.937 4.10208 5.82263 4.19755 5.72809C4.29302 5.63355 4.40811 5.56116 4.53466 5.51603C4.66121 5.4709 4.79613 5.45414 4.92988 5.46694C5.06362 5.47974 5.19292 5.52179 5.30861 5.5901L5.40303 5.65518ZM5.20686 8.04035L2.19561 16.217C2.16762 16.2931 2.1603 16.3752 2.1744 16.4551C2.18851 16.5349 2.22353 16.6095 2.2759 16.6714C2.32827 16.7333 2.39611 16.7802 2.47251 16.8073C2.54891 16.8344 2.63113 16.8407 2.71078 16.8257L2.78411 16.8046L10.9589 13.7924L5.20686 8.04035ZM13.6814 9.63718C14.5165 9.68118 15.6615 9.85718 16.6569 10.4548C16.8588 10.5745 17.007 10.767 17.0712 10.9926C17.1354 11.2183 17.1106 11.46 17.0019 11.6679C16.8932 11.8759 16.709 12.0342 16.4871 12.1104C16.2652 12.1865 16.0225 12.1747 15.809 12.0773L15.7137 12.0269C15.0885 11.6511 14.2892 11.5044 13.5852 11.4678C13.2951 11.4517 13.0043 11.453 12.7144 11.4714L12.4247 11.4998C12.1856 11.5307 11.9439 11.4661 11.7521 11.3201C11.5602 11.174 11.4337 10.9582 11.3998 10.7195C11.3659 10.4808 11.4275 10.2384 11.5711 10.0447C11.7147 9.85102 11.9288 9.72174 12.1671 9.68485C12.6692 9.62007 13.1763 9.6038 13.6814 9.63626M15.5377 7.08243C15.7713 7.08292 15.9958 7.17255 16.1655 7.33301C16.3353 7.49347 16.4373 7.71267 16.4509 7.94583C16.4645 8.179 16.3885 8.40856 16.2386 8.58762C16.0886 8.76669 15.876 8.88177 15.644 8.90935L15.5377 8.91577H14.8887C14.6551 8.91528 14.4306 8.82565 14.2609 8.66519C14.0911 8.50473 13.9891 8.28553 13.9755 8.05236C13.9619 7.8192 14.0379 7.58964 14.1878 7.41057C14.3378 7.23151 14.5504 7.11643 14.7824 7.08885L14.8887 7.08243H15.5377ZM12.6209 6.37935C12.7787 6.53719 12.8735 6.7472 12.8875 6.96997C12.9015 7.19275 12.8338 7.41298 12.6969 7.58935L12.6209 7.67552L11.6492 8.6481C11.4846 8.81425 11.2628 8.91121 11.029 8.91914C10.7953 8.92707 10.5674 8.84537 10.3919 8.69075C10.2165 8.53614 10.1067 8.32031 10.0852 8.08744C10.0636 7.85457 10.1319 7.62228 10.276 7.4381L10.3521 7.35193L11.3238 6.38027C11.4089 6.29504 11.51 6.22743 11.6213 6.18129C11.7326 6.13516 11.8519 6.11142 11.9723 6.11142C12.0928 6.11142 12.2121 6.13516 12.3234 6.18129C12.4346 6.22743 12.5357 6.29412 12.6209 6.37935ZM10.2494 1.5531C10.6601 2.78693 10.4401 4.1381 10.1834 5.08227C10.0298 5.6711 9.81794 6.24317 9.55095 6.79002C9.4424 7.0076 9.25186 7.17316 9.02124 7.25026C8.79063 7.32736 8.53883 7.30969 8.32124 7.20114C8.10365 7.09259 7.9381 6.90205 7.861 6.67143C7.7839 6.44082 7.80156 6.18902 7.91011 5.97143C8.1234 5.53224 8.2923 5.07285 8.41428 4.6001C8.62236 3.83743 8.72687 3.00968 8.56645 2.33135L8.51053 2.13335C8.47058 2.01871 8.4538 1.89728 8.46117 1.7761C8.46853 1.65492 8.49989 1.53642 8.55343 1.42746C8.60697 1.3185 8.68161 1.22126 8.77304 1.14139C8.86446 1.06152 8.97084 1.0006 9.086 0.962171C9.20115 0.923745 9.3228 0.908575 9.44387 0.917544C9.56493 0.926513 9.68302 0.959441 9.79126 1.01442C9.8995 1.06939 9.99574 1.14532 10.0744 1.23779C10.153 1.33027 10.2126 1.43744 10.2494 1.5531ZM15.2132 3.78793C15.385 3.95983 15.4816 4.19295 15.4816 4.43602C15.4816 4.67908 15.385 4.9122 15.2132 5.0841L14.5651 5.73218C14.4806 5.81973 14.3794 5.88957 14.2676 5.93761C14.1557 5.98565 14.0354 6.01094 13.9137 6.012C13.792 6.01305 13.6713 5.98986 13.5587 5.94377C13.446 5.89768 13.3437 5.82961 13.2576 5.74354C13.1715 5.65748 13.1035 5.55513 13.0574 5.44247C13.0113 5.32982 12.9881 5.20911 12.9891 5.0874C12.9902 4.96568 13.0155 4.8454 13.0635 4.73356C13.1116 4.62173 13.1814 4.52058 13.2689 4.43602L13.917 3.78793C14.0889 3.61608 14.322 3.51955 14.5651 3.51955C14.8082 3.51955 15.0413 3.61608 15.2132 3.78793Z" fill="#1A6980"/>
</svg>
