<svg width="20" height="20" viewBox="0 0 20 20" fill="none" xmlns="http://www.w3.org/2000/svg">
<path d="M18.2451 11.1117C18.165 11.0313 18.0644 10.9743 17.9543 10.9468C17.8442 10.9193 17.7287 10.9222 17.6201 10.9554C16.4284 11.3157 15.1612 11.3459 13.9537 11.0428C12.7461 10.7397 11.6434 10.1147 10.7631 9.23436C9.88272 8.354 9.2577 7.2513 8.95462 6.04374C8.65153 4.83619 8.68174 3.56903 9.04202 2.37729C9.07546 2.26869 9.07866 2.15304 9.05128 2.04276C9.0239 1.93249 8.96698 1.83176 8.88664 1.75142C8.80629 1.67107 8.70557 1.61415 8.59529 1.58677C8.48502 1.5594 8.36936 1.5626 8.26077 1.59604C6.61313 2.10076 5.16666 3.11228 4.12718 4.48666C3.21812 5.69358 2.66362 7.13008 2.52598 8.63476C2.38833 10.1395 2.67298 11.6527 3.34796 13.0045C4.02294 14.3564 5.0615 15.4932 6.34697 16.2873C7.63243 17.0814 9.11386 17.5014 10.6248 17.4999C12.3876 17.5053 14.1034 16.9323 15.5092 15.8687C16.8836 14.8292 17.8951 13.3827 18.3998 11.7351C18.4329 11.6269 18.436 11.5118 18.4087 11.402C18.3815 11.2922 18.3249 11.1918 18.2451 11.1117ZM14.7576 14.8703C13.4339 15.8673 11.7944 16.3527 10.1412 16.2369C8.48796 16.1211 6.93218 15.4121 5.76025 14.2402C4.58833 13.0684 3.87914 11.5127 3.76325 9.85947C3.64735 8.20624 4.13255 6.56678 5.12952 5.24291C5.77905 4.38514 6.61879 3.68982 7.58264 3.21166C7.52774 3.59699 7.50006 3.98572 7.49983 4.37494C7.50211 6.52913 8.35886 8.59443 9.8821 10.1177C11.4053 11.6409 13.4706 12.4977 15.6248 12.4999C16.0148 12.4998 16.4044 12.4721 16.7905 12.4171C16.3118 13.3811 15.616 14.2209 14.7576 14.8703Z" fill="#1E1E1E"/>
</svg>
