<svg width="25" height="24" viewBox="0 0 25 24" fill="none" xmlns="http://www.w3.org/2000/svg">
<path fill-rule="evenodd" clip-rule="evenodd" d="M9.41645 2.42988C9.63734 2.93607 9.40606 3.52548 8.89988 3.74638C7.55247 4.33436 6.36961 5.24346 5.45472 6.3942C4.53982 7.54494 3.92075 8.90228 3.65161 10.3475C3.38248 11.7928 3.47149 13.282 3.91085 14.6849C4.35021 16.0879 5.12655 17.3618 6.17199 18.3954C7.21744 19.4289 8.50016 20.1907 9.90801 20.614C11.3159 21.0373 12.806 21.1093 14.2481 20.8237C15.6902 20.5381 17.0403 19.9035 18.1806 18.9755C19.3208 18.0476 20.2163 16.8544 20.7889 15.5004C21.004 14.9917 21.5907 14.7537 22.0994 14.9688C22.6081 15.1839 22.8461 15.7706 22.631 16.2793C21.9312 17.9342 20.8366 19.3925 19.443 20.5267C18.0494 21.6609 16.3992 22.4365 14.6366 22.7856C12.8741 23.1347 11.0528 23.0467 9.33212 22.5293C7.61141 22.0119 6.04364 21.0809 4.76588 19.8176C3.48811 18.5544 2.53925 16.9973 2.00225 15.2827C1.46526 13.568 1.35647 11.7478 1.68541 9.98141C2.01435 8.21497 2.771 6.556 3.88921 5.14954C5.00741 3.74308 6.45313 2.63196 8.09996 1.91331C8.60614 1.69242 9.19556 1.9237 9.41645 2.42988Z" fill="#AEAEAE"/>
<path fill-rule="evenodd" clip-rule="evenodd" d="M11.7929 1.29289C11.9804 1.10536 12.2348 1 12.5 1C13.9445 1 15.3749 1.28452 16.7095 1.83733C18.0441 2.39013 19.2567 3.20038 20.2782 4.22183C21.2996 5.24327 22.1099 6.4559 22.6627 7.79048C23.2155 9.12506 23.5 10.5555 23.5 12C23.5 12.5523 23.0523 13 22.5 13H12.5C11.9477 13 11.5 12.5523 11.5 12V2C11.5 1.73478 11.6054 1.48043 11.7929 1.29289ZM13.5 3.05573V11H21.4443C21.3505 10.1614 21.1391 9.33849 20.8149 8.55585C20.3626 7.46392 19.6997 6.47177 18.864 5.63604C18.0282 4.80031 17.0361 4.13738 15.9442 3.68508C15.1615 3.3609 14.3386 3.14949 13.5 3.05573Z" fill="#AEAEAE"/>
</svg>
