<svg width="32" height="33" viewBox="0 0 32 33" fill="none" xmlns="http://www.w3.org/2000/svg">
<path d="M5.44938 28.5285C5.03134 28.1614 4.63251 27.7729 4.25456 27.3648C4.09618 27.1937 3.94146 27.0191 3.79065 26.8411C1.426 24.0524 0 20.4428 0 16.5C0 7.66352 7.16351 0.5 16 0.5C24.8365 0.5 32 7.66352 32 16.5C32 20.4428 30.574 24.0524 28.2093 26.8411C28.0585 27.0191 27.9038 27.1937 27.7454 27.3648C27.3675 27.7729 26.9686 28.1614 26.5506 28.5285H5.44938Z" fill="#DCDCE0"/>
<path d="M26.5506 28.5287C23.7341 31.0011 20.0419 32.5002 16 32.5002C11.9582 32.5002 8.26593 31.0011 5.44946 28.5287C7.81864 24.768 11.6616 22.3228 16 22.3228C20.3384 22.3228 24.1815 24.768 26.5506 28.5287Z" fill="#AAAAB2"/>
<path d="M16.0001 19.6486C19.5691 19.6486 22.4623 16.7553 22.4623 13.1864C22.4623 9.61736 19.5691 6.72412 16.0001 6.72412C12.4311 6.72412 9.53784 9.61736 9.53784 13.1864C9.53784 16.7553 12.4311 19.6486 16.0001 19.6486Z" fill="#AAAAB2"/>
</svg>
