<svg width="20" height="20" viewBox="0 0 20 20" fill="none" xmlns="http://www.w3.org/2000/svg">
<path d="M4.63338 11.3276L10 16.6665L15.3667 11.3276C15.43 11.2794 15.4823 11.2181 15.5198 11.148C15.5574 11.0778 15.5795 11.0004 15.5846 10.921C15.5896 10.8416 15.5776 10.762 15.5492 10.6876C15.5208 10.6133 15.4768 10.5459 15.4202 10.49C15.3635 10.4341 15.2955 10.3911 15.2207 10.3638C15.1459 10.3365 15.0662 10.3256 14.9868 10.3318C14.9075 10.338 14.8304 10.3611 14.7608 10.3997C14.6912 10.4383 14.6307 10.4914 14.5834 10.5554L10.5556 14.5498L10.5556 3.92206C10.5556 3.77472 10.4971 3.63341 10.3929 3.52922C10.2887 3.42504 10.1474 3.3665 10.0001 3.3665C9.85271 3.3665 9.7114 3.42504 9.60721 3.52922C9.50303 3.63341 9.44449 3.77472 9.44449 3.92206L9.44449 14.5498L5.41672 10.5554C5.3121 10.4515 5.17051 10.3935 5.02309 10.394C4.87566 10.3945 4.73448 10.4536 4.6306 10.5582C4.52673 10.6628 4.46866 10.8044 4.46918 10.9518C4.46971 11.0992 4.52877 11.2404 4.63338 11.3443L4.63338 11.3276Z" fill="#1E1E1E"/>
</svg>
