<svg width="36" height="36" viewBox="0 0 36 36" fill="none" xmlns="http://www.w3.org/2000/svg">
<rect width="36" height="36" rx="6" fill="#1A6980"/>
<g clip-path="url(#clip0_983_1630)">
<path d="M25.5 26.25H10.5C9.90326 26.25 9.33097 26.0129 8.90901 25.591C8.48705 25.169 8.25 24.5967 8.25 24V15C8.25 14.4033 8.48705 13.831 8.90901 13.409C9.33097 12.9871 9.90326 12.75 10.5 12.75H13.665L13.9875 11.4525C14.1095 10.9661 14.3906 10.5344 14.786 10.2259C15.1814 9.91748 15.6685 9.74997 16.17 9.75H19.83C20.3315 9.74997 20.8186 9.91748 21.214 10.2259C21.6094 10.5344 21.8905 10.9661 22.0125 11.4525L22.335 12.75H25.5C26.0967 12.75 26.669 12.9871 27.091 13.409C27.5129 13.831 27.75 14.4033 27.75 15V24C27.75 24.5967 27.5129 25.169 27.091 25.591C26.669 26.0129 26.0967 26.25 25.5 26.25ZM10.5 14.25C10.3011 14.25 10.1103 14.329 9.96967 14.4697C9.82902 14.6103 9.75 14.8011 9.75 15V24C9.75 24.1989 9.82902 24.3897 9.96967 24.5303C10.1103 24.671 10.3011 24.75 10.5 24.75H25.5C25.6989 24.75 25.8897 24.671 26.0303 24.5303C26.171 24.3897 26.25 24.1989 26.25 24V15C26.25 14.8011 26.171 14.6103 26.0303 14.4697C25.8897 14.329 25.6989 14.25 25.5 14.25H21.75C21.5787 14.255 21.4108 14.2011 21.2743 14.0974C21.1379 13.9937 21.0411 13.8464 21 13.68L20.535 11.8125C20.4925 11.6475 20.395 11.5019 20.2587 11.3996C20.1224 11.2974 19.9553 11.2446 19.785 11.25H16.17C15.9997 11.2446 15.8326 11.2974 15.6963 11.3996C15.56 11.5019 15.4625 11.6475 15.42 11.8125L15 13.68C14.9589 13.8464 14.8621 13.9937 14.7257 14.0974C14.5892 14.2011 14.4213 14.255 14.25 14.25H10.5Z" fill="white"/>
<path d="M18 23.25C17.2583 23.25 16.5333 23.0301 15.9166 22.618C15.2999 22.206 14.8193 21.6203 14.5355 20.9351C14.2516 20.2498 14.1774 19.4958 14.3221 18.7684C14.4668 18.041 14.8239 17.3728 15.3484 16.8484C15.8728 16.3239 16.541 15.9668 17.2684 15.8221C17.9958 15.6774 18.7498 15.7516 19.4351 16.0355C20.1203 16.3193 20.706 16.7999 21.118 17.4166C21.5301 18.0333 21.75 18.7583 21.75 19.5C21.75 19.9925 21.653 20.4801 21.4646 20.9351C21.2761 21.39 20.9999 21.8034 20.6517 22.1517C20.3034 22.4999 19.89 22.7761 19.4351 22.9646C18.9801 23.153 18.4925 23.25 18 23.25ZM18 17.25C17.555 17.25 17.12 17.382 16.75 17.6292C16.38 17.8764 16.0916 18.2278 15.9213 18.639C15.751 19.0501 15.7064 19.5025 15.7932 19.939C15.8801 20.3754 16.0943 20.7763 16.409 21.091C16.7237 21.4057 17.1246 21.62 17.561 21.7068C17.9975 21.7936 18.4499 21.749 18.861 21.5787C19.2722 21.4084 19.6236 21.12 19.8708 20.75C20.118 20.38 20.25 19.945 20.25 19.5C20.25 18.9033 20.0129 18.331 19.591 17.909C19.169 17.4871 18.5967 17.25 18 17.25Z" fill="white"/>
<path d="M24 17.25H23.25C23.0511 17.25 22.8603 17.171 22.7197 17.0303C22.579 16.8897 22.5 16.6989 22.5 16.5C22.5 16.3011 22.579 16.1103 22.7197 15.9697C22.8603 15.829 23.0511 15.75 23.25 15.75H24C24.1989 15.75 24.3897 15.829 24.5303 15.9697C24.671 16.1103 24.75 16.3011 24.75 16.5C24.75 16.6989 24.671 16.8897 24.5303 17.0303C24.3897 17.171 24.1989 17.25 24 17.25Z" fill="white"/>
</g>
<defs>
<clipPath id="clip0_983_1630">
<rect width="24" height="24" fill="white" transform="translate(6 6)"/>
</clipPath>
</defs>
</svg>
