<svg width="16" height="16" viewBox="0 0 16 16" fill="none" xmlns="http://www.w3.org/2000/svg">
<path d="M14.5938 2.375H1.40625C0.629281 2.375 0 3.00819 0 3.78125V12.2188C0 12.9964 0.633906 13.625 1.40625 13.625H14.5938C15.3642 13.625 16 12.9991 16 12.2188V3.78125C16 3.00956 15.3732 2.375 14.5938 2.375ZM14.3968 3.3125C14.1095 3.59828 9.16509 8.51666 8.99438 8.68647C8.72875 8.95209 8.37563 9.09834 8 9.09834C7.62437 9.09834 7.27125 8.95206 7.00475 8.68559C6.88994 8.57137 2.00009 3.70731 1.60319 3.3125H14.3968ZM0.9375 12.0279V3.97266L4.98869 8.0025L0.9375 12.0279ZM1.60378 12.6875L5.65338 8.66366L6.34272 9.34937C6.78541 9.79206 7.37397 10.0358 8 10.0358C8.62603 10.0358 9.21459 9.79206 9.65641 9.35025L10.3466 8.66366L14.3962 12.6875H1.60378ZM15.0625 12.0279L11.0113 8.0025L15.0625 3.97266V12.0279Z" fill="#B3B3B3"/>
</svg>
