<svg width="28" height="28" viewBox="0 0 28 28" fill="none" xmlns="http://www.w3.org/2000/svg">
<path d="M2 7.0625C2 6.47569 2.48843 6 3.09091 6H24.9091C25.5116 6 26 6.47569 26 7.0625C26 7.64931 25.5116 8.125 24.9091 8.125H3.09091C2.48843 8.125 2 7.64931 2 7.0625Z" fill="#1A6980"/>
<path d="M6.90918 14.5C6.90918 13.9132 7.39761 13.4375 8.00009 13.4375H20.0001C20.6026 13.4375 21.091 13.9132 21.091 14.5C21.091 15.0868 20.6026 15.5625 20.0001 15.5625H8.00009C7.39761 15.5625 6.90918 15.0868 6.90918 14.5Z" fill="#1A6980"/>
<path d="M12.3636 20.875C11.7612 20.875 11.2727 21.3507 11.2727 21.9375C11.2727 22.5243 11.7612 23 12.3636 23H15.6364C16.2388 23 16.7273 22.5243 16.7273 21.9375C16.7273 21.3507 16.2388 20.875 15.6364 20.875H12.3636Z" fill="#1A6980"/>
</svg>
