<svg width="103" height="116" viewBox="0 0 103 116" fill="none" xmlns="http://www.w3.org/2000/svg">
<path d="M12.4556 114.138C12.707 113.034 29.2662 86.2019 30.5139 85.5966C30.6559 85.5192 39.6972 90.7385 39.6972 90.7385C40.0912 91.1713 55.8624 86.2372 55.8624 86.2372L57.8719 105.639L28.4926 107.808C28.4926 107.808 24.7541 110.513 21.3125 112.755C21.3064 112.756 21.3041 112.76 21.3 112.758C19.1828 114.145 17.3035 115.323 16.7547 115.523C15.3242 116.039 12.1965 115.236 12.4556 114.138Z" fill="#FFC4B0"/>
<path d="M16.7552 115.523C17.3067 115.324 19.1834 114.146 21.2996 112.757C21.3046 112.761 21.309 112.756 21.3137 112.755C24.753 110.514 28.4922 107.806 28.4922 107.806L35.0309 107.324L43.6765 89.8674C41.4721 90.4778 39.8226 90.8755 39.6964 90.7366C39.6964 90.7366 30.6585 85.5169 30.5152 85.5966C29.2671 86.201 12.7095 113.033 12.4565 114.136C12.1981 115.236 15.3244 116.041 16.7552 115.523Z" fill="white"/>
<path d="M12.2863 114.187C12.5541 113.056 29.2002 86.2294 30.4816 85.6072C30.9665 85.369 35.3523 87.533 39.6982 90.7385L28.9458 108.021C28.9458 108.021 18.182 115.105 16.7035 115.637C15.2283 116.162 12.0184 115.319 12.2863 114.187Z" fill="#1A6980"/>
<path d="M13.5975 114.469C16.498 110.04 27.78 91.9053 30.3108 87.3074C30.3313 87.27 30.3068 87.2546 30.2825 87.2899C27.3116 91.6162 16.177 109.842 13.5234 114.423C13.4679 114.52 13.5362 114.562 13.5975 114.469Z" fill="#263238"/>
<path d="M18.7383 114.51C19.4436 113.471 19.5836 112.114 19.3094 111.138C19.0459 110.201 18.4843 109.191 17.532 108.644C17.5047 108.628 17.4734 108.677 17.4983 108.698C19.0987 110.047 19.6512 112.607 18.6818 114.475C18.6623 114.513 18.7141 114.546 18.7383 114.51Z" fill="#263238"/>
<path d="M27.6187 109.152C28.7604 107.368 29.42 104.887 28.642 102.855C28.612 102.776 28.5003 102.82 28.4949 102.891C28.324 105.038 27.9892 106.973 27.3781 109.045C27.3347 109.191 27.5369 109.28 27.6187 109.152Z" fill="#263238"/>
<path d="M26.2149 110.205C27.3566 108.421 28.0162 105.94 27.2382 103.908C27.2079 103.829 27.0965 103.873 27.0908 103.944C26.9199 106.091 26.585 108.026 25.9736 110.099C25.9309 110.245 26.1331 110.333 26.2149 110.205Z" fill="#263238"/>
<path d="M24.8116 111.258C25.9533 109.474 26.6128 106.993 25.8349 104.961C25.8049 104.883 25.6932 104.927 25.6875 104.997C25.5165 107.145 25.1821 109.079 24.5703 111.152C24.5276 111.298 24.7298 111.386 24.8116 111.258Z" fill="#263238"/>
<path d="M23.4079 112.312C24.5497 110.528 25.2092 108.047 24.4312 106.015C24.4013 105.936 24.2895 105.98 24.2838 106.051C24.1132 108.198 23.7784 110.133 23.167 112.206C23.1243 112.352 23.3262 112.44 23.4079 112.312Z" fill="#263238"/>
<path d="M33.8719 91.1032C35.1189 89.0801 31.9771 87.1386 30.7277 89.1649C29.4806 91.188 32.6225 93.1295 33.8719 91.1032Z" fill="#263238"/>
<path d="M31.2148 114.077C32.5355 113.635 32.5096 112.029 32.0735 110.981C31.3675 109.282 29.9748 107.552 28.4858 106.489C28.4491 106.463 28.4158 106.482 28.3993 106.513C28.2465 106.472 28.0436 106.557 28.0531 106.747C28.1442 108.578 28.0147 110.548 28.6655 112.297C29.0457 113.318 29.9657 114.496 31.2148 114.077ZM28.7597 109.495C28.6931 108.596 28.6709 107.698 28.5706 106.801C29.2678 107.679 29.9997 108.522 30.6084 109.47C30.8988 109.922 31.1885 110.393 31.4146 110.881C31.7666 111.641 32.1748 114.341 30.1053 113.305C28.9643 112.734 28.8394 110.568 28.7597 109.495Z" fill="#263238"/>
<path d="M30.5933 101.603C29.3802 103.021 28.8233 104.914 28.1066 106.602C28.0322 106.778 28.1931 106.927 28.3512 106.941C28.3559 106.975 28.3805 107.005 28.4239 106.993C30.1882 106.508 32.0917 105.364 33.3394 104.013C34.1097 103.178 34.6874 101.68 33.5999 100.809C32.5709 99.9864 31.3013 100.775 30.5933 101.603ZM32.2919 101.152C34.5915 100.892 33.2782 103.286 32.686 103.879C32.3054 104.259 31.8716 104.601 31.4433 104.925C30.5455 105.606 29.568 106.145 28.6107 106.729C29.0135 105.922 29.3436 105.087 29.7164 104.265C30.1606 103.286 31.024 101.295 32.2919 101.152Z" fill="#263238"/>
<path d="M50.8319 82.2515C50.8319 82.2515 75.2223 70.1787 86.2587 69.9788C99.3894 69.7409 110.059 85.0161 94.3036 96.7332C80.3771 107.09 35.5156 107.712 35.5156 107.712L45.4301 88.5796C45.4301 88.5796 57.6691 83.406 73.8757 82.4113L51.3803 87.6885L50.8319 82.2515Z" fill="#455A64"/>
<path d="M51.401 85.9881C53.3254 85.4369 55.2912 85.0462 57.2489 84.632C59.2228 84.2144 61.2064 83.8378 63.1917 83.4791C67.1513 82.7641 71.1509 82.2153 75.1636 81.9027C75.5398 81.8734 75.9163 81.8525 76.2928 81.83C76.3696 81.7957 76.4537 81.7734 76.5338 81.7459C76.7215 81.6812 76.9083 81.6153 77.0987 81.5598C77.4534 81.4558 77.8128 81.3683 78.1715 81.2781C78.9185 81.09 79.6716 80.9373 80.4119 80.7243C80.457 80.7115 80.4815 80.7788 80.4364 80.7936C79.6941 81.0338 78.9696 81.3242 78.2267 81.5621C78.0123 81.6308 77.798 81.6987 77.5829 81.7637C79.0595 81.7011 80.537 81.6745 82.0163 81.6678C82.0627 81.6675 82.0711 81.7391 82.0233 81.7408C80.0172 81.8135 78.0052 81.9905 76.0105 82.2143C74.0292 82.4367 72.0503 82.6692 70.0795 82.9717C66.0937 83.5831 62.1224 84.3241 58.1699 85.1219C55.9524 85.5698 53.7329 86.0614 51.4915 86.37C51.2738 86.3996 51.1839 86.05 51.401 85.9881Z" fill="#263238"/>
<path d="M40.048 106.722C40.6557 105.507 41.1503 104.224 41.6938 102.979C42.2389 101.73 42.785 100.482 43.3325 99.2331C44.4251 96.7434 48.3971 88.3415 48.8113 87.7405C48.8376 87.7024 48.9018 87.7371 48.8907 87.7795C48.7269 88.4158 46.2762 93.9619 45.7085 95.2006C44.5728 97.6778 43.3648 100.115 42.1777 102.567C41.8388 103.268 41.4848 103.961 41.1399 104.658C40.7957 105.354 40.4235 106.043 40.1133 106.754C40.0951 106.797 40.0268 106.764 40.048 106.722Z" fill="#263238"/>
<path d="M98.6407 111.491C98.2857 110.416 79.2573 85.2743 77.9577 84.79C77.809 84.7265 69.3034 90.7797 69.3034 90.7797C68.9525 91.2477 52.7842 87.8313 52.7842 87.8313L52.623 107.336L82.0758 106.71C82.0758 106.71 86.0538 109.048 89.6926 110.954C89.699 110.955 89.7017 110.958 89.7054 110.955C91.9445 112.136 93.9271 113.13 94.4924 113.277C95.9652 113.655 99.0031 112.56 98.6407 111.491Z" fill="#FFC4B0"/>
<path d="M94.4921 113.277C93.9244 113.132 91.9441 112.137 89.7061 110.955C89.7014 110.959 89.6967 110.955 89.692 110.955C86.0555 109.05 82.0764 106.708 82.0764 106.708L75.5215 106.849L65.2598 90.2899C67.5119 90.6887 69.1917 90.9279 69.3044 90.7778C69.3044 90.7778 77.8066 84.725 77.9571 84.7906C79.2569 85.2738 98.2837 110.415 98.6404 111.489C99.0014 112.559 95.9656 113.657 94.4921 113.277Z" fill="white"/>
<path d="M98.8143 111.524C98.4401 110.422 79.3259 85.2952 77.9914 84.7971C77.4863 84.6057 73.3252 87.1758 69.3027 90.779L81.6454 106.964C81.6454 106.964 93.0323 112.996 94.5546 113.385C96.0729 113.768 99.1882 112.625 98.8143 111.524Z" fill="#1A6980"/>
<path d="M97.5349 111.928C94.2275 107.794 81.2771 90.8107 78.3217 86.4733C78.2975 86.4383 78.3207 86.4205 78.3479 86.4535C81.7159 90.4786 94.5283 107.567 97.6042 111.876C97.6691 111.966 97.6049 112.015 97.5349 111.928Z" fill="#263238"/>
<path d="M92.4216 112.456C91.6211 111.488 91.3529 110.151 91.5332 109.154C91.7069 108.196 92.1702 107.137 93.066 106.502C93.0915 106.484 93.1275 106.53 93.1047 106.553C91.6396 108.048 91.332 110.648 92.4744 112.417C92.4973 112.452 92.4488 112.49 92.4216 112.456Z" fill="#263238"/>
<path d="M83.0727 107.964C81.7668 106.296 80.875 103.889 81.4568 101.792C81.4794 101.711 81.5945 101.744 81.6066 101.814C81.9804 103.935 82.497 105.83 83.3018 107.835C83.359 107.977 83.1662 108.084 83.0727 107.964Z" fill="#263238"/>
<path d="M84.5707 108.88C83.2648 107.212 82.3731 104.804 82.9549 102.708C82.9774 102.626 83.0925 102.66 83.1046 102.729C83.4785 104.851 83.995 106.745 84.8002 108.751C84.8571 108.892 84.6643 108.999 84.5707 108.88Z" fill="#263238"/>
<path d="M86.0678 109.795C84.7619 108.127 83.8702 105.72 84.452 103.623C84.4745 103.542 84.5896 103.575 84.602 103.645C84.9755 105.767 85.4924 107.661 86.2976 109.667C86.3542 109.808 86.1613 109.915 86.0678 109.795Z" fill="#263238"/>
<path d="M87.5649 110.711C86.2589 109.043 85.3672 106.636 85.949 104.539C85.9716 104.458 86.0867 104.491 86.0991 104.561C86.4726 106.682 86.9895 108.577 87.7947 110.582C87.8512 110.723 87.6584 110.83 87.5649 110.711Z" fill="#263238"/>
<path d="M75.1374 90.5896C73.7039 88.6938 76.6476 86.4631 78.0834 88.362C79.5168 90.2578 76.5732 92.4888 75.1374 90.5896Z" fill="#263238"/>
<path d="M82.3286 111.194C82.8105 109.392 82.4949 107.443 82.4121 105.612C82.4037 105.421 82.1937 105.356 82.0453 105.412C82.0261 105.383 81.9911 105.367 81.9572 105.396C80.5758 106.595 79.353 108.45 78.8113 110.207C78.4768 111.293 78.603 112.894 79.9601 113.209C81.2431 113.506 82.0473 112.247 82.3286 111.194ZM80.9914 112.335C79.0297 113.562 79.1797 110.836 79.458 110.046C79.6367 109.538 79.8806 109.042 80.1266 108.565C80.6425 107.564 81.2912 106.654 81.902 105.715C81.8875 106.617 81.9504 107.512 81.9693 108.414C81.9922 109.49 82.0732 111.658 80.9914 112.335Z" fill="#263238"/>
<path d="M76.328 100.227C75.3279 101.196 76.045 102.633 76.8909 103.391C78.2611 104.617 80.2646 105.576 82.0669 105.892C82.1113 105.9 82.1328 105.867 82.1342 105.833C82.2903 105.804 82.436 105.64 82.3455 105.473C81.472 103.86 80.7381 102.028 79.3961 100.732C78.6128 99.9746 77.2742 99.3097 76.328 100.227ZM80.5217 103.298C80.9706 104.081 81.3781 104.881 81.8559 105.647C80.8478 105.156 79.8235 104.712 78.8651 104.12C78.4078 103.837 77.9438 103.538 77.5289 103.196C76.8832 102.662 75.3488 100.403 77.6628 100.444C78.9382 100.466 79.9867 102.366 80.5217 103.298Z" fill="#263238"/>
<path d="M51.8936 81.85C51.8936 81.85 26.7723 74.9296 13.5033 76.8319C0.503488 78.6954 -4.46015 95.1695 8.46159 103.728C22.5718 113.074 74.7541 108.454 74.7541 108.454L63.1208 88.737C63.1208 88.737 45.2267 84.9703 28.9989 85.5165L51.8933 88.6371L51.8936 81.85Z" fill="#455A64"/>
<path d="M63.8958 90.009C63.8814 89.9845 63.8783 89.9357 63.8716 89.9084C63.8649 89.8808 63.8582 89.8536 63.8514 89.826C63.8356 89.762 63.8185 89.6985 63.8006 89.6352C63.7633 89.5029 63.7162 89.3771 63.6657 89.2496C63.6155 89.122 63.5607 88.9979 63.5022 88.874C63.4419 88.7462 63.3608 88.6432 63.2844 88.5258C63.2767 88.5137 63.2636 88.5116 63.2535 88.5039C63.2471 88.4985 63.2404 88.4938 63.2329 88.4894C63.2229 88.4851 63.2148 88.479 63.204 88.4776C63.1939 88.4739 63.1862 88.4676 63.1747 88.4655C61.2066 88.0994 47.835 86.1861 45.8466 85.9593C43.8421 85.7308 41.8316 85.5441 39.8213 85.3752C35.8117 85.0387 31.7784 84.8718 27.754 84.9411C27.3768 84.9475 26.9999 84.9626 26.623 84.9757C26.5436 84.9492 26.4575 84.9347 26.3753 84.9148C26.1822 84.8684 25.9901 84.8206 25.7952 84.7829C25.4322 84.7133 25.066 84.6601 24.7006 84.6043C23.9391 84.4878 23.1749 84.4071 22.4175 84.2654C22.3714 84.2567 22.3536 84.3263 22.3997 84.3367C23.1615 84.5057 23.9098 84.7261 24.6723 84.8923C24.8921 84.9401 25.1121 84.9875 25.3326 85.0319C23.8567 85.1093 22.3832 85.2234 20.9103 85.3567C20.8639 85.361 20.8626 85.4327 20.9103 85.43C22.9145 85.3122 24.9338 85.2974 26.941 85.3314C28.9344 85.3651 30.9264 85.4088 32.9171 85.5232C36.943 85.7541 40.9664 86.1151 44.9768 86.5347C47.2269 86.7703 60.861 88.76 63.1212 88.8545C63.1313 88.8549 63.1394 88.8512 63.1488 88.8498C63.1673 88.9016 63.1855 88.9535 63.2111 89.0043C63.273 89.1271 63.3353 89.2482 63.4022 89.3684C63.4668 89.4841 63.5304 89.5985 63.6038 89.7089C63.6405 89.7637 63.6768 89.8186 63.7145 89.8728C63.7333 89.8997 63.7522 89.9269 63.7707 89.9542C63.7865 89.9771 63.8211 90.0124 63.8296 90.0393C63.8454 90.0895 63.9231 90.0558 63.8958 90.009Z" fill="#263238"/>
<path d="M70.5577 107.256C69.8372 106.103 69.2235 104.874 68.5643 103.686C67.9031 102.494 67.2412 101.303 66.5776 100.112C65.2538 97.7371 60.5032 89.7497 60.0338 89.1908C60.0042 89.1554 59.9433 89.1958 59.9584 89.2372C60.1819 89.855 63.1474 95.1437 63.8298 96.3231C65.195 98.6816 66.6291 100.993 68.0431 103.322C68.4469 103.987 68.8648 104.643 69.2743 105.305C69.6828 105.965 70.1189 106.615 70.4951 107.294C70.518 107.335 70.5829 107.296 70.5577 107.256Z" fill="#263238"/>
<path d="M66.4093 36.9063C66.397 37.0508 66.2894 37.1863 66.1479 37.1872C65.8253 37.1676 65.4386 37.1379 65.0042 37.1069C64.3369 34.1262 63.5179 31.7173 63.6973 32.6378C63.9565 33.9703 64.0377 35.8463 63.8813 37.0223C63.3777 36.9823 62.2119 36.8778 61.6279 36.8255C61.3597 31.7054 60.6835 27.8411 60.6134 28.9942C60.3316 33.6451 59.8955 35.0914 59.4025 36.633C53.9661 36.1408 46.8463 35.4119 41.7096 34.7672C41.4562 31.9221 41.3049 28.8594 41.1893 29.0558C40.2985 30.5187 39.831 32.7551 39.6015 34.4969C37.9677 34.2788 36.6655 34.0727 35.8775 33.9044C35.8775 33.9044 35.781 31.5286 35.8197 30.7567C35.9089 28.7906 36.3552 26.8253 37.1058 25.0194C37.8861 23.16 39.0341 21.5823 40.1387 19.955C40.1472 19.9414 40.1561 19.9278 40.1655 19.9197C40.1646 19.9137 40.1697 19.9129 40.174 19.9061C40.9313 18.7794 41.5242 17.6816 41.9799 16.4953C41.9841 16.4885 41.9884 16.4817 41.9922 16.469C42.3097 15.6258 42.5596 14.7439 42.7538 13.7612C43.41 10.3836 45.5627 7.68563 48.6615 7.20494C55.0044 2.29771 60.3647 5.49 61.5357 10.1035C61.6479 10.5528 61.7477 11.0641 61.8374 11.6187L61.8395 11.6361C62.1762 13.6885 62.3797 16.3194 62.6156 18.3637C62.6114 18.3705 62.6173 18.3752 62.6173 18.3752C62.6131 18.382 62.6139 18.3879 62.6203 18.3981L62.6211 18.4041C62.7406 19.3786 62.8617 20.2104 63.0113 20.782C64.0003 24.54 67.0107 27.0196 66.4093 36.9063Z" fill="#263238"/>
<path d="M47.2442 7.96116C45.1484 8.78186 43.7497 10.215 43.1402 12.6622C42.7854 14.0886 42.5214 15.492 41.8342 16.7887C41.1248 18.1271 40.1337 19.1671 39.1196 20.2029C37.5075 21.8485 36.3162 23.5448 35.8015 25.9576C35.2787 28.4086 35.0305 31.3519 35.527 33.7766C35.5299 33.7906 35.5491 33.7868 35.5469 33.7723C35.2022 31.3366 35.5839 28.0843 36.2754 25.68C37.0349 23.039 38.6687 21.54 40.3789 19.6916C41.7377 18.2231 42.697 16.5239 43.1985 14.48C43.4956 13.27 43.6354 11.9873 44.2393 10.8929C44.9597 9.58641 46.1668 8.86049 47.3521 8.23232C47.5132 8.14646 47.4031 7.89868 47.2442 7.96116Z" fill="#263238"/>
<path d="M65.8298 25.0581C64.6832 22.9305 63.4442 21.0799 62.9283 18.5668C62.4578 16.2768 62.3188 13.9074 61.8347 11.6182C61.8266 11.5813 61.7761 11.5889 61.7829 11.628C62.4659 15.6682 62.2104 19.6124 64.1451 23.2008C65.1962 25.1503 66.2629 26.9702 66.8388 29.2126C67.4441 31.5689 67.5371 33.9464 67.2932 36.4094C67.2847 36.4957 67.3875 36.505 67.405 36.4238C68.2397 32.4988 67.6302 28.3991 65.8298 25.0581Z" fill="#263238"/>
<path d="M64.8587 56.4952L68.2682 76.4569C68.2682 76.4569 50.4405 83.4152 28.8672 76.3702C28.8672 76.3702 35.2586 41.3464 43.6836 32.1984C47.8977 27.6227 52.8457 27.9648 55.9989 31.1639C56.797 31.9735 65.132 43.3707 66.1351 48.1776C67.0106 52.4193 64.8587 56.4952 64.8587 56.4952Z" fill="#1A6980"/>
<path d="M92.2836 18.2753C92.4252 18.2753 92.5399 18.1605 92.5399 18.019C92.5399 17.8774 92.4252 17.7627 92.2836 17.7627C92.1421 17.7627 92.0273 17.8774 92.0273 18.019C92.0273 18.1605 92.1421 18.2753 92.2836 18.2753Z" fill="white"/>
<path d="M47.3505 31.8744C47.3505 32.016 47.2357 32.1307 47.0942 32.1307C46.9526 32.1307 46.8379 32.016 46.8379 31.8744C46.8379 31.7329 46.9526 31.6182 47.0942 31.6182C47.2357 31.6182 47.3505 31.7329 47.3505 31.8744Z" fill="white"/>
<path d="M52.371 31.8744C52.371 32.016 52.2562 32.1307 52.1147 32.1307C51.9732 32.1307 51.8584 32.016 51.8584 31.8744C51.8584 31.7329 51.9732 31.6182 52.1147 31.6182C52.2562 31.6182 52.371 31.7329 52.371 31.8744Z" fill="white"/>
<path d="M42.329 38.8012C42.329 38.9427 42.2142 39.0575 42.0727 39.0575C41.9312 39.0575 41.8164 38.9427 41.8164 38.8012C41.8164 38.6597 41.9312 38.5449 42.0727 38.5449C42.2142 38.5449 42.329 38.6597 42.329 38.8012Z" fill="white"/>
<path d="M47.3505 38.8012C47.3505 38.9427 47.2357 39.0575 47.0942 39.0575C46.9526 39.0575 46.8379 38.9427 46.8379 38.8012C46.8379 38.6597 46.9526 38.5449 47.0942 38.5449C47.2357 38.5449 47.3505 38.6597 47.3505 38.8012Z" fill="white"/>
<path d="M52.371 38.8012C52.371 38.9427 52.2562 39.0575 52.1147 39.0575C51.9732 39.0575 51.8584 38.9427 51.8584 38.8012C51.8584 38.6597 51.9732 38.5449 52.1147 38.5449C52.2562 38.5449 52.371 38.6597 52.371 38.8012Z" fill="white"/>
<path d="M57.3924 38.8012C57.3924 38.9427 57.2777 39.0575 57.1362 39.0575C56.9946 39.0575 56.8799 38.9427 56.8799 38.8012C56.8799 38.6597 56.9946 38.5449 57.1362 38.5449C57.2777 38.5449 57.3924 38.6597 57.3924 38.8012Z" fill="white"/>
<path d="M44.8397 35.3481C44.8397 35.4896 44.725 35.6044 44.5834 35.6044C44.4419 35.6044 44.3271 35.4896 44.3271 35.3481C44.3271 35.2065 44.4419 35.0918 44.5834 35.0918C44.725 35.0918 44.8397 35.2065 44.8397 35.3481Z" fill="white"/>
<path d="M49.8612 35.3481C49.8612 35.4896 49.7465 35.6044 49.6049 35.6044C49.4634 35.6044 49.3486 35.4896 49.3486 35.3481C49.3486 35.2065 49.4634 35.0918 49.6049 35.0918C49.7465 35.0918 49.8612 35.2065 49.8612 35.3481Z" fill="white"/>
<path d="M54.8817 35.3481C54.8817 35.4896 54.767 35.6044 54.6254 35.6044C54.4839 35.6044 54.3691 35.4896 54.3691 35.3481C54.3691 35.2065 54.4839 35.0918 54.6254 35.0918C54.767 35.0918 54.8817 35.2065 54.8817 35.3481Z" fill="white"/>
<path d="M37.3085 45.7285C37.3085 45.87 37.1937 45.9847 37.0522 45.9847C36.9107 45.9847 36.7959 45.87 36.7959 45.7285C36.7959 45.5869 36.9107 45.4722 37.0522 45.4722C37.1937 45.4722 37.3085 45.5869 37.3085 45.7285Z" fill="white"/>
<path d="M42.329 45.7285C42.329 45.87 42.2142 45.9847 42.0727 45.9847C41.9312 45.9847 41.8164 45.87 41.8164 45.7285C41.8164 45.5869 41.9312 45.4722 42.0727 45.4722C42.2142 45.4722 42.329 45.5869 42.329 45.7285Z" fill="white"/>
<path d="M47.0942 45.9847C47.2357 45.9847 47.3505 45.87 47.3505 45.7285C47.3505 45.5869 47.2357 45.4722 47.0942 45.4722C46.9526 45.4722 46.8379 45.5869 46.8379 45.7285C46.8379 45.87 46.9526 45.9847 47.0942 45.9847Z" fill="white"/>
<path d="M52.1147 45.9847C52.2562 45.9847 52.371 45.87 52.371 45.7285C52.371 45.5869 52.2562 45.4722 52.1147 45.4722C51.9731 45.4722 51.8584 45.5869 51.8584 45.7285C51.8584 45.87 51.9731 45.9847 52.1147 45.9847Z" fill="white"/>
<path d="M57.3924 45.7285C57.3924 45.87 57.2777 45.9847 57.1362 45.9847C56.9946 45.9847 56.8799 45.87 56.8799 45.7285C56.8799 45.5869 56.9946 45.4722 57.1362 45.4722C57.2777 45.4722 57.3924 45.5869 57.3924 45.7285Z" fill="white"/>
<path d="M62.1576 45.9847C62.2992 45.9847 62.4139 45.87 62.4139 45.7285C62.4139 45.5869 62.2992 45.4722 62.1576 45.4722C62.0161 45.4722 61.9014 45.5869 61.9014 45.7285C61.9014 45.87 62.0161 45.9847 62.1576 45.9847Z" fill="white"/>
<path d="M39.8192 42.2758C39.8192 42.4173 39.7045 42.5321 39.5629 42.5321C39.4214 42.5321 39.3066 42.4173 39.3066 42.2758C39.3066 42.1343 39.4214 42.0195 39.5629 42.0195C39.7045 42.0195 39.8192 42.1343 39.8192 42.2758Z" fill="white"/>
<path d="M44.8397 42.2758C44.8397 42.4173 44.725 42.5321 44.5834 42.5321C44.4419 42.5321 44.3271 42.4173 44.3271 42.2758C44.3271 42.1343 44.4419 42.0195 44.5834 42.0195C44.725 42.0195 44.8397 42.1343 44.8397 42.2758Z" fill="white"/>
<path d="M49.8612 42.2758C49.8612 42.4173 49.7465 42.5321 49.6049 42.5321C49.4634 42.5321 49.3486 42.4173 49.3486 42.2758C49.3486 42.1343 49.4634 42.0195 49.6049 42.0195C49.7465 42.0195 49.8612 42.1343 49.8612 42.2758Z" fill="white"/>
<path d="M54.8817 42.2758C54.8817 42.4173 54.767 42.5321 54.6254 42.5321C54.4839 42.5321 54.3691 42.4173 54.3691 42.2758C54.3691 42.1343 54.4839 42.0195 54.6254 42.0195C54.767 42.0195 54.8817 42.1343 54.8817 42.2758Z" fill="white"/>
<path d="M59.9032 42.2758C59.9032 42.4173 59.7884 42.5321 59.6469 42.5321C59.5054 42.5321 59.3906 42.4173 59.3906 42.2758C59.3906 42.1343 59.5054 42.0195 59.6469 42.0195C59.7884 42.0195 59.9032 42.1343 59.9032 42.2758Z" fill="white"/>
<path d="M37.3085 52.6567C37.3085 52.7982 37.1937 52.913 37.0522 52.913C36.9107 52.913 36.7959 52.7982 36.7959 52.6567C36.7959 52.5151 36.9107 52.4004 37.0522 52.4004C37.1937 52.4004 37.3085 52.5151 37.3085 52.6567Z" fill="white"/>
<path d="M42.329 52.6567C42.329 52.7982 42.2142 52.913 42.0727 52.913C41.9312 52.913 41.8164 52.7982 41.8164 52.6567C41.8164 52.5151 41.9312 52.4004 42.0727 52.4004C42.2142 52.4004 42.329 52.5151 42.329 52.6567Z" fill="white"/>
<path d="M47.0942 52.913C47.2357 52.913 47.3505 52.7982 47.3505 52.6567C47.3505 52.5151 47.2357 52.4004 47.0942 52.4004C46.9526 52.4004 46.8379 52.5151 46.8379 52.6567C46.8379 52.7982 46.9526 52.913 47.0942 52.913Z" fill="white"/>
<path d="M52.1147 52.913C52.2562 52.913 52.371 52.7982 52.371 52.6567C52.371 52.5151 52.2562 52.4004 52.1147 52.4004C51.9731 52.4004 51.8584 52.5151 51.8584 52.6567C51.8584 52.7982 51.9731 52.913 52.1147 52.913Z" fill="white"/>
<path d="M57.3924 52.6567C57.3924 52.7982 57.2777 52.913 57.1362 52.913C56.9946 52.913 56.8799 52.7982 56.8799 52.6567C56.8799 52.5151 56.9946 52.4004 57.1362 52.4004C57.2777 52.4004 57.3924 52.5151 57.3924 52.6567Z" fill="white"/>
<path d="M62.1576 52.913C62.2992 52.913 62.4139 52.7982 62.4139 52.6567C62.4139 52.5151 62.2992 52.4004 62.1576 52.4004C62.0161 52.4004 61.9014 52.5151 61.9014 52.6567C61.9014 52.7982 62.0161 52.913 62.1576 52.913Z" fill="white"/>
<path d="M39.8192 49.2031C39.8192 49.3446 39.7045 49.4593 39.5629 49.4593C39.4214 49.4593 39.3066 49.3446 39.3066 49.2031C39.3066 49.0615 39.4214 48.9468 39.5629 48.9468C39.7045 48.9468 39.8192 49.0615 39.8192 49.2031Z" fill="white"/>
<path d="M44.8397 49.2031C44.8397 49.3446 44.725 49.4593 44.5834 49.4593C44.4419 49.4593 44.3271 49.3446 44.3271 49.2031C44.3271 49.0615 44.4419 48.9468 44.5834 48.9468C44.725 48.9468 44.8397 49.0615 44.8397 49.2031Z" fill="white"/>
<path d="M49.8612 49.2031C49.8612 49.3446 49.7465 49.4593 49.6049 49.4593C49.4634 49.4593 49.3486 49.3446 49.3486 49.2031C49.3486 49.0615 49.4634 48.9468 49.6049 48.9468C49.7465 48.9468 49.8612 49.0615 49.8612 49.2031Z" fill="white"/>
<path d="M54.8817 49.2031C54.8817 49.3446 54.767 49.4593 54.6254 49.4593C54.4839 49.4593 54.3691 49.3446 54.3691 49.2031C54.3691 49.0615 54.4839 48.9468 54.6254 48.9468C54.767 48.9468 54.8817 49.0615 54.8817 49.2031Z" fill="white"/>
<path d="M59.9032 49.2031C59.9032 49.3446 59.7884 49.4593 59.6469 49.4593C59.5054 49.4593 59.3906 49.3446 59.3906 49.2031C59.3906 49.0615 59.5054 48.9468 59.6469 48.9468C59.7884 48.9468 59.9032 49.0615 59.9032 49.2031Z" fill="white"/>
<path d="M64.9237 49.2031C64.9237 49.3446 64.8089 49.4593 64.6674 49.4593C64.5259 49.4593 64.4111 49.3446 64.4111 49.2031C64.4111 49.0615 64.5259 48.9468 64.6674 48.9468C64.8089 48.9468 64.9237 49.0615 64.9237 49.2031Z" fill="white"/>
<path d="M37.3085 59.5839C37.3085 59.7254 37.1937 59.8402 37.0522 59.8402C36.9107 59.8402 36.7959 59.7254 36.7959 59.5839C36.7959 59.4424 36.9107 59.3276 37.0522 59.3276C37.1937 59.3276 37.3085 59.4424 37.3085 59.5839Z" fill="white"/>
<path d="M42.329 59.5839C42.329 59.7254 42.2142 59.8402 42.0727 59.8402C41.9312 59.8402 41.8164 59.7254 41.8164 59.5839C41.8164 59.4424 41.9312 59.3276 42.0727 59.3276C42.2142 59.3276 42.329 59.4424 42.329 59.5839Z" fill="white"/>
<path d="M47.0942 59.8402C47.2357 59.8402 47.3505 59.7255 47.3505 59.5839C47.3505 59.4424 47.2357 59.3276 47.0942 59.3276C46.9526 59.3276 46.8379 59.4424 46.8379 59.5839C46.8379 59.7255 46.9526 59.8402 47.0942 59.8402Z" fill="white"/>
<path d="M52.1147 59.8402C52.2562 59.8402 52.371 59.7255 52.371 59.5839C52.371 59.4424 52.2562 59.3276 52.1147 59.3276C51.9731 59.3276 51.8584 59.4424 51.8584 59.5839C51.8584 59.7255 51.9731 59.8402 52.1147 59.8402Z" fill="white"/>
<path d="M57.3924 59.5839C57.3924 59.7254 57.2777 59.8402 57.1362 59.8402C56.9946 59.8402 56.8799 59.7254 56.8799 59.5839C56.8799 59.4424 56.9946 59.3276 57.1362 59.3276C57.2777 59.3276 57.3924 59.4424 57.3924 59.5839Z" fill="white"/>
<path d="M62.1576 59.8402C62.2992 59.8402 62.4139 59.7255 62.4139 59.5839C62.4139 59.4424 62.2992 59.3276 62.1576 59.3276C62.0161 59.3276 61.9014 59.4424 61.9014 59.5839C61.9014 59.7255 62.0161 59.8402 62.1576 59.8402Z" fill="white"/>
<path d="M34.7977 56.1303C34.7977 56.2718 34.683 56.3866 34.5414 56.3866C34.3999 56.3866 34.2852 56.2718 34.2852 56.1303C34.2852 55.9888 34.3999 55.874 34.5414 55.874C34.683 55.8744 34.7977 55.9888 34.7977 56.1303Z" fill="white"/>
<path d="M39.8192 56.1303C39.8192 56.2718 39.7045 56.3866 39.5629 56.3866C39.4214 56.3866 39.3066 56.2718 39.3066 56.1303C39.3066 55.9888 39.4214 55.874 39.5629 55.874C39.7045 55.8744 39.8192 55.9888 39.8192 56.1303Z" fill="white"/>
<path d="M44.5834 56.3866C44.725 56.3866 44.8397 56.2718 44.8397 56.1303C44.8397 55.9888 44.725 55.874 44.5834 55.874C44.4419 55.874 44.3271 55.9888 44.3271 56.1303C44.3271 56.2718 44.4419 56.3866 44.5834 56.3866Z" fill="white"/>
<path d="M49.8612 56.1303C49.8612 56.2718 49.7465 56.3866 49.6049 56.3866C49.4634 56.3866 49.3486 56.2718 49.3486 56.1303C49.3486 55.9888 49.4634 55.874 49.6049 55.874C49.7465 55.8744 49.8612 55.9888 49.8612 56.1303Z" fill="white"/>
<path d="M54.6254 56.3866C54.767 56.3866 54.8817 56.2718 54.8817 56.1303C54.8817 55.9888 54.767 55.874 54.6254 55.874C54.4839 55.874 54.3691 55.9888 54.3691 56.1303C54.3691 56.2718 54.4839 56.3866 54.6254 56.3866Z" fill="white"/>
<path d="M59.9032 56.1303C59.9032 56.2718 59.7884 56.3866 59.6469 56.3866C59.5054 56.3866 59.3906 56.2718 59.3906 56.1303C59.3906 55.9888 59.5054 55.874 59.6469 55.874C59.7884 55.8744 59.9032 55.9888 59.9032 56.1303Z" fill="white"/>
<path d="M64.6674 56.3866C64.809 56.3866 64.9237 56.2718 64.9237 56.1303C64.9237 55.9888 64.809 55.874 64.6674 55.874C64.5259 55.874 64.4111 55.9888 64.4111 56.1303C64.4111 56.2718 64.5259 56.3866 64.6674 56.3866Z" fill="white"/>
<path d="M32.287 66.5107C32.287 66.6522 32.1722 66.767 32.0307 66.767C31.8892 66.767 31.7744 66.6522 31.7744 66.5107C31.7744 66.3691 31.8892 66.2544 32.0307 66.2544C32.1722 66.2548 32.287 66.3696 32.287 66.5107Z" fill="white"/>
<path d="M37.3085 66.5107C37.3085 66.6522 37.1937 66.767 37.0522 66.767C36.9107 66.767 36.7959 66.6522 36.7959 66.5107C36.7959 66.3691 36.9107 66.2544 37.0522 66.2544C37.1937 66.2548 37.3085 66.3696 37.3085 66.5107Z" fill="white"/>
<path d="M42.329 66.5107C42.329 66.6522 42.2142 66.767 42.0727 66.767C41.9312 66.767 41.8164 66.6522 41.8164 66.5107C41.8164 66.3691 41.9312 66.2544 42.0727 66.2544C42.2142 66.2548 42.329 66.3696 42.329 66.5107Z" fill="white"/>
<path d="M47.0942 66.767C47.2357 66.767 47.3505 66.6522 47.3505 66.5107C47.3505 66.3691 47.2357 66.2544 47.0942 66.2544C46.9526 66.2544 46.8379 66.3691 46.8379 66.5107C46.8379 66.6522 46.9526 66.767 47.0942 66.767Z" fill="white"/>
<path d="M52.1147 66.767C52.2562 66.767 52.371 66.6522 52.371 66.5107C52.371 66.3691 52.2562 66.2544 52.1147 66.2544C51.9731 66.2544 51.8584 66.3691 51.8584 66.5107C51.8584 66.6522 51.9731 66.767 52.1147 66.767Z" fill="white"/>
<path d="M57.3924 66.5107C57.3924 66.6522 57.2777 66.767 57.1362 66.767C56.9946 66.767 56.8799 66.6522 56.8799 66.5107C56.8799 66.3691 56.9946 66.2544 57.1362 66.2544C57.2777 66.2544 57.3924 66.3696 57.3924 66.5107Z" fill="white"/>
<path d="M62.1576 66.767C62.2992 66.767 62.4139 66.6522 62.4139 66.5107C62.4139 66.3691 62.2992 66.2544 62.1576 66.2544C62.0161 66.2544 61.9014 66.3691 61.9014 66.5107C61.9014 66.6522 62.0161 66.767 62.1576 66.767Z" fill="white"/>
<path d="M34.7977 63.058C34.7977 63.1996 34.683 63.3143 34.5414 63.3143C34.3999 63.3143 34.2852 63.1996 34.2852 63.058C34.2852 62.9165 34.3999 62.8018 34.5414 62.8018C34.683 62.8018 34.7977 62.9165 34.7977 63.058Z" fill="white"/>
<path d="M39.8192 63.058C39.8192 63.1996 39.7045 63.3143 39.5629 63.3143C39.4214 63.3143 39.3066 63.1996 39.3066 63.058C39.3066 62.9165 39.4214 62.8018 39.5629 62.8018C39.7045 62.8018 39.8192 62.9165 39.8192 63.058Z" fill="white"/>
<path d="M44.5834 63.3143C44.725 63.3143 44.8397 63.1996 44.8397 63.058C44.8397 62.9165 44.725 62.8018 44.5834 62.8018C44.4419 62.8018 44.3271 62.9165 44.3271 63.058C44.3271 63.1996 44.4419 63.3143 44.5834 63.3143Z" fill="white"/>
<path d="M49.8612 63.058C49.8612 63.1996 49.7465 63.3143 49.6049 63.3143C49.4634 63.3143 49.3486 63.1996 49.3486 63.058C49.3486 62.9165 49.4634 62.8018 49.6049 62.8018C49.7465 62.8018 49.8612 62.9165 49.8612 63.058Z" fill="white"/>
<path d="M54.6254 63.3143C54.767 63.3143 54.8817 63.1996 54.8817 63.058C54.8817 62.9165 54.767 62.8018 54.6254 62.8018C54.4839 62.8018 54.3691 62.9165 54.3691 63.058C54.3691 63.1996 54.4839 63.3143 54.6254 63.3143Z" fill="white"/>
<path d="M59.9032 63.058C59.9032 63.1996 59.7884 63.3143 59.6469 63.3143C59.5054 63.3143 59.3906 63.1996 59.3906 63.058C59.3906 62.9165 59.5054 62.8018 59.6469 62.8018C59.7884 62.8018 59.9032 62.9165 59.9032 63.058Z" fill="white"/>
<path d="M64.6674 63.3143C64.809 63.3143 64.9237 63.1996 64.9237 63.058C64.9237 62.9165 64.809 62.8018 64.6674 62.8018C64.5259 62.8018 64.4111 62.9165 64.4111 63.058C64.4111 63.1996 64.5259 63.3143 64.6674 63.3143Z" fill="white"/>
<path d="M32.287 73.4389C32.287 73.5804 32.1722 73.6952 32.0307 73.6952C31.8892 73.6952 31.7744 73.5804 31.7744 73.4389C31.7744 73.2974 31.8892 73.1826 32.0307 73.1826C32.1722 73.1826 32.287 73.2974 32.287 73.4389Z" fill="white"/>
<path d="M37.3085 73.4389C37.3085 73.5804 37.1937 73.6952 37.0522 73.6952C36.9107 73.6952 36.7959 73.5804 36.7959 73.4389C36.7959 73.2974 36.9107 73.1826 37.0522 73.1826C37.1937 73.1826 37.3085 73.2974 37.3085 73.4389Z" fill="white"/>
<path d="M42.329 73.4389C42.329 73.5804 42.2142 73.6952 42.0727 73.6952C41.9312 73.6952 41.8164 73.5804 41.8164 73.4389C41.8164 73.2974 41.9312 73.1826 42.0727 73.1826C42.2142 73.1826 42.329 73.2974 42.329 73.4389Z" fill="white"/>
<path d="M47.0942 73.6952C47.2357 73.6952 47.3505 73.5804 47.3505 73.4389C47.3505 73.2974 47.2357 73.1826 47.0942 73.1826C46.9526 73.1826 46.8379 73.2974 46.8379 73.4389C46.8379 73.5804 46.9526 73.6952 47.0942 73.6952Z" fill="white"/>
<path d="M52.1147 73.6952C52.2562 73.6952 52.371 73.5804 52.371 73.4389C52.371 73.2974 52.2562 73.1826 52.1147 73.1826C51.9731 73.1826 51.8584 73.2974 51.8584 73.4389C51.8584 73.5804 51.9731 73.6952 52.1147 73.6952Z" fill="white"/>
<path d="M57.3924 73.4389C57.3924 73.5804 57.2777 73.6952 57.1362 73.6952C56.9946 73.6952 56.8799 73.5804 56.8799 73.4389C56.8799 73.2974 56.9946 73.1826 57.1362 73.1826C57.2777 73.1826 57.3924 73.2974 57.3924 73.4389Z" fill="white"/>
<path d="M62.1576 73.6952C62.2992 73.6952 62.4139 73.5804 62.4139 73.4389C62.4139 73.2974 62.2992 73.1826 62.1576 73.1826C62.0161 73.1826 61.9014 73.2974 61.9014 73.4389C61.9014 73.5804 62.0161 73.6952 62.1576 73.6952Z" fill="white"/>
<path d="M67.4344 73.4389C67.4344 73.5804 67.3197 73.6952 67.1782 73.6952C67.0366 73.6952 66.9219 73.5804 66.9219 73.4389C66.9219 73.2974 67.0366 73.1826 67.1782 73.1826C67.3197 73.1826 67.4344 73.2974 67.4344 73.4389Z" fill="white"/>
<path d="M34.7977 69.9858C34.7977 70.1273 34.683 70.2421 34.5414 70.2421C34.3999 70.2421 34.2852 70.1273 34.2852 69.9858C34.2852 69.8442 34.3999 69.7295 34.5414 69.7295C34.683 69.7295 34.7977 69.8442 34.7977 69.9858Z" fill="white"/>
<path d="M39.8192 69.9858C39.8192 70.1273 39.7045 70.2421 39.5629 70.2421C39.4214 70.2421 39.3066 70.1273 39.3066 69.9858C39.3066 69.8442 39.4214 69.7295 39.5629 69.7295C39.7045 69.7295 39.8192 69.8442 39.8192 69.9858Z" fill="white"/>
<path d="M44.5834 70.2421C44.725 70.2421 44.8397 70.1273 44.8397 69.9858C44.8397 69.8442 44.725 69.7295 44.5834 69.7295C44.4419 69.7295 44.3271 69.8442 44.3271 69.9858C44.3271 70.1273 44.4419 70.2421 44.5834 70.2421Z" fill="white"/>
<path d="M49.8612 69.9858C49.8612 70.1273 49.7465 70.2421 49.6049 70.2421C49.4634 70.2421 49.3486 70.1273 49.3486 69.9858C49.3486 69.8442 49.4634 69.7295 49.6049 69.7295C49.7465 69.7295 49.8612 69.8442 49.8612 69.9858Z" fill="white"/>
<path d="M54.6254 70.2421C54.767 70.2421 54.8817 70.1273 54.8817 69.9858C54.8817 69.8442 54.767 69.7295 54.6254 69.7295C54.4839 69.7295 54.3691 69.8442 54.3691 69.9858C54.3691 70.1273 54.4839 70.2421 54.6254 70.2421Z" fill="white"/>
<path d="M59.9032 69.9858C59.9032 70.1273 59.7884 70.2421 59.6469 70.2421C59.5054 70.2421 59.3906 70.1273 59.3906 69.9858C59.3906 69.8442 59.5054 69.7295 59.6469 69.7295C59.7884 69.7295 59.9032 69.8442 59.9032 69.9858Z" fill="white"/>
<path d="M64.6674 70.2421C64.809 70.2421 64.9237 70.1273 64.9237 69.9858C64.9237 69.8442 64.809 69.7295 64.6674 69.7295C64.5259 69.7295 64.4111 69.8442 64.4111 69.9858C64.4111 70.1273 64.5259 70.2421 64.6674 70.2421Z" fill="white"/>
<path d="M34.7977 76.9135C34.7977 77.055 34.683 77.1698 34.5414 77.1698C34.3999 77.1698 34.2852 77.055 34.2852 76.9135C34.2852 76.772 34.3999 76.6572 34.5414 76.6572C34.683 76.6572 34.7977 76.772 34.7977 76.9135Z" fill="white"/>
<path d="M39.8192 76.9135C39.8192 77.055 39.7045 77.1698 39.5629 77.1698C39.4214 77.1698 39.3066 77.055 39.3066 76.9135C39.3066 76.772 39.4214 76.6572 39.5629 76.6572C39.7045 76.6572 39.8192 76.772 39.8192 76.9135Z" fill="white"/>
<path d="M44.5834 77.1698C44.725 77.1698 44.8397 77.0551 44.8397 76.9135C44.8397 76.772 44.725 76.6572 44.5834 76.6572C44.4419 76.6572 44.3271 76.772 44.3271 76.9135C44.3271 77.0551 44.4419 77.1698 44.5834 77.1698Z" fill="white"/>
<path d="M49.8612 76.9135C49.8612 77.055 49.7465 77.1698 49.6049 77.1698C49.4634 77.1698 49.3486 77.055 49.3486 76.9135C49.3486 76.772 49.4634 76.6572 49.6049 76.6572C49.7465 76.6572 49.8612 76.772 49.8612 76.9135Z" fill="white"/>
<path d="M54.6254 77.1698C54.767 77.1698 54.8817 77.0551 54.8817 76.9135C54.8817 76.772 54.767 76.6572 54.6254 76.6572C54.4839 76.6572 54.3691 76.772 54.3691 76.9135C54.3691 77.0551 54.4839 77.1698 54.6254 77.1698Z" fill="white"/>
<path d="M59.9032 76.9135C59.9032 77.055 59.7884 77.1698 59.6469 77.1698C59.5054 77.1698 59.3906 77.055 59.3906 76.9135C59.3906 76.772 59.5054 76.6572 59.6469 76.6572C59.7884 76.6572 59.9032 76.772 59.9032 76.9135Z" fill="white"/>
<path d="M64.6674 77.1698C64.809 77.1698 64.9237 77.0551 64.9237 76.9135C64.9237 76.772 64.809 76.6572 64.6674 76.6572C64.5259 76.6572 64.4111 76.772 64.4111 76.9135C64.4111 77.0551 64.5259 77.1698 64.6674 77.1698Z" fill="white"/>
<path d="M42.6445 32.5411C25.0523 44.8874 9.62002 62.3134 10.8611 68.029C12.1735 74.0723 23.8257 81.1701 34.2628 82.879C36.4006 83.2292 43.5549 67.703 41.3793 66.9078C39.6847 66.2886 31.9656 63.8197 31.0693 62.721C30.4458 61.9573 43.09 45.3421 47.3129 36.5902C51.7322 27.4312 47.3541 29.2353 42.6445 32.5411Z" fill="#FFC4B0"/>
<path d="M36.9702 66.2856C36.9702 66.2856 43.5015 67.1582 47.7457 67.9296C50.1134 68.3597 54.1077 69.4601 55.7024 70.5719C58.088 72.235 67.0035 80.7145 64.9945 82.9203C63.1754 84.917 60.6364 81.5807 60.6364 81.5807C60.6364 81.5807 63.7534 84.9672 61.341 86.3931C58.9061 87.8322 56.0224 83.1634 56.0224 83.1634C56.0224 83.1634 59.5815 86.5291 56.8605 87.8059C54.4987 88.9139 50.5937 83.8987 50.5937 83.8987C50.5937 83.8987 54.7172 87.0217 52.4089 88.3941C49.858 89.9105 43.0582 83.1264 43.0582 83.1264C37.4284 83.5697 33.9883 83.0759 30.0723 81.8382C29.3536 81.6104 36.9702 66.2856 36.9702 66.2856Z" fill="#FFC4B0"/>
<path d="M56.9725 84.2922C56.7302 83.9351 56.479 83.5845 56.2359 83.2279C55.7591 82.5288 55.2881 81.85 54.7314 81.2108C54.1933 80.5928 53.6297 80.0021 53.0475 79.4262C52.432 78.818 51.7516 78.2693 51.1523 77.6466C51.1043 77.5965 51.0342 77.667 51.0852 77.715C51.701 78.2956 52.2293 78.9952 52.7729 79.6416C53.3118 80.2826 53.8427 80.9311 54.3722 81.5793C54.8907 82.2138 55.4475 82.8072 55.9835 83.426C56.2504 83.7341 56.5037 84.055 56.7574 84.3742C56.9946 84.6734 57.213 85.0177 57.4991 85.2718C57.5275 85.2973 57.5671 85.2599 57.5543 85.2285C57.4187 84.8931 57.1756 84.5909 56.9725 84.2922Z" fill="#263238"/>
<path d="M61.2722 82.299C60.9793 81.6313 59.0867 79.108 58.5644 78.4918C57.555 77.3009 56.4342 76.1941 55.2089 75.2276C55.166 75.1941 55.106 75.2536 55.1417 75.2961C56.1461 76.4946 57.1703 77.6804 58.1921 78.8658C58.6915 79.4451 60.8795 82.146 61.1438 82.3998C61.2071 82.4614 61.3036 82.3713 61.2722 82.299Z" fill="#263238"/>
<path d="M52.981 86.2715C52.6703 85.648 50.8759 83.2985 50.3697 82.7379C49.8945 82.2118 47.6717 80.2801 46.9411 79.8308C46.8948 79.8023 46.8349 79.8606 46.874 79.8992C47.9382 80.9511 49.0173 81.9814 50.031 83.0835C50.5244 83.6202 52.3694 85.8745 52.8854 86.3467C52.9317 86.3892 53.0082 86.3259 52.981 86.2715Z" fill="#263238"/>
<path d="M23.0332 47.8285L35.8338 56.7317C35.8338 56.7317 46.0244 42.027 48.7742 34.993C51.5241 27.959 48.5872 27.8477 41.5579 32.7791C34.5286 37.7106 23.0332 47.8285 23.0332 47.8285Z" fill="#1A6980"/>
<path d="M47.3514 31.8735C47.3514 32.015 47.2367 32.1298 47.0951 32.1298C46.9536 32.1298 46.8389 32.015 46.8389 31.8735C46.8389 31.7319 46.9536 31.6172 47.0951 31.6172C47.2367 31.6172 47.3514 31.7319 47.3514 31.8735Z" fill="white"/>
<path d="M37.3094 38.8007C37.3094 38.9422 37.1947 39.057 37.0532 39.057C36.9116 39.057 36.7969 38.9422 36.7969 38.8007C36.7969 38.6592 36.9116 38.5444 37.0532 38.5444C37.1947 38.5444 37.3094 38.6592 37.3094 38.8007Z" fill="white"/>
<path d="M42.3309 38.8007C42.3309 38.9422 42.2162 39.057 42.0746 39.057C41.9331 39.057 41.8184 38.9422 41.8184 38.8007C41.8184 38.6592 41.9331 38.5444 42.0746 38.5444C42.2162 38.5444 42.3309 38.6592 42.3309 38.8007Z" fill="white"/>
<path d="M47.1221 38.5482C47.0498 38.6844 46.9774 38.8292 46.9008 38.9696C46.8625 38.9271 46.8369 38.8675 46.8369 38.7994C46.8369 38.6589 46.9518 38.5439 47.0966 38.5439C47.1051 38.5439 47.1136 38.5439 47.1221 38.5482Z" fill="white"/>
<path d="M39.8202 35.3476C39.8202 35.4891 39.7054 35.6039 39.5639 35.6039C39.4224 35.6039 39.3076 35.4891 39.3076 35.3476C39.3076 35.2061 39.4224 35.0913 39.5639 35.0913C39.7054 35.0913 39.8202 35.2061 39.8202 35.3476Z" fill="white"/>
<path d="M44.8417 35.3476C44.8417 35.4891 44.7269 35.6039 44.5854 35.6039C44.4439 35.6039 44.3291 35.4891 44.3291 35.3476C44.3291 35.2061 44.4439 35.0913 44.5854 35.0913C44.7269 35.0913 44.8417 35.2061 44.8417 35.3476Z" fill="white"/>
<path d="M27.0112 45.9842C27.1527 45.9842 27.2674 45.8695 27.2674 45.728C27.2674 45.5864 27.1527 45.4717 27.0112 45.4717C26.8696 45.4717 26.7549 45.5864 26.7549 45.728C26.7549 45.8695 26.8696 45.9842 27.0112 45.9842Z" fill="white"/>
<path d="M32.288 45.728C32.288 45.8695 32.1732 45.9842 32.0317 45.9842C31.8901 45.9842 31.7754 45.8695 31.7754 45.728C31.7754 45.5864 31.8901 45.4717 32.0317 45.4717C32.1732 45.4717 32.288 45.5864 32.288 45.728Z" fill="white"/>
<path d="M37.3094 45.728C37.3094 45.8695 37.1947 45.9842 37.0532 45.9842C36.9116 45.9842 36.7969 45.8695 36.7969 45.728C36.7969 45.5864 36.9116 45.4717 37.0532 45.4717C37.1947 45.4717 37.3094 45.5864 37.3094 45.728Z" fill="white"/>
<path d="M42.3309 45.728C42.3309 45.8695 42.2162 45.9842 42.0746 45.9842C41.9331 45.9842 41.8184 45.8695 41.8184 45.728C41.8184 45.5864 41.9331 45.4717 42.0746 45.4717C42.2162 45.4717 42.3309 45.5864 42.3309 45.728Z" fill="white"/>
<path d="M29.7774 42.2759C29.7774 42.4164 29.6625 42.5313 29.522 42.5313C29.4411 42.5313 29.3687 42.493 29.3262 42.4334C29.4539 42.327 29.5816 42.2163 29.7093 42.1099C29.7561 42.1567 29.7774 42.212 29.7774 42.2759Z" fill="white"/>
<path d="M34.7987 42.2753C34.7987 42.4169 34.6839 42.5316 34.5424 42.5316C34.4009 42.5316 34.2861 42.4169 34.2861 42.2753C34.2861 42.1338 34.4009 42.019 34.5424 42.019C34.6839 42.019 34.7987 42.1338 34.7987 42.2753Z" fill="white"/>
<path d="M39.8202 42.2753C39.8202 42.4169 39.7054 42.5316 39.5639 42.5316C39.4224 42.5316 39.3076 42.4169 39.3076 42.2753C39.3076 42.1338 39.4224 42.019 39.5639 42.019C39.7054 42.019 39.8202 42.1338 39.8202 42.2753Z" fill="white"/>
<path d="M44.8417 42.2753C44.8417 42.4169 44.7269 42.5316 44.5854 42.5316C44.4439 42.5316 44.3291 42.4169 44.3291 42.2753C44.3291 42.1338 44.4439 42.019 44.5854 42.019C44.7269 42.019 44.8417 42.1338 44.8417 42.2753Z" fill="white"/>
<path d="M32.288 52.6557C32.288 52.7972 32.1732 52.912 32.0317 52.912C31.8901 52.912 31.7754 52.7972 31.7754 52.6557C31.7754 52.5142 31.8901 52.3994 32.0317 52.3994C32.1732 52.3994 32.288 52.5142 32.288 52.6557Z" fill="white"/>
<path d="M37.3094 52.6557C37.3094 52.7972 37.1947 52.912 37.0532 52.912C36.9116 52.912 36.7969 52.7972 36.7969 52.6557C36.7969 52.5142 36.9116 52.3994 37.0532 52.3994C37.1947 52.3994 37.3094 52.5142 37.3094 52.6557Z" fill="white"/>
<path d="M29.7772 49.2026C29.7772 49.3441 29.6625 49.4589 29.5209 49.4589C29.3794 49.4589 29.2646 49.3441 29.2646 49.2026C29.2646 49.061 29.3794 48.9463 29.5209 48.9463C29.6625 48.9463 29.7772 49.061 29.7772 49.2026Z" fill="white"/>
<path d="M34.7987 49.2026C34.7987 49.3441 34.6839 49.4589 34.5424 49.4589C34.4009 49.4589 34.2861 49.3441 34.2861 49.2026C34.2861 49.061 34.4009 48.9463 34.5424 48.9463C34.6839 48.9463 34.7987 49.061 34.7987 49.2026Z" fill="white"/>
<path d="M39.8202 49.2026C39.8202 49.3441 39.7054 49.4589 39.5639 49.4589C39.4224 49.4589 39.3076 49.3441 39.3076 49.2026C39.3076 49.061 39.4224 48.9463 39.5639 48.9463C39.7054 48.9463 39.8202 49.061 39.8202 49.2026Z" fill="white"/>
<path d="M26.0653 46.0505C30.9245 50.1808 35.7582 53.0513 36.7132 53.7505C36.7583 53.7836 36.8067 53.7071 36.7591 53.6761C35.7867 53.039 30.5815 48.944 26.1163 45.9684C26.0645 45.9344 26.0186 46.0109 26.0653 46.0505Z" fill="#263238"/>
<path d="M35.0133 56.1241C35.1009 56.1402 35.6755 56.4879 35.7941 56.5623C37.3301 54.1006 37.0394 54.6709 38.5979 52.2237C39.3616 51.0243 40.1275 49.8262 40.8896 48.6255C41.6814 47.3768 42.4086 46.0678 43.268 44.8646C43.2935 44.8289 43.3419 44.8612 43.3245 44.8994C42.7792 46.1014 42.086 47.2498 41.4242 48.3952C41.5636 48.2209 41.6971 48.042 41.8467 47.8754C42.1816 47.5018 42.5106 47.1278 42.8149 46.7291C42.8616 46.6679 42.9649 46.7308 42.9177 46.7924C42.627 47.1732 42.3656 47.5681 42.1047 47.9702C41.8437 48.3726 41.5611 48.753 41.2729 49.1364C40.995 49.5057 40.6932 49.8534 40.3898 50.2019C40.3528 50.2444 40.3162 50.2878 40.2792 50.3307C39.8568 51.0468 39.4437 51.7685 39.0046 52.4757C37.4678 54.9519 35.9407 56.8687 35.8961 56.8525C35.7205 56.7892 35.0375 56.2537 34.97 56.1938C34.9355 56.1627 34.9768 56.1173 35.0133 56.1241Z" fill="#263238"/>
<path d="M60.3496 32.75C74.0529 40.447 86.8527 49.6787 89.1091 55.8763C90.5291 59.7762 88.3955 66.6895 86.7027 70.8368C85.8786 72.8561 66.8617 64.2742 68.518 62.6332C72.616 58.573 73.3007 56.9121 72.9045 56.051C72.6512 55.5002 57.831 41.7628 53.7461 35.6541C48.0552 27.1432 54.3543 29.3826 60.3496 32.75Z" fill="#FFC4B0"/>
<path d="M60.6223 81.3013C62.4095 82.3821 64.7007 77.7503 64.7007 77.7503C64.7007 77.7503 64.719 79.1928 65.6982 80.1737C66.8198 81.297 69.0728 80.0309 69.0728 80.0309C69.0728 80.0309 69.3937 81.487 70.5323 82.4191C71.7139 83.3864 74.1696 82.4331 74.1696 82.4331C74.1696 82.4331 75.2139 83.6253 76.7758 83.7247C79.4466 83.8947 81.8288 80.5741 83.3644 78.4783C84.9004 76.383 87.2937 69.0001 87.8921 67.6396L74.5266 57.6675C74.5266 57.6675 64.9663 65.1057 63.5102 67.8258C62.2841 70.1174 57.8911 79.6493 60.6223 81.3013Z" fill="#FFC4B0"/>
<path d="M64.6722 77.6822C65.3914 74.9328 66.7676 72.361 68.1225 69.8934C68.1527 69.8385 68.2385 69.8866 68.2075 69.941C66.8313 72.3793 66.0744 75.2439 64.7981 77.7319C64.7623 77.8012 64.6527 77.7566 64.6722 77.6822Z" fill="#263238"/>
<path d="M68.9305 79.8572C69.112 79.24 69.4966 78.6845 69.8311 78.1418C70.1911 77.557 70.5617 76.9794 70.9408 76.4069C71.6999 75.2611 72.4853 74.1322 73.3031 73.0272C73.3392 72.9783 73.4234 73.0216 73.3881 73.0752C72.6337 74.2185 71.8963 75.3733 71.1903 76.5476C70.8371 77.1349 70.489 77.7261 70.1448 78.3186C69.8247 78.8703 69.5328 79.4789 69.095 79.949C69.0304 80.0182 68.9033 79.9502 68.9305 79.8572Z" fill="#263238"/>
<path d="M74.201 82.384C74.337 81.8413 74.7799 81.3368 75.094 80.8829C75.4506 80.3677 75.8046 79.8514 76.1556 79.3324C76.8573 78.2949 77.559 77.2571 78.2242 76.1954C78.2573 76.1427 78.3424 76.1898 78.3092 76.2434C77.639 77.3255 76.9832 78.4161 76.3031 79.4922C75.9691 80.0205 75.6325 80.5471 75.2925 81.0716C75.0034 81.5178 74.6932 82.1078 74.252 82.4218C74.2274 82.4388 74.1946 82.4112 74.201 82.384Z" fill="#263238"/>
<path d="M80.1282 44.2578L69.5988 53.9311C69.5988 53.9311 56.5645 41.6112 52.8911 35.0124C49.2177 28.4137 52.1124 27.9075 59.7427 31.8452C67.373 35.783 80.1282 44.2578 80.1282 44.2578Z" fill="#1A6980"/>
<path d="M80.1282 44.2578L69.5988 53.9311C69.5988 53.9311 56.5645 41.6112 52.8911 35.0124C49.2177 28.4137 52.1124 27.9075 59.7427 31.8452C67.373 35.783 80.1282 44.2578 80.1282 44.2578Z" fill="#1A6980"/>
<path d="M52.3729 31.8735C52.3729 32.015 52.2582 32.1298 52.1166 32.1298C51.9751 32.1298 51.8604 32.015 51.8604 31.8735C51.8604 31.7319 51.9751 31.6172 52.1166 31.6172C52.2582 31.6172 52.3729 31.7319 52.3729 31.8735Z" fill="white"/>
<path d="M57.3944 31.8735C57.3944 32.015 57.2796 32.1298 57.1381 32.1298C56.9966 32.1298 56.8818 32.015 56.8818 31.8735C56.8818 31.7319 56.9966 31.6172 57.1381 31.6172C57.2796 31.6172 57.3944 31.7319 57.3944 31.8735Z" fill="white"/>
<path d="M57.3944 38.8007C57.3944 38.9422 57.2796 39.057 57.1381 39.057C56.9966 39.057 56.8818 38.9422 56.8818 38.8007C56.8818 38.6592 56.9966 38.5444 57.1381 38.5444C57.2796 38.5444 57.3944 38.6592 57.3944 38.8007Z" fill="white"/>
<path d="M62.4159 38.8007C62.4159 38.9422 62.3011 39.057 62.1596 39.057C62.0181 39.057 61.9033 38.9422 61.9033 38.8007C61.9033 38.6592 62.0181 38.5444 62.1596 38.5444C62.3011 38.5444 62.4159 38.6592 62.4159 38.8007Z" fill="white"/>
<path d="M67.4364 38.8007C67.4364 38.9422 67.3216 39.057 67.1801 39.057C67.0386 39.057 66.9238 38.9422 66.9238 38.8007C66.9238 38.6592 67.0386 38.5444 67.1801 38.5444C67.3216 38.5444 67.4364 38.6592 67.4364 38.8007Z" fill="white"/>
<path d="M54.8837 35.3476C54.8837 35.4891 54.7689 35.6039 54.6274 35.6039C54.4858 35.6039 54.3711 35.4891 54.3711 35.3476C54.3711 35.2061 54.4858 35.0913 54.6274 35.0913C54.7689 35.0913 54.8837 35.2061 54.8837 35.3476Z" fill="white"/>
<path d="M59.9051 35.3476C59.9051 35.4891 59.7904 35.6039 59.6489 35.6039C59.5073 35.6039 59.3926 35.4891 59.3926 35.3476C59.3926 35.2061 59.5073 35.0913 59.6489 35.0913C59.7904 35.0913 59.9051 35.2061 59.9051 35.3476Z" fill="white"/>
<path d="M64.9266 35.3476C64.9266 35.4891 64.8119 35.6039 64.6703 35.6039C64.5288 35.6039 64.4141 35.4891 64.4141 35.3476C64.4141 35.2061 64.5288 35.0913 64.6703 35.0913C64.8119 35.0913 64.9266 35.2061 64.9266 35.3476Z" fill="white"/>
<path d="M62.1596 45.9842C62.3011 45.9842 62.4159 45.8695 62.4159 45.728C62.4159 45.5864 62.3011 45.4717 62.1596 45.4717C62.0181 45.4717 61.9033 45.5864 61.9033 45.728C61.9033 45.8695 62.0181 45.9842 62.1596 45.9842Z" fill="white"/>
<path d="M67.4364 45.728C67.4364 45.8695 67.3216 45.9842 67.1801 45.9842C67.0386 45.9842 66.9238 45.8695 66.9238 45.728C66.9238 45.5864 67.0386 45.4717 67.1801 45.4717C67.3216 45.4717 67.4364 45.5864 67.4364 45.728Z" fill="white"/>
<path d="M72.2016 45.9842C72.3431 45.9842 72.4579 45.8695 72.4579 45.728C72.4579 45.5864 72.3431 45.4717 72.2016 45.4717C72.0601 45.4717 71.9453 45.5864 71.9453 45.728C71.9453 45.8695 72.0601 45.9842 72.2016 45.9842Z" fill="white"/>
<path d="M77.4784 45.728C77.4784 45.8695 77.3636 45.9842 77.2221 45.9842C77.0806 45.9842 76.9658 45.8695 76.9658 45.728C76.9658 45.5864 77.0806 45.4717 77.2221 45.4717C77.3636 45.4717 77.4784 45.5864 77.4784 45.728Z" fill="white"/>
<path d="M59.9051 42.2753C59.9051 42.4169 59.7904 42.5316 59.6489 42.5316C59.5073 42.5316 59.3926 42.4169 59.3926 42.2753C59.3926 42.1338 59.5073 42.019 59.6489 42.019C59.7904 42.019 59.9051 42.1338 59.9051 42.2753Z" fill="white"/>
<path d="M64.9266 42.2753C64.9266 42.4169 64.8119 42.5316 64.6703 42.5316C64.5288 42.5316 64.4141 42.4169 64.4141 42.2753C64.4141 42.1338 64.5288 42.019 64.6703 42.019C64.8119 42.019 64.9266 42.1338 64.9266 42.2753Z" fill="white"/>
<path d="M69.9471 42.2753C69.9471 42.4169 69.8324 42.5316 69.6909 42.5316C69.5493 42.5316 69.4346 42.4169 69.4346 42.2753C69.4346 42.1338 69.5493 42.019 69.6909 42.019C69.8324 42.019 69.9471 42.1338 69.9471 42.2753Z" fill="white"/>
<path d="M74.9676 42.2753C74.9676 42.4169 74.8529 42.5316 74.7114 42.5316C74.5698 42.5316 74.4551 42.4169 74.4551 42.2753C74.4551 42.1338 74.5698 42.019 74.7114 42.019C74.8533 42.019 74.9676 42.1338 74.9676 42.2753Z" fill="white"/>
<path d="M64.9262 49.2037C64.9262 49.2377 64.9177 49.2718 64.9049 49.3016C64.7942 49.1909 64.6878 49.0802 64.5771 48.9653C64.6069 48.9525 64.6367 48.9482 64.6708 48.9482C64.8113 48.9482 64.9262 49.0632 64.9262 49.2037Z" fill="white"/>
<path d="M69.9471 49.2026C69.9471 49.3441 69.8324 49.4589 69.6909 49.4589C69.5493 49.4589 69.4346 49.3441 69.4346 49.2026C69.4346 49.061 69.5493 48.9463 69.6909 48.9463C69.8324 48.9463 69.9471 49.061 69.9471 49.2026Z" fill="white"/>
<path d="M74.9148 49.0504L74.5402 49.391C74.4891 49.3484 74.4551 49.2803 74.4551 49.2037C74.4551 49.0632 74.57 48.9482 74.7105 48.9482C74.7956 48.9482 74.8723 48.9866 74.9148 49.0504Z" fill="white"/>
<path d="M67.5625 51.2479C72.4064 47.3981 76.0152 43.3503 76.8575 42.5738C76.8975 42.5372 76.8308 42.4782 76.7925 42.5173C76.0083 43.321 71.1415 47.5031 67.4911 51.1859C67.4486 51.2284 67.5157 51.2849 67.5625 51.2479Z" fill="#263238"/>
<path d="M66.433 48.5948C66.3624 47.7133 66.0539 46.7328 65.6896 45.9295C65.6187 45.7726 65.5426 45.6188 65.4661 45.4649C65.4461 45.3685 65.4257 45.2733 65.4108 45.1861C65.3637 44.9116 65.3084 44.6404 65.2463 44.3688C65.1184 43.8057 64.9752 43.2459 64.8298 42.6866C64.8188 42.645 64.758 42.6645 64.7661 42.7057C64.8808 43.2778 64.9714 43.8541 65.0466 44.433C65.0598 44.5359 65.0738 44.6391 65.087 44.742C64.8761 44.3629 64.6534 43.9897 64.4256 43.6195C63.95 42.8473 63.3941 42.1299 62.9134 41.3614C62.8909 41.3253 62.834 41.3601 62.8569 41.3963C63.3168 42.1201 63.7006 42.8876 64.1086 43.6412C64.5302 44.4198 64.9148 45.2218 65.2485 46.0421C65.566 46.8224 65.8405 47.6155 66.0386 48.4341C66.2859 49.458 66.2617 50.5843 66.3365 50.7453C66.3531 50.7806 66.4096 50.8333 66.4253 50.8014C66.5052 50.6433 66.5146 49.6118 66.433 48.5948Z" fill="#263238"/>
<path d="M41.5566 32.7792C41.5566 32.7792 49.3973 38.5394 54.1341 38.0094C58.8713 37.4794 61.4333 32.7456 61.4333 32.7456C61.4333 32.7456 53.877 27.9157 49.2894 28.8673C45.7851 29.5945 41.5566 32.7792 41.5566 32.7792Z" fill="#FFC4B0"/>
<path d="M48.7029 30.9466C48.9779 31.8514 51.661 35.7862 54.4678 35.3591C55.9108 35.1393 55.34 30.0604 55.34 30.0604L55.3676 29.6788L55.7497 24.3376L48.1406 20.9668C48.1406 20.9668 48.6247 30.6882 48.7029 30.9466Z" fill="#FFC4B0"/>
<path d="M48.3261 24.5936C50.438 28.2198 53.8198 29.3478 55.3703 29.6784L55.7524 24.3364L48.1387 20.9644C48.1387 20.9644 48.2207 22.6249 48.3261 24.5936Z" fill="#263238"/>
<path d="M63.1063 17.4222C62.8734 26.8176 57.2199 27.739 55.1938 27.6867C53.3548 27.6391 47.0986 27.243 46.3595 17.874C45.6204 8.50494 50.0626 5.64289 54.2745 5.52941C58.4864 5.41551 63.3393 8.02638 63.1063 17.4222Z" fill="#FFC4B0"/>
<path d="M60.5675 15.4161C60.3482 15.383 60.151 15.3154 59.9376 15.2601C59.6967 15.1977 59.4982 15.1726 59.3252 14.9784C59.2325 14.8742 59.2474 14.6702 59.3401 14.5703C59.556 14.3387 59.8701 14.3417 60.1637 14.405C60.4821 14.4739 60.7099 14.6082 60.9126 14.8623C61.1094 15.1088 60.8574 15.4599 60.5675 15.4161Z" fill="#263238"/>
<path d="M54.524 15.05C54.7459 15.0427 54.9495 14.999 55.1679 14.9692C55.4148 14.9356 55.6146 14.9344 55.8093 14.7618C55.9134 14.6691 55.9232 14.4647 55.8424 14.3551C55.6554 14.0992 55.343 14.0656 55.0442 14.0937C54.7199 14.1243 54.4781 14.231 54.2465 14.4592C54.0225 14.6806 54.2316 15.0593 54.524 15.05Z" fill="#263238"/>
<path d="M55.574 17.5172C55.5706 17.4926 55.5221 17.5444 55.5213 17.5708C55.5034 18.2108 55.3746 18.9406 54.7839 19.1178C54.7656 19.1233 54.7656 19.1556 54.7868 19.1539C55.4983 19.097 55.6594 18.1263 55.574 17.5172Z" fill="#263238"/>
<path d="M55.0439 16.8154C54.0213 16.6756 53.8169 18.7314 54.7643 18.861C55.6968 18.9881 55.9012 16.9327 55.0439 16.8154Z" fill="#263238"/>
<path d="M54.6295 16.8839C54.4382 16.9821 54.2423 17.1704 54.0234 17.1699C53.7705 17.1699 53.6026 16.9358 53.4598 16.7126C53.4449 16.6897 53.4254 16.7058 53.4224 16.733C53.3774 17.1262 53.4887 17.5456 53.9052 17.646C54.2852 17.7378 54.5963 17.4164 54.734 17.0305C54.7595 16.9587 54.7064 16.8439 54.6295 16.8839Z" fill="#263238"/>
<path d="M59.2483 17.7138C59.2547 17.6896 59.2963 17.747 59.2942 17.7729C59.2368 18.4104 59.278 19.1504 59.8437 19.3965C59.8612 19.4041 59.8578 19.436 59.8365 19.4318C59.1365 19.2915 59.0915 18.3089 59.2483 17.7138Z" fill="#263238"/>
<path d="M59.8572 17.0802C60.8891 17.0619 60.8496 19.1275 59.8937 19.1441C58.9527 19.1606 58.9923 17.0951 59.8572 17.0802Z" fill="#263238"/>
<path d="M60.2865 17.2237C60.4476 17.3364 60.6052 17.5383 60.7999 17.5548C61.0256 17.574 61.1969 17.3538 61.3452 17.1426C61.3605 17.1209 61.3766 17.1383 61.3766 17.1655C61.38 17.5604 61.2415 17.9692 60.8607 18.0377C60.5134 18.1001 60.2661 17.7567 60.1794 17.3615C60.1636 17.2888 60.2215 17.1787 60.2865 17.2237Z" fill="#263238"/>
<path d="M54.9492 22.5689C55.0465 22.7597 55.1256 23.0041 55.3398 23.0968C55.5451 23.1856 55.8243 23.1737 56.0432 23.1635C56.0649 23.1626 56.0772 23.1894 56.0589 23.2034C55.823 23.3832 55.4427 23.4176 55.1783 23.274C54.9199 23.1337 54.8638 22.8507 54.8821 22.577C54.8842 22.5383 54.9352 22.5408 54.9492 22.5689Z" fill="#263238"/>
<path d="M58.0491 20.5746C58.0491 20.5746 58.0972 21.5381 58.0581 21.9873C58.0542 22.0294 56.6377 22.2075 55.7693 21.0552C55.737 21.0123 55.8034 20.9673 55.8416 20.9991C56.3954 21.4858 57.0401 21.6549 57.7423 21.7285C57.7848 21.6069 57.6046 20.0807 57.6764 20.082C57.9237 20.0824 58.3925 20.2919 58.676 20.402C58.6339 18.3917 58.2697 16.4047 58.2578 14.4025C58.2587 14.3311 58.3624 14.3187 58.3777 14.3838C58.9068 16.4396 59.0058 18.7517 59.1032 20.8266C59.1176 21.085 58.2225 20.6668 58.0491 20.5746Z" fill="#263238"/>
<path d="M57.4491 21.8856C57.4491 21.8856 57.002 22.3722 56.4456 22.5057C56.2408 22.5558 56.0249 22.5609 55.8085 22.4781C55.3635 22.3093 55.3967 21.8877 55.5187 21.5375C55.6181 21.2489 55.7822 21.0088 55.7822 21.0088C55.7822 21.0088 56.3844 21.7058 57.4491 21.8856Z" fill="#263238"/>
<path d="M56.4456 22.5058C56.2408 22.5559 56.0249 22.561 55.8085 22.4782C55.3635 22.3094 55.3967 21.8878 55.5187 21.5376C56.0045 21.6396 56.4546 22.0242 56.4456 22.5058Z" fill="#FF9ABB"/>
<path d="M46.9509 18.4715C48.6825 18.8667 49.5304 14.8945 49.5304 14.8945C49.5304 14.8945 57.1271 14.3688 58.3639 8.34845C58.3639 8.34845 59.2598 12.3529 62.9991 14.4959C62.9991 14.4959 63.399 7.80061 58.2402 5.98112C58.2402 5.98112 51.9155 2.94227 47.7109 7.78319C43.5062 12.6237 45.789 18.2063 46.9509 18.4715Z" fill="#263238"/>
<path d="M47.8342 18.632C47.8342 18.632 46.1218 15.4885 44.7176 16.0678C43.3138 16.6467 44.3737 21.0443 45.8621 21.7962C47.3505 22.548 48.0735 21.1837 48.0735 21.1837L47.8342 18.632Z" fill="#FFC4B0"/>
<path d="M45.0527 17.3208C45.028 17.3157 45.0191 17.3501 45.0399 17.3616C46.0795 17.9243 46.5398 18.9984 46.8246 20.0902C46.5458 19.6512 46.1297 19.3809 45.5466 19.706C45.516 19.723 45.5381 19.7706 45.5695 19.7676C46.0264 19.7217 46.3396 19.8352 46.6006 20.2262C46.7859 20.5033 46.896 20.8391 47.0158 21.1485C47.0558 21.2518 47.2377 21.2191 47.213 21.103C47.2113 21.0945 47.2088 21.0856 47.2071 21.0771C47.3894 19.6907 46.5275 17.6273 45.0527 17.3208Z" fill="#263238"/>
<path d="M46.078 21.469C46.112 21.6892 46.3182 21.8401 46.5383 21.8065C46.7585 21.7725 46.9093 21.5668 46.8753 21.3462C46.8413 21.1261 46.6352 20.9752 46.4151 21.0092C46.1953 21.0432 46.044 21.2489 46.078 21.469Z" fill="white"/>
<path d="M58.4342 7.90039C58.4423 8.8384 58.2119 9.77768 57.8256 10.6443C57.4388 11.5113 56.8833 12.318 56.1718 12.961C56.0074 13.1357 55.8012 13.2628 55.6176 13.4158L55.3341 13.6355C55.2343 13.7006 55.131 13.7605 55.0277 13.8209C54.8203 13.9386 54.6176 14.0652 54.4067 14.1749C54.1891 14.2705 53.969 14.3615 53.7493 14.4494C53.6392 14.4928 53.5308 14.5412 53.4194 14.5804L53.0773 14.6751L52.3956 14.8621C51.9319 14.9433 51.4648 15.0003 51.002 15.0496C51.4495 14.9046 51.903 14.8077 52.3412 14.6607L52.9897 14.421L53.3128 14.3024C53.4173 14.2556 53.518 14.2 53.6205 14.149C53.8241 14.0444 54.0281 13.942 54.2342 13.8451C54.4314 13.7316 54.6188 13.602 54.8114 13.4817L55.0987 13.2998L55.3639 13.0873C55.5356 12.9398 55.7294 12.8178 55.8828 12.6504C56.5628 12.0494 57.0937 11.2992 57.5327 10.5023C57.7508 10.1011 57.9301 9.67823 58.0802 9.24344C58.2387 8.8095 58.3517 8.36068 58.4342 7.90039Z" fill="#263238"/>
<path d="M48.1287 7.46661C48.9047 7.17717 49.6413 2.8433 46.792 0.778573C43.9856 -1.25512 40.2927 1.07226 41.8236 4.62411C42.7909 6.86862 46.4873 8.07863 48.1287 7.46661Z" fill="#263238"/>
<path d="M42.8089 0.521973C41.9394 1.23387 41.3796 2.242 41.1654 3.27012C40.9486 4.308 41.2606 5.36926 42.0299 6.06289C42.7766 6.79349 43.8103 7.20321 44.8609 7.44759C45.3922 7.56192 45.9379 7.63035 46.4874 7.64692C47.0378 7.672 47.5946 7.64522 48.1284 7.46629C47.6469 7.77655 47.0616 7.87346 46.4989 7.94954C45.929 8.00606 45.3505 8.00181 44.7776 7.92233C43.642 7.76082 42.4813 7.34771 41.6027 6.50916C41.1714 6.08839 40.8182 5.55288 40.6639 4.95446C40.5113 4.35731 40.5321 3.72998 40.697 3.15961C41.0205 2.02015 41.8004 1.03709 42.8089 0.521973Z" fill="#263238"/>
<path d="M77.1784 89.1182H39.1982V90.8217H77.1784V89.1182Z" fill="#C7C7C7"/>
<path d="M48.9492 90.8204H85.9636L89.0453 65.6812H52.0308L48.9492 90.8204Z" fill="#C7C7C7"/>
<path d="M66.7445 78.2507C66.7227 79.4949 67.7135 80.5039 68.958 80.5039C70.2021 80.5039 71.2286 79.4952 71.2504 78.2507C71.2723 77.0066 70.2811 75.9976 69.037 75.9976C67.7928 75.9979 66.7663 77.0066 66.7445 78.2507Z" fill="white"/>
</svg>
