<svg width="164" height="191" viewBox="0 0 164 191" fill="none" xmlns="http://www.w3.org/2000/svg">
<path d="M86.2695 31.6631C79.5323 30.9607 72.9195 32.8312 66.8913 35.7404C61.4188 38.3816 56.2937 41.8031 51.6545 45.7216C42.9456 53.0778 35.6492 62.621 32.2924 73.6222C28.9266 84.6531 30.2945 96.2919 35.6481 106.458C41.2663 117.127 50.4409 125.647 60.7447 131.732C72.0255 138.393 84.8981 142.333 97.9751 143.123C109.952 143.846 122.759 141.929 132.81 134.975C141.979 128.632 147.359 118.474 148.797 107.541C150.282 96.2449 147.659 84.8928 142.044 75.0462C136.083 64.5932 127.227 56.0446 117.465 49.1405C106.834 41.622 94.4758 35.0123 81.2628 34.0535C78.079 33.8224 74.8947 33.9721 71.7448 34.4828C71.2568 34.5622 71.4642 35.304 71.9496 35.2256C85.3907 33.0456 98.6694 38.3245 109.989 45.1684C120.004 51.2229 129.364 58.747 136.497 68.0895C143.403 77.1341 147.985 87.8622 148.407 99.3215C148.801 110.017 145.722 121.096 138.399 129.109C130.279 137.994 118.114 141.773 106.386 142.399C93.7724 143.073 80.9326 140.484 69.4182 135.343C48.7479 126.115 28.8437 106.284 31.3797 81.8886C32.5518 70.6128 38.4061 60.2929 46.045 52.1129C49.9251 47.9582 54.3083 44.2789 59.0426 41.1346C64.3962 37.5791 70.2687 34.4975 76.5705 33.0588C79.7594 32.3306 83.0134 32.095 86.268 32.4343C86.7621 32.4848 86.7585 31.7142 86.2695 31.6631Z" fill="#FDBC9A"/>
<path d="M91.368 145.713C84.4862 148.101 77.0071 147.035 69.9857 145.895C63.2657 144.805 56.6043 143.237 50.1999 140.909C38.0968 136.508 26.8879 129.126 19.6212 118.313C12.8906 108.298 10.6145 96.2444 13.5581 84.5145C16.4147 73.1301 23.4598 62.9461 32.5015 55.5652C53.2876 38.5965 82.9504 37.4344 108.399 40.6293C115.825 41.5618 123.197 43.004 130.392 45.0713C136.42 46.8032 142.681 48.8679 147.626 52.8679C152.846 57.0898 155.398 63.2516 155.19 69.92C154.973 76.8509 151.945 83.2483 148.07 88.8695C140.828 99.375 131.305 108.624 121.273 116.445C111.175 124.317 100.021 130.855 88.1999 135.776C85.3575 136.959 82.4761 138.044 79.5634 139.042C79.0971 139.202 79.2974 139.945 79.7682 139.784C104.732 131.229 127.245 115.748 144.054 95.3887C152.088 85.6569 159.991 72.139 153.876 59.3856C151.244 53.8954 146.101 50.2752 140.677 47.8566C134.169 44.9544 127.081 43.1876 120.12 41.7712C105.954 38.8893 91.1612 37.75 76.7371 38.9227C63.4654 40.0018 50.1963 43.312 38.7224 50.2484C18.5689 62.4324 4.95791 88.159 14.8187 111.136C19.7997 122.742 29.5174 131.785 40.5954 137.546C46.7865 140.765 53.4266 143.064 60.1972 144.713C67.1114 146.398 74.4069 147.786 81.5416 147.904C84.9484 147.96 88.3425 147.576 91.5723 146.456C92.0381 146.295 91.8383 145.55 91.368 145.713Z" fill="#F2BAA1"/>
<path d="M34.8117 76.1433C36.3155 74.6395 36.3155 72.2013 34.8117 70.6975C33.3079 69.1937 30.8698 69.1937 29.366 70.6975C27.8621 72.2013 27.8621 74.6395 29.366 76.1433C30.8698 77.6471 33.3079 77.6471 34.8117 76.1433Z" fill="#F2BAA1"/>
<path d="M40.5609 31.5766C40.5609 32.8524 39.5262 33.887 38.2504 33.887C36.9746 33.887 35.9399 32.8524 35.9399 31.5766C35.9399 30.3007 36.9746 29.2661 38.2504 29.2661C39.5262 29.2661 40.5609 30.3002 40.5609 31.5766Z" fill="#F2BAA1"/>
<path d="M28.2386 108.848C28.2386 110.123 27.204 111.158 25.9281 111.158C24.6523 111.158 23.6177 110.123 23.6177 108.848C23.6177 107.572 24.6523 106.537 25.9281 106.537C27.204 106.537 28.2386 107.572 28.2386 108.848Z" fill="#F2BAA1"/>
<path d="M125.534 71.4955C125.534 72.5589 124.672 73.4206 123.609 73.4206C122.545 73.4206 121.684 72.5584 121.684 71.4955C121.684 70.432 122.546 69.5703 123.609 69.5703C124.672 69.5703 125.534 70.432 125.534 71.4955Z" fill="#F2BAA1"/>
<path d="M59.0443 70.4689C59.0443 70.965 58.6417 71.3675 58.1457 71.3675C57.6496 71.3675 57.2471 70.965 57.2471 70.4689C57.2471 69.9728 57.6496 69.5703 58.1457 69.5703C58.6422 69.5703 59.0443 69.9723 59.0443 70.4689Z" fill="#F2BAA1"/>
<path d="M117.319 19.8958C117.319 20.6755 116.687 21.3076 115.907 21.3076C115.128 21.3076 114.496 20.6755 114.496 19.8958C114.496 19.116 115.128 18.4839 115.907 18.4839C116.687 18.4839 117.319 19.116 117.319 19.8958Z" fill="#F2BAA1"/>
<path d="M117.319 134.392C117.319 135.172 116.687 135.804 115.907 135.804C115.128 135.804 114.496 135.172 114.496 134.392C114.496 133.612 115.128 132.98 115.907 132.98C116.687 132.98 117.319 133.612 117.319 134.392Z" fill="#F2BAA1"/>
<path d="M6.16078 133.493C8.14563 133.493 9.75467 131.884 9.75467 129.899C9.75467 127.914 8.14563 126.305 6.16078 126.305C4.17593 126.305 2.56689 127.914 2.56689 129.899C2.56689 131.884 4.17593 133.493 6.16078 133.493Z" fill="#F2BAA1"/>
<path d="M2.82373 50.4451C2.82373 51.2248 2.19163 51.8569 1.41187 51.8569C0.632104 51.8569 0 51.2248 0 50.4451C0 49.6653 0.632104 49.0332 1.41187 49.0332C2.19163 49.0332 2.82373 49.6653 2.82373 50.4451Z" fill="#F2BAA1"/>
<path d="M88.824 8.21533C91.0926 8.21533 92.9316 6.37626 92.9316 4.10766C92.9316 1.83906 91.0926 0 88.824 0C86.5554 0 84.7163 1.83906 84.7163 4.10766C84.7163 6.37626 86.5554 8.21533 88.824 8.21533Z" fill="#F2BAA1"/>
<path d="M110.388 180.215C111.948 180.215 113.212 178.951 113.212 177.391C113.212 175.832 111.948 174.567 110.388 174.567C108.829 174.567 107.564 175.832 107.564 177.391C107.564 178.951 108.829 180.215 110.388 180.215Z" fill="#F2BAA1"/>
<path d="M149.152 62.1257C150.996 62.1257 152.49 60.6315 152.49 58.7882C152.49 56.9449 150.996 55.4507 149.152 55.4507C147.309 55.4507 145.815 56.9449 145.815 58.7882C145.815 60.6315 147.309 62.1257 149.152 62.1257Z" fill="#F2BAA1"/>
<path d="M54.6381 120.19L57.2753 118.032C56.0996 115.345 53.2788 114.894 51.6935 114.864L48.9927 116.268C49.7735 120.187 54.6381 120.19 54.6381 120.19Z" fill="#1D3542"/>
<path d="M76.5757 117.432C76.5757 117.432 72.2602 114.795 69.3834 118.151C69.3834 118.151 66.7463 115.993 62.1906 119.35L60.5122 120.069C60.5122 120.069 65.0674 123.666 70.1025 121.028C70.1025 121.028 78.0144 122.227 78.2541 120.069C78.4938 117.912 76.5757 117.432 76.5757 117.432Z" fill="#1D3542"/>
<path d="M90.3612 68.6435C90.3612 68.6435 104.267 62.6496 106.904 50.9016C109.541 39.1535 99.4716 26.207 99.4716 26.207C99.4716 26.207 57.7547 61.93 66.8651 69.3625C71.5649 73.1966 90.3607 71.5203 90.3607 71.5203" fill="#1D3542"/>
<mask id="mask0_630_5212" style="mask-type:luminance" maskUnits="userSpaceOnUse" x="65" y="26" width="43" height="46">
<path d="M90.3612 68.6435C90.3612 68.6435 104.267 62.6496 106.904 50.9016C109.541 39.1535 99.4716 26.207 99.4716 26.207C99.4716 26.207 57.7547 61.93 66.8651 69.3625C71.5649 73.1966 90.3607 71.5203 90.3607 71.5203" fill="white"/>
</mask>
<g mask="url(#mask0_630_5212)">
<path opacity="0.22" d="M73.818 55.4564C73.818 55.4564 78.3732 66.9648 86.7645 66.4849C95.1558 66.0055 101.061 55.2981 101.585 49.8631C102.109 44.428 72.8592 49.4626 73.818 55.4564Z" fill="#1D3542"/>
</g>
<path d="M74.2983 126.424C74.2983 126.424 65.1879 140.329 64.7081 142.487C64.7081 142.487 33.78 144.166 26.5876 147.282C19.3953 150.399 16.7577 159.749 22.9912 164.544C29.2248 169.339 70.7019 171.017 82.2102 166.942C82.2102 166.942 141.669 174.853 151.739 163.345C161.808 151.837 133.517 140.569 109.542 141.768C109.542 141.768 101.151 125.225 96.5959 123.067C92.0397 120.91 74.2983 126.424 74.2983 126.424Z" fill="#1E1E1E"/>
<mask id="mask1_630_5212" style="mask-type:luminance" maskUnits="userSpaceOnUse" x="19" y="122" width="135" height="48">
<path d="M74.2983 126.424C74.2983 126.424 65.1879 140.329 64.7081 142.487C64.7081 142.487 33.78 144.166 26.5876 147.282C19.3953 150.399 16.7577 159.749 22.9912 164.544C29.2248 169.339 70.7019 171.017 82.2102 166.942C82.2102 166.942 141.669 174.853 151.739 163.345C161.808 151.837 133.517 140.569 109.542 141.768C109.542 141.768 101.151 125.225 96.5959 123.067C92.0397 120.91 74.2983 126.424 74.2983 126.424Z" fill="white"/>
</mask>
<g mask="url(#mask1_630_5212)">
<path opacity="0.23" d="M86.1876 167.422C86.1876 167.422 74.2985 166.462 63.5093 158.791C63.5093 158.791 70.2222 168.141 77.8944 169.579C85.5667 171.018 86.1876 167.422 86.1876 167.422Z" fill="#1E1E1E"/>
</g>
<mask id="mask2_630_5212" style="mask-type:luminance" maskUnits="userSpaceOnUse" x="19" y="122" width="135" height="48">
<path d="M74.2983 126.424C74.2983 126.424 65.1879 140.329 64.7081 142.487C64.7081 142.487 33.78 144.166 26.5876 147.282C19.3953 150.399 16.7577 159.749 22.9912 164.544C29.2248 169.339 70.7019 171.017 82.2102 166.942C82.2102 166.942 141.669 174.853 151.739 163.345C161.808 151.837 133.517 140.569 109.542 141.768C109.542 141.768 101.151 125.225 96.5959 123.067C92.0397 120.91 74.2983 126.424 74.2983 126.424Z" fill="white"/>
</mask>
<g mask="url(#mask2_630_5212)">
<path opacity="0.23" d="M40.9723 148.002C40.5162 148.504 38.0955 149.68 40.4929 150.639C42.8903 151.598 56.077 158.791 59.4333 157.832C62.79 156.873 43.3702 145.365 40.9723 148.002Z" fill="#1E1E1E"/>
</g>
<mask id="mask3_630_5212" style="mask-type:luminance" maskUnits="userSpaceOnUse" x="19" y="122" width="135" height="48">
<path d="M74.2983 126.424C74.2983 126.424 65.1879 140.329 64.7081 142.487C64.7081 142.487 33.78 144.166 26.5876 147.282C19.3953 150.399 16.7577 159.749 22.9912 164.544C29.2248 169.339 70.7019 171.017 82.2102 166.942C82.2102 166.942 141.669 174.853 151.739 163.345C161.808 151.837 133.517 140.569 109.542 141.768C109.542 141.768 101.151 125.225 96.5959 123.067C92.0397 120.91 74.2983 126.424 74.2983 126.424Z" fill="white"/>
</mask>
<g mask="url(#mask3_630_5212)">
<path opacity="0.23" d="M111.904 156.598C112.419 156.633 122.728 153.995 127.284 152.077C131.839 150.159 132.798 148.72 133.997 148.72C135.195 148.72 134.955 146.323 131.599 146.563C128.242 146.802 114.337 152.796 114.337 152.796L111.904 156.946" fill="#1E1E1E"/>
</g>
<mask id="mask4_630_5212" style="mask-type:luminance" maskUnits="userSpaceOnUse" x="19" y="122" width="135" height="48">
<path d="M74.2983 126.424C74.2983 126.424 65.1879 140.329 64.7081 142.487C64.7081 142.487 33.78 144.166 26.5876 147.282C19.3953 150.399 16.7577 159.749 22.9912 164.544C29.2248 169.339 70.7019 171.017 82.2102 166.942C82.2102 166.942 141.669 174.853 151.739 163.345C161.808 151.837 133.517 140.569 109.542 141.768C109.542 141.768 101.151 125.225 96.5959 123.067C92.0397 120.91 74.2983 126.424 74.2983 126.424Z" fill="white"/>
</mask>
<g mask="url(#mask4_630_5212)">
<path opacity="0.23" d="M108.582 150.639C108.582 150.639 97.5539 153.036 95.8755 152.797C94.1972 152.557 99.2323 142.248 110.98 141.288C110.98 141.288 99.4715 141.049 91.7997 149.68C84.1275 158.311 77.6543 147.522 72.8594 145.124C72.8594 145.124 80.5645 154.842 80.9078 156.097C80.9078 156.097 92.8389 154.562 96.2755 155.118C96.2755 155.118 104.986 155.194 109.182 150.519L108.582 150.639Z" fill="#1E1E1E"/>
</g>
<mask id="mask5_630_5212" style="mask-type:luminance" maskUnits="userSpaceOnUse" x="19" y="122" width="135" height="48">
<path d="M74.2983 126.424C74.2983 126.424 65.1879 140.329 64.7081 142.487C64.7081 142.487 33.78 144.166 26.5876 147.282C19.3953 150.399 16.7577 159.749 22.9912 164.544C29.2248 169.339 70.7019 171.017 82.2102 166.942C82.2102 166.942 141.669 174.853 151.739 163.345C161.808 151.837 133.517 140.569 109.542 141.768C109.542 141.768 101.151 125.225 96.5959 123.067C92.0397 120.91 74.2983 126.424 74.2983 126.424Z" fill="white"/>
</mask>
<g mask="url(#mask5_630_5212)">
<path d="M67.5424 155.293C71.9571 157.147 76.6189 156.734 81.2692 156.237C86.8418 155.642 92.4296 155.225 98.0377 155.308C102.188 155.369 106.321 155.564 110.33 156.682C113.145 157.467 115.988 158.288 118.724 159.323C118.94 159.405 119.034 159.058 118.819 158.977C112.663 156.646 106.609 155.228 100.027 154.997C94.5515 154.805 89.0689 155.088 83.6206 155.63C78.2619 156.162 72.7737 157.104 67.6375 154.946C67.4251 154.857 67.3321 155.205 67.5424 155.293Z" fill="#C0C0C0"/>
</g>
<mask id="mask6_630_5212" style="mask-type:luminance" maskUnits="userSpaceOnUse" x="19" y="122" width="135" height="48">
<path d="M74.2983 126.424C74.2983 126.424 65.1879 140.329 64.7081 142.487C64.7081 142.487 33.78 144.166 26.5876 147.282C19.3953 150.399 16.7577 159.749 22.9912 164.544C29.2248 169.339 70.7019 171.017 82.2102 166.942C82.2102 166.942 141.669 174.853 151.739 163.345C161.808 151.837 133.517 140.569 109.542 141.768C109.542 141.768 101.151 125.225 96.5959 123.067C92.0397 120.91 74.2983 126.424 74.2983 126.424Z" fill="white"/>
</mask>
<g mask="url(#mask6_630_5212)">
<path d="M64.175 159.84C70.4935 163.489 77.2787 166.069 84.4271 167.536C84.6531 167.583 84.7497 167.236 84.5227 167.189C77.4062 165.729 70.6487 163.164 64.3565 159.53C64.1558 159.414 63.9747 159.725 64.175 159.84Z" fill="#C0C0C0"/>
</g>
<mask id="mask7_630_5212" style="mask-type:luminance" maskUnits="userSpaceOnUse" x="19" y="122" width="135" height="48">
<path d="M74.2983 126.424C74.2983 126.424 65.1879 140.329 64.7081 142.487C64.7081 142.487 33.78 144.166 26.5876 147.282C19.3953 150.399 16.7577 159.749 22.9912 164.544C29.2248 169.339 70.7019 171.017 82.2102 166.942C82.2102 166.942 141.669 174.853 151.739 163.345C161.808 151.837 133.517 140.569 109.542 141.768C109.542 141.768 101.151 125.225 96.5959 123.067C92.0397 120.91 74.2983 126.424 74.2983 126.424Z" fill="white"/>
</mask>
<g mask="url(#mask7_630_5212)">
<path d="M51.8322 152.336C48.0754 151.409 44.3349 150.655 40.561 151.901C40.342 151.973 40.4361 152.321 40.6566 152.248C44.3713 151.021 48.0461 151.773 51.7366 152.683C51.9611 152.739 52.0572 152.392 51.8322 152.336Z" fill="#C0C0C0"/>
</g>
<mask id="mask8_630_5212" style="mask-type:luminance" maskUnits="userSpaceOnUse" x="19" y="122" width="135" height="48">
<path d="M74.2983 126.424C74.2983 126.424 65.1879 140.329 64.7081 142.487C64.7081 142.487 33.78 144.166 26.5876 147.282C19.3953 150.399 16.7577 159.749 22.9912 164.544C29.2248 169.339 70.7019 171.017 82.2102 166.942C82.2102 166.942 141.669 174.853 151.739 163.345C161.808 151.837 133.517 140.569 109.542 141.768C109.542 141.768 101.151 125.225 96.5959 123.067C92.0397 120.91 74.2983 126.424 74.2983 126.424Z" fill="white"/>
</mask>
<g mask="url(#mask8_630_5212)">
<g opacity="0.49">
<path d="M80.4861 155.824C79.1496 153.891 77.8131 151.958 76.4771 150.024Z" fill="#1E1E1E"/>
</g>
</g>
<mask id="mask9_630_5212" style="mask-type:luminance" maskUnits="userSpaceOnUse" x="19" y="122" width="135" height="48">
<path d="M74.2983 126.424C74.2983 126.424 65.1879 140.329 64.7081 142.487C64.7081 142.487 33.78 144.166 26.5876 147.282C19.3953 150.399 16.7577 159.749 22.9912 164.544C29.2248 169.339 70.7019 171.017 82.2102 166.942C82.2102 166.942 141.669 174.853 151.739 163.345C161.808 151.837 133.517 140.569 109.542 141.768C109.542 141.768 101.151 125.225 96.5959 123.067C92.0397 120.91 74.2983 126.424 74.2983 126.424Z" fill="white"/>
</mask>
<g mask="url(#mask9_630_5212)">
<path d="M111.58 140.989C108.319 141.192 105.027 142.266 102.147 143.785C101.942 143.893 102.123 144.203 102.328 144.095C105.141 142.612 108.393 141.547 111.58 141.349C111.81 141.335 111.811 140.975 111.58 140.989Z" fill="#C0C0C0"/>
</g>
<mask id="mask10_630_5212" style="mask-type:luminance" maskUnits="userSpaceOnUse" x="19" y="122" width="135" height="48">
<path d="M74.2983 126.424C74.2983 126.424 65.1879 140.329 64.7081 142.487C64.7081 142.487 33.78 144.166 26.5876 147.282C19.3953 150.399 16.7577 159.749 22.9912 164.544C29.2248 169.339 70.7019 171.017 82.2102 166.942C82.2102 166.942 141.669 174.853 151.739 163.345C161.808 151.837 133.517 140.569 109.542 141.768C109.542 141.768 101.151 125.225 96.5959 123.067C92.0397 120.91 74.2983 126.424 74.2983 126.424Z" fill="white"/>
</mask>
<g mask="url(#mask10_630_5212)">
<path d="M63.5088 142.44C66.1004 142.581 68.4164 143.624 70.245 145.463C70.4083 145.627 70.6627 145.373 70.4993 145.209C68.6076 143.306 66.1869 142.226 63.5088 142.081C63.2772 142.068 63.2782 142.428 63.5088 142.44Z" fill="#C0C0C0"/>
</g>
<mask id="mask11_630_5212" style="mask-type:luminance" maskUnits="userSpaceOnUse" x="19" y="122" width="135" height="48">
<path d="M74.2983 126.424C74.2983 126.424 65.1879 140.329 64.7081 142.487C64.7081 142.487 33.78 144.166 26.5876 147.282C19.3953 150.399 16.7577 159.749 22.9912 164.544C29.2248 169.339 70.7019 171.017 82.2102 166.942C82.2102 166.942 141.669 174.853 151.739 163.345C161.808 151.837 133.517 140.569 109.542 141.768C109.542 141.768 101.151 125.225 96.5959 123.067C92.0397 120.91 74.2983 126.424 74.2983 126.424Z" fill="white"/>
</mask>
<g mask="url(#mask11_630_5212)">
<path d="M107.315 152.084C104.226 153.65 101.173 154.8 97.6737 154.894C97.4426 154.9 97.4416 155.26 97.6737 155.254C101.218 155.158 104.366 153.982 107.496 152.394C107.702 152.29 107.52 151.979 107.315 152.084Z" fill="#C0C0C0"/>
</g>
<path d="M63.9109 79.4854C63.9332 79.9642 62.8925 83.373 61.87 92.3014C60.8475 101.23 55.6597 113.473 55.727 114.91C55.7942 116.347 52.4972 117.701 49.9035 123.823C47.3094 129.944 41.7524 134.284 40.3714 135.549C40.3714 135.549 37.4526 134.725 34.3507 135.11C31.2484 135.496 28.3301 134.672 27.8062 133.737C27.8062 133.737 26.4252 135.001 27.6787 136.143C28.9323 137.284 31.7611 136.192 32.547 137.595C33.3328 138.998 31.5174 141.243 29.8077 140.603C28.0974 139.963 27.5624 138.788 27.2894 138.081C27.0163 137.373 28.0792 134.444 25.8901 133.826C25.8901 133.826 25.2368 137.817 25.521 138.764C25.521 138.764 22.4904 135.545 20.8813 137.06C20.8813 137.06 23.8785 139.56 24.1516 140.267C24.1516 140.267 21.7006 139.182 21.0492 140.653C21.0492 140.653 23.2717 141.989 24.2411 142.183C25.2105 142.378 25.9402 142.584 26.4525 143.28C26.4525 143.28 23.7956 142.924 23.6237 144.373C23.6237 144.373 26.2583 144.249 27.478 144.672C28.6977 145.095 33.2706 145.362 34.9024 144.325C36.5343 143.289 58.9987 130.957 63.9807 119.444C63.9807 119.444 69.9852 99.0017 70.0004 94.2007" fill="#FFBF9D"/>
<mask id="mask12_630_5212" style="mask-type:luminance" maskUnits="userSpaceOnUse" x="20" y="79" width="51" height="67">
<path d="M63.9109 79.4854C63.9332 79.9642 62.8925 83.373 61.87 92.3014C60.8475 101.23 55.6597 113.473 55.727 114.91C55.7942 116.347 52.4972 117.701 49.9035 123.823C47.3094 129.944 41.7524 134.284 40.3714 135.549C40.3714 135.549 37.4526 134.725 34.3507 135.11C31.2484 135.496 28.3301 134.672 27.8062 133.737C27.8062 133.737 26.4252 135.001 27.6787 136.143C28.9323 137.284 31.7611 136.192 32.547 137.595C33.3328 138.998 31.5174 141.243 29.8077 140.603C28.0974 139.963 27.5624 138.788 27.2894 138.081C27.0163 137.373 28.0792 134.444 25.8901 133.826C25.8901 133.826 25.2368 137.817 25.521 138.764C25.521 138.764 22.4904 135.545 20.8813 137.06C20.8813 137.06 23.8785 139.56 24.1516 140.267C24.1516 140.267 21.7006 139.182 21.0492 140.653C21.0492 140.653 23.2717 141.989 24.2411 142.183C25.2105 142.378 25.9402 142.584 26.4525 143.28C26.4525 143.28 23.7956 142.924 23.6237 144.373C23.6237 144.373 26.2583 144.249 27.478 144.672C28.6977 145.095 33.2706 145.362 34.9024 144.325C36.5343 143.289 58.9987 130.957 63.9807 119.444C63.9807 119.444 69.9852 99.0017 70.0004 94.2007" fill="white"/>
</mask>
<g mask="url(#mask12_630_5212)">
<path opacity="0.21" d="M59.4331 103.407C59.4331 103.407 64.4677 113.717 70.9414 117.793C77.4147 121.868 67.8244 95.9753 59.4331 103.407Z" fill="#D18161"/>
</g>
<path d="M111.699 80.3906C111.673 80.8695 112.288 82.2859 113.246 91.2213C114.203 100.157 119.301 112.438 119.223 113.874C119.145 115.311 122.432 116.689 124.982 122.83C127.531 128.97 133.056 133.351 134.428 134.626C134.428 134.626 137.353 133.824 140.451 134.231C143.551 134.639 146.475 133.837 147.006 132.905C147.006 132.905 148.378 134.18 147.116 135.312C145.854 136.445 143.033 135.332 142.237 136.729C141.441 138.127 143.24 140.385 144.954 139.757C146.669 139.13 147.213 137.959 147.491 137.253C147.769 136.548 146.727 133.61 148.921 133.008C148.921 133.008 149.545 137.004 149.254 137.948C149.254 137.948 152.309 134.752 153.907 136.279C153.907 136.279 150.891 138.757 150.613 139.463C150.613 139.463 153.072 138.395 153.712 139.87C153.712 139.87 151.48 141.19 150.509 141.378C149.539 141.565 148.808 141.766 148.29 142.458C148.29 142.458 150.949 142.122 151.111 143.571C151.111 143.571 148.478 143.429 147.255 143.843C146.032 144.257 141.457 144.489 139.833 143.441C138.209 142.393 115.835 129.898 110.938 118.348C110.938 118.348 105.083 97.863 105.103 93.062" fill="#FFBF9D"/>
<mask id="mask13_630_5212" style="mask-type:luminance" maskUnits="userSpaceOnUse" x="105" y="80" width="49" height="65">
<path d="M111.699 80.3906C111.673 80.8695 112.288 82.2859 113.246 91.2213C114.203 100.157 119.301 112.438 119.223 113.874C119.145 115.311 122.432 116.689 124.982 122.83C127.531 128.97 133.056 133.351 134.428 134.626C134.428 134.626 137.353 133.824 140.451 134.231C143.551 134.639 146.475 133.837 147.006 132.905C147.006 132.905 148.378 134.18 147.116 135.312C145.854 136.445 143.033 135.332 142.237 136.729C141.441 138.127 143.24 140.385 144.954 139.757C146.669 139.13 147.213 137.959 147.491 137.253C147.769 136.548 146.727 133.61 148.921 133.008C148.921 133.008 149.545 137.004 149.254 137.948C149.254 137.948 152.309 134.752 153.907 136.279C153.907 136.279 150.891 138.757 150.613 139.463C150.613 139.463 153.072 138.395 153.712 139.87C153.712 139.87 151.48 141.19 150.509 141.378C149.539 141.565 148.808 141.766 148.29 142.458C148.29 142.458 150.949 142.122 151.111 143.571C151.111 143.571 148.478 143.429 147.255 143.843C146.032 144.257 141.457 144.489 139.833 143.441C138.209 142.393 115.835 129.898 110.938 118.348C110.938 118.348 105.083 97.863 105.103 93.062" fill="white"/>
</mask>
<g mask="url(#mask13_630_5212)">
<path opacity="0.21" d="M110.98 122.587C110.98 122.587 115.535 114.915 119.611 113.956C123.687 112.997 108.822 104.366 110.98 122.587Z" fill="#D18161"/>
</g>
<path d="M73.8185 127.382L69.2633 94.7757L63.5597 81.3245C63.5744 81.3164 62.4467 77.9167 75.2572 71.7595C88.2083 65.5346 110.98 72.9585 111.815 81.1577C112.735 90.1932 106.185 93.0979 106.185 93.0979L101.151 127.383C101.151 127.382 89.4027 133.376 73.8185 127.382Z" fill="#FFBF9D"/>
<mask id="mask14_630_5212" style="mask-type:luminance" maskUnits="userSpaceOnUse" x="63" y="69" width="49" height="62">
<path d="M73.8185 127.382L69.2633 94.7757L63.5597 81.3245C63.5744 81.3164 62.4467 77.9167 75.2572 71.7595C88.2083 65.5346 110.98 72.9585 111.815 81.1577C112.735 90.1932 106.185 93.0979 106.185 93.0979L101.151 127.383C101.151 127.382 89.4027 133.376 73.8185 127.382Z" fill="white"/>
</mask>
<g mask="url(#mask14_630_5212)">
<path opacity="0.21" d="M70.942 117.792C70.8753 118.324 93.0465 133.121 103.692 124.977C114.337 116.833 73.0998 100.53 70.942 117.792Z" fill="#D18161"/>
</g>
<path d="M76.621 71.7251C76.223 72.9216 83.3759 64.3118 82.7003 51.8599H90.7923C90.7923 51.8599 90.8019 67.359 98.9924 72.1964C98.9924 72.1964 86.1031 84.1583 76.621 71.7251Z" fill="#FFBF9D"/>
<mask id="mask15_630_5212" style="mask-type:luminance" maskUnits="userSpaceOnUse" x="76" y="51" width="23" height="27">
<path d="M76.621 71.7251C76.223 72.9216 83.3759 64.3118 82.7003 51.8599H90.7923C90.7923 51.8599 90.8019 67.359 98.9924 72.1964C98.9924 72.1964 86.1031 84.1583 76.621 71.7251Z" fill="white"/>
</mask>
<g mask="url(#mask15_630_5212)">
<path opacity="0.34" d="M86.6452 66.4853C90.6839 66.4853 93.9579 63.8555 93.9579 60.6113C93.9579 57.3672 90.6839 54.7373 86.6452 54.7373C82.6065 54.7373 79.3325 57.3672 79.3325 60.6113C79.3325 63.8555 82.6065 66.4853 86.6452 66.4853Z" fill="#D18161"/>
</g>
<path d="M67.1061 155.194C67.1061 155.194 66.1473 152.557 65.188 149.679C64.2292 146.803 60.1534 146.563 57.0364 148.241C53.9199 149.919 47.4461 146.083 45.0487 145.843C42.6512 145.604 39.2945 145.843 40.0141 147.761C40.8561 150.006 43.8502 148.001 45.0487 149.44C46.2471 150.878 60.1529 159.989 64.2287 159.989C64.2287 159.989 67.1061 159.27 67.1061 155.194Z" fill="#FFBF9D"/>
<path d="M107.703 151.716C107.703 151.716 108.912 149.184 110.144 146.412C111.376 143.641 115.456 143.795 118.396 145.765C121.337 147.736 128.149 144.541 130.559 144.533C132.968 144.526 136.286 145.088 135.385 146.927C134.331 149.081 131.544 146.796 130.212 148.113C128.88 149.429 114.162 157.158 110.105 156.765C110.105 156.765 107.31 155.773 107.703 151.716Z" fill="#FFBF9D"/>
<path d="M64.9076 78.5018C65.1973 78.5175 105.037 93.1818 112.564 85.588C112.564 85.588 114.071 97.7597 115.775 102.448C117.693 107.723 119.611 113.717 119.611 113.957C119.611 113.957 116.974 113.477 108.823 121.629C97.8033 132.648 73.9188 122.645 59.3638 103.316C59.3643 103.316 61.0315 78.2909 64.9076 78.5018Z" fill="#1A6980"/>
<mask id="mask16_630_5212" style="mask-type:luminance" maskUnits="userSpaceOnUse" x="59" y="78" width="61" height="49">
<path d="M64.9076 78.5018C65.1973 78.5175 105.037 93.1818 112.564 85.588C112.564 85.588 114.071 97.7597 115.775 102.448C117.693 107.723 119.611 113.717 119.611 113.957C119.611 113.957 116.974 113.477 108.823 121.629C97.8033 132.648 73.9188 122.645 59.3638 103.316C59.3643 103.316 61.0315 78.2909 64.9076 78.5018Z" fill="white"/>
</mask>
<g mask="url(#mask16_630_5212)">
<path d="M57.3097 90.1278C61.9125 87.8856 67.9923 91.3986 72.6355 89.2277C73.1523 88.986 73.6448 88.675 74.2127 88.5657C74.7235 88.4676 75.2524 88.5415 75.7677 88.6158C80.7628 89.3359 85.7575 90.056 90.7526 90.7761C92.0916 90.9693 93.4373 91.1629 94.793 91.168C96.5715 91.1751 98.4011 90.8625 100.097 91.3556C100.902 91.5897 101.635 91.9958 102.427 92.2663C104.501 92.9753 106.798 92.7088 108.991 92.4327C111.975 92.057 114.959 91.6807 117.944 91.305C118.794 91.1978 119.988 91.3252 120.052 92.1131C120.122 92.9601 118.828 93.1882 117.904 93.1862C115.149 93.1791 112.466 93.9523 109.726 94.2264C107.755 94.4236 105.765 94.3614 103.784 94.2936C94.261 93.9685 84.7431 93.5229 75.2337 92.9581C73.3986 92.8489 71.5594 92.7351 69.748 92.4428C69.1048 92.3391 68.4408 92.2132 67.8072 92.3579C67.2793 92.4782 66.8191 92.7766 66.3013 92.9298C64.2983 93.5214 62.2776 91.8244 60.1785 91.9498C59.2531 92.0054 58.3636 92.417 57.4402 92.3417C56.5163 92.2663 55.6041 91.2772 56.1735 90.6036" fill="#D1E1F2"/>
</g>
<mask id="mask17_630_5212" style="mask-type:luminance" maskUnits="userSpaceOnUse" x="59" y="78" width="61" height="49">
<path d="M64.9076 78.5018C65.1973 78.5175 105.037 93.1818 112.564 85.588C112.564 85.588 114.071 97.7597 115.775 102.448C117.693 107.723 119.611 113.717 119.611 113.957C119.611 113.957 116.974 113.477 108.823 121.629C97.8033 132.648 73.9188 122.645 59.3638 103.316C59.3643 103.316 61.0315 78.2909 64.9076 78.5018Z" fill="white"/>
</mask>
<g mask="url(#mask17_630_5212)">
<path d="M55.5655 97.692C55.7734 96.6655 57.255 96.3039 58.3362 96.619C59.4178 96.934 60.2977 97.6703 61.3511 98.0581C64.5884 99.2495 68.1131 96.8799 71.5952 97.0351C73.9507 97.1403 76.1873 98.4065 78.5276 98.1411C79.2184 98.0627 79.8843 97.8518 80.5746 97.7689C82.032 97.5939 83.4873 97.9974 84.9174 98.3105C89.6334 99.3441 94.5254 99.426 99.3729 99.5034C102.338 99.5509 105.304 99.5979 108.269 99.6455C110.944 99.6879 113.663 99.7259 116.242 99.068C117.238 98.8136 118.224 98.4546 119.257 98.4424C120.291 98.4303 121.423 98.8728 121.791 99.7618C118.811 100.153 115.83 100.545 112.85 100.936C111.4 101.127 109.946 101.318 108.482 101.364C106.25 101.434 104.024 101.166 101.794 101.072C94.8723 100.78 87.8858 102.155 81.0424 101.158C79.2426 100.896 77.4444 100.47 75.6265 100.585C74.0609 100.683 72.5327 101.182 70.9646 101.135C69.7945 101.099 68.6648 100.76 67.5346 100.48C63.5776 99.4973 59.4209 99.1989 55.3461 99.605C54.8505 98.8809 54.3554 98.1567 53.8599 97.4326C54.4611 97.4073 55.0624 97.3825 55.6631 97.3573" fill="#D1E1F2"/>
</g>
<mask id="mask18_630_5212" style="mask-type:luminance" maskUnits="userSpaceOnUse" x="59" y="78" width="61" height="49">
<path d="M64.9076 78.5018C65.1973 78.5175 105.037 93.1818 112.564 85.588C112.564 85.588 114.071 97.7597 115.775 102.448C117.693 107.723 119.611 113.717 119.611 113.957C119.611 113.957 116.974 113.477 108.823 121.629C97.8033 132.648 73.9188 122.645 59.3638 103.316C59.3643 103.316 61.0315 78.2909 64.9076 78.5018Z" fill="white"/>
</mask>
<g mask="url(#mask18_630_5212)">
<path d="M55.5885 105.465C57.6951 104.191 60.4865 104.501 62.8946 105.186C65.3026 105.871 67.6652 106.893 70.1855 106.908C72.5465 106.922 74.8186 106.045 77.1771 105.933C80.9257 105.756 84.6101 107.521 88.3244 107.023C89.8925 106.813 91.3843 106.204 92.9645 106.095C94.1342 106.013 95.3038 106.208 96.4578 106.403C98.7728 106.793 101.088 107.182 103.403 107.572C104.116 107.692 104.837 107.813 105.561 107.769C106.501 107.712 107.391 107.382 108.273 107.079C110.491 106.319 112.773 105.713 115.092 105.268C116.343 105.029 117.71 104.849 118.845 105.39C119.281 105.599 119.666 105.908 120.137 106.037C121.057 106.289 121.999 105.8 122.934 105.599C123.869 105.397 125.173 105.781 125.125 106.664C122.482 107.532 119.574 107.094 116.771 107.218C113.795 107.349 110.902 108.122 107.964 108.585C103.377 109.306 98.6499 109.264 94.079 108.46C92.5129 108.184 90.9549 107.819 89.3615 107.76C87.4723 107.691 85.6008 108.055 83.7257 108.278C79.0466 108.834 74.3028 108.515 69.5974 108.195C67.0174 108.02 64.4374 107.845 61.8579 107.669C59.861 107.534 57.8524 107.396 55.9091 106.951C55.4939 106.856 55.0454 106.723 54.8163 106.39C54.5872 106.057 54.7794 105.489 55.2077 105.492" fill="#D1E1F2"/>
</g>
<mask id="mask19_630_5212" style="mask-type:luminance" maskUnits="userSpaceOnUse" x="59" y="78" width="61" height="49">
<path d="M64.9076 78.5018C65.1973 78.5175 105.037 93.1818 112.564 85.588C112.564 85.588 114.071 97.7597 115.775 102.448C117.693 107.723 119.611 113.717 119.611 113.957C119.611 113.957 116.974 113.477 108.823 121.629C97.8033 132.648 73.9188 122.645 59.3638 103.316C59.3643 103.316 61.0315 78.2909 64.9076 78.5018Z" fill="white"/>
</mask>
<g mask="url(#mask19_630_5212)">
<path d="M64.2852 114.006C66.0844 113.246 68.1972 113.522 70.0899 114.055C71.9827 114.588 73.8133 115.365 75.7774 115.591C81.3606 116.234 87.1659 112.362 92.3577 114.357C93.2664 114.707 94.1529 115.236 95.1369 115.197C95.8778 115.168 96.5513 114.817 97.2623 114.622C99.2916 114.068 101.443 114.816 103.402 115.553C104.128 115.826 104.928 116.104 105.678 115.89C106.235 115.73 106.666 115.322 107.195 115.097C108.388 114.59 109.764 115.093 111.064 115.271C112.991 115.536 114.933 115.059 116.86 114.795C118.786 114.531 120.912 114.522 122.492 115.57C121.321 116.397 119.779 116.614 118.306 116.707C113.405 117.016 108.377 116.269 103.628 117.428C102.872 117.613 102.112 117.847 101.33 117.823C100.474 117.798 99.6699 117.465 98.8618 117.203C95.7999 116.21 92.4816 116.184 89.2351 116.169C87.8956 116.163 86.553 116.157 85.221 116.29C82.1328 116.596 79.1245 117.642 76.0206 117.532C72.2725 117.4 68.7585 115.591 65.0078 115.555C64.4647 115.549 63.8999 115.578 63.4018 115.379C62.9037 115.18 62.5027 114.661 62.6807 114.189C62.8587 113.717 63.7735 113.652 63.8888 114.141" fill="#D1E1F2"/>
</g>
<mask id="mask20_630_5212" style="mask-type:luminance" maskUnits="userSpaceOnUse" x="59" y="78" width="61" height="49">
<path d="M64.9076 78.5018C65.1973 78.5175 105.037 93.1818 112.564 85.588C112.564 85.588 114.071 97.7597 115.775 102.448C117.693 107.723 119.611 113.717 119.611 113.957C119.611 113.957 116.974 113.477 108.823 121.629C97.8033 132.648 73.9188 122.645 59.3638 103.316C59.3643 103.316 61.0315 78.2909 64.9076 78.5018Z" fill="white"/>
</mask>
<g mask="url(#mask20_630_5212)">
<path d="M57.0674 84.4983C58.0398 82.8407 60.3523 82.2242 62.3907 82.3911C64.4291 82.558 66.3456 83.3276 68.339 83.7559C70.4017 84.1989 72.5569 84.2722 74.6494 83.9703C75.766 83.8095 76.8932 83.5425 78.0107 83.6963C79.0828 83.8439 80.0471 84.3663 81.0873 84.6459C84.7768 85.6376 88.5254 83.4884 92.3332 83.006C94.8838 82.6829 97.4689 83.1188 99.9973 83.5688C106.179 84.6687 112.493 85.8641 118.722 85.0257C118.686 86.427 116.697 86.9089 115.175 86.9564C109.16 87.1435 103.132 86.9478 97.1468 86.3713C94.145 86.0821 91.1332 85.6968 88.1203 85.8606C86.0081 85.9754 83.9085 86.3602 81.7942 86.2833C78.2342 86.1544 74.8335 84.7263 71.2715 84.6717C69.4389 84.6439 67.626 84.9817 65.8035 85.1622C63.3211 85.4085 60.8043 85.3635 58.3341 85.0277C57.8233 84.9585 57.2681 84.8528 56.9414 84.4851C56.6143 84.117 56.7412 83.4151 57.2524 83.3458" fill="#D1E1F2"/>
</g>
<mask id="mask21_630_5212" style="mask-type:luminance" maskUnits="userSpaceOnUse" x="59" y="78" width="61" height="49">
<path d="M64.9076 78.5018C65.1973 78.5175 105.037 93.1818 112.564 85.588C112.564 85.588 114.071 97.7597 115.775 102.448C117.693 107.723 119.611 113.717 119.611 113.957C119.611 113.957 116.974 113.477 108.823 121.629C97.8033 132.648 73.9188 122.645 59.3638 103.316C59.3643 103.316 61.0315 78.2909 64.9076 78.5018Z" fill="white"/>
</mask>
<g mask="url(#mask21_630_5212)">
<path d="M77.1992 121.436C82.83 121.572 88.4896 121.706 94.0703 121.005C95.3148 120.848 96.5608 120.65 97.8164 120.675C98.9239 120.697 100.018 120.892 101.108 121.074C105.14 121.75 109.204 122.263 113.285 122.613C109.765 124.175 105.646 124.003 101.775 123.504C97.9049 123.006 94.0066 122.213 90.1275 122.651C87.8894 122.904 85.6907 123.564 83.4368 123.488C81.7119 123.43 80.0073 122.928 78.5656 122.054" fill="#D1E1F2"/>
</g>
<path d="M102.527 46.6175C102.527 56.5309 91.4355 64.5677 86.7655 64.5677C82.0956 64.5677 71.0044 56.5314 71.0044 46.6175C71.0044 36.7041 77.7689 24.2891 86.4737 24.2891C95.1786 24.2891 102.527 36.7036 102.527 46.6175Z" fill="#FFBF9D"/>
<mask id="mask22_630_5212" style="mask-type:luminance" maskUnits="userSpaceOnUse" x="71" y="24" width="32" height="41">
<path d="M102.527 46.6175C102.527 56.5309 91.4355 64.5677 86.7655 64.5677C82.0956 64.5677 71.0044 56.5314 71.0044 46.6175C71.0044 36.7041 77.7689 24.2891 86.4737 24.2891C95.1786 24.2891 102.527 36.7036 102.527 46.6175Z" fill="white"/>
</mask>
<g mask="url(#mask22_630_5212)">
<path opacity="0.18" d="M86.3644 29.587C86.3644 29.587 92.0281 41.5389 101.115 45.8807L89.8344 29.2659L83.0886 27.8212C83.0886 27.8212 73.0912 42.7869 74.537 47.3057C74.537 47.3057 82.8216 31.2598 88.1252 29.6589C93.4293 28.0574 85.2539 27.2988 85.2539 27.2988" fill="#A05940"/>
</g>
<path d="M86.5253 30.0429C86.5253 30.0429 78.3737 35.3177 74.5376 47.3049C74.5376 47.3049 72.3799 52.5792 73.8185 55.4565C75.2572 58.3333 80.7712 62.1694 79.5727 65.7659C79.5727 65.7659 79.8124 71.9994 74.2979 76.3149C74.2979 76.3149 79.5727 74.1572 84.1279 82.5485C84.1279 82.5485 93.7182 77.5139 100.671 86.3846C100.671 86.3846 105.705 80.6304 110.74 88.063C110.74 88.063 115.296 84.9464 117.693 90.9398C117.693 90.9398 121.29 88.063 120.091 95.9744C120.091 95.9744 124.166 99.3311 119.132 102.448C119.132 102.448 119.851 104.126 116.974 105.804L115.535 101.729C115.535 101.729 116.254 101.009 117.933 101.009C117.933 101.009 116.494 97.6527 118.892 95.9749C118.892 95.9749 115.055 95.0161 115.055 90.9403C115.055 90.9403 110.74 93.8171 107.863 88.7825C107.863 88.7825 100.91 94.5367 95.3955 86.8645C95.3955 86.8645 84.3671 94.297 79.332 84.467C79.332 84.467 65.6659 90.7006 64.9468 78.4732C64.9468 78.4732 57.7545 68.6432 66.8649 62.8895C66.8649 62.8895 58.4984 51.8237 63.5082 42.0311C68.7824 31.7218 73.8175 16.3778 85.3259 22.8511C85.3259 22.8511 105.465 13.9804 102.588 47.0662C102.589 47.0652 92.5192 39.3935 86.5253 30.0429Z" fill="#1D3542"/>
<mask id="mask23_630_5212" style="mask-type:luminance" maskUnits="userSpaceOnUse" x="61" y="21" width="61" height="85">
<path d="M86.5253 30.0429C86.5253 30.0429 78.3737 35.3177 74.5376 47.3049C74.5376 47.3049 72.3799 52.5792 73.8185 55.4565C75.2572 58.3333 80.7712 62.1694 79.5727 65.7659C79.5727 65.7659 79.8124 71.9994 74.2979 76.3149C74.2979 76.3149 79.5727 74.1572 84.1279 82.5485C84.1279 82.5485 93.7182 77.5139 100.671 86.3846C100.671 86.3846 105.705 80.6304 110.74 88.063C110.74 88.063 115.296 84.9464 117.693 90.9398C117.693 90.9398 121.29 88.063 120.091 95.9744C120.091 95.9744 124.166 99.3311 119.132 102.448C119.132 102.448 119.851 104.126 116.974 105.804L115.535 101.729C115.535 101.729 116.254 101.009 117.933 101.009C117.933 101.009 116.494 97.6527 118.892 95.9749C118.892 95.9749 115.055 95.0161 115.055 90.9403C115.055 90.9403 110.74 93.8171 107.863 88.7825C107.863 88.7825 100.91 94.5367 95.3955 86.8645C95.3955 86.8645 84.3671 94.297 79.332 84.467C79.332 84.467 65.6659 90.7006 64.9468 78.4732C64.9468 78.4732 57.7545 68.6432 66.8649 62.8895C66.8649 62.8895 58.4984 51.8237 63.5082 42.0311C68.7824 31.7218 73.8175 16.3778 85.3259 22.8511C85.3259 22.8511 105.465 13.9804 102.588 47.0662C102.589 47.0652 92.5192 39.3935 86.5253 30.0429Z" fill="white"/>
</mask>
<g mask="url(#mask23_630_5212)">
<path opacity="0.22" d="M73.8185 55.4564C73.8185 55.4564 78.3737 66.9648 86.765 66.4849C95.1563 66.0055 101.062 55.2981 101.586 49.8631C102.109 44.428 72.8597 49.4626 73.8185 55.4564Z" fill="#1D3542"/>
</g>
<path d="M74.7311 48.0751C75.1882 49.9381 74.5561 51.6948 73.3192 51.9982C72.0823 52.3016 70.7094 51.0374 70.2522 49.174C69.7951 47.311 70.4272 45.5543 71.6641 45.2509C72.901 44.948 74.2739 46.2122 74.7311 48.0751Z" fill="#FFBF9D"/>
<path d="M100.957 46.397C100.5 48.26 101.132 50.0167 102.369 50.3201C103.606 50.6235 104.979 49.3593 105.436 47.4959C105.893 45.6329 105.261 43.8762 104.024 43.5728C102.787 43.2694 101.414 44.5336 100.957 46.397Z" fill="#FFBF9D"/>
<path d="M60.6322 101.49C55.5976 99.8114 53.4393 105.805 53.4393 105.805C49.8429 104.367 48.8841 108.922 48.8841 108.922C45.7676 111.559 48.8841 115.155 48.8841 115.155C48.8841 115.559 48.9246 115.927 48.9929 116.269L51.6937 114.865C51.0161 114.852 50.5625 114.916 50.5625 114.916C51.7615 112.518 49.8434 109.881 49.8434 109.881C53.4398 110.121 54.6383 107.004 54.6383 107.004C67.5848 111.799 70.9415 96.9346 70.9415 96.9346C70.9415 96.9346 65.6668 103.168 60.6322 101.49Z" fill="#1D3542"/>
<path d="M77.4834 47.6582C78.5342 47.9115 79.5633 48.0263 80.5954 47.95C81.628 47.8827 82.6307 47.6278 83.6376 47.2334C82.8244 47.9601 81.7256 48.3489 80.6282 48.4283C79.5304 48.4991 78.3891 48.2655 77.4834 47.6582Z" fill="#2E2430"/>
<path d="M84.6102 58.6657C86.0752 59.2579 87.661 59.137 89.0279 58.3507C89.2595 58.2177 89.0506 57.8587 88.8185 57.9922C87.5361 58.7294 86.0893 58.8184 84.7205 58.2652C84.4727 58.1656 84.365 58.5671 84.6102 58.6657Z" fill="#A34F31"/>
<path d="M84.665 54.6297C85.0625 54.6414 85.419 54.6636 85.7715 54.6661C86.1224 54.6712 86.4638 54.6621 86.8046 54.6383C87.1454 54.6141 87.4847 54.5761 87.8316 54.523C88.18 54.4715 88.5305 54.4012 88.9229 54.3359C88.6862 54.6581 88.3575 54.8937 88.001 55.0631C87.6425 55.231 87.2506 55.3296 86.8546 55.3559C86.4582 55.3827 86.0567 55.3392 85.6789 55.2224C85.3017 55.1031 84.9442 54.9149 84.665 54.6297Z" fill="#A34F31"/>
<path d="M90.4409 47.6982C91.4917 47.9516 92.5208 48.0669 93.5529 47.99C94.585 47.9228 95.5883 47.6679 96.5951 47.2729C95.7819 47.9996 94.6831 48.3885 93.5858 48.4679C92.4879 48.5387 91.3466 48.3051 90.4409 47.6982Z" fill="#2E2430"/>
<path d="M77.4082 45.3068C78.821 43.6815 80.8933 42.9437 83.0127 43.3574C83.3757 43.4282 83.531 42.8714 83.1664 42.8006C80.8544 42.349 78.5495 43.1166 77.0001 44.8987C76.7568 45.1778 77.1639 45.5879 77.4082 45.3068Z" fill="#1D3542"/>
<path d="M96.771 44.6541C95.2211 42.8716 92.9167 42.1044 90.6047 42.556C90.2401 42.6273 90.3944 43.1841 90.7585 43.1128C92.8778 42.6991 94.9501 43.4369 96.363 45.0622C96.6067 45.3438 97.0138 44.9337 96.771 44.6541Z" fill="#1D3542"/>
<path d="M86.9953 29.23C87.3159 30.7308 87.91 32.26 88.6392 33.6719C89.374 35.0914 90.2554 36.4471 91.3072 37.6648C92.356 38.8804 93.5105 40.0263 94.8242 40.9719C95.4523 41.4862 96.1572 41.8882 96.8404 42.3267C97.5317 42.7514 98.275 43.0842 98.9926 43.469C98.2594 43.1211 97.4963 42.8233 96.7817 42.4308C96.0753 42.0248 95.3441 41.6536 94.6852 41.1666C93.3107 40.2756 92.0814 39.1717 90.9487 37.9823C89.8129 36.7905 88.839 35.4448 88.0081 34.0163C87.1793 32.5766 86.4967 31.0818 86.0547 29.4176L86.9953 29.23Z" fill="#1D3542"/>
<path d="M87.3282 28.1895C86.9964 28.952 86.7512 29.8319 86.6 30.6936C86.4498 31.5644 86.4002 32.4544 86.4614 33.3403C86.511 34.2288 86.7051 35.1092 87.0202 35.9482C87.3079 36.8043 87.8025 37.5699 88.3238 38.3143C87.7413 37.6215 87.1699 36.8892 86.7992 36.0417C86.4012 35.2119 86.118 34.3158 85.9845 33.395C85.8394 32.4761 85.8086 31.5356 85.8859 30.6031C85.9709 29.664 86.1297 28.7578 86.4427 27.8203L87.3282 28.1895Z" fill="#1D3542"/>
<path d="M88.1266 29.1122C87.7119 29.3797 87.2786 29.7276 86.8856 30.0831C86.4872 30.4421 86.1104 30.83 85.7605 31.2426C85.4085 31.6537 85.0809 32.0896 84.7906 32.5513C84.4887 33.0079 84.2429 33.4985 84.0083 33.9986C84.1676 33.4717 84.3426 32.9422 84.5797 32.4375C84.8053 31.9273 85.0738 31.4343 85.3741 30.9589C85.672 30.4815 86.0032 30.0234 86.3648 29.5865C86.7314 29.146 87.1031 28.7385 87.5622 28.3359L88.1266 29.1122Z" fill="#1D3542"/>
</svg>
