<svg width="178" height="178" viewBox="0 0 178 178" fill="none" xmlns="http://www.w3.org/2000/svg">
<path d="M81.4688 138.533L138.22 130.939L162.066 147.839L106.083 159.022L81.4688 138.533Z" fill="#455A64"/>
<path d="M81.4688 138.533L106.083 159.022L162.066 147.839V148.777L105.968 159.899L81.4688 139.34V138.533Z" fill="#263238"/>
<path d="M84.9072 138.712L107.437 157.526L159.899 147.084L136.829 130.867C136.829 130.867 121.507 130.965 120.779 131.095C120.05 131.225 113.057 133.155 113.057 133.155C113.057 133.155 103.529 133.61 102.869 133.744C102.422 133.834 92.8161 135.537 87.6474 136.978L84.9072 138.712Z" fill="white"/>
<path d="M113.057 133.154L115.652 135.344L118.228 137.557L123.348 142.016L128.424 146.526L130.947 148.799L133.45 151.094L130.855 148.904L128.279 146.692L123.159 142.232L118.083 137.722L115.56 135.449L113.057 133.154Z" fill="#DBDBDB"/>
<path d="M133.095 147.786C134.711 147.233 136.343 146.738 137.991 146.294C138.403 146.184 138.814 146.067 139.231 145.97C139.441 145.923 139.647 145.874 139.871 145.839L140.506 145.752L143.04 145.407C144.728 145.171 146.421 144.965 148.111 144.744C149.802 144.525 151.495 144.322 153.189 144.124C151.506 144.398 149.822 144.666 148.135 144.919C146.449 145.17 144.764 145.435 143.075 145.671L140.543 146.034L139.911 146.125C139.715 146.16 139.506 146.212 139.301 146.262L138.063 146.568C136.414 146.995 134.762 147.416 133.095 147.786Z" fill="#DBDBDB"/>
<path d="M131.602 146.283C133.193 145.836 134.794 145.433 136.407 145.079C137.214 144.902 138.013 144.708 138.846 144.598L141.296 144.247C142.928 144.008 144.565 143.794 146.2 143.571C147.834 143.347 149.472 143.142 151.111 142.94C149.484 143.219 147.856 143.493 146.225 143.749C144.594 144.006 142.965 144.272 141.332 144.513L138.884 144.882C138.477 144.937 138.085 145.028 137.677 145.108L136.466 145.352C134.851 145.693 133.231 146.007 131.602 146.283Z" fill="#DBDBDB"/>
<path d="M130.147 144.929C131.73 144.495 133.32 144.098 134.922 143.749C135.725 143.576 136.518 143.385 137.337 143.251L139.783 142.969C141.411 142.78 143.041 142.612 144.672 142.441C146.301 142.266 147.933 142.11 149.565 141.959C147.942 142.19 146.319 142.416 144.694 142.622C143.068 142.832 141.444 143.046 139.817 143.237C139.007 143.338 138.187 143.428 137.382 143.538L134.979 144.018C133.376 144.352 131.765 144.656 130.147 144.929Z" fill="#DBDBDB"/>
<path d="M128.889 143.905C130.429 143.308 131.999 142.81 133.59 142.362C133.79 142.305 133.99 142.256 134.196 142.212C134.402 142.162 134.62 142.139 134.824 142.12L136.055 142.009L138.518 141.797C141.802 141.531 145.088 141.28 148.377 141.072C145.101 141.428 141.821 141.743 138.541 142.057L136.081 142.286L134.852 142.406C134.443 142.427 134.073 142.556 133.667 142.651C132.078 143.066 130.498 143.534 128.889 143.905Z" fill="#DBDBDB"/>
<path d="M127.521 142.676C129.062 142.079 130.632 141.581 132.223 141.133C132.423 141.077 132.623 141.027 132.828 140.984C133.034 140.933 133.253 140.91 133.456 140.892L134.688 140.78L137.151 140.568C140.435 140.303 143.721 140.052 147.01 139.844C143.733 140.199 140.454 140.515 137.174 140.828L134.714 141.057L133.485 141.177C133.075 141.198 132.706 141.327 132.3 141.422C130.711 141.837 129.13 142.305 127.521 142.676Z" fill="#DBDBDB"/>
<path d="M126.153 141.447C127.694 140.85 129.264 140.352 130.855 139.904C131.055 139.848 131.255 139.798 131.46 139.755C131.666 139.704 131.885 139.681 132.088 139.663L133.32 139.551L135.782 139.339C139.067 139.074 142.352 138.823 145.641 138.615C142.365 138.97 139.085 139.286 135.806 139.599L133.346 139.828L132.117 139.948C131.707 139.969 131.338 140.099 130.932 140.194C129.343 140.608 127.762 141.076 126.153 141.447Z" fill="#DBDBDB"/>
<path d="M139.487 137.792C141.245 137.661 142.407 137.635 144.165 137.524C140.889 137.88 139.881 137.919 136.602 138.233C136.602 138.233 137.959 137.907 139.487 137.792Z" fill="#DBDBDB"/>
<path d="M87.6474 136.977L109.06 154.039C109.06 154.039 121.076 151.375 123.325 151.02C125.575 150.665 133.552 151.1 133.552 151.1C133.552 151.1 143.363 147.82 147.551 147.2C151.738 146.581 157.894 146.283 157.894 146.283L159.899 147.083L134.655 152.108L107.437 157.526L84.9072 138.711L87.6474 136.977Z" fill="#EBEBEB"/>
<path d="M140.738 88.7427C146.772 94.6501 147.785 103.79 146.513 111.795C146.48 111.977 146.2 111.927 146.2 111.757C146.2 109.934 146.255 108.128 146.249 106.328C146.216 106.245 146.188 106.169 146.155 106.086C144.581 104.94 143.133 103.647 142.235 101.874C141.228 99.8915 140.831 97.6566 140.06 95.5864C139.989 95.3881 140.2 95.4465 140.338 95.5487C144.009 98.2557 145.179 101.169 146.232 105.062C146.183 103.041 146.029 101.02 145.594 99.0001C144.801 95.3055 143.232 91.6444 140.578 88.9025C140.479 88.7975 140.633 88.638 140.738 88.7427Z" fill="#263238"/>
<path d="M139.604 89.4315C138.566 89.4664 137.915 91.1257 137.106 91.6099C136.678 91.8676 136.261 91.8516 135.96 91.4298C135.159 90.3109 136.259 88.9303 137.293 88.1581C136.553 88.4621 135.94 88.9969 135.142 89.1482C134.659 89.2368 134.284 89.0577 134.171 88.5668C133.82 87.041 135.733 86.3625 137.046 86.3308C136.409 85.8883 134.585 84.6853 135.554 84.094C136.536 83.5006 138.677 85.2201 139.375 85.7865C140.401 86.6191 141.625 87.8634 141.671 89.1656C141.732 90.6857 140.403 89.7502 139.604 89.4315Z" fill="#1A6980"/>
<path opacity="0.1" d="M139.604 89.4315C138.566 89.4664 137.915 91.1257 137.106 91.6099C136.678 91.8676 136.261 91.8516 135.96 91.4298C135.159 90.3109 136.259 88.9303 137.293 88.1581C136.553 88.4621 135.94 88.9969 135.142 89.1482C134.659 89.2368 134.284 89.0577 134.171 88.5668C133.82 87.041 135.733 86.3625 137.046 86.3308C136.409 85.8883 134.585 84.6853 135.554 84.094C136.536 83.5006 138.677 85.2201 139.375 85.7865C140.401 86.6191 141.625 87.8634 141.671 89.1656C141.732 90.6857 140.403 89.7502 139.604 89.4315Z" fill="black"/>
<path d="M139.905 89.687C138.578 89.0836 136.028 89.9522 135.811 89.4499C135.371 88.4275 137.409 87.7262 138.509 87.5902C137.496 87.3157 135.555 86.8785 135.615 85.9017C135.688 84.7087 138.592 85.7347 140.061 86.8618C141.913 88.2815 141.901 89.6514 141.594 89.9259C141.175 90.3022 140.124 89.7867 139.905 89.687Z" fill="#1A6980"/>
<path d="M154.481 88.1582C148.227 93.8321 146.867 102.926 147.833 110.974C147.859 111.157 148.142 111.118 148.148 110.948C148.218 109.127 148.231 107.32 148.305 105.521C148.342 105.44 148.372 105.364 148.408 105.282C150.025 104.198 151.521 102.96 152.486 101.223C153.568 99.2803 154.049 97.0617 154.898 95.0226C154.977 94.8271 154.764 94.8773 154.621 94.9741C150.851 97.5395 149.571 100.406 148.37 104.256C148.496 102.239 148.727 100.226 149.239 98.223C150.171 94.5615 151.879 90.9624 154.635 88.3237C154.738 88.223 154.59 88.0578 154.481 88.1582Z" fill="#263238"/>
<path d="M155.588 88.8898C156.624 88.9642 157.211 90.647 158.001 91.1617C158.419 91.4355 158.836 91.4355 159.153 91.0254C159.997 89.9378 158.95 88.5163 157.946 87.7057C158.674 88.0375 159.266 88.5953 160.057 88.7769C160.537 88.8837 160.919 88.7192 161.05 88.2329C161.459 86.7217 159.573 85.9709 158.262 85.889C158.915 85.4711 160.784 84.3387 159.838 83.7107C158.879 83.0802 156.675 84.7171 155.956 85.2568C154.899 86.0496 153.628 87.2465 153.533 88.5462C153.414 90.0621 154.778 89.1778 155.588 88.8898Z" fill="#1A6980"/>
<path opacity="0.1" d="M155.588 88.8898C156.624 88.9642 157.211 90.647 158.001 91.1617C158.419 91.4355 158.836 91.4355 159.153 91.0254C159.997 89.9378 158.95 88.5163 157.946 87.7057C158.674 88.0375 159.266 88.5953 160.057 88.7769C160.537 88.8837 160.919 88.7192 161.05 88.2329C161.459 86.7217 159.573 85.9709 158.262 85.889C158.915 85.4711 160.784 84.3387 159.838 83.7107C158.879 83.0802 156.675 84.7171 155.956 85.2568C154.899 86.0496 153.628 87.2465 153.533 88.5462C153.414 90.0621 154.778 89.1778 155.588 88.8898Z" fill="black"/>
<path d="M155.278 89.134C156.627 88.5815 159.142 89.5463 159.378 89.0525C159.856 88.0475 157.846 87.2689 156.753 87.0913C157.775 86.8556 159.732 86.4925 159.709 85.5142C159.682 84.3195 156.741 85.234 155.229 86.3045C153.325 87.653 153.285 89.0222 153.58 89.3081C153.985 89.7004 155.055 89.2251 155.278 89.134Z" fill="#1A6980"/>
<path d="M148.085 103.143C147.623 106.133 147.051 109.225 146.143 112.114C146.056 112.377 145.665 112.31 145.706 112.026C146.116 109.261 146.866 106.547 147.276 103.783C147.694 100.986 147.917 98.1494 147.757 95.3203C147.493 90.6616 146.228 85.7061 143.188 82.0607C143.121 81.9742 143.264 81.8521 143.332 81.9325C149.418 89.029 148.45 97.7297 148.445 98.5089C149.306 95.5709 150.194 92.2035 153.453 89.212C153.594 89.0831 153.704 89.1444 153.68 89.3637C153.097 94.8126 151.583 97.6578 148.423 100.571C148.333 101.435 148.222 102.294 148.085 103.143Z" fill="#263238"/>
<path d="M143.133 82.8774C142.038 82.3911 140.528 83.7852 139.445 83.8802C138.871 83.9319 138.447 83.7058 138.347 83.1166C138.079 81.552 139.915 80.6734 141.376 80.3929C140.456 80.3359 139.55 80.5819 138.647 80.3377C138.101 80.1864 137.801 79.8115 137.932 79.2455C138.335 77.4854 140.662 77.7446 142.04 78.3722C141.603 77.5929 140.315 75.4263 141.619 75.3006C142.937 75.1789 144.292 78.0408 144.731 78.9799C145.377 80.3605 146.02 82.2672 145.413 83.6417C144.71 85.2498 143.802 83.6104 143.133 82.8774Z" fill="#1A6980"/>
<path opacity="0.1" d="M143.133 82.8774C142.038 82.3911 140.528 83.7852 139.445 83.8802C138.871 83.9319 138.447 83.7058 138.347 83.1166C138.079 81.552 139.915 80.6734 141.376 80.3929C140.456 80.3359 139.55 80.5819 138.647 80.3377C138.101 80.1864 137.801 79.8115 137.932 79.2455C138.335 77.4854 140.662 77.7446 142.04 78.3722C141.603 77.5929 140.315 75.4263 141.619 75.3006C142.937 75.1789 144.292 78.0408 144.731 78.9799C145.377 80.3605 146.02 82.2672 145.413 83.6417C144.71 85.2498 143.802 83.6104 143.133 82.8774Z" fill="black"/>
<path d="M143.316 83.2941C142.243 82 139.16 81.6173 139.188 80.9872C139.246 79.7052 141.714 80.0028 142.923 80.4158C142.01 79.6212 140.217 78.1908 140.77 77.2072C141.446 76.006 143.943 78.5322 144.9 80.4414C146.107 82.8469 145.405 84.262 144.949 84.3927C144.324 84.5714 143.493 83.5077 143.316 83.2941Z" fill="#1A6980"/>
<path d="M152.089 104.783L154.773 125.292H138.439C138.776 123.475 141.816 104.759 141.816 104.759L152.089 104.783Z" fill="#1A6980"/>
<path d="M16.2881 125.206L34.4658 125.12L52.6439 125.089L88.9997 125.029L125.355 125.088L143.533 125.119L161.711 125.206L143.533 125.294L125.355 125.325L88.9997 125.384L52.6439 125.324L34.4658 125.293L16.2881 125.206Z" fill="#263238"/>
<path d="M44.8601 58.3455C41.0634 65.8802 35.2363 74.2843 35.2285 83.0291C35.2321 89.8821 38.8846 96.1334 43.341 101.095C53.1503 112.001 69.9702 120.391 83.993 112.089C89.5926 108.771 94.7133 98.9252 90.6947 92.6785C88.6271 89.4762 85.3555 87.4823 82.4615 85.1127C78.6367 81.9992 76.5943 78.1512 76.3992 73.2003C76.0058 63.5527 79.3807 58.1297 82.4558 49.2635C83.0212 47.617 83.3505 45.8908 82.3861 43.8552C81.6787 41.8986 80.3017 40.1596 78.5854 38.7758C77.2301 37.3714 75.6658 36.2044 73.7876 35.5946C69.8321 34.2945 64.6437 36.1521 60.748 37.0107C56.8043 37.884 54.4141 39.5693 52.5209 43.1777C49.8939 48.1941 47.4137 53.2895 44.8601 58.3455Z" fill="#263238"/>
<path d="M42.2832 61.5438C46.2081 54.8617 50.2583 48.2675 54.2693 41.6398C54.2935 41.6 54.3598 41.6299 54.3363 41.6719C51.1949 47.2209 48.1323 52.8061 44.9169 58.316C41.7659 63.715 38.155 69.0508 35.4882 74.7073C29.5021 87.4054 40.3319 98.5262 51.5032 102.784C52.0112 102.978 51.6456 103.765 51.1373 103.553C41.4476 99.5059 31.4843 91.1064 33.2621 79.4008C34.2347 72.9981 39.0745 67.0063 42.2832 61.5438Z" fill="#263238"/>
<path d="M82.1403 48.3136C82.2047 48.178 82.4033 48.2755 82.3492 48.4129C79.5112 55.5999 75.5276 63.7131 76.7864 71.6455C77.4026 75.527 79.205 79.2034 81.9217 82.0489C84.0815 84.3113 86.8437 85.6634 89.3656 87.4469C99.2258 94.4213 92.7804 109.069 82.3695 111.238C82.1506 111.284 82.0637 110.909 82.2819 110.854C89.7889 108.928 95.2058 101.735 93.335 93.8314C91.8331 87.4882 84.2111 85.8677 80.4186 81.1062C72.5589 71.24 77.3357 58.4436 82.1403 48.3136Z" fill="#263238"/>
<path d="M65.6951 76.6738C71.3612 93.7483 81.0277 114.79 86.383 118.751C90.9711 122.144 108.22 126.627 115.703 126.16C117.901 126.023 116.518 105.862 114.181 105.579C110.434 105.125 96.5073 101.769 96.2299 101.701C95.6354 101.554 80.2381 80.1327 73.7379 74.1402C66.1358 67.1327 63.1604 69.0351 65.6951 76.6738Z" fill="#FFC4B0"/>
<path d="M115.262 110.972C115.262 110.972 127.691 117.835 128.181 118.381C128.667 118.939 127.917 119.656 127.35 120.244C127.215 120.388 126.699 120.618 126.041 120.938C123.932 121.941 120.247 123.796 121.968 126.195C124.233 129.348 132.522 125.191 133.715 124.338C134.033 124.105 134.438 123.527 134.81 122.739C135.809 120.618 136.594 117.005 134.983 114.672C132.774 111.471 129.111 109.291 126.066 107.172L115.262 110.972Z" fill="#FFC4B0"/>
<path d="M115.262 110.972C115.262 110.972 127.691 117.835 128.181 118.382C128.667 118.939 127.917 119.656 127.35 120.244C127.215 120.388 126.699 120.619 126.041 120.938C129.159 121.59 132.608 122.299 134.81 122.739C135.809 120.619 136.594 117.006 134.983 114.672C132.774 111.472 129.111 109.291 126.066 107.173L115.262 110.972Z" fill="#263238"/>
<path d="M100.703 124.11C101.523 124.248 108.312 126.524 113.427 128.245C116.92 125.966 124.408 122.242 126.386 121.247C128.398 119.764 133.545 117.74 133.653 117.96C133.858 118.371 134.581 119.825 135.599 121.518C136.948 123.754 138.803 126.415 140.641 127.656C141.645 128.332 142.63 128.586 143.536 128.14C145.161 127.337 143.551 123.705 142.02 119.236C139.943 113.146 137.06 105.779 133.833 104.523C129.064 102.666 121.563 104.454 119.27 104.728C116.97 104.996 107.377 104.37 107.377 104.37C98.0946 112.703 99.6094 123.916 100.703 124.11Z" fill="#FFC4B0"/>
<path d="M123.532 101.703C123.532 101.703 121.83 97.2491 124.961 96.3345C128.092 95.42 129.054 100.09 129.054 100.09L123.532 101.703Z" fill="#FF9BBC"/>
<path d="M129.005 99.9086L123.483 101.521L132.885 133.707L138.407 132.094L129.005 99.9086Z" fill="#1A6980"/>
<path opacity="0.1" d="M125.518 104.451L125.159 104.556L133.072 131.645L133.431 131.541L125.518 104.451Z" fill="black"/>
<path opacity="0.1" d="M126.756 104.086L126.397 104.191L134.311 131.28L134.669 131.175L126.756 104.086Z" fill="black"/>
<path opacity="0.1" d="M127.99 103.729L127.632 103.833L135.545 130.923L135.903 130.818L127.99 103.729Z" fill="black"/>
<path opacity="0.1" d="M129.229 103.363L128.87 103.468L136.783 130.557L137.142 130.452L129.229 103.363Z" fill="black"/>
<path d="M129.417 99.6L122.97 101.483L123.343 102.763L129.791 100.879L129.417 99.6Z" fill="#37474F"/>
<path d="M129.83 101.015L123.383 102.898L123.757 104.178L130.204 102.294L129.83 101.015Z" fill="#37474F"/>
<path d="M138.405 132.093L137.488 136.672L137.191 138.183L136.115 137.073L132.877 133.707L133.202 132.742C133.202 132.742 133.967 133.375 133.982 133.384L134.307 132.419C134.307 132.419 135.072 133.052 135.088 133.061L135.401 132.1C135.401 132.1 136.178 132.73 136.194 132.738L136.506 131.776C136.506 131.776 137.284 132.407 137.3 132.415L137.612 131.454C137.612 131.454 138.39 132.084 138.405 132.093Z" fill="#EBEBEB"/>
<path d="M137.488 136.672L137.191 138.183L136.115 137.073L137.488 136.672Z" fill="#37474F"/>
<path d="M113.427 128.245C115.173 128.838 116.72 129.383 117.761 129.783C121.86 131.36 124.649 130.906 127.495 129.99C130.327 129.064 138.726 132.218 137.01 127.619C135.286 123.015 125.507 123.468 125.599 122.159C125.618 121.912 125.914 121.593 126.386 121.247C124.408 122.242 116.919 125.966 113.427 128.245Z" fill="#FFC4B0"/>
<path d="M127.74 120.404C127.848 120.363 127.863 120.437 127.751 120.508C127.403 120.727 125.865 121.724 126.049 122.103C126.369 122.763 130.771 123.487 132.564 124.115C132.661 124.148 132.622 124.285 132.533 124.248C132.062 124.05 130.131 123.723 129.665 123.63C128.76 123.449 125.964 123.099 125.562 122.269C125.292 121.714 127.316 120.565 127.74 120.404Z" fill="#263238"/>
<path d="M91.2372 89.7191L71.251 94.376C71.251 94.376 65.4891 80.34 64.0872 72.4553C63.3015 68.037 65.9056 67.7212 69.314 69.9173C81.2432 77.6041 91.2372 89.7191 91.2372 89.7191Z" fill="#1A6980"/>
<path d="M86.2873 85.1444C86.152 85.2797 86.0274 85.3615 85.8815 85.4149C85.5824 85.5111 85.2798 85.4648 85.0413 85.269C84.6711 84.9913 84.1371 84.9699 83.7668 85.212C83.5746 85.3188 83.4286 85.5146 83.3503 85.6713C83.2649 85.8457 83.1688 86.0059 83.0976 86.1839C83.2542 86.07 83.3824 85.9383 83.5283 85.8137C83.6636 85.6713 83.7811 85.5894 83.9306 85.5253C84.2154 85.4185 84.5358 85.4577 84.7672 85.6392C85.109 85.9205 85.6572 85.9703 86.031 85.7389C86.2232 85.6392 86.3763 85.447 86.4653 85.2832C86.5436 85.1159 86.6469 84.9522 86.7181 84.7742C86.5614 84.8916 86.4262 85.0198 86.2873 85.1444ZM68.1028 73.61C67.9676 73.7453 67.843 73.8236 67.697 73.8805C67.398 73.9767 67.0954 73.9268 66.8568 73.7346C66.4866 73.4533 65.9526 73.4284 65.5824 73.6705C65.3901 73.7773 65.2442 73.9802 65.1658 74.1404C65.0804 74.3077 64.9843 74.4715 64.9131 74.6495C65.0697 74.532 65.1979 74.3967 65.3438 74.2721C65.4791 74.1333 65.593 74.0479 65.7461 73.9909C66.0309 73.8841 66.3513 73.9268 66.5756 74.1048C66.9245 74.3789 67.4656 74.4359 67.8465 74.2009C68.0388 74.0977 68.1918 73.9126 68.2773 73.7453C68.3592 73.5779 68.4553 73.4177 68.53 73.2397C68.377 73.3501 68.2417 73.4854 68.1028 73.61ZM72.8946 86.0166C72.8341 85.8386 72.7878 85.6535 72.713 85.479C72.6881 85.6713 72.6881 85.8564 72.6703 86.0451C72.6739 86.2444 72.6525 86.3833 72.592 86.5292C72.4603 86.8105 72.2075 87.0098 71.9227 87.0419C71.4777 87.0917 71.0541 87.437 70.9544 87.8678C70.8868 88.0778 70.9152 88.3199 70.9722 88.4943C71.0327 88.6723 71.079 88.8575 71.1502 89.0319C71.1787 88.8432 71.1787 88.6581 71.1965 88.4659C71.1894 88.2736 71.225 88.1348 71.2926 87.9853C71.4314 87.7111 71.6842 87.5331 71.9832 87.4975C72.446 87.437 72.8376 87.0775 72.9266 86.636C72.9907 86.4295 72.9516 86.1875 72.8946 86.0166ZM77.9676 78.2344C77.7789 78.2344 77.633 78.206 77.4906 78.1383C77.2164 77.9995 77.0278 77.7431 77.0028 77.4405C76.9388 76.9849 76.5756 76.5933 76.1413 76.4971C75.9313 76.4402 75.6856 76.4793 75.5219 76.5363C75.3439 76.5968 75.1552 76.6431 74.9772 76.7143C75.173 76.7428 75.3581 76.7428 75.5504 76.7535C75.7462 76.7535 75.8886 76.7784 76.0345 76.8389C76.3086 76.9635 76.5116 77.2234 76.5472 77.5082C76.5899 77.9532 76.9388 78.3733 77.3731 78.4765C77.5796 78.5441 77.8181 78.5157 77.9961 78.4587C78.1776 78.3982 78.3556 78.3519 78.5372 78.2736C78.345 78.2451 78.1598 78.2522 77.9676 78.2344Z" fill="white"/>
<path d="M71.2153 91.0668C74.2306 90.096 82.4863 87.6983 88.0548 86.8415C88.0883 86.8365 88.1225 86.9611 88.0904 86.9714C83.5653 88.3829 74.3545 90.5467 71.2662 91.2526C71.2086 91.2658 71.1587 91.0853 71.2153 91.0668Z" fill="#263238"/>
<path opacity="0.1" d="M88.5608 90.3438L71.2492 94.3752C71.2492 94.3752 65.4912 80.3392 64.089 72.4573C63.5838 69.6293 64.4724 68.4819 66.0698 68.5972L88.5608 90.3438Z" fill="black"/>
<path d="M82.6385 125.045H31.4531C31.4531 125.045 37.1292 89.9467 53.6177 71.1702C58.0659 66.1047 65.1136 66.994 68.9307 70.4223C69.883 71.2792 71.1991 72.7843 72.6434 74.6391C76.1105 79.0944 81.7734 89.7919 82.3024 92.6851C83.1767 97.4672 78.9442 102.635 78.9442 102.635L82.6385 125.045Z" fill="#1A6980"/>
<path d="M82.823 92.4253C82.3488 90.452 81.2544 88.651 80.29 86.8867C79.2722 85.0244 78.2039 83.1921 77.1074 81.3754C77.0686 81.311 77.0291 81.2466 76.9899 81.1821C76.8073 80.6004 76.546 80.0326 76.3249 79.4715C76.0412 78.7506 75.7371 78.0372 75.4573 77.3145C75.4474 77.2893 75.4082 77.3003 75.4164 77.327C75.6453 78.0796 75.8735 78.8314 76.148 79.5691C76.2185 79.7585 76.2886 79.9521 76.3609 80.1462C75.9906 79.5399 75.6175 78.9358 75.2348 78.3377C74.5837 77.3199 73.8966 76.3252 73.2441 75.3081C73.2281 75.2828 73.1896 75.3067 73.2046 75.3327C74.2501 77.118 75.254 78.9276 76.2971 80.715C77.3391 82.5007 78.3602 84.3014 79.3352 86.1245C79.8187 87.0291 80.2879 87.9404 80.7407 88.8607C81.1701 89.7336 81.598 90.6072 81.9155 91.5285C82.5396 93.3384 82.5221 95.1864 81.9533 97.0084C81.3235 99.0255 80.2017 100.858 79.133 102.665C79.09 102.739 79.2024 102.825 79.2558 102.755C81.4944 99.8105 83.7521 96.2929 82.823 92.4253Z" fill="#263238"/>
<path d="M65.2086 121.225C65.0804 121.36 64.9558 121.439 64.8063 121.489C64.5108 121.588 64.2047 121.538 63.9661 121.346C63.603 121.065 63.0655 121.044 62.6917 121.286C62.503 121.392 62.357 121.595 62.2787 121.752C62.1968 121.923 62.1007 122.083 62.0259 122.265C62.179 122.147 62.3143 122.012 62.4603 121.887C62.5955 121.748 62.7059 121.663 62.859 121.606C63.1473 121.492 63.4677 121.538 63.692 121.713C64.0409 121.994 64.5785 122.051 64.9629 121.816C65.1552 121.713 65.3047 121.528 65.3901 121.36C65.4756 121.19 65.5717 121.026 65.6429 120.851C65.4898 120.965 65.3545 121.101 65.2086 121.225ZM72.8768 104.814C72.7487 104.949 72.6241 105.034 72.471 105.084C72.1791 105.18 71.8693 105.127 71.6344 104.938C71.2677 104.66 70.7337 104.639 70.3563 104.881C70.1712 104.988 70.0253 105.184 69.9469 105.344C69.8615 105.518 69.7654 105.675 69.6942 105.853C69.8437 105.743 69.979 105.607 70.1214 105.483C70.2602 105.344 70.3741 105.259 70.5237 105.194C70.812 105.088 71.1324 105.127 71.3567 105.308C71.7056 105.59 72.2467 105.639 72.6276 105.408C72.8199 105.308 72.9729 105.116 73.0548 104.956C73.1403 104.785 73.2364 104.621 73.3111 104.443C73.1509 104.561 73.0228 104.689 72.8768 104.814ZM48.8468 110.599C48.7115 110.734 48.5905 110.819 48.441 110.869C48.1455 110.965 47.8393 110.919 47.6044 110.723C47.2341 110.445 46.7001 110.424 46.3263 110.666C46.1377 110.773 45.9917 110.969 45.9098 111.129C45.8279 111.303 45.7318 111.46 45.6571 111.638C45.8173 111.528 45.9454 111.392 46.0914 111.268C46.2338 111.129 46.3441 111.044 46.4901 110.979C46.7785 110.873 47.1024 110.915 47.3303 111.093C47.672 111.375 48.2167 111.424 48.5941 111.197C48.7899 111.093 48.9394 110.901 49.0284 110.741C49.1067 110.57 49.2064 110.406 49.2811 110.228C49.1245 110.346 48.9892 110.474 48.8468 110.599ZM56.4688 89.3489C56.3335 89.4842 56.2089 89.566 56.0629 89.6194C55.771 89.7156 55.4613 89.6693 55.2263 89.4735C54.8561 89.1958 54.3221 89.1744 53.9483 89.4165C53.7596 89.5233 53.6101 89.7191 53.5318 89.8758C53.4499 90.0502 53.3538 90.2104 53.279 90.3884C53.4392 90.278 53.5674 90.1428 53.7133 90.0182C53.8522 89.8758 53.9661 89.7939 54.1121 89.7298C54.4004 89.623 54.7244 89.6622 54.9522 89.8437C55.294 90.125 55.8387 90.1748 56.216 89.9434C56.4118 89.8437 56.5578 89.6515 56.6503 89.4877C56.7287 89.3204 56.8283 89.1566 56.9031 88.9786C56.7465 89.0961 56.6112 89.2243 56.4688 89.3489ZM53.1509 74.315C53.0156 74.4467 52.891 74.5322 52.745 74.582C52.446 74.6781 52.1434 74.6354 51.9084 74.436C51.6841 74.2723 51.4029 74.1975 51.1359 74.2224C51.0149 74.3791 50.8974 74.5393 50.7835 74.6995C50.787 74.6995 50.7906 74.6959 50.7941 74.6959C51.0789 74.5891 51.4029 74.6283 51.6307 74.8098C51.9761 75.0911 52.5207 75.1409 52.8981 74.9095C53.0903 74.8098 53.2399 74.6176 53.3289 74.4538C53.4107 74.2865 53.5104 74.1228 53.5852 73.9412C53.425 74.0587 53.2897 74.1904 53.1509 74.315ZM68.1029 73.6101C67.9676 73.7454 67.843 73.8237 67.697 73.8807C67.398 73.9768 67.0954 73.927 66.8569 73.7347C66.4866 73.4535 65.9526 73.4286 65.5824 73.6706C65.3901 73.7774 65.2442 73.9804 65.1659 74.1406C65.0804 74.3079 64.9843 74.4716 64.9131 74.6496C65.0697 74.5322 65.1979 74.3969 65.3439 74.2723C65.4791 74.1334 65.5931 74.048 65.7461 73.991C66.0309 73.8842 66.3513 73.927 66.5756 74.105C66.9245 74.3791 67.4656 74.436 67.8465 74.2011C68.0388 74.0978 68.1919 73.9127 68.2773 73.7454C68.3592 73.5781 68.4553 73.4179 68.5301 73.2399C68.377 73.3502 68.2417 73.4855 68.1029 73.6101ZM52.7272 120.161C52.6667 119.979 52.6204 119.794 52.5492 119.62C52.5207 119.812 52.5207 119.997 52.5029 120.189C52.5101 120.385 52.4851 120.527 52.4246 120.673C52.2965 120.947 52.0437 121.15 51.7553 121.186C51.3103 121.229 50.8903 121.578 50.787 122.012C50.7194 122.218 50.7479 122.457 50.8048 122.635C50.8653 122.816 50.9116 122.994 50.9864 123.176C51.0149 122.984 51.0149 122.799 51.0291 122.606C51.0291 122.418 51.0576 122.275 51.1252 122.129C51.2676 121.855 51.5204 121.674 51.823 121.642C52.2787 121.578 52.6738 121.211 52.7664 120.78C52.8233 120.57 52.7842 120.324 52.7272 120.161ZM47.1558 82.4638C47.0917 82.2823 47.049 82.0972 46.9707 81.9227C46.9422 82.115 46.9458 82.3001 46.928 82.4923C46.9351 82.6881 46.9137 82.8305 46.8461 82.9765C46.7215 83.2506 46.4616 83.4535 46.1768 83.4856C45.7389 83.5318 45.3153 83.8807 45.2085 84.315C45.148 84.5215 45.1693 84.76 45.2299 84.938C45.2939 85.1196 45.3367 85.2976 45.4114 85.4792C45.4399 85.2869 45.4399 85.1018 45.4577 84.9096C45.4506 84.7209 45.4826 84.5785 45.5503 84.4325C45.6855 84.1584 45.9383 83.9768 46.2445 83.9412C46.7037 83.8807 47.0989 83.514 47.1879 83.0833C47.2448 82.8732 47.2057 82.6276 47.1558 82.4638ZM72.8946 86.0167C72.8341 85.8387 72.7878 85.6536 72.7131 85.4792C72.6881 85.6714 72.6881 85.8565 72.6703 86.0452C72.6739 86.2446 72.6525 86.3834 72.592 86.5294C72.4603 86.8106 72.2075 87.01 71.9227 87.042C71.4777 87.0918 71.0541 87.4372 70.9544 87.8679C70.8868 88.078 70.9153 88.32 70.9722 88.4945C71.0327 88.6725 71.079 88.8576 71.1502 89.032C71.1787 88.8434 71.1787 88.6582 71.1965 88.466C71.1894 88.2738 71.225 88.1349 71.2926 87.9854C71.4314 87.7113 71.6842 87.5333 71.9833 87.4977C72.4461 87.4372 72.8377 87.0776 72.9267 86.6362C72.9907 86.4297 72.9516 86.1876 72.8946 86.0167ZM39.7368 103.461C39.6727 103.279 39.63 103.101 39.5552 102.92C39.5267 103.112 39.5267 103.297 39.5089 103.489C39.5161 103.685 39.4947 103.827 39.4306 103.973C39.3025 104.255 39.0426 104.45 38.7613 104.486C38.4872 104.518 38.2238 104.66 38.0315 104.867C37.9461 105.177 37.8642 105.486 37.7788 105.796V105.8C37.7823 105.853 37.8001 105.892 37.8108 105.935C37.8749 106.116 37.9176 106.302 37.9924 106.476C38.0209 106.284 38.0209 106.099 38.0387 105.906C38.0315 105.718 38.0636 105.575 38.1312 105.437C38.2736 105.155 38.5193 104.974 38.8254 104.942C39.2847 104.878 39.6798 104.518 39.7688 104.08C39.8329 103.87 39.7902 103.628 39.7368 103.461ZM82.2111 122.446C81.8872 122.578 81.6202 122.859 81.5383 123.194C81.4778 123.407 81.4991 123.642 81.5561 123.824C81.6166 124.002 81.6629 124.183 81.7412 124.361C81.7697 124.173 81.7697 123.981 81.7804 123.795C81.7804 123.603 81.8089 123.457 81.8765 123.315C81.9691 123.133 82.1115 122.991 82.2859 122.909L82.2111 122.446ZM57.5154 100.036C57.4549 99.8544 57.4086 99.6764 57.3303 99.4949C57.3018 99.6871 57.3089 99.8793 57.2911 100.064C57.2947 100.267 57.2733 100.403 57.2057 100.552C57.0811 100.83 56.8248 101.029 56.5364 101.065C56.0985 101.111 55.6749 101.453 55.5681 101.887C55.5076 102.101 55.5289 102.336 55.593 102.517C55.6535 102.695 55.6998 102.877 55.771 103.055C55.7995 102.866 55.7995 102.674 55.8173 102.489C55.8102 102.297 55.8458 102.151 55.9134 102.008C56.0487 101.734 56.3015 101.549 56.6041 101.521C57.0669 101.46 57.4585 101.093 57.5475 100.659C57.6044 100.453 57.5653 100.203 57.5154 100.036ZM57.1025 68.5442C57.1096 68.5834 57.1203 68.619 57.1345 68.6546C57.195 68.8362 57.2413 69.0142 57.3125 69.1957C57.341 69.0035 57.341 68.8184 57.3517 68.6261C57.3517 68.5549 57.3552 68.4873 57.3695 68.4268C57.2805 68.4659 57.1915 68.5051 57.1025 68.5442ZM66.3834 96.2481C66.1947 96.2481 66.0452 96.2197 65.9063 96.152C65.6322 96.0096 65.4435 95.7569 65.4186 95.4543C65.3545 94.9986 64.9879 94.6034 64.5571 94.5109C64.3435 94.4539 64.1014 94.4931 63.9305 94.55C63.7525 94.6106 63.571 94.6568 63.393 94.728C63.5817 94.7565 63.7739 94.7565 63.959 94.7672C64.1619 94.7672 64.2972 94.7921 64.4432 94.8526C64.7244 94.9772 64.9273 95.2336 64.9558 95.5219C65.0057 95.9669 65.351 96.3834 65.7817 96.4902C65.9918 96.5508 66.2339 96.5294 66.4119 96.4724C66.5934 96.4119 66.7714 96.3656 66.953 96.2873C66.7607 96.2588 66.5685 96.2659 66.3834 96.2481ZM80.2496 96.2481C80.0573 96.2481 79.9114 96.2197 79.7725 96.152C79.4949 96.0096 79.3097 95.7569 79.2813 95.4543C79.2207 94.9986 78.854 94.6034 78.4233 94.5109C78.2097 94.4539 77.9676 94.4931 77.7967 94.55C77.6187 94.6106 77.4372 94.6568 77.2592 94.728C77.4479 94.7565 77.6401 94.7565 77.8252 94.7672C78.0281 94.7672 78.1634 94.7921 78.3094 94.8526C78.5906 94.9772 78.7935 95.2336 78.822 95.5219C78.8719 95.9669 79.2136 96.3834 79.6479 96.4902C79.858 96.5508 80.1001 96.5294 80.2781 96.4724C80.4596 96.4119 80.6376 96.3656 80.8192 96.2873C80.6269 96.2588 80.4347 96.2659 80.2496 96.2481ZM40.6232 118.473C40.4345 118.473 40.285 118.445 40.1462 118.377C39.8721 118.238 39.6834 117.986 39.6585 117.679C39.5944 117.224 39.2277 116.832 38.7969 116.736C38.5833 116.679 38.3413 116.718 38.1704 116.775C37.9924 116.836 37.8108 116.882 37.6328 116.953C37.8215 116.982 38.0137 116.982 38.1989 116.992C38.4018 116.992 38.5371 117.017 38.683 117.078C38.9643 117.202 39.1672 117.462 39.2028 117.747C39.2455 118.192 39.5908 118.609 40.0216 118.715C40.2316 118.776 40.4737 118.754 40.6517 118.698C40.8333 118.637 41.0113 118.591 41.1928 118.512C41.0006 118.484 40.8083 118.484 40.6232 118.473ZM61.2783 111.987C61.0897 111.987 60.9437 111.958 60.8013 111.891C60.5272 111.748 60.3385 111.496 60.3136 111.193C60.2495 110.737 59.8864 110.339 59.4521 110.246C59.242 110.193 58.9964 110.232 58.8255 110.289C58.6475 110.342 58.4659 110.388 58.2879 110.467C58.4802 110.495 58.6689 110.495 58.854 110.506C59.0569 110.506 59.1993 110.524 59.3453 110.591C59.6194 110.716 59.8223 110.972 59.8579 111.261C59.9006 111.699 60.2459 112.122 60.6838 112.229C60.8903 112.29 61.1288 112.268 61.3068 112.211C61.4884 112.151 61.6664 112.104 61.8479 112.026C61.6557 111.998 61.4635 111.998 61.2783 111.987ZM47.0633 98.5728C46.8746 98.58 46.7322 98.5444 46.5862 98.4767C46.3121 98.3414 46.1305 98.0887 46.0985 97.7861C46.0344 97.3233 45.6713 96.9317 45.237 96.8391C45.0269 96.7786 44.7813 96.8178 44.6175 96.8747C44.4395 96.9352 44.2509 96.9815 44.0764 97.0527C44.2687 97.0883 44.4538 97.0812 44.646 97.099C44.8418 97.0919 44.9842 97.1168 45.1302 97.1844C45.4043 97.309 45.6072 97.5654 45.6428 97.8466C45.6855 98.2916 46.0344 98.7152 46.4687 98.822C46.6752 98.8826 46.9137 98.8541 47.0917 98.7971C47.2733 98.7366 47.4513 98.6903 47.6329 98.6191C47.4406 98.5906 47.2555 98.5906 47.0633 98.5728ZM74.4859 116.74C74.2937 116.74 74.1549 116.711 74.0125 116.64C73.7312 116.505 73.5532 116.252 73.5176 115.949C73.4571 115.486 73.0975 115.091 72.6561 115.002C72.4496 114.945 72.2075 114.984 72.0402 115.038C71.8587 115.098 71.6771 115.145 71.4991 115.223C71.6913 115.251 71.8764 115.251 72.0651 115.262C72.2645 115.262 72.4033 115.28 72.5493 115.348C72.8305 115.469 73.0299 115.728 73.0619 116.017C73.1118 116.455 73.4571 116.875 73.8879 116.982C74.0979 117.046 74.34 117.021 74.5144 116.96C74.6924 116.903 74.8775 116.853 75.052 116.779C74.8633 116.754 74.6782 116.754 74.4859 116.74ZM63.2399 83.247C63.0477 83.247 62.9017 83.2186 62.7593 83.1509C62.4852 83.0121 62.3001 82.7593 62.2716 82.4532C62.2075 81.9975 61.8444 81.6059 61.4101 81.5098C61.2036 81.4528 60.9544 81.492 60.7906 81.5489C60.6126 81.6094 60.4275 81.6557 60.2459 81.7269C60.4417 81.7554 60.6304 81.7554 60.8191 81.7661C61.0185 81.7661 61.1573 81.791 61.3033 81.8515C61.5809 81.9761 61.7803 82.236 61.8159 82.5208C61.8622 82.9658 62.2075 83.3894 62.6418 83.4891C62.8519 83.5568 63.0868 83.5283 63.2684 83.4713C63.4464 83.4108 63.6279 83.3645 63.8059 83.2862C63.6137 83.2577 63.4286 83.2648 63.2399 83.247Z" fill="white"/>
<path d="M63.5259 101.361C65.7175 101.191 67.93 101.094 70.1255 101.25C71.2177 101.328 72.2989 101.456 73.3832 101.607C73.9236 101.682 74.4633 101.739 75.0059 101.794C75.563 101.849 76.1568 101.888 76.7133 101.805C76.7635 101.797 76.7752 101.872 76.7261 101.882C76.1907 101.995 75.678 102.101 75.1308 102.142C74.6111 102.181 74.0838 102.164 73.5634 102.132C72.4548 102.063 71.3501 101.944 70.2422 101.864C68.0073 101.703 65.7734 101.543 63.5316 101.544C63.4284 101.544 63.4224 101.369 63.5259 101.361Z" fill="#263238"/>
<path d="M58.5391 104.242C60.2753 103.74 62.0624 103.314 63.8456 103.012C64.7427 102.86 65.6409 102.761 66.5473 102.686C66.9798 102.649 67.4131 102.621 67.8467 102.598C68.3237 102.572 68.8047 102.611 69.281 102.579C69.3305 102.576 69.3447 102.652 69.2938 102.656C68.8456 102.7 68.4027 102.819 67.9574 102.889C67.5103 102.959 67.0624 103.026 66.6153 103.096C65.7196 103.236 64.8264 103.387 63.9293 103.518C62.1336 103.782 60.349 104.063 58.5633 104.389C58.4668 104.407 58.4493 104.268 58.5391 104.242Z" fill="#263238"/>
<path d="M51.3481 72.1699C36.1098 85.6971 17.4302 114.99 20.3697 121.384C23.6438 128.506 44.2936 109.235 43.7425 108.18C43.2743 107.285 51.7948 89.3771 57.9925 76.2784C64.1844 63.1919 55.1163 68.8249 51.3481 72.1699Z" fill="#FFC4B0"/>
<path d="M32.709 88.3577L52.535 93.6546C52.535 93.6546 58.7447 79.8112 60.3997 71.9753C61.3271 67.5844 58.7344 67.1853 55.2573 69.2708C43.0875 76.5698 32.709 88.3577 32.709 88.3577Z" fill="#1A6980"/>
<path d="M36.4411 88C36.2488 88 36.1029 87.9715 35.964 87.9039C35.6863 87.7615 35.5012 87.5087 35.4727 87.2061C35.4122 86.7611 35.0633 86.3767 34.6468 86.2699C34.5507 86.3695 34.4581 86.4657 34.3691 86.5582C34.4154 86.5689 34.4617 86.5831 34.508 86.6045C34.7821 86.7255 34.985 86.9854 35.0171 87.2738C35.0633 87.7188 35.4122 88.1389 35.8465 88.2385C36.053 88.3062 36.288 88.2813 36.4695 88.2243C36.6511 88.1602 36.8291 88.1175 37.0107 88.0392C36.8184 88.0107 36.6333 88.0143 36.4411 88ZM57.0784 68.3773C57.0855 68.477 57.1033 68.5695 57.1353 68.655C57.1959 68.8365 57.2421 69.0145 57.3133 69.1961C57.3418 69.0039 57.3418 68.8187 57.3525 68.6265C57.3525 68.4877 57.3667 68.3737 57.4059 68.2705C57.2991 68.3025 57.1887 68.3381 57.0784 68.3773ZM47.1567 82.4642C47.0926 82.2827 47.0499 82.0975 46.9715 81.9231C46.9431 82.1153 46.9466 82.3005 46.9288 82.4927C46.9359 82.6885 46.9146 82.8309 46.8469 82.9769C46.7223 83.251 46.4625 83.4539 46.1777 83.4859C45.7398 83.5322 45.3161 83.8811 45.2093 84.3154C45.1488 84.5219 45.1702 84.7604 45.2307 84.9384C45.2948 85.12 45.3375 85.298 45.4123 85.4795C45.4407 85.2873 45.4407 85.1022 45.4585 84.9099C45.4514 84.7213 45.4835 84.5789 45.5511 84.4329C45.6864 84.1588 45.9391 83.9772 46.2453 83.9416C46.7045 83.8811 47.0997 83.5144 47.1887 83.0837C47.2457 82.8736 47.2065 82.628 47.1567 82.4642ZM53.1517 74.3154C53.0164 74.4471 52.8918 74.5325 52.7459 74.5824C52.4468 74.6785 52.1442 74.6358 51.9093 74.4364C51.5355 74.1623 51.0015 74.1409 50.6312 74.3795C50.439 74.4898 50.293 74.6856 50.2147 74.8423C50.1293 75.0167 50.0367 75.1733 49.9619 75.3549C50.1186 75.241 50.2503 75.1057 50.3963 74.9847C50.5315 74.8423 50.649 74.7568 50.795 74.6963C51.0798 74.5895 51.4037 74.6287 51.6316 74.8102C51.9769 75.0915 52.5216 75.1413 52.8989 74.9099C53.0912 74.8102 53.2407 74.618 53.3297 74.4542C53.4116 74.2869 53.5113 74.1231 53.586 73.9416C53.4258 74.0591 53.2905 74.1908 53.1517 74.3154ZM53.9491 89.4169C53.7605 89.5237 53.6109 89.7195 53.5326 89.8761C53.4507 90.0506 53.3546 90.2108 53.2799 90.3888C53.4401 90.2784 53.5682 90.1431 53.7142 90.0185C53.853 89.8761 53.9669 89.7943 54.1129 89.7302C54.1521 89.7159 54.1948 89.7017 54.2375 89.6946C54.3016 89.5522 54.3621 89.4062 54.4191 89.2567C54.2517 89.2745 54.0915 89.3279 53.9491 89.4169Z" fill="white"/>
<path d="M52.7857 90.1498C49.8032 89.0825 41.629 86.4211 36.0908 85.3855C36.0576 85.3794 36.0192 85.5029 36.0509 85.514C40.5283 87.0704 49.665 89.529 52.7288 90.3335C52.7864 90.3492 52.842 90.1705 52.7857 90.1498Z" fill="#263238"/>
<path d="M50.1191 93.0082C50.9529 93.1186 51.7756 93.2685 52.5948 93.4329L52.3278 93.5593L52.8311 92.2628L53.3559 90.9758C53.7169 90.1229 54.0782 89.2706 54.4549 88.4251C54.8283 87.5782 55.2131 86.7366 55.6023 85.8964C55.9946 85.0566 56.3911 84.2229 56.7731 83.3706C56.6254 84.2962 56.3477 85.193 56.0619 86.0787C55.7635 86.9612 55.4381 87.8327 55.0882 88.6939C54.7393 89.555 54.3644 90.4052 53.98 91.2503L53.3797 92.5073C53.1683 92.9214 52.7076 93.8117 52.7076 93.8117C52.7076 93.8117 50.8966 93.3286 50.1191 93.0082Z" fill="#263238"/>
<path d="M56.7731 85.8574C56.5406 86.4331 56.2391 86.9657 55.9208 87.4883C55.5958 88.0066 55.2533 88.5143 54.8418 88.9788C55.0739 88.4032 55.3754 87.8702 55.6941 87.348C56.0194 86.83 56.3619 86.3224 56.7731 85.8574Z" fill="#263238"/>
<path d="M20.3699 121.384C23.2787 126.194 31.9698 127.65 53.5081 133.371C56.4885 134.163 67.7339 114.633 64.5947 113.624C60.6406 112.353 45.0204 108.277 43.8406 108.124C33.8886 106.827 18.3965 118.121 20.3699 121.384Z" fill="#FFC4B0"/>
<path d="M54.6241 110.873C54.6241 110.873 63.8381 110.012 68.8189 111.058C75.4886 112.459 80.6698 116.415 82.7414 118.203C87.065 121.937 94.9376 133.954 91.8721 136.825C89.0971 139.424 81.6705 126.735 81.6705 126.735C81.6705 126.735 91.3776 138.423 87.4609 140.939C83.5442 143.454 75.7613 128.233 75.7613 128.233C75.7613 128.233 85.4655 140.466 81.0162 142.421C77.6538 143.898 69.8278 130.509 69.8278 130.509C69.8278 130.509 78.0963 141.082 74.7036 142.75C70.9549 144.594 62.9556 132.688 62.9556 132.688C53.6188 135.477 48.0321 132.985 44.2692 130.74C43.3585 130.196 54.6241 110.873 54.6241 110.873Z" fill="#FFC4B0"/>
<path d="M78.572 122.476C79.7618 123.808 80.9754 125.148 82.043 126.581C83.1107 128.014 84.1288 129.485 85.058 131.011C87.3371 134.754 88.179 137.454 88.1089 137.293C86.4496 133.483 82.7077 128.294 81.6397 126.86C80.5745 125.43 79.5809 123.946 78.5161 122.515C78.4891 122.479 78.5435 122.445 78.572 122.476Z" fill="#263238"/>
<path d="M73.3273 126.237C74.773 128.003 76.2732 129.704 77.6413 131.535C79.0026 133.356 80.1351 135.204 81.3675 137.115C81.4626 137.262 81.3522 137.264 81.2508 137.12C79.9428 135.26 78.5904 133.641 77.2607 131.797C75.9357 129.959 74.6726 128.056 73.2817 126.268C73.261 126.24 73.3056 126.21 73.3273 126.237Z" fill="#263238"/>
<path d="M68.2465 128.655C70.5943 131.241 72.4622 134.257 74.2233 137.26C74.3109 137.41 74.1682 137.397 74.0696 137.25C72.1365 134.352 70.6409 132.065 68.1557 128.737C68.1172 128.684 68.1966 128.6 68.2465 128.655Z" fill="#263238"/>
<path d="M33.9896 109.771C35.5208 108.972 39.8152 107.152 43.8138 108.087C43.8583 108.098 43.8526 108.163 43.8063 108.158C40.472 107.865 35.5646 109.18 34.0174 109.833C33.9768 109.85 33.9512 109.792 33.9896 109.771Z" fill="#263238"/>
<path d="M62.0137 66.7832C56.9265 66.7935 57.2497 72.5226 58.6043 75.7377C59.7741 78.5138 63.7122 82.0837 65.672 81.8719C67.6321 81.6601 66.7688 76.9609 66.7688 76.9609C66.7688 76.9609 69.6143 80.6565 70.8607 80.2414C72.107 79.8267 71.4096 75.7316 69.295 72.2848C67.1803 68.8384 64.8315 66.7775 62.0137 66.7832Z" fill="white"/>
<path d="M59.1939 69.4186C59.2968 70.2851 62.713 76.2164 66.592 76.4678C67.8554 76.5475 68.598 69.6699 68.598 69.6699L68.7693 69.1747L71.1555 62.2416L63.4025 55.9465L62.2747 55.1021C62.2747 55.1021 61.7468 57.0419 61.1138 59.4641C61.0839 59.5763 61.0537 59.6884 61.0234 59.8091C60.9842 59.9451 60.9451 60.0732 60.9145 60.2018C60.8151 60.5624 60.7155 60.9308 60.6236 61.3004C60.5528 61.5812 60.4823 61.8539 60.4186 62.1512C60.347 62.4481 60.2836 62.7375 60.2121 63.0344C59.5691 65.9764 59.1551 69.0512 59.1939 69.4186Z" fill="#FFC4B0"/>
<path d="M61.1143 59.4646C62.5176 65.3521 66.7804 68.1656 68.7693 69.1752L71.1556 62.2421L63.4026 55.947L62.2748 55.1025C62.2748 55.1025 61.7472 57.0427 61.1143 59.4646Z" fill="#263238"/>
<path d="M83.3339 55.2995C81.3503 68.014 73.5108 68.2615 70.7696 67.8307C68.2812 67.4395 59.8575 65.7919 60.5172 52.9403C61.1765 40.089 67.7151 36.9918 73.4538 37.5853C79.1926 38.1784 85.3175 42.5846 83.3339 55.2995Z" fill="#FFC4B0"/>
<path d="M81.3341 51.9506C81.0458 51.8545 80.7955 51.7177 80.5203 51.5935C80.2095 51.4529 79.9475 51.3731 79.7599 51.0709C79.6591 50.9086 79.7264 50.6366 79.8745 50.5241C80.2198 50.2617 80.6431 50.3393 81.024 50.4931C81.4374 50.6601 81.7133 50.8947 81.9283 51.2845C82.1362 51.6619 81.7143 52.0773 81.3341 51.9506Z" fill="#263238"/>
<path d="M73.3335 50.344C73.6364 50.3714 73.9202 50.3462 74.2224 50.3422C74.5635 50.338 74.8355 50.3693 75.1284 50.1674C75.2854 50.0592 75.3328 49.7826 75.2416 49.6203C75.0302 49.2415 74.6112 49.1432 74.2007 49.1318C73.755 49.1194 73.4082 49.224 73.0554 49.4953C72.7137 49.7584 72.9341 50.3081 73.3335 50.344Z" fill="#263238"/>
<path d="M74.3472 53.8727C74.3469 53.8385 74.2725 53.9011 74.2668 53.9367C74.1351 54.8033 73.8385 55.7737 73.0062 55.9161C72.9802 55.9204 72.9748 55.9642 73.0044 55.9656C73.9805 56.0069 74.3615 54.7146 74.3472 53.8727Z" fill="#263238"/>
<path d="M73.7442 52.8308C72.3775 52.4698 71.7563 55.2292 73.0226 55.5635C74.2682 55.8928 74.8894 53.1334 73.7442 52.8308Z" fill="#263238"/>
<path d="M73.1698 52.8548C72.8935 52.9566 72.5955 53.1791 72.2986 53.1424C71.9547 53.1 71.7661 52.7537 71.6087 52.4265C71.5923 52.3927 71.5631 52.4112 71.5542 52.4475C71.4271 52.9744 71.5087 53.5628 72.0576 53.7693C72.5585 53.9576 73.0352 53.5732 73.2869 53.0712C73.3335 52.9786 73.2808 52.8138 73.1698 52.8548Z" fill="#263238"/>
<path d="M79.2362 54.5886C79.2505 54.5576 79.2936 54.6445 79.2843 54.6794C79.0582 55.5263 78.9418 56.5345 79.6474 56.9976C79.6695 57.0119 79.657 57.0542 79.6293 57.0436C78.7183 56.6915 78.8863 55.3547 79.2362 54.5886Z" fill="#263238"/>
<path d="M80.2066 53.8752C81.6032 54.0913 81.0684 56.8688 79.7744 56.6687C78.501 56.4715 79.0357 53.694 80.2066 53.8752Z" fill="#263238"/>
<path d="M80.7499 54.1693C80.9411 54.3591 81.1067 54.6681 81.3655 54.7357C81.6656 54.814 81.9479 54.557 82.1974 54.3064C82.2234 54.2804 82.2405 54.3078 82.2345 54.3448C82.1469 54.8785 81.8649 55.3979 81.3352 55.4014C80.8521 55.405 80.5983 54.8834 80.5734 54.3306C80.5691 54.228 80.6731 54.0931 80.7499 54.1693Z" fill="#263238"/>
<path d="M72.4308 60.6265C72.5792 60.8796 72.7067 61.2075 73.0061 61.3171C73.2937 61.4222 73.6746 61.3837 73.9726 61.3527C74.0022 61.3495 74.0214 61.3855 73.9975 61.4061C73.6892 61.6706 73.1723 61.7472 72.7992 61.5717C72.435 61.4004 72.3361 61.0177 72.3389 60.6425C72.3393 60.5898 72.4091 60.5895 72.4308 60.6265Z" fill="#263238"/>
<path d="M77.0944 58.2345C77.0944 58.2345 76.9987 59.5585 76.8698 60.1651C76.8573 60.2217 74.8933 60.2278 73.9008 58.5086C73.8637 58.4442 73.9616 58.3944 74.009 58.4438C74.684 59.2011 75.5352 59.5407 76.4821 59.7585C76.5608 59.5998 76.5704 57.4858 76.6683 57.499C77.0058 57.5414 77.6113 57.9059 77.9795 58.1042C78.2593 55.3523 78.0952 52.578 78.4145 49.8422C78.4277 49.7446 78.5715 49.7453 78.5814 49.8365C78.9592 52.7322 78.7068 55.9059 78.491 58.7553C78.4672 59.1106 77.3152 58.3894 77.0944 58.2345Z" fill="#263238"/>
<path d="M60.462 52.6799C60.462 52.6799 57.8333 47.514 60.4075 41.8999C62.9817 36.2861 71.3 34.2074 78.0331 38.0512C78.0331 38.0512 67.7432 36.2452 64.2324 40.8426C60.7208 45.4406 60.462 52.6799 60.462 52.6799Z" fill="#1A6980"/>
<path d="M62.2799 54.4903C64.5961 55.03 65.7556 49.7149 65.7556 49.7149C65.7556 49.7149 75.9329 49.056 77.6246 41C77.6246 41 78.8008 46.3685 83.7959 49.2607C83.7959 49.2607 84.3715 40.2966 77.4733 37.8288C77.4733 37.8288 69.0208 33.7216 63.3608 40.1798C57.7007 46.638 60.7249 54.1279 62.2799 54.4903Z" fill="#263238"/>
<path d="M77.7214 40.4014C77.7267 41.6573 77.4127 42.914 76.8897 44.0728C76.3668 45.2316 75.6177 46.3085 74.6612 47.1657C74.4397 47.3989 74.1628 47.568 73.9161 47.7716L73.5352 48.0643C73.4009 48.1508 73.2621 48.2305 73.1236 48.3103C72.8452 48.4669 72.5732 48.6353 72.2902 48.7805C71.9983 48.9076 71.7032 49.028 71.4077 49.1447C71.26 49.202 71.1144 49.2665 70.9652 49.3181L70.5067 49.4427L69.5928 49.6894C68.9712 49.7951 68.3454 49.8685 67.7256 49.9322C68.3258 49.7407 68.9342 49.6139 69.5213 49.4196L70.391 49.1024L70.8242 48.945C70.9648 48.8831 71.0998 48.8087 71.2375 48.7414C71.5109 48.6022 71.7847 48.4665 72.0613 48.3377C72.3258 48.1871 72.5779 48.0144 72.8363 47.8546L73.2222 47.6125L73.5786 47.3295C73.8093 47.133 74.0699 46.9706 74.276 46.7474C75.1906 45.9468 75.9054 44.945 76.4985 43.8806C76.7929 43.3444 77.0357 42.7794 77.2386 42.1974C77.454 41.6178 77.6085 41.0169 77.7214 40.4014Z" fill="#263238"/>
<path d="M62.5189 53.8235C62.5189 53.8235 60.7517 49.2521 58.7428 49.789C56.7339 50.3258 57.3929 56.4842 59.2804 57.769C61.1675 59.0539 62.3911 57.3301 62.3911 57.3301L62.5189 53.8235Z" fill="#FFC4B0"/>
<path d="M58.9757 51.5492C58.9429 51.5378 58.9248 51.5833 58.9511 51.6019C60.2626 52.5506 60.6973 54.0903 60.8895 55.6232C60.5887 54.9774 60.0718 54.5371 59.2227 54.8746C59.1782 54.8924 59.1999 54.9607 59.243 54.9621C59.871 54.9814 60.2761 55.1907 60.5616 55.7678C60.7638 56.1765 60.8536 56.6524 60.9621 57.0935C60.9981 57.2405 61.2505 57.2288 61.2377 57.0665C61.2366 57.0547 61.2348 57.0419 61.2341 57.0298C61.7283 55.1814 60.924 52.227 58.9757 51.5492Z" fill="#263238"/>
<path d="M60.6325 57.5128C60.5428 57.7869 60.2477 57.9361 59.9739 57.8464C59.6998 57.7567 59.5506 57.4615 59.6403 57.1878C59.73 56.9137 60.0252 56.7645 60.2989 56.8542C60.5727 56.9436 60.7222 57.2387 60.6325 57.5128Z" fill="white"/>
<path d="M59.678 56.3007C59.6132 56.4983 59.4006 56.6062 59.2027 56.5414C59.0051 56.4766 58.8976 56.2637 58.962 56.0661C59.0265 55.8685 59.2394 55.7607 59.4373 55.8255C59.6349 55.8903 59.7428 56.1031 59.678 56.3007Z" fill="white"/>
<path d="M42.8472 122.714L40.9255 146.879H27.6307L25.709 122.714H42.8472Z" fill="#1A6980"/>
<path d="M43.9917 120.532H24.4512V124.055H43.9917V120.532Z" fill="#455A64"/>
<path d="M42.652 120.532H25.79L26.7754 116.575H41.6662L42.652 120.532Z" fill="#37474F"/>
<path d="M38.8932 135.009C38.8932 138.147 36.827 140.69 34.2776 140.69C31.7287 140.69 29.6621 138.146 29.6621 135.009C29.6621 131.872 31.7287 129.329 34.2776 129.329C36.827 129.329 38.8932 131.872 38.8932 135.009Z" fill="white"/>
</svg>
