<svg width="327" height="317" viewBox="0 0 327 317" fill="none" xmlns="http://www.w3.org/2000/svg">
<path d="M68.6417 316H4.09063C4.09063 316 -20.631 189.733 51.4744 167.878C123.58 146.024 67.2692 49.7496 144.181 10.8536C221.094 -28.0423 318.607 44.0395 325.474 124.98C332.342 205.92 313.8 312.762 313.8 312.762L68.6417 316Z" fill="#D1E1F2"/>
<path d="M198.065 183.165C198.065 183.165 186.479 165.014 168.714 166.173C150.95 167.332 157.901 186.254 138.591 180.076C119.282 173.897 98.0683 194.43 107.696 217.923C117.351 241.48 130.868 238.777 127.392 248.818C122.115 264.062 112.331 265.424 132.798 283.189C153.267 300.953 201.926 279.713 206.175 250.749C210.423 221.785 198.065 183.165 198.065 183.165Z" fill="#352C38"/>
<path d="M197.196 185.487C197.196 185.487 196.81 184.755 195.965 183.458C195.123 182.161 193.813 180.302 191.93 178.119C190.042 175.951 187.557 173.445 184.258 171.185C180.977 168.939 176.801 166.961 171.946 166.39C169.533 166.114 166.95 166.097 164.45 166.77C161.937 167.415 159.636 168.883 157.742 170.906C156.78 171.906 155.89 173.018 154.949 174.144C154.007 175.265 153.003 176.416 151.744 177.375C151.115 177.85 150.42 178.266 149.673 178.587C148.923 178.901 148.123 179.106 147.316 179.211C145.694 179.421 144.067 179.222 142.512 178.856C140.956 178.493 139.435 177.927 137.987 177.319C137.243 177.016 136.558 176.749 135.817 176.529C135.084 176.296 134.335 176.114 133.578 175.958C130.545 175.35 127.353 175.378 124.261 176.025C118.065 177.313 112.336 181.072 108.539 186.254C106.615 188.826 105.173 191.752 104.287 194.828C103.409 197.908 103.092 201.13 103.315 204.297C103.421 205.88 103.655 207.45 104 208.99C104.178 209.756 104.38 210.523 104.6 211.269C104.833 212.04 105.071 212.794 105.319 213.538C106.323 216.531 107.511 219.42 108.878 222.163C110.241 224.909 111.802 227.494 113.447 229.95C115.093 232.408 116.871 234.701 118.568 236.995C119.412 238.146 120.236 239.301 120.942 240.531C121.645 241.754 122.231 243.08 122.443 244.494C122.66 245.907 122.447 247.346 121.962 248.601C121.719 249.244 121.432 249.815 121.144 250.385C120.854 250.963 120.548 251.515 120.233 252.059C118.971 254.233 117.477 256.139 115.971 257.832C115.222 258.682 114.476 259.488 113.833 260.314C113.196 261.14 112.663 262.007 112.484 262.936C112.287 263.862 112.454 264.807 112.752 265.667C113.057 266.529 113.477 267.323 113.922 268.061C114.819 269.536 115.791 270.807 116.689 271.934C118.501 274.179 120.012 275.877 121.044 277.031C122.085 278.178 122.64 278.789 122.64 278.789C122.64 278.789 122.064 278.197 120.982 277.087C119.915 275.966 118.327 274.338 116.456 272.125C115.525 271.016 114.514 269.765 113.559 268.285C113.086 267.545 112.631 266.74 112.284 265.836C111.945 264.938 111.724 263.895 111.919 262.831C112.097 261.763 112.669 260.796 113.308 259.92C113.956 259.042 114.686 258.212 115.407 257.348C116.857 255.63 118.289 253.765 119.48 251.627C119.777 251.095 120.07 250.547 120.339 249.99C120.611 249.427 120.888 248.85 121.09 248.283C121.512 247.129 121.671 245.881 121.463 244.65C121.259 243.416 120.716 242.216 120.029 241.065C119.342 239.912 118.521 238.795 117.668 237.671C115.952 235.428 114.115 233.137 112.403 230.667C110.678 228.206 109.097 225.556 107.682 222.765C106.27 219.972 105.043 217.028 104.003 213.984C103.743 213.217 103.496 212.447 103.261 211.685C103.022 210.894 102.811 210.108 102.621 209.305C102.251 207.701 101.998 206.059 101.877 204.399C101.626 201.078 101.94 197.68 102.85 194.422C103.769 191.169 105.275 188.064 107.299 185.335C111.346 179.878 117.403 175.947 123.971 174.616C127.249 173.947 130.638 173.935 133.855 174.598C134.658 174.767 135.452 174.966 136.228 175.216C137.006 175.451 137.792 175.761 138.502 176.056C139.948 176.672 141.364 177.203 142.825 177.553C144.274 177.905 145.749 178.083 147.153 177.907C148.559 177.741 149.863 177.195 150.992 176.361C153.259 174.671 154.882 172.161 156.94 170.121C157.96 169.089 159.082 168.152 160.312 167.416C161.54 166.68 162.861 166.139 164.201 165.81C166.891 165.137 169.568 165.206 172.056 165.528C174.553 165.87 176.892 166.55 178.985 167.475C181.078 168.404 182.941 169.528 184.587 170.715C187.88 173.1 190.317 175.693 192.16 177.924C194.005 180.164 195.234 182.088 196.037 183.412C196.836 184.742 197.196 185.487 197.196 185.487Z" fill="#352C38"/>
<path d="M191.881 188.019C191.881 188.019 191.879 187.505 191.817 186.523C191.754 185.542 191.635 184.1 191.368 182.278C191.1 180.459 190.69 178.257 189.995 175.793C189.293 173.336 188.315 170.6 186.787 167.86C185.266 165.134 183.159 162.382 180.25 160.304C177.364 158.209 173.671 156.948 169.763 156.755C167.816 156.653 165.793 156.767 163.786 156.984C162.784 157.101 161.78 157.263 160.82 157.536C160.343 157.675 159.873 157.843 159.465 158.073C159.058 158.296 158.718 158.614 158.678 158.921C158.621 159.223 158.85 159.62 159.189 159.938C159.525 160.263 159.943 160.538 160.383 160.772C161.269 161.239 162.252 161.566 163.25 161.745C164.238 161.914 165.297 161.954 166.17 161.612C166.599 161.439 166.948 161.157 167.131 160.771C167.322 160.388 167.348 159.908 167.284 159.43C167.146 158.462 166.693 157.507 166.19 156.608C165.68 155.708 165.075 154.836 164.451 154.015C163.181 152.351 161.657 150.924 159.856 149.946C158.065 148.965 156.035 148.494 154.025 148.489C152.011 148.477 150.027 148.889 148.16 149.512C144.414 150.779 141.105 152.813 138.164 154.939C135.226 157.088 132.64 159.379 130.39 161.624C128.28 163.996 125.93 165.888 123.506 166.849C122.3 167.323 121.043 167.521 119.932 167.278C118.817 167.046 117.942 166.391 117.34 165.688C116.139 164.245 115.714 162.792 115.415 161.857C115.136 160.901 115.035 160.379 115.035 160.379C115.035 160.379 115.141 160.9 115.428 161.853C115.734 162.785 116.174 164.234 117.378 165.655C117.982 166.347 118.851 166.983 119.949 167.202C121.042 167.431 122.278 167.226 123.466 166.748C125.86 165.769 128.172 163.892 130.255 161.49C132.485 159.211 135.051 156.883 137.979 154.687C140.912 152.514 144.218 150.423 148.015 149.087C149.909 148.43 151.937 147.98 154.026 147.968C156.108 147.947 158.245 148.414 160.137 149.422C162.032 150.417 163.663 151.919 164.973 153.596C165.638 154.451 166.254 155.317 166.804 156.255C167.338 157.193 167.841 158.183 168.022 159.325C168.104 159.889 168.096 160.52 167.82 161.101C167.554 161.688 167.015 162.113 166.464 162.33C165.342 162.765 164.194 162.694 163.115 162.523C162.032 162.333 160.985 161.992 160.007 161.483C159.519 161.224 159.047 160.923 158.625 160.521C158.416 160.319 158.218 160.089 158.065 159.804C157.913 159.524 157.814 159.162 157.87 158.795C158.01 158.038 158.586 157.633 159.058 157.355C159.557 157.072 160.073 156.89 160.588 156.736C161.62 156.439 162.657 156.269 163.687 156.143C165.749 155.912 167.781 155.787 169.811 155.883C173.857 156.063 177.748 157.364 180.785 159.551C183.846 161.718 186.05 164.578 187.632 167.386C189.222 170.209 190.234 173.008 190.963 175.516C191.685 178.031 192.112 180.273 192.393 182.126C192.674 183.98 192.802 185.45 192.871 186.454C192.938 187.458 192.943 188.007 192.943 188.007L191.881 188.019Z" fill="#352C38"/>
<path d="M160.602 115.275C160.602 115.275 160.478 115.577 160.288 116.159C160.1 116.741 159.843 117.602 159.612 118.72C159.386 119.836 159.178 121.214 159.191 122.799C159.206 124.374 159.457 126.195 160.35 127.917C161.228 129.639 162.861 131.128 164.931 131.919C165.953 132.321 167.078 132.605 168.208 132.929C169.343 133.249 170.502 133.575 171.68 133.907C174.029 134.601 176.482 135.301 178.817 136.507C179.958 137.129 181.128 137.903 181.85 139.135C182.207 139.742 182.411 140.454 182.427 141.164C182.436 141.876 182.283 142.562 182.071 143.214C181.608 144.506 180.89 145.654 180.11 146.722L179.541 147.505C179.359 147.769 179.145 148.035 179.014 148.294C178.864 148.553 178.704 148.807 178.601 149.087C178.546 149.224 178.475 149.358 178.432 149.496L178.323 149.911C178.215 150.462 178.216 151.01 178.417 151.521C178.62 152.03 178.939 152.512 179.329 152.961C180.112 153.859 181.067 154.663 181.968 155.495C182.879 156.324 183.764 157.177 184.574 158.073C185.38 158.974 186.098 159.923 186.74 160.888C187.992 162.841 188.85 164.887 189.406 166.826C189.958 168.767 190.264 170.597 190.392 172.221C190.485 173.032 190.506 173.793 190.529 174.496C190.568 175.2 190.551 175.845 190.54 176.427C190.54 177.594 190.458 178.504 190.42 179.126C190.378 179.748 190.356 180.079 190.356 180.079L188.514 179.89C188.514 179.89 188.543 179.571 188.598 178.973C188.651 178.374 188.754 177.496 188.782 176.378C188.808 175.818 188.841 175.199 188.82 174.526C188.815 173.852 188.815 173.124 188.746 172.352C188.665 170.801 188.418 169.064 187.946 167.228C187.472 165.392 186.721 163.466 185.598 161.607C185.019 160.689 184.369 159.779 183.626 158.903C182.878 158.031 182.049 157.189 181.172 156.347C180.3 155.496 179.359 154.672 178.509 153.647C178.088 153.134 177.704 152.542 177.456 151.86C177.204 151.168 177.215 150.387 177.378 149.693L177.53 149.178C177.587 149.011 177.67 148.859 177.74 148.7C177.873 148.376 178.063 148.085 178.246 147.789C178.423 147.478 178.626 147.243 178.82 146.978L179.416 146.2C180.194 145.193 180.899 144.117 181.348 142.957C181.548 142.373 181.691 141.773 181.696 141.175C181.691 140.579 181.537 139.999 181.245 139.48C180.662 138.428 179.605 137.669 178.519 137.058C176.299 135.857 173.867 135.107 171.542 134.375C170.371 134.021 169.219 133.674 168.092 133.334C166.965 132.988 165.853 132.688 164.794 132.249C162.676 131.396 161.004 129.813 160.135 128.027C159.251 126.239 159.035 124.388 159.048 122.8C159.065 121.2 159.3 119.821 159.547 118.706C159.799 117.59 160.072 116.733 160.272 116.154C160.472 115.575 160.602 115.275 160.602 115.275Z" fill="#352C38"/>
<path d="M177.983 255.383C177.983 255.383 165.239 248.046 154.039 260.79C142.84 273.534 115.034 273.92 120.441 294.774C125.847 315.629 293.48 318.439 304.268 309.449C318.17 297.863 283.799 235.687 260.628 237.232C237.457 238.777 177.983 255.383 177.983 255.383Z" fill="#1A6980"/>
<path d="M171.006 237.416L158.862 234.103" stroke="#1A6980" stroke-width="2.0781" stroke-miterlimit="10"/>
<path d="M187.874 198.014C187.874 198.014 158.91 204.182 167.942 242.253C176.975 280.323 201.754 284.965 214.046 276.024C223.747 268.966 232.425 252.191 225.785 225.742C219.647 201.291 204.402 196.231 187.874 198.014Z" fill="#FFAC9D"/>
<path d="M185.211 273.716C195.32 281.835 206.832 281.27 214.045 276.023C220.359 271.43 226.235 262.717 227.741 249.905C219.805 265.897 202.505 275.441 185.211 273.716Z" fill="#EF998E"/>
<path d="M185.321 202.861C185.321 202.861 188.411 226.033 205.789 227.963C223.168 229.894 225.871 227.577 225.485 240.707C225.099 253.838 213.899 277.782 232.437 278.168C250.974 278.554 243.636 237.231 260.629 237.231C277.622 237.231 302.338 279.326 302.338 279.326C302.338 279.326 322.42 266.968 309.29 244.569C301.743 231.696 288.049 241.479 288.049 226.804C288.049 212.129 273.76 225.645 277.236 215.605C280.712 205.564 298.863 187.027 280.325 171.965C261.788 156.904 249.43 186.254 242.092 172.352C234.755 158.449 218.75 152.266 207.335 158.449C198.065 163.469 182.232 175.828 185.321 202.861Z" fill="#352C38"/>
<path d="M307.498 236.347C307.498 236.347 307.432 236.134 307.301 235.722C307.183 235.305 306.965 234.699 306.651 233.926C306.305 233.17 305.862 232.223 305.071 231.317C304.305 230.4 303.055 229.652 301.511 229.576C300.745 229.519 299.93 229.583 299.062 229.628C298.204 229.655 297.237 229.706 296.307 229.288C295.357 228.892 294.695 227.98 294.294 227.023C293.888 226.053 293.64 224.998 293.481 223.908C293.174 221.758 293.141 219.335 291.815 217.42C291.171 216.481 290.137 215.879 288.936 215.803C287.739 215.688 286.471 215.968 285.157 216.229C284.493 216.354 283.818 216.51 283.039 216.484C282.662 216.485 282.201 216.377 281.816 216.092C281.396 215.795 281.26 215.32 281.157 214.92C281.023 214.1 281.169 213.376 281.296 212.648C281.374 212.304 281.451 211.907 281.556 211.572C281.654 211.227 281.746 210.883 281.873 210.528C282.82 207.717 284.137 205.037 285.386 202.233C286.64 199.439 287.89 196.556 288.831 193.516C289.781 190.487 290.432 187.282 290.331 184.034C290.203 180.802 289.235 177.554 287.297 174.842C285.423 172.087 282.743 169.875 279.816 168.068C279.444 167.818 279.069 167.626 278.696 167.444C278.32 167.258 277.953 167.056 277.57 166.88C276.779 166.577 276 166.222 275.175 166.03C273.547 165.581 271.848 165.357 270.161 165.521C266.769 165.798 263.569 167.338 260.639 169.249C259.16 170.2 257.724 171.242 256.259 172.277C254.788 173.305 253.297 174.353 251.58 175.144C250.709 175.508 249.786 175.859 248.757 175.892C247.754 175.943 246.659 175.738 245.806 175.185L245.473 175L245.181 174.77L244.606 174.304C244.268 173.961 243.946 173.603 243.637 173.243C243.122 172.508 242.608 171.774 242.095 171.042C238.208 165.364 232.488 161.08 226.221 159.168C223.095 158.204 219.843 157.856 216.723 158.151C213.604 158.449 210.619 159.442 208.103 161.05C202.962 164.288 198.762 168.365 195.696 172.685C195.286 173.209 194.942 173.767 194.604 174.321C194.262 174.873 193.923 175.418 193.587 175.958C193.02 177.092 192.408 178.175 191.92 179.281C191.689 179.84 191.461 180.392 191.236 180.937C191.014 181.483 190.771 182.014 190.621 182.569C190.297 183.668 189.912 184.72 189.662 185.771C189.435 186.83 189.217 187.853 189.005 188.842C188.847 189.84 188.758 190.813 188.638 191.743C188.587 192.209 188.517 192.665 188.484 193.113C188.471 193.563 188.458 194.003 188.446 194.433C188.42 195.294 188.397 196.114 188.374 196.893C188.404 198.451 188.528 199.841 188.578 201.052C188.592 201.66 188.671 202.216 188.747 202.724C188.817 203.233 188.881 203.696 188.939 204.111C189.168 205.771 189.291 206.656 189.291 206.656C189.291 206.656 189.14 205.776 188.856 204.124C188.785 203.711 188.706 203.249 188.618 202.741C188.525 202.233 188.429 201.678 188.394 201.07C188.301 199.858 188.139 198.465 188.073 196.899C188.077 196.114 188.081 195.288 188.085 194.421C188.087 193.987 188.09 193.543 188.092 193.09C188.114 192.637 188.173 192.176 188.213 191.705C188.311 190.764 188.377 189.777 188.513 188.764C188.702 187.758 188.899 186.715 189.102 185.638C190.093 181.38 191.846 176.629 194.983 172.189C198.052 167.726 202.281 163.495 207.495 160.103C210.137 158.358 213.294 157.256 216.591 156.892C219.893 156.514 223.324 156.902 226.609 157.887C233.195 159.86 239.19 164.312 243.277 170.217C243.777 170.923 244.277 171.631 244.778 172.34C245.046 172.645 245.319 172.946 245.6 173.232L246.058 173.597L246.287 173.78L246.537 173.911C247.839 174.721 249.458 174.482 250.97 173.78C252.488 173.074 253.936 172.062 255.381 171.037C256.827 170.006 258.278 168.935 259.805 167.951C262.838 165.995 266.286 164.324 270.046 164.034C271.912 163.863 273.798 164.118 275.572 164.619C276.475 164.836 277.312 165.219 278.167 165.554C278.584 165.748 278.992 165.972 279.404 166.181C279.82 166.39 280.226 166.605 280.584 166.849C283.612 168.74 286.438 171.08 288.444 174.055C290.516 176.983 291.558 180.537 291.67 183.987C291.754 187.451 291.071 190.804 290.036 193.898C289.022 197.009 287.709 199.911 286.409 202.7C285.116 205.484 283.758 208.167 282.819 210.826C282.697 211.149 282.598 211.499 282.494 211.841C282.381 212.19 282.323 212.494 282.237 212.841C282.106 213.5 281.981 214.189 282.073 214.758C282.141 215.914 283.745 215.603 284.997 215.377C286.306 215.141 287.647 214.85 289.018 214.997C289.694 215.072 290.387 215.243 290.977 215.609C291.559 215.968 292.08 216.438 292.423 216.994C293.162 218.088 293.474 219.3 293.677 220.469C293.882 221.636 293.915 222.76 294.05 223.827C294.178 224.894 294.395 225.914 294.754 226.83C295.111 227.737 295.674 228.54 296.487 228.901C297.285 229.289 298.204 229.278 299.052 229.268C299.91 229.245 300.744 229.199 301.538 229.277C302.331 229.35 303.08 229.561 303.702 229.913C304.322 230.265 304.834 230.712 305.213 231.197C305.994 232.154 306.406 233.123 306.731 233.894C307.022 234.683 307.219 235.295 307.325 235.715C307.438 236.132 307.498 236.347 307.498 236.347Z" fill="#352C38"/>
<path d="M194.203 215.219C194.203 215.219 193.339 213.48 192.221 210.272C191.126 207.065 189.711 202.394 188.883 196.612C188.062 190.848 187.726 183.953 188.916 176.712C189.506 173.099 190.457 169.415 191.822 165.812C193.168 162.211 194.992 158.695 197.067 155.421C199.175 152.115 201.546 148.99 204.311 146.267C205.707 144.923 207.216 143.701 208.869 142.717C210.515 141.74 212.342 140.99 214.289 140.891C215.255 140.851 216.249 140.978 217.152 141.39C218.052 141.792 218.841 142.513 219.247 143.433C219.674 144.345 219.667 145.413 219.327 146.302C218.995 147.197 218.404 147.947 217.713 148.499C217.553 148.657 217.362 148.765 217.185 148.894L216.915 149.079L216.847 149.125L216.795 149.158L216.762 149.176L216.626 149.249L216.087 149.54L215.468 149.792C215.049 149.936 214.619 150.034 214.159 150.039C213.934 150.049 213.695 149.992 213.469 149.954C213.251 149.857 213.011 149.803 212.829 149.639C212.416 149.377 212.184 148.947 212.015 148.545C211.882 148.128 211.815 147.706 211.826 147.298C211.84 146.481 212.03 145.711 212.323 145.013C213.522 142.203 215.858 140.428 218.039 139.494C220.244 138.53 222.35 138.28 224.044 138.232C225.75 138.189 227.079 138.372 227.976 138.508C228.87 138.667 229.347 138.752 229.347 138.752C229.347 138.752 228.867 138.689 227.968 138.569C227.068 138.469 225.737 138.365 224.054 138.456C222.382 138.56 220.32 138.88 218.219 139.885C216.14 140.859 213.987 142.647 212.929 145.253C212.671 145.898 212.521 146.6 212.524 147.294C212.524 147.979 212.736 148.694 213.255 149.027C213.746 149.4 214.516 149.295 215.193 149.046L215.699 148.832L216.233 148.53C216.544 148.341 216.88 148.105 217.167 147.854C217.765 147.359 218.234 146.714 218.482 146.003C218.736 145.292 218.717 144.499 218.384 143.827C218.063 143.153 217.466 142.61 216.744 142.288C216.018 141.962 215.181 141.855 214.339 141.894C212.64 141.989 210.947 142.678 209.402 143.613C207.849 144.551 206.406 145.732 205.066 147.041C202.41 149.688 200.092 152.791 198.055 156.023C195.964 159.278 194.182 162.663 192.83 166.198C191.469 169.719 190.51 173.329 189.906 176.877C188.693 183.982 188.807 190.791 189.528 196.525C190.243 202.268 191.43 206.973 192.435 210.201C193.432 213.437 194.203 215.219 194.203 215.219Z" fill="#352C38"/>
<path d="M187.638 193.979C187.638 193.979 187.64 193.487 187.686 192.564C187.733 191.642 187.819 190.288 188.037 188.576C188.251 186.864 188.573 184.789 189.083 182.434C189.59 180.08 190.305 177.445 191.364 174.663C192.418 171.882 193.793 168.937 195.671 166.058C197.536 163.183 199.956 160.381 203.014 158.148C206.049 155.897 209.686 154.232 213.563 153.388C217.441 152.526 221.507 152.457 225.481 152.884L228.447 153.324C229.425 153.516 230.391 153.756 231.361 153.969C233.29 154.388 235.164 154.92 237.048 155.354C240.789 156.236 244.525 156.949 248.149 157.494C251.777 158.023 255.305 158.408 258.659 158.538C262.011 158.667 265.194 158.584 268.086 158.181C269.528 157.969 270.908 157.727 272.182 157.363C272.831 157.215 273.428 156.978 274.027 156.79C274.6 156.546 275.175 156.338 275.684 156.048C276.715 155.508 277.626 154.855 278.195 154.047C278.777 153.249 278.884 152.274 278.519 151.539C278.163 150.8 277.541 150.321 277.005 149.951C276.723 149.782 276.446 149.647 276.2 149.51C275.943 149.396 275.703 149.307 275.49 149.219C275.067 149.038 274.716 148.975 274.491 148.896C274.262 148.828 274.145 148.793 274.145 148.793C274.145 148.793 274.265 148.821 274.496 148.875C274.725 148.941 275.081 148.983 275.518 149.14C275.736 149.215 275.985 149.291 276.252 149.391C276.509 149.514 276.799 149.636 277.099 149.792C277.674 150.137 278.354 150.599 278.789 151.406C278.873 151.617 279.007 151.819 279.026 152.065C279.048 152.185 279.069 152.306 279.09 152.428C279.102 152.552 279.079 152.677 279.074 152.804C279.056 153.319 278.83 153.818 278.55 154.282C277.957 155.206 277.017 155.935 275.962 156.55C273.839 157.804 271.149 158.539 268.214 159.04C265.269 159.531 262.036 159.702 258.629 159.663C255.221 159.623 251.632 159.35 247.96 158.82C244.284 158.301 240.517 157.617 236.709 156.755C234.814 156.335 232.924 155.817 231.018 155.423C230.072 155.223 229.128 154.997 228.177 154.82L225.302 154.416C221.465 153.97 217.565 154.006 213.867 154.793C210.168 155.565 206.713 157.109 203.804 159.226C200.894 161.343 198.482 163.94 196.599 166.685C194.703 169.427 193.276 172.273 192.167 174.979C189.965 180.412 188.905 185.238 188.331 188.619C187.753 192.009 187.638 193.979 187.638 193.979Z" fill="#352C38"/>
<path d="M269.511 237.232C267.916 236.066 266.27 234.949 264.472 234.119C262.696 233.298 260.672 232.768 258.725 233.217C256.773 233.649 255.192 235.045 254.048 236.631C252.888 238.233 252.049 240.043 251.348 241.886C250.653 243.736 250.1 245.638 249.634 247.558C249.161 249.477 248.797 251.423 248.367 253.353C247.53 257.219 246.653 261.08 245.585 264.892C244.498 268.691 243.287 272.494 241.381 275.989C240.416 277.716 239.258 279.393 237.66 280.627C236.862 281.232 235.952 281.718 234.967 281.955C233.986 282.208 232.953 282.211 231.961 282.043C229.968 281.686 228.168 280.705 226.535 279.584C224.906 278.454 223.343 277.119 222.327 275.353C221.818 274.478 221.496 273.487 221.391 272.476C221.284 271.463 221.394 270.441 221.626 269.464C222.096 267.502 222.97 265.694 223.849 263.922C225.641 260.392 227.528 256.911 228.732 253.164C229.348 251.295 229.777 249.389 230.06 247.432C230.341 245.497 230.535 243.525 230.362 241.596C230.207 239.673 229.517 237.792 228.139 236.47C226.781 235.128 224.957 234.327 223.122 233.693C219.401 232.478 215.486 231.829 211.601 231.141C209.655 230.801 207.7 230.494 205.746 230.188C203.81 229.903 201.792 229.556 199.884 228.892C197.973 228.244 196.115 227.372 194.438 226.199C192.756 225.029 191.29 223.557 190.036 221.924C188.789 220.284 187.799 218.451 187.045 216.536C186.265 214.628 185.708 212.633 185.331 210.612C184.937 208.592 184.708 206.541 184.608 204.482C184.552 203.451 184.532 202.417 184.549 201.379C184.558 200.322 184.578 199.335 184.699 198.18L189.039 199.028V199.028C188.865 199.879 188.715 200.889 188.6 201.837C188.482 202.802 188.394 203.774 188.33 204.748C188.203 206.695 188.183 208.652 188.277 210.598C188.474 214.485 189.129 218.352 190.481 221.947C191.161 223.74 192.013 225.458 193.059 227.05C194.111 228.635 195.347 230.096 196.771 231.362C199.606 233.916 203.155 235.665 206.938 236.657C208.83 237.161 210.781 237.489 212.752 237.677C213.738 237.771 214.73 237.84 215.725 237.861C216.686 237.896 217.797 237.874 218.857 238.048C219.92 238.216 221.003 238.467 222.033 239.071C222.541 239.376 223.036 239.81 223.368 240.389C223.711 240.965 223.81 241.662 223.745 242.268C223.694 242.876 223.477 243.447 223.272 243.917C223.06 244.407 222.827 244.882 222.564 245.343C222.04 246.264 221.407 247.131 220.649 247.889C219.889 248.64 219.012 249.3 217.969 249.696C217.445 249.88 216.881 250.033 216.224 249.905C215.908 249.842 215.513 249.634 215.335 249.247C215.161 248.866 215.222 248.495 215.311 248.208C215.509 247.624 215.85 247.196 216.2 246.794C216.536 246.405 217.023 245.989 217.593 245.833C218.171 245.659 218.807 245.771 219.298 246.041C219.798 246.308 220.193 246.696 220.522 247.114C221.796 248.822 222.21 251.028 221.82 253.053C221.615 254.065 221.175 255.03 220.529 255.826C219.885 256.624 219.054 257.252 218.147 257.702C219.035 257.213 219.829 256.553 220.424 255.744C221.022 254.937 221.404 253.986 221.559 253.005C221.855 251.049 221.338 248.943 220.111 247.449C219.511 246.72 218.593 246.175 217.788 246.467C217.381 246.61 217.065 246.883 216.757 247.268C216.458 247.638 216.186 248.046 216.079 248.435C216.025 248.627 216.034 248.799 216.085 248.88C216.128 248.959 216.226 249.023 216.401 249.054C216.75 249.111 217.212 248.999 217.624 248.823C218.468 248.46 219.228 247.845 219.871 247.143C220.517 246.436 221.055 245.626 221.494 244.766C221.714 244.335 221.908 243.89 222.078 243.441C222.257 242.976 222.373 242.574 222.388 242.166C222.439 241.359 222.02 240.788 221.274 240.385C220.528 239.994 219.59 239.802 218.651 239.709C217.697 239.601 216.775 239.676 215.711 239.684C214.679 239.709 213.643 239.684 212.609 239.632C210.539 239.528 208.463 239.276 206.414 238.829C204.366 238.38 202.341 237.74 200.405 236.856C198.479 235.958 196.624 234.85 194.967 233.479C193.296 232.124 191.818 230.53 190.549 228.792C189.287 227.048 188.242 225.159 187.397 223.196C185.711 219.261 184.814 215.069 184.412 210.881C184.215 208.783 184.142 206.68 184.184 204.577C184.206 203.526 184.254 202.474 184.335 201.421C184.419 200.353 184.515 199.349 184.694 198.204L184.694 198.202L189.034 199.049C188.795 199.84 188.579 200.818 188.407 201.73C188.246 202.662 188.118 203.604 188.022 204.551C187.845 206.445 187.814 208.358 187.95 210.258C188.103 212.155 188.425 214.04 188.959 215.863C189.518 217.677 190.294 219.425 191.324 221.021C193.369 224.232 196.571 226.652 200.205 227.979C202.026 228.656 203.918 229.028 205.885 229.361L211.729 230.4C215.621 231.116 219.54 231.785 223.342 233.051C225.217 233.715 227.122 234.549 228.593 236.015C230.09 237.463 230.824 239.543 230.968 241.543C231.135 243.561 230.923 245.557 230.625 247.527C230.329 249.484 229.876 251.448 229.24 253.333C227.995 257.128 226.067 260.628 224.261 264.132C223.376 265.89 222.504 267.672 222.04 269.564C221.551 271.44 221.681 273.485 222.665 275.165C223.621 276.854 225.138 278.177 226.734 279.298C228.34 280.416 230.096 281.382 232.016 281.737C232.971 281.905 233.958 281.907 234.897 281.672C235.841 281.451 236.716 280.991 237.495 280.41C239.05 279.224 240.208 277.58 241.173 275.875C243.085 272.424 244.321 268.636 245.428 264.851C246.517 261.051 247.425 257.198 248.277 253.337C248.711 251.408 249.08 249.464 249.559 247.542C250.031 245.621 250.591 243.719 251.292 241.867C252 240.022 252.844 238.21 254.013 236.605C255.163 235.018 256.756 233.618 258.72 233.188C260.678 232.742 262.704 233.28 264.48 234.106C266.276 234.941 267.919 236.061 269.511 237.232Z" fill="#352C38"/>
<path d="M182.946 247.361L182.946 247.361C182.906 247.366 182.799 247.36 182.613 247.193C182.43 247.029 182.224 246.753 182.019 246.361C181.61 245.58 181.256 244.439 181.072 243.127C180.888 241.814 180.916 240.62 181.094 239.757C181.184 239.324 181.306 239.002 181.438 238.793C181.571 238.582 181.672 238.547 181.712 238.541C181.752 238.536 181.859 238.542 182.045 238.708C182.229 238.873 182.435 239.149 182.64 239.541C183.048 240.322 183.402 241.462 183.586 242.775C183.77 244.088 183.742 245.282 183.564 246.145C183.474 246.578 183.352 246.9 183.22 247.108C183.087 247.319 182.986 247.355 182.946 247.361Z" fill="#1A141C" stroke="black"/>
<path d="M205.291 242.612L205.291 242.611C205.107 241.298 205.135 240.104 205.313 239.242C205.403 238.809 205.525 238.487 205.656 238.278C205.789 238.067 205.891 238.031 205.931 238.026L205.931 238.026C205.97 238.02 206.078 238.027 206.263 238.193C206.447 238.358 206.653 238.634 206.858 239.026C207.266 239.806 207.62 240.947 207.804 242.26C207.988 243.573 207.96 244.767 207.782 245.63C207.692 246.063 207.57 246.385 207.438 246.593C207.305 246.804 207.204 246.84 207.164 246.846C207.124 246.851 207.017 246.845 206.831 246.678C206.647 246.514 206.442 246.238 206.236 245.846C205.828 245.065 205.474 243.925 205.291 242.612Z" fill="#1A141C" stroke="black"/>
<path d="M188.898 245.653C188.898 245.665 188.899 245.678 188.899 245.69L188.899 245.698L188.9 245.707C188.912 245.909 188.903 246.09 188.893 246.297C188.887 246.414 188.881 246.54 188.877 246.682L188.877 246.682L188.877 246.687C188.875 246.896 188.855 247.089 188.832 247.306C188.821 247.419 188.808 247.538 188.797 247.67L188.797 247.67L188.797 247.673C188.774 247.979 188.714 248.285 188.647 248.626C188.629 248.716 188.613 248.802 188.597 248.885C188.55 249.137 188.509 249.36 188.441 249.585L188.439 249.593L188.436 249.602C188.353 249.921 188.261 250.238 188.158 250.551L187.789 251.506L187.785 251.514L187.783 251.522C187.71 251.731 187.613 251.917 187.497 252.138C187.455 252.219 187.411 252.304 187.364 252.397C187.353 252.418 187.342 252.438 187.332 252.459C187.179 252.75 187.048 253.002 186.881 253.232L186.875 253.24L186.87 253.248L186.302 254.098C186.171 254.262 186.039 254.411 185.897 254.57C185.817 254.659 185.735 254.752 185.648 254.852L185.321 255.216L185.082 255.433C184.98 255.369 184.878 255.307 184.776 255.244L185.024 254.982L185.044 254.961L185.061 254.939L185.342 254.565C185.342 254.565 185.342 254.565 185.342 254.565C185.405 254.481 185.465 254.4 185.524 254.321C185.648 254.153 185.767 253.993 185.895 253.833L185.912 253.81L185.927 253.786L186.416 253.006C186.595 252.746 186.732 252.463 186.851 252.219C186.865 252.19 186.879 252.162 186.892 252.134L186.896 252.126L186.9 252.118C186.943 252.021 186.994 251.929 187.055 251.817C187.069 251.792 187.083 251.766 187.098 251.74C187.172 251.604 187.258 251.441 187.324 251.259L187.681 250.406L187.688 250.391L187.693 250.374L187.993 249.495C188.09 249.25 188.161 248.987 188.224 248.758C188.243 248.687 188.261 248.619 188.279 248.556C188.373 248.24 188.452 247.921 188.519 247.597C188.536 247.518 188.558 247.43 188.58 247.336C188.633 247.118 188.694 246.87 188.728 246.637L188.892 245.693L188.892 245.693L188.893 245.685C188.895 245.674 188.896 245.664 188.898 245.653ZM183.953 256.15L183.957 256.19L183.929 256.177L183.953 256.15ZM185.429 256.837C185.334 256.797 185.239 256.756 185.144 256.715C185.157 256.704 185.171 256.692 185.185 256.68C185.266 256.732 185.348 256.784 185.429 256.837Z" fill="#1A6980" stroke="black"/>
<path d="M201.684 264.397C201.845 264.587 201.996 264.775 202.138 264.959C201.959 264.823 201.778 264.681 201.597 264.53C201.339 264.3 201.04 264.099 200.772 263.919C200.712 263.879 200.654 263.84 200.598 263.802L200.596 263.801C200.275 263.574 199.903 263.311 199.495 263.116L198.969 262.827C198.837 262.751 198.708 262.703 198.606 262.668C198.571 262.656 198.541 262.646 198.514 262.636C198.45 262.615 198.403 262.599 198.352 262.577L198.335 262.57L198.317 262.564C198.267 262.547 198.224 262.529 198.165 262.504C198.137 262.492 198.105 262.478 198.067 262.462C197.967 262.421 197.83 262.368 197.675 262.342C197.541 262.319 197.411 262.289 197.267 262.257C197.229 262.248 197.189 262.239 197.148 262.23C196.996 262.184 196.855 262.175 196.753 262.171C196.712 262.17 196.679 262.169 196.651 262.168C196.594 262.167 196.56 262.166 196.518 262.161L196.501 262.159L196.484 262.158C196.465 262.156 196.441 262.154 196.414 262.152C196.27 262.14 196.037 262.121 195.816 262.164C195.725 262.175 195.634 262.186 195.543 262.196C195.458 262.206 195.375 262.216 195.294 262.226L195.261 262.229L195.23 262.237C195.172 262.252 195.115 262.266 195.057 262.281C194.944 262.309 194.831 262.337 194.721 262.365C194.584 262.394 194.468 262.443 194.387 262.478C194.366 262.487 194.348 262.495 194.332 262.502C194.271 262.529 194.237 262.544 194.2 262.556L194.2 262.556L194.197 262.556C194.139 262.575 194.082 262.595 194.027 262.616C194.193 262.492 194.387 262.369 194.607 262.243C194.736 262.182 194.866 262.12 194.999 262.057C195.062 262.028 195.126 261.998 195.189 261.967C195.301 261.925 195.404 261.901 195.537 261.87C195.617 261.851 195.707 261.83 195.816 261.801L195.827 261.798L195.837 261.795C195.982 261.75 196.133 261.741 196.361 261.728C196.39 261.726 196.42 261.724 196.452 261.722C196.524 261.721 196.595 261.716 196.657 261.712C196.667 261.711 196.677 261.71 196.686 261.71C196.742 261.706 196.789 261.702 196.837 261.7C196.949 261.696 197.024 261.7 197.082 261.714L197.102 261.719L197.122 261.722C197.19 261.732 197.256 261.742 197.32 261.752C197.51 261.781 197.691 261.808 197.874 261.843L197.874 261.843L197.884 261.845C197.966 261.859 198.052 261.886 198.163 261.928C198.189 261.937 198.219 261.949 198.252 261.961C198.333 261.993 198.43 262.03 198.524 262.061C198.608 262.096 198.7 262.131 198.779 262.16C198.815 262.174 198.848 262.186 198.878 262.197C198.989 262.24 199.074 262.278 199.144 262.319C199.256 262.387 199.37 262.456 199.484 262.524C199.583 262.584 199.681 262.644 199.776 262.702L199.788 262.709L199.801 262.716C200.098 262.874 200.33 263.081 200.603 263.324C200.673 263.386 200.746 263.451 200.823 263.517C200.894 263.582 200.957 263.637 201.016 263.688C201.118 263.777 201.207 263.854 201.298 263.945L201.65 263.59L201.298 263.945C201.382 264.029 201.441 264.102 201.513 264.191C201.56 264.25 201.613 264.316 201.684 264.397Z" fill="#1A6980" stroke="black"/>
<path d="M173.066 237.877C172.933 237.87 172.826 237.853 172.704 237.833C173.024 237.764 173.354 237.666 173.676 237.571C173.72 237.558 173.765 237.545 173.809 237.532L173.809 237.532L173.818 237.529C174.022 237.464 174.235 237.407 174.466 237.344C174.499 237.335 174.533 237.326 174.567 237.317C174.832 237.245 175.115 237.166 175.403 237.068L175.417 237.064L175.43 237.059C175.961 236.845 176.512 236.631 177.082 236.431L177.114 236.42L177.144 236.404C177.685 236.127 178.243 235.841 178.81 235.55L178.838 235.536L178.864 235.518C178.934 235.47 179.002 235.423 179.069 235.377C179.262 235.244 179.446 235.117 179.638 234.995L179.638 234.995L179.641 234.993C179.676 234.97 179.713 234.947 179.751 234.923C179.972 234.783 180.245 234.609 180.476 234.384L181.188 233.788C181.34 233.666 181.469 233.533 181.58 233.414C181.615 233.376 181.648 233.341 181.679 233.307C181.751 233.228 181.815 233.158 181.885 233.089C182.236 232.759 182.544 232.366 182.818 232.015C182.926 231.878 183.029 231.746 183.127 231.628L183.127 231.628L183.13 231.625C183.247 231.481 183.343 231.333 183.425 231.204C183.439 231.181 183.453 231.159 183.466 231.138C183.534 231.032 183.59 230.941 183.653 230.855L183.654 230.855L183.661 230.844C183.826 230.603 184.004 230.342 184.152 230.061C184.258 229.877 184.362 229.696 184.463 229.52C184.497 229.46 184.531 229.402 184.565 229.343L184.572 229.331L184.579 229.318C184.701 229.075 184.819 228.841 184.933 228.615C185.059 228.372 185.164 228.136 185.259 227.919C185.276 227.879 185.293 227.839 185.31 227.8C185.344 227.721 185.377 227.646 185.409 227.574C185.406 227.604 185.404 227.635 185.402 227.665C185.375 228 185.35 228.323 185.264 228.674L185.261 228.683L185.26 228.691C185.228 228.843 185.202 228.972 185.175 229.102C185.149 229.232 185.122 229.363 185.089 229.521C185.059 229.616 185.029 229.714 184.999 229.812C184.94 230.001 184.88 230.195 184.819 230.392L184.817 230.399L184.815 230.407C184.752 230.637 184.654 230.857 184.533 231.126C184.515 231.168 184.495 231.211 184.475 231.256C184.435 231.344 184.397 231.428 184.361 231.509C184.259 231.737 184.168 231.942 184.048 232.146C183.991 232.238 183.936 232.329 183.881 232.419C183.56 232.946 183.259 233.442 182.853 233.876L182.853 233.876L182.85 233.88C182.752 233.988 182.653 234.108 182.565 234.215C182.531 234.257 182.498 234.297 182.468 234.334C182.351 234.474 182.246 234.588 182.134 234.682L182.133 234.682L182.124 234.69L181.253 235.45L181.247 235.456L181.24 235.462C181.034 235.655 180.796 235.803 180.51 235.98C180.466 236.007 180.421 236.035 180.374 236.064L180.374 236.064L180.371 236.067C180.122 236.224 179.871 236.372 179.614 236.524C179.552 236.56 179.49 236.597 179.427 236.634C178.781 236.929 178.119 237.176 177.473 237.412C176.805 237.563 176.159 237.691 175.548 237.803C175.126 237.859 174.732 237.861 174.328 237.864C174.163 237.866 173.997 237.867 173.826 237.871C173.719 237.872 173.62 237.874 173.526 237.875C173.364 237.878 173.217 237.88 173.066 237.877Z" fill="#1A141C" stroke="black"/>
<path d="M216.698 234.583C216.731 234.583 216.763 234.583 216.795 234.583C216.409 234.701 216.02 234.815 215.589 234.878L215.578 234.88L215.567 234.882C214.979 234.994 214.344 235.113 213.669 235.215L213.66 235.217L213.651 235.218C213.202 235.303 212.744 235.322 212.232 235.344C212.013 235.353 211.784 235.363 211.541 235.378C211.165 235.396 210.797 235.413 210.425 235.412C210.04 235.393 209.652 235.369 209.26 235.338C208.961 235.315 208.661 235.291 208.358 235.267C208.264 235.26 208.17 235.252 208.075 235.245L206.897 235.032C206.731 234.996 206.581 234.968 206.439 234.941C206.195 234.895 205.975 234.853 205.738 234.785C205.576 234.735 205.413 234.684 205.25 234.633C205.023 234.562 204.796 234.491 204.571 234.421L204.02 234.244L203.492 234.011C203.347 233.945 203.203 233.88 203.059 233.815C202.849 233.719 202.64 233.624 202.434 233.53C202.107 233.349 201.789 233.159 201.478 232.968L201.478 232.968L201.468 232.962C201.157 232.781 200.876 232.597 200.629 232.391L200.629 232.391L200.621 232.385C200.503 232.29 200.397 232.209 200.298 232.134C200.132 232.007 199.986 231.896 199.84 231.763C199.63 231.557 199.426 231.357 199.229 231.163C199.206 231.14 199.183 231.118 199.16 231.095C198.847 230.766 198.576 230.449 198.353 230.146C198.471 230.231 198.592 230.312 198.711 230.391L198.711 230.391L198.72 230.396C198.793 230.442 198.861 230.493 198.949 230.558C198.968 230.572 198.988 230.587 199.009 230.603C199.118 230.684 199.25 230.779 199.406 230.863C199.528 230.936 199.649 231.008 199.773 231.082C199.894 231.155 200.018 231.229 200.147 231.306L200.161 231.314L200.174 231.321C200.263 231.366 200.352 231.412 200.442 231.458C200.625 231.552 200.812 231.648 201.002 231.746C201.09 231.792 201.177 231.837 201.266 231.884C201.319 231.911 201.373 231.94 201.428 231.968L201.448 231.978L201.468 231.987C201.619 232.049 201.771 232.112 201.925 232.175C202.089 232.245 202.253 232.314 202.418 232.384C202.563 232.446 202.71 232.508 202.86 232.571L202.888 232.583L202.917 232.592C203.169 232.664 203.414 232.752 203.679 232.847C203.747 232.871 203.816 232.896 203.887 232.921C204.222 233.039 204.584 233.161 204.974 233.243C205.086 233.272 205.196 233.301 205.304 233.328C205.544 233.39 205.776 233.45 206.012 233.518L206.012 233.518L206.019 233.52C206.269 233.589 206.557 233.638 206.811 233.681C206.934 233.702 207.048 233.721 207.147 233.741L207.147 233.741L208.241 233.959L208.26 233.962L208.279 233.965C208.501 233.991 208.723 234.018 208.944 234.044C209.093 234.062 209.24 234.08 209.387 234.097L209.387 234.097C209.749 234.14 210.107 234.189 210.463 234.243L210.483 234.246L210.503 234.247C210.596 234.254 210.687 234.26 210.779 234.267C211.05 234.285 211.318 234.304 211.583 234.322L211.583 234.322L211.594 234.322C211.873 234.335 212.148 234.362 212.433 234.39C212.494 234.396 212.555 234.402 212.617 234.408C212.959 234.441 213.316 234.47 213.672 234.466C214.316 234.479 214.932 234.512 215.51 234.546C215.929 234.577 216.338 234.58 216.698 234.583Z" fill="#1A141C" stroke="black"/>
<path d="M235.319 227.981C237.004 231.515 237.123 235.44 236.865 238.538C236.732 240.127 236.499 241.512 236.319 242.529C236.301 242.631 236.284 242.728 236.267 242.822C236.215 243.119 236.169 243.374 236.135 243.586C237.772 243.004 239.073 241.674 240.028 239.894C241.106 237.885 241.714 235.351 241.847 232.844C241.981 230.336 241.637 227.904 240.858 226.098C240.076 224.284 238.914 223.21 237.445 223.133L235.319 227.981ZM235.319 227.981C235.515 227.583 235.629 227.097 235.716 226.636C235.763 226.386 235.803 226.144 235.843 225.906C235.901 225.552 235.959 225.205 236.037 224.853C236.165 224.277 236.325 223.824 236.552 223.526C236.753 223.263 237.012 223.11 237.445 223.133L235.319 227.981Z" fill="#FFAC9D" stroke="#1A6980"/>
<path d="M189.892 240.564C192.728 231.175 189.083 221.768 181.751 219.554C174.419 217.34 166.176 223.157 163.341 232.546C160.505 241.935 164.15 251.342 171.482 253.556C178.814 255.77 187.057 249.954 189.892 240.564Z" stroke="#1A6980" stroke-width="2.0781" stroke-miterlimit="10"/>
<path d="M221.729 250.178C224.564 240.788 220.919 231.382 213.587 229.167C206.255 226.953 198.013 232.77 195.177 242.159C192.342 251.549 195.987 260.955 203.319 263.17C210.651 265.384 218.893 259.567 221.729 250.178Z" stroke="#1A6980" stroke-width="2.0781" stroke-miterlimit="10"/>
<path d="M188.926 242.997C188.926 242.997 193.175 238.958 194.478 245.413" stroke="#1A6980" stroke-width="1.039" stroke-miterlimit="10"/>
<path d="M222.146 250.164L227.268 250.901C227.268 250.901 233.626 222.181 237.74 222.175C240.546 222.17 242.09 228.349 242.09 228.349" stroke="#1A6980" stroke-width="2.0781" stroke-miterlimit="10"/>
<path d="M175.279 274.307C175.279 274.307 301.178 278.941 306.584 303.271C310.293 319.962 254.834 317.561 215.443 305.975C176.052 294.388 175.279 274.307 175.279 274.307Z" fill="#FFAC9D"/>
<path d="M153.266 278.554C153.266 278.554 122.774 275.543 119.668 290.526C115.685 309.736 147.087 316.4 222.394 315.242C297.702 314.083 276.461 311.766 255.993 310.222C255.993 310.222 310.446 312.925 257.924 305.201C257.924 305.201 306.198 310.222 258.311 301.339C258.311 301.339 303.109 306.746 250.973 296.319C250.973 296.319 245.415 297.405 237.07 295.16C216.581 289.649 178.239 281.024 153.266 278.554Z" fill="#EF998E"/>
<path d="M238.228 294.774C238.228 294.774 284.185 288.209 248.655 298.636C213.126 309.063 238.228 294.774 238.228 294.774Z" fill="#EF998E"/>
<path d="M216.216 285.892C216.216 285.892 176.535 269.941 169.77 274.842C163.004 279.743 147.699 303.528 170.707 279.057C170.707 279.057 157.282 321.32 174.732 283.151C174.732 283.151 171.309 324.252 179.036 284.529C179.036 284.529 187.783 320.518 184.068 284.719L229.223 293.008L216.216 285.892Z" fill="#FFAC9D"/>
<path d="M211.572 77.2317C199.124 76.3353 170.834 77.5306 168.193 90.0813C165.175 102.333 191.202 101.138 201.009 99.9426C208.554 99.0461 229.3 91.2766 213.834 86.1965C205.913 83.5071 185.544 88.886 180.263 94.2649C159.139 115.78 218.738 113.39 216.475 105.919C213.457 95.1614 162.157 112.493 188.939 121.458C195.728 123.849 216.852 119.964 202.895 116.378C191.201 113.689 184.412 125.044 192.334 131.021" stroke="#1A6980" stroke-width="1.8773" stroke-miterlimit="10"/>
<path d="M53.4464 316.138H143.294L109.297 254.215H19.4492L53.4464 316.138Z" fill="#352C38"/>
<path d="M193.378 309.46H130.849V316.138H193.378V309.46Z" fill="#352C38"/>
<path d="M47.3751 316.138H137.223L103.227 254.215H13.3779L47.3751 316.138Z" fill="#765E69"/>
</svg>
