<svg width="208" height="156" viewBox="0 0 208 156" fill="none" xmlns="http://www.w3.org/2000/svg">
<path d="M20.471 107.694C20.1383 108.295 23.1255 117.535 28.8352 114.914C33.587 112.733 30.998 106.536 30.998 106.536C30.998 106.536 38.8832 108.664 38.4227 102.049C37.9621 95.4343 30.9018 96.7808 30.9018 96.7808C30.9018 96.7808 36.1429 91.4741 30.298 88.489C24.5732 85.5647 23.1523 92.4202 23.1523 92.4202C23.1523 92.4202 14.9908 86.3231 11.6849 90.8115C8.37834 95.3004 15.9119 99.5532 15.9119 99.5532C15.9119 99.5532 8.40802 101.701 11.3799 106.754C14.3511 111.807 20.471 107.694 20.471 107.694Z" fill="#A0D2F4"/>
<path d="M27.7004 97.9158C29.3559 100.35 28.9604 103.348 26.8179 104.611C24.6748 105.874 21.5961 104.924 19.9401 102.489C18.2846 100.054 18.68 97.0566 20.8225 95.7937C22.965 94.5308 26.0448 95.4813 27.7004 97.9158Z" fill="white"/>
<path d="M136.471 151.694C136.138 152.295 139.125 161.535 144.835 158.914C149.587 156.733 146.998 150.536 146.998 150.536C146.998 150.536 154.883 152.664 154.423 146.049C153.962 139.434 146.902 140.781 146.902 140.781C146.902 140.781 152.143 135.474 146.298 132.489C140.573 129.565 139.152 136.42 139.152 136.42C139.152 136.42 130.991 130.323 127.685 134.812C124.378 139.3 131.912 143.553 131.912 143.553C131.912 143.553 124.408 145.701 127.38 150.754C130.351 155.807 136.471 151.694 136.471 151.694Z" fill="#A0D2F4"/>
<path d="M143.7 141.916C145.356 144.35 144.96 147.348 142.818 148.611C140.675 149.874 137.596 148.924 135.94 146.489C134.285 144.054 134.68 141.057 136.823 139.794C138.965 138.531 142.045 139.481 143.7 141.916Z" fill="white"/>
<path d="M89.471 23.6942C89.1383 24.2954 92.1255 33.5351 97.8352 30.9141C102.587 28.7335 99.998 22.5364 99.998 22.5364C99.998 22.5364 107.883 24.6644 107.423 18.0493C106.962 11.4343 99.9018 12.7808 99.9018 12.7808C99.9018 12.7808 105.143 7.47413 99.298 4.48899C93.5732 1.56474 92.1523 8.42025 92.1523 8.42025C92.1523 8.42025 83.9908 2.32311 80.6849 6.8115C77.3783 11.3004 84.9119 15.5532 84.9119 15.5532C84.9119 15.5532 77.408 17.7013 80.3799 22.754C83.3511 27.8071 89.471 23.6942 89.471 23.6942Z" fill="#A0D2F4"/>
<path d="M96.7004 13.9158C98.3559 16.3504 97.9604 19.3481 95.8179 20.6109C93.6748 21.8743 90.5961 20.924 88.9401 18.4888C87.2846 16.0543 87.68 13.0566 89.8225 11.7937C91.965 10.5308 95.0448 11.4813 96.7004 13.9158Z" fill="white"/>
<path d="M168.373 28.5807C168.091 28.8543 168.149 34.2646 171.688 33.7052C174.634 33.2397 174.277 29.5237 174.277 29.5237C174.277 29.5237 178.193 31.8399 179.062 28.2164C179.931 24.5922 175.874 24.2668 175.874 24.2668C175.874 24.2668 179.613 22.194 176.949 19.7211C174.339 17.2982 172.409 20.7715 172.409 20.7715C172.409 20.7715 169.014 16.281 166.462 18.202C163.91 20.1229 167.277 23.5287 167.277 23.5287C167.277 23.5287 162.844 23.5673 163.601 26.7249C164.359 29.8815 168.373 28.5807 168.373 28.5807Z" fill="#A0D2F4"/>
<path d="M173.942 24.4002C174.428 25.9546 173.707 27.5071 172.332 27.8675C170.956 28.2278 169.447 27.2591 168.961 25.7047C168.474 24.1502 169.196 22.5977 170.571 22.2374C171.947 21.877 173.456 22.8451 173.942 24.4002Z" fill="white"/>
<path d="M8.37333 29.5808C8.09097 29.8544 8.14891 35.2647 11.6883 34.7053C14.6337 34.2398 14.2772 30.5239 14.2772 30.5239C14.2772 30.5239 18.1929 32.84 19.0622 29.2165C19.9309 25.5924 15.8742 25.2669 15.8742 25.2669C15.8742 25.2669 19.6134 23.1941 16.949 20.7212C14.3391 18.2983 12.4093 21.7716 12.4093 21.7716C12.4093 21.7716 9.01445 17.2811 6.46218 19.2021C3.90991 21.1231 7.27652 24.5288 7.27652 24.5288C7.27652 24.5288 2.84403 24.5674 3.60133 27.7251C4.35877 30.8817 8.37333 29.5808 8.37333 29.5808Z" fill="#A0D2F4"/>
<path d="M13.9422 25.4003C14.4284 26.9547 13.7072 28.5072 12.3316 28.8676C10.956 29.2279 9.44665 28.2592 8.96051 26.7048C8.47437 25.1503 9.1955 23.5979 10.5711 23.2375C11.9467 22.8771 13.4556 23.8453 13.9422 25.4003Z" fill="white"/>
<path d="M193.373 106.581C193.091 106.854 193.149 112.265 196.688 111.705C199.634 111.24 199.277 107.524 199.277 107.524C199.277 107.524 203.193 109.84 204.062 106.216C204.931 102.592 200.874 102.267 200.874 102.267C200.874 102.267 204.613 100.194 201.949 97.7212C199.339 95.2983 197.409 98.7716 197.409 98.7716C197.409 98.7716 194.014 94.2811 191.462 96.2021C188.91 98.1231 192.277 101.529 192.277 101.529C192.277 101.529 187.844 101.567 188.601 104.725C189.359 107.882 193.373 106.581 193.373 106.581Z" fill="#A0D2F4"/>
<path d="M198.942 102.4C199.428 103.955 198.707 105.507 197.332 105.868C195.956 106.228 194.447 105.259 193.961 103.705C193.474 102.15 194.196 100.598 195.571 100.237C196.947 99.8771 198.456 100.845 198.942 102.4Z" fill="white"/>
</svg>
