<svg width="122" height="156" viewBox="0 0 122 156" fill="none" xmlns="http://www.w3.org/2000/svg">
<path d="M76.637 111.392L33.6305 111.214C33.6305 111.214 18.59 135.65 16.0667 155.374L53.0861 155.551L54.6239 152.058L56.0982 155.644H91.1447C91.1456 155.644 94.5208 132.837 76.637 111.392Z" fill="#1E1E1E"/>
<path d="M42.8738 120.319C42.841 118.244 43.0827 116.165 43.5917 114.146C50.8605 115.226 58.365 115.485 64.6348 114.811C65.1503 116.83 65.3838 118.865 65.0924 120.926C57.3682 121.464 49.2588 121.418 42.8738 120.319Z" fill="#D1E1F2"/>
<path d="M78.5721 119.022C79.3237 118.171 77.9806 114.963 76.8539 113.622L67.6277 114.583C68.1488 116.186 68.4963 118.885 68.125 120.529C68.125 120.529 78.3903 119.228 78.5721 119.022Z" fill="#D1E1F2"/>
<path d="M34.8334 112.858C34.8334 112.858 32.601 116.583 33.2495 118.026C34.1431 120.014 39.7472 120.014 39.7472 120.014C39.6091 117.962 39.8707 115.887 40.5152 113.921L34.8334 112.858Z" fill="#D1E1F2"/>
<path d="M56.5555 114.795C55.4011 114.332 54.1776 113.91 52.9416 113.737C52.3847 113.659 51.634 113.582 51.2329 114.066C50.9165 114.447 50.8444 115.035 50.7762 115.506C50.5499 117.066 50.5443 118.686 50.6946 120.252C50.7477 120.807 50.7995 121.402 51.0127 121.923C51.2251 122.442 51.6258 122.517 52.1538 122.528C53.6168 122.557 55.1101 122.324 56.556 122.117C57.0645 122.044 56.8482 121.279 56.3431 121.351C55.2245 121.512 54.0714 121.651 52.9304 121.714C52.6243 121.732 52.3157 121.746 52.0091 121.729C51.9003 121.724 51.8516 121.698 51.7734 121.704C51.694 121.711 51.7195 121.679 51.795 121.73C51.8041 121.736 51.8192 121.709 51.8187 121.755C51.8192 121.661 51.6992 121.478 51.6573 121.305C51.5986 121.062 51.5597 120.813 51.5295 120.564C51.3572 119.139 51.3585 117.668 51.4906 116.24C51.5377 115.729 51.5835 115.163 51.7868 114.684C51.773 114.717 51.8429 114.575 51.8675 114.542C51.8503 114.565 51.8822 114.535 51.9133 114.526C52.1546 114.457 52.4067 114.471 52.655 114.496C53.9091 114.622 55.1792 115.094 56.3423 115.561C56.8206 115.753 57.0282 114.985 56.5555 114.795Z" fill="#1A6980"/>
<path d="M51.2628 119.026C52.779 118.76 54.3293 118.729 55.8571 118.912C56.0725 118.937 56.2577 118.711 56.2577 118.515C56.2577 118.279 56.073 118.143 55.8571 118.118C54.2541 117.926 52.6387 117.982 51.0495 118.261C50.8363 118.299 50.7162 118.557 50.7698 118.749C50.8319 118.972 51.0491 119.064 51.2628 119.026Z" fill="#1A6980"/>
<path d="M25.0855 135.392C31.3876 133.889 36.9015 129.768 40.0957 124.179C40.35 123.734 39.658 123.333 39.4037 123.779C36.307 129.197 30.9818 133.169 24.8726 134.627C24.3714 134.747 24.5834 135.512 25.0855 135.392Z" fill="#D1E1F2"/>
<path d="M54.8752 146.675C53.8741 139.21 53.2213 131.496 53.9876 123.979C54.0394 123.471 53.2377 123.475 53.1864 123.979C52.4197 131.496 53.0724 139.21 54.074 146.675C54.1409 147.175 54.943 147.181 54.8752 146.675Z" fill="#D1E1F2"/>
<path d="M59.9675 126.762C60.4294 133.106 60.8913 139.45 61.3533 145.794C61.4513 145.667 61.5493 145.539 61.6473 145.411C59.3151 146.126 56.9118 146.416 54.4743 146.279C53.9589 146.25 53.9606 147.044 54.4743 147.073C56.9778 147.214 59.465 146.912 61.8605 146.178C62.0194 146.129 62.1675 145.97 62.1545 145.795C61.6926 139.451 61.2307 133.107 60.7687 126.762C60.732 126.255 59.9303 126.251 59.9675 126.762Z" fill="#D1E1F2"/>
<path d="M71.9127 126.518C73.8792 133.689 80.2271 139.365 87.6409 140.527C88.1456 140.606 88.3627 139.841 87.8537 139.762C80.705 138.64 74.585 133.234 72.6855 126.307C72.5503 125.815 71.7767 126.024 71.9127 126.518Z" fill="#D1E1F2"/>
<path d="M112.481 72.9142C111.384 70.4567 107.601 69.845 106.172 67.5313C104.848 65.39 106.007 62.5813 104.917 60.3361C103.454 57.3238 98.8736 56.8015 96.4232 54.3672C92.4423 50.4135 95.6823 43.5485 92.4821 39.054C90.6365 36.4623 87.0092 35.2368 85.2055 32.6211C83.8944 30.7193 83.7446 28.3756 83.4873 26.1479C82.8281 20.4382 81.1353 14.652 77.2477 10.1088C73.3601 5.56566 66.9496 2.4884 60.6651 3.37299L48.0759 92.4103C54.072 92.1579 106.769 83.8 109.916 79.7903C111.537 77.7242 113.529 75.2634 112.481 72.9142Z" fill="#1E1E1E"/>
<path d="M78.3 15.7778C77.9969 21.1696 80.4128 26.6838 84.2486 30.4716C86.3605 32.5568 88.8273 33.8842 91.5027 35.1306C95.4162 36.9537 97.7444 39.2225 98.5491 43.5595C99.4803 48.5792 100.181 52.8366 105.58 54.6901C108.625 55.7359 111.933 55.9152 114.743 57.6001C118.155 59.6465 120.157 62.9855 120.985 66.7801C121.13 67.4448 122.089 67.1476 121.993 66.5046C121.268 61.6351 117.836 57.3939 113.193 55.614C110.452 54.5635 107.413 54.4274 104.749 53.175C100.955 51.3921 100.364 47.846 99.7286 44.131C99.359 41.97 98.9044 39.7401 97.519 37.9662C95.7089 35.6487 92.8384 34.6939 90.2783 33.4487C83.1693 29.9916 79.3257 23.4081 78.5227 15.7774C78.5081 15.6383 78.3082 15.6336 78.3 15.7778Z" fill="#1E1E1E"/>
<path d="M83.8292 42.8969C79.3947 44.1044 75.4285 46.7445 72.6582 50.3873C69.6574 54.3329 68.2301 59.341 68.5923 64.2572C68.6294 64.7636 69.4316 64.7679 69.3936 64.2572C69.0469 59.5497 70.3706 54.7978 73.2004 50.9874C75.8529 47.4157 79.7375 44.835 84.0425 43.6626C84.539 43.5274 84.3279 42.7613 83.8292 42.8969Z" fill="#D1E1F2"/>
<path d="M77.4028 46.642C80.3324 43.2833 84.909 41.4059 89.3773 41.7293C90.6124 41.8187 92.0388 42.228 92.4619 43.3813C92.847 44.4314 92.1411 45.6291 91.1611 46.1813C90.1807 46.734 89.0052 46.7969 87.8775 46.8294C83.6648 46.9504 81.6013 47.0039 77.4028 46.642Z" fill="#D1E1F2"/>
<path d="M72.6521 50.6869C75.4867 49.8896 79.4473 49.1739 81.9426 50.7271C82.9908 51.3794 84.0144 52.6396 83.4199 53.7154C82.9243 54.6128 81.6641 54.6842 80.6384 54.5666C77.5931 54.2167 74.6259 53.2111 72.002 51.6399" fill="#D1E1F2"/>
<path d="M73.8318 49.22C73.6367 46.8396 74.0334 42.3717 76.1985 40.2C77.1077 39.2876 78.6415 38.3756 79.6241 38.8436C80.4439 39.2341 80.2371 40.3018 79.8866 41.1774C78.8457 43.776 77.1435 46.3301 74.931 48.6122" fill="#D1E1F2"/>
<path d="M7.66479 78.9965C7.66479 78.9965 22.217 59.908 27.7745 54.8319C33.3315 49.7562 46.8865 48.1572 46.8865 48.1572L63.8697 48.4297C63.8697 48.4297 82.5801 51.8445 88.7122 60.7682C94.8443 69.692 105.384 85.116 104.426 86.9925C103.468 88.8691 90.8786 95.2918 90.8786 95.2918L81.4236 88.0452C81.4236 88.0452 82.7541 108.768 78.3468 111.201C73.9394 113.634 32.7962 113.496 30.4356 109.215C27.6087 104.088 28.1242 91.5408 28.1242 91.5408C28.1242 91.5408 11.4976 88.1894 7.66479 78.9965Z" fill="#1A6980"/>
<path d="M82.5582 87.6936C84.3278 81.7594 86.988 76.1297 90.4473 70.9783C90.734 70.5518 90.0398 70.1536 89.7553 70.5775C86.2593 75.7832 83.5736 81.4865 81.7854 87.4827C81.6391 87.9738 82.4123 88.1838 82.5582 87.6936Z" fill="#D1E1F2"/>
<path d="M83.8299 83.1854C86.0261 79.1457 89.4776 75.787 93.594 73.6841C93.9351 73.51 94.3249 73.3402 94.6901 73.457C95.4314 73.694 95.3585 74.7595 95.0692 75.476C93.2072 80.0872 88.4575 83.4057 83.4487 83.5952" fill="#D1E1F2"/>
<path d="M88.6384 73.9077C91.7299 70.4814 93.7339 66.1059 94.3012 61.5447C94.4272 60.5293 94.4083 59.3268 93.5889 58.704C92.7181 58.0423 91.3699 58.4692 90.683 59.3174C89.9961 60.1657 89.7984 61.2919 89.6236 62.3656C89.0032 66.1739 88.3828 69.9822 87.7625 73.7909" fill="#D1E1F2"/>
<g opacity="0.3">
<path d="M32.0025 98.79C31.7935 98.6613 31.5984 98.5406 31.4024 98.4204C31.3951 98.0735 31.0993 98.1125 30.8856 98.041C30.6093 98.1035 30.3184 98.1377 30.1483 98.4089C30.1802 98.5009 30.2687 98.6305 30.2359 98.6775C29.9536 99.0847 30.2096 99.2764 30.4837 99.4693C30.6456 99.406 30.7661 99.3606 30.8856 99.314C30.8856 99.4201 30.8856 99.5262 30.8856 99.6327C31.4339 99.7974 31.9705 99.3418 32.0025 98.79Z" fill="#1E1E1E"/>
<path d="M46.5157 84.5352C46.9331 84.3804 47.5604 83.9184 47.0894 83.4778C46.9957 82.9842 46.9223 82.6193 46.3447 82.6625C45.7217 82.6561 45.4683 82.2972 45.3168 81.8511C45.1735 81.9259 45.0275 81.9927 44.8851 82.0709C44.6886 82.1787 44.5034 82.2857 44.3118 82.393C44.4391 82.4521 44.5764 82.4923 44.7314 82.4867C46.0339 82.4837 45.3721 84.3004 46.5157 84.5352Z" fill="#1E1E1E"/>
<path d="M55.5969 80.9502C55.0555 81.4926 55.258 82.4426 56.0143 82.5864C57.651 82.2993 57.0142 80.5746 55.5969 80.9502Z" fill="#1E1E1E"/>
<path d="M52.1273 90.2696C53.8909 90.1558 53.1315 87.949 52.0013 88.5808C51.194 89.1253 51.4478 89.722 52.1273 90.2696Z" fill="#1E1E1E"/>
<path d="M66.7566 92.9568C66.8114 93.1917 66.8706 93.4423 66.9267 93.6806C69.4638 95.0464 68.78 90.8301 66.7566 92.9568Z" fill="#1E1E1E"/>
<path d="M61.3856 95.8186C62.0595 95.8653 62.0595 95.8653 62.6725 95.5543C62.6725 95.2758 62.6725 94.9927 62.6725 94.7322C61.9351 93.9224 61.3696 94.043 60.9353 95.0363C61.111 95.3417 61.2509 95.5847 61.3856 95.8186Z" fill="#1E1E1E"/>
<path d="M69.4335 86.5244C68.941 86.6955 68.963 87.1707 68.7717 87.5904C69.9697 89.3531 71.6331 86.9278 69.4335 86.5244Z" fill="#1E1E1E"/>
<path d="M48.3224 80.9116C48.1139 80.9843 47.8911 81.0605 47.7629 81.1058C46.6016 82.3724 49.3745 83.2095 49.2903 81.5836C49.0563 81.2461 48.7442 81.022 48.3224 80.9116Z" fill="#1E1E1E"/>
<path d="M78.6887 86.1435L78.4076 85.5186C78.3796 85.5853 78.3515 85.6516 78.3196 85.732C78.4241 85.9001 78.5523 86.0336 78.6887 86.1435Z" fill="#1E1E1E"/>
<path d="M33.9159 96.9068C33.644 95.8053 31.9404 96.0384 32.1908 97.2173C32.4723 98.2024 33.7355 97.7554 33.9159 96.9068Z" fill="#1E1E1E"/>
<path d="M34.2021 98.9675L34.3744 98.769C34.3744 98.769 34.8722 98.6796 35.6203 98.5115C35.1113 97.7446 34.2686 98.029 34.2021 98.9675Z" fill="#1E1E1E"/>
<path d="M62.2183 90.6127C61.2068 90.2568 60.8312 91.8638 61.6415 92.1889C62.8991 92.2723 63.2259 91.4228 62.2183 90.6127Z" fill="#1E1E1E"/>
<path d="M58.1456 91.8751C58.5971 91.6907 58.8942 91.5444 59.0155 91.0268C56.9273 89.1345 56.5271 92.4684 58.1456 91.8751Z" fill="#1E1E1E"/>
<path d="M65.7757 86.5181C65.1933 86.6477 65.2222 87.1631 64.9844 87.4228C65.0522 88.7167 66.681 88.2787 66.6875 87.2123C66.4284 86.8701 66.1634 86.619 65.7757 86.5181Z" fill="#1E1E1E"/>
<path d="M54.9407 91.7836C55.0767 91.1745 55.0287 90.6377 54.3406 90.3203C52.5792 90.9281 53.5795 92.5232 54.9407 91.7836Z" fill="#1E1E1E"/>
<path d="M75.6842 82.473C75.8837 82.4067 76.0093 82.2912 76.0965 82.1595C75.7153 82.0119 75.2382 81.8344 74.6602 81.6338C74.5371 82.133 74.8294 82.5663 75.6842 82.473Z" fill="#1E1E1E"/>
<path d="M60.9988 83.6746C61.1671 83.9167 61.2418 84.1593 61.4719 84.3428C63.9474 84.5977 61.9356 81.1924 60.9988 83.6746Z" fill="#1E1E1E"/>
<path d="M76.4465 87.4128C76.668 87.6168 76.8234 87.8752 76.9262 88.1806C77.215 88.1806 77.496 88.1806 77.7736 88.1806C79.0131 87.0436 76.453 85.7522 76.4465 87.4128Z" fill="#1E1E1E"/>
<path d="M67.5451 90.1191C67.928 89.7667 68.5967 89.6311 68.462 89.0613C68.4357 88.6096 67.7644 88.11 67.4458 88.489C67.1893 88.9663 66.676 89.0968 66.708 89.7012C67.0158 89.9018 67.2157 89.9908 67.5451 90.1191Z" fill="#1E1E1E"/>
<path d="M32.3046 101.157L33.273 100.04C32.4583 99.8429 32.0806 100.492 32.3046 101.157Z" fill="#1E1E1E"/>
<path d="M45.9051 90.6543C45.8335 90.6804 45.7614 90.7082 45.6888 90.736C45.6944 90.8233 45.6893 90.9238 45.6841 91.0286C45.7592 90.902 45.8335 90.7771 45.9051 90.6543Z" fill="#1E1E1E"/>
<path d="M45.5144 89.5172C45.1146 88.9346 44.7313 88.4675 43.9736 88.7879C43.8985 89.0454 43.5359 89.1797 43.6183 89.5228C44.0289 89.8564 44.3868 90.2641 45.0089 90.2397C45.1686 90.0104 45.3327 89.776 45.5144 89.5172Z" fill="#1E1E1E"/>
<path d="M58.8633 87.6169C58.8542 86.6074 57.6925 86.1433 57.2664 87.1477C57.4317 87.504 57.6925 87.8355 57.4373 88.235C58.1255 88.5892 58.457 88.087 58.8633 87.6169Z" fill="#1E1E1E"/>
<path d="M58.0529 84.5776C58.3939 84.2919 58.6914 84.0433 59.0044 83.782C58.915 83.2404 58.4164 83.0304 58.1612 82.6416C57.4489 83.0638 57.319 83.2289 57.249 83.8265C57.6561 84.0143 57.8543 84.1768 58.0529 84.5776Z" fill="#1E1E1E"/>
<path d="M66.4833 80.1591C66.4492 79.9127 66.4203 79.6997 66.3914 79.4927C66.0205 79.4281 65.6436 79.3673 65.2611 79.3096C65.0949 79.3964 64.9356 79.4948 64.7983 79.6167C65.0142 80.6142 65.7857 81.089 66.4833 80.1591Z" fill="#1E1E1E"/>
<path d="M42.6324 92.1645C43.4086 91.8206 43.457 91.6867 43.1708 90.6734C42.414 90.3107 42.2551 90.3851 41.8152 91.3398C42.0928 91.9259 42.0928 91.9259 42.6324 92.1645Z" fill="#1E1E1E"/>
<path d="M38.8507 90.4678C38.0723 90.7916 37.9821 90.9263 38.0006 91.781C38.7877 92.2733 39.2366 91.9867 39.7154 91.4448C39.3994 90.7681 39.3994 90.7681 38.8507 90.4678Z" fill="#1E1E1E"/>
<path d="M33.772 92.9065C33.5112 92.6567 33.2647 92.421 32.9539 92.1216C32.6409 92.347 32.4103 92.5125 32.2048 92.6601C32.2048 92.9788 32.2048 93.2414 32.2048 93.5071C32.8369 94.2689 33.7275 93.827 33.772 92.9065Z" fill="#1E1E1E"/>
<path d="M76.0276 100.254C76.0768 100.318 76.126 100.381 76.1752 100.444C76.1407 100.38 76.0923 100.317 76.0276 100.254Z" fill="#1E1E1E"/>
<path d="M55.1072 83.2551C54.4588 82.723 53.5314 82.7684 53.2422 83.6145C53.8323 84.5038 55.3995 84.6441 55.1072 83.2551Z" fill="#1E1E1E"/>
<path d="M48.1721 88.6399L49.14 89.2396C49.1344 88.5513 48.6142 88.4474 48.1721 88.6399Z" fill="#1E1E1E"/>
<path d="M53.2654 79.8082C53.391 80.4349 53.9294 80.538 54.4405 80.7394C54.7216 80.3172 55.1671 79.996 54.9064 79.3629C54.6935 79.1923 54.5023 79.111 54.3244 79.0879C54.1914 79.105 54.058 79.1289 53.9251 79.1478C53.6829 79.2594 53.4674 79.4947 53.2654 79.8082Z" fill="#1E1E1E"/>
<path d="M44.7352 84.6401C44.4214 84.8005 44.0963 84.9665 43.7656 85.1355C43.7661 85.7882 44.0281 86.2096 44.6843 86.4397C44.9796 86.1129 45.309 85.8862 45.5391 85.4678C45.1864 85.2796 45.2149 84.7668 44.7352 84.6401Z" fill="#1E1E1E"/>
<path d="M81.2194 95.851C82.2819 95.3834 82.4213 94.3923 81.1145 94.2871C80.201 94.5237 80.0939 95.7928 81.2194 95.851Z" fill="#1E1E1E"/>
<path d="M77.2284 94.2727C76.0516 94.3805 76.5278 96.2057 77.655 95.7763C78.5667 95.5496 77.9416 94.2522 77.2284 94.2727Z" fill="#1E1E1E"/>
<path d="M82.6914 96.2059C82.0909 96.5588 82.1859 97.5392 82.8995 97.5936L83.2691 96.336L83.1478 96.0656C83.0049 96.0485 82.8503 96.0828 82.6914 96.2059Z" fill="#1E1E1E"/>
<path d="M63.913 93.9478C64.6352 94.0026 64.8157 92.9182 64.3516 92.514C63.0854 91.975 62.3951 93.6762 63.913 93.9478Z" fill="#1E1E1E"/>
<path d="M72.3653 92.8246C71.8788 92.3143 70.7896 92.4366 70.8189 93.2972C70.8738 94.7358 72.8152 93.79 72.3653 92.8246Z" fill="#1E1E1E"/>
<path d="M63.9298 80.8115C61.3603 81.8206 64.7514 83.6462 64.5878 81.3462C64.39 81.1858 64.1867 81.0203 63.9298 80.8115Z" fill="#1E1E1E"/>
<path d="M77.5792 84.3531C77.6789 84.3043 77.7492 84.2436 77.8041 84.1751L77.2467 82.9351C76.0988 82.8482 76.2849 85.0892 77.5792 84.3531Z" fill="#1E1E1E"/>
<path d="M74.5696 89.3236C74.7582 89.8164 75.06 90.4678 75.7477 90.2424C75.9057 89.8878 76.0292 89.6111 76.1535 89.3322C75.6549 87.8367 75.3311 88.501 74.5696 89.3236Z" fill="#1E1E1E"/>
<path d="M79.3535 88.375C78.592 88.4781 78.2177 89.5556 78.8109 90.0574C79.0764 90.0146 79.3574 89.968 79.6147 89.926C79.7736 89.6861 79.9225 89.4611 80.0753 89.2296L79.8966 88.8314C79.7153 88.6791 79.5383 88.5298 79.3535 88.375Z" fill="#1E1E1E"/>
<path d="M61.2837 87.0449C61.2837 87.3854 61.2837 87.6694 61.2837 87.9577C63.3037 89.1088 63.2432 85.5135 61.2837 87.0449Z" fill="#1E1E1E"/>
<path d="M41.4818 92.7214C40.8126 92.1842 40.1037 92.2235 39.9246 93.1624C40.2199 94.5954 41.4705 93.8563 41.4818 92.7214Z" fill="#1E1E1E"/>
<path d="M77.8198 99.6447C78.2839 99.2447 78.2714 98.3383 77.6303 98.1206C77.357 98.3537 76.9223 98.121 76.605 98.429C76.5864 99.1806 76.93 99.912 77.8198 99.6447Z" fill="#1E1E1E"/>
<path d="M79.3393 103.819C79.2167 103.878 79.0444 103.926 78.9011 103.999C79.2802 104.499 79.6048 104.928 79.8569 105.263C80.1617 104.596 80.0516 104.297 79.3393 103.819Z" fill="#1E1E1E"/>
<path d="M55.697 92.5092C55.4552 92.6897 55.3443 92.8792 55.3149 93.064L56.1352 93.5721C56.1352 93.5721 56.2651 93.7206 56.5095 93.949C57.0958 93.1311 56.9606 92.3984 55.697 92.5092Z" fill="#1E1E1E"/>
<path d="M69.6971 94.1206C69.4696 94.2652 69.2529 94.4038 68.9826 94.5745C68.9692 94.7071 68.9697 94.8225 68.9757 94.9312C69.303 94.743 69.6367 94.5295 69.9734 94.3037C69.8905 94.2421 69.8055 94.1805 69.6971 94.1206Z" fill="#1E1E1E"/>
<path d="M60.2533 80.896C59.8359 81.0615 59.3618 81.0598 59.2017 81.5487C59.5272 82.5189 59.6032 82.5672 60.5525 82.4043C60.6786 81.7323 61.071 81.3935 60.2533 80.896Z" fill="#1E1E1E"/>
<path d="M43.7407 93.0128C43.7325 93.3264 43.8309 93.5513 43.9786 93.7015C44.2661 93.2883 44.551 92.8571 44.826 92.4242C44.4656 92.4127 44.0045 92.6599 43.7407 93.0128Z" fill="#1E1E1E"/>
<path d="M66.9145 85.1348C66.6369 85.4997 66.9577 85.815 67.1964 86.0832C67.6601 86.9459 68.3207 86.1165 68.4761 85.5438C68.4977 84.9325 67.2293 84.6549 66.9145 85.1348Z" fill="#1E1E1E"/>
<path d="M73.9684 90.6498C73.383 90.5275 72.9698 90.6426 72.8589 91.2714C73.0994 91.6863 73.0994 91.6863 73.0445 92.1294C73.6692 92.3395 74.0012 91.8664 74.3893 91.6174C74.4964 91.1251 74.1592 90.9069 73.9684 90.6498Z" fill="#1E1E1E"/>
<path d="M78.0642 90.8599C77.3545 90.4903 76.9107 90.5271 76.6266 91.0849C76.3758 92.6351 78.5257 92.3079 78.0642 90.8599Z" fill="#1E1E1E"/>
<path d="M56.1411 90.2688C56.8603 89.8775 57.1323 89.1858 56.5102 88.5989C55.6921 88.3923 55.443 88.8898 55.2449 89.4758C55.5043 89.8133 55.9235 89.8565 56.1411 90.2688Z" fill="#1E1E1E"/>
<path d="M36.8233 90.1673C37.9181 90.2148 37.8011 88.4126 36.683 88.7317C35.671 88.8964 35.8679 90.166 36.8233 90.1673Z" fill="#1E1E1E"/>
<path d="M69.0135 83.0436C69.0161 83.4812 68.5926 83.8892 69.0795 84.3559C70.7917 84.7204 70.79 82.3883 69.0135 83.0436Z" fill="#1E1E1E"/>
<path d="M63.2377 96.4544C63.2313 96.516 63.2261 96.5648 63.2205 96.6174C63.6047 96.6161 64.0027 96.5896 64.4133 96.5379C64.0878 96.2051 63.5861 96.0737 63.2377 96.4544Z" fill="#1E1E1E"/>
<path d="M75.4426 96.1929C74.8909 96.355 74.5015 96.6903 74.4363 97.3388C75.5246 98.2901 77.0865 96.7297 75.4426 96.1929Z" fill="#1E1E1E"/>
<path d="M35.8881 94.9174C35.6399 94.5208 35.2828 94.3532 35.0052 94.0952C34.3784 94.3484 34.3957 94.9204 34.1807 95.3704C34.9405 96.1446 35.4503 95.7579 35.8881 94.9174Z" fill="#1E1E1E"/>
<path d="M65.253 95.6596C66.6043 96.2011 66.8693 94.9893 65.9144 94.1685C65.117 94.4602 64.6318 95.1459 65.253 95.6596Z" fill="#1E1E1E"/>
<path d="M51.4822 85.5125C51.5543 85.7153 51.6143 85.8859 51.6872 86.0913C54.284 87.1025 52.4453 83.1496 51.4822 85.5125Z" fill="#1E1E1E"/>
<path d="M42.8218 94.1519C42.3866 94.2438 42.0831 94.5146 41.8345 94.9107C41.8716 95.2123 42.1073 95.5442 42.3698 95.7264C42.6694 95.4172 42.9828 95.0441 43.3006 94.6305C43.2384 94.4667 43.089 94.314 42.8218 94.1519Z" fill="#1E1E1E"/>
<path d="M43.3474 86.9718C42.3009 86.5034 41.1724 87.2053 42.3911 88.063C43.1579 88.5553 43.8914 87.7888 43.3474 86.9718Z" fill="#1E1E1E"/>
<path d="M54.047 88.3872C54.6013 88.0608 55.2825 87.8033 54.7463 87.0864C54.5322 86.3956 54.0331 86.6522 53.5371 86.8862C53.8035 87.503 53.3264 88.0685 54.047 88.3872Z" fill="#1E1E1E"/>
<path d="M74.2129 83.2208C74.0359 82.8859 73.6357 83.0083 73.4034 82.7939C71.3126 83.5553 74.4758 85.6355 74.2129 83.2208Z" fill="#1E1E1E"/>
<path d="M71.0603 81.0168C70.2262 81.5784 71.2109 82.5456 71.9319 82.321C73.1191 81.8077 71.9587 80.7644 71.0603 81.0168Z" fill="#1E1E1E"/>
<path d="M66.2927 83.0155C66.0673 82.9551 65.8678 82.9021 65.6839 82.8521C65.418 83.095 65.1853 83.3072 64.9617 83.5112C65.1003 85.1662 67.1669 84.3013 66.2927 83.0155Z" fill="#1E1E1E"/>
<path d="M59.7804 84.9754C59.6293 85.0623 59.4281 85.0648 59.2623 85.1025C58.5767 85.8284 59.7601 86.5478 60.3381 86.1363C61.1787 85.8429 60.5652 84.5605 59.7804 84.9754Z" fill="#1E1E1E"/>
<path d="M36.8999 97.7562C37.6917 97.8422 37.8873 96.8378 37.3209 96.3424C36.1336 95.9724 35.6363 97.5222 36.8999 97.7562Z" fill="#1E1E1E"/>
<path d="M35.7278 90.8737C35.43 90.7227 35.177 90.5948 34.9179 90.4644C34.6991 90.6154 34.507 90.748 34.3304 90.8699C34.257 91.1697 34.1896 91.4443 34.124 91.7121C34.8536 92.5176 35.7097 91.7664 35.7278 90.8737Z" fill="#1E1E1E"/>
<path d="M43.4065 83.4726C43.3496 83.3024 43.2485 83.1724 43.1307 83.0688C42.7119 83.314 42.3052 83.5573 41.9106 83.7994C42.275 84.5318 43.5214 84.2413 43.4065 83.4726Z" fill="#1E1E1E"/>
<path d="M79.2346 94.0975C79.6607 93.9247 79.7574 93.5401 80.007 93.2368C79.874 92.1846 77.8031 92.3843 78.4554 93.3857C78.8012 93.538 78.9272 93.9003 79.2346 94.0975Z" fill="#1E1E1E"/>
<path d="M81.1861 103.428L81.5837 102.074C81.5228 102.034 81.4511 101.992 81.3562 101.937C79.9246 102.35 80.4223 103.434 81.1861 103.428Z" fill="#1E1E1E"/>
<path d="M74.3726 94.9446C74.0117 94.2969 73.4583 94.4052 72.8616 94.4924C72.54 96.0832 73.7609 96.3065 74.3726 94.9446Z" fill="#1E1E1E"/>
<path d="M40.944 86.4183C41.8066 85.4576 41.3736 83.9917 39.9221 85.3207C39.784 85.8537 40.4795 86.4585 40.944 86.4183Z" fill="#1E1E1E"/>
<path d="M39.8508 89.5283C40.5648 90.2627 41.2694 89.9141 41.5081 88.9876C40.8744 88.3006 39.5153 88.5179 39.8508 89.5283Z" fill="#1E1E1E"/>
<path d="M59.6225 88.6416C59.4588 88.832 59.3073 89.0086 59.1074 89.2413C60.2316 91.8061 61.6502 88.6386 59.6225 88.6416Z" fill="#1E1E1E"/>
<path d="M60.957 79.7919C61.0762 80.1084 61.2053 80.3959 61.5256 80.5443C62.3256 80.4348 62.3817 79.7718 62.7007 79.2627C62.1822 78.6622 61.267 79.2345 60.957 79.7919Z" fill="#1E1E1E"/>
<path d="M75.5747 92.4033C75.1218 92.7451 74.637 92.7147 74.4863 93.326C75.5164 94.6717 77.1146 93.033 75.5747 92.4033Z" fill="#1E1E1E"/>
<path d="M70.7704 85.1217C70.5852 85.9875 71.4038 86.9213 72.1407 86.0606C72.1407 85.7616 72.1407 85.4541 72.1407 85.1281C71.6749 84.9947 71.241 85.0054 70.7704 85.1217Z" fill="#1E1E1E"/>
<path d="M79.2992 97.9066C80.0957 97.2162 80.0957 97.2162 79.7162 96.5156C78.7807 96.3299 78.0744 96.7423 78.6805 97.7094C78.886 97.7753 79.107 97.845 79.2992 97.9066Z" fill="#1E1E1E"/>
<path d="M49.8003 83.1446C49.6971 83.3323 49.6211 83.4696 49.5637 83.5757C49.6315 84.0535 49.995 84.2546 50.3503 84.5548C51.7603 84.0227 51.1296 82.8165 49.8003 83.1446Z" fill="#1E1E1E"/>
<path d="M48.3996 84.5942C46.3148 85.3458 49.2691 87.198 49.1676 85.1576C49.0264 84.8462 48.7415 84.7149 48.3996 84.5942Z" fill="#1E1E1E"/>
<path d="M51.1332 79.9633C51.1336 79.8841 51.1125 79.7922 51.0788 79.6968C50.6333 79.8059 50.189 79.9265 49.7461 80.0586C49.9253 80.5189 50.5819 80.563 51.1332 79.9633Z" fill="#1E1E1E"/>
<path d="M74.4822 85.4546C74.7421 85.7835 75.0192 86.0517 75.3145 86.2754C75.9479 86.225 76.0826 85.7938 76.1499 85.2989C75.8999 84.3501 74.9385 84.8681 74.4822 85.4546Z" fill="#1E1E1E"/>
<path d="M56.7512 85.9652C56.7512 85.5618 56.7512 85.2616 56.7512 84.9771C56.0186 84.7649 54.9747 84.9557 55.1651 85.8728C55.7 86.2308 56.1853 85.9404 56.7512 85.9652Z" fill="#1E1E1E"/>
<path d="M53.0704 82.0149C52.9996 80.9909 51.7334 80.3561 51.4502 81.6466C51.9985 82.4097 52.2053 82.4564 53.0704 82.0149Z" fill="#1E1E1E"/>
<path d="M80.2173 100.792C79.9622 100.457 79.7191 100.192 79.3677 99.9888C78.7612 100.254 78.7612 100.254 78.4758 100.659C78.611 100.904 78.7456 101.148 78.8739 101.379C79.4269 101.504 79.9324 101.235 80.2173 100.792Z" fill="#1E1E1E"/>
<path d="M37.1768 92.3936C36.7658 92.4727 36.2931 92.3221 36.0552 92.7336C35.949 93.5583 37.1941 94.1884 37.6513 93.43C37.501 93.0848 37.5036 92.6669 37.1768 92.3936Z" fill="#1E1E1E"/>
<path d="M46.1874 88.1743C46.9403 88.1961 46.9481 88.1897 47.2645 87.2025C46.2478 85.8952 45.4612 87.0403 46.1874 88.1743Z" fill="#1E1E1E"/>
<path d="M58.7648 95.0443C58.6349 94.1691 58.2956 94.365 57.5729 94.3547C57.4917 94.4659 57.4386 94.5754 57.4023 94.6845C57.708 94.9082 58.0659 95.1435 58.4734 95.3711C58.5775 95.271 58.6755 95.1636 58.7648 95.0443Z" fill="#1E1E1E"/>
<path d="M70.3904 91.4416C70.3031 90.4757 69.3758 90.3995 68.8733 91.1515C68.518 92.1315 70.0804 92.2898 70.3904 91.4416Z" fill="#1E1E1E"/>
<path d="M77.3794 102.004C77.6168 102.314 77.8461 102.613 78.0667 102.903C78.2234 102.367 77.8685 102.02 77.3794 102.004Z" fill="#1E1E1E"/>
<path d="M39.8801 97.0131C39.9 97.0918 39.9224 97.1619 39.9466 97.2265C40.4824 97.0101 40.9763 96.7744 41.3911 96.5199C40.864 96.2457 40.2864 96.5669 39.8801 97.0131Z" fill="#1E1E1E"/>
<path d="M80.3928 91.1473C80.6868 91.1922 80.6229 91.4724 80.6993 91.6636C80.8241 91.7029 81.0261 91.7615 81.2308 91.7996L80.7058 90.6318C80.5625 90.7443 80.4481 90.9005 80.3928 91.1473Z" fill="#1E1E1E"/>
<path d="M70.8555 88.6782C70.9919 89.3895 71.6041 90.5911 72.3095 89.6821C72.4533 89.3647 71.845 89.1979 72.1325 88.8416C71.9507 88.398 71.3269 88.4994 70.8555 88.6782Z" fill="#1E1E1E"/>
<path d="M81.1348 99.7908C81.5203 99.7609 81.4473 99.4439 81.5596 99.2587C81.6779 99.0632 81.9308 98.9524 81.9516 98.6799C81.7711 98.437 81.5855 98.221 81.3346 98.1089C80.2083 98.1568 80.4937 99.2976 81.1348 99.7908Z" fill="#1E1E1E"/>
<path d="M50.7941 87.5893C50.7941 87.2941 50.7941 87.0324 50.7941 86.6632C49.0724 85.9471 49.4264 89.2712 50.7941 87.5893Z" fill="#1E1E1E"/>
<path d="M63.3529 88.674C63.4544 88.8516 63.5411 89.0043 63.6603 89.2113C62.5737 89.9196 63.637 90.3619 64.3929 89.8474C64.4779 89.5437 64.5531 89.2737 64.6485 88.9333C64.1684 88.9469 63.9159 88.3173 63.3529 88.674Z" fill="#1E1E1E"/>
<path d="M72.9606 87.7861C73.9242 88.4786 74.557 87.8665 74.0096 86.798C73.3888 86.6401 72.4378 87.1269 72.9606 87.7861Z" fill="#1E1E1E"/>
<path d="M63.4155 86.0799C63.7203 86.0632 63.9409 86.1423 64.2172 86.2818C64.3161 86.0213 64.3968 85.8065 64.4819 85.5798C64.0704 84.1451 62.6816 84.871 63.4155 86.0799Z" fill="#1E1E1E"/>
<path d="M38.0634 94.6646C37.8333 95.2168 38.2775 95.9422 38.853 95.9855C39.2381 95.7352 39.3132 95.2737 39.5588 94.866C39.068 94.5354 38.5918 94.807 38.0634 94.6646Z" fill="#1E1E1E"/>
<path d="M57.9368 79.1607C57.1667 79.1371 57.4796 79.9216 57.6441 80.3703C58.7523 81.2032 59.0411 79.2967 57.9368 79.1607Z" fill="#1E1E1E"/>
<path d="M70.183 80.5191C70.2046 80.4523 70.2262 80.3847 70.2478 80.3176C69.8744 80.2231 69.4884 80.1302 69.0925 80.0396C69.2479 80.6696 69.5407 80.6405 70.183 80.5191Z" fill="#1E1E1E"/>
<path d="M66.8451 81.4247C66.4298 81.9821 67.6788 82.4552 68.1891 82.2678C68.6726 81.2511 67.6058 80.9213 66.8451 81.4247Z" fill="#1E1E1E"/>
<path d="M38.9953 88.055C39.4063 88.0699 39.4422 87.5977 39.3998 87.19C39.2595 86.5249 38.6301 86.8945 38.1379 87.0386C38.0438 87.6234 38.2938 88.1332 38.9953 88.055Z" fill="#1E1E1E"/>
<path d="M60.5048 92.6861C60.276 92.5706 60.0735 92.4684 59.8879 92.376C58.1494 93.2747 61.2102 94.8488 60.5048 92.6861Z" fill="#1E1E1E"/>
<path d="M66.5865 91.5015C66.4808 91.3296 66.1799 91.5268 66.1488 91.2487C66.1522 91.2445 66.1553 91.2423 66.1591 91.2381L66.1488 91.2479C66.2088 91.0901 66.2697 90.9318 66.3305 90.7739C64.7116 90.0438 64.5717 93.0359 66.1483 91.2496C66.1147 91.4258 66.0201 91.6975 65.9476 91.9785C66.28 91.8716 66.6275 91.9366 66.5865 91.5015Z" fill="#1E1E1E"/>
<path d="M29.9534 102.928C30.1503 103.038 30.3294 103.139 30.503 103.237L31.4899 102.098C31.2822 102.071 31.0815 102.045 30.8855 102.02C30.3998 101.793 29.8748 102.465 29.9534 102.928Z" fill="#1E1E1E"/>
<path d="M30.8854 95.813C30.8854 95.7604 30.8854 95.7074 30.8854 95.6543C31.8062 95.929 32.1563 94.9225 31.4755 94.3813C31.2424 94.3813 31.0637 94.3813 30.8854 94.3813C30.8854 94.487 30.8854 94.5935 30.8854 94.6992C29.8061 93.8441 29.829 96.1369 30.8854 95.813Z" fill="#1E1E1E"/>
<path d="M29.0017 100.197V101.585C29.9329 101.504 29.9398 100.389 29.0017 100.197Z" fill="#1E1E1E"/>
<path d="M29.0017 103.929V104.968L29.6273 104.247C29.5107 104.13 29.3052 104.031 29.0017 103.929Z" fill="#1E1E1E"/>
<path d="M29.7153 96.5843C29.4839 96.423 29.2309 96.3464 29.0017 96.3379V97.7503C29.4468 97.6806 29.904 97.1361 29.7153 96.5843Z" fill="#1E1E1E"/>
</g>
<path d="M27.2978 69.775C27.5961 71.3756 28.7475 73.0319 29.7072 74.3267C29.6459 74.2441 29.7236 74.0979 29.6744 74.3584C29.6308 74.5898 29.6494 74.8503 29.6373 75.0855C29.5945 75.9085 29.5509 76.732 29.5056 77.555C29.2293 82.6046 28.7156 87.6504 28.6046 92.706C28.5187 96.6199 28.6003 100.535 28.6007 104.45C28.6007 104.961 29.402 104.962 29.402 104.45C29.402 100.93 29.3368 97.4104 29.3852 93.8913C29.4275 90.8093 29.6325 87.7488 29.8661 84.6766C30.028 82.5447 30.1489 80.4098 30.2676 78.2753C30.3194 77.3484 30.369 76.421 30.4174 75.4936C30.4385 75.0902 30.5499 74.5881 30.4843 74.1873C30.4001 73.6727 29.8644 73.135 29.5933 72.703C28.9936 71.7478 28.28 70.6878 28.0706 69.5645C27.9769 69.0619 27.2046 69.2745 27.2978 69.775Z" fill="#1E1E1E"/>
<path d="M53.0675 113.188C59.3545 107.586 64.8187 100.609 68.9753 93.326C69.119 93.074 68.7447 92.8614 68.5859 93.1005C63.8599 100.222 58.6448 106.69 52.906 113.028C52.8076 113.136 52.9578 113.285 53.0675 113.188Z" fill="#1E1E1E"/>
<path d="M62.9034 106.966C65.0714 104.899 67.2257 102.824 69.3549 100.717C69.6014 100.473 69.2146 100.089 68.9724 100.338C66.879 102.482 64.8193 104.65 62.7678 106.832C62.6832 106.921 62.814 107.052 62.9034 106.966Z" fill="#1E1E1E"/>
<path d="M49.738 9.8223C56.6527 0.613625 71.3215 2.11247 76.2245 12.512C77.7752 15.801 78.3964 20.138 78.1624 25.9093C77.5088 42.0112 63.7501 41.7571 63.7501 41.7571L60.966 54.0721L46.8865 50.2082L48.2382 33.9805C48.2382 33.9805 46.5756 21.956 47.7395 14.3787C47.9981 12.6934 48.7252 11.171 49.738 9.8223Z" fill="#FFBF9D"/>
<path d="M63.8693 3.28126C63.8693 3.28126 56.7322 12.2098 52.1414 18.2744C47.5505 24.3391 55.5273 30.459 53.7202 40.5779C52.4436 47.7253 47.4936 48.032 45.2814 48.5859C43.0693 49.1398 42.496 49.2339 42.496 49.2339C42.496 49.2339 31.1104 39.3922 40.1181 17.2098C44.2604 7.00956 54.856 -0.926981 63.8693 3.28126Z" fill="#1E1E1E"/>
<path d="M55.7439 12.8088C57.864 11.5366 60.0593 11.7582 62.3676 12.1239C62.8283 12.1971 63.1926 11.5704 62.7104 11.3185C60.3442 10.0814 57.5096 10.9523 55.4982 12.3921C55.2491 12.5701 55.4702 12.973 55.7439 12.8088Z" fill="#1E1E1E"/>
<path d="M63.8577 25.5914C64.3943 27.6506 67.0998 28.1943 68.8051 27.2643C69.3275 26.9795 68.8681 26.2745 68.3501 26.4931C66.6569 27.2075 65.4101 26.5692 64.159 25.4177C64.0282 25.2971 63.8115 25.4156 63.8577 25.5914Z" fill="#1E1E1E"/>
<path d="M56.3246 39.4168C58.9628 41.4508 62.2508 42.3487 65.5806 42.1271C66.0775 42.0942 66.0887 41.3516 65.5806 41.3529C62.3198 41.3618 59.3466 40.6573 56.3687 39.3608C56.335 39.3463 56.2897 39.3899 56.3246 39.4168Z" fill="#1E1E1E"/>
<path opacity="0.3" d="M58.6644 23.4067C60.3713 23.4067 61.755 22.6968 61.755 21.821C61.755 20.9453 60.3713 20.2354 58.6644 20.2354C56.9575 20.2354 55.5737 20.9453 55.5737 21.821C55.5737 22.6968 56.9575 23.4067 58.6644 23.4067Z" fill="#ED796A"/>
<path opacity="0.3" d="M76.9113 21.8948C76.9113 22.7704 75.5276 23.4804 73.8206 23.4804C72.1136 23.4804 70.73 22.7704 70.73 21.8948C70.73 21.0192 72.1136 20.3091 73.8206 20.3091C75.5276 20.3091 76.9113 21.0192 76.9113 21.8948Z" fill="#ED796A"/>
<path d="M63.2035 4.03985C64.7352 2.75103 66.1162 1.42285 68.1216 0.895429C70.1152 0.371003 71.9673 0.717058 73.9113 1.25902C74.232 1.34842 74.4406 0.88217 74.1405 0.720052C70.5396 -1.22452 64.8103 0.0330805 63.1184 3.97483C63.0947 4.03001 63.1543 4.08091 63.2035 4.03985Z" fill="#1E1E1E"/>
<path d="M70.4891 -3.69722C65.9816 -3.53895 62.5378 -0.472813 61.7378 3.92492C61.6476 4.41983 62.4135 4.63157 62.5028 4.13409C63.2264 0.100379 66.4301 -2.90416 70.5098 -3.54494C70.5975 -3.55905 70.5763 -3.70021 70.4891 -3.69722Z" fill="#1E1E1E"/>
<path d="M43.6576 21.5249C42.7445 21.0737 41.5905 21.2764 40.772 21.8796C39.9535 22.4827 39.4428 23.4289 39.198 24.4101C38.7913 26.0416 39.1134 27.8955 40.2596 29.1343C41.4053 30.373 43.4158 30.8329 44.8893 30.0009" fill="#FFBF9D"/>
<path d="M41.6273 26.1364C41.9455 25.8977 42.6013 25.7476 42.9928 25.7587C43.5312 25.7741 43.8921 26.0444 44.2543 26.4072C44.5725 26.7258 45.1454 26.3109 44.8915 25.9199C44.5047 25.3249 43.7928 24.9618 43.0779 24.9755C42.7381 24.9819 42.3677 25.0764 42.0811 25.2612C41.7642 25.4657 41.6938 25.7258 41.5242 26.0346C41.4918 26.094 41.5634 26.1843 41.6273 26.1364Z" fill="#1E1E1E"/>
<path d="M72.6464 10.7276C70.8211 8.85494 67.7974 9.13127 66.4897 11.3864C64.6183 14.6134 66.2376 19.7233 68.1277 22.594C68.4575 23.0949 69.1944 22.6607 68.932 22.1281C67.7983 19.8268 66.7324 17.4323 66.6793 14.8183C66.6102 11.3928 69.2631 9.22837 72.4202 11.0177C72.605 11.122 72.7941 10.8791 72.6464 10.7276Z" fill="#1E1E1E"/>
<path d="M42.7283 49.1826C42.7283 49.1826 45.6031 54.0273 56.5133 54.4033C66.4492 54.7459 68.2124 49.4448 68.2124 49.4448C68.2124 49.4448 60.5991 46.5416 48.075 48.0593C46.7246 48.2231 44.1991 48.8275 42.7283 49.1826Z" fill="#FFBF9D"/>
<path d="M56.7085 17.6623C57.7705 18.9318 60.2261 19.2989 61.5238 18.1786C61.7794 17.9579 61.5035 17.5793 61.2108 17.646C60.4407 17.8218 59.8293 18.0943 59.0108 18.052C58.2212 18.0113 57.5697 17.7166 56.8488 17.4236C56.7011 17.3633 56.6286 17.5665 56.7085 17.6623Z" fill="#1E1E1E"/>
<path d="M69.3494 17.3283C69.7496 18.0384 70.933 18.0281 71.6315 17.8977C72.5087 17.7338 73.3791 17.25 73.7162 16.4052C73.8639 16.0356 73.3575 15.8615 73.1136 16.0575C72.5333 16.5237 72.0477 16.9669 71.2844 17.1123C70.664 17.2304 70.0117 16.9874 69.4194 17.1576C69.346 17.179 69.3123 17.2624 69.3494 17.3283Z" fill="#1E1E1E"/>
<path d="M61.362 53.0666C63.0306 49.8093 64.1509 45.85 64.3995 42.2047C64.4241 41.8424 63.859 41.7774 63.7679 42.12C62.8177 45.6934 61.9271 49.3529 61.093 52.9541C61.0568 53.1085 61.283 53.2206 61.362 53.0666Z" fill="#1E1E1E"/>
<path d="M51.8683 15.3304C49.4701 19.4847 51.0679 23.8808 53.0762 27.8631C54.7513 31.1838 56.8835 34.8415 56.1211 38.7033C55.3859 42.4264 52.5392 45.2864 48.9357 46.3836C48.6356 46.4751 48.7613 46.9379 49.066 46.8515C53.6655 45.5503 57.0294 41.3579 56.7566 36.5247C56.3491 29.3055 47.802 22.7801 51.9723 15.3903C52.0099 15.3235 51.9072 15.2637 51.8683 15.3304Z" fill="#1E1E1E"/>
<path d="M41.2204 51.4053C48.6066 58.6788 61.087 58.888 69.009 52.3652C69.3345 52.0974 68.9045 51.5392 68.5535 51.7804C59.788 57.8113 49.9056 57.4092 41.4427 51.12C41.2731 50.9942 41.0762 51.2633 41.2204 51.4053Z" fill="#1E1E1E"/>
<path d="M74.53 67.8782C73.3717 69.0888 72.8381 70.8584 72.4366 72.4458C72.3161 72.9227 73.069 73.1264 73.1787 72.6485C73.5474 71.0389 74.2601 69.5208 74.5908 67.9133C74.5973 67.8799 74.5563 67.8504 74.53 67.8782Z" fill="#1E1E1E"/>
<path d="M68.3419 58.7527C69.416 59.1305 72.9802 60.9523 72.7048 65.708C72.4738 69.6951 63.0543 89.8213 58.4742 89.572C53.8942 89.3226 39.1032 74.0762 38.3037 68.9145C37.5046 63.7528 40.9324 60.545 44.8511 60.847C48.7697 61.149 53.6632 63.7155 55.4574 66.6709C55.4574 66.6717 58.8576 55.4171 68.3419 58.7527Z" fill="#D1E1F2"/>
<path d="M23.6115 90.0136C20.2088 89.2907 16.047 87.2097 11.9553 84.2607C7.88721 93.1627 0.692697 110.308 0.893012 114.673C1.16327 120.56 3.65987 126.358 11.0206 127.25C19.423 128.268 29.5014 104.332 31.7459 94.4507L26.0076 86.7361L23.6115 90.0136Z" fill="#FFBF9D"/>
<path d="M44.1351 85.0986C44.1351 85.0986 52.421 81.1496 52.5703 81.1128C52.7197 81.076 53.9587 80.8335 54.0429 79.1477C54.1271 77.4619 51.9513 77.8255 51.9513 77.8255C55.2517 76.1949 52.9304 74.2696 52.9304 74.2696C52.9304 74.2696 54.0334 73.8256 53.0793 72.3764C52.1257 70.9267 47.976 71.6958 47.976 71.6958L49.3446 71.0452C50.0811 70.5161 51.5869 69.682 50.783 68.1904C49.9373 66.621 46.4732 67.6018 42.8058 69.9634C39.6288 72.0098 37.8968 73.45 37.937 73.4278C37.937 73.4278 38.1373 69.528 35.8816 71.0465C33.6259 72.565 27.2671 84.1375 27.3483 84.4613C27.3483 84.4613 19.6539 95.0559 19.5865 95.2924C18.528 99.0062 27.3448 107.194 27.3448 107.194C27.3448 107.194 31.3473 95.5559 31.6028 95.1752C31.6028 95.1752 36.7795 94.8249 38.5129 90.8917C39.5054 88.6379 42.4674 85.8925 44.1351 85.0986Z" fill="#FFBF9D"/>
<path d="M43.3342 81.312C46.0527 79.7507 49.0103 78.6625 52.0967 78.0786C52.6026 77.9828 52.3885 77.2175 51.8838 77.3129C48.734 77.9088 45.7043 79.0333 42.9301 80.6263C42.4833 80.8825 42.8865 81.569 43.3342 81.312Z" fill="#FFAC9D"/>
<path d="M41.0427 79.1288C44.4947 76.5443 48.6188 74.9462 52.9321 74.5677C53.4419 74.5232 53.4467 73.7284 52.9321 73.7733C48.4802 74.1639 44.2063 75.7709 40.6382 78.4427C40.2319 78.7477 40.6308 79.4376 41.0427 79.1288Z" fill="#FFAC9D"/>
<path d="M39.744 76.188C41.9755 73.8431 44.8935 72.2446 48.0821 71.6102C48.5876 71.5097 48.3735 70.744 47.8693 70.8445C44.5559 71.5033 41.4954 73.1908 39.1776 75.6264C38.8236 75.9981 39.3895 76.561 39.744 76.188Z" fill="#FFAC9D"/>
<path d="M31.9486 79.2742C33.6564 76.916 35.7675 74.7626 38.1605 73.0824C38.578 72.7894 38.1782 72.1003 37.756 72.3967C35.2434 74.1608 33.0499 76.3975 31.2565 78.8734C30.9552 79.2891 31.6502 79.6861 31.9486 79.2742Z" fill="#FFAC9D"/>
<path d="M11.1525 110.481C15.7304 102.61 20.6205 94.9267 25.8425 87.4594C26.1369 87.0385 25.4427 86.6407 25.1504 87.0586C19.9284 94.5259 15.0384 102.209 10.4605 110.08C10.2023 110.524 10.8948 110.924 11.1525 110.481Z" fill="#FFAC9D"/>
<path d="M93.0835 94.4113C92.5555 94.6227 101.137 89.5752 101.137 89.5752C106.077 98.5687 110.551 107.022 110.683 111.152C110.873 117.042 108.835 123.013 101.565 124.466C93.2674 126.124 82.3589 101.702 79.3516 92.0228L83.5595 81.6831L93.0835 94.4113Z" fill="#FFBF9D"/>
<path d="M66.4232 82.028C66.4232 82.028 58.1373 78.079 57.9879 78.0422C57.8385 78.0055 56.5995 77.7629 56.5153 76.0771C56.4311 74.3914 58.607 74.755 58.607 74.755C55.3065 73.1244 57.6278 71.199 57.6278 71.199C57.6278 71.199 56.5248 70.755 57.4789 69.3058C58.4326 67.8561 62.5822 68.6252 62.5822 68.6252L61.2137 67.9746C60.4772 67.4455 58.9713 66.6114 59.7752 65.1194C60.6209 63.5504 64.085 64.5308 67.7524 66.8929C70.9294 68.9392 72.6614 70.3795 72.6213 70.3572C72.6213 70.3572 72.421 66.4574 74.6767 67.9759C76.9324 69.4949 83.2911 81.0669 83.2099 81.3907C83.2099 81.3907 98.9705 103.666 99.0379 103.902C100.097 107.616 83.2691 101.468 83.2691 101.468C83.2691 101.468 79.3284 92.902 78.9822 92.1547C78.9671 92.1222 78.9377 92.1034 78.9019 92.0999C78.348 92.0495 73.6755 91.5186 72.0458 87.8207C71.0533 85.5673 68.0913 82.822 66.4232 82.028Z" fill="#FFBF9D"/>
<path d="M67.6293 77.5555C64.8546 75.9621 61.8253 74.838 58.6755 74.2421C58.1717 74.1467 57.9554 74.912 58.4627 75.0078C61.549 75.5917 64.5062 76.6799 67.2252 78.2412C67.6716 78.4982 68.0757 77.8121 67.6293 77.5555Z" fill="#DBA9A9"/>
<path d="M69.9203 75.3729C66.3522 72.7011 62.0782 71.094 57.6264 70.7035C57.1126 70.6586 57.1156 71.4529 57.6264 71.4978C61.9396 71.876 66.0638 73.4741 69.5158 76.059C69.9272 76.3665 70.327 75.6774 69.9203 75.3729Z" fill="#DBA9A9"/>
<path d="M71.3808 72.555C69.0629 70.1194 66.0025 68.4319 62.689 67.7732C62.1852 67.6731 61.9698 68.4383 62.4762 68.5388C65.6649 69.1728 68.5828 70.7713 70.8143 73.1162C71.1688 73.4892 71.7348 72.9272 71.3808 72.555Z" fill="#DBA9A9"/>
<path d="M79.3018 75.8029C77.5085 73.3271 75.3149 71.0904 72.8024 69.3263C72.3806 69.0303 71.9799 69.7186 72.3978 70.012C74.7908 71.6922 76.9019 73.8455 78.6098 76.2037C78.9081 76.6157 79.6036 76.2196 79.3018 75.8029Z" fill="#DBA9A9"/>
<path d="M82.6552 82.2835C89.6598 90.3202 96.0668 98.8534 101.826 107.808C102.102 108.238 102.796 107.841 102.518 107.408C96.7226 98.3962 90.2702 89.809 83.2216 81.7219C82.884 81.3348 82.3193 81.8981 82.6552 82.2835Z" fill="#DBA9A9"/>
<path d="M46.9763 68.1338C47.3139 68.8041 47.9938 69.2999 48.7316 69.4509C49.4573 69.5993 50.5884 69.4658 50.7939 68.6052C50.8436 68.3965 50.7279 68.1749 50.5142 68.1167C50.3108 68.0615 50.0712 68.1847 50.0212 68.3939C50.0207 68.396 49.9905 68.4893 50.0013 68.4645C50.0169 68.429 49.9581 68.5154 49.9957 68.4743C49.9439 68.5312 49.9154 68.553 49.88 68.5731C49.7604 68.642 49.6805 68.6617 49.5243 68.6955C49.5087 68.6989 49.4591 68.7066 49.5027 68.7006C49.4673 68.7053 49.431 68.7079 49.3952 68.7104C49.3235 68.7151 49.2519 68.7156 49.1798 68.7126C49.0321 68.7066 48.9838 68.6989 48.818 68.6553C48.3142 68.5214 47.9053 68.204 47.6679 67.7326C47.5712 67.5405 47.2975 67.4871 47.1196 67.5901C46.9228 67.7048 46.8792 67.9413 46.9763 68.1338Z" fill="#1E1E1E"/>
<path d="M49.8538 71.705C49.941 72.4031 50.2803 73.0143 50.8502 73.4395C51.4145 73.86 52.1531 73.9896 52.8374 73.8523C53.0433 73.8108 53.1806 73.558 53.1171 73.3638C53.0463 73.1478 52.8447 73.0421 52.6241 73.0866C52.5913 73.093 52.5589 73.0994 52.5261 73.1046C52.483 73.1119 52.5671 73.1029 52.4942 73.1076C52.4277 73.1119 52.3616 73.1161 52.2947 73.1157C52.2282 73.1153 52.1618 73.111 52.0957 73.105C51.9705 73.093 52.1678 73.1213 52.0443 73.0969C52.018 73.0917 51.9921 73.087 51.9662 73.0815C51.901 73.0674 51.8367 73.0503 51.7736 73.0302C51.7356 73.0182 51.6981 73.0045 51.6605 72.9908C51.6402 72.9831 51.607 72.9673 51.6459 72.9852C51.5189 72.9275 51.398 72.8586 51.2854 72.7769C51.2301 72.7367 51.3514 72.8351 51.2616 72.7573C51.2379 72.7367 51.2137 72.7162 51.1904 72.6948C51.1438 72.652 51.0993 72.6071 51.057 72.5601C51.0358 72.5365 51.0155 72.5126 50.9953 72.4882C51.0307 72.5305 50.9905 72.4826 50.9771 72.4634C50.94 72.4121 50.9055 72.3594 50.8735 72.3047C50.8411 72.2504 50.8118 72.1948 50.7846 72.1374C50.7738 72.1152 50.7513 72.0587 50.7721 72.1109C50.7604 72.0818 50.7496 72.0519 50.7393 72.0224C50.7185 71.9629 50.7008 71.9022 50.6857 71.841C50.6784 71.8102 50.6715 71.7798 50.6654 71.7486C50.662 71.7319 50.6464 71.6237 50.6568 71.705C50.6313 71.4996 50.491 71.2973 50.2562 71.308C50.0593 71.3166 49.8262 71.4842 49.8538 71.705Z" fill="#1E1E1E"/>
<path d="M35.7077 61.3083C34.4531 60.5991 32.9486 60.0434 31.5719 59.6264C31.2921 59.5417 31.0888 59.9861 31.3681 60.1055C32.7008 60.6735 34.2071 61.2172 35.6335 61.4828C35.7358 61.5016 35.8074 61.3648 35.7077 61.3083Z" fill="#1E1E1E"/>
<path d="M29.7608 58.3224C29.7418 58.3207 29.7223 58.3186 29.7033 58.3169C29.797 58.3875 29.8907 58.458 29.984 58.5286C29.9512 58.3567 29.7871 58.2271 29.6114 58.2271C29.5134 58.2271 29.4106 58.2694 29.3416 58.3378C29.2755 58.4033 29.2254 58.5111 29.2298 58.6052C29.2341 58.7031 29.2664 58.8045 29.3416 58.8725C29.4145 58.9388 29.5099 58.988 29.6114 58.9833C29.6451 58.9786 29.6792 58.9743 29.7128 58.9696C29.7625 58.9581 29.8057 58.9354 29.8428 58.902C29.9158 58.846 29.9667 58.7733 29.984 58.6818C29.8903 58.7523 29.7966 58.8229 29.7033 58.8935C29.7223 58.8918 29.7418 58.8896 29.7608 58.8879C29.8385 58.8802 29.9058 58.8614 29.9628 58.8049C30.0125 58.7558 30.0496 58.6753 30.0466 58.6048C30.0431 58.5316 30.0189 58.4559 29.9628 58.4046C29.9434 58.3896 29.9244 58.375 29.905 58.3601C29.8601 58.3353 29.8121 58.3224 29.7608 58.3224Z" fill="#1E1E1E"/>
<path d="M37.3247 59.9827C36.5122 59.0917 35.7753 58.1494 34.9339 57.2797C34.181 56.5017 33.4466 55.5559 32.5361 54.9618C32.1804 54.7295 31.6809 55.2009 31.9356 55.5568C32.5685 56.4409 33.5394 57.1339 34.3528 57.8559C35.2616 58.6622 36.2377 59.3612 37.1671 60.1389C37.2759 60.2295 37.4219 60.0892 37.3247 59.9827Z" fill="#1E1E1E"/>
<path d="M39.2596 58.7801C39.1474 58.1248 38.897 57.4969 38.6772 56.8711C38.4933 56.3471 38.3858 55.7397 37.983 55.3401C37.7775 55.1365 37.4158 55.2884 37.4136 55.5737C37.4093 56.1383 37.7668 56.6499 38.0064 57.1508C38.2922 57.7484 38.5577 58.3691 38.941 58.9127C39.0563 59.0774 39.2929 58.9747 39.2596 58.7801Z" fill="#1E1E1E"/>
<path d="M72.1797 58.4207C72.7202 57.7063 73.2961 57.0181 73.8651 56.3255C74.169 55.9551 73.6069 55.5248 73.341 55.9252C72.8341 56.6879 72.3329 57.4561 71.7959 58.1982C71.6271 58.4309 72.0109 58.6435 72.1797 58.4207Z" fill="#1E1E1E"/>
<path d="M73.3875 59.9861C75.1968 59.238 76.9698 58.415 78.7666 57.6382C79.245 57.4312 78.8279 56.6728 78.3479 56.9286C76.646 57.8345 74.9218 58.6935 73.2346 59.6268C73.0438 59.7321 73.1755 60.0734 73.3875 59.9861Z" fill="#1E1E1E"/>
<path d="M74.5208 62.4498C75.4917 62.3955 76.6724 62.6697 77.6032 62.3373C77.9033 62.23 77.9918 61.7034 77.6032 61.6422C76.5995 61.4844 75.5102 61.9571 74.5208 62.0863C74.2945 62.1162 74.279 62.4635 74.5208 62.4498Z" fill="#1E1E1E"/>
</svg>
