<svg width="25" height="24" viewBox="0 0 25 24" fill="none" xmlns="http://www.w3.org/2000/svg">
<path fill-rule="evenodd" clip-rule="evenodd" d="M11.4862 1.21065C11.8473 0.929784 12.3529 0.929784 12.714 1.21065L21.714 8.21065C21.9576 8.4001 22.1001 8.69141 22.1001 9V20C22.1001 20.7957 21.784 21.5587 21.2214 22.1213C20.6588 22.6839 19.8957 23 19.1001 23H5.1001C4.30445 23 3.54139 22.6839 2.97878 22.1213C2.41617 21.5587 2.1001 20.7957 2.1001 20V9C2.1001 8.69141 2.24257 8.4001 2.48616 8.21065L11.4862 1.21065ZM4.1001 9.48908V20C4.1001 20.2652 4.20545 20.5196 4.39299 20.7071C4.58053 20.8946 4.83488 21 5.1001 21H19.1001C19.3653 21 19.6197 20.8946 19.8072 20.7071C19.9947 20.5196 20.1001 20.2652 20.1001 20V9.48908L12.1001 3.26686L4.1001 9.48908Z" fill="#AEAEAE"/>
<path fill-rule="evenodd" clip-rule="evenodd" d="M8.1001 12C8.1001 11.4477 8.54781 11 9.1001 11H15.1001C15.6524 11 16.1001 11.4477 16.1001 12V22C16.1001 22.5523 15.6524 23 15.1001 23C14.5478 23 14.1001 22.5523 14.1001 22V13H10.1001V22C10.1001 22.5523 9.65238 23 9.1001 23C8.54781 23 8.1001 22.5523 8.1001 22V12Z" fill="#AEAEAE"/>
</svg>
