<svg width="20" height="20" viewBox="0 0 20 20" fill="none" xmlns="http://www.w3.org/2000/svg">
<g clip-path="url(#clip0_899_1773)">
<path d="M1.6665 9.99984C1.6665 14.6022 5.39746 18.3332 9.99984 18.3332C14.6022 18.3332 18.3332 14.6022 18.3332 9.99984C18.3332 5.39746 14.6022 1.6665 9.99984 1.6665C5.39746 1.6665 1.6665 5.39746 1.6665 9.99984Z" stroke="#1E1E1E" stroke-width="1.5" stroke-linecap="round" stroke-linejoin="round"/>
<path d="M10.8335 1.70801C10.8335 1.70801 13.3335 5.00019 13.3335 10.0002C13.3335 15.0002 10.8335 18.2924 10.8335 18.2924" stroke="#1E1E1E" stroke-width="1.5" stroke-linecap="round" stroke-linejoin="round"/>
<path d="M9.1665 18.2924C9.1665 18.2924 6.6665 15.0002 6.6665 10.0002C6.6665 5.00019 9.1665 1.70801 9.1665 1.70801" stroke="#1E1E1E" stroke-width="1.5" stroke-linecap="round" stroke-linejoin="round"/>
<path d="M2.19141 12.9165H17.8087" stroke="#1E1E1E" stroke-width="1.5" stroke-linecap="round" stroke-linejoin="round"/>
<path d="M2.19141 7.0835H17.8087" stroke="#1E1E1E" stroke-width="1.5" stroke-linecap="round" stroke-linejoin="round"/>
</g>
<defs>
<clipPath id="clip0_899_1773">
<rect width="20" height="20" fill="white"/>
</clipPath>
</defs>
</svg>
