<svg width="16" height="16" viewBox="0 0 16 16" fill="none" xmlns="http://www.w3.org/2000/svg">
<path d="M8 0C4.66667 0 2 2 2 4.5V6.5C0.866667 6.5 0 7.15 0 8V14.5C0 15.35 0.866667 16 2 16H14C15.1333 16 16 15.35 16 14.5V8C16 7.15 15.1333 6.5 14 6.5V4.5C14 2 11.3333 0 8 0ZM14.6667 8V14.5C14.6667 14.8 14.4 15 14 15H2C1.6 15 1.33333 14.8 1.33333 14.5V8C1.33333 7.7 1.6 7.5 2 7.5H2.66667H13.3333H14C14.4 7.5 14.6667 7.7 14.6667 8ZM3.33333 6.5V4.5C3.33333 2.55 5.4 1 8 1C10.6 1 12.6667 2.55 12.6667 4.5V6.5H3.33333Z" fill="#B3B3B3"/>
<path d="M8 9C6.86667 9 6 9.65 6 10.5C6 11.15 6.53333 11.7 7.33333 11.9V13C7.33333 13.3 7.6 13.5 8 13.5C8.4 13.5 8.66667 13.3 8.66667 13V11.9C9.46667 11.7 10 11.15 10 10.5C10 9.65 9.13333 9 8 9ZM8 11C7.6 11 7.33333 10.8 7.33333 10.5C7.33333 10.2 7.6 10 8 10C8.4 10 8.66667 10.2 8.66667 10.5C8.66667 10.8 8.4 11 8 11Z" fill="#B3B3B3"/>
</svg>
