<svg width="185" height="111" viewBox="0 0 185 111" fill="none" xmlns="http://www.w3.org/2000/svg">
<g clip-path="url(#clip0_899_1801)">
<path d="M141.641 109.745C139.272 107.736 137.833 104.563 138.211 101.475C138.588 98.3857 140.925 95.5462 143.956 94.8902C146.987 94.2343 150.442 96.05 151.363 99.0216C151.87 93.2925 152.454 87.3233 155.489 82.4444C158.237 78.0267 162.997 74.8656 168.156 74.3001C173.314 73.7346 178.746 75.8705 181.963 79.9568C185.181 84.0431 185.968 89.9837 183.715 94.6751C182.055 98.1311 178.997 100.703 175.793 102.796C165.439 109.5 153.02 112.226 140.823 110.473L141.641 109.745Z" fill="#F2F2F2"/>
<path d="M176.862 75.9888C172.605 79.4683 168.7 83.3598 165.203 87.6071C159.731 94.2313 155.302 101.658 152.072 109.629C151.836 110.211 152.776 110.464 153.01 109.889C158.295 96.9343 166.732 85.5164 177.55 76.6793C178.035 76.2823 177.343 75.5951 176.862 75.9888Z" fill="white"/>
<path d="M59.5545 109.199C62.8076 106.44 64.7836 102.082 64.2654 97.8398C63.7472 93.5973 60.5376 89.6972 56.3743 88.7963C52.211 87.8954 47.4651 90.3892 46.2005 94.4707C45.5046 86.6018 44.7026 78.4031 40.5339 71.7019C36.7592 65.6342 30.2214 61.2925 23.1359 60.5157C16.0504 59.739 8.59021 62.6726 4.17123 68.2852C-0.24775 73.8977 -1.32972 82.0571 1.76522 88.5008C4.04515 93.2476 8.2456 96.7802 12.6466 99.6542C26.6874 108.823 44.1049 112.647 60.678 110.2" fill="#F2F2F2"/>
<path d="M11.178 62.8355C17.0245 67.6146 22.388 72.9595 27.1909 78.7932C31.9946 84.6208 36.2238 90.9023 39.819 97.5494C41.8286 101.278 43.6338 105.114 45.2266 109.041C45.5514 109.839 44.2591 110.187 43.9379 109.397C41.1166 102.475 37.6261 95.8473 33.5165 89.6087C29.4268 83.3927 24.746 77.5895 19.5397 72.2806C16.595 69.2793 13.4881 66.4428 10.2331 63.7839C9.56587 63.2387 10.5164 62.2948 11.178 62.8355Z" fill="white"/>
<path d="M132.796 110.757H55.1812V30.837C55.1812 13.8334 68.9652 0 85.9081 0H102.069C119.012 0 132.796 13.8334 132.796 30.837V110.757Z" fill="#F2F2F2"/>
<path d="M116.635 110.757H55.1813V30.8371C55.1643 24.3217 57.2201 17.971 61.0493 12.7096C61.1905 12.5165 61.3313 12.3259 61.4765 12.1374C63.3286 9.69951 65.5328 7.55247 68.0161 5.76718C68.1564 5.66474 68.2973 5.56409 68.4402 5.46343C70.5182 4.02026 72.766 2.8405 75.1325 1.951C75.2731 1.89755 75.4162 1.84399 75.5592 1.79261C77.6995 1.02608 79.9182 0.501009 82.1742 0.227094C82.3141 0.20792 82.4577 0.192915 82.6013 0.177911C84.7998 -0.0580016 87.0171 -0.0580016 89.2157 0.177911C89.3589 0.192915 89.5024 0.207918 89.644 0.227299C91.8994 0.501232 94.1175 1.02624 96.2573 1.79262C96.4004 1.844 96.5435 1.89755 96.6844 1.95111C99.0217 2.82939 101.243 3.99155 103.299 5.41165C103.442 5.51012 103.585 5.61078 103.726 5.71143C105.118 6.70862 106.425 7.81954 107.635 9.03286C108.605 10.0061 109.509 11.0435 110.341 12.1381C110.485 12.3259 110.626 12.5165 110.767 12.7093C114.596 17.9708 116.652 24.3216 116.635 30.8371V110.757Z" fill="#CCCCCC"/>
<path d="M111.638 75.0116C113.517 75.0116 115.04 73.4829 115.04 71.5971C115.04 69.7113 113.517 68.1826 111.638 68.1826C109.759 68.1826 108.236 69.7113 108.236 71.5971C108.236 73.4829 109.759 75.0116 111.638 75.0116Z" fill="#1A6980"/>
<path d="M126.438 108.363H123.831L122.59 98.272L126.438 98.2722L126.438 108.363Z" fill="#FFB8B8"/>
<path d="M121.968 107.616H126.996V110.793H118.803C118.803 110.375 118.885 109.962 119.044 109.577C119.203 109.191 119.436 108.841 119.73 108.546C120.024 108.251 120.373 108.017 120.757 107.858C121.141 107.698 121.553 107.616 121.968 107.616Z" fill="#2F2E41"/>
<path d="M139.409 108.363H136.802L135.562 98.272L139.409 98.2722L139.409 108.363Z" fill="#FFB8B8"/>
<path d="M134.94 107.616H139.968V110.793H131.774C131.774 110.375 131.856 109.962 132.015 109.577C132.174 109.191 132.408 108.841 132.702 108.546C132.996 108.251 133.345 108.017 133.729 107.858C134.113 107.698 134.524 107.616 134.94 107.616Z" fill="#2F2E41"/>
<path d="M113.36 72.2735C113.173 71.9962 113.048 71.6809 112.995 71.35C112.942 71.0191 112.962 70.6806 113.053 70.3583C113.145 70.0359 113.305 69.7376 113.524 69.4844C113.743 69.2311 114.014 69.0291 114.319 68.8925L123.181 44.3794L127.542 46.7677L117.423 70.1933C117.618 70.7226 117.613 71.3053 117.408 71.8308C117.203 72.3563 116.813 72.7882 116.312 73.0446C115.812 73.301 115.234 73.3642 114.69 73.222C114.146 73.0799 113.673 72.7424 113.36 72.2735Z" fill="#FFB8B8"/>
<path d="M138.077 76.8797C137.788 76.713 137.538 76.4845 137.346 76.2105C137.153 75.9364 137.023 75.6234 136.965 75.2934C136.906 74.9635 136.92 74.6247 137.006 74.3008C137.092 73.9769 137.248 73.6759 137.462 73.419L134.717 47.4883L139.679 47.7158L140.82 73.222C141.227 73.6121 141.476 74.1382 141.522 74.7007C141.567 75.2631 141.406 75.8227 141.068 76.2736C140.73 76.7244 140.238 77.0351 139.687 77.1468C139.136 77.2585 138.563 77.1635 138.077 76.8797Z" fill="#FFB8B8"/>
<path d="M130.16 39.8393C133.045 39.8393 135.383 37.4927 135.383 34.5979C135.383 31.7031 133.045 29.3564 130.16 29.3564C127.276 29.3564 124.938 31.7031 124.938 34.5979C124.938 37.4927 127.276 39.8393 130.16 39.8393Z" fill="#FFB8B8"/>
<path d="M138.044 70.9826H122.298L122.317 70.8596C122.346 70.6758 125.124 52.4131 123.075 46.4384C122.869 45.8513 122.887 45.2086 123.125 44.634C123.364 44.0594 123.805 43.5936 124.365 43.3262C127.294 41.9422 132.915 40.238 137.66 44.3739C138.358 44.9925 138.903 45.7657 139.252 46.6322C139.601 47.4988 139.745 48.4349 139.671 49.3667L138.044 70.9826Z" fill="#1A6980"/>
<path d="M125.323 55.1118L118.234 53.6685L121.557 45.7662C121.756 45.0008 122.249 44.3458 122.928 43.9449C123.608 43.544 124.418 43.4298 125.181 43.6275C125.944 43.8253 126.598 44.3187 126.999 44.9995C127.4 45.6804 127.516 46.4931 127.321 47.2595L125.323 55.1118Z" fill="#1A6980"/>
<path d="M134.402 57.7917L133.975 47.9876C133.652 46.1446 134.703 44.4023 136.32 44.1176C137.938 43.8338 139.517 45.1121 139.841 46.9686L141.443 56.1296L134.402 57.7917Z" fill="#1A6980"/>
<path d="M137.52 69.8086C140.054 79.4922 140.33 91.8041 139.647 105.234L136.244 104.807L130.078 79.1984L126.675 105.234L122.848 105.02C121.704 90.9293 120.591 78.8324 122.422 70.8756L137.52 69.8086Z" fill="#2F2E41"/>
<path d="M133.602 38.6487C132.628 39.6903 130.818 39.1311 130.691 37.7082C130.681 37.5977 130.682 37.4865 130.693 37.3762C130.759 36.7459 131.122 36.1736 131.035 35.5081C131.015 35.3425 130.954 35.1846 130.856 35.0495C130.08 34.0061 128.257 35.5162 127.524 34.5717C127.075 33.9925 127.603 33.0806 127.258 32.4332C126.803 31.5788 125.455 32.0003 124.61 31.5324C123.67 31.0118 123.726 29.5637 124.345 28.6829C125.1 27.6087 126.424 27.0355 127.731 26.9529C129.038 26.8703 130.337 27.2249 131.557 27.7023C132.944 28.2446 134.319 28.9941 135.172 30.2178C136.21 31.7059 136.31 33.7065 135.791 35.4466C135.475 36.5051 134.398 37.7981 133.602 38.6487Z" fill="#2F2E41"/>
<path d="M178.617 110.894H21.6231C21.556 110.894 21.4918 110.867 21.4445 110.82C21.3972 110.772 21.3706 110.708 21.3706 110.64C21.3706 110.573 21.3972 110.509 21.4445 110.461C21.4918 110.413 21.556 110.386 21.6231 110.386H178.617C178.684 110.386 178.748 110.413 178.795 110.461C178.843 110.509 178.869 110.573 178.869 110.64C178.869 110.708 178.843 110.772 178.795 110.82C178.748 110.867 178.684 110.894 178.617 110.894Z" fill="#3F3D56"/>
<path d="M99.73 87.6026H72.0863C71.7222 87.6045 71.3722 87.4615 71.1131 87.2048C70.854 86.9482 70.7069 86.5989 70.7041 86.2335V24.31C70.7069 23.9446 70.854 23.5953 71.1131 23.3387C71.3722 23.082 71.7222 22.939 72.0863 22.9409H99.73C100.094 22.939 100.444 23.082 100.703 23.3387C100.962 23.5953 101.109 23.9446 101.112 24.31V86.2335C101.109 86.5989 100.962 86.9482 100.703 87.2048C100.444 87.4615 100.094 87.6045 99.73 87.6026Z" fill="white"/>
<path d="M101.112 42.9775H70.7041V43.4043H101.112V42.9775Z" fill="#CCCCCC"/>
<path d="M101.219 67.3291H70.8105V67.7559H101.219V67.3291Z" fill="#CCCCCC"/>
<path d="M80.6982 22.9409H80.2729V87.8159H80.6982V22.9409Z" fill="#CCCCCC"/>
<path d="M91.3306 22.9409H90.9053V87.8159H91.3306V22.9409Z" fill="#CCCCCC"/>
</g>
<defs>
<clipPath id="clip0_899_1801">
<rect width="185" height="111" fill="white"/>
</clipPath>
</defs>
</svg>
