<svg width="70" height="70" viewBox="0 0 70 70" fill="none" xmlns="http://www.w3.org/2000/svg">
<rect x="0.5" y="0.5" width="69" height="69" rx="34.5" stroke="#D9D9D9"/>
<g clip-path="url(#clip0_508_862)">
<path d="M14.5859 33.5875C14.2109 33.9625 14 34.4688 14 35V43C14 43.5312 14.2109 44.0387 14.5859 44.4137C14.9609 44.7887 15.4688 45 16 45H18V33H16C15.4688 33 14.9613 33.2125 14.5859 33.5875ZM43 25H36V21C36 19.8987 35.1012 19 34 19C32.8988 19 32 19.8987 32 21V25H25C22.2375 25 20 27.2375 20 30V47C20 49.2113 21.7887 51 24 51H44C46.2113 51 48 49.2113 48 47V30C48 27.2375 45.7687 25 43 25ZM30 45H26V43H30V45ZM28 37.5C26.6187 37.5 25.5 36.3813 25.5 35C25.5 33.6187 26.6187 32.5 28 32.5C29.3813 32.5 30.5 33.6187 30.5 35C30.5 36.3813 29.3813 37.5 28 37.5ZM36 45H32V43H36V45ZM42 45H38V43H42V45ZM40 37.5C38.6175 37.5 37.5 36.3825 37.5 35C37.5 33.6175 38.6187 32.5 40 32.5C41.3813 32.5 42.5 33.6187 42.5 35C42.5 36.3813 41.3813 37.5 40 37.5ZM53.4125 33.5875C53.0375 33.2125 52.5312 33 52 33H50V45H52C52.5312 45 53.0387 44.7891 53.4137 44.4141C53.7887 44.0391 54 43.5312 54 43V35C54 34.4688 53.7875 33.9625 53.4125 33.5875Z" fill="#1A6980"/>
</g>
<defs>
<clipPath id="clip0_508_862">
<rect width="40" height="32" fill="white" transform="translate(14 19)"/>
</clipPath>
</defs>
</svg>
