<svg width="70" height="70" viewBox="0 0 70 70" fill="none" xmlns="http://www.w3.org/2000/svg">
<rect x="0.5" y="0.5" width="69" height="69" rx="34.5" stroke="#D9D9D9"/>
<path d="M35 17.5C35.9283 17.5 36.8185 17.8687 37.4749 18.5251C38.1313 19.1815 38.5 20.0717 38.5 21C38.5 22.295 37.8 23.4325 36.75 24.0275V26.25H38.5C41.7489 26.25 44.8647 27.5406 47.1621 29.8379C49.4594 32.1353 50.75 35.2511 50.75 38.5H52.5C52.9641 38.5 53.4093 38.6844 53.7374 39.0126C54.0656 39.3408 54.25 39.7859 54.25 40.25V45.5C54.25 45.9641 54.0656 46.4093 53.7374 46.7374C53.4093 47.0656 52.9641 47.25 52.5 47.25H50.75V49C50.75 49.9283 50.3813 50.8185 49.7249 51.4749C49.0685 52.1312 48.1783 52.5 47.25 52.5H22.75C21.8217 52.5 20.9315 52.1312 20.2751 51.4749C19.6187 50.8185 19.25 49.9283 19.25 49V47.25H17.5C17.0359 47.25 16.5908 47.0656 16.2626 46.7374C15.9344 46.4093 15.75 45.9641 15.75 45.5V40.25C15.75 39.7859 15.9344 39.3408 16.2626 39.0126C16.5908 38.6844 17.0359 38.5 17.5 38.5H19.25C19.25 35.2511 20.5406 32.1353 22.8379 29.8379C25.1353 27.5406 28.2511 26.25 31.5 26.25H33.25V24.0275C32.2 23.4325 31.5 22.295 31.5 21C31.5 20.0717 31.8688 19.1815 32.5251 18.5251C33.1815 17.8687 34.0717 17.5 35 17.5ZM27.125 36.75C25.9647 36.75 24.8519 37.2109 24.0314 38.0314C23.2109 38.8519 22.75 39.9647 22.75 41.125C22.75 42.2853 23.2109 43.3981 24.0314 44.2186C24.8519 45.0391 25.9647 45.5 27.125 45.5C28.2853 45.5 29.3981 45.0391 30.2186 44.2186C31.0391 43.3981 31.5 42.2853 31.5 41.125C31.5 39.9647 31.0391 38.8519 30.2186 38.0314C29.3981 37.2109 28.2853 36.75 27.125 36.75ZM42.875 36.75C41.7147 36.75 40.6019 37.2109 39.7814 38.0314C38.9609 38.8519 38.5 39.9647 38.5 41.125C38.5 42.2853 38.9609 43.3981 39.7814 44.2186C40.6019 45.0391 41.7147 45.5 42.875 45.5C44.0353 45.5 45.1481 45.0391 45.9686 44.2186C46.7891 43.3981 47.25 42.2853 47.25 41.125C47.25 39.9647 46.7891 38.8519 45.9686 38.0314C45.1481 37.2109 44.0353 36.75 42.875 36.75Z" fill="#1A6980"/>
</svg>
