<svg width="24" height="24" viewBox="0 0 24 24" fill="none" xmlns="http://www.w3.org/2000/svg">
<path d="M22.0475 18.9028C21.9682 18.7584 21.8517 18.638 21.71 18.5541L20.6947 17.9447C20.2984 17.7064 19.9705 17.3697 19.743 16.9672C19.5153 16.5647 19.3958 16.1102 19.3958 15.6478V10.1559C19.3948 8.56284 18.878 7.01292 17.9225 5.73816C16.9671 4.46337 15.6244 3.53232 14.0956 3.08438C14.0295 3.06555 13.9713 3.02584 13.9296 2.97117C13.888 2.9165 13.8652 2.84982 13.8645 2.78109C13.8645 2.29214 13.6703 1.82322 13.3245 1.47748C12.9788 1.13174 12.5099 0.9375 12.021 0.9375C11.532 0.9375 11.0631 1.13174 10.7173 1.47748C10.3716 1.82322 10.1773 2.29214 10.1773 2.78109C10.1767 2.8498 10.1538 2.91645 10.1122 2.9711C10.0705 3.02575 10.0123 3.06548 9.94622 3.08438C8.41744 3.53232 7.0748 4.46337 6.11934 5.73816C5.16389 7.01292 4.64703 8.56284 4.64608 10.1559V15.6469C4.64612 16.1092 4.52653 16.5638 4.29893 16.9663C4.07132 17.3687 3.74344 17.7055 3.34718 17.9437L2.33187 18.5531C2.15656 18.6578 2.02022 18.8168 1.94357 19.0061C1.86692 19.1954 1.85415 19.4044 1.90719 19.6016C1.96024 19.7988 2.0762 19.9733 2.23746 20.0985C2.39872 20.2237 2.59646 20.2929 2.80062 20.2955H21.2384C21.4 20.2916 21.558 20.2464 21.6971 20.164C21.8362 20.0816 21.9518 19.9649 22.0328 19.825C22.1139 19.6852 22.1577 19.5268 22.16 19.3652C22.1624 19.2036 22.1231 19.044 22.0461 18.9019L22.0475 18.9028Z" fill="#1E1E1E"/>
<path d="M10.4273 22.5523C10.7754 22.7986 11.1758 22.9607 11.5971 23.026C12.0184 23.0913 12.4491 23.058 12.8554 22.9287C13.2617 22.7994 13.6324 22.5777 13.9384 22.2809C14.2445 21.9841 14.4776 21.6204 14.6193 21.2183H9.42139C9.61114 21.756 9.96247 22.222 10.4273 22.5523Z" fill="#1E1E1E"/>
</svg>
