<svg width="16" height="17" viewBox="0 0 16 17" fill="none" xmlns="http://www.w3.org/2000/svg">
<g clip-path="url(#clip0_166_346)">
<path d="M7.9007 4.61959C8.63862 4.61959 9.23658 5.21755 9.23658 5.95546C9.23658 6.69338 8.63862 7.29134 7.9007 7.29134C7.16279 7.29134 6.56483 6.69338 6.56483 5.95546C6.56483 5.21755 7.16279 4.61959 7.9007 4.61959ZM7.9007 10.3448C9.79002 10.3448 11.7811 11.2735 11.7811 11.6807V12.3804H4.0203V11.6807C4.0203 11.2735 6.01139 10.3448 7.9007 10.3448ZM7.9007 3.41093C6.49485 3.41093 5.35617 4.54961 5.35617 5.95546C5.35617 7.36132 6.49485 8.49999 7.9007 8.49999C9.30656 8.49999 10.4452 7.36132 10.4452 5.95546C10.4452 4.54961 9.30656 3.41093 7.9007 3.41093ZM7.9007 9.13613C6.20223 9.13613 2.81165 9.98854 2.81165 11.6807V12.9529C2.81165 13.3028 3.09791 13.5891 3.44778 13.5891H12.3536C12.7035 13.5891 12.9898 13.3028 12.9898 12.9529V11.6807C12.9898 9.98854 9.59918 9.13613 7.9007 9.13613Z" fill="#B3B3B3"/>
</g>
<defs>
<clipPath id="clip0_166_346">
<rect width="15.2672" height="15.2672" fill="white" transform="translate(0.267212 0.866409)"/>
</clipPath>
</defs>
</svg>
