<svg width="32" height="32" viewBox="0 0 32 32" fill="none" xmlns="http://www.w3.org/2000/svg">
<path d="M5.99989 1.99984C5.49989 1.49984 4.21289 0.739839 2.99989 1.09984C1.39989 1.57484 0.399893 3.99984 1.39989 5.99984C1.73789 6.67484 2.28289 7.40384 2.86289 8.09584C3.26689 8.57684 3.68789 9.04084 4.06689 9.45584C4.14156 9.53784 4.22156 9.61084 4.30689 9.67484C4.85189 10.0818 5.59689 10.1328 6.15289 9.70884C7.38289 8.77184 8.91089 7.38284 9.49989 6.49984C10.4999 4.99984 11.0249 3.02484 9.74989 1.74984C8.16789 0.167839 6.49989 1.49984 5.99989 1.99984ZM10.9589 1.66984C11.3156 2.24843 11.5037 2.91513 11.5019 3.59484C12.8319 3.20984 14.3289 2.99984 15.9989 2.99984C20.4289 2.99984 23.6469 4.47984 25.7629 6.77784C27.8919 9.08884 28.9979 12.3278 28.9979 15.9978V15.9998H28.9999C29.8119 15.9998 30.4779 16.2548 30.9869 16.6638C30.9936 16.4438 30.9969 16.2222 30.9969 15.9988C30.9969 11.9378 29.7709 8.17784 27.2339 5.42284C24.6839 2.65384 20.9029 0.999839 15.9999 0.999839C14.1599 0.999839 12.4779 1.23284 10.9599 1.66984M25.6639 25.9018C25.5456 25.8425 25.4402 25.7602 25.3539 25.6598C24.3919 24.5338 22.6249 22.4378 21.9999 21.4998C20.9999 19.9998 21.1029 17.7328 22.9999 17.0998C24.4999 16.5998 26.1669 17.9998 26.4999 18.4998C26.6669 17.9998 27.3999 16.9998 28.9999 16.9998C29.1346 16.9998 29.2629 17.0092 29.3849 17.0278C29.5782 17.0572 29.7552 17.1072 29.9159 17.1778C30.3539 17.3658 30.6749 17.6898 30.8859 18.0818C31.2769 18.8038 31.2979 19.7548 30.9999 20.4998C30.7519 21.1198 30.3199 21.7938 29.8109 22.4598C28.8189 23.7548 27.5309 25.0138 26.7359 25.7498C26.5947 25.8826 26.4159 25.9685 26.224 25.9957C26.0321 26.0229 25.8365 25.9901 25.6639 25.9018ZM15.9989 28.9978C19.6809 28.9978 22.5249 27.9758 24.5959 26.3108C24.8955 26.6639 25.3104 26.8994 25.7671 26.9757C26.2238 27.052 26.6928 26.9642 27.0909 26.7278C24.5439 29.4038 20.8109 30.9978 15.9989 30.9978C13.5239 30.9978 11.3349 30.5758 9.44489 29.8028C9.82589 29.3228 10.2499 28.7368 10.6069 28.1088C12.1509 28.6788 13.9439 28.9978 15.9989 28.9978ZM8.50389 29.3768C8.42389 29.4748 8.34623 29.5682 8.27089 29.6568C7.83889 30.1618 7.10289 30.2348 6.55289 29.8598C5.62789 29.2298 4.31589 28.3158 3.99989 27.9998C2.88189 26.8818 2.49989 24.9998 3.49989 23.9998C4.49989 22.9998 6.49989 23.4998 6.49989 23.4998C6.49989 23.4998 6.99989 22.2498 8.49989 22.4998C10.4999 22.7498 10.7499 24.9998 10.2499 26.4998C10.1149 26.9048 9.91189 27.3198 9.67589 27.7218C9.32759 28.3023 8.9358 28.8556 8.50389 29.3768ZM4.37889 22.4728C3.83989 22.5868 3.26289 22.8228 2.79289 23.2928C2.73839 23.3475 2.68602 23.4042 2.63589 23.4628C1.53689 21.2428 0.999893 18.6868 0.999893 15.9988C0.999893 13.5258 1.45489 11.1648 2.38289 9.07384C2.71489 9.45784 3.04189 9.81584 3.32889 10.1308C3.50089 10.3188 3.69889 10.4808 3.91489 10.6128C3.30889 12.2398 2.99989 14.0598 2.99989 15.9998C2.99989 18.3858 3.46689 20.5898 4.37889 22.4738M8.98189 11.1898C9.02989 10.9438 9.13989 10.6398 9.34889 10.4128C9.52889 10.2168 9.84689 9.99984 10.4989 9.99984C11.1419 9.99984 11.4689 10.2218 11.6569 10.4288C11.8749 10.6688 11.9799 10.9738 12.0149 11.1708C12.0655 11.4271 12.2144 11.6534 12.4297 11.8013C12.645 11.9492 12.9096 12.007 13.167 11.9623C13.4244 11.9177 13.654 11.774 13.8069 11.5622C13.9597 11.3504 14.0236 11.0872 13.9849 10.8288C13.87 10.1786 13.5756 9.57351 13.1349 9.08184C12.5629 8.45184 11.6959 7.99984 10.4999 7.99984C9.31589 7.99984 8.45289 8.43084 7.87589 9.05984C7.32789 9.65584 7.10689 10.3528 7.01789 10.8098C6.9675 11.0703 7.02264 11.3401 7.17116 11.5599C7.31969 11.7797 7.54945 11.9314 7.80989 11.9818C8.07034 12.0322 8.34013 11.9771 8.55992 11.8286C8.77972 11.68 8.9315 11.4503 8.98189 11.1898Z" fill="#F9AEAB"/>
<path d="M19.982 11.19C20.03 10.944 20.14 10.64 20.349 10.413C20.529 10.217 20.847 10 21.5 10C22.142 10 22.469 10.222 22.657 10.429C22.876 10.669 22.981 10.974 23.015 11.171C23.0656 11.4273 23.2145 11.6536 23.4298 11.8015C23.6451 11.9494 23.9097 12.0072 24.1671 11.9625C24.4245 11.9178 24.6541 11.7742 24.807 11.5624C24.9598 11.3506 25.0237 11.0873 24.985 10.829C24.8701 10.1788 24.5757 9.57367 24.135 9.082C23.563 8.452 22.696 8 21.5 8C20.316 8 19.453 8.431 18.876 9.06C18.328 9.656 18.107 10.353 18.019 10.81C17.9906 10.9402 17.9885 11.0749 18.0128 11.2059C18.0372 11.337 18.0875 11.4619 18.1609 11.5732C18.2342 11.6845 18.329 11.7801 18.4398 11.8542C18.5506 11.9284 18.6751 11.9796 18.806 12.005C18.9368 12.0303 19.0715 12.0292 19.2019 12.0018C19.3324 11.9743 19.456 11.9211 19.5656 11.8451C19.6752 11.7692 19.7684 11.6721 19.84 11.5596C19.9115 11.4471 19.9598 11.3214 19.982 11.19ZM13 16C13 15.7348 12.8946 15.4804 12.7071 15.2929C12.5196 15.1054 12.2652 15 12 15C11.7348 15 11.4804 15.1054 11.2929 15.2929C11.1054 15.4804 11 15.7348 11 16C11 16.827 11.24 18.044 11.989 19.084C12.774 20.175 14.074 21 16 21C17.926 21 19.226 20.175 20.012 19.084C20.76 18.044 21 16.827 21 16C21 15.7348 20.8946 15.4804 20.7071 15.2929C20.5196 15.1054 20.2652 15 20 15C19.7348 15 19.4804 15.1054 19.2929 15.2929C19.1054 15.4804 19 15.7348 19 16C19 16.507 18.84 17.289 18.389 17.916C17.974 18.49 17.274 19 16 19C14.726 19 14.026 18.491 13.611 17.916C13.162 17.289 13 16.506 13 16Z" fill="#F9AEAB"/>
</svg>
