<svg width="32" height="32" viewBox="0 0 32 32" fill="none" xmlns="http://www.w3.org/2000/svg">
<path d="M16.0001 2.6665C14.2491 2.6665 12.5153 3.01138 10.8976 3.68144C9.27996 4.35151 7.81011 5.33363 6.57199 6.57175C4.07151 9.07223 2.66675 12.4636 2.66675 15.9998C2.66675 19.5361 4.07151 22.9274 6.57199 25.4279C7.81011 26.666 9.27996 27.6482 10.8976 28.3182C12.5153 28.9883 14.2491 29.3332 16.0001 29.3332C19.5363 29.3332 22.9277 27.9284 25.4282 25.4279C27.9287 22.9274 29.3334 19.5361 29.3334 15.9998C29.3334 14.2489 28.9885 12.5151 28.3185 10.8974C27.6484 9.27972 26.6663 7.80986 25.4282 6.57175C24.1901 5.33363 22.7202 4.35151 21.1025 3.68144C19.4849 3.01138 17.751 2.6665 16.0001 2.6665ZM16.0001 26.6665C13.1711 26.6665 10.458 25.5427 8.45761 23.5423C6.45722 21.5419 5.33341 18.8288 5.33341 15.9998C5.33341 13.1709 6.45722 10.4578 8.45761 8.45736C10.458 6.45698 13.1711 5.33317 16.0001 5.33317C18.8291 5.33317 21.5422 6.45698 23.5426 8.45736C25.5429 10.4578 26.6667 13.1709 26.6667 15.9998C26.6667 18.8288 25.5429 21.5419 23.5426 23.5423C21.5422 25.5427 18.8291 26.6665 16.0001 26.6665ZM16.0001 18.6665C18.3334 18.6665 20.3867 19.6265 21.5867 21.0798L19.6934 22.9732C19.0934 21.9998 17.6667 21.3332 16.0001 21.3332C14.3334 21.3332 12.9067 21.9998 12.3067 22.9732L10.4134 21.0798C11.6134 19.6265 13.6667 18.6665 16.0001 18.6665ZM13.3334 12.6665C13.3334 13.7332 12.4001 14.6665 11.3334 14.6665C10.2667 14.6665 9.33341 13.7332 9.33341 12.6665V10.6665L13.3334 12.6665ZM22.6667 12.6665C22.6667 13.7332 21.7334 14.6665 20.6667 14.6665C19.6001 14.6665 18.6667 13.7332 18.6667 12.6665L22.6667 10.6665V12.6665Z" fill="#B30C0C"/>
</svg>
