<svg width="32" height="32" viewBox="0 0 32 32" fill="none" xmlns="http://www.w3.org/2000/svg">
<rect width="32" height="32" rx="16" fill="black" fill-opacity="0.05"/>
<g clip-path="url(#clip0_456_2916)">
<path d="M21 10H19.5V9.5C19.5 9.36739 19.4473 9.24021 19.3536 9.14645C19.2598 9.05268 19.1326 9 19 9C18.8674 9 18.7402 9.05268 18.6464 9.14645C18.5527 9.24021 18.5 9.36739 18.5 9.5V10H13.5V9.5C13.5 9.36739 13.4473 9.24021 13.3536 9.14645C13.2598 9.05268 13.1326 9 13 9C12.8674 9 12.7402 9.05268 12.6464 9.14645C12.5527 9.24021 12.5 9.36739 12.5 9.5V10H11C10.7348 10 10.4804 10.1054 10.2929 10.2929C10.1054 10.4804 10 10.7348 10 11V21C10 21.2652 10.1054 21.5196 10.2929 21.7071C10.4804 21.8946 10.7348 22 11 22H21C21.2652 22 21.5196 21.8946 21.7071 21.7071C21.8946 21.5196 22 21.2652 22 21V11C22 10.7348 21.8946 10.4804 21.7071 10.2929C21.5196 10.1054 21.2652 10 21 10ZM18.5938 16.3625L15.675 19.1125C15.6296 19.157 15.5759 19.192 15.5169 19.2156C15.4579 19.2392 15.3948 19.2509 15.3313 19.25C15.2032 19.2505 15.0799 19.2012 14.9875 19.1125L13.4062 17.6125C13.3555 17.5682 13.3142 17.5141 13.2848 17.4534C13.2555 17.3927 13.2387 17.3267 13.2355 17.2594C13.2323 17.192 13.2428 17.1248 13.2663 17.0616C13.2898 16.9984 13.3258 16.9406 13.3721 16.8917C13.4185 16.8428 13.4743 16.8038 13.5362 16.777C13.598 16.7502 13.6646 16.7361 13.7321 16.7357C13.7995 16.7354 13.8662 16.7486 13.9284 16.7747C13.9906 16.8008 14.0468 16.8391 14.0938 16.8875L15.3313 18.0625L17.9062 15.6375C17.9535 15.5916 18.0094 15.5557 18.0707 15.5318C18.132 15.5078 18.1975 15.4964 18.2633 15.4981C18.3291 15.4999 18.3939 15.5148 18.4539 15.5419C18.5138 15.5691 18.5678 15.608 18.6125 15.6562C18.7036 15.7524 18.7527 15.8808 18.7492 16.0133C18.7457 16.1457 18.6898 16.2713 18.5938 16.3625ZM21 13H11V11H12.5V11.5C12.5 11.6326 12.5527 11.7598 12.6464 11.8536C12.7402 11.9473 12.8674 12 13 12C13.1326 12 13.2598 11.9473 13.3536 11.8536C13.4473 11.7598 13.5 11.6326 13.5 11.5V11H18.5V11.5C18.5 11.6326 18.5527 11.7598 18.6464 11.8536C18.7402 11.9473 18.8674 12 19 12C19.1326 12 19.2598 11.9473 19.3536 11.8536C19.4473 11.7598 19.5 11.6326 19.5 11.5V11H21V13Z" fill="#1E1E1E"/>
</g>
<defs>
<clipPath id="clip0_456_2916">
<rect width="16" height="16" fill="white" transform="translate(8 8)"/>
</clipPath>
</defs>
</svg>
