<svg width="324" height="316" viewBox="0 0 324 316" fill="none" xmlns="http://www.w3.org/2000/svg">
<path d="M281.136 283.529C233.372 321.136 149.922 328.779 99.4183 292.092C74.9519 270.786 75.5072 238.265 73.0796 209.595C68.3484 189.391 62.9322 169.445 46.9254 154.096C9.80337 125.612 -16.0413 97.38 11.5532 52.7249C68.882 -19.714 209.912 -13.7382 274.719 47.6361C330.939 109.798 346.771 222.587 281.136 283.529Z" fill="#D1E1F2"/>
<path d="M106.103 110.82C105.989 110.82 105.885 110.759 105.828 110.662L102.83 105.472C102.773 105.374 102.773 105.252 102.83 105.154L105.828 99.9647C105.884 99.8664 105.989 99.806 106.103 99.806C106.217 99.806 106.321 99.8664 106.378 99.964L109.383 105.153C109.44 105.252 109.44 105.374 109.383 105.472L106.378 110.662C106.321 110.76 106.216 110.82 106.103 110.82ZM103.471 105.312L106.104 109.868L108.741 105.312L106.104 100.758L103.471 105.312Z" fill="#25292B"/>
<path d="M97.7657 104.603C96.7674 104.603 95.9551 103.791 95.9551 102.792C95.9551 101.794 96.7674 100.982 97.7657 100.982C98.7641 100.982 99.5757 101.794 99.5757 102.792C99.5757 103.791 98.7641 104.603 97.7657 104.603ZM97.7657 101.618C97.1177 101.618 96.5905 102.145 96.5905 102.792C96.5905 103.44 97.1177 103.968 97.7657 103.968C98.4131 103.968 98.9403 103.44 98.9403 102.792C98.9403 102.145 98.4131 101.618 97.7657 101.618Z" fill="#25292B"/>
<path d="M103.104 97.9434C102.232 97.9434 101.522 97.2336 101.522 96.3616C101.522 95.4903 102.232 94.7805 103.104 94.7805C103.976 94.7805 104.686 95.4903 104.686 96.3616C104.686 97.2343 103.977 97.9434 103.104 97.9434ZM103.104 95.4166C102.583 95.4166 102.159 95.8407 102.159 96.3623C102.159 96.884 102.583 97.308 103.104 97.308C103.626 97.308 104.05 96.8833 104.05 96.3623C104.051 95.8407 103.626 95.4166 103.104 95.4166Z" fill="#25292B"/>
<path d="M96.2724 98.6718C95.6272 98.6718 95.1021 98.1466 95.1021 97.5014C95.1021 96.8562 95.6272 96.3303 96.2724 96.3303C96.9176 96.3303 97.4428 96.8562 97.4428 97.5014C97.4428 98.1466 96.9176 98.6718 96.2724 98.6718ZM96.2724 96.9657C95.9775 96.9657 95.7374 97.2058 95.7374 97.5014C95.7374 97.7963 95.9775 98.0364 96.2724 98.0364C96.5673 98.0364 96.8074 97.7963 96.8074 97.5014C96.8074 97.2058 96.5673 96.9657 96.2724 96.9657Z" fill="#25292B"/>
<path d="M222.091 88.0339C221.977 88.0339 221.873 87.9735 221.816 87.8752L219.522 83.9042C219.465 83.8059 219.465 83.6845 219.522 83.5862L221.816 79.6152C221.872 79.5169 221.977 79.4565 222.091 79.4565C222.205 79.4565 222.309 79.5169 222.366 79.6152L224.666 83.5862C224.722 83.6845 224.722 83.8059 224.666 83.9049L222.366 87.8759C222.309 87.9728 222.205 88.0339 222.091 88.0339ZM220.165 83.7449L222.092 87.0812L224.022 83.7449L222.092 80.4086L220.165 83.7449Z" fill="#25292B"/>
<path d="M216.664 82.0726C215.665 82.0726 214.853 81.2603 214.853 80.262C214.853 79.2636 215.665 78.4513 216.664 78.4513C217.662 78.4513 218.474 79.2636 218.474 80.262C218.474 81.2603 217.662 82.0726 216.664 82.0726ZM216.664 79.0874C216.016 79.0874 215.488 79.6146 215.488 80.2627C215.488 80.9107 216.016 81.4372 216.664 81.4372C217.311 81.4372 217.838 80.91 217.838 80.2627C217.838 79.6146 217.311 79.0874 216.664 79.0874Z" fill="#25292B"/>
<path d="M222.003 77.5948C221.131 77.5948 220.421 76.885 220.421 76.013C220.421 75.141 221.131 74.4319 222.003 74.4319C222.875 74.4319 223.584 75.1417 223.584 76.013C223.584 76.8857 222.875 77.5948 222.003 77.5948ZM222.003 75.0673C221.481 75.0673 221.057 75.4913 221.057 76.013C221.057 76.5346 221.482 76.9587 222.003 76.9587C222.524 76.9587 222.948 76.5346 222.948 76.013C222.949 75.492 222.524 75.0673 222.003 75.0673Z" fill="#25292B"/>
<path d="M216.664 75.9202C216.019 75.9202 215.494 75.395 215.494 74.7498C215.494 74.1046 216.019 73.5787 216.664 73.5787C217.309 73.5787 217.834 74.1039 217.834 74.7498C217.834 75.3957 217.31 75.9202 216.664 75.9202ZM216.664 74.2141C216.369 74.2141 216.129 74.4542 216.129 74.7498C216.129 75.0454 216.369 75.2848 216.664 75.2848C216.959 75.2848 217.199 75.0447 217.199 74.7498C217.199 74.4549 216.959 74.2141 216.664 74.2141Z" fill="#25292B"/>
<path d="M269.979 233.372C269.865 233.372 269.761 233.311 269.704 233.214L266.706 228.024C266.649 227.926 266.649 227.804 266.706 227.706L269.704 222.517C269.761 222.419 269.865 222.358 269.979 222.358C270.092 222.358 270.197 222.419 270.254 222.516L273.259 227.705C273.316 227.804 273.316 227.926 273.259 228.024L270.254 233.214C270.197 233.313 270.093 233.372 269.979 233.372ZM267.348 227.865L269.98 232.42L272.617 227.865L269.98 223.311L267.348 227.865Z" fill="#25292B"/>
<path d="M277.332 236.309C276.333 236.309 275.521 235.497 275.521 234.499C275.521 233.5 276.333 232.688 277.332 232.688C278.33 232.688 279.142 233.5 279.142 234.499C279.142 235.497 278.33 236.309 277.332 236.309ZM277.332 233.323C276.684 233.323 276.156 233.851 276.156 234.499C276.156 235.146 276.684 235.673 277.332 235.673C277.98 235.673 278.506 235.146 278.506 234.499C278.506 233.851 277.98 233.323 277.332 233.323Z" fill="#25292B"/>
<path d="M267.144 220.495C266.272 220.495 265.563 219.785 265.563 218.914C265.563 218.042 266.273 217.332 267.144 217.332C268.016 217.332 268.726 218.042 268.726 218.914C268.726 219.786 268.016 220.495 267.144 220.495ZM267.144 217.968C266.622 217.968 266.198 218.393 266.198 218.914C266.198 219.435 266.622 219.859 267.144 219.859C267.666 219.859 268.09 219.435 268.09 218.914C268.09 218.393 267.666 217.968 267.144 217.968Z" fill="#25292B"/>
<path d="M276.162 226.458C275.516 226.458 274.991 225.933 274.991 225.287C274.991 224.642 275.516 224.117 276.162 224.117C276.807 224.117 277.333 224.642 277.333 225.287C277.333 225.933 276.807 226.458 276.162 226.458ZM276.162 224.752C275.867 224.752 275.627 224.993 275.627 225.287C275.627 225.582 275.867 225.822 276.162 225.822C276.456 225.822 276.697 225.582 276.697 225.287C276.697 224.993 276.457 224.752 276.162 224.752Z" fill="#25292B"/>
<path d="M276.521 220.495C276.407 220.495 276.303 220.434 276.246 220.337L274.363 217.077C274.306 216.979 274.306 216.858 274.363 216.759L276.246 213.5C276.303 213.402 276.407 213.342 276.521 213.342C276.634 213.342 276.74 213.402 276.796 213.5L278.684 216.759C278.74 216.858 278.74 216.979 278.684 217.077L276.796 220.337C276.74 220.436 276.634 220.495 276.521 220.495ZM275.005 216.919L276.521 219.542L278.04 216.919L276.521 214.294L275.005 216.919Z" fill="#25292B"/>
<path d="M260.223 232.698C259.577 232.698 259.052 232.173 259.052 231.528C259.052 230.883 259.577 230.358 260.223 230.358C260.868 230.358 261.394 230.883 261.394 231.528C261.394 232.173 260.868 232.698 260.223 232.698ZM260.223 230.993C259.928 230.993 259.688 231.233 259.688 231.528C259.688 231.823 259.928 232.063 260.223 232.063C260.517 232.063 260.758 231.823 260.758 231.528C260.758 231.233 260.517 230.993 260.223 230.993Z" fill="#25292B"/>
<path d="M89.8868 164.237C89.8868 164.237 94.7838 279.941 94.345 298.97H69.1676L56.2725 165.205L89.8868 164.237Z" fill="#25292B"/>
<path d="M31.726 165.599L28.3426 227.538L10.3223 298.971H37.3208L64.4851 227.245L76.0274 164.89L31.726 165.599Z" fill="#25292B"/>
<path d="M63.0927 231.263L62.3745 231.116C66.4908 210.863 69.9472 190.184 72.6453 169.653L72.6839 169.361L81.269 168.62L81.3321 169.351L73.334 170.04C70.6387 190.492 67.1936 211.089 63.0927 231.263Z" fill="black"/>
<path d="M12.395 299.043H33.8471L39.5122 304.046C39.5122 304.046 56.2997 303.572 56.2997 315.849H12.395V299.043Z" fill="#1A6980"/>
<path d="M13.8763 314.433H13.9535L55.25 314.278C55.4115 314.277 55.542 314.146 55.5413 313.985C55.5406 313.824 55.4101 313.694 55.2493 313.694L13.8749 313.849C13.7134 313.85 13.5828 313.981 13.5835 314.143C13.5849 314.303 13.7155 314.433 13.8763 314.433Z" fill="#25292B"/>
<path d="M25.4542 305.964C23.9524 305.804 23.0369 305.211 22.8747 304.295C22.6648 303.11 23.8373 302.26 24.9051 301.892C28.2449 300.741 32.1148 301.453 34.8635 303.649C35.635 301.138 37.002 298.827 38.8372 296.943C39.4108 296.353 40.1185 295.728 41.0242 295.554C41.9454 295.377 43.0862 295.846 43.32 296.826C43.5426 297.761 42.8749 298.591 42.2676 299.209C40.2435 301.272 38.0109 303.16 35.6336 304.818C35.5494 304.878 35.4434 304.885 35.3521 304.848C35.3226 304.875 35.2868 304.897 35.2461 304.91C32.8885 305.692 30.3835 306.092 27.889 306.092C27.0739 306.092 26.2608 306.049 25.4542 305.964ZM34.7237 304.292C32.1176 302.072 28.3411 301.325 25.0947 302.444C24.4102 302.68 23.2938 303.313 23.4497 304.193C23.6077 305.086 24.9465 305.322 25.5152 305.382C28.6262 305.713 31.8375 305.385 34.8185 304.435C34.7736 304.398 34.7406 304.348 34.7237 304.292ZM41.1338 296.127C40.3867 296.27 39.7647 296.826 39.255 297.35C37.4261 299.229 36.0788 301.547 35.3486 304.064C35.3984 304.109 35.4476 304.155 35.4967 304.202C37.7708 302.598 39.9072 300.781 41.8506 298.801C42.3519 298.29 42.9072 297.619 42.7514 296.963C42.6194 296.41 41.998 296.101 41.4195 296.101C41.3219 296.101 41.2257 296.109 41.1338 296.127Z" fill="#25292B"/>
<path d="M71.1235 298.868H92.5757L98.2408 303.871C98.2408 303.871 115.028 303.397 115.028 315.674H71.1235V298.868Z" fill="#1A6980"/>
<path d="M72.6053 314.257H72.606H72.6825L113.979 314.102C114.14 314.101 114.271 313.97 114.27 313.808C114.27 313.648 114.139 313.518 113.978 313.518L72.6039 313.673C72.4424 313.674 72.3118 313.805 72.3125 313.966C72.3139 314.127 72.4445 314.257 72.6053 314.257Z" fill="#25292B"/>
<path d="M84.1832 305.788C82.6814 305.628 81.7659 305.035 81.6037 304.119C81.3938 302.934 82.5663 302.084 83.6341 301.716C86.9739 300.564 90.8438 301.277 93.5925 303.473C94.364 300.962 95.731 298.651 97.5662 296.767C98.1398 296.177 98.8475 295.552 99.7532 295.377C100.674 295.2 101.815 295.669 102.049 296.65C102.272 297.585 101.604 298.415 100.997 299.032C98.9725 301.096 96.7399 302.984 94.3626 304.642C94.2784 304.702 94.1724 304.709 94.0811 304.672C94.0516 304.699 94.0158 304.721 93.9751 304.734C91.6175 305.515 89.1125 305.916 86.618 305.916C85.8036 305.916 84.9898 305.873 84.1832 305.788ZM93.4534 304.116C90.8473 301.896 87.0708 301.149 83.8244 302.268C83.1399 302.504 82.0235 303.137 82.1794 304.017C82.3374 304.91 83.6762 305.145 84.2449 305.206C87.3559 305.537 90.5672 305.209 93.5482 304.259C93.5026 304.222 93.4696 304.172 93.4534 304.116ZM99.8635 295.951C99.1164 296.094 98.4944 296.65 97.9847 297.174C96.1558 299.053 94.8085 301.37 94.0783 303.888C94.1281 303.933 94.1773 303.979 94.2264 304.026C96.5005 302.421 98.6369 300.605 100.58 298.625C101.082 298.113 101.637 297.443 101.481 296.787C101.349 296.234 100.728 295.925 100.149 295.925C100.052 295.925 99.9547 295.933 99.8635 295.951Z" fill="#25292B"/>
<path d="M86.4397 137.044L89.8869 164.236L86.5029 178.095L76.0278 164.889L61.0032 178.095L31.7264 165.598L32.0774 154.217C23.491 155.972 15.5364 149.211 15.8804 140.456L19.4765 98.5083C19.7081 92.6529 24.007 83.9071 29.6447 82.3274L48.9485 76.616L65.7634 79.6911L77.1932 83.2015C82.2342 84.7531 85.9131 89.092 86.6082 94.3155L89.9501 119.31L105.698 123.382L106.281 137.044H86.4397Z" fill="#1A6980"/>
<path d="M37.3207 132.513C37.3088 132.513 37.2968 132.512 37.2842 132.511C37.0918 132.492 36.9514 132.319 36.9711 132.126L39.8335 104.281C39.8538 104.089 40.0237 103.955 40.2189 103.968C40.4113 103.988 40.5517 104.161 40.532 104.354L37.6696 132.198C37.6514 132.379 37.499 132.513 37.3207 132.513Z" fill="black"/>
<path d="M33.1577 154.242C33.0089 154.242 32.8705 154.146 32.8228 153.997C32.7645 153.811 32.8663 153.615 33.051 153.556L67.5696 142.599L63.5565 128.268L28.4046 134.458C28.2122 134.494 28.0311 134.365 27.9981 134.174C27.9644 133.983 28.0915 133.801 28.2824 133.768L63.7481 127.522C63.9279 127.49 64.0985 127.599 64.1469 127.773L68.3376 142.736C68.3889 142.919 68.2864 143.108 68.106 143.165L33.2644 154.225C33.2286 154.237 33.1928 154.242 33.1577 154.242Z" fill="black"/>
<path d="M81.5602 122.234C81.3847 122.234 81.233 122.102 81.2119 121.924L78.6093 99.9341C78.5869 99.7417 78.7245 99.5676 78.9168 99.5444C79.1085 99.5199 79.2833 99.6596 79.3065 99.8519L81.9091 121.842C81.9316 122.034 81.794 122.208 81.6016 122.232C81.5876 122.233 81.5742 122.234 81.5602 122.234Z" fill="black"/>
<path d="M64.6445 93.2177C64.5701 93.2177 64.495 93.1939 64.4318 93.1454L58.1798 88.3614C57.5725 88.3734 54.6595 88.6212 54.0614 92.2089C54.0396 92.3387 53.9476 92.4448 53.8233 92.4855C53.6991 92.5276 53.5615 92.4939 53.4688 92.4012C53.4035 92.3366 46.9528 85.8494 47.5102 77.555C47.5236 77.3619 47.69 77.2236 47.8844 77.2285C48.0775 77.2419 48.2242 77.409 48.2109 77.6027C47.7609 84.3006 52.0871 89.7986 53.5151 91.4176C54.5493 87.5597 58.2767 87.6636 58.3132 87.6601C58.3855 87.6629 58.4557 87.6881 58.5126 87.7324L64.858 92.5887C65.0117 92.7066 65.0412 92.9264 64.9233 93.0808C64.8552 93.1707 64.7506 93.2177 64.6445 93.2177Z" fill="black"/>
<path d="M66.3371 93.2177C66.3203 93.2177 66.3034 93.217 66.2859 93.2142C66.0942 93.1861 65.9615 93.0077 65.9896 92.8161L66.7345 87.7414C66.7478 87.6495 66.7977 87.5659 66.8728 87.5104C66.9479 87.455 67.0434 87.4332 67.134 87.4451C67.2133 87.4571 68.6301 87.6789 69.5534 88.4C69.4705 86.4945 68.9854 82.3895 66.4031 80.6679C66.2416 80.5605 66.1981 80.3422 66.3055 80.1814C66.4122 80.0199 66.6299 79.9764 66.7921 80.0838C70.5243 82.572 70.2779 89.1554 70.266 89.4342C70.2582 89.602 70.134 89.741 69.9676 89.7655C69.8033 89.7887 69.6411 89.6946 69.585 89.5374C69.3189 88.7945 68.1085 88.374 67.3762 88.2062L66.6846 92.9172C66.658 93.092 66.5084 93.2177 66.3371 93.2177Z" fill="black"/>
<path d="M101.71 124.73L91.691 125.959L94.4713 128.128C95.4893 128.921 95.6719 130.396 94.8785 131.414C94.4151 132.003 93.7271 132.312 93.032 132.312C92.9618 132.312 92.8846 132.312 92.8144 132.305C93.0671 133.029 92.9688 133.878 92.4563 134.531C91.9929 135.121 91.2979 135.43 90.6028 135.43C90.3571 135.43 90.1043 135.387 89.8656 135.31C90.1535 136.054 90.0482 136.918 89.5286 137.585C89.0653 138.175 88.3772 138.484 87.6751 138.484C87.1767 138.484 86.6712 138.329 86.2429 137.999L84.1366 136.356L83.8558 136.778C78.9763 142.858 72.8752 140.393 72.8752 140.393L68.0941 141.776L64.4854 129.216L74.1671 127.117L82.3323 121.732C83.3222 121.079 84.4877 120.728 85.6742 120.728H101.71V124.73Z" fill="#FFAC9D"/>
<path d="M89.8648 135.661C89.7869 135.661 89.7083 135.635 89.643 135.582L85.5344 132.221C85.3842 132.099 85.3617 131.877 85.4846 131.727C85.6074 131.577 85.8286 131.554 85.9788 131.677L90.0874 135.037C90.2377 135.16 90.2601 135.381 90.1373 135.532C90.0677 135.617 89.9666 135.661 89.8648 135.661Z" fill="black"/>
<path d="M92.8138 132.656C92.7351 132.656 92.6551 132.629 92.5898 132.575L88.411 129.097C88.2622 128.972 88.2418 128.751 88.3661 128.602C88.4896 128.454 88.7108 128.433 88.8603 128.557L93.0391 132.035C93.188 132.16 93.2083 132.381 93.0841 132.53C93.0146 132.613 92.9149 132.656 92.8138 132.656Z" fill="black"/>
<path d="M133.514 105.212L112.754 141.938C112.213 142.893 111.202 143.483 110.1 143.483H90.5467C88.2157 143.483 86.7554 140.969 87.8998 138.94L108.66 102.221C109.201 101.266 110.212 100.677 111.307 100.677H130.867C133.198 100.677 134.658 103.183 133.514 105.212Z" fill="black"/>
<path d="M124.647 125.376C124.317 126.022 123.713 126.436 123.046 126.548C123.341 126.843 123.552 127.201 123.678 127.587C123.882 128.226 123.847 128.942 123.517 129.581C123.018 130.564 121.965 131.091 120.926 130.985C121.193 131.266 121.382 131.603 121.502 131.961C121.705 132.607 121.67 133.323 121.34 133.962C120.898 134.826 120.034 135.338 119.122 135.373C119.241 135.549 119.339 135.732 119.416 135.921C119.69 136.595 119.697 137.325 119.367 137.971C118.707 139.249 116.959 139.677 115.478 138.919L112.183 137.344C111.439 136.965 110.905 136.354 110.631 135.68C110.357 135.006 110.357 134.269 110.68 133.63C111.081 132.844 111.902 132.38 112.815 132.324C112.653 132.1 112.527 131.847 112.443 131.587C112.232 130.948 112.274 130.232 112.597 129.593C113.103 128.61 114.156 128.077 115.195 128.182C114.928 127.901 114.731 127.564 114.619 127.206C114.408 126.567 114.444 125.851 114.774 125.212C115.286 124.201 116.374 123.675 117.441 123.808C117.385 123.703 117.343 123.597 117.308 123.485C117.133 122.944 117.161 122.334 117.441 121.793C117.996 120.705 119.344 120.27 120.432 120.831L123.678 122.385C124.226 122.666 124.605 123.143 124.78 123.684C124.956 124.224 124.921 124.835 124.647 125.376Z" fill="#FFAC9D"/>
<path d="M119.12 135.725C119.069 135.725 119.017 135.713 118.968 135.689L112.661 132.64C112.486 132.556 112.413 132.346 112.498 132.171C112.583 131.998 112.793 131.924 112.967 132.008L119.274 135.058C119.449 135.142 119.522 135.352 119.437 135.527C119.376 135.652 119.251 135.725 119.12 135.725Z" fill="black"/>
<path d="M120.925 131.336C120.873 131.336 120.821 131.325 120.771 131.301L115.04 128.497C114.866 128.412 114.794 128.202 114.879 128.028C114.965 127.853 115.175 127.782 115.349 127.867L121.08 130.67C121.254 130.756 121.327 130.966 121.241 131.14C121.18 131.264 121.055 131.336 120.925 131.336Z" fill="black"/>
<path d="M123.046 126.899C122.994 126.899 122.942 126.888 122.892 126.863L117.287 124.123C117.113 124.038 117.041 123.827 117.126 123.653C117.212 123.479 117.422 123.407 117.596 123.492L123.201 126.233C123.375 126.318 123.447 126.528 123.362 126.702C123.3 126.827 123.176 126.899 123.046 126.899Z" fill="black"/>
<path d="M46.2946 60.578C47.0578 63.6777 48.9696 65.6281 51.8474 65.2693L48.6178 77.1184L64.7587 91.1095L66.3265 76.3419C66.3265 76.3419 68.3492 75.8982 70.7376 73.8425C73.1261 71.7938 77.1322 66.7304 77.4453 61.9541L78.0716 52.5322C74.1435 52.5062 69.0737 51.4229 65.1912 50.4182C61.7721 49.5308 59.2733 48.7086 59.2733 48.7086C59.2144 49.146 59.0775 49.596 58.8816 50.0461C57.8242 52.4928 55.1037 54.9333 55.1037 54.9333L55.0974 54.9789C55.091 54.9726 55.091 54.9656 55.084 54.9656C55.0644 54.9459 55.0447 54.9263 55.0321 54.9066C54.1123 53.9019 52.8984 53.223 51.5996 53.0208C50.9144 52.9162 50.2031 52.9422 49.4983 53.1121C46.4252 53.8766 45.4725 57.2572 46.2946 60.578Z" fill="#FFAC9D"/>
<path d="M76.6795 60.4009C76.7424 59.4515 76.0977 58.6357 75.2396 58.5789C74.3814 58.522 73.6348 59.2456 73.5719 60.1951C73.509 61.1445 74.1537 61.9603 75.0118 62.0171C75.8699 62.074 76.6166 61.3504 76.6795 60.4009Z" fill="black"/>
<path d="M66.6744 58.6717C66.9754 57.769 66.558 56.8167 65.7421 56.5447C64.9261 56.2726 64.0207 56.7839 63.7198 57.6866C63.4188 58.5894 63.8362 59.5417 64.6521 59.8137C65.468 60.0857 66.3735 59.5745 66.6744 58.6717Z" fill="black"/>
<path d="M74.0998 56.1903C75.3053 55.8934 76.6203 56.1903 77.5281 57.0588C77.7085 57.2315 77.771 57.532 77.5892 57.7321C77.4249 57.9132 77.109 57.9778 76.9159 57.7932C76.8267 57.7075 76.734 57.6268 76.6351 57.5531C76.5866 57.5166 76.5375 57.4822 76.4876 57.4485C76.482 57.445 76.4764 57.4414 76.4701 57.4379C76.4434 57.4225 76.4167 57.4063 76.39 57.3916C76.2826 57.3312 76.1717 57.2772 76.0579 57.2294C76.0011 57.2055 75.9435 57.1838 75.8852 57.1627C75.8747 57.1592 75.8649 57.1557 75.8571 57.1529C75.8249 57.1431 75.7926 57.1339 75.7603 57.1255C75.6409 57.0939 75.5201 57.0686 75.398 57.0504C75.3369 57.0413 75.2758 57.0342 75.214 57.0286C75.1831 57.0258 75.153 57.0237 75.1221 57.0216C75.1207 57.0216 75.1214 57.0216 75.12 57.0216C75.1164 57.0216 75.1186 57.0216 75.1115 57.0216C74.988 57.0209 74.8651 57.0244 74.7422 57.037C74.6812 57.0434 74.6201 57.0511 74.559 57.0616C74.5288 57.0665 74.4986 57.0722 74.4677 57.0778C74.4593 57.0792 74.4558 57.0799 74.4523 57.0806C74.446 57.082 74.4432 57.0827 74.4347 57.0848C74.1932 57.1445 73.9054 57.0707 73.819 56.8061C73.7481 56.5842 73.8401 56.2542 74.0998 56.1903Z" fill="black"/>
<path d="M67.8983 55.5049C67.7179 55.7176 67.4237 55.6769 67.2229 55.5302C67.2166 55.5253 67.2131 55.5232 67.2082 55.5197C67.2053 55.5183 67.2018 55.5161 67.1948 55.5112C67.1688 55.4944 67.1429 55.4775 67.1169 55.4614C67.0642 55.4291 67.0109 55.3982 66.9568 55.3694C66.848 55.3111 66.7357 55.2613 66.6212 55.2157C66.6149 55.2128 66.617 55.2135 66.6135 55.2121C66.6121 55.2114 66.6135 55.2121 66.6114 55.2114C66.5819 55.2016 66.5531 55.1918 66.5236 55.1834C66.4647 55.1651 66.405 55.149 66.3453 55.1342C66.2252 55.1047 66.1038 55.0823 65.9816 55.0668C65.9479 55.0626 65.9149 55.0591 65.8812 55.0556C65.8735 55.0549 65.863 55.0542 65.8517 55.0542C65.7899 55.0521 65.7282 55.05 65.6671 55.0507C65.5435 55.0514 65.4207 55.0598 65.2985 55.0752C65.2676 55.0787 65.2374 55.0837 65.2072 55.0879C65.2009 55.0886 65.1939 55.09 65.1876 55.0914C65.1286 55.1033 65.0696 55.1167 65.0113 55.1321C64.892 55.1637 64.7754 55.203 64.6603 55.2486C64.4118 55.3462 64.1443 55.1665 64.0607 54.9369C63.968 54.6828 64.1401 54.4286 64.3724 54.3373C65.5414 53.8768 66.8712 54.0993 67.8744 54.8302C68.0893 54.9868 68.0493 55.3266 67.8983 55.5049Z" fill="black"/>
<path d="M64.3169 69.1827C63.4471 68.7937 62.8685 68.2194 62.5989 67.4766C62.1447 66.2269 62.7457 64.9688 62.7717 64.9161C62.8426 64.7708 63.016 64.7083 63.1627 64.7715L68.5737 67.1179C68.6495 67.1509 68.7078 67.2126 68.7366 67.2899C68.7646 67.3671 68.7604 67.4528 68.7246 67.5265C68.7127 67.5503 67.727 69.5183 65.7689 69.5183C65.3336 69.5183 64.8491 69.4214 64.3169 69.1827ZM63.2091 65.449C63.0806 65.8316 62.91 66.5646 63.1662 67.2709C63.3783 67.8543 63.848 68.3121 64.5634 68.6323C66.4822 69.4909 67.6238 68.1471 68.0225 67.5363L63.2091 65.449Z" fill="black"/>
<path d="M51.1736 63.8297C51.1076 63.8297 51.0416 63.8122 50.9812 63.7757C49.8705 63.0996 49.2702 61.6877 49.5546 60.419C49.82 59.2304 50.8415 58.2587 52.0329 58.027C52.2218 57.3636 52.1698 56.672 51.8848 56.1412C51.5471 55.5122 50.8632 55.119 50.2265 55.1885C49.5819 55.2573 49.0273 55.8632 49.0631 56.4607C49.0757 56.6657 48.9199 56.8412 48.7149 56.8532C48.5099 56.8721 48.3343 56.7099 48.3224 56.5049C48.262 55.503 49.0975 54.5623 50.1478 54.4506C51.0865 54.3481 52.0624 54.9028 52.5384 55.7902C52.9576 56.5702 53.0032 57.5531 52.6634 58.4862C52.6149 58.6189 52.4949 58.713 52.3545 58.7284C51.3681 58.8344 50.4954 59.6137 50.2784 60.5812C50.0615 61.5494 50.5199 62.6264 51.3673 63.1417C51.5422 63.2484 51.5976 63.4766 51.4916 63.6521C51.4207 63.7659 51.2985 63.829 51.1736 63.8297Z" fill="black"/>
<path d="M64.5973 76.7507C64.3025 76.7507 64.0258 76.7212 63.7794 76.6524C62.0397 76.1687 59.6736 73.3751 59.5739 73.2564C59.442 73.0999 59.4623 72.8654 59.6189 72.7334C59.7768 72.6014 60.0106 72.6225 60.1419 72.7783C60.1651 72.8057 62.4595 75.515 63.9788 75.9377C65.2222 76.2845 67.8094 75.31 68.701 74.9049C68.8885 74.8214 69.1075 74.9035 69.1918 75.0896C69.2767 75.2763 69.1939 75.4961 69.0078 75.5803C68.8857 75.6358 66.4073 76.7507 64.5973 76.7507Z" fill="black"/>
<path d="M64.7519 62.7813C63.9937 62.7813 63.2242 62.6381 62.4786 62.3362C60.9761 61.7268 59.8008 60.5691 59.169 59.0764C58.5371 57.5831 58.5252 55.9332 59.1339 54.4308C59.7426 52.9283 60.901 51.753 62.3936 51.1211C63.8856 50.4893 65.5362 50.4766 67.0393 51.086C70.1411 52.3435 71.6415 55.8897 70.384 58.9915C69.4292 61.3491 67.1524 62.7813 64.7519 62.7813ZM64.759 51.3802C64.0548 51.3802 63.3513 51.522 62.6836 51.8043C61.3728 52.3589 60.3569 53.391 59.8219 54.7095C59.2869 56.0287 59.2982 57.4764 59.8521 58.7872C60.4067 60.098 61.4388 61.1139 62.7573 61.6489C65.4786 62.7525 68.593 61.4354 69.6967 58.7135C70.8004 55.9908 69.4833 52.8785 66.7606 51.7748C66.1147 51.5115 65.4365 51.3802 64.759 51.3802Z" fill="#1A6980"/>
<path d="M78.0631 66.5796C77.3049 66.5796 76.5354 66.437 75.7905 66.1351C72.6887 64.8777 71.1883 61.3308 72.4458 58.229C73.0552 56.7265 74.2129 55.5512 75.7055 54.9194C77.1975 54.2868 78.8481 54.2749 80.3512 54.8843C83.453 56.1417 84.9534 59.6879 83.6959 62.7897C82.7411 65.1473 80.4628 66.5796 78.0631 66.5796ZM78.0702 55.1784C77.366 55.1784 76.6625 55.3203 75.9948 55.6025C74.684 56.1572 73.6681 57.1892 73.1331 58.5077C72.0294 61.2304 73.3458 64.3427 76.0692 65.4471C78.7898 66.5508 81.9049 65.2344 83.0086 62.511C84.1123 59.7883 82.7952 56.676 80.0725 55.5723C79.4259 55.3097 78.7484 55.1784 78.0702 55.1784Z" fill="#1A6980"/>
<path d="M53.2631 50.9615L52.8896 51.6028L59.1621 55.2551L59.5355 54.6137L53.2631 50.9615Z" fill="#1A6980"/>
<path d="M70.1907 58.5089L69.8984 59.191L72.2662 60.2057L72.5586 59.5236L70.1907 58.5089Z" fill="#1A6980"/>
<path d="M49.498 53.1135C50.2029 52.9435 50.9141 52.9176 51.5993 53.0222C52.8975 53.2244 54.1114 53.9033 55.0318 54.908L55.1034 54.934C55.1034 54.934 57.8247 52.4935 58.8813 50.0468C59.0772 49.5967 59.2141 49.146 59.2731 48.7093C59.2731 48.7093 61.7725 49.5314 65.191 50.4189C69.0735 51.4235 74.1432 52.5069 78.0714 52.5328C80.5638 52.5525 82.5998 52.1481 83.5785 51.0318C88.0086 45.9684 84.7791 40.7484 79.8919 41.2377C75.2069 41.7137 72.0426 41.6295 66.9265 38.3992C61.8111 35.1626 56.4276 35.7046 54.8556 39.8476C54.8556 39.8476 46.4053 40.1095 49.498 53.1135Z" fill="black"/>
<path d="M72.7741 66.9246C72.7348 66.9246 72.6962 66.9183 72.6576 66.9064L68.0288 65.3787C67.8343 65.3141 67.7283 65.1041 67.7929 64.9104C67.8575 64.7159 68.0681 64.6106 68.2612 64.6745L72.3606 66.0274L71.7603 58.2996C71.7449 58.0952 71.8972 57.9169 72.1015 57.9008C72.308 57.886 72.4842 58.0377 72.5003 58.242L73.1441 66.5259C73.154 66.6494 73.1006 66.7702 73.003 66.8467C72.937 66.898 72.8563 66.9246 72.7741 66.9246Z" fill="black"/>
<path d="M207.03 207.472H122.141C120.235 207.472 118.685 205.921 118.685 204.015V152.642C118.685 150.736 120.235 149.185 122.141 149.185H207.031C208.937 149.185 210.488 150.736 210.488 152.642V204.015C210.487 205.921 208.936 207.472 207.03 207.472ZM122.141 149.704C120.521 149.704 119.202 151.023 119.202 152.643V204.016C119.202 205.636 120.52 206.955 122.141 206.955H207.031C208.651 206.955 209.97 205.636 209.97 204.016V152.643C209.97 151.023 208.652 149.704 207.031 149.704H122.141Z" fill="#25292B"/>
<path d="M210.228 156.077H118.943V152.643C118.943 150.876 120.375 149.445 122.141 149.445H207.03C208.797 149.445 210.228 150.876 210.228 152.643V156.077Z" fill="#25292B"/>
<path d="M124.735 171.592L138.108 171.592L138.108 158.219L124.735 158.219L124.735 171.592Z" fill="#F4F6FC"/>
<path d="M124.735 187.739L138.108 187.739L138.108 174.365L124.735 174.365L124.735 187.739Z" fill="#F4F6FC"/>
<path d="M124.735 203.418L138.108 203.418L138.108 190.044L124.735 190.044L124.735 203.418Z" fill="#F4F6FC"/>
<path d="M130.127 169.303L125.346 164.521L127.78 162.087L130.127 164.433L135.062 159.497L137.497 161.932L130.127 169.303Z" fill="#1A6980"/>
<path d="M130.127 185.955L125.346 181.174L127.78 178.74L130.127 181.085L135.062 176.151L137.496 178.585L130.127 185.955Z" fill="#1A6980"/>
<path d="M130.127 201.201L125.346 196.42L127.78 193.986L130.127 196.332L135.062 191.396L137.497 193.831L130.127 201.201Z" fill="#1A6980"/>
<path d="M140.348 161.709L204.521 161.709L204.521 159.066L140.348 159.066L140.348 161.709Z" fill="#F4F6FC"/>
<path d="M140.348 166.723L204.521 166.723L204.521 164.079L140.348 164.079L140.348 166.723Z" fill="#F4F6FC"/>
<path d="M140.348 171.641L169.221 171.641L169.221 168.997L140.348 168.997L140.348 171.641Z" fill="#F4F6FC"/>
<path d="M140.348 177.409L204.52 177.409L204.52 174.766L140.348 174.766L140.348 177.409Z" fill="#F4F6FC"/>
<path d="M140.348 182.423L204.52 182.423L204.52 179.779L140.348 179.779L140.348 182.423Z" fill="#F4F6FC"/>
<path d="M140.348 187.341L169.221 187.341L169.221 184.698L140.348 184.698L140.348 187.341Z" fill="#F4F6FC"/>
<path d="M140.348 193.384L204.521 193.384L204.521 190.741L140.348 190.741L140.348 193.384Z" fill="#F4F6FC"/>
<path d="M140.348 198.398L204.521 198.398L204.521 195.754L140.348 195.754L140.348 198.398Z" fill="#F4F6FC"/>
<path d="M140.348 203.316L169.221 203.316L169.221 200.672L140.348 200.672L140.348 203.316Z" fill="#F4F6FC"/>
<path d="M305.079 173.692L300.003 188.882C293.053 209.658 270.089 215.265 254.347 200.029L242.842 188.888C223.635 170.294 229.417 135.933 252.716 130.245L269.299 126.196C292.59 120.509 313.557 148.338 305.079 173.692Z" fill="#F4F6FC"/>
<path d="M264.577 144.195C276.676 141.241 285.544 134.998 284.385 130.251C283.226 125.505 272.479 124.052 260.38 127.006C248.281 129.96 239.413 136.202 240.572 140.949C241.731 145.696 252.478 147.149 264.577 144.195Z" fill="#25292B"/>
<path d="M294.994 112.893C294.994 129.76 278.444 135.328 258.027 135.328C237.61 135.328 221.06 129.76 221.06 112.893C221.06 96.0252 237.61 80.1976 258.027 80.1976C278.444 80.1984 294.994 96.026 294.994 112.893Z" fill="#F4F6FC"/>
<path d="M242.214 122.86C242.214 122.86 225.79 122.66 221.081 113.816C221.067 113.514 221.06 113.206 221.06 112.89C221.06 104.499 225.165 96.3579 231.806 90.2993H273.146C273.146 90.2993 287.711 122.86 242.214 122.86Z" fill="#1A6980"/>
<path d="M231.792 108.459C234.817 108.459 237.269 105.673 237.269 102.236C237.269 98.7994 234.817 96.0133 231.792 96.0133C228.767 96.0133 226.315 98.7994 226.315 102.236C226.315 105.673 228.767 108.459 231.792 108.459Z" fill="#F4F6FC"/>
<path d="M250.97 108.459C253.995 108.459 256.447 105.673 256.447 102.236C256.447 98.7994 253.995 96.0133 250.97 96.0133C247.946 96.0133 245.494 98.7994 245.494 102.236C245.494 105.673 247.946 108.459 250.97 108.459Z" fill="#F4F6FC"/>
<path d="M239.49 114.831C234.394 114.831 234.311 110.237 234.311 110.19C234.31 110.051 234.422 109.938 234.561 109.937H234.562C234.7 109.937 234.814 110.048 234.814 110.186C234.816 110.355 234.902 114.327 239.49 114.327C244.077 114.327 244.163 110.355 244.165 110.186C244.166 110.048 244.279 109.937 244.417 109.937H244.418C244.557 109.938 244.669 110.051 244.669 110.19C244.669 110.237 244.586 114.831 239.49 114.831Z" fill="#F4F6FC"/>
<path d="M282.254 130.114C282.214 130.114 282.174 130.104 282.135 130.084C282.012 130.018 281.967 129.866 282.033 129.743C285.618 123.082 287.137 115.271 286.31 107.751C285.481 100.23 282.298 92.9387 277.347 87.2172C277.256 87.1118 277.267 86.9529 277.372 86.8615C277.477 86.7701 277.636 86.7809 277.728 86.8871C282.745 92.6845 285.97 100.074 286.81 107.695C287.649 115.316 286.11 123.231 282.476 129.982C282.431 130.066 282.345 130.114 282.254 130.114Z" fill="#25292B"/>
<path d="M259.32 84.131C259.273 84.131 259.224 84.117 259.181 84.0891C259.065 84.0124 259.033 83.8567 259.11 83.7396C262.936 77.936 263.978 70.5105 261.897 63.8785C261.855 63.746 261.929 63.6042 262.062 63.5631C262.194 63.5228 262.336 63.5956 262.377 63.7282C264.504 70.5035 263.44 78.0887 259.531 84.0178C259.483 84.0907 259.402 84.131 259.32 84.131Z" fill="#25292B"/>
<path d="M262.117 69.2802C266.002 69.2802 269.151 66.1309 269.151 62.246C269.151 58.3611 266.002 55.2118 262.117 55.2118C258.232 55.2118 255.083 58.3611 255.083 62.246C255.083 66.1309 258.232 69.2802 262.117 69.2802Z" fill="#1A6980"/>
<path d="M289.041 169.789C294.955 169.789 299.75 163.714 299.75 156.22C299.75 148.726 294.955 142.651 289.041 142.651C283.126 142.651 278.332 148.726 278.332 156.22C278.332 163.714 283.126 169.789 289.041 169.789Z" fill="#1A6980"/>
<path d="M252.533 176.972C243.335 176.972 234.142 174.833 225.914 170.696C222.724 169.093 221.437 165.206 223.04 162.015C224.644 158.825 228.53 157.538 231.721 159.142C240.409 163.509 250.474 165.027 260.062 163.417C269.651 161.807 278.669 157.086 285.453 150.122C287.944 147.564 292.037 147.511 294.596 150.004C297.153 152.495 297.207 156.589 294.715 159.147C286.028 168.064 274.482 174.109 262.203 176.171C259.007 176.707 255.77 176.972 252.533 176.972Z" fill="#25292B"/>
<path d="M159.36 129.494C160.865 129.251 162.431 129.234 164.017 129.471C168.034 130.071 171.577 132.2 173.994 135.466C176.41 138.731 177.41 142.742 176.81 146.76L176.708 147.437C176.431 149.295 174.7 150.577 172.842 150.298C170.984 150.021 169.703 148.29 169.981 146.432L170.082 145.755C170.414 143.534 169.861 141.317 168.526 139.512C167.191 137.708 165.233 136.53 163.012 136.199C158.427 135.514 154.141 138.686 153.456 143.269L153.354 143.948C153.076 145.805 151.345 147.085 149.487 146.808C147.63 146.53 146.349 144.798 146.627 142.941L146.728 142.264C147.73 135.556 152.995 130.519 159.36 129.494Z" fill="#1A6980"/>
<path d="M228.66 158.547C228.611 159.958 228.346 161.384 227.847 162.784C226.581 166.327 224.011 169.165 220.61 170.776C217.21 172.387 213.385 172.577 209.841 171.31L209.244 171.097C207.606 170.512 206.75 168.71 207.337 167.071C207.922 165.432 209.725 164.578 211.363 165.163L211.961 165.376C213.919 166.076 216.033 165.971 217.913 165.081C219.792 164.191 221.213 162.622 221.913 160.664C223.357 156.62 221.243 152.157 217.2 150.712L216.603 150.498C214.965 149.912 214.112 148.11 214.696 146.471C215.282 144.833 217.085 143.979 218.724 144.564L219.321 144.778C225.237 146.892 228.87 152.579 228.66 158.547Z" fill="#1A6980"/>
<path d="M164.644 227.12H124.243V267.521H164.644V227.12Z" fill="#1A6980"/>
<path d="M253.639 221.734H118.943V215.145C118.943 213.378 120.375 211.947 122.141 211.947H250.442C252.208 211.947 253.64 213.378 253.64 215.145L253.639 221.734Z" fill="#1A6980"/>
<path d="M250.441 297.569H122.141C120.167 297.569 118.561 295.964 118.561 293.989V215.145C118.561 213.17 120.167 211.565 122.141 211.565H250.442C252.416 211.565 254.022 213.17 254.022 215.145V293.99C254.022 295.964 252.415 297.569 250.441 297.569ZM122.141 212.329C120.589 212.329 119.326 213.592 119.326 215.145V293.99C119.326 295.542 120.589 296.806 122.141 296.806H250.442C251.994 296.806 253.258 295.542 253.258 293.99V215.145C253.258 213.592 251.995 212.329 250.442 212.329H122.141Z" fill="#25292B"/>
<path d="M248.724 216.802C248.724 217.237 248.549 217.637 248.261 217.925C247.973 218.213 247.573 218.389 247.137 218.389H239.429C238.558 218.389 237.842 217.68 237.842 216.802C237.842 216.367 238.024 215.966 238.305 215.679C238.6 215.391 238.993 215.215 239.429 215.215H247.137C248.015 215.215 248.724 215.924 248.724 216.802Z" fill="#F4F6FC"/>
<path d="M235.903 216.802C235.903 217.237 235.728 217.637 235.433 217.925C235.152 218.213 234.752 218.389 234.317 218.389H226.608C225.73 218.389 225.021 217.68 225.021 216.802C225.021 216.367 225.197 215.966 225.484 215.679C225.772 215.391 226.165 215.215 226.608 215.215H234.317C235.187 215.215 235.903 215.924 235.903 216.802Z" fill="#25292B"/>
<path d="M222.865 216.802C222.865 217.237 222.69 217.637 222.395 217.925C222.114 218.213 221.714 218.389 221.278 218.389H213.57C212.692 218.389 211.983 217.68 211.983 216.802C211.983 216.367 212.158 215.966 212.446 215.679C212.734 215.391 213.127 215.215 213.57 215.215H221.278C222.149 215.215 222.865 215.924 222.865 216.802Z" fill="#1A6980"/>
<path d="M139.552 262.307L126.239 248.994L132.6 242.634L139.552 249.585L156.802 232.334L163.163 238.696L139.552 262.307Z" fill="#F4F6FC"/>
<path d="M246.512 275.374H125.154C124.652 275.374 124.243 274.964 124.243 274.464V273.951C124.243 273.45 124.653 273.04 125.154 273.04H246.512C247.013 273.04 247.422 273.45 247.422 273.951V274.464C247.422 274.965 247.013 275.374 246.512 275.374Z" fill="#F4F6FC"/>
<path d="M246.643 283.627H125.286C124.784 283.627 124.375 283.217 124.375 282.717V282.204C124.375 281.703 124.785 281.293 125.286 281.293H246.643C247.145 281.293 247.554 281.703 247.554 282.204V282.717C247.554 283.217 247.144 283.627 246.643 283.627Z" fill="#F4F6FC"/>
<path d="M209.886 291.379H125.22C124.719 291.379 124.31 290.969 124.31 290.468V289.956C124.31 289.454 124.72 289.045 125.22 289.045H209.886C210.388 289.045 210.797 289.455 210.797 289.956V290.468C210.797 290.969 210.387 291.379 209.886 291.379Z" fill="#F4F6FC"/>
<path d="M220.223 259.294C216.061 259.294 212.677 255.91 212.677 251.749V235.624C212.677 232.259 209.939 229.521 206.574 229.521C203.208 229.521 200.47 232.259 200.47 235.624V248.823C200.47 252.486 197.49 255.467 193.827 255.467H193.591C189.928 255.467 186.948 252.486 186.948 248.823V234.224C186.948 231.182 184.473 228.709 181.433 228.709C178.392 228.709 175.919 231.183 175.919 234.224V261.563C175.919 261.875 175.666 262.127 175.354 262.127C175.042 262.127 174.79 261.875 174.79 261.563V234.224C174.79 230.56 177.769 227.58 181.433 227.58C185.096 227.58 188.076 230.56 188.076 234.224V248.823C188.076 251.864 190.551 254.338 193.591 254.338H193.827C196.868 254.338 199.341 251.864 199.341 248.823V235.624C199.341 231.636 202.585 228.392 206.573 228.392C210.56 228.392 213.804 231.637 213.804 235.624V251.749C213.804 255.288 216.683 258.166 220.221 258.166C223.76 258.166 226.638 255.288 226.638 251.749V247.869C226.638 243.823 229.929 240.532 233.974 240.532C238.02 240.532 241.311 243.823 241.311 247.869V263.732C241.311 264.044 241.059 264.297 240.747 264.297C240.434 264.297 240.182 264.044 240.182 263.732V247.869C240.182 244.446 237.398 241.661 233.974 241.661C230.551 241.661 227.767 244.445 227.767 247.869V251.749C227.768 255.909 224.383 259.294 220.223 259.294Z" fill="#F4F6FC"/>
<path d="M180.945 231.508C182.856 231.508 184.406 229.959 184.406 228.048C184.406 226.136 182.856 224.587 180.945 224.587C179.034 224.587 177.484 226.136 177.484 228.048C177.484 229.959 179.034 231.508 180.945 231.508Z" fill="#1A6980"/>
<path d="M199.592 245.357C201.504 245.357 203.053 243.808 203.053 241.897C203.053 239.985 201.504 238.436 199.592 238.436C197.681 238.436 196.132 239.985 196.132 241.897C196.132 243.808 197.681 245.357 199.592 245.357Z" fill="#1A6980"/>
<path d="M213.808 237.959C215.719 237.959 217.268 236.409 217.268 234.498C217.268 232.587 215.719 231.038 213.808 231.038C211.897 231.038 210.347 232.587 210.347 234.498C210.347 236.409 211.897 237.959 213.808 237.959Z" fill="#1A6980"/>
<path d="M219.882 261.75C221.794 261.75 223.343 260.201 223.343 258.29C223.343 256.379 221.794 254.829 219.882 254.829C217.971 254.829 216.422 256.379 216.422 258.29C216.422 260.201 217.971 261.75 219.882 261.75Z" fill="#1A6980"/>
<path d="M240.749 266.102C242.66 266.102 244.209 264.552 244.209 262.641C244.209 260.73 242.66 259.181 240.749 259.181C238.837 259.181 237.288 260.73 237.288 262.641C237.288 264.552 238.837 266.102 240.749 266.102Z" fill="#1A6980"/>
<path d="M175.327 265.253C177.238 265.253 178.788 263.703 178.788 261.792C178.788 259.881 177.238 258.331 175.327 258.331C173.416 258.331 171.867 259.881 171.867 261.792C171.867 263.703 173.416 265.253 175.327 265.253Z" fill="#1A6980"/>
<path d="M128.073 98.9592C127.871 98.9592 127.708 98.8019 127.708 98.6081V94.3956C127.708 94.2019 127.871 94.0446 128.073 94.0446C128.274 94.0446 128.438 94.2019 128.438 94.3956V98.6081C128.438 98.8019 128.274 98.9592 128.073 98.9592ZM200.398 94.8141C200.203 94.8141 200.041 94.6652 200.034 94.475C200.027 94.2812 200.184 94.119 200.386 94.112C201.81 94.0642 203.175 93.7272 204.439 93.1108C204.62 93.021 204.839 93.0926 204.93 93.2653C205.021 93.4387 204.949 93.6493 204.769 93.7371C203.409 94.4005 201.942 94.7628 200.411 94.8141C200.406 94.8141 200.402 94.8141 200.398 94.8141ZM196.08 94.3079C196.041 94.3079 196.002 94.3023 195.963 94.2896C194.54 93.8255 193.209 93.0511 192.114 92.0493C191.968 91.9159 191.962 91.694 192.101 91.5529C192.239 91.4125 192.47 91.4062 192.617 91.5403C193.636 92.4719 194.874 93.193 196.198 93.624C196.389 93.6865 196.491 93.8859 196.426 94.0692C196.374 94.2159 196.233 94.3079 196.08 94.3079ZM207.965 91.1302C207.886 91.1302 207.806 91.1057 207.739 91.0544C207.581 90.9337 207.554 90.7132 207.679 90.5609C208.565 89.486 209.181 88.2672 209.512 86.9402C209.559 86.7514 209.755 86.6334 209.952 86.6805C210.149 86.7254 210.269 86.9149 210.222 87.1038C209.866 88.5311 209.204 89.8405 208.252 90.9961C208.18 91.0846 208.073 91.1302 207.965 91.1302ZM128.073 90.5342C127.871 90.5342 127.708 90.3769 127.708 90.1831V85.9706C127.708 85.7769 127.871 85.6196 128.073 85.6196C128.274 85.6196 128.438 85.7769 128.438 85.9706V90.1831C128.438 90.3769 128.274 90.5342 128.073 90.5342ZM189.93 88.6856C189.785 88.6856 189.648 88.6021 189.591 88.4644C189.103 87.2807 188.854 86.0289 188.854 84.7441V84.2091C188.854 84.0153 189.018 83.8581 189.219 83.8581C189.421 83.8581 189.584 84.0153 189.584 84.2091V84.7441C189.584 85.9397 189.815 87.1045 190.27 88.2054C190.344 88.3851 190.253 88.5894 190.065 88.661C190.021 88.6779 189.975 88.6856 189.93 88.6856ZM158.728 87.9638H158.388C157.318 87.9638 156.263 87.8094 155.252 87.504C155.06 87.4457 154.953 87.2491 155.013 87.0645C155.073 86.8791 155.276 86.7745 155.47 86.8342C156.41 87.1178 157.392 87.2618 158.388 87.2618H158.728C159.04 87.2618 159.349 87.2477 159.654 87.2196C159.853 87.2028 160.033 87.3439 160.051 87.537C160.069 87.7301 159.922 87.9014 159.721 87.9189C159.394 87.9491 159.063 87.9638 158.728 87.9638ZM163.821 86.6404C163.696 86.6404 163.574 86.5786 163.506 86.4663C163.405 86.2992 163.463 86.0844 163.636 85.9861C164.846 85.3058 165.91 84.3615 166.714 83.255C166.83 83.0956 167.057 83.057 167.222 83.1686C167.387 83.2796 167.427 83.4986 167.312 83.6573C166.448 84.8459 165.305 85.8604 164.005 86.592C163.947 86.625 163.884 86.6404 163.821 86.6404ZM151.595 85.4399C151.508 85.4399 151.42 85.4097 151.35 85.3486C150.233 84.372 149.331 83.1518 148.745 81.8192C148.666 81.6409 148.753 81.4345 148.938 81.3587C149.123 81.2835 149.337 81.3664 149.416 81.5447C149.963 82.7846 150.8 83.9199 151.841 84.8284C151.99 84.9589 152.001 85.1808 151.865 85.324C151.794 85.4006 151.695 85.4399 151.595 85.4399ZM210.146 83.1834C209.945 83.1834 209.782 83.0261 209.782 82.8323V78.6198C209.782 78.4261 209.945 78.2688 210.146 78.2688C210.348 78.2688 210.511 78.4261 210.511 78.6198V82.8323C210.511 83.0261 210.348 83.1834 210.146 83.1834ZM128.073 82.1092C127.871 82.1092 127.708 81.9519 127.708 81.7582V77.5457C127.708 77.3519 127.871 77.1946 128.073 77.1946C128.274 77.1946 128.438 77.3519 128.438 77.5457V81.7582C128.438 81.9519 128.274 82.1092 128.073 82.1092ZM189.219 80.3477C189.018 80.3477 188.854 80.1904 188.854 79.9966V75.7841C188.854 75.5904 189.018 75.4331 189.219 75.4331C189.421 75.4331 189.584 75.5904 189.584 75.7841V79.9966C189.584 80.1911 189.421 80.3477 189.219 80.3477ZM168.677 79.9475C168.656 79.9475 168.635 79.9461 168.613 79.9419C168.415 79.9082 168.283 79.7256 168.318 79.5347C168.418 78.9933 168.468 78.4394 168.467 77.8876V75.3931C168.467 75.1993 168.631 75.042 168.832 75.042C169.033 75.042 169.197 75.1993 169.197 75.3931V77.8869C169.197 78.4801 169.143 79.0755 169.035 79.6568C169.005 79.8281 168.851 79.9475 168.677 79.9475ZM148.283 77.9248C148.081 77.9248 147.918 77.7675 147.918 77.5737V73.3612C147.918 73.1675 148.081 73.0102 148.283 73.0102C148.484 73.0102 148.647 73.1675 148.647 73.3612V77.5737C148.647 77.7675 148.484 77.9248 148.283 77.9248ZM210.146 74.7584C209.945 74.7584 209.782 74.6011 209.782 74.4073V70.1949C209.782 70.0011 209.945 69.8438 210.146 69.8438C210.348 69.8438 210.511 70.0011 210.511 70.1949V74.4073C210.511 74.6011 210.348 74.7584 210.146 74.7584ZM128.073 73.6842C127.871 73.6842 127.708 73.5269 127.708 73.3332V69.1207C127.708 68.9269 127.871 68.7696 128.073 68.7696C128.274 68.7696 128.438 68.9269 128.438 69.1207V73.3332C128.438 73.5269 128.274 73.6842 128.073 73.6842ZM189.219 71.9227C189.018 71.9227 188.854 71.7654 188.854 71.5716V67.3591C188.854 67.1654 189.018 67.0081 189.219 67.0081C189.421 67.0081 189.584 67.1654 189.584 67.3591V71.5716C189.584 71.7661 189.421 71.9227 189.219 71.9227ZM168.832 71.5323C168.631 71.5323 168.467 71.3751 168.467 71.1813V66.9688C168.467 66.775 168.631 66.6177 168.832 66.6177C169.033 66.6177 169.197 66.775 169.197 66.9688V71.1813C169.197 71.3751 169.034 71.5323 168.832 71.5323ZM148.283 69.4998C148.081 69.4998 147.918 69.3425 147.918 69.1487V64.9363C147.918 64.7425 148.081 64.5852 148.283 64.5852C148.484 64.5852 148.647 64.7425 148.647 64.9363V69.1487C148.647 69.3425 148.484 69.4998 148.283 69.4998ZM210.146 66.3334C209.945 66.3334 209.782 66.1761 209.782 65.9824V61.7699C209.782 61.5761 209.945 61.4188 210.146 61.4188C210.348 61.4188 210.511 61.5761 210.511 61.7699V65.9824C210.511 66.1761 210.348 66.3334 210.146 66.3334ZM128.073 65.2592C127.871 65.2592 127.708 65.1019 127.708 64.9082V60.6957C127.708 60.5019 127.871 60.3446 128.073 60.3446C128.274 60.3446 128.438 60.5019 128.438 60.6957V64.9082C128.438 65.1019 128.274 65.2592 128.073 65.2592ZM189.219 63.4977C189.018 63.4977 188.854 63.3404 188.854 63.1466V59.3624C188.854 59.2241 188.852 59.0865 188.845 58.9496C188.836 58.7558 188.992 58.5922 189.194 58.5838C189.396 58.5789 189.565 58.7256 189.574 58.9194C189.58 59.0661 189.584 59.2143 189.584 59.3624V63.1466C189.584 63.3411 189.421 63.4977 189.219 63.4977ZM168.832 63.1073C168.631 63.1073 168.467 62.9501 168.467 62.7563V59.3631C168.467 59.0781 168.48 58.7951 168.504 58.5157C168.52 58.3226 168.698 58.1787 168.898 58.1956C169.098 58.2117 169.247 58.3816 169.23 58.5747C169.208 58.8345 169.197 59.0977 169.197 59.3631V62.7563C169.197 62.9501 169.034 63.1073 168.832 63.1073ZM148.283 61.0748C148.081 61.0748 147.918 60.9175 147.918 60.7238V56.5113C147.918 56.3175 148.081 56.1602 148.283 56.1602C148.484 56.1602 148.647 56.3175 148.647 56.5113V60.7238C148.647 60.9175 148.484 61.0748 148.283 61.0748ZM210.146 57.9084C209.945 57.9084 209.782 57.7511 209.782 57.5574V53.3449C209.782 53.1511 209.945 52.9938 210.146 52.9938C210.348 52.9938 210.511 53.1511 210.511 53.3449V57.5574C210.511 57.7511 210.348 57.9084 210.146 57.9084ZM128.073 56.8342C127.871 56.8342 127.708 56.677 127.708 56.4832V52.2707C127.708 52.0769 127.871 51.9196 128.073 51.9196C128.274 51.9196 128.438 52.0769 128.438 52.2707V56.4832C128.438 56.677 128.274 56.8342 128.073 56.8342ZM253.636 56.7394C253.515 56.7394 253.397 56.6819 253.327 56.5766C252.591 55.4588 251.402 54.662 250.062 54.391C249.865 54.351 249.739 54.1649 249.781 53.9753C249.822 53.7858 250.016 53.665 250.213 53.7043C251.743 54.014 253.103 54.9239 253.943 56.2009C254.051 56.3645 254.001 56.5815 253.83 56.6854C253.77 56.7219 253.702 56.7394 253.636 56.7394ZM188.093 55.2482C187.961 55.2482 187.834 55.1787 187.769 55.0587C187.126 53.8623 186.201 52.7916 185.092 51.9618C184.933 51.8431 184.905 51.622 185.029 51.4689C185.152 51.3159 185.382 51.2871 185.541 51.4078C186.732 52.3002 187.726 53.4509 188.417 54.7357C188.509 54.9084 188.439 55.1197 188.261 55.2089C188.207 55.2356 188.149 55.2482 188.093 55.2482ZM170.152 54.9042C170.091 54.9042 170.029 54.8895 169.972 54.8586C169.797 54.7624 169.736 54.5482 169.836 54.3797C170.581 53.1216 171.623 52.0095 172.849 51.1649C173.013 51.0512 173.24 51.0884 173.357 51.2456C173.474 51.4029 173.437 51.6227 173.273 51.735C172.133 52.5213 171.163 53.5562 170.47 54.7273C170.402 54.841 170.279 54.9042 170.152 54.9042ZM245.769 54.285H241.392C241.191 54.285 241.027 54.1277 241.027 53.9339C241.027 53.7401 241.191 53.5829 241.392 53.5829H245.769C245.97 53.5829 246.134 53.7401 246.134 53.9339C246.134 54.1277 245.971 54.285 245.769 54.285ZM237.139 53.4586C237.089 53.4586 237.038 53.4488 236.989 53.4277C235.616 52.8281 234.378 51.9196 233.41 50.7998C233.281 50.651 233.302 50.4298 233.457 50.3056C233.611 50.1813 233.841 50.2024 233.97 50.3505C234.868 51.3889 236.016 52.2321 237.29 52.7874C237.473 52.8675 237.555 53.076 237.472 53.2522C237.411 53.3821 237.278 53.4586 237.139 53.4586ZM148.283 52.6498C148.081 52.6498 147.918 52.4925 147.918 52.2988V50.717C147.918 49.8661 147.799 49.0236 147.566 48.2126C147.512 48.0259 147.627 47.8321 147.821 47.7809C148.014 47.7317 148.216 47.8391 148.27 48.0259C148.52 48.8972 148.647 49.8029 148.647 50.717V52.2988C148.647 52.4925 148.484 52.6498 148.283 52.6498ZM181.398 50.2375C181.371 50.2375 181.343 50.2346 181.315 50.2283C180.599 50.069 179.858 49.9882 179.114 49.9882H178.938C178.326 49.9882 177.714 50.043 177.12 50.1511C176.924 50.1869 176.732 50.0619 176.694 49.8717C176.657 49.6814 176.786 49.4975 176.984 49.4617C177.623 49.3451 178.28 49.2861 178.937 49.2861H179.114C179.912 49.2861 180.708 49.3732 181.479 49.5445C181.675 49.5887 181.797 49.7769 181.752 49.9658C181.713 50.1279 181.563 50.2375 181.398 50.2375ZM210.146 49.4834C209.945 49.4834 209.782 49.3262 209.782 49.1324V44.9199C209.782 44.7261 209.945 44.5688 210.146 44.5688C210.348 44.5688 210.511 44.7261 210.511 44.9199V49.1324C210.511 49.3262 210.348 49.4834 210.146 49.4834ZM128.446 48.4422C128.413 48.4422 128.38 48.438 128.347 48.4289C128.153 48.3769 128.04 48.1832 128.094 47.9964C128.505 46.5831 129.217 45.2983 130.212 44.1771C130.344 44.0296 130.574 44.0128 130.727 44.1378C130.88 44.2641 130.898 44.4853 130.768 44.6327C129.842 45.676 129.179 46.871 128.796 48.186C128.752 48.3411 128.605 48.4422 128.446 48.4422ZM231.732 47.1988C231.568 47.1988 231.419 47.0914 231.378 46.9314C231.186 46.1794 231.089 45.4015 231.089 44.6201C231.089 43.9882 231.021 43.3578 230.885 42.7462C230.844 42.5567 230.969 42.3699 231.166 42.3299C231.362 42.2899 231.556 42.4106 231.599 42.6002C231.745 43.2595 231.818 43.9398 231.818 44.6201C231.818 45.3453 231.909 46.0671 232.086 46.7643C232.134 46.9524 232.014 47.1427 231.819 47.1883C231.79 47.196 231.761 47.1988 231.732 47.1988ZM145.884 44.7781C145.781 44.7781 145.678 44.7359 145.606 44.6545C144.697 43.6238 143.546 42.7792 142.278 42.212C142.095 42.1298 142.016 41.9213 142.1 41.7451C142.185 41.5695 142.402 41.4923 142.585 41.5745C143.949 42.1846 145.185 43.0924 146.163 44.1995C146.293 44.347 146.274 44.5688 146.121 44.6945C146.051 44.7507 145.968 44.7781 145.884 44.7781ZM133.95 42.2323C133.812 42.2323 133.68 42.1572 133.618 42.028C133.534 41.8518 133.614 41.6433 133.797 41.5618C135.175 40.9503 136.649 40.64 138.178 40.64C138.379 40.64 138.549 40.7973 138.549 40.991C138.549 41.1848 138.393 41.3421 138.192 41.3421C136.755 41.3421 135.384 41.6306 134.103 42.1993C134.053 42.2225 134.001 42.2323 133.95 42.2323ZM210.985 41.1729C210.935 41.1729 210.885 41.163 210.836 41.1427C210.652 41.0633 210.569 40.8555 210.652 40.6786C211.268 39.3538 212.205 38.1581 213.364 37.2201C213.518 37.0959 213.747 37.1148 213.878 37.263C214.008 37.4111 213.988 37.633 213.834 37.7579C212.759 38.6278 211.889 39.7371 211.319 40.9658C211.257 41.0956 211.124 41.1729 210.985 41.1729ZM229.406 39.2407C229.297 39.2407 229.19 39.1944 229.118 39.1059C228.253 38.0416 227.133 37.1647 225.877 36.5707C225.696 36.4851 225.622 36.2751 225.711 36.101C225.799 35.9269 226.016 35.8546 226.199 35.941C227.553 36.5813 228.761 37.5263 229.692 38.6735C229.817 38.8265 229.788 39.047 229.63 39.1663C229.563 39.2162 229.485 39.2407 229.406 39.2407ZM217.461 35.9367C217.298 35.9367 217.15 35.8307 217.108 35.6714C217.059 35.4832 217.177 35.2929 217.373 35.2459C218.169 35.0535 218.992 34.9559 219.819 34.9559C219.821 34.9559 219.822 34.9559 219.824 34.9559H221.776C221.977 34.9559 222.16 35.1132 222.16 35.307C222.16 35.5007 222.015 35.658 221.813 35.658H219.823C219.822 35.658 219.82 35.658 219.819 35.658C219.051 35.658 218.288 35.7486 217.549 35.9269C217.52 35.9332 217.49 35.9367 217.461 35.9367Z" fill="#25292B"/>
</svg>
