<svg width="133" height="132" viewBox="0 0 133 132" fill="none" xmlns="http://www.w3.org/2000/svg">
<path d="M117.507 69.8663C124.445 62.9797 124.445 51.8143 117.507 44.9277C110.568 38.0411 99.318 38.0411 92.3792 44.9277C85.4404 51.8143 85.4404 62.9797 92.3792 69.8663C99.318 76.7529 110.568 76.7529 117.507 69.8663Z" fill="#C6DADF"/>
<path d="M82.9873 104.044C82.5655 114.65 74.6956 123.427 64.0029 123.633C53.3102 123.84 44.4732 115.404 44.2654 104.792C44.0574 94.179 52.5867 84.3883 63.2499 85.2022C74.6232 86.0702 83.3722 94.3672 82.9873 104.044Z" fill="#C6DADF"/>
<path d="M46.6753 53.3326C53.7505 46.3106 53.7505 34.9255 46.6751 27.9033C39.5997 20.8811 28.1284 20.881 21.0531 27.9031C13.9778 34.9252 13.9779 46.3103 21.0533 53.3324C28.1286 60.3546 39.6 60.3547 46.6753 53.3326Z" fill="#C6DADF"/>
<path d="M102.649 61.5534C102.93 61.8108 96.0645 69.6529 87.316 79.0674C78.5646 88.4848 71.2446 95.9082 70.9634 95.6506C70.6823 95.3934 77.5464 87.5526 86.2978 78.1352C95.0463 68.721 102.368 61.296 102.649 61.5534Z" fill="#C6DADF"/>
<path d="M99.0081 48.7661C98.9267 49.1373 86.8282 46.8395 71.9886 43.635C57.1439 40.4295 45.1798 37.5308 45.2612 37.1599C45.3426 36.789 57.4384 39.086 72.283 42.2918C87.1229 45.4962 99.0895 48.3952 99.0081 48.7661Z" fill="#C6DADF"/>
<path d="M54.9029 92.2032C54.7441 92.3009 52.8624 89.6298 50.0125 85.1898C47.1623 80.7507 43.3593 74.5329 39.3549 67.5533C35.3513 60.5702 31.9058 54.1498 29.5153 49.4508C27.1237 44.7519 25.7705 41.7829 25.9365 41.6974C26.11 41.6076 27.7695 44.4163 30.3787 48.992C32.9861 53.5716 36.584 59.8915 40.5588 66.8732C44.5768 73.8275 48.2146 80.1242 50.8509 84.6872C53.4827 89.2504 55.0691 92.1011 54.9029 92.2032Z" fill="#C6DADF"/>
<path d="M111.612 33.0869C111.705 34.5936 111.809 35.0508 112.372 36.2523C112.706 36.9648 113.176 37.6251 113.361 38.3888C113.537 39.1148 113.442 39.8807 113.577 40.6154C113.797 41.8145 114.599 42.8119 115.2 43.8742C115.802 44.9368 116.208 46.2814 115.61 47.3463L109.456 46.6251L109.022 39.0422L111.612 33.0869Z" fill="#263238"/>
<path d="M99.3772 30.5161C98.5805 32.1936 99.6882 33.871 98.8915 35.5482C98.4967 36.3796 98.0991 37.2183 97.8884 38.1132C97.6985 38.9195 97.6604 39.769 97.329 40.5291C96.8013 41.7403 95.6027 42.5593 95.0475 43.7584C94.225 45.5351 95.0989 47.7609 96.6709 48.9391C98.2427 50.1173 100.329 50.4112 102.294 50.2747C103.486 50.192 104.693 49.956 105.719 49.348C106.744 48.7403 107.566 47.7125 107.695 46.5346" fill="#263238"/>
<path d="M108.503 27.5303C112.463 29.2727 113.251 35.728 113.27 36.5974C113.294 37.6341 113.85 37.8487 114.544 38.3907C115.239 38.9327 115.911 39.5895 116.103 40.4309C116.254 41.093 116.095 41.8253 116.415 42.4296C116.796 43.1512 117.699 43.4191 118.4 43.8645C119.724 44.7061 120.378 46.2891 120.451 47.8174C120.524 49.3456 120.101 50.8507 119.681 52.3262C119.515 52.9112 119.308 53.5504 118.773 53.8695C118.361 54.1156 117.846 54.1127 117.361 54.1019C114.854 54.0464 112.347 53.9907 109.84 53.9353C107.922 53.8928 105.953 53.8405 104.18 53.133C102.739 52.558 101.476 51.5434 100.704 50.2366C99.9317 48.9296 99.6726 47.3316 100.078 45.8791C100.39 44.7592 101.075 43.7478 101.273 42.6039C101.518 41.1875 100.321 40.5814 99.8878 39.2075C99.4539 37.8337 99.0956 34.5382 99.6899 33.2213" fill="#263238"/>
<path d="M113.029 63.1228L111.792 59.1887L111.612 65.1955C111.612 65.1955 113.216 69.2994 114.438 72.436C111.985 73.8888 109.159 74.804 106.112 74.9949C102.322 75.2323 98.7275 74.3209 95.6693 72.5661L97.5742 65.7737L96.6663 58.0915L94.1534 61.6582L88.793 56.5152C88.793 56.5152 92.7167 49.3196 93.2033 48.663C96.3056 44.4773 101.665 44.5774 101.665 44.5774L109.248 44.9942C109.248 44.9942 113.512 44.7574 116.313 48.1062C116.313 48.1062 119.05 52.2529 121.298 62.4869L113.029 63.1228Z" fill="#1A6980"/>
<path d="M116.822 49.2314C116.822 49.2335 116.784 49.2393 116.711 49.2486C116.639 49.2605 116.529 49.2639 116.389 49.2921C116.106 49.3346 115.691 49.4302 115.186 49.6361C114.688 49.8489 114.095 50.1789 113.533 50.7133C113.253 50.9796 112.981 51.2941 112.743 51.6618C112.511 52.0301 112.283 52.4459 112.193 52.9198C112.15 53.1547 112.147 53.4058 112.217 53.6434C112.288 53.8781 112.443 54.0967 112.654 54.2443C112.861 54.3939 113.143 54.4565 113.389 54.3594C113.637 54.2672 113.819 54.0328 113.9 53.7701C113.983 53.5051 113.97 53.2083 113.841 52.9493C113.718 52.6877 113.51 52.4636 113.265 52.2846C112.771 51.9269 112.154 51.7062 111.509 51.6359C110.861 51.5625 110.183 51.6362 109.52 51.8118C108.858 51.9921 108.19 52.2394 107.582 52.6143C106.977 52.9895 106.402 53.4639 105.979 54.0632C105.775 54.3625 105.605 54.7049 105.596 55.064C105.593 55.2414 105.635 55.4193 105.731 55.5698C105.825 55.7213 105.963 55.8459 106.119 55.9463L106.106 55.9399C106.282 56.0049 106.478 56.0342 106.648 55.9624C106.818 55.8935 106.948 55.7374 107.035 55.56C107.208 55.1999 107.258 54.773 107.259 54.3567C107.254 53.9454 107.207 53.528 107.06 53.1529C106.917 52.7754 106.677 52.4382 106.387 52.1626C105.803 51.6066 105.028 51.2853 104.249 51.2067C103.467 51.1219 102.685 51.2442 101.959 51.4627C101.239 51.6832 100.517 51.9746 100.055 52.5209C99.8354 52.7912 99.6712 53.1267 99.7146 53.4628C99.7508 53.7957 99.9207 54.1175 100.178 54.3211C100.306 54.4227 100.457 54.4937 100.613 54.5096C100.769 54.5257 100.927 54.4863 101.061 54.4027C101.333 54.2366 101.457 53.9137 101.485 53.6059C101.514 53.2936 101.472 52.9781 101.382 52.6867C101.335 52.5412 101.271 52.4005 101.217 52.2592C101.187 52.1895 101.164 52.1175 101.13 52.0504L101.022 51.8535C100.753 51.3215 100.381 50.8751 99.9926 50.4918C99.2004 49.7333 98.3016 49.2475 97.4672 48.9912C96.6319 48.7311 95.8677 48.6588 95.2527 48.6997C94.6369 48.7404 94.1677 48.8558 93.8594 48.9555C93.7107 49.0086 93.5947 49.0498 93.5107 49.0799C93.4317 49.1073 93.3896 49.1182 93.3896 49.1182C93.3896 49.1182 93.4277 49.0986 93.5051 49.0672C93.5884 49.0339 93.703 48.9883 93.8504 48.9297C94.1576 48.8206 94.6284 48.6958 95.2495 48.6467C95.8698 48.5973 96.6431 48.662 97.4906 48.9183C98.3373 49.171 99.2515 49.6562 100.061 50.4226C100.458 50.8099 100.839 51.2626 101.117 51.8041L101.227 52.0047C101.262 52.0729 101.286 52.1465 101.317 52.2175C101.373 52.3619 101.438 52.504 101.489 52.6547C101.583 52.9586 101.629 53.2854 101.599 53.6178C101.572 53.9428 101.439 54.3073 101.124 54.5027C100.973 54.5983 100.784 54.6476 100.601 54.6286C100.417 54.6107 100.244 54.5286 100.102 54.4161C99.8157 54.1893 99.6321 53.8446 99.5901 53.4755C99.5675 53.2917 99.5973 53.094 99.6691 52.9227C99.7369 52.7484 99.8359 52.5858 99.9559 52.4409C100.45 51.858 101.191 51.5631 101.92 51.3374C102.658 51.114 103.457 50.9868 104.264 51.0731C105.068 51.1536 105.873 51.4849 106.482 52.0644C106.786 52.3519 107.038 52.7054 107.189 53.104C107.345 53.504 107.392 53.9317 107.397 54.3565C107.395 54.787 107.348 55.2263 107.159 55.621C107.064 55.8145 106.915 56.0017 106.701 56.0894C106.485 56.1794 106.25 56.1398 106.057 56.0677L106.05 56.0653L106.044 56.0614C105.876 55.9529 105.722 55.8148 105.614 55.6411C105.503 55.4689 105.454 55.2614 105.459 55.0621C105.47 54.6582 105.654 54.2986 105.866 53.9869C106.307 53.3649 106.894 52.8849 107.512 52.5021C108.136 52.1191 108.813 51.8698 109.486 51.6882C110.162 51.5113 110.855 51.4369 111.522 51.5142C112.187 51.5889 112.82 51.8168 113.334 52.1914C113.589 52.3794 113.811 52.6177 113.943 52.9015C114.082 53.1832 114.097 53.5161 114.004 53.8026C113.914 54.0888 113.712 54.352 113.426 54.4578C113.141 54.5684 112.82 54.4922 112.594 54.3272C112.363 54.1637 112.199 53.928 112.122 53.6708C112.048 53.4134 112.054 53.1484 112.1 52.9031C112.197 52.4089 112.433 51.99 112.671 51.6169C112.916 51.2449 113.195 50.9282 113.481 50.6607C114.055 50.1245 114.659 49.7974 115.165 49.5899C115.678 49.3893 116.098 49.3011 116.383 49.2668C116.671 49.2306 116.822 49.2314 116.822 49.2314Z" fill="#C6DADF"/>
<path d="M120.035 57.833C120.041 57.8499 119.768 57.9098 119.347 58.163C118.931 58.4101 118.359 58.8848 117.987 59.6749C117.892 59.87 117.822 60.087 117.768 60.3162C117.709 60.5445 117.693 60.7898 117.766 61.0253C117.801 61.1409 117.865 61.2497 117.959 61.3168C118.055 61.3798 118.183 61.3991 118.295 61.3534C118.522 61.2589 118.674 60.9941 118.7 60.7243C118.773 60.1755 118.437 59.5641 117.891 59.2985C117.342 59.0297 116.623 59.1052 116.084 59.4674C115.539 59.8333 115.199 60.4292 115.061 61.0269C114.992 61.3228 114.985 61.6407 115.132 61.882C115.273 62.1243 115.573 62.2669 115.815 62.1494C116.059 62.0404 116.205 61.7764 116.203 61.5206C116.207 61.261 116.106 61.011 115.973 60.7993C115.706 60.3711 115.3 60.0815 114.895 59.9368C114.487 59.7892 114.08 59.7874 113.745 59.8682C113.409 59.949 113.14 60.0918 112.945 60.237C112.552 60.5311 112.43 60.7898 112.414 60.7766C112.412 60.7753 112.42 60.76 112.436 60.7309C112.453 60.7022 112.477 60.6581 112.516 60.6061C112.591 60.4997 112.716 60.3489 112.912 60.1945C113.107 60.0393 113.38 59.8846 113.726 59.7935C114.071 59.7024 114.499 59.6966 114.927 59.8452C115.353 59.9909 115.783 60.2882 116.071 60.7391C116.212 60.9622 116.325 61.228 116.324 61.5224C116.328 61.8136 116.165 62.1304 115.867 62.265C115.72 62.3331 115.537 62.3368 115.385 62.2706C115.231 62.2064 115.106 62.0897 115.019 61.9503C114.843 61.6615 114.858 61.3088 114.928 60.9976C115.072 60.3716 115.424 59.7452 116.006 59.3536C116.584 58.9664 117.35 58.884 117.951 59.1778C118.549 59.4738 118.907 60.1317 118.826 60.7404C118.792 61.0396 118.631 61.3445 118.338 61.4664C118.19 61.525 118.019 61.5002 117.892 61.4134C117.766 61.3228 117.695 61.1892 117.656 61.0591C117.576 60.7977 117.601 60.5255 117.663 60.2927C117.722 60.0564 117.797 59.8333 117.898 59.634C118.292 58.8262 118.888 58.3541 119.319 58.1171C119.756 57.8739 120.035 57.833 120.035 57.833Z" fill="#C6DADF"/>
<path d="M111.643 61.6304C111.642 61.6328 111.62 61.6289 111.577 61.6188C111.527 61.6064 111.464 61.5911 111.388 61.5721C111.22 61.5359 110.974 61.4797 110.65 61.4488C110.011 61.3825 109.039 61.3907 107.96 61.8221C107.692 61.928 107.419 62.0637 107.153 62.2287C106.89 62.396 106.631 62.6033 106.45 62.8792C106.266 63.1519 106.192 63.5067 106.316 63.8343C106.374 63.9946 106.472 64.1466 106.613 64.2454C106.752 64.3473 106.933 64.3847 107.106 64.351C107.453 64.2757 107.742 63.9431 107.789 63.5727C107.842 63.1936 107.699 62.7986 107.481 62.4583C107.04 61.7706 106.302 61.2381 105.455 61.0301C104.605 60.8186 103.707 60.9844 102.998 61.3963C102.646 61.6011 102.323 61.8665 102.093 62.1753C101.985 62.3348 101.899 62.5098 101.858 62.6915C101.816 62.8707 101.818 63.0629 101.902 63.2126C101.982 63.3654 102.142 63.4663 102.309 63.4813C102.478 63.4943 102.652 63.4388 102.792 63.3425C103.087 63.1535 103.179 62.7886 103.15 62.4668C103.122 62.1384 102.994 61.8337 102.84 61.5644C102.68 61.2981 102.494 61.0605 102.285 60.8646C101.868 60.4709 101.394 60.2252 100.962 60.0786C100.527 59.9324 100.127 59.8917 99.8042 59.8991C99.1535 59.9121 98.8176 60.0826 98.8125 60.0581C98.8117 60.0559 98.8325 60.047 98.8737 60.0317C98.9232 60.0142 98.9838 59.9931 99.0586 59.9667C99.2235 59.9179 99.4738 59.8595 99.8026 59.8458C100.13 59.8302 100.539 59.8635 100.985 60.0058C101.429 60.1486 101.918 60.3936 102.352 60.7943C102.57 60.9937 102.765 61.2371 102.933 61.5119C103.094 61.7896 103.231 62.1046 103.264 62.4578C103.281 62.6331 103.266 62.8182 103.204 62.9943C103.145 63.1714 103.021 63.334 102.861 63.4425C102.702 63.5531 102.504 63.6202 102.297 63.6057C102.09 63.5883 101.889 63.4631 101.79 63.2738C101.685 63.0859 101.686 62.8615 101.732 62.6637C101.776 62.462 101.868 62.2741 101.985 62.1014C102.234 61.7645 102.561 61.4974 102.93 61.2806C103.666 60.8508 104.601 60.6766 105.488 60.8973C106.37 61.1143 107.137 61.6677 107.596 62.3871C107.823 62.7443 107.98 63.1672 107.921 63.5917C107.861 64.0144 107.544 64.385 107.131 64.4758C106.926 64.5162 106.704 64.4684 106.54 64.3467C106.374 64.2282 106.265 64.0542 106.201 63.875C106.138 63.6941 106.119 63.5019 106.149 63.3179C106.178 63.1315 106.259 62.9673 106.353 62.8179C106.551 62.5225 106.824 62.31 107.096 62.14C107.371 61.9728 107.649 61.8379 107.924 61.7329C109.027 61.3055 110.012 61.3136 110.656 61.3968C111.308 61.4805 111.643 61.6304 111.643 61.6304Z" fill="#C6DADF"/>
<path d="M81.9289 39.6251C82.4811 39.6539 82.3234 42.6381 82.7317 42.0066C83.1397 41.3749 82.497 38.3452 83.0724 38.3985C83.8217 38.4682 83.5991 41.5911 83.5999 41.8564C83.6007 42.1141 83.9869 42.1196 83.9731 41.8804C83.9534 41.5367 83.8377 37.9207 84.5745 37.9822C84.9831 38.0163 84.8344 38.7407 84.8344 38.7407C84.8344 38.7407 84.6916 42.1386 85.0408 42.1561C85.3951 42.1737 85.5467 40.18 85.5502 39.5052C85.5534 38.8386 85.8742 38.5609 86.1705 38.7998C86.3724 38.9627 86.4118 41.0283 86.3926 41.6956C86.3737 42.363 86.2891 44.1941 87.0699 43.306C87.8508 42.4182 88.7802 42.0193 89.1029 42.0832C89.4256 42.1471 89.4418 42.6186 89.1079 42.7712C88.8382 42.8947 88.4496 43.2371 88.1676 43.5064C87.9354 43.7282 87.7692 44.0025 87.5933 44.2696C87.4058 44.5545 87.3353 44.7375 87.1821 45.2158L88.2283 57.6621L88.9965 56.7101L93.3791 60.9148L91.092 63.5263C89.4165 65.4395 86.3857 65.5628 84.683 63.6731C84.6211 63.6042 84.5615 63.5335 84.504 63.4609C84.079 62.9218 83.8518 62.2544 83.7938 61.5722L82.3462 45.4355L82.3335 45.436C82.3018 43.6426 81.8113 42.2796 81.7259 41.3551C81.5679 39.6351 81.7235 39.6145 81.9289 39.6251Z" fill="#FFC4B0"/>
<path d="M102.186 46.277C102.202 44.4002 102.185 42.4239 102.185 42.4239C102.185 42.4239 99.7533 41.9944 99.2854 38.8343C98.8391 35.8205 99.5961 29.3382 99.5961 29.3382C103.119 27.9593 107.085 28.4926 109.552 31.3066L109.169 46.5478C109.124 48.3172 107.556 49.6884 105.648 49.6266C103.72 49.564 102.171 48.065 102.186 46.277Z" fill="#FFC4B0"/>
<path d="M100.257 34.3156C100.247 34.5291 100.421 34.7136 100.646 34.7281C100.869 34.7427 101.06 34.5819 101.07 34.3684C101.08 34.1548 100.906 33.97 100.682 33.9555C100.458 33.9407 100.267 34.102 100.257 34.3156Z" fill="#263238"/>
<path d="M99.602 33.855C99.652 33.9084 99.9635 33.685 100.402 33.6914C100.84 33.6914 101.16 33.9189 101.208 33.8661C101.232 33.8429 101.181 33.7471 101.042 33.6441C100.905 33.5417 100.671 33.4408 100.398 33.439C100.125 33.4374 99.8936 33.5346 99.7606 33.6351C99.6241 33.7362 99.5773 33.8313 99.602 33.855Z" fill="#263238"/>
<path d="M104.747 34.444C104.737 34.6575 104.911 34.842 105.136 34.8565C105.36 34.871 105.55 34.7103 105.56 34.4968C105.57 34.2832 105.396 34.0984 105.172 34.0839C104.948 34.0694 104.758 34.2304 104.747 34.444Z" fill="#263238"/>
<path d="M104.177 34.0655C104.227 34.1188 104.539 33.8957 104.977 33.9018C105.415 33.9018 105.735 34.1294 105.783 34.0766C105.807 34.0534 105.757 33.9575 105.617 33.8546C105.48 33.7521 105.246 33.6513 104.973 33.6494C104.7 33.6478 104.469 33.745 104.335 33.8456C104.2 33.9467 104.153 34.0417 104.177 34.0655Z" fill="#263238"/>
<path d="M102.547 37.2759C102.55 37.251 102.278 37.2012 101.836 37.1402C101.725 37.1275 101.619 37.104 101.601 37.028C101.575 36.9474 101.624 36.8281 101.679 36.6993C101.788 36.4316 101.901 36.1507 102.02 35.8566C102.494 34.6567 102.839 33.6696 102.79 33.6511C102.741 33.6327 102.318 34.5902 101.844 35.7901C101.729 36.086 101.62 36.368 101.516 36.638C101.473 36.764 101.398 36.9063 101.453 37.0736C101.482 37.1571 101.564 37.2183 101.635 37.2384C101.707 37.2608 101.77 37.2629 101.825 37.2669C102.269 37.2954 102.545 37.3007 102.547 37.2759Z" fill="#263238"/>
<path d="M102.185 42.4239C102.185 42.4239 104.321 42.5852 106.454 41.3457C106.454 41.3457 105.396 43.5007 102.219 43.1692L102.185 42.4239Z" fill="#EB996E"/>
<path d="M102.721 38.327C102.881 38.1218 103.159 38.0112 103.433 38.0437C103.624 38.0661 103.815 38.1596 103.929 38.3146C104.043 38.4698 104.064 38.6884 103.957 38.8338C103.837 38.9978 103.589 39.0329 103.381 38.9716C103.172 38.9101 102.993 38.7713 102.824 38.6332C102.777 38.5949 102.729 38.5551 102.7 38.503C102.671 38.451 102.666 38.3835 102.703 38.341" fill="#EB996E"/>
<path d="M103.836 37.5918C103.764 37.5868 103.758 38.0594 103.346 38.3902C102.936 38.722 102.429 38.6631 102.424 38.7291C102.417 38.7587 102.536 38.8221 102.75 38.8305C102.96 38.84 103.268 38.7767 103.52 38.5744C103.771 38.3717 103.881 38.0985 103.899 37.9047C103.92 37.7069 103.868 37.5895 103.836 37.5918Z" fill="#263238"/>
<path d="M108.172 29.055C107.009 30.701 103.93 32.3938 101.725 32.7866C101.983 32.4503 103.337 31.6216 103.594 31.2853C102.595 32.026 101.165 33.0168 99.8387 33.0839C99.6821 33.0918 99.5121 33.0915 99.3831 33.0134C99.2073 32.9073 99.1716 32.7006 99.1511 32.5179C99.0655 31.7467 99.1192 30.4246 99.2429 29.6593C99.3666 28.8939 99.7209 28.1326 100.39 27.6196C101.239 26.9683 102.455 26.8076 103.601 26.7804C104.561 26.7574 105.552 26.8139 106.43 27.1579C107.308 27.5019 108.059 28.1819 108.187 28.9995" fill="#263238"/>
<path d="M111.507 36.4294C111.667 35.6128 111.795 34.838 111.824 34.3208C111.918 32.6927 111.444 26.6846 105.789 27.1682L107.15 28.8922C107.15 28.8922 106.032 32.5338 108.412 35.0457C108.412 35.0457 108.547 36.5157 110.204 38.2116C110.204 38.2111 111.163 38.1823 111.507 36.4294Z" fill="#263238"/>
<path d="M108.344 34.772C108.685 34.7105 109.044 34.7239 109.367 34.8488C109.689 34.9734 109.972 35.216 110.108 35.5318C110.244 35.8483 110.226 36.2176 110.105 36.5402C109.984 36.8629 109.766 37.143 109.516 37.3819C109.336 37.5535 109.133 37.7098 108.894 37.781C108.656 37.8523 108.376 37.8259 108.188 37.6641" fill="#FFC4B0"/>
<path d="M108.509 36.8193C108.47 36.8314 108.616 37.0371 108.927 36.9576C109.077 36.9201 109.225 36.7913 109.315 36.6292C109.406 36.4645 109.466 36.2836 109.491 36.0714C109.515 35.861 109.469 35.6368 109.354 35.4758C109.245 35.3121 109.064 35.2139 108.911 35.2089C108.591 35.1981 108.49 35.4166 108.526 35.4235C108.551 35.4494 108.676 35.3377 108.885 35.39C109.085 35.4288 109.279 35.7052 109.232 36.0455C109.19 36.3921 109.052 36.7081 108.865 36.7855C108.67 36.8816 108.531 36.7918 108.509 36.8193Z" fill="#EB996E"/>
<path d="M112.332 67.046V65.6043H102.11L99.109 52.563L83.8105 52.6876L87.5204 67.046H112.332Z" fill="#263238"/>
<path d="M91.0591 59.8125C91.2852 60.5031 91.9007 60.9234 92.4335 60.7516C92.9663 60.5797 93.2153 59.8804 92.9892 59.19C92.7631 58.4994 92.1475 58.0788 91.6147 58.2509C91.0819 58.4231 90.833 59.1221 91.0591 59.8125Z" fill="#C6DADF"/>
<path d="M98.4083 66.9573C98.1519 66.4704 97.9361 65.9628 97.7691 65.439C97.7292 65.3139 97.6917 65.1834 97.7092 65.0535C97.7268 64.9237 97.8146 64.7938 97.9441 64.7679C98.1825 64.7201 98.3306 65.0071 98.4237 65.2302C98.7714 66.062 99.5446 66.702 100.429 66.9013L101.048 66.8841L101.051 66.8588L114.422 65.6755L113.784 63.0429L120.863 62.521L121.508 65.1132C121.857 68.3504 119.231 71.1416 115.953 71.0181L100.61 71.0221C95.7299 71.3391 94.8125 67.0576 94.8125 67.0576L98.4083 66.9573Z" fill="#FFC4B0"/>
<path d="M80.6307 109.503L74.5869 113.204L76.8035 118.498C78.8461 116.614 80.4762 114.299 81.5492 111.702L80.6307 109.503Z" fill="#FFC4B0"/>
<path d="M82.2702 109.625C81.4887 107.769 78.8082 101.641 76.5645 99.3509C73.2052 95.9221 67.292 96.3836 67.292 96.3836L59.6112 96.6544C59.6112 96.6544 56.6903 96.9725 53.9534 98.3921L53.7648 98.4499L53.7672 98.4887C51.6174 99.6474 48.5728 102.427 45.6729 105.123L49.1434 108.32L52.9847 111.704C52.9847 111.704 52.9698 111.729 52.978 111.772C53.0182 111.977 52.354 116.071 51.7658 119.609C55.1409 122.208 59.3992 123.722 64.0024 123.633C66.9334 123.576 69.699 122.875 72.1662 121.67L72.4532 118.399C72.7149 115.434 72.9144 111.763 72.9144 111.763L74.0178 114.539L82.0311 110.404C82.1164 110.147 82.196 109.887 82.2702 109.625Z" fill="#1A6980"/>
<path d="M67.5054 96.0942C67.5102 96.0935 67.5216 96.1402 67.5392 96.2305C67.5602 96.3205 67.5764 96.4549 67.59 96.6296C67.6136 96.9779 67.5857 97.4937 67.3915 98.0941C67.1934 98.6875 66.8148 99.3679 66.177 99.9183C65.5466 100.474 64.6432 100.838 63.6734 100.887C62.703 100.929 61.7691 100.65 61.0884 100.156C60.401 99.6675 59.9592 99.026 59.7052 98.4539C59.4546 97.8747 59.3772 97.3638 59.3674 97.0151C59.3642 96.8398 59.3674 96.7044 59.3796 96.613C59.3884 96.5214 59.3953 96.4739 59.4001 96.4744C59.4158 96.4755 59.3942 96.6677 59.4211 97.0119C59.4472 97.3549 59.5384 97.8533 59.7943 98.414C60.0539 98.9682 60.4928 99.5859 61.1618 100.053C61.8233 100.525 62.7262 100.79 63.6665 100.75C64.6062 100.702 65.4798 100.354 66.0934 99.8222C66.7151 99.295 67.0931 98.639 67.2984 98.0626C67.4995 97.4803 67.5426 96.9757 67.5357 96.6315C67.5296 96.2862 67.4897 96.0966 67.5054 96.0942Z" fill="#263238"/>
<path d="M74.8197 97.7478C74.8218 97.7647 74.6152 97.7565 74.276 97.8756C73.9387 97.9888 73.4764 98.2658 73.0859 98.7713C72.6875 99.2711 72.4313 100.009 72.3302 100.846C72.2767 101.266 72.2539 101.71 72.2382 102.173C72.219 102.635 72.211 103.114 72.2055 103.605C72.1903 105.568 72.3076 107.344 72.4332 108.624C72.4935 109.265 72.5582 109.782 72.5978 110.139C72.617 110.306 72.6327 110.442 72.6454 110.552C72.6547 110.646 72.6574 110.696 72.6526 110.697C72.6478 110.698 72.6361 110.649 72.6178 110.556C72.5983 110.447 72.5741 110.312 72.5443 110.147C72.4879 109.791 72.4084 109.275 72.3355 108.634C72.185 107.354 72.0514 105.573 72.0666 103.604C72.0725 103.111 72.0812 102.631 72.1023 102.167C72.1201 101.704 72.1456 101.255 72.2033 100.83C72.3127 99.9807 72.5861 99.2201 73.0082 98.7114C73.4211 98.1974 73.9073 97.9249 74.2584 97.8246C74.6128 97.7187 74.8197 97.7478 74.8197 97.7478Z" fill="#263238"/>
<path d="M56.5382 97.2525C56.5428 97.2538 56.5313 97.305 56.5055 97.4008C56.4741 97.5109 56.4345 97.6487 56.3861 97.818C56.2744 98.1976 56.122 98.7158 55.936 99.3484C55.5594 100.641 55.0619 102.434 54.5757 104.43C54.0905 106.427 53.7085 108.248 53.4492 109.569C53.3239 110.216 53.2212 110.746 53.1459 111.134C53.1114 111.307 53.0832 111.447 53.0606 111.56C53.0395 111.657 53.0262 111.707 53.0215 111.706C53.0167 111.706 53.0209 111.654 53.0329 111.555C53.0486 111.442 53.0685 111.3 53.0927 111.125C53.1467 110.752 53.2351 110.214 53.3529 109.551C53.5878 108.224 53.9551 106.397 54.4411 104.398C54.9281 102.399 55.4413 100.608 55.8424 99.3206C56.0427 98.677 56.2116 98.1583 56.335 97.8019C56.3935 97.6358 56.4414 97.5004 56.4795 97.3924C56.5132 97.2992 56.5335 97.2511 56.5382 97.2525Z" fill="#263238"/>
<path d="M82.1198 108.351C82.1251 108.359 82.0131 108.441 81.8064 108.583C81.6 108.726 81.2973 108.925 80.9201 109.167C80.1657 109.651 79.1095 110.298 77.9202 110.975C76.7301 111.651 75.6334 112.229 74.8311 112.63C74.43 112.831 74.1033 112.989 73.8756 113.094C73.6479 113.199 73.52 113.253 73.5157 113.245C73.5115 113.237 73.6312 113.166 73.8514 113.046C74.0948 112.915 74.409 112.747 74.7862 112.544C75.5759 112.121 76.6636 111.531 77.8515 110.856C79.039 110.18 80.1016 109.547 80.8685 109.084C81.2353 108.864 81.541 108.68 81.7777 108.538C81.9929 108.41 82.1145 108.343 82.1198 108.351Z" fill="#263238"/>
<path d="M53.3824 109.51C53.3582 109.54 51.8482 108.358 50.0096 106.871C48.1704 105.384 46.6997 104.155 46.7239 104.126C46.7481 104.097 48.2579 105.278 50.0971 106.765C51.9357 108.251 53.4066 109.48 53.3824 109.51Z" fill="#263238"/>
<path opacity="0.2" d="M72.1301 104.145L75.1372 113.962L74.0182 114.54L72.9148 111.763C72.9148 111.763 71.7814 105.931 72.1301 104.145Z" fill="black"/>
<g opacity="0.2">
<path d="M56.8642 97.259C55.2434 98.1072 59.3055 100.148 61.1404 100.093L59.808 96.604C59.808 96.604 57.4081 96.9744 56.8642 97.259Z" fill="black"/>
</g>
<path opacity="0.2" d="M67.2087 111.495L57.584 111.531L58.2168 108.015L67.9199 107.827L67.2087 111.495Z" fill="white"/>
<path d="M66.2866 84.7675C66.2114 85.0318 66.309 85.3365 66.5245 85.5091C66.7399 85.6818 67.0604 85.7121 67.3049 85.583C67.7693 85.338 67.8162 84.6947 67.7137 84.1828C67.6113 83.6709 67.4246 83.1257 67.6326 82.6463C67.7917 82.2793 68.1468 82.042 68.4218 81.7505C68.9009 81.2426 69.147 80.5111 69.0147 79.8276C68.8825 79.1443 68.3524 78.5382 67.6738 78.364C66.9809 78.186 66.1361 78.4125 65.6134 77.9273C65.2346 77.5757 65.2003 76.9883 64.9043 76.5656C64.4446 75.9093 63.4984 75.8222 62.7028 75.9457C61.9072 76.0693 61.1002 76.3391 60.3152 76.1611C59.6595 76.0125 59.115 75.5706 58.4982 75.305C57.161 74.7289 55.4732 75.0875 54.4909 76.1564C53.5085 77.2253 53.3035 78.9263 54.0041 80.1951C54.2557 80.6507 54.6292 81.0623 55.1184 81.2476" fill="#263238"/>
<path d="M63.4958 100.807C61.3819 100.81 59.6375 99.1801 59.5329 97.1032C59.4459 95.3732 59.373 93.7076 59.373 93.7076C59.373 93.7076 56.1369 93.4748 55.8384 90.335C55.54 87.195 55.499 79.9337 55.499 79.9337C59.069 78.0738 63.3822 78.2597 66.7718 80.4197L67.0796 80.6159L67.4536 96.8651C67.4775 99.0322 65.6993 100.803 63.4958 100.807Z" fill="#FFC4B0"/>
<path d="M61.6394 84.7637C61.3955 84.8434 61.2631 85.1026 61.3442 85.3426C61.425 85.5825 61.6883 85.7124 61.9325 85.6329C62.1764 85.5532 62.3088 85.2943 62.2277 85.0541C62.1468 84.8139 61.8835 84.684 61.6394 84.7637Z" fill="#263238"/>
<path d="M60.7524 84.9269C60.8059 84.9784 61.1056 84.7221 61.5461 84.6941C61.9864 84.6598 62.3202 84.8712 62.3657 84.8126C62.388 84.7865 62.3322 84.6912 62.1861 84.5948C62.0428 84.4993 61.8015 84.4129 61.527 84.4325C61.2525 84.452 61.0264 84.5713 60.8984 84.6862C60.7681 84.8018 60.7266 84.9042 60.7524 84.9269Z" fill="#263238"/>
<path d="M56.8083 84.7637C56.5644 84.8434 56.432 85.1026 56.5131 85.3426C56.5942 85.5825 56.8573 85.7124 57.1014 85.6329C57.3453 85.5532 57.4778 85.2943 57.3969 85.0541C57.3158 84.8139 57.0525 84.684 56.8083 84.7637Z" fill="#263238"/>
<path d="M55.8627 84.9367C55.9162 84.9882 56.216 84.7319 56.6565 84.7039C57.0967 84.6695 57.4305 84.881 57.476 84.8224C57.4984 84.7963 57.4425 84.701 57.2965 84.6046C57.1531 84.5088 56.9118 84.4227 56.6373 84.4422C56.3628 84.4618 56.1367 84.5811 56.0088 84.6959C55.8784 84.8116 55.8369 84.914 55.8627 84.9367Z" fill="#263238"/>
<path d="M59.1871 88.332C59.1874 88.298 58.9108 88.2655 58.4631 88.2407C58.3468 88.2375 58.2545 88.2193 58.2412 88.1588C58.2149 88.092 58.2495 87.9677 58.2968 87.828C58.3865 87.5326 58.4772 87.2338 58.5724 86.9207C58.9499 85.6289 59.2018 84.5668 59.1353 84.5481C59.0685 84.5294 58.7086 85.5608 58.3312 86.8526C58.2426 87.1675 58.1583 87.4682 58.0747 87.7655C58.0433 87.8999 57.9758 88.059 58.0505 88.2412C58.0899 88.3323 58.1862 88.3927 58.2639 88.4062C58.3421 88.4228 58.407 88.4175 58.4623 88.4157C58.9097 88.3956 59.1869 88.3661 59.1871 88.332Z" fill="#263238"/>
<path d="M60.6563 88.6958C59.774 89.1208 59.3644 89.2507 58.5488 89.4854C58.5488 89.4854 59.1292 90.2521 60.0233 89.8466C60.9513 89.4258 60.6563 88.6958 60.6563 88.6958Z" fill="white"/>
<path d="M59.3643 93.6627C59.3643 93.6627 61.397 93.6628 63.4341 92.1646C63.4341 92.1646 62.6358 94.5054 59.4238 94.4777L59.3643 93.6627Z" fill="#A36957"/>
<path d="M67.1573 83.7911C67.1541 83.5369 67.3514 83.3181 67.6097 83.3059C68.2064 83.2782 69.1874 83.4923 69.3108 85.1109C69.4872 87.4233 67.2123 86.8894 67.203 86.8234C67.1958 86.772 67.1687 84.6909 67.1573 83.7911Z" fill="#FFC4B0"/>
<path d="M67.7039 85.9035C67.7137 85.8953 67.747 85.9286 67.8185 85.9547C67.8882 85.9801 68.0061 85.9925 68.1252 85.9384C68.3668 85.8301 68.5463 85.427 68.5258 85.0094C68.516 84.7984 68.4556 84.6012 68.3673 84.441C68.2824 84.277 68.1625 84.1672 68.0356 84.1545C67.909 84.1355 67.826 84.2158 67.8023 84.2828C67.7757 84.3499 67.7941 84.395 67.7821 84.3998C67.776 84.4061 67.7286 84.3649 67.7403 84.2678C67.7467 84.2213 67.7699 84.1646 67.8217 84.116C67.8747 84.0666 67.956 84.0376 68.0438 84.0402C68.226 84.0391 68.4016 84.191 68.499 84.367C68.6062 84.5431 68.6788 84.7641 68.6899 85.0009C68.7104 85.4679 68.5014 85.922 68.1689 86.0437C68.0069 86.0984 67.8651 86.0595 67.7895 86.0102C67.7124 85.9592 67.6962 85.9083 67.7039 85.9035Z" fill="#A36957"/>
<path d="M62.3221 83.6381C62.2226 83.7651 61.8752 83.7057 61.4244 83.6867C60.9743 83.6508 60.6221 83.6677 60.5399 83.5296C60.4468 83.3857 60.8823 83.0555 61.4629 83.1027C62.0449 83.1265 62.4336 83.5069 62.3221 83.6381Z" fill="#263238"/>
<path d="M57.2374 83.5576C57.2042 83.7178 56.9121 83.7941 56.5826 83.825C56.2524 83.8514 55.9513 83.8266 55.8904 83.6746C55.8287 83.527 56.1056 83.2788 56.5307 83.2424C56.9558 83.2052 57.272 83.4018 57.2374 83.5576Z" fill="#263238"/>
<path d="M55.0491 80.9279C55.0491 80.9279 56.9688 81.8503 59.4671 80.6127C61.1065 79.8006 63.0177 79.4038 63.439 79.7309C63.8604 80.058 63.9492 81.7347 65.5734 82.2241C65.5734 82.2241 65.4619 85.423 66.747 85.309C68.032 85.1949 67.229 80.2404 67.229 80.2404L64.0851 78.7166L60.6545 78.0732L57.4221 78.5255L54.9209 79.2053L55.0491 80.9279Z" fill="#263238"/>
<path d="M43.5648 86.4048C43.6784 86.5856 47.3763 99.302 47.3763 99.302L40.0395 100.295L36.665 89.9184L43.5648 86.4048Z" fill="#455A64"/>
<path d="M47.3759 99.3019L48.035 98.9537L44.1958 86.0708L43.4854 86.4449L47.3759 99.3019Z" fill="#263238"/>
<path d="M40.4912 89.7811C40.5274 89.9479 40.4202 90.1118 40.2524 90.1477C40.0843 90.1834 39.9192 90.0773 39.883 89.9107C39.8468 89.7439 39.954 89.58 40.1218 89.5441C40.2899 89.5082 40.4553 89.6145 40.4912 89.7811Z" fill="#263238"/>
<path d="M45.9923 105.106L41.1793 108.218L40.2935 97.0845L40.3685 96.5282L43.6291 95.2932L42.6917 92.9104C42.2337 91.7987 40.9162 91.3126 39.8376 91.8573C39.4899 92.0328 39.1241 92.2176 38.7938 92.385C38.05 92.7612 37.4997 93.431 37.2848 94.2314C36.9142 95.6108 36.5844 97.1014 36.619 96.9717L34.5567 111.302C34.5567 111.302 33.5759 115.434 36.4242 117.4C38.5765 118.885 42.2007 117.308 44.1244 116.229L52.4606 111.243L45.9923 105.106Z" fill="#FFC4B0"/>
<path d="M50.9101 46.6655L47.6447 41.7354L42.1406 45.1674L47.1305 52.8043C47.1305 52.8043 49.8759 49.8481 50.9101 46.6655Z" fill="#EB996E"/>
<path d="M30.4542 22.0086C30.7236 21.7145 30.3584 21.2543 29.982 21.1186C29.6057 20.9829 29.1367 20.9204 28.9569 20.5653C28.7385 20.1344 29.1242 19.6526 29.1939 19.1753C29.2681 18.6647 28.9715 18.1793 28.8835 17.6708C28.7715 17.0237 29.0268 16.3265 29.5314 15.9017C30.0358 15.4772 30.771 15.341 31.3958 15.5564C31.4357 14.5619 32.1433 13.6268 33.0942 13.3114C34.0452 12.9959 35.177 13.3209 35.8114 14.0915C36.3073 13.7174 36.8108 13.3388 37.3885 13.1075C37.9663 12.8763 38.6372 12.8061 39.2069 13.0558C39.7767 13.3058 40.1996 13.9278 40.0895 14.5363C40.5207 14.0276 41.323 13.9278 41.9284 14.2124C42.5335 14.497 42.9448 15.0989 43.1208 15.7402C43.3672 16.6359 43.1525 17.6924 42.4327 18.2854C41.7129 18.8783 40.4803 18.8231 39.9472 18.0602" fill="#263238"/>
<path d="M33.9862 37.1812C35.9641 37.1844 37.596 35.6593 37.6937 33.7162C37.7751 32.0976 37.8432 30.5393 37.8432 30.5393C37.8432 30.5393 40.871 30.3215 41.1503 27.3839C41.4296 24.4461 41.4679 17.6524 41.4679 17.6524C38.1278 15.9123 34.0923 16.086 30.9213 18.107L30.6332 18.2904L30.2834 33.4932C30.2608 35.5212 31.9244 37.1781 33.9862 37.1812Z" fill="#FFC4B0"/>
<path d="M35.7232 22.1718C35.9514 22.2462 36.0753 22.4888 35.9995 22.7132C35.9237 22.9378 35.6775 23.0592 35.449 22.9848C35.2208 22.9104 35.0969 22.6678 35.1727 22.4434C35.2485 22.2188 35.4947 22.0974 35.7232 22.1718Z" fill="#263238"/>
<path d="M36.5528 22.3245C36.5028 22.3728 36.2222 22.1328 35.8102 22.1067C35.3981 22.0745 35.0858 22.2725 35.0435 22.2176C35.0225 22.193 35.0749 22.1038 35.2114 22.014C35.3455 21.9245 35.571 21.8437 35.828 21.862C36.0847 21.8802 36.2964 21.9919 36.4161 22.0993C36.5382 22.2075 36.577 22.3031 36.5528 22.3245Z" fill="#263238"/>
<path d="M40.2418 22.1713C40.4699 22.2458 40.5939 22.4883 40.5181 22.7127C40.4423 22.9373 40.196 23.0587 39.9676 22.9843C39.7394 22.9099 39.6154 22.6673 39.6912 22.4429C39.767 22.2183 40.0136 22.0969 40.2418 22.1713Z" fill="#263238"/>
<path d="M41.127 22.3333C41.077 22.3816 40.7964 22.1416 40.3844 22.1155C39.9723 22.0833 39.6601 22.2813 39.6178 22.2264C39.5967 22.2018 39.6491 22.1128 39.7856 22.0228C39.9197 21.9333 40.1452 21.8525 40.4022 21.8708C40.6589 21.889 40.8706 22.0006 40.9903 22.1081C41.1124 22.2163 41.151 22.3122 41.127 22.3333Z" fill="#263238"/>
<path d="M38.0176 25.5097C38.0173 25.4778 38.2761 25.4474 38.6948 25.4242C38.8036 25.4213 38.8901 25.4041 38.9026 25.3479C38.9273 25.2853 38.8948 25.1689 38.8504 25.0382C38.7666 24.7618 38.6815 24.4822 38.5927 24.1892C38.2394 22.9806 38.0037 21.9869 38.066 21.9695C38.1282 21.9518 38.4653 22.917 38.8185 24.1256C38.9012 24.4202 38.9805 24.7016 39.0584 24.9796C39.088 25.1053 39.151 25.2544 39.081 25.4247C39.0441 25.5097 38.9542 25.5662 38.8815 25.5789C38.8084 25.5945 38.7477 25.5897 38.6959 25.5879C38.2769 25.5691 38.0178 25.5417 38.0176 25.5097Z" fill="#263238"/>
<path d="M36.6423 25.8501C37.4677 26.2479 37.851 26.3694 38.6142 26.5888C38.6142 26.5888 38.071 27.3061 37.2347 26.9267C36.3662 26.5331 36.6423 25.8501 36.6423 25.8501Z" fill="white"/>
<path d="M37.8517 30.4978C37.8517 30.4978 35.9498 30.4975 34.0439 29.0962C34.0439 29.0962 34.7909 31.2863 37.7959 31.2602L37.8517 30.4978Z" fill="#EB996E"/>
<path d="M30.5609 22.6058C30.5638 22.3679 30.3792 22.163 30.1377 22.152C29.5796 22.1261 28.6617 22.3265 28.5462 23.8408C28.3813 26.0042 30.5096 25.5048 30.5181 25.443C30.5247 25.3947 30.5503 23.4477 30.5609 22.6058Z" fill="#FFC4B0"/>
<path d="M30.05 24.5822C30.041 24.5745 30.0096 24.6057 29.9428 24.6302C29.8777 24.654 29.7675 24.6656 29.6561 24.6149C29.4302 24.5138 29.2621 24.1363 29.2813 23.7458C29.2906 23.5484 29.347 23.3641 29.4297 23.2141C29.509 23.0608 29.6215 22.9581 29.7399 22.9462C29.8582 22.9285 29.9359 23.0035 29.958 23.0663C29.9827 23.1291 29.9657 23.1711 29.9769 23.1756C29.9825 23.1814 30.0269 23.1429 30.016 23.0523C30.0101 23.0088 29.9883 22.9557 29.9396 22.9103C29.8899 22.8641 29.8141 22.8369 29.7319 22.8395C29.5614 22.8385 29.397 22.9808 29.306 23.1452C29.2057 23.31 29.1379 23.517 29.1273 23.7385C29.1081 24.1754 29.3039 24.6001 29.6148 24.7142C29.7665 24.7654 29.8992 24.729 29.9697 24.683C30.042 24.6345 30.0575 24.5867 30.05 24.5822Z" fill="#EB996E"/>
<path d="M35.0852 21.1186C35.1783 21.2374 35.5031 21.1817 35.9252 21.164C36.3463 21.1305 36.6759 21.1463 36.7528 21.017C36.84 20.8823 36.4325 20.5735 35.8893 20.6175C35.3448 20.64 34.9809 20.9959 35.0852 21.1186Z" fill="#263238"/>
<path d="M39.8423 21.0433C39.8731 21.1933 40.1466 21.2646 40.4549 21.2933C40.7637 21.3179 41.0454 21.2947 41.1026 21.1526C41.1603 21.0148 40.9015 20.7825 40.5036 20.7484C40.1061 20.7136 39.8098 20.8976 39.8423 21.0433Z" fill="#263238"/>
<path d="M41.8891 18.5825C41.8891 18.5825 40.0931 19.4455 37.7554 18.2876C36.2214 17.5278 34.4336 17.1566 34.0394 17.4626C33.6452 17.7686 33.562 19.3373 32.0426 19.7953C32.0426 19.7953 32.1468 22.7883 30.9445 22.6814C29.7422 22.5747 30.4936 17.9391 30.4936 17.9391L33.4351 16.5135L36.6449 15.9116L39.6693 16.3348L42.0093 16.9708L41.8891 18.5825Z" fill="#263238"/>
<path d="M21.7588 35.9015C24.9018 32.6934 30.4341 33.0435 30.4341 33.0435L37.6201 33.2969C37.6201 33.2969 40.353 33.5947 42.9135 34.9226L43.0899 34.9767L43.0877 35.0132C45.0992 36.0971 47.9475 38.6973 50.661 41.2206L47.414 44.2112L43.82 47.3773C43.82 47.3773 43.8341 47.4003 43.8261 47.4407C43.7886 47.6326 44.41 51.4635 44.9601 54.7736C41.8024 57.2047 37.8185 58.6211 33.5117 58.5379C30.7695 58.4849 28.1819 57.8288 25.8735 56.7013L25.6049 53.6415C25.3599 50.8672 25.1732 47.4323 25.1732 47.4323" fill="#1A6980"/>
<path d="M40.4963 33.8565C40.5008 33.8549 40.5202 33.9 40.5526 33.9872C40.5888 34.0893 40.6338 34.2161 40.6886 34.3702C40.8045 34.7034 40.9631 35.1886 41.1509 35.7908C41.527 36.9949 42.0074 38.6708 42.4631 40.541C42.9177 42.4119 43.2608 44.1211 43.48 45.3627C43.5898 45.9836 43.672 46.487 43.722 46.836C43.7441 46.9979 43.7625 47.1309 43.7771 47.2384C43.7883 47.3305 43.7917 47.3794 43.7869 47.3802C43.7822 47.3809 43.7694 47.3337 43.7494 47.2429C43.7279 47.1367 43.7013 47.0053 43.6686 46.845C43.5975 46.4796 43.501 45.9841 43.3834 45.3806C43.14 44.1448 42.782 42.4415 42.3282 40.5734C41.8731 38.7062 41.4084 37.029 41.0567 35.8188C40.8838 35.2285 40.7418 34.7438 40.637 34.3866C40.5923 34.2293 40.5556 34.1002 40.526 33.9959C40.5018 33.9059 40.4915 33.8581 40.4963 33.8565Z" fill="#263238"/>
<path d="M43.4486 45.3246C43.4244 45.295 44.7996 44.1434 46.5195 42.7527C48.24 41.3614 49.6541 40.2579 49.6783 40.2872C49.7025 40.3165 48.3278 41.4681 46.607 42.8593C44.8871 44.2501 43.4728 45.3541 43.4486 45.3246Z" fill="#263238"/>
<path opacity="0.2" d="M25.9082 40.3047L23.0947 49.4895L24.1417 50.0299L25.1738 47.4322C25.1738 47.4322 26.2346 41.9753 25.9082 40.3047Z" fill="black"/>
<g opacity="0.2">
<path d="M40.1911 33.8618C41.7075 34.6554 37.9069 36.5646 36.1904 36.5131L37.4369 33.249C37.4369 33.249 39.6822 33.5957 40.1911 33.8618Z" fill="black"/>
</g>
<path d="M29.9817 33.2491V30.8169C29.9817 30.8169 34.7684 32.0392 34.9421 34.8817C34.9421 34.8817 35.551 31.7398 38.017 31.5891L38.3652 36.0087L35.4956 38.4869H32.5867L30.2826 36.5145L29.9814 33.4455" fill="#1A6980"/>
<path d="M36.02 48.5153C36.0152 48.515 36.0128 48.4683 36.0123 48.3796C36.0136 48.2753 36.0152 48.1473 36.0171 47.9923C36.0259 47.6562 36.0336 47.1699 36.0365 46.5693C36.0432 45.3681 36.007 43.7078 35.8551 41.8815C35.7011 40.0546 35.4609 38.4112 35.2545 37.2274C35.1518 36.6355 35.0632 36.1572 34.9989 35.8272C34.9712 35.6746 34.9483 35.5487 34.9297 35.446C34.9153 35.3586 34.91 35.3121 34.9148 35.3111C34.9196 35.31 34.934 35.3543 34.9571 35.4401C34.9826 35.5415 35.0138 35.6656 35.0518 35.8161C35.1327 36.1429 35.2359 36.6192 35.351 37.21C35.5825 38.3914 35.8389 40.038 35.9934 41.8701C36.1456 43.7018 36.1666 45.3673 36.1347 46.5707C36.1192 47.1723 36.0966 47.6591 36.0714 47.9947C36.0591 48.1494 36.0488 48.2769 36.0405 48.3809C36.0315 48.4693 36.0246 48.5155 36.02 48.5153Z" fill="#263238"/>
<path d="M34.7224 34.0636C34.7213 34.0763 34.6144 34.019 34.437 34.0853C34.35 34.118 34.2542 34.1832 34.1731 34.2894C34.0904 34.3942 34.0231 34.5341 33.9499 34.6933C33.6536 35.325 33.2881 36.2364 33.0341 37.3222L33.0131 37.4122L32.933 37.3642C32.6471 37.1926 32.3539 37.0072 32.0592 36.8087C31.4878 36.4227 30.9643 36.0291 30.5079 35.6402C30.2786 35.4449 30.0903 35.2094 29.9817 34.9586C29.8745 34.7075 29.832 34.4559 29.8197 34.2292C29.7998 33.7732 29.8737 33.4123 29.9214 33.1668C29.9732 32.921 30.0121 32.7877 30.0208 32.7896C30.031 32.7914 30.0099 32.9287 29.9746 33.1761C29.9432 33.4226 29.8854 33.783 29.9174 34.2228C29.9355 34.4414 29.982 34.6795 30.0865 34.9121C30.1932 35.1445 30.3669 35.3572 30.5922 35.5452C31.0452 35.9219 31.5706 36.3127 32.1371 36.6949C32.43 36.8921 32.7207 37.0772 33.0038 37.2493L32.9027 37.2913C33.166 36.1952 33.5517 35.2807 33.8715 34.6553C33.9499 34.4992 34.026 34.3551 34.1204 34.2463C34.213 34.1362 34.3253 34.0686 34.4221 34.0409C34.6224 33.9836 34.7293 34.0626 34.7224 34.0636Z" fill="#263238"/>
<path d="M38.017 31.5889C38.0266 31.5886 38.0397 31.724 38.0564 31.9688C38.0753 32.2391 38.0992 32.5871 38.1282 33.0044C38.1628 33.4408 38.2152 33.9593 38.3043 34.5306C38.3392 34.8126 38.4379 35.1185 38.3613 35.4588C38.2636 35.7931 38.0083 36.0455 37.7367 36.2493C37.3547 36.5309 36.9528 36.7435 36.6817 37.0455L36.5761 37.1632L36.5655 37.0061C36.4977 35.999 36.1574 35.1711 35.8523 34.6338C35.5454 34.0924 35.2921 33.8154 35.3094 33.8017C35.3147 33.797 35.382 33.8622 35.4946 33.9923C35.6063 34.1233 35.7598 34.3229 35.925 34.5919C36.2548 35.1251 36.6205 35.9647 36.6982 36.9969L36.582 36.9576C36.8727 36.6302 37.2858 36.4121 37.6529 36.1394C37.9146 35.9457 38.1471 35.7054 38.2296 35.4253C38.2985 35.1407 38.2128 34.8369 38.178 34.5491C38.095 33.9728 38.0527 33.4498 38.0303 33.0108C38.0083 32.5717 38.0029 32.2161 38.0021 31.9706C38.0024 31.7251 38.0075 31.5894 38.017 31.5889Z" fill="#263238"/>
<path d="M53.423 32.1992C53.2282 32.4268 46.1816 41.7782 46.1816 41.7782L47.1736 42.336L54.4048 33.1034L53.423 32.1992Z" fill="#263238"/>
<path d="M25.115 39.593C25.115 39.593 32.5281 50.1839 32.9748 50.392C33.8547 50.8019 43.9962 42.1037 44.9634 41.2716C45.0966 41.0949 45.3717 40.7219 45.9119 39.9801C45.9119 39.9801 46.7121 36.3461 47.5659 36.6251C48.4198 36.9042 47.098 38.4718 47.6542 39.8526C48.2104 41.2333 50.7571 37.9401 50.859 37.6445L51.5158 36.7928C51.5158 36.7928 52.2044 38.7308 52.1579 39.5402C52.0084 42.1327 49.537 45.216 49.537 45.216C49.537 45.216 38.4379 58.8616 30.8353 59.2851C28.6456 59.407 24.7543 53.2405 22.1528 48.6166C20.5818 45.8242 21.3657 42.3064 23.9696 40.4223L25.115 39.593Z" fill="#FFC4B0"/>
<path d="M50.9104 40.0005C50.8899 39.9878 51.1306 39.5731 51.3932 39.0448C51.6573 38.5171 51.8433 38.0754 51.8659 38.0841C51.8864 38.0915 51.7339 38.5493 51.4677 39.0815C51.203 39.614 50.9288 40.0121 50.9104 40.0005Z" fill="#EB996E"/>
<path d="M23.8604 34.4243C23.8604 34.4243 15.9036 37.232 21.8194 50.5117L31.0046 45.0097L29.6981 41.9042L23.8604 34.4243Z" fill="#1A6980"/>
<path d="M23.2508 34.6539C23.2508 34.6515 23.272 34.6497 23.3138 34.6484C23.3638 34.6478 23.425 34.6471 23.4995 34.646C23.6625 34.6471 23.904 34.6687 24.2073 34.7392C24.5079 34.8168 24.8691 34.9496 25.2479 35.1777C25.6272 35.4039 26.0211 35.7223 26.4042 36.1218C27.1745 36.9204 27.8935 38.0347 28.5612 39.3257C29.2334 40.6166 29.8609 42.0868 30.5051 43.632C30.698 44.0948 30.8881 44.551 31.0685 44.9832L31.0922 45.0399L31.0379 45.0692C28.3803 46.5075 26.0666 47.8555 24.4323 48.8656C23.6144 49.3695 22.9635 49.784 22.5169 50.0728C22.3009 50.2117 22.1296 50.3218 22.0027 50.4034C21.8848 50.4778 21.8221 50.515 21.8194 50.5116C21.817 50.5079 21.875 50.4636 21.9881 50.3822C22.1016 50.3015 22.2687 50.1808 22.4889 50.0317C22.927 49.7299 23.571 49.303 24.3831 48.7885C26.006 47.757 28.3141 46.3929 30.9719 44.9499L30.9413 45.036C30.761 44.6038 30.5703 44.1476 30.3769 43.6848C29.7329 42.1402 29.1102 40.6718 28.4473 39.3837C27.7892 38.0954 27.0841 36.9853 26.3329 36.1888C25.9594 35.7902 25.5761 35.4721 25.2074 35.2434C24.839 35.0132 24.4877 34.8757 24.1937 34.7912C23.5981 34.6386 23.2489 34.675 23.2508 34.6539Z" fill="#263238"/>
</svg>
