<svg width="148" height="131" viewBox="0 0 148 131" fill="none" xmlns="http://www.w3.org/2000/svg">
<path d="M127.295 26.827C125.695 25.6017 124.612 23.8259 123.878 21.9764C123.493 21.0681 122.85 20.276 122.049 19.7123C121.25 19.1453 120.295 18.8151 119.325 18.7571C118.353 18.6939 117.378 18.9181 116.525 19.3661C116.1 19.5945 115.705 19.8776 115.357 20.2103C115.021 20.5507 114.651 20.9321 114.262 21.2491C113.485 21.9043 112.612 22.4371 111.702 22.8762C111.247 23.0961 110.781 23.2932 110.309 23.4708C110.073 23.561 109.856 23.6526 109.632 23.7496C109.418 23.8645 109.193 23.9594 108.99 24.0946C107.309 25.0826 106.038 26.7287 105.374 28.5761C105.04 29.5017 104.843 30.4799 104.805 31.4674C104.779 32.454 104.89 33.4496 105.171 34.3981C105.45 35.3462 105.869 36.2591 106.458 37.0559C106.746 37.4572 107.074 37.8302 107.437 38.1654C107.79 38.5108 108.202 38.7872 108.594 39.105C110.15 40.3629 111.488 41.9429 112.283 43.8077C112.488 44.2692 112.639 44.7558 112.78 45.2373L112.993 45.948L113.242 46.6464C113.595 47.5691 114.032 48.4591 114.567 49.2843C115.629 50.9287 117.129 52.3354 118.959 52.9999L119.301 53.1216C119.416 53.1572 119.535 53.1813 119.652 53.2118L120.003 53.2987L120.362 53.35C120.482 53.3648 120.601 53.3898 120.721 53.3966L121.084 53.4034C121.325 53.3992 121.567 53.4339 121.807 53.3983C122.775 53.3369 123.707 53.0283 124.585 52.624C126.31 51.7302 127.773 50.3413 128.847 48.6986C131.018 45.4144 131.988 41.3915 131.869 37.4441C131.808 35.4657 131.438 33.4881 130.715 31.6356C129.975 29.7992 128.858 28.0734 127.295 26.827ZM127.324 26.791C128.915 28.0234 130.041 29.756 130.833 31.5873C131.614 33.4343 132.045 35.4246 132.172 37.4301C132.422 41.4343 131.484 45.575 129.242 48.9643C128.135 50.6566 126.631 52.1298 124.797 53.0563C123.865 53.4784 122.871 53.7971 121.838 53.8552C121.582 53.8899 121.323 53.8531 121.066 53.8552L120.681 53.8437C120.553 53.8353 120.426 53.8086 120.298 53.7916L119.917 53.7335L119.543 53.6386C119.418 53.6051 119.293 53.578 119.17 53.539L118.808 53.4072C116.865 52.6901 115.329 51.1834 114.268 49.475C113.732 48.6168 113.3 47.6988 112.957 46.752L112.716 46.0361L112.511 45.3097C112.38 44.8317 112.243 44.3608 112.05 43.9056C111.303 42.0781 110.031 40.4782 108.491 39.2313C108.111 38.9177 107.692 38.632 107.332 38.2765C106.965 37.9319 106.633 37.55 106.342 37.1393C105.752 36.3235 105.306 35.4076 105.017 34.4434C104.442 32.5142 104.482 30.407 105.131 28.4909C105.449 27.5305 105.93 26.6236 106.547 25.8162C107.159 25.0054 107.918 24.2993 108.793 23.767C109.006 23.6242 109.241 23.5212 109.466 23.3991C109.698 23.2966 109.941 23.1927 110.17 23.1037C110.631 22.927 111.084 22.7316 111.526 22.5142C112.409 22.0789 113.246 21.5564 114.008 20.941C114.397 20.6312 114.727 20.2985 115.096 19.934C115.474 19.5818 115.901 19.2843 116.359 19.0461C117.275 18.571 118.328 18.3735 119.347 18.468C120.368 18.5587 121.357 18.9359 122.17 19.5475C122.984 20.1561 123.622 20.991 123.991 21.9306C124.675 23.7916 125.751 25.5526 127.324 26.791Z" fill="#1A6980"/>
<path d="M43.7782 6.12761C42.7123 7.83772 41.0493 9.08671 39.279 9.99538C38.4118 10.4667 37.6854 11.1829 37.2014 12.0339C36.7136 12.8837 36.4771 13.867 36.5127 14.8375C36.5432 15.8102 36.8602 16.7595 37.3883 17.5661C37.6566 17.9666 37.9766 18.3327 38.3411 18.6472C38.7123 18.949 39.1273 19.2804 39.4803 19.6373C40.2076 20.3484 40.8217 21.1655 41.3464 22.0293C41.6091 22.4612 41.8503 22.9053 42.0719 23.3584C42.1847 23.5847 42.2966 23.792 42.4148 24.006C42.5496 24.2077 42.6661 24.4226 42.82 24.6116C43.9651 26.1899 45.7261 27.2965 47.6286 27.7801C48.5818 28.0234 49.5748 28.1251 50.5615 28.0674C51.546 27.9988 52.5263 27.7928 53.4434 27.4215C54.3601 27.0528 55.2286 26.5472 55.9651 25.8848C56.3373 25.5588 56.6767 25.1965 56.9755 24.8032C57.2853 24.4184 57.5206 23.9818 57.7994 23.5614C58.9018 21.8911 60.3457 20.4078 62.1254 19.4359C62.5649 19.1876 63.0349 18.9909 63.5006 18.8044L64.1877 18.5239L64.859 18.209C65.7435 17.7695 66.5869 17.2482 67.357 16.6362C68.8916 15.4211 70.1474 13.7928 70.6331 11.9081L70.7212 11.5559C70.7458 11.4376 70.7581 11.3168 70.7772 11.1978L70.8297 10.8392L70.8463 10.4773C70.8497 10.3565 70.8628 10.2361 70.8581 10.1153L70.8302 9.75423C70.8026 9.51477 70.8141 9.2698 70.7556 9.03501C70.6013 8.0776 70.2046 7.17953 69.7176 6.34418C68.6619 4.71248 67.1387 3.39059 65.4002 2.47938C61.9223 0.634069 57.8249 0.0568283 53.9071 0.554392C51.944 0.805716 50.0109 1.36473 48.2368 2.26238C46.4788 3.17444 44.8683 4.45225 43.7782 6.12761ZM43.7397 6.10303C44.8132 4.40055 46.4292 3.11299 48.1762 2.1488C49.9397 1.19351 51.8787 0.572616 53.863 0.253904C57.8249 -0.379705 62.0364 0.155154 65.6257 2.06107C67.4163 2.99983 69.0277 4.35478 70.1262 6.09201C70.6361 6.97906 71.0489 7.93731 71.2061 8.96041C71.265 9.21131 71.2536 9.47238 71.2803 9.72795L71.3061 10.1132C71.3099 10.2416 71.2955 10.37 71.2909 10.4985L71.2697 10.8837L71.2112 11.2651C71.19 11.3919 71.1752 11.5199 71.148 11.6453L71.0518 12.0187C70.525 14.0217 69.173 15.6953 67.5748 16.9155C66.7721 17.5317 65.8999 18.0496 64.9904 18.4828L64.3012 18.7917L63.5977 19.0655C63.1349 19.2423 62.6789 19.4237 62.2444 19.6593C60.4975 20.579 59.0272 21.9988 57.9346 23.6517C57.6592 24.0598 57.415 24.5048 57.0959 24.8968C56.7886 25.2961 56.4398 25.6627 56.0597 25.992C55.3044 26.6578 54.4356 27.1897 53.5036 27.5699C51.6384 28.3272 49.5375 28.4913 47.5676 28.0297C46.5814 27.8055 45.632 27.4139 44.7691 26.8773C43.9033 26.3463 43.1273 25.6584 42.5131 24.8392C42.3504 24.6413 42.2254 24.4167 42.0821 24.2043C41.9575 23.9835 41.8312 23.7517 41.7202 23.5322C41.5002 23.0905 41.262 22.6587 41.0031 22.2399C40.4852 21.4029 39.8842 20.6197 39.198 19.9204C38.8522 19.5635 38.4894 19.2668 38.091 18.9341C37.7041 18.5921 37.3667 18.1954 37.0857 17.7636C36.5246 16.8968 36.2271 15.8687 36.2228 14.8443C36.2148 13.8199 36.4953 12.7985 37.0255 11.931C37.5528 11.0617 38.3228 10.3467 39.2226 9.88942C41.009 9.0278 42.6585 7.78771 43.7397 6.10303Z" fill="#E1FAFF"/>
<path d="M37.4605 49.0735C36.064 50.2255 34.3615 51.0057 32.5658 51.2926C32.117 51.366 31.6601 51.3927 31.2185 51.4448C30.7743 51.5007 30.3348 51.5893 29.9008 51.6974C29.0345 51.9216 28.1983 52.253 27.4075 52.6667C24.2496 54.3407 21.786 57.2193 20.5111 60.5404C19.8754 62.1988 19.5177 63.989 19.6397 65.7728C19.6664 66.6671 19.8728 67.544 20.1369 68.3954C20.4403 69.2359 20.8629 70.0318 21.4075 70.7417C22.5124 72.1449 24.1297 73.1375 25.8792 73.4961C27.6389 73.8449 29.4749 73.5995 31.1473 72.9871C32.818 72.3492 34.3424 71.3571 35.6402 70.136C35.8008 69.9818 35.9686 69.8343 36.1238 69.6745L36.5705 69.1769C36.8803 68.8557 37.143 68.495 37.41 68.1386C37.9585 67.4334 38.3539 66.6451 38.896 65.8801C39.4342 65.1299 40.078 64.4569 40.798 63.8801C41.1579 63.5914 41.5368 63.3261 41.9309 63.0863C42.1284 62.9667 42.3293 62.8536 42.5332 62.7455C42.729 62.6412 42.9205 62.5344 43.1091 62.4196C44.6141 61.4986 45.8974 60.2153 46.8455 58.7192C47.3092 57.9661 47.7148 57.1748 48.0068 56.3395C48.2899 55.5024 48.4802 54.6357 48.5577 53.758C48.704 52.0119 48.2869 50.1704 47.138 48.829C46.5666 48.164 45.8275 47.6398 44.9909 47.3435C44.1534 47.0519 43.2498 46.9523 42.3581 47.0159C40.5632 47.1502 38.8637 47.9568 37.4605 49.0735ZM37.4312 49.0379C38.8256 47.8928 40.5289 47.0761 42.3467 46.8887C43.2515 46.7959 44.181 46.8671 45.0595 47.1426C45.9369 47.4228 46.7379 47.9449 47.3647 48.6272C48.6425 50.0025 49.1121 51.9593 48.9964 53.7881C48.9405 54.7116 48.7417 55.6198 48.448 56.4933C48.1462 57.3655 47.7275 58.1903 47.2473 58.9748C46.264 60.5268 44.9455 61.8835 43.3575 62.832C43.1596 62.9506 42.9561 63.0612 42.7523 63.1676C42.5565 63.2693 42.3632 63.3761 42.1733 63.4885C41.7944 63.7148 41.43 63.9652 41.0833 64.2382C40.3899 64.7845 39.7686 65.4223 39.2481 66.1348C38.7362 66.8358 38.3102 67.672 37.7347 68.3823C37.4533 68.7434 37.1769 69.1074 36.8531 69.4321L36.3857 69.933C36.2238 70.0941 36.0492 70.242 35.8813 70.3967C34.5289 71.622 32.9523 72.6061 31.2346 73.2248C29.5126 73.8233 27.6381 74.0131 25.847 73.655C25.6224 73.6177 25.4083 73.5321 25.1888 73.4732C24.9739 73.3986 24.7442 73.3634 24.5425 73.2545C24.1314 73.0583 23.6995 72.9015 23.3295 72.6306L22.7548 72.2615L22.2301 71.8241C22.0475 71.686 21.8919 71.5194 21.7393 71.3499C21.5885 71.1795 21.4189 71.024 21.2837 70.8409C20.7196 70.1225 20.2844 69.3121 19.9597 68.4594C19.6686 67.5982 19.4359 66.7052 19.385 65.7915C19.2172 63.9686 19.5325 62.1229 20.1547 60.4064C21.4181 56.9786 23.986 54.0119 27.2787 52.4081C28.1004 52.0106 28.965 51.7008 29.8538 51.4995C30.2992 51.4028 30.7485 51.3266 31.2015 51.2833C31.658 51.2439 32.1043 51.2316 32.5493 51.1731C34.3314 50.9388 36.0275 50.1627 37.4312 49.0379Z" fill="#1A6980"/>
<path d="M23.6802 30.8933C21.8239 29.863 19.5162 29.7787 17.598 30.57C17.1131 30.7586 16.6656 31.0239 16.2299 31.2998C15.8124 31.6024 15.3971 31.9147 15.0479 32.2932C14.3308 33.0281 13.7514 33.9046 13.3967 34.8751C13.0381 35.8427 12.8762 36.887 12.9343 37.9266C12.9559 38.4475 13.0551 38.9616 13.181 39.4689C13.2615 39.7168 13.3433 39.9665 13.4395 40.2093C13.5543 40.4437 13.6421 40.6929 13.7794 40.9167C14.2786 41.838 15.0008 42.6331 15.8408 43.2553C16.6809 43.8847 17.6828 44.275 18.7042 44.4594C20.7571 44.8188 22.9296 44.2712 24.5427 42.9976C24.7444 42.8383 24.9487 42.6827 25.1204 42.4903C25.2958 42.3034 25.4937 42.1364 25.6391 41.9236C25.954 41.5384 26.2503 41.0654 26.6372 40.6662C27.008 40.2636 27.47 39.9232 27.9133 39.641C28.3435 39.3718 28.7139 39.0171 29.0453 38.6365C29.7035 37.8664 30.1206 36.8938 30.2172 35.891C30.2617 35.3896 30.2206 34.8806 30.0845 34.3949C29.9519 33.9067 29.7001 33.4587 29.3971 33.0506C28.7699 32.2415 27.7874 31.7295 26.7538 31.5918C26.4935 31.5524 26.2363 31.5473 25.9667 31.5456C25.6993 31.5359 25.4331 31.5053 25.1716 31.4524C24.6474 31.346 24.1439 31.1536 23.6802 30.8933ZM23.7027 30.8531C24.168 31.101 24.6694 31.2803 25.1865 31.3735C25.445 31.4202 25.7069 31.4443 25.9688 31.4481C26.2286 31.4473 26.502 31.4392 26.7677 31.4638C27.8345 31.549 28.8987 32.0232 29.6289 32.8548C29.9799 33.2739 30.2909 33.7469 30.4511 34.2818C30.6198 34.8107 30.6851 35.3706 30.6546 35.9245C30.6325 36.481 30.4838 37.0247 30.2693 37.5329C30.054 38.0415 29.7692 38.5234 29.4086 38.9421C29.05 39.36 28.6474 39.7478 28.1803 40.0449C27.7336 40.3343 27.3403 40.6314 26.9822 40.9997C26.6232 41.357 26.3494 41.7846 25.99 42.2157C25.8307 42.439 25.6192 42.6153 25.4289 42.8107C25.2428 43.0116 25.0237 43.1748 24.8072 43.3409C23.0759 44.6738 20.7601 45.1701 18.6546 44.7073C17.6001 44.4865 16.5999 44.03 15.7442 43.3863C15.3246 43.0548 14.9182 42.7039 14.5757 42.292C14.3893 42.1 14.2303 41.8851 14.0731 41.6685C13.904 41.4604 13.7802 41.2218 13.6391 40.9942C12.5749 39.1345 12.3426 36.8099 13.0369 34.7463C13.7493 32.692 15.4357 30.9802 17.4959 30.2992C19.5459 29.5846 21.8408 29.8372 23.7027 30.8531Z" fill="#1A6980"/>
<path d="M7.54984 86.1432C8.06859 85.1307 8.09232 83.8944 7.6363 82.8752C7.19171 81.8516 6.31313 81.0426 5.2663 80.6827C4.22371 80.328 3.00184 80.3924 2.03044 80.9743C1.05905 81.5393 0.347458 82.5535 0.200393 83.6673C0.0287467 84.7743 0.362718 85.9326 1.06838 86.7785C1.23917 86.9947 1.4443 87.1828 1.66045 87.3515C1.87151 87.5147 2.12962 87.6673 2.34915 87.869C2.57039 88.0623 2.75984 88.3051 2.9175 88.5391C3.06795 88.7662 3.26376 88.9595 3.4727 89.132C3.89525 89.474 4.42332 89.6838 4.96242 89.7215C5.50279 89.7609 6.05291 89.5918 6.47461 89.2409C6.8997 88.8929 7.16035 88.3585 7.21926 87.8016C7.25232 87.5253 7.20951 87.2333 7.27139 86.9506C7.32097 86.6688 7.41718 86.3958 7.54984 86.1432ZM7.57188 86.1542C7.44558 86.4073 7.35657 86.6789 7.31377 86.9578C7.26122 87.2371 7.3019 87.5177 7.28791 87.8076C7.2574 88.381 7.01837 88.9591 6.58268 89.3625C6.1542 89.7737 5.54475 89.98 4.95055 89.9567C4.35297 89.9389 3.777 89.6974 3.31377 89.3316C3.08448 89.1451 2.87045 88.9345 2.70432 88.6883C2.54242 88.4526 2.37755 88.2462 2.17497 88.0593C1.97831 87.872 1.74479 87.7308 1.5083 87.5444C1.28071 87.3613 1.06626 87.1578 0.887828 86.926C0.146993 86.0156 -0.143321 84.7802 0.066469 83.6448C0.169881 83.076 0.400437 82.5327 0.733559 82.0644C1.07007 81.5986 1.4977 81.2015 1.98679 80.9006C2.9692 80.303 4.21311 80.1449 5.3303 80.4878C6.44367 80.8404 7.382 81.7232 7.78039 82.8162C8.18811 83.905 8.09741 85.143 7.57188 86.1542Z" fill="#1A6980"/>
<path d="M129.28 95.3784C127.424 94.3481 125.116 94.2642 123.198 95.0551C122.713 95.2437 122.266 95.509 121.83 95.7849C121.413 96.0875 120.997 96.3998 120.648 96.7783C119.931 97.5132 119.351 98.3897 118.996 99.3602C118.638 100.328 118.476 101.372 118.534 102.412C118.555 102.933 118.654 103.447 118.78 103.954C118.861 104.202 118.943 104.452 119.039 104.694C119.154 104.929 119.241 105.178 119.378 105.401C119.878 106.323 120.6 107.118 121.44 107.74C122.28 108.369 123.282 108.76 124.303 108.944C126.356 109.303 128.529 108.756 130.142 107.482C130.343 107.323 130.548 107.167 130.719 106.975C130.895 106.788 131.093 106.621 131.238 106.408C131.553 106.023 131.849 105.55 132.236 105.151C132.607 104.748 133.069 104.408 133.512 104.126C133.942 103.856 134.313 103.502 134.644 103.121C135.302 102.351 135.719 101.378 135.816 100.375C135.861 99.8739 135.819 99.3649 135.683 98.8792C135.551 98.3909 135.299 97.943 134.996 97.5348C134.369 96.7257 133.386 96.2138 132.353 96.0756C132.092 96.0362 131.835 96.0311 131.566 96.0294C131.298 96.0197 131.032 95.9891 130.77 95.9362C130.248 95.8306 129.744 95.6382 129.28 95.3784ZM129.303 95.3377C129.768 95.5857 130.27 95.7649 130.787 95.8582C131.045 95.9048 131.307 95.929 131.569 95.9328C131.829 95.9319 132.102 95.9239 132.368 95.9485C133.435 96.0336 134.499 96.5079 135.229 97.3394C135.58 97.7586 135.891 98.2316 136.051 98.766C136.22 99.2949 136.285 99.8548 136.255 100.409C136.233 100.965 136.084 101.509 135.869 102.017C135.654 102.526 135.369 103.008 135.009 103.426C134.651 103.844 134.248 104.232 133.781 104.529C133.334 104.819 132.941 105.116 132.583 105.484C132.224 105.841 131.95 106.269 131.591 106.7C131.432 106.923 131.22 107.1 131.029 107.295C130.843 107.496 130.624 107.659 130.408 107.825C128.676 109.158 126.361 109.654 124.255 109.192C123.201 108.971 122.2 108.514 121.345 107.87C120.926 107.539 120.519 107.188 120.176 106.776C119.99 106.584 119.831 106.369 119.674 106.153C119.505 105.945 119.381 105.706 119.24 105.478C118.175 103.619 117.943 101.294 118.637 99.2305C119.35 97.1763 121.036 95.464 123.096 94.7834C125.146 94.0697 127.441 94.3218 129.303 95.3377Z" fill="#1A6980"/>
<path d="M80.415 17.8101C79.7289 19.819 80.0544 22.1056 81.1716 23.8538C81.4428 24.2975 81.7831 24.6913 82.1315 25.071C82.5028 25.4283 82.8838 25.7817 83.3182 26.0589C84.1684 26.6349 85.1334 27.0502 86.1514 27.2278C87.1669 27.4096 88.2239 27.3846 89.2368 27.1439C89.7458 27.0307 90.2341 26.8421 90.7113 26.6285C90.9414 26.5056 91.1724 26.381 91.3941 26.2433C91.6047 26.0886 91.8344 25.9581 92.0302 25.7839C92.849 25.1295 93.5038 24.2785 93.9675 23.3414C94.4384 22.4031 94.6456 21.3482 94.6465 20.3103C94.6371 18.2259 93.7145 16.1844 92.176 14.8222C91.9836 14.6518 91.7942 14.4781 91.5746 14.3433C91.3597 14.2034 91.1605 14.0386 90.9253 13.9331C90.4905 13.6911 89.9726 13.4834 89.5115 13.1727C89.0495 12.879 88.6329 12.4844 88.2769 12.0979C87.9357 11.722 87.5212 11.4202 87.0881 11.1613C86.2137 10.6493 85.1826 10.4111 84.179 10.4929C83.6776 10.5378 83.1838 10.6684 82.7299 10.8879C82.2726 11.1049 81.8764 11.4317 81.528 11.8021C80.8427 12.5624 80.5121 13.6199 80.5591 14.6616C80.5663 14.9248 80.607 15.1791 80.6528 15.4444C80.6905 15.7093 80.7075 15.9767 80.702 16.2437C80.6892 16.7781 80.5888 17.3075 80.415 17.8101ZM80.371 17.7953C80.5329 17.2935 80.6206 16.7684 80.621 16.2433C80.621 15.9805 80.599 15.7186 80.5562 15.4601C80.5095 15.2045 80.4532 14.9371 80.4303 14.6709C80.3256 13.6059 80.6041 12.4747 81.2932 11.6088C81.6437 11.1897 82.0544 10.7998 82.5524 10.5472C83.0431 10.2878 83.5827 10.1246 84.1332 10.0564C84.6846 9.97967 85.2461 10.0297 85.7844 10.1509C86.3231 10.273 86.8478 10.4679 87.3237 10.7489C87.7984 11.0278 88.2515 11.3558 88.6261 11.7631C88.9902 12.1513 89.3517 12.4861 89.7776 12.7735C90.1925 13.0634 90.6621 13.2579 91.1495 13.5355C91.3975 13.6529 91.6085 13.8301 91.8344 13.9826C92.065 14.1301 92.2646 14.317 92.4659 14.501C94.0836 15.9691 94.9817 18.1611 94.8982 20.3149C94.8673 21.3918 94.5947 22.4569 94.1124 23.413C93.8603 23.8843 93.5869 24.3467 93.2419 24.7565C93.086 24.9744 92.9024 25.1685 92.7172 25.3613C92.5422 25.5648 92.3294 25.7288 92.1302 25.9076C90.4879 27.2838 88.2408 27.9233 86.0874 27.605C83.9395 27.2668 81.9565 25.9097 80.9219 24.0021C79.8577 22.1111 79.7005 19.8076 80.371 17.7953Z" fill="#1A6980"/>
<path d="M74.0224 94.2617L74.4513 83.2848H48.9722C49.1523 86.3787 49.4439 90.7754 49.8156 94.2617H74.0224Z" fill="#FFBF9D"/>
<path d="M56.3813 53.8762C56.2792 54.1657 56.1889 54.4378 56.0278 54.7213L56.2296 62.8874H69.5672V52.887L56.3813 53.8762Z" fill="#FFBF9D"/>
<path d="M110.932 32.15C108.523 31.369 106.159 30.4726 103.909 29.305C101.625 28.1204 99.4464 26.7404 97.3371 25.2706C94.4661 23.2706 90.6691 19.6177 84.7297 17.8945C76.8263 15.6016 69.6689 16.7231 61.8961 21.4474C52.9272 26.8989 49.6375 36.1912 54.0652 43.6317C58.1944 50.5705 67.3659 54.0861 76.7645 53.4995C80.5131 53.2656 88.439 48.089 93.6596 49.0714C103.963 51.0108 100.492 59.7123 99.5019 63.0795C101.218 63.2452 103.56 63.3003 104.901 62.2158C106.264 63.5927 107.592 66.2132 109.142 67.6784C113.929 72.2056 122.455 73.7754 130.961 72.1467C137.318 70.929 139.546 74.3387 139.993 78.5756C148.765 74.2463 151.131 55.797 143.037 42.3827C131.353 23.021 120.253 35.1715 110.932 32.15Z" fill="#0B0A0A"/>
<path d="M70.5942 91.5092C69.3753 92.0711 68.0864 92.4594 66.7912 92.8027C65.2155 93.2201 63.6507 93.6626 62.0288 93.8643C58.7929 94.2665 55.5592 93.7651 52.5641 92.5513C40.0381 94.4831 25.7529 97.7206 24.3492 97.8143C22.175 97.9592 22.2055 100.575 31.8826 107.06C48.122 117.943 57.0137 115.739 57.0137 115.739C57.0137 115.739 64.7137 112.985 71.7813 115.739C78.8489 118.492 102.659 116.37 103.288 108.544C103.888 101.077 81.018 93.3379 70.5942 91.5092Z" fill="#F0E1D3"/>
<path d="M62.3304 57.1791C62.3304 57.1791 63.2099 55.5673 63.8982 55.8186C64.5864 56.0699 67.71 56.448 67.71 56.448C67.71 56.448 64.5 56.47 63.9363 56.879C63.373 57.2884 62.1041 57.5469 62.3304 57.1791Z" fill="#FFE7CF"/>
<path d="M60.6426 57.0454C60.6426 57.0454 60.0268 55.3154 59.308 55.4557C58.5888 55.5959 56.062 55.5909 56.062 55.5909C56.062 55.5909 58.6113 56.0049 59.1033 56.4974C59.5958 56.9899 60.8084 57.4446 60.6426 57.0454Z" fill="#FFE7CF"/>
<path d="M99.4092 102.607C96.4009 101.905 93.3384 101.594 90.2407 102.055C82.9671 103.14 68.8921 111.445 64.2708 111.445C57.0879 111.445 51.4274 104.61 44.7285 102.565C37.691 100.417 34.0962 97.8457 26.7518 97.4812C26.6463 97.4761 26.5437 97.4655 26.4445 97.4507C25.3494 97.6647 24.6158 97.7965 24.3492 97.8143C22.175 97.9593 22.2055 100.576 31.8826 107.06C48.122 117.943 57.0138 115.739 57.0138 115.739C57.0138 115.739 64.7137 112.985 71.7813 115.739C78.8489 118.493 102.659 116.371 103.288 108.544C103.449 106.545 101.924 104.526 99.4092 102.607Z" fill="#BEBEBE"/>
<path d="M38.0732 86.79C38.197 81.4558 45.182 57.4185 48.9942 56.0479C48.9942 56.0479 52.8883 67.9203 50.7348 76.804C48.3597 86.6023 46.2974 92.7553 46.2974 92.7553L38.0732 86.79Z" fill="#FFBF9D"/>
<path d="M48.7686 90.1624C49.3085 94.2162 50.1133 98.0441 51.2691 98.8561C56.062 102.223 71.6548 105.222 74.4838 92.3306C74.5672 91.95 74.6448 91.2626 74.7173 90.3412C64.5249 93.6088 58.2282 92.921 48.7686 90.1624Z" fill="#F0E1D3"/>
<path d="M69.3414 52.8359C69.3414 52.8359 67.4672 60.4329 61.5376 60.2803C57.5215 60.1773 56.0381 56.9703 56.3814 53.8764C52.3928 55.1029 48.9938 56.0481 48.9938 56.0481C48.9938 56.0481 48.7832 67.478 46.2971 73.4657C43.8097 79.4568 47.969 82.6685 48.3577 86.5889C54.8735 88.2011 64.1326 87.9256 74.9328 86.5889C75.4104 75.8645 75.5677 54.7215 75.5677 54.7215C75.5677 54.7215 72.9362 53.6573 69.3414 52.8359Z" fill="#5E1F3C"/>
<path d="M68.5514 42.6865C67.4783 45.0167 68.2734 59.9588 67.1541 62.4284C64.6285 68 60.7989 69.3345 60.7989 69.3345C60.7989 69.3345 56.7197 92.9357 65.3698 95.6804C74.02 98.425 86.1399 91.2367 88.5052 96.7476" stroke="#7DAF93" stroke-width="0.5" stroke-miterlimit="10" stroke-linecap="round"/>
<path d="M55.4793 64.7924C53.9302 62.5254 53.82 50.575 53.8141 48.1508C53.8103 48.1444 53.8141 47.7892 53.8141 47.7892C53.8141 47.7892 53.7103 47.6273 53.6433 47.5015C53.6395 48.4127 53.5721 62.3762 55.3047 64.9115C57.055 67.4735 60.713 69.4091 60.7499 69.4286L60.8482 69.2408C60.8114 69.2218 57.1996 67.3095 55.4793 64.7924Z" fill="#7DAF93"/>
<path d="M67.9122 43.5025L65.9813 54.7214H58.9662L58.7217 43.4224L67.9122 43.5025Z" fill="#FFBF9D"/>
<path d="M65.3926 46.0094C65.4968 45.3745 65.6613 44.8672 65.7541 43.4839L58.7217 43.4224L58.9264 52.8871C61.2917 52.5718 64.3975 52.0688 65.3926 46.0094Z" fill="#FFE7CF"/>
<path d="M58.7213 50.6219C62.3038 50.7321 68 45.9951 68.1097 42.4125C68.1097 42.4125 68.8811 36.9512 67.9237 35.2267C66.261 32.2324 59.101 31.7306 56.2335 32.1481C51.8406 32.788 52.3945 40.902 52.3945 40.902C52.0466 50.9644 58.7213 50.6219 58.7213 50.6219Z" fill="#FFBF9D"/>
<path d="M70.603 41.0359C70.4805 42.5714 69.0095 43.7831 67.1616 43.7331L67.3523 38.1581C69.2002 38.2077 70.823 38.2806 70.603 41.0359Z" fill="#FFBF9D"/>
<path d="M68.7497 40.013C68.7446 39.8024 69.018 39.7223 69.1311 39.8999C69.318 40.1936 69.4443 40.6055 69.2282 41.098C68.9222 41.7943 68.3233 42.4648 68.064 42.1639C67.8046 41.8634 68.0864 41.9414 68.5374 41.0433C68.7154 40.6882 68.7569 40.3139 68.7497 40.013Z" fill="#FFE7CF"/>
<path d="M59.7926 41.1544C59.7574 41.6019 59.9917 41.985 60.3164 42.0109C60.641 42.0368 60.9331 41.6947 60.9682 41.2472" stroke="#281923" stroke-width="0.7515" stroke-miterlimit="10"/>
<path d="M54.2159 40.643C54.1807 41.0906 54.4151 41.4737 54.7402 41.4995C55.0648 41.5254 55.3568 41.1834 55.392 40.7358" stroke="#281923" stroke-width="0.7515" stroke-miterlimit="10"/>
<path d="M62.7104 39.3703C62.7104 39.3703 60.7393 38.0599 58.7393 39.0567" stroke="#FFE7CF" stroke-width="0.8563" stroke-miterlimit="10"/>
<path d="M52.7939 38.587C53.4509 38.2598 54.1044 38.181 54.6863 38.2233C56.3994 38.3475 57.6751 39.9513 57.2135 41.6058C57.1783 41.7326 57.1326 41.8601 57.0754 41.9877C56.3892 43.5156 55.8179 43.958 56.9533 44.1886" stroke="#FFE7CF" stroke-width="0.8563" stroke-miterlimit="10"/>
<path d="M58.5595 46.8187C58.5595 46.8187 57.2143 47.6232 56.0552 46.414" stroke="#FFE7CF" stroke-width="0.8563" stroke-miterlimit="10"/>
<path d="M62.827 43.4635C62.8156 43.6072 62.9228 43.733 63.0669 43.7441C63.2106 43.7555 63.3364 43.6483 63.3479 43.5042C63.3593 43.3605 63.2521 43.2346 63.108 43.2236C62.9639 43.2122 62.8385 43.3194 62.827 43.4635Z" fill="#FFE7CF"/>
<path d="M61.6244 44.084C61.6193 44.1458 61.6655 44.1997 61.7274 44.2047C61.7893 44.2094 61.8431 44.1632 61.8482 44.1018C61.8533 44.0399 61.8071 43.9861 61.7452 43.981C61.6837 43.9759 61.6295 44.0221 61.6244 44.084Z" fill="#FFE7CF"/>
<path d="M62.9758 44.8942C62.966 45.0205 63.0601 45.1307 63.186 45.1404C63.3123 45.1502 63.4225 45.0561 63.4322 44.9302C63.442 44.8039 63.3479 44.6937 63.222 44.684C63.0962 44.6738 62.986 44.7679 62.9758 44.8942Z" fill="#FFE7CF"/>
<path d="M64.2709 43.9216C64.2654 43.9915 64.3175 44.0525 64.3875 44.058C64.4574 44.0636 64.5184 44.0114 64.5239 43.9415C64.5294 43.8716 64.4773 43.8105 64.4074 43.805C64.3374 43.7991 64.2764 43.8516 64.2709 43.9216Z" fill="#FFE7CF"/>
<path d="M61.5792 45.4207C61.5708 45.5262 61.6496 45.6186 61.7555 45.6271C61.8615 45.6356 61.9535 45.5563 61.9619 45.4508C61.9704 45.3453 61.8912 45.2529 61.7856 45.2444C61.6801 45.2363 61.5877 45.3152 61.5792 45.4207Z" fill="#FFE7CF"/>
<path d="M60.315 43.4367C60.3074 43.5312 60.3782 43.6138 60.4727 43.6215C60.5672 43.6291 60.6498 43.5583 60.6575 43.4638C60.6651 43.3693 60.5943 43.2866 60.4998 43.279C60.4053 43.2718 60.3226 43.3426 60.315 43.4367Z" fill="#FFE7CF"/>
<path d="M60.5649 44.635C60.578 44.471 60.4555 44.3273 60.2911 44.3146C60.1271 44.3015 59.9834 44.424 59.9707 44.5884C59.9576 44.7524 60.08 44.8961 60.2441 44.9088C60.4085 44.9215 60.5522 44.799 60.5649 44.635Z" fill="#FFE7CF"/>
<path d="M67.219 34.359C64.7892 32.1378 58.7973 31.7746 56.2332 32.1479C53.7255 32.5133 52.8308 35.3134 52.5239 37.65C55.0804 37.2761 57.1088 36.1509 58.6413 34.9032C59.2393 35.405 59.9221 35.9009 60.6968 36.3611C61.8263 37.0325 63.216 37.5559 64.5566 37.9551C65.9403 38.3666 66.9753 39.5186 67.1876 40.9464L67.219 40.8121V34.359Z" fill="black"/>
<path d="M54.3464 42.9499C54.3367 43.0753 54.4303 43.1855 54.5558 43.1953C54.6812 43.205 54.7914 43.1113 54.8012 42.9859C54.8109 42.8604 54.7172 42.7502 54.5918 42.7405C54.4659 42.7303 54.3561 42.824 54.3464 42.9499Z" fill="#FFE7CF"/>
<path d="M99.2728 103.354C95.1664 102.014 76.5625 108.204 70.273 112.948C67.6008 114.963 64.8888 116.541 62.6528 117.691C59.7305 119.194 52.3823 119.742 52.3823 119.742C52.2654 120.064 52.1679 120.373 52.0853 120.671C48.4298 121.742 44.6303 122.253 40.8172 122.174C39.0232 122.137 37.3173 122.206 36.5841 122.535C34.9083 123.286 31.8301 127.717 32.8274 129.55C33.3813 130.569 36.0221 130.048 37.9123 129.52C39.5885 129.051 41.2842 128.658 43.0015 128.373L53.027 126.709C53.3427 127.05 53.5915 127.205 53.5915 127.205C53.5915 127.205 58.2272 126.925 64.5065 125.784C65.4533 125.612 66.4951 125.426 67.6038 125.227C67.6097 125.229 67.6148 125.231 67.6208 125.233C67.6208 125.233 76.3921 129.222 79.1274 130.353C82.0721 131.572 87.3927 129.967 89.0172 125.784C89.5135 124.506 86.0297 123.125 82.9579 122.319C82.8363 122.287 82.7057 122.257 82.5714 122.228C89.3449 120.635 95.9564 118.617 99.9357 116.072C107.816 111.03 103.379 104.693 99.2728 103.354Z" fill="#857F7F"/>
<path d="M54.02 44.5053C54.0339 44.3302 53.9034 44.1777 53.7284 44.1637C53.5533 44.1497 53.4003 44.2807 53.3868 44.4553C53.3728 44.6303 53.5033 44.7833 53.6784 44.7969C53.853 44.8109 54.006 44.6803 54.02 44.5053Z" fill="#FFE7CF"/>
<path d="M52.9654 43.2143C52.9574 43.3164 53.0337 43.4054 53.1354 43.4135C53.2375 43.4215 53.3265 43.3453 53.3346 43.2435C53.3426 43.1418 53.2663 43.0524 53.1646 43.0443C53.0629 43.0363 52.9735 43.1126 52.9654 43.2143Z" fill="#FFE7CF"/>
<path d="M66.621 124.001C66.621 124.001 75.3924 127.989 78.1277 129.121C81.0724 130.339 86.393 128.734 88.0175 124.552C88.5138 123.273 85.03 121.893 81.9582 121.087C78.8868 120.28 71.4848 120.375 68.7685 118.542C66.0519 116.709 63.7836 123.278 66.621 124.001Z" fill="#FFBF9D"/>
<path d="M22.8227 98.2288C22.8227 98.2288 30.5065 95.3202 39.9411 100.325C49.3757 105.329 68.7688 118.541 68.7688 118.541C68.7688 118.541 71.0354 122.929 66.6218 124C66.6218 124 47.9899 118.222 38.9206 116.895C29.8517 115.569 21.9339 107.897 20.9629 103.335C19.9924 98.7747 22.8227 98.2288 22.8227 98.2288Z" fill="#F0E1D3"/>
<path d="M14.7858 73.2334C14.9816 73.1279 15.2207 73.1482 15.4139 73.2589C15.8767 73.5233 17.0376 74.1323 18.2116 74.3197C19.6207 74.5443 21.658 75.8344 21.4605 78.315C21.2885 80.4756 19.5288 82.3765 13.6012 82.2883C11.3465 82.2548 10.3607 81.6102 9.66059 81.2016C8.52051 80.5362 8.63409 79.9853 8.94687 79.9175C9.45164 79.8077 11.0104 81.1249 13.8903 80.9533C16.1009 80.8215 14.9948 80.499 13.5788 80.51C13.0664 80.5138 9.88097 80.3752 8.49805 77.9154C8.3603 77.6704 8.32725 77.3707 8.44762 77.1169C8.59934 76.7965 8.94687 76.5803 9.7373 77.5026C11.0545 79.0393 13.3868 79.4097 14.2925 79.1381C14.9511 78.9406 13.8068 78.6727 13.1482 78.6291C12.4896 78.585 10.4616 78.0294 9.6822 76.6354C9.1236 75.6361 9.82502 75.2839 10.3963 75.6034C10.7392 75.7954 11.1736 76.1786 11.647 76.6685C12.7265 77.7857 14.4459 77.5356 14.468 77.1186C14.4858 76.7787 12.4701 77.0308 12.0094 75.8234C11.589 74.7219 12.593 73.2881 14.226 73.3813C14.4612 73.3949 14.5837 73.6615 14.4341 73.8437C14.2361 74.0849 13.9161 74.4205 13.4254 74.8024C12.8858 75.222 13.5474 75.4288 14.3378 75.4657C14.9952 75.4966 15.742 75.4097 15.9611 75.2305C15.9611 75.2305 13.9276 74.0993 14.6549 73.3318C14.6934 73.2911 14.7384 73.2589 14.7858 73.2334Z" fill="#FFBF9D"/>
<path d="M19.1309 79.7843C19.1309 79.7843 32.1247 89.8394 37.2881 91.1376C39.5623 91.7093 46.2976 92.7553 46.2976 92.7553L43.4038 83.3283L20.5265 75.5669L19.1309 79.7843Z" fill="#FFBF9D"/>
<path d="M62.2995 29.842C62.2995 29.842 58.3876 37.614 49.8121 37.0453C49.8121 37.0453 49.6739 31.3513 52.5957 28.8664C55.5179 26.3811 62.2995 29.842 62.2995 29.842Z" fill="#0B0A0A"/>
<path d="M75.5676 54.7213C75.5676 54.7213 70.0037 63.352 71.8215 75.3969C72.7912 81.8237 77.5286 92.2098 77.5286 92.2098C77.5286 92.2098 80.4636 91.6003 82.4555 89.6622C84.6975 87.4808 84.9722 58.7658 75.5676 54.7213Z" fill="#FFBF9D"/>
<path d="M108.929 71.0897C108.733 70.9842 108.494 71.0045 108.301 71.1151C107.838 71.3796 106.678 71.9886 105.504 72.1759C104.094 72.4006 102.057 73.6907 102.255 76.1713C102.427 78.3319 104.186 80.2327 110.114 80.1446C112.369 80.1111 113.354 79.4665 114.055 79.0579C115.195 78.3925 115.081 77.8415 114.768 77.7737C114.263 77.664 112.704 78.9812 109.824 78.8095C107.614 78.6777 108.72 78.3552 110.136 78.3662C110.648 78.37 113.834 78.2315 115.217 75.7716C115.354 75.5266 115.387 75.227 115.267 74.9731C115.115 74.6527 114.768 74.4366 113.977 75.3588C112.66 76.8956 110.328 77.266 109.422 76.9943C108.764 76.7968 109.908 76.529 110.566 76.4853C111.225 76.4412 113.253 75.8856 114.032 74.4917C114.591 73.4923 113.89 73.1401 113.318 73.4597C112.975 73.6517 112.541 74.0348 112.068 74.5247C110.988 75.6419 109.269 75.3919 109.247 74.9748C109.229 74.6349 111.245 74.8871 111.705 73.6796C112.126 72.5781 111.122 71.1444 109.489 71.2376C109.254 71.2512 109.131 71.5177 109.281 71.7C109.479 71.9411 109.799 72.2768 110.289 72.6587C110.829 73.0782 110.167 73.2851 109.377 73.3219C108.719 73.3529 107.973 73.266 107.754 73.0867C107.754 73.0867 109.787 71.9556 109.06 71.188C109.022 71.1473 108.977 71.1151 108.929 71.0897Z" fill="#FFBF9D"/>
<path d="M104.585 77.6412C104.585 77.6412 92.5735 88.7969 87.5966 90.6871C81.5805 92.9715 77.5288 92.2103 77.5288 92.2103L81.2762 82.9961L103.189 73.4242L104.585 77.6412Z" fill="#FFBF9D"/>
<path d="M58.228 93.0897C58.228 93.0897 58.0072 103.152 62.325 109.931" stroke="#BEBEBE" stroke-width="1.0297" stroke-miterlimit="10" stroke-linecap="round"/>
<path d="M37.2095 99.0672L44.325 104.319C46.7013 106.062 49.0633 107.824 51.465 109.53C53.8494 111.26 56.2533 112.962 58.695 114.607C59.9185 115.425 61.1408 116.248 62.4042 117.001C62.7183 117.192 63.0251 117.397 63.3451 117.578L64.3089 118.114C64.9408 118.497 65.6274 118.759 66.294 119.079C65.6117 118.807 64.9009 118.579 64.2534 118.223L63.2603 117.73C62.9306 117.563 62.614 117.373 62.2902 117.196C60.998 116.479 59.7511 115.688 58.5004 114.904C56.0109 113.316 53.6049 111.607 51.1959 109.904C48.8136 108.164 46.4449 106.406 44.1122 104.601L40.6327 101.869C39.4888 100.939 38.336 100.02 37.2095 99.0672Z" fill="#BEBEBE"/>
<path d="M52.2619 119.078C48.2496 120.4 44.0415 121.029 39.8182 120.942C38.0237 120.905 36.3183 120.973 35.5851 121.302C33.9093 122.054 30.8311 126.485 31.8283 128.318C32.3823 129.337 35.0231 128.817 36.9133 128.288C38.5895 127.818 40.2852 127.426 42.0025 127.141L53.0171 125.313C53.0171 125.313 57.4401 121.211 52.2619 119.078Z" fill="#FFBF9D"/>
<path d="M61.6545 116.459C63.8905 115.31 66.6026 113.731 69.2747 111.716C75.5642 106.973 94.1681 100.782 98.2745 102.122C102.381 103.461 106.818 109.798 98.9365 114.839C91.0552 119.879 72.8509 122.854 63.5078 124.551C57.2285 125.692 52.5928 125.973 52.5928 125.973C52.5928 125.973 49.3942 123.989 51.3841 118.51C51.3841 118.51 58.7322 117.961 61.6545 116.459Z" fill="#F0E1D3"/>
<path d="M51.3838 119.685C52.2632 119.738 53.1443 119.704 54.0199 119.634C54.4586 119.608 54.8939 119.541 55.3304 119.496C55.764 119.426 56.1992 119.368 56.6302 119.286C58.3569 118.973 60.0568 118.517 61.7008 117.908C63.3393 117.287 64.9396 116.57 66.4734 115.722C67.9903 114.853 69.4656 113.891 70.9333 112.918C73.8932 111.013 76.7862 108.994 79.836 107.208C81.3634 106.322 82.932 105.499 84.5582 104.806C86.1886 104.125 87.8674 103.562 89.5817 103.151C86.1933 104.137 82.9969 105.653 80.0077 107.496C77.0104 109.331 74.1183 111.345 71.1719 113.282C69.6961 114.245 68.2119 115.198 66.665 116.069C65.1049 116.909 63.4872 117.645 61.8127 118.223C58.4662 119.353 54.9045 119.999 51.3838 119.685Z" fill="#BEBEBE"/>
<path d="M72.0363 80.993C72.0363 80.993 81.682 78.7264 84.6267 77.7274C84.6267 77.7274 84.1283 57.0718 75.568 54.7213C67.0077 52.3708 72.0363 80.993 72.0363 80.993Z" fill="#5E1F3C"/>
<path d="M38.5298 77.7276C38.5298 77.7276 38.6315 80.2824 49.2927 83.5313L48.9939 56.0475C48.9939 56.0475 44.4187 57.4042 38.5298 77.7276Z" fill="#5E1F3C"/>
<path d="M49.8114 62.8024C49.6957 63.6542 49.5262 64.4968 49.3592 65.3406C49.1769 66.1806 48.9705 67.016 48.7506 67.8484C48.2937 69.5085 47.7406 71.1482 46.9756 72.7138C46.5548 73.5038 46.0911 74.1738 45.9241 74.9884C45.7279 75.7928 45.7762 76.6426 45.8771 77.4745C45.9898 78.309 46.2106 79.1338 46.4954 79.9361C46.7701 80.7435 47.1146 81.5284 47.5075 82.2917C46.5649 80.8562 45.8512 79.2487 45.5266 77.5305C45.3655 76.6744 45.3248 75.7755 45.5139 74.9003C45.619 74.4684 45.741 74.0323 45.9631 73.6386C46.1589 73.2173 46.3797 72.8952 46.5654 72.5053C47.3426 71.0016 47.8868 69.3741 48.4119 67.7492C48.6713 66.9346 48.9142 66.1132 49.1409 65.2872C49.3808 64.4637 49.594 63.6335 49.8114 62.8024Z" fill="#EEEEEE"/>
<path d="M71.4569 63.3009L71.2789 67.726C71.2306 69.2001 71.1734 70.6724 71.1395 72.1456C71.0916 73.6184 71.0785 75.0916 71.0552 76.5656C71.0433 77.3026 71.0403 78.0401 71.0484 78.7775C71.0289 79.5162 71.0619 80.2528 71.0463 80.9932C70.864 79.5256 70.7513 78.049 70.7004 76.5707C70.6398 75.0924 70.6411 73.6124 70.6788 72.1337C70.7242 70.6555 70.7937 69.1776 70.9263 67.7044C71.0547 66.2316 71.212 64.7606 71.4569 63.3009Z" fill="#EEEEEE"/>
<path d="M51.3838 80.1476C52.6341 79.6627 53.9398 79.3211 55.2749 79.1139C55.9428 79.0092 56.6213 78.963 57.3054 78.9707C57.6483 78.9838 57.9907 79.0118 58.3331 79.0728C58.6713 79.1313 59.0248 79.2338 59.3308 79.3326C60.5921 79.7424 61.8788 80.0645 63.185 80.2883C63.8381 80.401 64.498 80.4786 65.1609 80.5227C65.8241 80.582 66.4908 80.5888 67.1609 80.5871C66.4984 80.6926 65.8267 80.7316 65.1537 80.7486C64.4806 80.7503 63.8068 80.7113 63.1359 80.6397C61.7928 80.4956 60.4734 80.1777 59.1897 79.7717C57.9636 79.3144 56.6336 79.3572 55.3172 79.4648C54.6578 79.5229 54.0004 79.625 53.3456 79.7445C52.6879 79.8526 52.036 79.9963 51.3838 80.1476Z" fill="#EEEEEE"/>
<path d="M67.5194 31.2521C64.9031 30.2044 55.0527 29.742 55.0527 29.742C55.0527 29.742 56.5709 33.2033 60.6971 35.6551C61.8266 36.3265 63.2163 36.8499 64.5569 37.2487C65.9402 37.6606 66.9756 38.8122 67.1879 40.24L67.2697 39.8908C67.5096 38.8634 68.4924 38.1904 69.5389 38.3256H69.5393C69.5393 38.3256 70.1356 32.2998 67.5194 31.2521Z" fill="#0B0A0A"/>
<path d="M65.7544 37.8497C65.7544 37.8497 67.036 38.6444 66.8326 42.0121L67.6196 41.0203C67.6196 41.0203 67.4395 38.441 69.078 38.3185L65.7544 37.8497Z" fill="#0B0A0A"/>
<path d="M74.4841 92.3307C74.1861 92.5325 73.9229 92.7694 73.6932 93.0376C73.4559 93.297 73.2427 93.5763 73.0427 93.8632C72.6472 94.4409 72.3057 95.0559 72.0204 95.6984C71.7148 96.332 71.4792 96.9982 71.2325 97.6632L70.5688 99.7009C70.5951 99.342 70.6498 98.9864 70.6896 98.627C70.7519 98.2722 70.8278 97.9192 70.9062 97.5662C71.0003 97.2173 71.102 96.8694 71.216 96.5253C71.3461 96.1866 71.4648 95.8433 71.6246 95.5153C71.9276 94.8546 72.3018 94.2193 72.7727 93.6577C73.2372 93.1008 73.8026 92.5867 74.4841 92.3307Z" fill="#BEBEBE"/>
<path d="M67.1616 93.6089C68.247 92.9537 69.4608 92.5371 70.703 92.2773C71.3269 92.1569 71.9626 92.0861 72.5996 92.0798C73.2371 92.0751 73.8762 92.1607 74.4844 92.3307C73.8503 92.329 73.2332 92.3599 72.6179 92.4201C72.0042 92.4947 71.3935 92.5807 70.7878 92.7053C70.1809 92.824 69.5787 92.9689 68.9756 93.1202C68.3737 93.2787 67.769 93.4347 67.1616 93.6089Z" fill="#BEBEBE"/>
<path d="M49.2197 93.0897C49.7834 93.4373 50.2852 93.8856 50.7251 94.3836C51.1701 94.8791 51.5567 95.4283 51.8805 96.0119C52.1992 96.5981 52.4734 97.2118 52.6488 97.8556C52.8489 98.4913 52.9298 99.1584 52.9595 99.8157C52.7527 99.1864 52.559 98.5689 52.3089 97.973C52.0712 97.3741 51.791 96.7952 51.4778 96.2357C51.1744 95.6704 50.8205 95.133 50.4458 94.6078C50.0652 94.0874 49.6681 93.5737 49.2197 93.0897Z" fill="#BEBEBE"/>
<path d="M54.1407 94.4464L51.6796 93.7819L50.4552 93.4555C50.0457 93.3428 49.6334 93.236 49.2197 93.0894C50.0907 93.0033 50.9591 93.1229 51.7982 93.3365C52.2157 93.4543 52.6281 93.5916 53.0235 93.7734C53.4181 93.954 53.8042 94.1638 54.1407 94.4464Z" fill="#BEBEBE"/>
<path d="M62.7104 26.0631C64.4608 25.4668 66.293 25.1269 68.1324 24.9311C69.9743 24.745 71.834 24.7086 73.684 24.8429C77.3856 25.093 81.041 26.0135 84.4485 27.4926C86.1561 28.2343 87.7865 29.1137 89.4225 29.9754C91.0576 30.8412 92.6702 31.7452 94.2909 32.6281C95.9111 33.5113 97.5445 34.3649 99.2144 35.1337C100.884 35.9021 102.596 36.5721 104.345 37.132C107.848 38.2326 111.478 38.909 115.137 39.3151C118.802 39.741 122.478 39.8593 126.185 39.9902C129.892 40.2093 133.635 41.2218 136.711 43.3625C138.246 44.4234 139.588 45.7533 140.666 47.2668C141.741 48.7772 142.589 50.464 143.037 52.2593C141.962 48.723 139.592 45.6295 136.538 43.6177C133.484 41.5668 129.805 40.634 126.158 40.4772C122.48 40.3835 118.76 40.2712 115.077 39.8656C111.393 39.471 107.711 38.8302 104.169 37.6791C102.4 37.1027 100.669 36.414 98.9851 35.6291C97.3021 34.8434 95.6624 33.9758 94.0425 33.082L89.2004 30.3839C87.5814 29.4982 85.9688 28.5946 84.293 27.847C80.9406 26.3399 77.3322 25.407 73.6653 25.0765C71.8319 24.9082 69.9819 24.909 68.1442 25.0595C66.3099 25.2248 64.4748 25.5104 62.7104 26.0631Z" fill="white"/>
<path d="M69.5664 45.6279C74.3666 44.5785 79.263 43.9466 84.1856 43.7533C86.6471 43.6575 89.1189 43.716 91.577 43.9784C94.0292 44.2521 96.4886 44.723 98.7989 45.6838C99.9508 46.164 101.049 46.8001 102.023 47.6016C102.259 47.8067 102.504 48.014 102.72 48.2674C102.929 48.5136 103.117 48.7675 103.292 49.0248C103.646 49.5389 103.971 50.0597 104.304 50.5738C104.965 51.6033 105.659 52.6039 106.438 53.5346C107.221 54.4598 108.086 55.3134 109.039 56.0597C110.946 57.555 113.252 58.5064 115.65 58.9247C116.85 59.14 118.074 59.2218 119.297 59.2227L120.215 59.2066L121.132 59.1447C121.746 59.1184 122.352 59.0197 122.964 58.9608C120.549 59.3998 118.061 59.5452 115.605 59.2036C113.16 58.834 110.77 57.9105 108.772 56.4123C106.751 54.9332 105.202 52.9205 103.868 50.8582C103.53 50.3441 103.2 49.8258 102.854 49.3303C102.683 49.0811 102.502 48.8434 102.312 48.6226C102.129 48.4081 101.903 48.2191 101.674 48.0224C100.746 47.2685 99.6906 46.6713 98.5776 46.2064C96.3509 45.2617 93.9373 44.7777 91.5194 44.4916C89.0943 44.2093 86.6442 44.1585 84.1971 44.1869C81.7487 44.2271 79.3011 44.3928 76.8612 44.6425C74.42 44.8785 71.9873 45.2108 69.5664 45.6279Z" fill="white"/>
<path d="M72.5259 34.9905C73.7155 35.8759 75.0552 36.5299 76.4182 37.0897C77.7901 37.6331 79.2006 38.0823 80.6441 38.3841C83.5189 39.0439 86.4835 39.247 89.4248 39.163L91.6456 39.0952L92.7649 39.0694C93.1379 39.0677 93.5108 39.0969 93.8838 39.1096L95.0031 39.1592L96.1173 39.2804C96.4882 39.3266 96.8616 39.3525 97.2303 39.4156L98.3343 39.6157C99.0756 39.7254 99.7923 39.9501 100.521 40.123C100.886 40.2065 101.235 40.3468 101.593 40.4561C101.947 40.5794 102.311 40.6748 102.656 40.821C104.057 41.3555 105.41 42.0128 106.698 42.7854C109.234 44.3811 111.518 46.4362 113.171 48.9604C114.763 51.4033 117.144 53.266 119.85 54.3802L120.353 54.6006C120.523 54.6684 120.698 54.7244 120.87 54.7867L121.908 55.1499L122.97 55.4436L123.502 55.5907L124.041 55.7038L125.122 55.9302C125.482 56.0064 125.85 56.045 126.214 56.1043L127.307 56.2675L128.409 56.3743C131.349 56.6752 134.315 56.6684 137.276 56.5739C134.322 56.8075 131.35 56.8753 128.383 56.6748L127.271 56.5905L126.164 56.4472C125.796 56.3942 125.424 56.362 125.059 56.2921L123.961 56.084L123.411 55.9797L122.869 55.8411L121.783 55.5631L120.717 55.213C120.54 55.1524 120.361 55.099 120.186 55.0329L119.667 54.8176C116.866 53.7483 114.374 51.7877 112.704 49.2711C111.089 46.8342 108.853 44.8498 106.376 43.3097C105.127 42.5502 103.812 41.9005 102.447 41.3703C102.111 41.2249 101.756 41.13 101.412 41.0075C101.062 40.8986 100.722 40.7587 100.365 40.6752C99.6537 40.5023 98.9535 40.2773 98.2275 40.1654L97.1464 39.9624C96.7853 39.8979 96.4187 39.8708 96.055 39.8229L94.9612 39.6966L93.8609 39.6415C93.4939 39.6271 93.1273 39.5953 92.7603 39.5949L91.6575 39.6097L89.4354 39.6356C86.4598 39.6627 83.4663 39.4046 80.5759 38.6769C79.1285 38.3273 77.7189 37.8297 76.3559 37.2397C74.9989 36.6388 73.6761 35.9293 72.5259 34.9905Z" fill="white"/>
<path d="M49.812 37.0453C51.0797 37.0568 52.3316 36.8648 53.5323 36.5228C54.7279 36.1684 55.893 35.7027 56.9521 35.0457C57.2288 34.9025 57.4721 34.705 57.734 34.5376L58.1206 34.2757C58.2464 34.1846 58.3613 34.0782 58.4842 33.9828L59.211 33.3941C59.4319 33.1737 59.6569 32.9576 59.8845 32.7423L60.2248 32.4181C60.3312 32.3032 60.4304 32.182 60.5338 32.0642L61.15 31.3509C61.5552 30.869 61.8993 30.3397 62.2986 29.8425C61.9892 30.3935 61.6794 30.9525 61.331 31.4861L60.7563 32.2519C60.6592 32.3787 60.566 32.5092 60.4655 32.6338L60.1409 32.9873C59.9252 33.2242 59.7073 33.4598 59.4848 33.6912L58.7576 34.3236C58.6351 34.4278 58.516 34.5359 58.3876 34.6325L57.9913 34.908C57.7226 35.0843 57.4725 35.2911 57.1877 35.442C56.0862 36.1112 54.869 36.5842 53.6179 36.8656C52.9919 37.0076 52.3549 37.0898 51.7183 37.1394C51.0801 37.1551 50.4388 37.1576 49.812 37.0453Z" fill="white"/>
</svg>
