<svg width="117" height="174" viewBox="0 0 117 174" fill="none" xmlns="http://www.w3.org/2000/svg">
<path d="M49.9481 3.7166C49.9481 3.7166 37.2697 -2.24744 26.5829 3.7166C15.8969 9.68151 13.9088 20.243 14.0324 32.669C14.156 45.0949 12.2925 49.6924 8.0684 55.4084C3.8443 61.1244 -2.61761 65.1004 1.35842 71.8104C5.33445 78.5204 7.32246 78.1478 7.32246 78.1478C7.32246 78.1478 5.33444 86.1008 19.6239 84.4853C33.9134 82.8698 55.6588 63.8583 58.6409 44.3499C61.6238 24.8405 65.3603 5.08315 49.9481 3.7166Z" fill="black"/>
<path d="M83.3086 66.815C83.1755 67.2411 83.0778 67.662 83.0251 68.0665C82.5635 71.5231 76.1163 94.0905 70.1263 94.5478C64.1407 95.0093 55.5058 77.7395 55.5058 77.7395L44.1067 80.0422L30.7196 56.6666L34.0923 47.3394C34.0923 47.3394 35.6231 47.7568 37.6197 46.6297C37.6197 46.6297 39.9621 48.4933 48.9436 45.041L49.6005 39.6898C49.6005 39.6717 49.6005 39.6544 49.6049 39.6362C49.6049 39.6362 53.319 40.5507 53.5498 44.0021C53.7806 47.4586 52.7425 48.6082 52.7425 48.6082C52.7425 48.6082 54.0779 49.9886 53.5809 52.2912C53.5809 52.2912 57.3477 53.4451 58.3867 56.3243C59.4204 59.1991 68.0553 78.6609 68.0553 78.6609L78.1899 62.5407C78.1882 62.6125 78.2193 65.5634 83.3086 66.815Z" fill="#1A6980"/>
<path d="M88.6638 56.0948C87.2393 59.853 84.2979 63.6113 83.3082 66.8154C78.2189 65.5638 78.1878 62.6138 78.1878 62.542C78.1878 62.542 79.3374 57.1286 79.5682 54.2538C79.799 51.3737 82.7939 45.0423 85.7846 45.1573C88.7796 45.2723 90.2749 51.8353 88.6638 56.0948Z" fill="#FDBC9A"/>
<path d="M81.2799 54.8737H70.9146C69.7944 54.8737 68.886 53.9653 68.886 52.8451V38.139C68.886 37.0188 69.7944 36.1104 70.9146 36.1104H81.2799C82.4001 36.1104 83.3086 37.0188 83.3086 38.139V52.8451C83.3077 53.9653 82.4001 54.8737 81.2799 54.8737Z" fill="#1E3D66"/>
<path d="M21.9064 134.004C21.9064 134.004 16.8897 131.163 15.3148 134.004C13.74 136.846 11.5082 141.817 8.4216 142.882C5.33499 143.947 1.77213 145.96 1.54135 147.262C1.54135 147.262 -0.240084 148.8 1.54135 149.748C3.32278 150.695 24.2859 146.788 28.3052 144.302C32.3244 141.817 21.9064 134.004 21.9064 134.004Z" fill="white"/>
<path d="M28.3056 112.737C38.6519 110.62 46.8486 107.687 51.0649 106.013C50.9733 105.992 50.8825 105.971 50.7909 105.951L50.1988 101.927L15.3153 106.543C15.3153 106.543 14.7266 109.129 14.438 112.992C16.33 113.858 20.2369 114.388 28.3056 112.737Z" fill="#FDBC9A"/>
<path d="M103.66 132.428C101.342 122.555 79.8096 112.408 51.0637 106.013C46.8474 107.687 38.6507 110.621 28.3044 112.737C20.2365 114.388 16.3288 113.858 14.4368 112.992C14.0469 118.204 14.2051 125.744 17.1007 132.429C22.1433 144.068 29.2457 152.946 63.5744 149.75C63.5744 149.75 82.9878 156.379 95.4172 147.146C95.4172 147.146 105.984 142.333 103.66 132.428Z" fill="#1A141C"/>
<path d="M49.7452 38.4929C49.6787 38.8386 49.6303 39.2207 49.6035 39.6373C49.5991 39.6555 49.5991 39.6727 49.5991 39.6909L48.9422 45.0421C39.9616 48.4943 37.6183 46.6308 37.6183 46.6308C36.0789 47.1987 34.8757 47.3361 34.0909 47.3404C33.3899 47.3447 33.0131 47.2428 33.0131 47.2428C27.0274 46.9368 21.5033 34.3483 21.2017 21.1479C21.0642 15.0378 23.2424 11.3945 25.6254 9.24316C25.6211 9.28292 25.3324 19.8661 36.6338 18.1305C36.6338 18.1305 41.1864 21.7339 46.8704 19.8695C46.8704 19.8695 50.881 28.2123 49.7452 38.4929Z" fill="#FDBC9A"/>
<path d="M80.6043 41.8168C78.8142 36.1856 68.8603 41.2412 68.8603 41.2412V38.5928C67.3632 38.9385 64.255 44.6951 63.4486 46.9977C63.2783 47.4852 62.5177 48.9451 61.4277 50.9401C62.7537 51.0213 64.778 52.0948 66.4237 57.0908C67.0841 54.3595 67.4782 52.6403 67.4782 52.6403C67.4782 52.6403 82.3944 47.4481 80.6043 41.8168Z" fill="#FDBC9A"/>
<path d="M61.4294 50.9387C57.3696 58.3678 48.7131 73.2476 48.7131 73.2476C48.7131 73.2476 40.6538 44.8087 32.3638 45.845C24.0738 46.8814 17.7943 65.1875 17.7943 65.1875C14.1147 76.9428 12.9254 101.311 12.7041 106.632C12.673 107.378 13.068 108.072 13.7206 108.433C16.0932 109.745 19.612 109.745 19.612 109.745C37.4332 112.596 51.1618 104.867 54.7912 102.55C55.3772 102.176 55.7221 101.522 55.6962 100.826L55.3919 92.7043C58.7785 87.7135 64.1651 66.4452 66.4263 57.0877C64.7797 52.0935 62.7554 51.0199 61.4294 50.9387Z" fill="#1A6980"/>
<path d="M95.3486 120.882V118.917C95.3702 118.786 95.2742 118.657 95.0694 118.578L64.1696 106.779C63.8541 106.659 63.4055 106.706 63.1661 106.886L49.4652 117.191C49.3606 117.269 49.3166 117.361 49.3243 117.448V119.429C49.3053 119.559 49.4013 119.687 49.6044 119.765L80.5042 131.564C80.8196 131.684 81.2691 131.637 81.5077 131.457L95.2086 121.152C95.3183 121.07 95.3615 120.974 95.3486 120.882Z" fill="white"/>
<path d="M80.5061 129.533L49.6063 117.734C49.2908 117.613 49.2286 117.37 49.4671 117.191L63.168 106.886C63.4066 106.706 63.856 106.659 64.1715 106.779L95.0713 118.578C95.3868 118.698 95.449 118.942 95.2104 119.121L81.5096 129.426C81.2702 129.605 80.8216 129.654 80.5061 129.533Z" fill="#F5D7A6"/>
<path d="M34.129 32.862C32.2568 32.9087 31.5671 31.8965 31.5506 30.0995C31.5394 28.8514 31.5472 27.6024 31.5437 26.3534C31.5377 23.8632 31.6016 21.3454 31.4288 18.8612C31.3907 18.3158 30.6146 18.3132 30.5791 18.8612C30.3293 22.7672 30.3155 26.904 30.5298 30.8118C30.6586 33.1637 31.8687 33.8612 34.1281 33.7281C34.6813 33.697 34.69 32.8482 34.129 32.862Z" fill="#DA8C67"/>
<path d="M39.5019 22.072C39.2313 22.1472 38.9867 22.2838 38.7741 22.4601C38.3722 22.5949 38.1328 22.9597 38.1137 23.3616C38.0869 23.4239 38.0627 23.4869 38.0411 23.5518C37.9374 23.7748 37.8709 24.0168 37.857 24.2683C37.8458 24.4818 37.9098 24.6746 38.0178 24.8405C38.0895 25.0644 38.2028 25.277 38.3696 25.4646C38.8476 26.0022 39.6782 26.099 40.3135 25.8311C41.0543 25.5182 41.4069 24.7722 41.3058 24.0012C41.6403 22.9147 40.7457 21.7254 39.5019 22.072Z" fill="black"/>
<path d="M26.5616 24.592C26.4882 24.4356 26.3888 24.2895 26.2608 24.1624C25.7535 23.6576 24.9012 23.5764 24.2892 23.929C23.6436 24.3016 23.2572 25.1227 23.4577 25.8548C23.4888 25.9681 23.5355 26.0752 23.5882 26.179C23.6142 26.2343 23.6462 26.2861 23.6773 26.338C23.6833 26.3484 23.6894 26.3579 23.6963 26.3683C23.8277 26.5757 24.0031 26.7503 24.2192 26.8713C24.4751 27.0347 24.769 27.1367 25.081 27.1453C25.8442 27.1678 26.5573 26.6474 26.7457 25.898C26.8642 25.4313 26.7864 24.9697 26.5616 24.592Z" fill="black"/>
<path d="M28.3517 18.4C25.9436 17.5304 22.7628 18.4873 21.6616 20.9455C21.3444 21.6525 22.2329 22.1686 22.6945 21.5488C23.9651 19.8435 25.9177 18.8987 28.0474 19.5029C28.7649 19.7069 29.0354 18.6472 28.3517 18.4Z" fill="black"/>
<path d="M39.2315 37.3512C37.8831 36.8931 36.7361 36.0175 36.3212 34.6043C36.1267 33.9413 35.1163 34.217 35.2848 34.8895C35.4629 35.6 35.8086 36.2682 36.2762 36.8248C35.0065 38.1274 32.8335 40.1456 31.4281 37.9718C31.1748 37.5802 30.562 37.9312 30.7997 38.3391C31.4186 39.404 32.614 39.8327 33.8085 39.6417C35.0981 39.4351 36.1621 38.5042 36.9911 37.5076C37.5926 37.9666 38.3101 38.2674 39.1001 38.321C39.6809 38.3608 39.7345 37.5223 39.2315 37.3512Z" fill="#DA8C67"/>
<path d="M49.9391 26.0728C49.1621 21.8305 47.659 17.7197 45.0728 14.2415C44.645 13.6659 43.6847 14.1801 44.0849 14.8189C45.2301 16.6487 46.1645 18.5667 46.9148 20.5556C39.9852 19.9082 31.3002 15.0531 32.7955 6.82795C32.9589 5.92902 31.5915 5.75874 31.5699 6.66199C31.461 11.2854 33.3116 15.226 36.3532 17.8511C33.6469 17.8917 30.9622 17.1639 28.7659 15.5363C25.9689 13.4636 23.5902 9.23085 26.6906 6.30242C27.0459 5.96705 26.5273 5.47783 26.1634 5.77517C23.0794 8.29649 24.184 12.4506 26.5532 15.0722C29.2353 18.0403 33.2424 19.3006 37.1242 18.4717C39.8271 20.4813 43.3199 21.5297 47.1577 21.2462C47.7947 23.051 48.2934 24.9085 48.6538 26.8144C49.5156 31.3721 49.1716 36.0103 49.8812 40.5516C49.9703 41.1186 50.7439 40.9016 50.8009 40.4271C51.3524 35.8184 50.7732 30.6279 49.9391 26.0728Z" fill="#352C38"/>
<path d="M49.1137 3.09459C42.2853 -0.0101643 34.5061 -0.717204 27.4988 2.27432C20.9263 5.08002 16.5215 10.6266 14.5845 17.4334C12.2689 25.5678 13.4963 34.0004 12.886 42.3095C12.5472 46.9329 11.567 51.3696 8.58329 55.0336C6.57453 57.5005 4.13446 59.581 2.27869 62.181C-1.58756 67.5979 -0.544278 75.1203 5.48805 78.4948C5.88738 78.7178 6.24523 78.1075 5.84676 77.8811C2.793 76.1472 0.738409 72.9223 0.519727 69.3966C0.304503 65.94 2.07815 63.0833 4.35659 60.6519C6.25298 58.6285 8.36981 56.8004 10.0043 54.5427C11.848 51.9945 12.7365 48.9702 13.1739 45.8862C15.1187 32.1438 10.8825 13.9889 24.6015 5.04717C31.882 0.301866 41.0052 0.518819 48.8406 3.74459C49.2088 3.89585 49.4802 3.26141 49.1137 3.09459Z" fill="black"/>
<path d="M61.2369 18.7184C60.5757 30.3794 59.6698 42.2323 55.4466 53.2329C55.2175 53.8302 56.1649 54.0756 56.3991 53.4957C60.8721 42.412 61.7555 30.535 62.3113 18.7192C62.3441 18.026 61.2758 18.0312 61.2369 18.7184Z" fill="black"/>
<path d="M78.0334 27.5365C77.1872 26.6816 76.7326 26.9219 76.647 25.112C76.6038 24.2061 76.9547 23.1196 77.1501 22.2449C77.507 20.6528 77.9841 19.1073 78.5572 17.58C78.7793 16.9888 77.8528 16.7563 77.6211 17.3216C76.615 19.7781 75.0082 23.4455 75.5899 26.1795C75.7991 27.1614 76.3134 27.3947 76.9348 28.0802C78.4267 29.7259 77.1561 31.4261 77.0308 33.3207C76.9538 34.4842 78.8831 34.5006 78.8511 33.3207C78.7932 31.216 79.7301 29.2514 78.0334 27.5365Z" fill="black"/>
<path d="M74.6575 25.9155C74.7603 25.415 74.0429 25.2102 73.889 25.7037C73.6462 26.4799 73.7248 27.1878 73.991 27.951C74.348 28.9762 75.2245 30.1543 74.7136 31.265C74.3281 32.1034 75.5374 32.6246 75.8857 31.7594C76.7881 29.5181 74.2236 28.0331 74.6575 25.9155Z" fill="black"/>
<path d="M49.5122 44.1295C46.423 46.2048 43.1143 47.1807 39.3811 46.8375C38.7234 46.777 38.7337 47.7935 39.3811 47.86C43.1687 48.2507 46.9814 47.3518 50.0723 45.0872C50.6367 44.674 50.1138 43.725 49.5122 44.1295Z" fill="#4F8FB0"/>
<path d="M53.7317 51.9059C53.6522 51.3899 52.7533 51.5057 52.8121 52.0304C53.1535 55.0513 51.6607 57.3756 49.3564 59.1544C49.0046 59.4258 49.1852 60.17 49.6969 59.9626C52.8164 58.6946 54.2201 55.0634 53.7317 51.9059Z" fill="#4F8FB0"/>
<path d="M51.3227 60.4036C50.8948 60.6353 50.4661 60.8661 50.0383 61.0977C49.4695 61.4046 49.9821 62.2879 50.5456 61.9655C50.9683 61.7244 51.3901 61.4832 51.8128 61.2421C52.3565 60.9309 51.8724 60.1072 51.3227 60.4036Z" fill="#4F8FB0"/>
<path d="M82.16 66.5102C80.6119 73.6852 79.0457 81.4021 75.8761 88.0654C74.3436 91.2869 71.3521 95.6363 67.2715 93.2663C64.1019 91.4252 61.7923 87.4604 59.8761 84.4092C60.2547 83.2743 60.6108 82.1325 60.9453 80.9881C63.2056 73.2582 64.5029 65.3139 65.8885 57.3947C65.9784 56.8796 65.1858 56.6635 65.1028 57.1786C64.05 63.7425 62.9316 70.3289 61.2504 76.7657C60.4189 79.9518 59.4551 83.1092 58.2874 86.1881C57.1732 89.126 55.8759 92.7831 53.6147 95.0788C50.7995 97.9381 46.4725 96.9354 43.6876 94.606C41.3028 92.6119 39.6303 89.8287 38.0598 87.1855C34.7165 81.5603 32.2574 75.4675 29.7533 69.4395C29.5113 68.856 28.551 69.0937 28.7844 69.7066C31.4138 76.6205 34.1175 83.6322 38.1246 89.8892C39.0659 91.3595 40.2457 92.9439 41.6157 94.3234C41.0271 97.0504 39.9199 99.5622 38.3321 101.869C38.0572 102.269 38.6977 102.626 38.976 102.245C40.614 100 41.6365 97.5154 42.124 94.8169C44.8458 97.3624 48.2514 98.9969 52.0122 97.4143C53.4729 96.7997 54.5326 95.6951 55.3909 94.4228C55.556 96.454 55.7427 98.633 55.41 100.591C54.9225 103.465 51.9568 104.114 49.5617 104.989C45.3143 106.542 40.9286 107.719 36.472 108.487C31.9479 109.266 27.3357 109.577 22.7504 109.334C21.4305 109.264 20.1141 109.141 18.8028 108.975C17.9635 98.1412 19.2074 87.329 20.4036 76.5687C21.5065 66.6468 22.8549 56.2399 28.6988 47.8721C29.1509 47.4858 29.6176 47.1098 30.1164 46.7528C40.9969 42.17 45.6574 66.1342 48.0379 72.5996C48.0595 72.6583 48.0897 72.7067 48.1226 72.75C45.7612 76.8271 43.6003 81.1817 44.5174 85.9633C44.6245 86.5217 45.4742 86.2849 45.3696 85.7282C44.1647 79.2827 49.0146 73.1536 52.0805 67.8949C55.295 62.3812 58.6011 56.9107 61.661 51.3097C61.9445 50.7902 61.1778 50.3416 60.8675 50.8464C57.0721 57.0256 53.5524 63.3812 49.9308 69.6634C49.5635 70.3004 49.1823 70.9443 48.7985 71.5943C47.6627 67.8015 46.3316 64.0442 45.0256 60.3093C44.252 58.0966 43.4654 55.7965 42.4472 53.633C46.5961 54.4231 51.4529 52.8966 53.3563 48.8445C54.9337 45.4865 53.8074 39.7515 49.4476 39.4611C48.6887 39.411 48.7242 40.5346 49.4476 40.6219C54.04 41.1803 53.3666 47.8203 51.0078 50.2819C48.7423 52.6468 45.1699 53.3971 42.047 52.8041C41.6261 51.9795 41.1671 51.1791 40.6529 50.4194C38.4168 47.1167 32.9013 43.3325 29.29 46.4261C29.2287 46.4606 29.1673 46.4961 29.1068 46.5324C29.01 46.5064 28.908 46.5229 28.8354 46.6162C28.7956 46.6672 28.7585 46.7182 28.7196 46.7692C24.0123 49.7573 21.4391 55.4871 19.7104 60.6041C17.0543 68.4645 15.2054 76.6309 13.9988 84.8354C13.9435 85.2131 14.5105 85.3859 14.5839 84.997C15.9367 77.7727 17.6697 70.6548 19.8098 63.6224C21.3587 58.5322 23.2205 53.7809 26.5414 49.9984C22.2222 57.3394 20.9395 66.0892 19.9386 74.4856C18.579 85.8933 17.2409 97.3953 18.1883 108.889C17.3888 108.779 16.5901 108.658 15.7957 108.511C14.6773 108.305 14.3376 108.392 13.7455 107.275C13.2684 106.376 13.226 105.984 13.1681 105.031C13.0869 103.712 13.0463 102.396 13.0376 101.076C13.0367 100.904 12.7982 100.915 12.7774 101.076C12.5518 102.826 12.4032 104.583 12.4637 106.35C12.4879 107.045 12.3842 108.004 12.908 108.577C14.01 109.783 16.9134 109.696 18.4104 109.891C24.1005 110.633 29.8752 110.455 35.5393 109.573C41.0781 108.711 46.5443 107.137 51.7122 104.966C53.2093 104.337 54.9095 103.64 55.6286 102.07C56.7151 99.6962 56.1395 96.0659 55.9459 93.5351C56.3149 92.9024 56.6494 92.2481 56.9675 91.605C57.9633 89.5971 58.8017 87.5114 59.5416 85.3911C61.3826 88.5244 63.6619 92.3258 66.733 94.1877C69.5784 95.9129 72.4394 94.5317 74.3488 92.153C76.7776 89.1286 77.9946 85.1958 79.1434 81.5525C80.6802 76.6793 81.962 71.743 83.0131 66.7436C83.1289 66.1904 82.2801 65.9527 82.16 66.5102Z" fill="#4F8FB0"/>
<path d="M78.3169 62.064C74.7091 66.6719 71.4972 71.6471 68.4538 76.6413C66.2955 80.1835 62.6306 85.2149 65.5841 89.2799C65.6576 89.3811 65.859 89.3257 65.8063 89.1866C63.8926 84.1413 68.1158 79.0901 70.6302 75.019C73.2605 70.7611 76.1414 66.69 78.9436 62.5472C79.1934 62.1772 78.5978 61.7062 78.3169 62.064Z" fill="#4F8FB0"/>
<path d="M41.6672 98.4312C41.2446 99.2359 40.8219 100.041 40.3992 100.845C40.1244 101.367 40.9135 101.832 41.1927 101.309C41.6205 100.507 42.0484 99.7053 42.4763 98.9031C42.7589 98.3716 41.9473 97.8979 41.6672 98.4312Z" fill="#4F8FB0"/>
<path d="M73.5898 52.3303C71.2146 53.2733 70.9423 46.6964 70.9604 45.6298C70.9708 45.0317 71.3805 38.0442 73.1879 39.116C73.8612 39.5154 74.4654 38.4755 73.7998 38.0684C70.2102 35.8695 69.7296 43.3566 69.6328 45.2331C69.5127 47.5634 69.9241 54.9251 73.926 53.5499C74.7014 53.2837 74.3383 52.0329 73.5898 52.3303Z" fill="#3779BF"/>
<path d="M49.4102 35.5687C45.7194 39.5957 42.459 45.1518 36.7621 46.5045C36.501 46.5667 36.5642 46.9591 36.8243 46.9643C39.5375 47.017 41.9422 44.9348 43.8576 43.2139C46.1714 41.136 48.3496 38.6682 50.0092 36.0311C50.2374 35.6681 49.704 35.248 49.4102 35.5687Z" fill="#DA8C67"/>
<path d="M30.0019 44.983C26.1927 41.8177 24.4355 36.3714 23.202 31.7333C21.8528 26.657 21.5148 21.3939 21.8675 16.1646C21.9038 15.6313 21.1172 15.6589 21.0524 16.1646C20.3401 21.7457 20.8164 27.377 22.3264 32.7965C23.6022 37.3758 25.5833 42.5282 29.4003 45.5829C29.8213 45.9199 30.4254 45.3348 30.0019 44.983Z" fill="#DA8C67"/>
<path d="M83.0267 59.633C83.1831 57.8896 85.07 56.2249 84.0846 54.3916C84.0267 54.2844 83.8953 54.2075 83.7726 54.2126C82.5573 54.2628 81.6921 55.5654 81.0214 56.4435C79.8078 58.0314 78.9339 59.7808 78.392 61.6997C78.2606 62.1673 78.9512 62.3445 79.1103 61.8976C79.6488 60.391 80.2996 58.9329 81.1821 57.5949C81.6022 56.9587 82.1165 55.9759 82.7803 55.5645C84.2428 54.6569 83.3543 56.6233 83.0906 57.2362C82.7674 57.9899 81.9557 59.1818 82.0327 60.0496C82.1519 61.4015 83.4554 62.0705 82.7397 63.667C82.5167 64.1648 83.2039 64.5987 83.4882 64.1043C83.8945 63.3964 84.0604 62.7196 83.8919 61.8968C83.7173 61.0488 82.9497 60.4879 83.0267 59.633Z" fill="#FF694D"/>
<path d="M69.8534 40.4547C68.5266 41.0787 67.3857 41.9699 66.4367 43.0866C66.2508 43.3044 66.5551 43.6199 66.7556 43.4056C67.7219 42.3683 68.8698 41.5636 70.1603 40.9785C70.5129 40.8185 70.2061 40.2887 69.8534 40.4547Z" fill="#FF694D"/>
<path d="M90.2849 118.495C87.2571 120.819 84.2129 123.117 81.0424 125.243C80.4711 125.626 81.0053 126.555 81.5844 126.172C84.8101 124.038 87.9417 121.783 90.8727 119.258C91.285 118.902 90.724 118.157 90.2849 118.495Z" fill="black"/>
<path d="M87.949 118.319C85.05 120.46 82.1457 122.598 79.1767 124.642C78.6123 125.031 79.1395 125.957 79.7195 125.569C82.7655 123.539 85.6879 121.37 88.4426 118.959C88.7848 118.659 88.3233 118.043 87.949 118.319Z" fill="black"/>
<path d="M95.6732 118.974C95.1114 118.124 94.3741 118.786 93.7422 119.22C91.7257 120.601 89.755 122.055 87.8205 123.548C85.4496 125.377 83.2144 127.497 80.6239 129.015C70.2344 125.093 59.9175 121.046 49.4043 117.454C49.0863 117.345 48.9523 117.845 49.266 117.955C59.6184 121.596 70.02 125.301 80.1217 129.602C80.1848 129.73 80.3335 129.818 80.4986 129.748C80.7423 129.821 80.9265 129.677 80.9749 129.492C83.7399 127.986 86.0841 125.768 88.5803 123.874C89.8622 122.902 91.1604 121.952 92.4751 121.025C92.954 120.687 93.8892 119.706 94.4605 119.653C94.9532 119.196 95.0413 119.433 94.7259 120.367C94.3775 120.883 93.9644 121.337 93.4864 121.73C93.0654 122.113 93.6947 122.742 94.1113 122.355C94.8088 121.705 96.433 120.125 95.6732 118.974Z" fill="black"/>
<path d="M47.5817 117.354C43.8607 116.232 39.8406 116.12 36.0054 116.916C36.0348 116.735 35.9354 116.528 35.6969 116.525C32.1565 116.475 28.7777 117.229 25.5857 118.76C25.1543 118.966 25.5312 119.614 25.9617 119.404C28.7604 118.032 31.7053 117.308 34.7936 117.203C30.3232 118.367 26.1803 120.776 23.1603 124.268C22.8137 124.669 23.3677 125.242 23.7489 124.856C29.9792 118.547 38.6979 115.998 47.3146 118.323C47.9413 118.492 48.2006 117.54 47.5817 117.354Z" fill="#426D9E"/>
<path d="M51.964 108.273C49.7348 110.056 48.1245 112.849 46.9784 115.416C46.8401 115.726 47.2896 116.002 47.4426 115.687C48.7382 113.024 50.5612 110.99 52.442 108.751C52.7255 108.414 52.3028 108.002 51.964 108.273Z" fill="#426D9E"/>
<path d="M95.7362 136.909C93.9522 132.825 90.1534 130.128 86.2526 128.266C85.785 128.043 85.3718 128.726 85.8411 128.969C92.4776 132.412 99.1712 140.14 93.9012 147.663C93.6713 147.99 94.1968 148.4 94.4596 148.093C97.0587 145.048 97.3094 140.51 95.7362 136.909Z" fill="#426D9E"/>
<path d="M82.3776 149.589C75.6676 146.188 67.6611 150.533 60.6356 149.822C60.3184 149.79 60.2398 150.34 60.5596 150.384C63.8424 150.836 67.0586 150.415 70.3147 149.945C74.4134 149.353 78.0212 149.202 82.0042 150.477C82.5219 150.642 82.8711 149.84 82.3776 149.589Z" fill="#426D9E"/>
<path d="M27.4045 145.711C22.0697 147.703 16.3616 148.862 10.7156 149.556C8.08798 149.879 5.01346 150.427 2.37286 150.128C1.60878 150.042 0.813579 149.831 0.615642 148.99C0.294102 147.619 1.80931 145.77 2.68663 144.884C4.09898 143.458 5.83893 142.689 7.69037 142.008C9.33178 141.405 10.8625 140.866 11.8531 139.31C12.5126 138.275 12.8419 137.059 13.3493 135.947C14.0434 134.426 14.8904 133.255 16.4558 132.605C16.7981 132.464 17.0116 133.02 16.703 133.191C14.8507 134.218 14.218 136.147 13.4297 137.978C15.4168 139.247 17.8664 139.544 20.0532 138.588C20.5174 138.384 20.7827 139.039 20.3203 139.221C17.907 140.172 15.3477 140 13.1349 138.63C12.6448 139.669 12.0484 140.638 11.0726 141.338C10.0604 142.064 8.83044 142.527 7.5875 142.982C7.04728 145.012 7.26597 147.216 8.47607 148.966C8.49336 148.992 8.49766 149.017 8.50717 149.042C10.4494 148.822 12.3881 148.554 14.3139 148.232C18.6996 147.499 22.9747 146.346 27.2714 145.225C27.5895 145.143 27.7027 145.599 27.4045 145.711ZM7.75864 149.123C6.77155 147.185 6.50187 145.152 7.22966 143.113C4.93307 143.954 2.66156 144.849 1.70991 147.395C0.9026 149.558 2.28298 149.503 3.67372 149.462C4.78096 149.43 5.89165 149.315 6.99283 149.205C7.24868 149.18 7.50366 149.151 7.75864 149.123Z" fill="#426D9E"/>
<path d="M110.36 150.683C109.223 150.816 108.165 151.228 107.221 151.871C107.079 151.968 106.989 152.125 106.951 152.293C106.917 152.317 106.881 152.339 106.849 152.363C106.607 152.541 106.496 152.901 106.749 153.134C107.404 153.737 108.238 153.646 109.026 153.347C109.788 153.059 111.174 152.585 111.53 151.777C111.908 150.915 111.042 150.602 110.36 150.683Z" fill="#426D9E"/>
<path d="M116.766 152.464C112.735 154.186 108.634 156.053 104.377 157.14C104.238 157.304 104.005 157.381 103.747 157.24C102.527 156.574 101.333 155.87 100.116 155.202C100.13 155.322 100.061 155.461 99.9045 155.475C95.6104 155.852 91.2065 156.258 87.1925 157.941C85.953 158.46 84.5061 159.116 83.4516 160.063C87.1544 159.812 90.8971 160.019 94.5248 160.724C96.0279 161.016 98.2458 161.496 98.4472 163.365C98.6253 165.012 96.9113 166.15 95.6865 166.873C92.0908 168.994 86.3117 169.685 82.9105 166.753C81.5439 165.575 80.6822 163.682 81.1783 161.874C81.25 161.614 81.3512 161.369 81.4713 161.136C77.6828 161.536 73.9065 162.431 70.3799 163.871C69.7152 164.142 67.8197 164.982 66.4558 166.005C67.9494 166.768 68.8517 167.953 67.9321 169.763C66.4765 172.629 63.2957 169.699 64.5507 167.12C64.6882 166.837 64.8584 166.574 65.0503 166.324C64.9777 166.296 64.9129 166.273 64.8654 166.258C63.8307 165.927 62.7045 165.784 61.6318 165.703C48.1185 164.683 34.2076 178.744 21.1075 170.583C20.8084 170.799 20.4237 170.891 20.0443 170.779C19.4678 170.608 19.0425 170.088 19.0123 169.485C19.0088 169.422 19.0131 169.36 19.0192 169.3C18.9483 169.019 19.0373 168.717 19.3053 168.56C19.345 168.537 19.3848 168.519 19.4254 168.506C19.5689 168.372 19.7409 168.264 19.9293 168.192C20.3996 168.013 20.9605 168.122 21.333 168.455C21.6918 168.775 21.8188 169.31 21.6312 169.736C21.6209 169.806 21.6062 169.874 21.5846 169.94C21.5777 169.961 21.5664 169.979 21.5586 170C31.694 176.048 42.419 168.742 52.9502 165.826C50.8343 163.594 47.4746 164.156 44.6732 164.51C41.9989 164.847 39.373 165.378 36.722 165.852C33.7711 166.379 30.3759 166.484 28.2366 164.313C28.1787 164.356 28.1182 164.393 28.0525 164.421C27.8148 164.521 27.6057 164.492 27.3801 164.4C27.0274 164.41 26.6696 164.25 26.4967 163.925C26.2927 163.542 26.3307 163.134 26.5192 162.82C26.6004 162.65 26.7223 162.505 26.9073 162.396C26.9807 162.353 27.0602 162.321 27.1406 162.298C27.1605 162.283 27.1744 162.264 27.1951 162.25C27.438 162.098 27.7457 162.175 27.9307 162.372C28.2211 162.504 28.4493 162.765 28.5348 163.081C28.5884 163.28 28.5902 163.475 28.5634 163.672C32.3458 167.185 39.3228 164.332 43.8037 163.711C47.268 163.231 51.3866 162.444 53.7731 165.605C56.0126 165.035 58.2435 164.686 60.4563 164.728C61.599 164.75 63.8532 164.974 65.6536 165.654C66.7496 164.609 68.2527 163.886 69.538 163.335C72.1657 162.21 74.9385 161.381 77.7399 160.821C79.1929 160.53 80.6657 160.314 82.1472 160.169C82.9061 159.33 83.9442 158.699 84.9002 158.178C89.451 155.698 94.7314 155.335 99.8017 155.029C99.3081 154.762 98.8111 154.502 98.3046 154.257C97.9934 154.106 98.1499 153.639 98.4403 153.608C98.4602 153.573 98.487 153.54 98.5276 153.515C102.242 151.212 106.899 149.969 110.956 148.364C111.286 148.233 111.483 148.577 111.405 148.851C112.241 148.851 113.136 149.371 113.847 149.727C114.933 150.27 115.96 150.891 116.836 151.737C116.886 151.785 116.913 151.841 116.931 151.897C117.048 152.096 117.031 152.352 116.766 152.464ZM65.7375 166.62C65.097 167.254 64.7565 167.926 65.0737 168.557C64.9008 169.296 65.2751 169.383 66.1973 168.817C66.575 168.742 66.9536 168.667 67.3314 168.592C68.0877 167.933 66.7496 167.099 65.7375 166.62ZM82.6088 161.031C82.2518 161.571 82.0202 162.183 81.983 162.89C81.805 166.296 85.7334 167.659 88.5115 167.754C90.5894 167.825 92.7044 167.314 94.5377 166.339C94.957 166.116 95.3822 165.86 95.7703 165.581C96.7539 164.876 96.7496 164.946 96.594 163.61C96.4333 162.221 96.5534 162.356 95.2854 161.979C94.9457 161.878 94.5931 161.813 94.2464 161.739C90.4277 160.929 86.4958 160.723 82.6088 161.031ZM115.725 151.945C115.019 151.468 114.323 150.976 113.58 150.556C112.805 150.116 111.689 149.812 111.078 149.153C107.185 150.622 103.26 152.767 99.2433 153.856C101.002 154.483 102.756 155.262 104.272 156.342C104.365 156.408 104.425 156.488 104.462 156.571C108.169 154.926 112.015 153.597 115.725 151.945Z" fill="#426D9E"/>
</svg>
