<svg width="24" height="24" viewBox="0 0 24 24" fill="none" xmlns="http://www.w3.org/2000/svg">
<g clip-path="url(#clip0_981_1376)">
<path d="M12 7.3125C11.0729 7.3125 10.1666 7.58742 9.39577 8.10249C8.62491 8.61756 8.0241 9.34964 7.66932 10.2062C7.31453 11.0627 7.2217 12.0052 7.40257 12.9145C7.58344 13.8238 8.02988 14.659 8.68544 15.3146C9.341 15.9701 10.1762 16.4166 11.0855 16.5974C11.9948 16.7783 12.9373 16.6855 13.7938 16.3307C14.6504 15.9759 15.3824 15.3751 15.8975 14.6042C16.4126 13.8334 16.6875 12.9271 16.6875 12C16.6875 10.7568 16.1936 9.56451 15.3146 8.68544C14.4355 7.80636 13.2432 7.3125 12 7.3125ZM12 15.5625C11.2954 15.5625 10.6066 15.3536 10.0208 14.9621C9.43493 14.5707 8.97832 14.0143 8.70868 13.3633C8.43904 12.7123 8.36849 11.996 8.50595 11.305C8.64341 10.6139 8.98271 9.97916 9.48093 9.48093C9.97916 8.98271 10.6139 8.64341 11.305 8.50595C11.9961 8.36849 12.7124 8.43904 13.3633 8.70868C14.0143 8.97832 14.5707 9.43493 14.9621 10.0208C15.3536 10.6066 15.5625 11.2954 15.5625 12C15.5625 12.9448 15.1872 13.851 14.5191 14.5191C13.851 15.1872 12.9448 15.5625 12 15.5625Z" fill="black"/>
<path d="M22.6875 9H21.0131C20.9741 8.99971 20.9362 8.98727 20.9046 8.96442C20.873 8.94157 20.8493 8.90944 20.8369 8.8725C20.7279 8.56301 20.6027 8.25947 20.4619 7.96313C20.4443 7.92816 20.4381 7.88856 20.4441 7.8499C20.4502 7.81123 20.4682 7.77542 20.4956 7.7475L21.6788 6.5625C21.8006 6.44062 21.8973 6.29593 21.9633 6.13668C22.0293 5.97743 22.0632 5.80675 22.0632 5.63437C22.0632 5.462 22.0293 5.29132 21.9633 5.13207C21.8973 4.97282 21.8006 4.82813 21.6788 4.70625L19.2919 2.32125C19.17 2.19936 19.0253 2.10267 18.8661 2.0367C18.7068 1.97073 18.5361 1.93678 18.3638 1.93678C18.1914 1.93678 18.0207 1.97073 17.8614 2.0367C17.7022 2.10267 17.5575 2.19936 17.4356 2.32125L16.2525 3.50437C16.2246 3.5318 16.1888 3.5498 16.1501 3.55586C16.1114 3.56191 16.0718 3.55571 16.0369 3.53813C15.7406 3.39722 15.437 3.27205 15.1275 3.16313C15.0906 3.15065 15.0584 3.12697 15.0356 3.09538C15.0127 3.06379 15.0003 3.02586 15 2.98688V1.3125C15 0.964403 14.8617 0.630564 14.6156 0.384422C14.3694 0.138281 14.0356 0 13.6875 0H10.3125C9.9644 0 9.63056 0.138281 9.38442 0.384422C9.13828 0.630564 9 0.964403 9 1.3125V2.98688C8.99971 3.02586 8.98727 3.06379 8.96442 3.09538C8.94157 3.12697 8.90944 3.15065 8.8725 3.16313C8.56301 3.27209 8.25947 3.39727 7.96313 3.53813C7.92816 3.55571 7.88856 3.56191 7.8499 3.55586C7.81123 3.5498 7.77542 3.5318 7.7475 3.50437L6.5625 2.32125C6.44062 2.19936 6.29593 2.10267 6.13668 2.0367C5.97743 1.97073 5.80675 1.93678 5.63437 1.93678C5.462 1.93678 5.29132 1.97073 5.13207 2.0367C4.97282 2.10267 4.82813 2.19936 4.70625 2.32125L2.32125 4.70813C2.19936 4.83 2.10267 4.9747 2.0367 5.13395C1.97073 5.2932 1.93678 5.46388 1.93678 5.63625C1.93678 5.80862 1.97073 5.9793 2.0367 6.13855C2.10267 6.2978 2.19936 6.4425 2.32125 6.56437L3.50437 7.7475C3.5318 7.77542 3.5498 7.81123 3.55586 7.8499C3.56191 7.88856 3.55571 7.92816 3.53813 7.96313C3.39722 8.25945 3.27205 8.56299 3.16313 8.8725C3.15065 8.90944 3.12697 8.94157 3.09538 8.96442C3.06379 8.98727 3.02586 8.99971 2.98688 9H1.3125C0.964403 9 0.630564 9.13828 0.384422 9.38442C0.138281 9.63056 0 9.9644 0 10.3125L0 13.6875C0 14.0356 0.138281 14.3694 0.384422 14.6156C0.630564 14.8617 0.964403 15 1.3125 15H2.98688C3.02586 15.0003 3.06379 15.0127 3.09538 15.0356C3.12697 15.0584 3.15065 15.0906 3.16313 15.1275C3.27209 15.437 3.39727 15.7405 3.53813 16.0369C3.55571 16.0718 3.56191 16.1114 3.55586 16.1501C3.5498 16.1888 3.5318 16.2246 3.50437 16.2525L2.32125 17.4375C2.19936 17.5594 2.10267 17.7041 2.0367 17.8633C1.97073 18.0226 1.93678 18.1933 1.93678 18.3656C1.93678 18.538 1.97073 18.7087 2.0367 18.8679C2.10267 19.0272 2.19936 19.1719 2.32125 19.2938L4.70813 21.6806C4.83 21.8025 4.9747 21.8992 5.13395 21.9652C5.2932 22.0311 5.46388 22.0651 5.63625 22.0651C5.80862 22.0651 5.9793 22.0311 6.13855 21.9652C6.2978 21.8992 6.4425 21.8025 6.56437 21.6806L7.7475 20.4975C7.77542 20.4701 7.81123 20.4521 7.8499 20.446C7.88856 20.44 7.92816 20.4462 7.96313 20.4637C8.25945 20.6047 8.56299 20.7298 8.8725 20.8387C8.90944 20.8512 8.94157 20.8749 8.96442 20.9065C8.98727 20.9381 8.99971 20.976 9 21.015V22.6875C9 23.0356 9.13828 23.3694 9.38442 23.6156C9.63056 23.8617 9.9644 24 10.3125 24H13.6875C14.0356 24 14.3694 23.8617 14.6156 23.6156C14.8617 23.3694 15 23.0356 15 22.6875V21.0131C15.0003 20.9741 15.0127 20.9362 15.0356 20.9046C15.0584 20.873 15.0906 20.8493 15.1275 20.8369C15.437 20.7279 15.7405 20.6027 16.0369 20.4619C16.0718 20.4443 16.1114 20.4381 16.1501 20.4441C16.1888 20.4502 16.2246 20.4682 16.2525 20.4956L17.4375 21.6788C17.5594 21.8006 17.7041 21.8973 17.8633 21.9633C18.0226 22.0293 18.1933 22.0632 18.3656 22.0632C18.538 22.0632 18.7087 22.0293 18.8679 21.9633C19.0272 21.8973 19.1719 21.8006 19.2938 21.6788L21.6806 19.2919C21.8025 19.17 21.8992 19.0253 21.9652 18.8661C22.0311 18.7068 22.0651 18.5361 22.0651 18.3638C22.0651 18.1914 22.0311 18.0207 21.9652 17.8614C21.8992 17.7022 21.8025 17.5575 21.6806 17.4356L20.4975 16.2525C20.4701 16.2246 20.4521 16.1888 20.446 16.1501C20.44 16.1114 20.4462 16.0718 20.4637 16.0369C20.6047 15.7406 20.7298 15.437 20.8387 15.1275C20.8512 15.0906 20.8749 15.0584 20.9065 15.0356C20.9381 15.0127 20.976 15.0003 21.015 15H22.6875C23.0356 15 23.3694 14.8617 23.6156 14.6156C23.8617 14.3694 24 14.0356 24 13.6875V10.3125C24 9.9644 23.8617 9.63056 23.6156 9.38442C23.3694 9.13828 23.0356 9 22.6875 9ZM22.875 13.6875C22.875 13.7372 22.8552 13.7849 22.8201 13.8201C22.7849 13.8552 22.7372 13.875 22.6875 13.875H21.0131C20.7412 13.8753 20.476 13.9601 20.2543 14.1176C20.0326 14.2751 19.8654 14.4977 19.7756 14.7544C19.6797 15.0262 19.5695 15.2928 19.4456 15.5531C19.3268 15.7985 19.2874 16.0747 19.3327 16.3435C19.3781 16.6123 19.506 16.8603 19.6987 17.0531L20.8819 18.2362C20.9168 18.2714 20.9364 18.3189 20.9364 18.3684C20.9364 18.418 20.9168 18.4655 20.8819 18.5006L18.4969 20.8837C18.4617 20.9187 18.4142 20.9383 18.3647 20.9383C18.3152 20.9383 18.2676 20.9187 18.2325 20.8837L17.0494 19.7006C16.8566 19.5079 16.6086 19.38 16.3398 19.3346C16.071 19.2892 15.7947 19.3287 15.5494 19.4475C15.2885 19.5715 15.0212 19.6816 14.7488 19.7775C14.4924 19.8676 14.2703 20.035 14.1131 20.2566C13.9559 20.4783 13.8714 20.7433 13.8713 21.015V22.6875C13.8713 22.7372 13.8515 22.7849 13.8163 22.8201C13.7812 22.8552 13.7335 22.875 13.6838 22.875H10.3125C10.2628 22.875 10.2151 22.8552 10.1799 22.8201C10.1448 22.7849 10.125 22.7372 10.125 22.6875V21.0131C10.1247 20.7412 10.0399 20.476 9.88238 20.2543C9.72485 20.0326 9.50235 19.8654 9.24563 19.7756C8.97378 19.6797 8.70716 19.5695 8.44687 19.4456C8.20152 19.3268 7.92527 19.2874 7.65646 19.3327C7.38766 19.3781 7.13965 19.506 6.94687 19.6987L5.76375 20.8819C5.72862 20.9168 5.6811 20.9364 5.63156 20.9364C5.58203 20.9364 5.53451 20.9168 5.49937 20.8819L3.11625 18.4969C3.08133 18.4617 3.06173 18.4142 3.06173 18.3647C3.06173 18.3152 3.08133 18.2676 3.11625 18.2325L4.29938 17.0494C4.49212 16.8566 4.62005 16.6086 4.66541 16.3398C4.71077 16.071 4.67131 15.7947 4.5525 15.5494C4.42852 15.2885 4.31837 15.0212 4.2225 14.7488C4.13192 14.4934 3.96453 14.2723 3.7433 14.1159C3.52206 13.9594 3.25783 13.8753 2.98688 13.875H1.3125C1.26277 13.875 1.21508 13.8552 1.17992 13.8201C1.14475 13.7849 1.125 13.7372 1.125 13.6875V10.3125C1.125 10.2628 1.14475 10.2151 1.17992 10.1799C1.21508 10.1448 1.26277 10.125 1.3125 10.125H2.98688C3.25883 10.1247 3.52398 10.0399 3.74567 9.88238C3.96735 9.72485 4.13463 9.50235 4.22438 9.24563C4.32031 8.97378 4.43046 8.70716 4.55438 8.44687C4.67318 8.20152 4.71264 7.92527 4.66728 7.65646C4.62192 7.38766 4.49399 7.13965 4.30125 6.94687L3.11812 5.76375C3.0832 5.72862 3.0636 5.6811 3.0636 5.63156C3.0636 5.58203 3.0832 5.53451 3.11812 5.49937L5.50313 3.11625C5.53826 3.08133 5.58578 3.06173 5.63531 3.06173C5.68485 3.06173 5.73237 3.08133 5.7675 3.11625L6.95062 4.29938C7.1434 4.49212 7.39141 4.62005 7.66021 4.66541C7.92902 4.71077 8.20527 4.67131 8.45062 4.5525C8.71152 4.42852 8.97877 4.31837 9.25125 4.2225C9.50662 4.13192 9.7277 3.96453 9.88414 3.7433C10.0406 3.52206 10.1247 3.25783 10.125 2.98688V1.3125C10.125 1.26277 10.1448 1.21508 10.1799 1.17992C10.2151 1.14475 10.2628 1.125 10.3125 1.125H13.6875C13.7372 1.125 13.7849 1.14475 13.8201 1.17992C13.8552 1.21508 13.875 1.26277 13.875 1.3125V2.98688C13.8753 3.25883 13.9601 3.52398 14.1176 3.74567C14.2751 3.96735 14.4977 4.13463 14.7544 4.22438C15.0262 4.32031 15.2928 4.43046 15.5531 4.55438C15.7985 4.67318 16.0747 4.71264 16.3435 4.66728C16.6123 4.62192 16.8603 4.49399 17.0531 4.30125L18.2362 3.11812C18.2714 3.0832 18.3189 3.0636 18.3684 3.0636C18.418 3.0636 18.4655 3.0832 18.5006 3.11812L20.8875 5.505C20.9224 5.54013 20.942 5.58765 20.942 5.63719C20.942 5.68672 20.9224 5.73424 20.8875 5.76937L19.7044 6.9525C19.5116 7.14528 19.3837 7.39329 19.3383 7.66209C19.293 7.93089 19.3324 8.20715 19.4513 8.4525C19.5752 8.7134 19.6854 8.98064 19.7812 9.25312C19.8713 9.5095 20.0387 9.7316 20.2604 9.88877C20.482 10.046 20.747 10.1305 21.0187 10.1306H22.6875C22.7372 10.1306 22.7849 10.1504 22.8201 10.1855C22.8552 10.2207 22.875 10.2684 22.875 10.3181V13.6875Z" fill="black"/>
</g>
<defs>
<clipPath id="clip0_981_1376">
<rect width="24" height="24" fill="white"/>
</clipPath>
</defs>
</svg>
