<svg width="137" height="131" viewBox="0 0 137 131" fill="none" xmlns="http://www.w3.org/2000/svg">
<path d="M13.8538 0V107.949H125.847V0H13.8538ZM123.404 105.503H16.2965V2.44589H123.404V105.503Z" fill="#DBDBDB"/>
<path d="M123.404 2.4458H16.2964V105.503H123.404V2.4458Z" fill="#37474F"/>
<path d="M74.2639 34.1626L74.5381 34.7194L75.1515 34.8083L74.7077 35.2418L74.8124 35.8533L74.2639 35.5648L73.7151 35.8533L73.8201 35.2418L73.3762 34.8083L73.9896 34.7194L74.2639 34.1626Z" fill="white"/>
<path d="M46.7949 31.3569L47.0695 31.9134L47.6829 32.0026L47.2387 32.4361L47.3437 33.0477L46.7949 32.7588L46.2464 33.0477L46.3511 32.4361L45.9072 32.0026L46.5206 31.9134L46.7949 31.3569Z" fill="white"/>
<path d="M97.5608 36.8237L97.835 37.3802L98.4484 37.4694L98.0046 37.9029L98.1093 38.5145L97.5608 38.2256L97.0119 38.5145L97.1169 37.9029L96.6731 37.4694L97.2862 37.3802L97.5608 36.8237Z" fill="white"/>
<path d="M116.585 15.918L116.86 16.4748L117.473 16.564L117.029 16.9971L117.134 17.609L116.585 17.3202L116.037 17.609L116.142 16.9971L115.698 16.564L116.311 16.4748L116.585 15.918Z" fill="white"/>
<path d="M40.4627 15.0869L40.7369 15.6437L41.3504 15.733L40.9065 16.1661L41.0112 16.778L40.4627 16.4891L39.9139 16.778L40.0185 16.1661L39.5747 15.733L40.1881 15.6437L40.4627 15.0869Z" fill="white"/>
<path d="M68.2253 18.7817L68.4996 19.3382L69.113 19.4275L68.6691 19.8606L68.7738 20.4725L68.2253 20.1836L67.6765 20.4725L67.7815 19.8606L67.3376 19.4275L67.9511 19.3382L68.2253 18.7817Z" fill="white"/>
<path d="M54.9032 57.7432L55.0728 58.0871L55.4521 58.1421L55.1778 58.4098L55.2424 58.7879L54.9032 58.6094L54.5644 58.7879L54.629 58.4098L54.3547 58.1421L54.734 58.0871L54.9032 57.7432Z" fill="white"/>
<path d="M34.1596 29.4326L34.3292 29.7765L34.7084 29.8316L34.4342 30.0992L34.4987 30.4773L34.1596 30.2989L33.8207 30.4773L33.8853 30.0992L33.6111 29.8316L33.9903 29.7765L34.1596 29.4326Z" fill="white"/>
<path d="M119.039 31.4443L119.208 31.7883L119.588 31.8433L119.313 32.1113L119.378 32.4894L119.039 32.3106L118.7 32.4894L118.764 32.1113L118.49 31.8433L118.869 31.7883L119.039 31.4443Z" fill="white"/>
<path d="M27.2834 9.69678L27.4529 10.0407L27.8322 10.0957L27.5576 10.3634L27.6225 10.7415L27.2834 10.563L26.9442 10.7415L27.0091 10.3634L26.7349 10.0957L27.1138 10.0407L27.2834 9.69678Z" fill="white"/>
<path d="M92.1798 24.1172L92.3494 24.4611L92.7287 24.5165L92.4544 24.7841L92.519 25.1622L92.1798 24.9838L91.841 25.1622L91.9056 24.7841L91.6313 24.5165L92.0103 24.4611L92.1798 24.1172Z" fill="white"/>
<path d="M83.9118 27.8667L84.0814 28.211L84.4606 28.266L84.1864 28.5336L84.2509 28.9117L83.9118 28.7333L83.5726 28.9117L83.6375 28.5336L83.3633 28.266L83.7422 28.211L83.9118 27.8667Z" fill="white"/>
<path d="M79.8715 47.4438L80.0411 47.7878L80.4203 47.8428L80.1461 48.1108L80.2107 48.4889L79.8715 48.3101L79.5323 48.4889L79.5972 48.1108L79.323 47.8428L79.7019 47.7878L79.8715 47.4438Z" fill="white"/>
<path d="M19.5197 32.5254L19.6893 32.8693L20.0685 32.9244L19.7939 33.1923L19.8589 33.5704L19.5197 33.3916L19.1805 33.5704L19.2454 33.1923L18.9712 32.9244L19.3501 32.8693L19.5197 32.5254Z" fill="white"/>
<path d="M23.4778 23.0723L23.6474 23.4162L24.0263 23.4716L23.752 23.7392L23.8169 24.1173L23.4778 23.9389L23.1386 24.1173L23.2032 23.7392L22.929 23.4716L23.3082 23.4162L23.4778 23.0723Z" fill="white"/>
<path d="M112.922 44.8032L113.092 45.1471L113.471 45.2022L113.197 45.4702L113.262 45.8482L112.922 45.6698L112.583 45.8482L112.648 45.4702L112.374 45.2022L112.753 45.1471L112.922 44.8032Z" fill="white"/>
<path d="M79.8715 7.63965L80.0411 7.98357L80.4203 8.03895L80.1461 8.30659L80.2107 8.68466L79.8715 8.50624L79.5323 8.68466L79.5972 8.30659L79.323 8.03895L79.7019 7.98357L79.8715 7.63965Z" fill="white"/>
<path d="M58.5954 37.6689L58.765 38.0132L59.1442 38.0682L58.87 38.3359L58.9345 38.714L58.5954 38.5355L58.2562 38.714L58.3211 38.3359L58.0469 38.0682L58.4258 38.0132L58.5954 37.6689Z" fill="white"/>
<path d="M48.9897 9.17432L49.1592 9.51823L49.5382 9.57362L49.2639 9.84125L49.3288 10.2193L48.9897 10.0409L48.6505 10.2193L48.7154 9.84125L48.4412 9.57362L48.8201 9.51823L48.9897 9.17432Z" fill="white"/>
<path d="M63.4787 49.3447L63.6483 49.6886L64.0275 49.7437L63.7533 50.0113L63.8178 50.3894L63.4787 50.211L63.1395 50.3894L63.2044 50.0113L62.9302 49.7437L63.3091 49.6886L63.4787 49.3447Z" fill="white"/>
<path d="M91.6315 43.9932L91.8011 44.3374L92.18 44.3925L91.9058 44.6601L91.9707 45.0382L91.6315 44.8598L91.2923 45.0382L91.3573 44.6601L91.083 44.3925L91.4619 44.3374L91.6315 43.9932Z" fill="white"/>
<path d="M58.0469 13.2817L58.2165 13.6257L58.5954 13.6807L58.3211 13.9487L58.386 14.3264L58.0469 14.148L57.7077 14.3264L57.7726 13.9487L57.498 13.6807L57.8773 13.6257L58.0469 13.2817Z" fill="white"/>
<path d="M54.3549 27.8667L54.5245 28.211L54.9034 28.266L54.6291 28.5336L54.6941 28.9117L54.3549 28.7333L54.0157 28.9117L54.0806 28.5336L53.8064 28.266L54.1853 28.211L54.3549 27.8667Z" fill="white"/>
<path d="M95.5271 23.2361C97.108 26.002 100.085 27.8665 103.497 27.8665C108.573 27.8665 112.684 23.7475 112.684 18.665C112.684 14.2849 109.63 10.6219 105.533 9.69629C108.486 11.0564 110.533 14.0448 110.533 17.5099C110.533 22.262 106.683 26.1131 101.937 26.1131C99.3871 26.1134 97.0977 25.0034 95.5271 23.2361Z" fill="white"/>
<path d="M51.5647 33.8633H39.3809V105.502H51.5647V33.8633Z" fill="#263238"/>
<path d="M51.5646 38.3369H39.3821V39.176H51.5646V38.3369Z" fill="#37474F"/>
<path d="M42.8798 41.6426H40.6375V46.3108H42.8798V41.6426Z" fill="#37474F"/>
<path d="M42.8798 47.5327H40.6375V52.201H42.8798V47.5327Z" fill="#37474F"/>
<path d="M42.8798 53.4233H40.6375V58.0916H42.8798V53.4233Z" fill="#37474F"/>
<path d="M42.8798 59.3101H40.6375V63.9783H42.8798V59.3101Z" fill="#37474F"/>
<path d="M42.8798 65.2002H40.6375V69.8684H42.8798V65.2002Z" fill="#37474F"/>
<path d="M42.8798 71.0903H40.6375V75.7586H42.8798V71.0903Z" fill="#37474F"/>
<path d="M42.8798 76.9775H40.6375V81.6458H42.8798V76.9775Z" fill="#37474F"/>
<path d="M42.8798 82.8677H40.6375V87.5359H42.8798V82.8677Z" fill="#37474F"/>
<path d="M42.8798 88.7578H40.6375V93.4261H42.8798V88.7578Z" fill="#37474F"/>
<path d="M42.8798 94.645H40.6375V99.3133H42.8798V94.645Z" fill="#37474F"/>
<path d="M42.8798 100.535H40.6375V105.203H42.8798V100.535Z" fill="#37474F"/>
<path d="M42.8798 41.6426H40.6375V46.3108H42.8798V41.6426Z" fill="#37474F"/>
<path d="M42.8798 47.5327H40.6375V52.201H42.8798V47.5327Z" fill="#37474F"/>
<path d="M42.8798 53.4233H40.6375V58.0916H42.8798V53.4233Z" fill="#37474F"/>
<path d="M42.8798 59.3101H40.6375V63.9783H42.8798V59.3101Z" fill="#37474F"/>
<path d="M42.8798 65.2002H40.6375V69.8684H42.8798V65.2002Z" fill="#37474F"/>
<path d="M42.8798 71.0903H40.6375V75.7586H42.8798V71.0903Z" fill="#37474F"/>
<path d="M42.8798 76.9775H40.6375V81.6458H42.8798V76.9775Z" fill="#37474F"/>
<path d="M42.8798 82.8677H40.6375V87.5359H42.8798V82.8677Z" fill="#37474F"/>
<path d="M42.8798 88.7578H40.6375V93.4261H42.8798V88.7578Z" fill="#37474F"/>
<path d="M42.8798 94.645H40.6375V99.3133H42.8798V94.645Z" fill="#37474F"/>
<path d="M42.8798 100.535H40.6375V105.203H42.8798V100.535Z" fill="#37474F"/>
<path d="M46.5944 41.6426H44.3521V46.3108H46.5944V41.6426Z" fill="#37474F"/>
<path d="M46.5944 47.5327H44.3521V52.201H46.5944V47.5327Z" fill="#37474F"/>
<path d="M46.5944 53.4233H44.3521V58.0916H46.5944V53.4233Z" fill="#37474F"/>
<path d="M46.5944 59.3101H44.3521V63.9783H46.5944V59.3101Z" fill="#37474F"/>
<path d="M46.5944 65.2002H44.3521V69.8684H46.5944V65.2002Z" fill="#37474F"/>
<path d="M46.5944 71.0903H44.3521V75.7586H46.5944V71.0903Z" fill="#37474F"/>
<path d="M46.5944 76.9775H44.3521V81.6458H46.5944V76.9775Z" fill="#37474F"/>
<path d="M46.5944 82.8677H44.3521V87.5359H46.5944V82.8677Z" fill="#37474F"/>
<path d="M46.5944 88.7578H44.3521V93.4261H46.5944V88.7578Z" fill="#37474F"/>
<path d="M46.5944 94.645H44.3521V99.3133H46.5944V94.645Z" fill="#37474F"/>
<path d="M46.5944 100.535H44.3521V105.203H46.5944V100.535Z" fill="#37474F"/>
<path d="M46.5944 41.6426H44.3521V46.3108H46.5944V41.6426Z" fill="#37474F"/>
<path d="M46.5944 47.5327H44.3521V52.201H46.5944V47.5327Z" fill="#37474F"/>
<path d="M46.5944 53.4233H44.3521V58.0916H46.5944V53.4233Z" fill="#1A6980"/>
<path d="M46.5944 59.3101H44.3521V63.9783H46.5944V59.3101Z" fill="#37474F"/>
<path d="M46.5944 65.2002H44.3521V69.8684H46.5944V65.2002Z" fill="#37474F"/>
<path d="M46.5944 71.0903H44.3521V75.7586H46.5944V71.0903Z" fill="#37474F"/>
<path d="M46.5944 76.9775H44.3521V81.6458H46.5944V76.9775Z" fill="#37474F"/>
<path d="M46.5944 82.8677H44.3521V87.5359H46.5944V82.8677Z" fill="#1A6980"/>
<path d="M46.5944 88.7578H44.3521V93.4261H46.5944V88.7578Z" fill="#37474F"/>
<path d="M46.5944 94.645H44.3521V99.3133H46.5944V94.645Z" fill="#37474F"/>
<path d="M46.5944 100.535H44.3521V105.203H46.5944V100.535Z" fill="#37474F"/>
<path d="M50.309 41.6426H48.0667V46.3108H50.309V41.6426Z" fill="#37474F"/>
<path d="M50.309 47.5327H48.0667V52.201H50.309V47.5327Z" fill="#37474F"/>
<path d="M50.309 53.4233H48.0667V58.0916H50.309V53.4233Z" fill="#37474F"/>
<path d="M50.309 59.3101H48.0667V63.9783H50.309V59.3101Z" fill="#37474F"/>
<path d="M50.309 65.2002H48.0667V69.8684H50.309V65.2002Z" fill="#37474F"/>
<path d="M50.309 71.0903H48.0667V75.7586H50.309V71.0903Z" fill="#37474F"/>
<path d="M50.309 76.9775H48.0667V81.6458H50.309V76.9775Z" fill="#37474F"/>
<path d="M50.309 82.8677H48.0667V87.5359H50.309V82.8677Z" fill="#37474F"/>
<path d="M50.309 88.7578H48.0667V93.4261H50.309V88.7578Z" fill="#37474F"/>
<path d="M50.309 94.645H48.0667V99.3133H50.309V94.645Z" fill="#37474F"/>
<path d="M50.309 100.535H48.0667V105.203H50.309V100.535Z" fill="#37474F"/>
<path d="M50.309 41.6426H48.0667V46.3108H50.309V41.6426Z" fill="#1A6980"/>
<path d="M50.309 47.5327H48.0667V52.201H50.309V47.5327Z" fill="#37474F"/>
<path d="M50.309 53.4233H48.0667V58.0916H50.309V53.4233Z" fill="#37474F"/>
<path d="M50.309 59.3101H48.0667V63.9783H50.309V59.3101Z" fill="#37474F"/>
<path d="M50.309 65.2002H48.0667V69.8684H50.309V65.2002Z" fill="#37474F"/>
<path d="M50.309 71.0903H48.0667V75.7586H50.309V71.0903Z" fill="#37474F"/>
<path d="M50.309 76.9775H48.0667V81.6458H50.309V76.9775Z" fill="#37474F"/>
<path d="M50.309 82.8677H48.0667V87.5359H50.309V82.8677Z" fill="#37474F"/>
<path d="M50.309 88.7578H48.0667V93.4261H50.309V88.7578Z" fill="#37474F"/>
<path d="M50.309 94.645H48.0667V99.3133H50.309V94.645Z" fill="#37474F"/>
<path d="M50.309 100.535H48.0667V105.203H50.309V100.535Z" fill="#37474F"/>
<path d="M39.381 33.8633H18.5557V105.502H39.381V33.8633Z" fill="#263238"/>
<path d="M39.3823 38.3369H18.5557V39.176H39.3823V38.3369Z" fill="#37474F"/>
<path d="M24.4276 41.6426H20.7869V46.3108H24.4276V41.6426Z" fill="#37474F"/>
<path d="M24.4276 47.5327H20.7869V52.201H24.4276V47.5327Z" fill="#37474F"/>
<path d="M24.4276 53.4233H20.7869V58.0916H24.4276V53.4233Z" fill="#37474F"/>
<path d="M24.4276 59.3101H20.7869V63.9783H24.4276V59.3101Z" fill="#37474F"/>
<path d="M24.4276 65.2002H20.7869V69.8684H24.4276V65.2002Z" fill="#37474F"/>
<path d="M24.4276 71.0903H20.7869V75.7586H24.4276V71.0903Z" fill="#37474F"/>
<path d="M24.4276 76.9775H20.7869V81.6458H24.4276V76.9775Z" fill="#37474F"/>
<path d="M24.4276 82.8677H20.7869V87.5359H24.4276V82.8677Z" fill="#37474F"/>
<path d="M24.4276 88.7578H20.7869V93.4261H24.4276V88.7578Z" fill="#37474F"/>
<path d="M24.4276 94.645H20.7869V99.3133H24.4276V94.645Z" fill="#37474F"/>
<path d="M24.4276 100.535H20.7869V105.203H24.4276V100.535Z" fill="#37474F"/>
<path d="M24.4276 41.6426H20.7869V46.3108H24.4276V41.6426Z" fill="#37474F"/>
<path d="M24.4276 47.5327H20.7869V52.201H24.4276V47.5327Z" fill="#37474F"/>
<path d="M24.4276 53.4233H20.7869V58.0916H24.4276V53.4233Z" fill="#37474F"/>
<path d="M24.4276 59.3101H20.7869V63.9783H24.4276V59.3101Z" fill="#37474F"/>
<path d="M24.4276 65.2002H20.7869V69.8684H24.4276V65.2002Z" fill="#37474F"/>
<path d="M24.4276 71.0903H20.7869V75.7586H24.4276V71.0903Z" fill="#37474F"/>
<path d="M24.4276 76.9775H20.7869V81.6458H24.4276V76.9775Z" fill="#37474F"/>
<path d="M24.4276 82.8677H20.7869V87.5359H24.4276V82.8677Z" fill="#37474F"/>
<path d="M24.4276 88.7578H20.7869V93.4261H24.4276V88.7578Z" fill="#37474F"/>
<path d="M24.4276 94.645H20.7869V99.3133H24.4276V94.645Z" fill="#1A6980"/>
<path d="M24.4276 100.535H20.7869V105.203H24.4276V100.535Z" fill="#37474F"/>
<path d="M30.4589 41.6426H26.8181V46.3108H30.4589V41.6426Z" fill="#37474F"/>
<path d="M30.4589 47.5327H26.8181V52.201H30.4589V47.5327Z" fill="#37474F"/>
<path d="M30.4589 53.4233H26.8181V58.0916H30.4589V53.4233Z" fill="#37474F"/>
<path d="M30.4589 59.3101H26.8181V63.9783H30.4589V59.3101Z" fill="#37474F"/>
<path d="M30.4589 65.2002H26.8181V69.8684H30.4589V65.2002Z" fill="#37474F"/>
<path d="M30.4589 71.0903H26.8181V75.7586H30.4589V71.0903Z" fill="#37474F"/>
<path d="M30.4589 76.9775H26.8181V81.6458H30.4589V76.9775Z" fill="#37474F"/>
<path d="M30.4589 82.8677H26.8181V87.5359H30.4589V82.8677Z" fill="#37474F"/>
<path d="M30.4589 88.7578H26.8181V93.4261H30.4589V88.7578Z" fill="#37474F"/>
<path d="M30.4589 94.645H26.8181V99.3133H30.4589V94.645Z" fill="#37474F"/>
<path d="M30.4589 100.535H26.8181V105.203H30.4589V100.535Z" fill="#37474F"/>
<path d="M30.4589 41.6426H26.8181V46.3108H30.4589V41.6426Z" fill="#37474F"/>
<path d="M30.4589 47.5327H26.8181V52.201H30.4589V47.5327Z" fill="#1A6980"/>
<path d="M30.4589 53.4233H26.8181V58.0916H30.4589V53.4233Z" fill="#37474F"/>
<path d="M30.4589 59.3101H26.8181V63.9783H30.4589V59.3101Z" fill="#37474F"/>
<path d="M30.4589 65.2002H26.8181V69.8684H30.4589V65.2002Z" fill="#37474F"/>
<path d="M30.4589 71.0903H26.8181V75.7586H30.4589V71.0903Z" fill="#37474F"/>
<path d="M30.4589 76.9775H26.8181V81.6458H30.4589V76.9775Z" fill="#37474F"/>
<path d="M30.4589 82.8677H26.8181V87.5359H30.4589V82.8677Z" fill="#1A6980"/>
<path d="M30.4589 88.7578H26.8181V93.4261H30.4589V88.7578Z" fill="#37474F"/>
<path d="M30.4589 94.645H26.8181V99.3133H30.4589V94.645Z" fill="#37474F"/>
<path d="M30.4589 100.535H26.8181V105.203H30.4589V100.535Z" fill="#37474F"/>
<path d="M36.4899 41.6426H32.8491V46.3108H36.4899V41.6426Z" fill="#37474F"/>
<path d="M36.4899 47.5327H32.8491V52.201H36.4899V47.5327Z" fill="#37474F"/>
<path d="M36.4899 53.4233H32.8491V58.0916H36.4899V53.4233Z" fill="#37474F"/>
<path d="M36.4899 59.3101H32.8491V63.9783H36.4899V59.3101Z" fill="#37474F"/>
<path d="M36.4899 65.2002H32.8491V69.8684H36.4899V65.2002Z" fill="#37474F"/>
<path d="M36.4899 71.0903H32.8491V75.7586H36.4899V71.0903Z" fill="#37474F"/>
<path d="M36.4899 76.9775H32.8491V81.6458H36.4899V76.9775Z" fill="#37474F"/>
<path d="M36.4899 82.8677H32.8491V87.5359H36.4899V82.8677Z" fill="#37474F"/>
<path d="M36.4899 88.7578H32.8491V93.4261H36.4899V88.7578Z" fill="#37474F"/>
<path d="M36.4899 94.645H32.8491V99.3133H36.4899V94.645Z" fill="#37474F"/>
<path d="M36.4899 100.535H32.8491V105.203H36.4899V100.535Z" fill="#37474F"/>
<path d="M36.4899 41.6426H32.8491V46.3108H36.4899V41.6426Z" fill="#37474F"/>
<path d="M36.4899 47.5327H32.8491V52.201H36.4899V47.5327Z" fill="#37474F"/>
<path d="M36.4899 53.4233H32.8491V58.0916H36.4899V53.4233Z" fill="#37474F"/>
<path d="M36.4899 59.3101H32.8491V63.9783H36.4899V59.3101Z" fill="#37474F"/>
<path d="M36.4899 65.2002H32.8491V69.8684H36.4899V65.2002Z" fill="#1A6980"/>
<path d="M36.4899 71.0903H32.8491V75.7586H36.4899V71.0903Z" fill="#37474F"/>
<path d="M36.4899 76.9775H32.8491V81.6458H36.4899V76.9775Z" fill="#37474F"/>
<path d="M36.4899 82.8677H32.8491V87.5359H36.4899V82.8677Z" fill="#37474F"/>
<path d="M36.4899 88.7578H32.8491V93.4261H36.4899V88.7578Z" fill="#37474F"/>
<path d="M36.4899 94.645H32.8491V99.3133H36.4899V94.645Z" fill="#37474F"/>
<path d="M36.4899 100.535H32.8491V105.203H36.4899V100.535Z" fill="#37474F"/>
<path d="M39.381 105.502C39.1657 82.5545 39.1637 56.8105 39.381 33.8633C39.5982 56.8108 39.5963 82.5545 39.381 105.502Z" fill="#455A64"/>
<path d="M77.7508 58.604H57.0583V105.502H77.7508V58.604Z" fill="#263238"/>
<path d="M77.6747 52.2031H62.189V58.6036H77.6747V52.2031Z" fill="#263238"/>
<path d="M64.8024 53.1904H63.4785V57.6159H64.8024V53.1904Z" fill="#37474F"/>
<path d="M67.1193 53.1904H65.7954V57.6159H67.1193V53.1904Z" fill="#37474F"/>
<path d="M69.4357 53.1904H68.1118V57.6159H69.4357V53.1904Z" fill="#37474F"/>
<path d="M71.7523 53.1904H70.4285V57.6159H71.7523V53.1904Z" fill="#37474F"/>
<path d="M74.0688 53.1904H72.7449V57.6159H74.0688V53.1904Z" fill="#37474F"/>
<path d="M76.3856 53.1904H75.0618V57.6159H76.3856V53.1904Z" fill="#37474F"/>
<path d="M84.7165 52.2031H77.6748V58.6036H84.7165V52.2031Z" fill="#263238"/>
<path d="M79.7883 53.1904H78.6621V57.6159H79.7883V53.1904Z" fill="#37474F"/>
<path d="M81.759 53.1904H80.6328V57.6159H81.759V53.1904Z" fill="#37474F"/>
<path d="M83.7294 53.1904H82.6033V57.6159H83.7294V53.1904Z" fill="#37474F"/>
<path d="M88.2864 58.604H77.7507V105.502H88.2864V58.604Z" fill="#263238"/>
<path d="M65.6002 48.96H65.1262V52.2028H65.6002V48.96Z" fill="#455A64"/>
<path d="M74.7379 48.96H74.2639V52.2028H74.7379V48.96Z" fill="#455A64"/>
<path d="M76.8365 43.2891H63.0273V48.9599H76.8365V43.2891Z" fill="#455A64"/>
<path d="M65.1131 62.9858H61.2932V68.8427H65.1131V62.9858Z" fill="#1A6980"/>
<path d="M72.8888 62.9858H69.0688V68.8427H72.8888V62.9858Z" fill="#37474F"/>
<path d="M65.1131 72.2153H61.2932V78.0722H65.1131V72.2153Z" fill="#37474F"/>
<path d="M72.8888 72.2153H69.0688V78.0722H72.8888V72.2153Z" fill="#37474F"/>
<path d="M65.1131 81.4443H61.2932V87.3012H65.1131V81.4443Z" fill="#37474F"/>
<path d="M72.8888 81.4443H69.0688V87.3012H72.8888V81.4443Z" fill="#37474F"/>
<path d="M65.1131 90.6738H61.2932V96.5307H65.1131V90.6738Z" fill="#37474F"/>
<path d="M72.8888 90.6738H69.0688V96.5307H72.8888V90.6738Z" fill="#1A6980"/>
<path d="M65.1125 99.9038H61.2922V105.503H65.1125V99.9038Z" fill="#37474F"/>
<path d="M72.8889 99.9038H69.0686V105.503H72.8889V99.9038Z" fill="#37474F"/>
<path d="M81.8049 62.9858H79.6096V68.8427H81.8049V62.9858Z" fill="#37474F"/>
<path d="M86.2734 62.9858H84.0781V68.8427H86.2734V62.9858Z" fill="#37474F"/>
<path d="M81.8049 72.2153H79.6096V78.0722H81.8049V72.2153Z" fill="#37474F"/>
<path d="M86.2734 72.2153H84.0781V78.0722H86.2734V72.2153Z" fill="#1A6980"/>
<path d="M81.8049 81.4443H79.6096V87.3012H81.8049V81.4443Z" fill="#37474F"/>
<path d="M86.2734 81.4443H84.0781V87.3012H86.2734V81.4443Z" fill="#37474F"/>
<path d="M81.8049 90.6738H79.6096V96.5307H81.8049V90.6738Z" fill="#1A6980"/>
<path d="M86.2734 90.6738H84.0781V96.5307H86.2734V90.6738Z" fill="#37474F"/>
<path d="M81.8049 99.9038H79.6106V105.503H81.8049V99.9038Z" fill="#37474F"/>
<path d="M86.2724 99.9038H84.0781V105.503H86.2724V99.9038Z" fill="#37474F"/>
<path d="M77.7509 105.502C77.5309 90.4337 77.5362 73.6829 77.7509 58.604C77.9655 73.6859 77.9711 90.4307 77.7509 105.502Z" fill="#455A64"/>
<path d="M123.405 50.9155H109.765V105.502H123.405V50.9155Z" fill="#263238"/>
<path d="M112.922 55.7974H111.072V63.0601H112.922V55.7974Z" fill="#37474F"/>
<path d="M112.922 65.6919H111.072V72.9546H112.922V65.6919Z" fill="#37474F"/>
<path d="M112.922 75.5859H111.072V82.8486H112.922V75.5859Z" fill="#37474F"/>
<path d="M112.922 85.4805H111.072V92.7432H112.922V85.4805Z" fill="#37474F"/>
<path d="M112.922 95.3745H111.072V102.637H112.922V95.3745Z" fill="#37474F"/>
<path d="M112.923 105.269H111.073V105.502H112.923V105.269Z" fill="#37474F"/>
<path d="M115.98 55.7974H114.13V63.0601H115.98V55.7974Z" fill="#37474F"/>
<path d="M115.98 65.6919H114.13V72.9546H115.98V65.6919Z" fill="#37474F"/>
<path d="M115.98 75.5859H114.13V82.8486H115.98V75.5859Z" fill="#1A6980"/>
<path d="M115.98 85.4805H114.13V92.7432H115.98V85.4805Z" fill="#37474F"/>
<path d="M115.98 95.3745H114.13V102.637H115.98V95.3745Z" fill="#37474F"/>
<path d="M115.979 105.269H114.129V105.502H115.979V105.269Z" fill="#37474F"/>
<path d="M119.039 55.7974H117.188V63.0601H119.039V55.7974Z" fill="#37474F"/>
<path d="M119.039 65.6919H117.188V72.9546H119.039V65.6919Z" fill="#37474F"/>
<path d="M119.039 75.5859H117.188V82.8486H119.039V75.5859Z" fill="#37474F"/>
<path d="M119.039 85.4805H117.188V92.7432H119.039V85.4805Z" fill="#37474F"/>
<path d="M119.039 95.3745H117.188V102.637H119.039V95.3745Z" fill="#37474F"/>
<path d="M119.038 105.269H117.188V105.502H119.038V105.269Z" fill="#37474F"/>
<path d="M122.097 55.7974H120.247V63.0601H122.097V55.7974Z" fill="#37474F"/>
<path d="M122.097 65.6919H120.247V72.9546H122.097V65.6919Z" fill="#37474F"/>
<path d="M122.097 75.5859H120.247V82.8486H122.097V75.5859Z" fill="#37474F"/>
<path d="M122.097 85.4805H120.247V92.7432H122.097V85.4805Z" fill="#37474F"/>
<path d="M122.097 95.3745H120.247V102.637H122.097V95.3745Z" fill="#37474F"/>
<path d="M122.098 105.269H120.248V105.502H122.098V105.269Z" fill="#37474F"/>
<path d="M109.766 50.9155H81.8049V105.502H109.766V50.9155Z" fill="#263238"/>
<path d="M121.449 47.3843H83.144V50.917H121.449V47.3843Z" fill="#263238"/>
<path d="M88.2731 55.7974H84.478V63.0601H88.2731V55.7974Z" fill="#37474F"/>
<path d="M88.2731 65.6919H84.478V72.9546H88.2731V65.6919Z" fill="#37474F"/>
<path d="M88.2731 75.5859H84.478V82.8486H88.2731V75.5859Z" fill="#37474F"/>
<path d="M88.2731 85.4805H84.478V92.7432H88.2731V85.4805Z" fill="#37474F"/>
<path d="M88.2731 95.3745H84.478V102.637H88.2731V95.3745Z" fill="#37474F"/>
<path d="M88.2741 105.269H84.479V105.502H88.2741V105.269Z" fill="#37474F"/>
<path d="M94.5458 55.7974H90.7507V63.0601H94.5458V55.7974Z" fill="#37474F"/>
<path d="M94.5458 65.6919H90.7507V72.9546H94.5458V65.6919Z" fill="#37474F"/>
<path d="M94.5458 75.5859H90.7507V82.8486H94.5458V75.5859Z" fill="#37474F"/>
<path d="M94.5458 85.4805H90.7507V92.7432H94.5458V85.4805Z" fill="#37474F"/>
<path d="M94.5458 95.3745H90.7507V102.637H94.5458V95.3745Z" fill="#37474F"/>
<path d="M94.5444 105.269H90.7493V105.502H94.5444V105.269Z" fill="#1A6980"/>
<path d="M100.819 55.7974H97.0234V63.0601H100.819V55.7974Z" fill="#37474F"/>
<path d="M100.819 65.6919H97.0234V72.9546H100.819V65.6919Z" fill="#1A6980"/>
<path d="M100.819 75.5859H97.0234V82.8486H100.819V75.5859Z" fill="#37474F"/>
<path d="M100.819 85.4805H97.0234V92.7432H100.819V85.4805Z" fill="#37474F"/>
<path d="M100.819 95.3745H97.0234V102.637H100.819V95.3745Z" fill="#37474F"/>
<path d="M100.818 105.269H97.0229V105.502H100.818V105.269Z" fill="#37474F"/>
<path d="M107.091 55.7974H103.296V63.0601H107.091V55.7974Z" fill="#37474F"/>
<path d="M107.091 65.6919H103.296V72.9546H107.091V65.6919Z" fill="#37474F"/>
<path d="M107.091 75.5859H103.296V82.8486H107.091V75.5859Z" fill="#37474F"/>
<path d="M107.091 85.4805H103.296V92.7432H107.091V85.4805Z" fill="#37474F"/>
<path d="M107.091 95.3745H103.296V102.637H107.091V95.3745Z" fill="#1A6980"/>
<path d="M107.091 105.269H103.296V105.502H107.091V105.269Z" fill="#37474F"/>
<path d="M109.765 105.502C109.55 88.0171 109.548 68.4002 109.765 50.9155C109.983 68.4002 109.981 88.0174 109.765 105.502Z" fill="#455A64"/>
<path d="M123.404 50.9172C110.039 51.1374 95.1796 51.1321 81.8047 50.9172C95.1826 50.7023 110.036 50.6967 123.404 50.9172Z" fill="#455A64"/>
<path d="M81.8049 50.9155C82.0202 68.4006 82.0222 88.0174 81.8049 105.502C81.5876 88.0174 81.5893 68.4002 81.8049 50.9155Z" fill="#455A64"/>
<path d="M83.1439 50.917C82.917 49.7416 82.9154 48.56 83.1439 47.3843C83.3725 48.56 83.3708 49.7413 83.1439 50.917Z" fill="#455A64"/>
<path d="M16.2941 55.1958L123.403 55.1958V52.7509L16.2941 52.7509V55.1958Z" fill="#C7C7C7"/>
<path d="M16.2942 2.44336H123.403V105.503H16.2942V2.44336ZM121.141 4.70817H18.5557V103.239H121.141V4.70817Z" fill="#C7C7C7"/>
<path d="M88.5688 2.44336H87.3479V103.238H88.5688V2.44336Z" fill="#C7C7C7"/>
<path d="M52.3486 2.44336H51.1277V103.238H52.3486V2.44336Z" fill="#C7C7C7"/>
<path d="M18.5493 61.5188C22.7701 69.342 29.5004 78.2577 31.6412 79.4145C34.3489 80.8778 47.4666 79.0724 48.1944 78.9532C49.9935 78.6457 50.1441 67.1289 48.2064 67.3748C45.2563 67.7494 36.7524 69.6299 35.9588 69.1653C35.1342 68.6782 29.2646 64.3863 23.074 59.4138C18.8004 55.9771 15.9304 56.6647 18.5493 61.5188Z" fill="#FFBF9D"/>
<path d="M48.1945 78.953C48.4041 78.9956 51.3786 79.5881 53.1228 79.61C54.424 79.6263 58.1711 79.5728 58.3312 78.1401C58.4418 77.1632 56.2348 76.9348 54.6777 76.7388C53.8575 76.6353 52.7381 76.1153 52.8244 75.5815C52.975 74.6488 55.098 74.9563 56.5434 75.3363C59.3381 76.0712 63.2419 77.7054 64.3755 76.0753C64.8031 75.4591 63.9253 74.7956 62.7529 74.2312C64.5512 74.7694 66.4038 75.1064 66.906 74.4407C67.1949 74.0607 67.1065 73.6737 66.7823 73.2933C67.2979 73.3163 67.708 73.1705 67.9144 72.7814C68.2688 72.1215 67.8132 71.4179 67.0501 70.7788C67.2197 70.7122 67.3525 70.5795 67.4206 70.3558C68.0312 68.4535 61.4745 65.29 59.5288 65.3626C53.8029 65.5702 48.2069 67.3746 48.2069 67.3746C46.5621 69.6471 48.1891 78.9504 48.1945 78.953Z" fill="#FFBF9D"/>
<path d="M54.7288 71.8142C56.049 71.6627 57.4253 71.792 58.6938 72.2041C60.3044 72.7273 61.4987 73.5311 62.9343 74.2759C62.9721 74.2956 62.943 74.3546 62.9048 74.3353C62.221 73.9815 59.4412 72.7098 58.7393 72.4398C57.4529 71.9458 56.1065 71.7213 54.7299 71.8372C54.7153 71.839 54.7139 71.8161 54.7288 71.8142Z" fill="#263238"/>
<path d="M55.0999 69.2547C56.6184 69.2503 58.1733 69.2412 59.6686 69.5472C61.305 69.8825 62.7566 70.765 64.1772 71.6077C65.0302 72.1138 65.873 72.6378 66.7019 73.1825C66.7365 73.2055 66.7096 73.2641 66.6725 73.2419C65.2253 72.3656 63.7518 71.5312 62.2537 70.7449C60.8443 70.0053 59.3742 69.5476 57.7887 69.3975C56.8953 69.3126 55.9976 69.2966 55.1013 69.2809C55.0846 69.2809 55.0828 69.2547 55.0999 69.2547Z" fill="#263238"/>
<path d="M56.0578 66.841C57.5076 66.7434 58.7714 66.6538 60.1891 67.0538C62.0665 67.5833 64.0722 68.7959 64.7775 69.2273C65.5566 69.7039 66.3189 70.206 67.0744 70.7197C67.1053 70.7405 67.0696 70.7948 67.038 70.7744C65.331 69.6663 63.5431 68.66 61.7073 67.7818C60.8299 67.3625 59.9129 67.0393 58.9464 66.9055C57.9912 66.7733 57.0189 66.8181 56.0582 66.8505C56.052 66.8509 56.0513 66.8414 56.0578 66.841Z" fill="#263238"/>
<path d="M47.5844 66.947L47.0411 81.9734C47.0411 81.9734 34.3143 81.8655 31.5159 80.1337C28.7179 78.4019 21.4222 67.4826 18.6439 61.9807C15.8655 56.4787 18.848 55.8087 22.5656 58.7338C26.2831 61.6589 35.4718 68.6992 35.9016 68.7884C36.331 68.8774 47.5844 66.947 47.5844 66.947Z" fill="#1A6980"/>
<path d="M44.2138 76.1465C44.2917 74.3714 44.3841 72.5958 44.3961 70.817C44.403 69.8066 44.4154 68.7955 44.4128 67.7847C44.4128 67.7465 44.3473 67.7414 44.3444 67.78C44.1956 69.5588 44.0504 71.3435 43.9831 73.1289C43.9161 74.9055 43.8339 76.6814 43.7899 78.4592C43.7647 79.4699 43.7702 80.4778 43.8066 81.4892C43.8073 81.5093 43.8404 81.5122 43.8426 81.4918C44.0511 79.7166 44.1352 77.9345 44.2138 76.1465Z" fill="#263238"/>
<path opacity="0.1" d="M38.2828 81.5392C35.4033 81.2678 32.6454 80.836 31.5147 80.1339C28.7167 78.4031 21.4232 67.4835 18.642 61.9805C17.2857 59.2951 17.3032 57.7604 18.1099 57.2324C24.2259 64.4028 32.9871 75.2109 38.2828 81.5392Z" fill="black"/>
<path d="M31.3392 83.8788L25.4056 86.9876L23.7102 85.8114L21.6895 88.0781L4.26728 90.7362C4.19377 90.1703 4.79347 65.8971 11.8014 57.3658C13.2624 55.5873 15.54 54.4771 18.0119 56.4043C23.0916 60.3645 31.646 83.4591 31.3392 83.8788Z" fill="#1A6980"/>
<path d="M18.9438 62.8193C21.1119 69.3109 22.359 76.1296 23.3459 82.8944L23.7101 85.8108C22.4012 78.1864 21.0257 70.2557 18.9438 62.8193Z" fill="#263238"/>
<path d="M19.0397 66.3617C19.0382 66.9316 18.1707 66.9571 18.1565 66.3617C18.1703 65.7656 19.0389 65.7915 19.0397 66.3617ZM19.0397 66.3617C19.0244 65.8779 18.3355 65.9165 18.3384 66.3617C18.3352 66.8081 19.0247 66.8456 19.0397 66.3617Z" fill="#263238"/>
<path d="M20.2262 70.8951C20.2251 71.465 19.3572 71.4905 19.343 70.8951C19.3568 70.2986 20.2251 70.3249 20.2262 70.8951ZM20.2262 70.8951C20.2109 70.4112 19.5221 70.4498 19.525 70.8951C19.5217 71.3414 20.2113 71.379 20.2262 70.8951Z" fill="#263238"/>
<path d="M21.1786 75.4888C21.1771 76.0587 20.3096 76.0842 20.2954 75.4888C20.3089 74.8924 21.1775 74.9186 21.1786 75.4888ZM21.1786 75.4888C21.1633 75.005 20.4744 75.0436 20.4774 75.4888C20.4737 75.9348 21.1633 75.9727 21.1786 75.4888Z" fill="#263238"/>
<path d="M22.0399 80.1295C22.0388 80.6993 21.1709 80.7248 21.1567 80.1295C21.1706 79.533 22.0388 79.5592 22.0399 80.1295ZM22.0399 80.1295C22.0246 79.6459 21.3358 79.6842 21.3387 80.1295C21.3354 80.5754 22.025 80.6133 22.0399 80.1295Z" fill="#263238"/>
<path d="M22.9217 84.6505C22.9203 85.2203 22.0528 85.2458 22.0386 84.6505C22.0524 84.054 22.921 84.0802 22.9217 84.6505ZM22.9217 84.6505C22.9065 84.1666 22.2176 84.2052 22.2205 84.6505C22.2172 85.0968 22.9068 85.1343 22.9217 84.6505Z" fill="#263238"/>
<path d="M13.2773 129.371C13.5578 128.27 30.2519 102.34 31.5128 101.754C31.9898 101.529 32.9003 100.726 37.5531 103.536L46.6712 94.731L52.9047 112.145L29.8414 123.302C29.8414 123.302 19.0152 130.367 17.5636 130.861C16.1149 131.35 12.9967 130.472 13.2773 129.371Z" fill="#EB9481"/>
<path d="M13.2773 129.371C13.5578 128.27 30.2519 102.34 31.5128 101.754C31.9898 101.529 32.9003 100.726 37.5531 103.536L46.6712 94.731L52.9047 112.145L29.8414 123.302C29.8414 123.302 19.0152 130.367 17.5636 130.861C16.1149 131.35 12.9967 130.472 13.2773 129.371Z" fill="#FFBF9D"/>
<path d="M39.236 118.758L29.8417 123.304C29.8417 123.304 19.0154 130.366 17.5642 130.861C16.1145 131.349 12.997 130.472 13.2786 129.373C13.557 128.269 30.2521 102.341 31.5105 101.755C31.9894 101.528 32.8987 100.727 37.5519 103.534L38.5147 102.603L39.236 118.758Z" fill="#1A6980"/>
<path opacity="0.6" d="M39.236 118.758L29.8417 123.304C29.8417 123.304 19.0154 130.366 17.5642 130.861C16.1145 131.349 12.997 130.472 13.2786 129.373C13.557 128.269 30.2521 102.341 31.5105 101.755C31.9894 101.528 32.8987 100.727 37.5519 103.534L38.5147 102.603L39.236 118.758Z" fill="white"/>
<path d="M37.1335 118.924C37.3595 118.55 37.6412 118.23 37.9363 117.924C38.2369 117.623 38.5513 117.335 38.9217 117.103C38.6961 117.478 38.4145 117.798 38.119 118.104C37.818 118.404 37.5036 118.691 37.1335 118.924Z" fill="#263238"/>
<path d="M37.0344 117.251C37.2604 116.876 37.5421 116.557 37.8372 116.25C38.1378 115.949 38.4525 115.662 38.8226 115.429C38.597 115.804 38.3153 116.124 38.0198 116.43C37.7189 116.731 37.4041 117.018 37.0344 117.251Z" fill="#263238"/>
<path d="M36.9346 115.577C37.1605 115.203 37.4422 114.883 37.7373 114.576C38.0379 114.275 38.3523 113.988 38.7227 113.755C38.4971 114.13 38.2155 114.45 37.92 114.756C37.6191 115.057 37.3047 115.344 36.9346 115.577Z" fill="#263238"/>
<path d="M36.8354 113.903C37.0618 113.529 37.3431 113.209 37.6382 112.903C37.9388 112.602 38.2532 112.314 38.6236 112.082C38.398 112.457 38.1164 112.777 37.8209 113.083C37.5199 113.383 37.2055 113.671 36.8354 113.903Z" fill="#263238"/>
<path d="M36.7356 112.229C36.9616 111.855 37.2432 111.535 37.5383 111.229C37.8389 110.928 38.1533 110.64 38.5238 110.408C38.2982 110.783 38.0165 111.103 37.721 111.409C37.4204 111.709 37.1057 111.996 36.7356 112.229Z" fill="#263238"/>
<path d="M36.6362 110.556C36.8622 110.181 37.1439 109.862 37.439 109.555C37.7396 109.254 38.054 108.966 38.4244 108.734C38.1988 109.109 37.9171 109.429 37.6217 109.735C37.3207 110.036 37.0063 110.323 36.6362 110.556Z" fill="#263238"/>
<path d="M36.5366 108.882C36.763 108.508 37.0443 108.188 37.3394 107.881C37.6399 107.58 37.9544 107.293 38.3248 107.061C38.0992 107.435 37.8175 107.755 37.522 108.061C37.2215 108.362 36.9067 108.649 36.5366 108.882Z" fill="#263238"/>
<path d="M36.437 107.209C36.663 106.834 36.9446 106.515 37.2398 106.208C37.5403 105.907 37.8547 105.62 38.2252 105.387C37.9996 105.762 37.7179 106.082 37.4224 106.388C37.1215 106.688 36.8071 106.976 36.437 107.209Z" fill="#263238"/>
<path d="M36.3379 105.535C36.5639 105.161 36.8455 104.841 37.1406 104.534C37.4412 104.233 37.7556 103.946 38.1261 103.713C37.9005 104.088 37.6188 104.408 37.3233 104.714C37.0224 105.015 36.7076 105.302 36.3379 105.535Z" fill="#263238"/>
<path d="M83.3946 91.3972C80.8819 99.4828 41.6511 119.713 41.6511 119.713L33.8645 98.9235L51.9031 90.1951L12.6316 86.3132L32.1829 77.9346C32.1829 77.9346 36.034 79.3556 38.7833 78.4167C40.0012 78.0009 66.1052 73.1148 71.2751 74.1467C82.6901 76.425 85.6999 83.9791 83.3946 91.3972Z" fill="#1A6980"/>
<path opacity="0.2" d="M83.3946 91.3972C80.8819 99.4828 41.6511 119.713 41.6511 119.713L33.8645 98.9235L51.9031 90.1951L12.6316 86.3132L32.1829 77.9346C32.1829 77.9346 36.034 79.3556 38.7833 78.4167C40.0012 78.0009 66.1052 73.1148 71.2751 74.1467C82.6901 76.425 85.6999 83.9791 83.3946 91.3972Z" fill="black"/>
<path d="M48.1011 77.597C48.1011 78.2128 47.6025 78.712 46.9912 78.712C46.3762 78.712 45.8777 78.2128 45.8777 77.597C45.8777 77.3748 45.9432 77.1707 46.056 76.9958C46.5727 76.9011 47.1076 76.8064 47.6571 76.7116C47.9264 76.9157 48.1011 77.2363 48.1011 77.597ZM56.7643 78.7116C57.3782 78.7116 57.876 78.2132 57.876 77.5985C57.876 76.9838 57.3782 76.4854 56.7643 76.4854C56.1504 76.4854 55.6526 76.9838 55.6526 77.5985C55.6526 78.2135 56.1504 78.7116 56.7643 78.7116ZM66.5389 78.7116C67.1528 78.7116 67.6506 78.2132 67.6506 77.5985C67.6506 76.9838 67.1528 76.4854 66.5389 76.4854C65.925 76.4854 65.4272 76.9838 65.4272 77.5985C65.4272 78.2135 65.925 78.7116 66.5389 78.7116ZM76.3131 78.7116C76.927 78.7116 77.4248 78.2132 77.4248 77.5985C77.4248 76.9838 76.927 76.4854 76.3131 76.4854C75.6992 76.4854 75.2014 76.9838 75.2014 77.5985C75.2018 78.2135 75.6992 78.7116 76.3131 78.7116ZM48.0974 92.0368L46.2707 92.9222C46.4635 93.0935 46.7146 93.1918 46.9912 93.1918C47.6025 93.1918 48.1011 92.6927 48.1011 92.0769C48.1011 92.0623 48.1011 92.0514 48.0974 92.0368ZM56.7643 93.1911C57.3782 93.1911 57.876 92.6927 57.876 92.078C57.876 91.4633 57.3782 90.9648 56.7643 90.9648C56.1504 90.9648 55.6526 91.4633 55.6526 92.078C55.6526 92.6927 56.1504 93.1911 56.7643 93.1911ZM66.5389 93.1911C67.1528 93.1911 67.6506 92.6927 67.6506 92.078C67.6506 91.4633 67.1528 90.9648 66.5389 90.9648C65.925 90.9648 65.4272 91.4633 65.4272 92.078C65.4272 92.6927 65.925 93.1911 66.5389 93.1911ZM76.3131 93.1911C76.927 93.1911 77.4248 92.6927 77.4248 92.078C77.4248 91.4633 76.927 90.9648 76.3131 90.9648C75.6992 90.9648 75.2014 91.4633 75.2014 92.078C75.2018 92.6927 75.6992 93.1911 76.3131 93.1911ZM12.7705 86.2543C12.7741 86.2543 12.7741 86.2543 12.7778 86.2543C13.0944 86.2543 13.3819 86.1195 13.582 85.9045L12.7705 86.2543ZM22.5538 86.2532C23.1677 86.2532 23.6655 85.7548 23.6655 85.1401C23.6655 84.5254 23.1677 84.027 22.5538 84.027C21.9399 84.027 21.4421 84.5254 21.4421 85.1401C21.4421 85.7548 21.9399 86.2532 22.5538 86.2532ZM32.328 86.2532C32.9419 86.2532 33.4397 85.7548 33.4397 85.1401C33.4397 84.5254 32.9419 84.027 32.328 84.027C31.7141 84.027 31.2163 84.5254 31.2163 85.1401C31.2167 85.7548 31.7141 86.2532 32.328 86.2532ZM42.1026 86.2532C42.7165 86.2532 43.2143 85.7548 43.2143 85.1401C43.2143 84.5254 42.7165 84.027 42.1026 84.027C41.4887 84.027 40.9909 84.5254 40.9909 85.1401C40.9909 85.7548 41.4887 86.2532 42.1026 86.2532ZM51.8772 86.2532C52.4911 86.2532 52.9889 85.7548 52.9889 85.1401C52.9889 84.5254 52.4911 84.027 51.8772 84.027C51.2633 84.027 50.7655 84.5254 50.7655 85.1401C50.7655 85.7548 51.2633 86.2532 51.8772 86.2532ZM61.6514 86.2532C62.2653 86.2532 62.7631 85.7548 62.7631 85.1401C62.7631 84.5254 62.2653 84.027 61.6514 84.027C61.0375 84.027 60.5397 84.5254 60.5397 85.1401C60.5401 85.7548 61.0375 86.2532 61.6514 86.2532ZM71.426 86.2532C72.0399 86.2532 72.5377 85.7548 72.5377 85.1401C72.5377 84.5254 72.0399 84.027 71.426 84.027C70.8121 84.027 70.3143 84.5254 70.3143 85.1401C70.3143 85.7548 70.8121 86.2532 71.426 86.2532ZM81.2006 86.2532C81.8145 86.2532 82.3123 85.7548 82.3123 85.1401C82.3123 84.5254 81.8145 84.027 81.2006 84.027C80.5867 84.027 80.0889 84.5254 80.0889 85.1401C80.0889 85.7548 80.5867 86.2532 81.2006 86.2532ZM37.217 105.445C36.9077 105.445 36.6311 105.569 36.4309 105.77L37.1405 107.668C37.166 107.672 37.1915 107.672 37.217 107.672C37.8283 107.672 38.3268 107.173 38.3268 106.557C38.3268 105.945 37.8283 105.445 37.217 105.445ZM46.9897 107.671C47.6036 107.671 48.1014 107.172 48.1014 106.557C48.1014 105.943 47.6036 105.444 46.9897 105.444C46.3758 105.444 45.878 105.943 45.878 106.557C45.878 107.172 46.3758 107.671 46.9897 107.671ZM56.7643 107.671C57.3782 107.671 57.876 107.172 57.876 106.557C57.876 105.943 57.3782 105.444 56.7643 105.444C56.1504 105.444 55.6526 105.943 55.6526 106.557C55.6526 107.172 56.1504 107.671 56.7643 107.671ZM66.5396 105.445C66.0484 105.445 65.6335 105.762 65.4879 106.203C65.8846 105.956 66.2849 105.704 66.6779 105.456C66.6342 105.449 66.5869 105.445 66.5396 105.445ZM42.1026 100.733C42.7165 100.733 43.2143 100.234 43.2143 99.6196C43.2143 99.0049 42.7165 98.5065 42.1026 98.5065C41.4887 98.5065 40.9909 99.0049 40.9909 99.6196C40.9909 100.234 41.4887 100.733 42.1026 100.733ZM51.8772 100.733C52.4911 100.733 52.9889 100.234 52.9889 99.6196C52.9889 99.0049 52.4911 98.5065 51.8772 98.5065C51.2633 98.5065 50.7655 99.0049 50.7655 99.6196C50.7655 100.234 51.2633 100.733 51.8772 100.733ZM61.6514 100.733C62.2653 100.733 62.7631 100.234 62.7631 99.6196C62.7631 99.0049 62.2653 98.5065 61.6514 98.5065C61.0375 98.5065 60.5397 99.0049 60.5397 99.6196C60.5397 100.234 61.0375 100.733 61.6514 100.733ZM71.426 100.733C72.0399 100.733 72.5377 100.234 72.5377 99.6196C72.5377 99.0049 72.0399 98.5065 71.426 98.5065C70.8121 98.5065 70.3143 99.0049 70.3143 99.6196C70.3143 100.234 70.8121 100.733 71.426 100.733ZM42.1026 115.212C42.7165 115.212 43.2143 114.714 43.2143 114.099C43.2143 113.484 42.7165 112.986 42.1026 112.986C41.4887 112.986 40.9909 113.484 40.9909 114.099C40.9909 114.714 41.4887 115.212 42.1026 115.212ZM51.8783 112.988C51.2633 112.988 50.7648 113.483 50.7648 114.099C50.7648 114.321 50.8303 114.533 50.9467 114.708C51.5726 114.361 52.2203 114.001 52.8826 113.629C52.708 113.25 52.3222 112.988 51.8783 112.988Z" fill="#1A6980"/>
<path d="M60.8507 84.9421C60.081 85.2547 59.3605 85.7499 58.6378 86.1572C57.8737 86.5883 57.1037 87.0095 56.3398 87.4413C56.3326 87.4456 56.3249 87.45 56.3173 87.4544C56.4847 87.3035 56.6506 87.1512 56.8205 87.0037C57.4031 86.4979 57.9333 85.9441 58.5603 85.4905C58.5985 85.4628 58.5567 85.4034 58.5181 85.4303C57.8831 85.8752 57.2012 86.2644 56.6062 86.7643C56.326 86.9997 56.0527 87.242 55.7871 87.4934C55.6415 87.6311 55.4941 87.7681 55.3544 87.912C55.2907 87.9776 55.2172 88.045 55.1586 88.1204C54.8122 88.3238 54.4672 88.5304 54.1266 88.7442C53.3708 89.2186 52.6532 89.755 51.8941 90.2217C51.8534 90.2465 51.8963 90.3044 51.9364 90.2815C52.6842 89.8574 53.4716 89.501 54.2249 89.0849C54.9916 88.6612 55.7409 88.209 56.4865 87.7495C57.2139 87.301 57.9348 86.8419 58.6619 86.3926C59.394 85.9401 60.207 85.5327 60.8765 84.9905C60.8994 84.9716 60.8809 84.9301 60.8507 84.9421Z" fill="#263238"/>
<path d="M43.6206 114.543C43.4215 113.95 43.2166 113.36 43.0092 112.77C42.5947 111.592 42.1828 110.412 41.7611 109.235C40.9219 106.896 40.0831 104.556 39.1923 102.236C38.6883 100.924 38.1872 99.6056 37.6265 98.3165C37.5945 98.2429 37.4846 98.2804 37.5079 98.3584C38.2269 100.749 39.0933 103.104 39.954 105.446C40.8109 107.779 41.6872 110.106 42.5736 112.428C42.8218 113.078 43.0682 113.729 43.3254 114.376C43.5878 115.036 43.8822 115.686 44.1402 116.347C44.1526 116.379 44.2017 116.362 44.1904 116.329C43.9881 115.739 43.8196 115.135 43.6206 114.543Z" fill="#263238"/>
<path d="M122.142 104.015C121.296 104.772 92.996 116.97 91.623 116.752C91.1019 116.672 89.8985 116.83 87.6023 111.9C87.1063 110.835 67.3745 104.412 67.3745 104.412L84.534 92.9121L105.014 99.8015C105.014 99.8015 117.935 99.9841 119.415 100.385C120.89 100.788 122.988 103.257 122.142 104.015Z" fill="#FFBF9D"/>
<path d="M122.142 104.013C121.294 104.774 92.9984 116.971 91.6211 116.753C91.1025 116.674 89.8973 116.831 87.6026 111.899C87.4647 111.607 85.706 111.043 83.2166 110.374L101.066 98.4692L105.014 99.7995C105.014 99.7995 117.935 99.9861 119.415 100.383C120.888 100.79 122.986 103.258 122.142 104.013Z" fill="#1A6980"/>
<path opacity="0.6" d="M122.142 104.013C121.294 104.774 92.9984 116.971 91.6211 116.753C91.1025 116.674 89.8973 116.831 87.6026 111.899C87.4647 111.607 85.706 111.043 83.2166 110.374L101.066 98.4692L105.014 99.7995C105.014 99.7995 117.935 99.9861 119.415 100.383C120.888 100.79 122.986 103.258 122.142 104.013Z" fill="white"/>
<path d="M84.6299 110.126C85.0666 110.143 85.4825 110.235 85.893 110.345C86.3016 110.462 86.7052 110.598 87.0876 110.81C86.651 110.794 86.235 110.702 85.8245 110.592C85.4159 110.474 85.0123 110.338 84.6299 110.126Z" fill="#263238"/>
<path d="M86.0437 109.229C86.4804 109.245 86.8959 109.337 87.3068 109.447C87.7154 109.564 88.119 109.7 88.5014 109.912C88.0648 109.896 87.6488 109.804 87.2384 109.694C86.8297 109.576 86.4265 109.44 86.0437 109.229Z" fill="#263238"/>
<path d="M87.4578 108.33C87.8944 108.347 88.31 108.438 88.7208 108.548C89.1295 108.666 89.5331 108.802 89.9155 109.014C89.4788 108.998 89.0629 108.906 88.6524 108.795C88.2438 108.677 87.8402 108.541 87.4578 108.33Z" fill="#263238"/>
<path d="M88.8716 107.432C89.3083 107.449 89.7242 107.54 90.1347 107.65C90.5433 107.768 90.9469 107.904 91.3293 108.116C90.8927 108.1 90.4767 108.008 90.0663 107.897C89.6576 107.779 89.2544 107.643 88.8716 107.432Z" fill="#263238"/>
<path d="M90.2856 106.534C90.7223 106.55 91.1379 106.642 91.5487 106.752C91.9574 106.869 92.3609 107.006 92.7434 107.217C92.3067 107.201 91.8908 107.11 91.4803 106.999C91.0717 106.881 90.6681 106.745 90.2856 106.534Z" fill="#263238"/>
<path d="M91.6995 105.636C92.1361 105.653 92.5521 105.744 92.9625 105.854C93.3712 105.971 93.7748 106.108 94.1572 106.319C93.7205 106.303 93.3046 106.211 92.8941 106.101C92.4855 105.983 92.0823 105.847 91.6995 105.636Z" fill="#263238"/>
<path d="M93.113 104.737C93.5497 104.754 93.9656 104.846 94.3765 104.956C94.7851 105.073 95.1887 105.209 95.5711 105.421C95.1345 105.405 94.7185 105.313 94.3081 105.203C93.8994 105.085 93.4959 104.949 93.113 104.737Z" fill="#263238"/>
<path d="M94.5271 103.839C94.9638 103.856 95.3797 103.948 95.7902 104.058C96.1988 104.175 96.6024 104.311 96.9848 104.523C96.5482 104.507 96.1322 104.415 95.7218 104.305C95.3131 104.187 94.9099 104.05 94.5271 103.839Z" fill="#263238"/>
<path d="M95.9412 102.941C96.3778 102.958 96.7934 103.049 97.2042 103.159C97.6129 103.276 98.0165 103.413 98.3989 103.624C97.9622 103.608 97.5463 103.517 97.1358 103.406C96.7272 103.288 96.3236 103.152 95.9412 102.941Z" fill="#263238"/>
<path d="M97.355 102.042C97.7917 102.059 98.2076 102.151 98.6181 102.261C99.0267 102.378 99.4303 102.514 99.8127 102.726C99.3761 102.71 98.9601 102.618 98.5496 102.508C98.141 102.39 97.7378 102.254 97.355 102.042Z" fill="#263238"/>
<path d="M98.769 101.145C99.2057 101.161 99.6217 101.253 100.032 101.363C100.441 101.48 100.844 101.616 101.227 101.828C100.79 101.812 100.374 101.72 99.9637 101.61C99.5551 101.492 99.1515 101.356 98.769 101.145Z" fill="#263238"/>
<path d="M100.183 100.246C100.62 100.263 101.035 100.354 101.446 100.464C101.855 100.582 102.258 100.718 102.641 100.93C102.204 100.914 101.788 100.822 101.378 100.711C100.969 100.594 100.566 100.457 100.183 100.246Z" fill="#263238"/>
<path d="M101.597 99.3481C102.034 99.3649 102.45 99.4564 102.86 99.5664C103.269 99.6837 103.672 99.82 104.055 100.032C103.618 100.016 103.202 99.9238 102.792 99.8134C102.383 99.6957 101.979 99.5595 101.597 99.3481Z" fill="#263238"/>
<path d="M97.4195 96.5497L78.1895 109.468L40.534 97.4963C40.534 97.4963 33.1907 103.769 25.0787 105.695C19.5588 107.005 11.3857 105.889 8.18562 100.296C4.87927 94.518 5.14164 90.4724 5.14164 90.4724L11.381 87.2686C11.381 87.2686 25.8782 75.8122 35.223 74.3886C49.4811 72.217 97.4195 96.5497 97.4195 96.5497Z" fill="#1A6980"/>
<path opacity="0.2" d="M97.4195 96.5497L78.1895 109.468L40.534 97.4963C40.534 97.4963 33.1907 103.769 25.0787 105.695C19.5588 107.005 11.3857 105.889 8.18562 100.296C4.87927 94.518 5.14164 90.4724 5.14164 90.4724L11.381 87.2686C11.381 87.2686 25.8782 75.8122 35.223 74.3886C49.4811 72.217 97.4195 96.5497 97.4195 96.5497Z" fill="black"/>
<path d="M28.5523 77.5972C28.5523 78.2129 28.0537 78.7121 27.4424 78.7121C26.831 78.7121 26.3325 78.2166 26.3289 77.6045C26.9293 77.2984 27.5333 77.0069 28.1338 76.73C28.3885 76.934 28.5523 77.2474 28.5523 77.5972Z" fill="#1A6980"/>
<path d="M36.1035 77.5985C36.1035 76.9838 36.6013 76.4854 37.2152 76.4854C37.8291 76.4854 38.3269 76.9838 38.3269 77.5985C38.3269 78.2132 37.8291 78.7116 37.2152 78.7116C36.6013 78.7116 36.1035 78.2135 36.1035 77.5985Z" fill="#1A6980"/>
<path d="M45.8782 77.5985C45.8782 76.9838 46.376 76.4854 46.9899 76.4854C47.6038 76.4854 48.1016 76.9838 48.1016 77.5985C48.1016 78.2132 47.6038 78.7116 46.9899 78.7116C46.3756 78.7116 45.8782 78.2135 45.8782 77.5985Z" fill="#1A6980"/>
<path d="M7.89197 93.1911C8.50595 93.1911 9.00367 92.6927 9.00367 92.078C9.00367 91.4632 8.50595 90.9648 7.89197 90.9648C7.278 90.9648 6.78027 91.4632 6.78027 92.078C6.78027 92.6927 7.278 93.1911 7.89197 93.1911Z" fill="#1A6980"/>
<path d="M16.5549 92.078C16.5549 91.4633 17.0527 90.9648 17.6666 90.9648C18.2805 90.9648 18.7783 91.4633 18.7783 92.078C18.7783 92.6927 18.2805 93.1911 17.6666 93.1911C17.0524 93.1911 16.5549 92.6927 16.5549 92.078Z" fill="#1A6980"/>
<path d="M27.4406 93.1911C28.0545 93.1911 28.5523 92.6927 28.5523 92.078C28.5523 91.4632 28.0545 90.9648 27.4406 90.9648C26.8266 90.9648 26.3289 91.4632 26.3289 92.078C26.3289 92.6927 26.8266 93.1911 27.4406 93.1911Z" fill="#1A6980"/>
<path d="M36.1035 92.078C36.1035 91.4633 36.6013 90.9648 37.2152 90.9648C37.8291 90.9648 38.3269 91.4633 38.3269 92.078C38.3269 92.6927 37.8291 93.1911 37.2152 93.1911C36.6013 93.1911 36.1035 92.6927 36.1035 92.078Z" fill="#1A6980"/>
<path d="M46.9896 93.1911C47.6036 93.1911 48.1013 92.6927 48.1013 92.078C48.1013 91.4632 47.6036 90.9648 46.9896 90.9648C46.3757 90.9648 45.8779 91.4632 45.8779 92.078C45.8779 92.6927 46.3757 93.1911 46.9896 93.1911Z" fill="#1A6980"/>
<path d="M56.7643 93.1911C57.3783 93.1911 57.876 92.6927 57.876 92.078C57.876 91.4632 57.3783 90.9648 56.7643 90.9648C56.1503 90.9648 55.6526 91.4632 55.6526 92.078C55.6526 92.6927 56.1503 93.1911 56.7643 93.1911Z" fill="#1A6980"/>
<path d="M65.427 92.078C65.427 91.4633 65.9248 90.9648 66.5387 90.9648C67.1526 90.9648 67.6504 91.4633 67.6504 92.078C67.6504 92.6927 67.1526 93.1911 66.5387 93.1911C65.9248 93.1911 65.427 92.6927 65.427 92.078Z" fill="#1A6980"/>
<path d="M76.3129 93.1911C76.9268 93.1911 77.4246 92.6927 77.4246 92.078C77.4246 91.4632 76.9268 90.9648 76.3129 90.9648C75.6989 90.9648 75.2012 91.4632 75.2012 92.078C75.2012 92.6927 75.6989 93.1911 76.3129 93.1911Z" fill="#1A6980"/>
<path d="M87.1978 92.077C87.1978 92.6928 86.7029 93.1919 86.0879 93.1919C85.4729 93.1919 84.9744 92.6928 84.9744 92.077C84.9744 91.5304 85.371 91.075 85.8914 90.9839C86.2844 91.1661 86.6701 91.3446 87.0486 91.5232C87.1432 91.6871 87.1978 91.8766 87.1978 92.077Z" fill="#1A6980"/>
<path d="M13.8548 85.4092C13.7383 85.8974 13.298 86.2545 12.7777 86.2545C12.7558 86.2545 12.734 86.2545 12.7122 86.2509C13.0397 86.0067 13.4254 85.7225 13.8548 85.4092Z" fill="#1A6980"/>
<path d="M22.5538 86.2531C23.1678 86.2531 23.6655 85.7548 23.6655 85.14C23.6655 84.5252 23.1678 84.0269 22.5538 84.0269C21.9399 84.0269 21.4421 84.5252 21.4421 85.14C21.4421 85.7548 21.9399 86.2531 22.5538 86.2531Z" fill="#1A6980"/>
<path d="M32.3278 86.2531C32.9417 86.2531 33.4395 85.7548 33.4395 85.14C33.4395 84.5252 32.9417 84.0269 32.3278 84.0269C31.7138 84.0269 31.2161 84.5252 31.2161 85.14C31.2161 85.7548 31.7138 86.2531 32.3278 86.2531Z" fill="#1A6980"/>
<path d="M40.9907 85.14C40.9907 84.5253 41.4885 84.0269 42.1024 84.0269C42.7163 84.0269 43.2141 84.5253 43.2141 85.14C43.2141 85.7547 42.7163 86.2531 42.1024 86.2531C41.4885 86.2531 40.9907 85.7547 40.9907 85.14Z" fill="#1A6980"/>
<path d="M51.8771 86.2531C52.4911 86.2531 52.9888 85.7548 52.9888 85.14C52.9888 84.5252 52.4911 84.0269 51.8771 84.0269C51.2631 84.0269 50.7654 84.5252 50.7654 85.14C50.7654 85.7548 51.2631 86.2531 51.8771 86.2531Z" fill="#1A6980"/>
<path d="M60.54 85.14C60.54 84.5253 61.0378 84.0269 61.6517 84.0269C62.2656 84.0269 62.7634 84.5253 62.7634 85.14C62.7634 85.7547 62.2656 86.2531 61.6517 86.2531C61.0375 86.2531 60.54 85.7547 60.54 85.14Z" fill="#1A6980"/>
<path d="M72.5361 85.1393C72.5361 85.7551 72.0412 86.2543 71.4263 86.2543C70.8113 86.2543 70.3127 85.7551 70.3127 85.1393C70.3127 84.7823 70.4801 84.4653 70.7421 84.2612C71.3426 84.5163 71.9357 84.7677 72.5289 85.0191C72.5325 85.0592 72.5361 85.0993 72.5361 85.1393Z" fill="#1A6980"/>
<path d="M18.6728 106.094C18.0579 106.032 17.4392 105.944 16.8315 105.824C17.0353 105.591 17.3337 105.445 17.6649 105.445C18.1125 105.445 18.5018 105.711 18.6728 106.094Z" fill="#1A6980"/>
<path d="M67.5402 106.083L65.9937 105.591C66.1538 105.496 66.3394 105.445 66.5395 105.445C66.9834 105.445 67.3655 105.708 67.5402 106.083Z" fill="#1A6980"/>
<path d="M76.3129 107.671C76.9268 107.671 77.4246 107.172 77.4246 106.557C77.4246 105.943 76.9268 105.444 76.3129 105.444C75.6989 105.444 75.2012 105.943 75.2012 106.557C75.2012 107.172 75.6989 107.671 76.3129 107.671Z" fill="#1A6980"/>
<path d="M11.6675 99.6195C11.6675 99.0048 12.1653 98.5063 12.7792 98.5063C13.3931 98.5063 13.8909 99.0048 13.8909 99.6195C13.8909 100.234 13.3931 100.733 12.7792 100.733C12.1653 100.733 11.6675 100.234 11.6675 99.6195Z" fill="#1A6980"/>
<path d="M22.5538 100.733C23.1678 100.733 23.6655 100.234 23.6655 99.6195C23.6655 99.0047 23.1678 98.5063 22.5538 98.5063C21.9399 98.5063 21.4421 99.0047 21.4421 99.6195C21.4421 100.234 21.9399 100.733 22.5538 100.733Z" fill="#1A6980"/>
<path d="M32.3278 100.733C32.9417 100.733 33.4395 100.234 33.4395 99.6195C33.4395 99.0047 32.9417 98.5063 32.3278 98.5063C31.7138 98.5063 31.2161 99.0047 31.2161 99.6195C31.2161 100.234 31.7138 100.733 32.3278 100.733Z" fill="#1A6980"/>
<path d="M51.8771 100.733C52.4911 100.733 52.9888 100.234 52.9888 99.6195C52.9888 99.0047 52.4911 98.5063 51.8771 98.5063C51.2631 98.5063 50.7654 99.0047 50.7654 99.6195C50.7654 100.234 51.2631 100.733 51.8771 100.733Z" fill="#1A6980"/>
<path d="M60.54 99.6195C60.54 99.0048 61.0378 98.5063 61.6517 98.5063C62.2656 98.5063 62.7634 99.0048 62.7634 99.6195C62.7634 100.234 62.2656 100.733 61.6517 100.733C61.0375 100.733 60.54 100.234 60.54 99.6195Z" fill="#1A6980"/>
<path d="M71.4257 100.733C72.0396 100.733 72.5374 100.234 72.5374 99.6195C72.5374 99.0047 72.0396 98.5063 71.4257 98.5063C70.8117 98.5063 70.314 99.0047 70.314 99.6195C70.314 100.234 70.8117 100.733 71.4257 100.733Z" fill="#1A6980"/>
<path d="M81.2003 100.733C81.8143 100.733 82.312 100.234 82.312 99.6195C82.312 99.0047 81.8143 98.5063 81.2003 98.5063C80.5863 98.5063 80.0886 99.0047 80.0886 99.6195C80.0886 100.234 80.5863 100.733 81.2003 100.733Z" fill="#1A6980"/>
<path d="M92.085 99.6191C92.085 99.8633 92.0049 100.093 91.8739 100.275H91.8703L91.2371 100.701C91.1534 100.723 91.0661 100.734 90.9751 100.734C90.3601 100.734 89.8616 100.235 89.8616 99.6191C89.8616 99.0034 90.3601 98.5078 90.9751 98.5078C91.5901 98.5078 92.085 99.0034 92.085 99.6191Z" fill="#1A6980"/>
<path d="M16.8056 83.2871C15.9217 83.8752 15.0658 84.5019 14.1935 85.1064C13.3355 85.7011 12.4508 86.2578 11.6335 86.9097C10.8024 87.5724 10.0127 88.2819 9.22781 88.9982C8.849 89.344 8.4731 89.6923 8.10665 90.0509C7.74349 90.4061 7.33774 90.7617 7.03425 91.1702C7.00587 91.2081 7.06046 91.2554 7.09721 91.2328C7.51896 90.9738 7.90032 90.6153 8.2846 90.3048C8.6998 89.9696 9.10991 89.6289 9.5233 89.2911C10.3202 88.64 11.1324 88.0082 11.9275 87.3553C12.7176 86.7067 13.4519 85.994 14.2346 85.3367C15.0723 84.6331 15.954 83.9802 16.823 83.3156C16.8387 83.3028 16.8238 83.2751 16.8056 83.2871Z" fill="#263238"/>
<path d="M40.5353 97.4961C40.5353 97.4961 38.3898 99.3289 35.1355 101.316L25.866 90.7554L40.5353 97.4961Z" fill="#263238"/>
<path d="M91.34 94.9553C90.769 95.2868 90.2166 95.6625 89.6639 96.0221C89.1177 96.3774 88.5722 96.7341 88.0293 97.0941C86.9187 97.8308 85.8215 98.5862 84.7226 99.3386C82.517 100.848 80.3311 102.384 78.1437 103.918C76.9185 104.777 75.71 105.658 74.4913 106.526C74.4687 106.542 74.4949 106.58 74.5186 106.565C76.7445 105.133 78.961 103.691 81.1604 102.22C83.3849 100.733 85.5912 99.2205 87.7713 97.6727C88.3761 97.2431 88.9754 96.8066 89.5715 96.3657C90.1748 95.9194 90.797 95.481 91.3745 95.0041C91.4 94.9826 91.3709 94.9374 91.34 94.9553Z" fill="#263238"/>
<path d="M86.8892 91.4304C86.3262 91.0508 74.583 85.4713 72.0656 84.3512C69.5525 83.2333 67.0169 82.1657 64.4573 81.1605C61.9034 80.1574 59.3202 79.2195 56.7059 78.3887C54.1216 77.5675 51.5037 76.8114 48.8502 76.2514C48.5099 76.1796 48.1708 76.1074 47.8327 76.0276C47.8011 76.02 47.7941 76.0706 47.8254 76.0779C49.1715 76.396 50.4961 76.8118 51.8217 77.2056C53.1274 77.5937 54.4272 78.0051 55.7198 78.4357C58.3096 79.2989 60.8703 80.2415 63.4096 81.2446C65.943 82.2459 68.4506 83.3135 70.9379 84.4255C73.4415 85.5449 75.9301 86.6966 78.4083 87.8721C79.6473 88.4598 86.5064 91.4294 86.828 91.5347C86.8888 91.5543 86.9503 91.4716 86.8892 91.4304Z" fill="#263238"/>
<path d="M66.1817 105.657C64.6883 105.171 63.173 104.735 61.6672 104.283C60.1596 103.832 42.2323 97.8746 40.498 97.5266C40.4613 97.5193 40.4416 97.5682 40.4784 97.5813C41.9547 98.1063 49.8821 100.994 52.8231 102.019C55.8784 103.084 64.4216 105.364 66.1453 105.758C66.213 105.773 66.2498 105.679 66.1817 105.657Z" fill="#263238"/>
<path opacity="0.6" d="M38.0114 66.3615C38.0114 66.3615 43.7708 63.7038 43.7704 60.1421C43.77 56.5804 36.2996 54.2893 36.2993 51.5056C36.2989 48.7218 39.5561 47.084 39.5561 47.084C39.5561 47.084 34.411 48.845 34.4114 52.3655C34.4121 55.886 39.3367 58.2707 39.8079 60.5112C40.4626 63.6225 38.0114 66.3615 38.0114 66.3615Z" fill="#DBDBDB"/>
<path opacity="0.6" d="M38.2965 66.3616C38.2965 66.3616 32.536 64.2734 32.5356 61.4732C32.5353 58.6731 40.005 56.8695 40.0046 54.6808C40.0042 52.492 36.7463 51.2051 36.7463 51.2051C36.7463 51.2051 41.8921 52.5882 41.8925 55.3563C41.8928 58.1244 36.2383 60.0282 35.8344 62.2774C35.4381 64.4829 38.2965 66.3616 38.2965 66.3616Z" fill="#DBDBDB"/>
<path d="M40.8128 75.3169H35.334V76.1731H40.8128V75.3169Z" fill="#DBDBDB"/>
<path d="M40.8128 75.3169H35.334V75.8817H40.8128V75.3169Z" fill="#C7C7C7"/>
<path d="M28.8307 73.0163C29.4788 73.9279 30.6258 74.5805 31.9162 74.3368C32.0992 74.3022 32.2834 74.2504 32.4719 74.1768C32.7273 74.0781 32.9846 73.9451 33.2462 73.7687L32.5501 72.7354C32.4085 72.8338 32.271 72.9103 32.1389 72.9693C30.8343 73.5618 30.0083 72.5321 29.846 72.2967C29.0949 71.24 28.8256 68.8261 29.5862 67.8977C29.6364 67.8288 29.8562 67.7203 30.7386 67.9079C30.9017 67.9447 31.0862 67.9859 31.2954 68.0435C31.5268 68.1094 31.6647 68.1466 31.7961 68.1513L31.8183 67.5308L31.8787 66.9117C31.8219 66.9015 31.7328 66.876 31.6171 66.8429C31.2841 66.7536 30.8354 66.6319 30.3715 66.5842C29.7223 66.5168 29.0414 66.5947 28.624 67.1085C27.3883 68.6253 27.8897 71.6915 28.8307 73.0163Z" fill="#DBDBDB"/>
<path d="M32.5501 72.7358C32.4086 72.8342 32.271 72.9107 32.1389 72.9698L32.4719 74.1773C32.7273 74.0785 32.9846 73.9455 33.2462 73.7692L32.5501 72.7358Z" fill="#C7C7C7"/>
<path d="M30.3716 66.585L30.7388 67.9083C30.9018 67.9451 31.0863 67.9863 31.2955 68.0439C31.5269 68.1098 31.6649 68.147 31.7962 68.1517L31.8184 67.5312L31.8788 66.9122C31.8221 66.902 31.7329 66.8765 31.6172 66.8433C31.2842 66.754 30.8355 66.6323 30.3716 66.585Z" fill="#C7C7C7"/>
<path d="M45.3602 64.9648C45.3602 64.9648 44.7038 70.5557 43.5688 72.9109C42.4338 75.2622 40.8494 75.526 39.8651 75.526C38.8807 75.526 38.9706 75.526 38.0758 75.5263C37.1773 75.5263 37.2708 75.5263 36.2829 75.5267C35.2985 75.5267 33.7141 75.2636 32.5784 72.9127C31.4427 70.5578 30.7844 64.9674 30.7844 64.9674L45.3602 64.9648Z" fill="#DBDBDB"/>
<path d="M8.77009 60.8564C2.51146 70.6899 -2.41058 85.9629 1.59881 88.3033C5.51978 90.5918 18.0661 85.377 22.3823 81.4896C23.4136 80.5609 17.5236 71.1697 16.29 71.9939C14.5698 73.1431 11.4709 75.2226 11.2922 75.2444C10.9094 75.2911 12.889 65.8354 13.3177 61.1756C13.9152 54.6833 11.1201 57.1639 8.77009 60.8564Z" fill="#FFBF9D"/>
<path d="M4.54409 82.4588C4.78681 81.8572 5.14925 81.2837 5.49823 80.739C5.84902 80.1917 6.22092 79.6528 6.65068 79.1653C8.30677 77.2877 10.2365 75.8467 11.3606 75.1817C11.3831 75.1686 11.401 75.1956 11.3799 75.2116C11.0953 75.4277 8.15939 77.9046 7.03168 79.1551C6.60119 79.6324 6.21728 80.1498 5.83556 80.6672C5.61758 80.9624 5.40507 81.2622 5.20129 81.5676C4.99823 81.8722 4.81556 82.191 4.60414 82.4898C4.58267 82.5204 4.52917 82.4956 4.54409 82.4588Z" fill="#263238"/>
<path d="M15.8442 72.3179C15.8442 72.3179 19.4912 69.6518 21.958 68.0206C23.3343 67.1104 25.8328 65.7608 27.149 65.5553C29.118 65.2477 37.5498 65.2215 37.6004 67.2681C37.6459 69.1209 34.8079 68.6717 34.8079 68.6717C34.8079 68.6717 37.9556 68.8714 37.437 70.7231C36.9134 72.5915 33.2733 71.6453 33.2733 71.6453C33.2733 71.6453 36.6303 71.6252 35.8879 73.5487C35.2435 75.2186 30.9339 74.5853 30.9339 74.5853C30.9339 74.5853 34.4553 74.1772 33.9626 75.9528C33.4182 77.9149 26.8371 77.7779 26.8371 77.7779C24.1516 81.9007 21.6451 83.0714 19.798 83.3002C19.2856 83.3636 15.8442 72.3179 15.8442 72.3179Z" fill="#FFBF9D"/>
<path d="M34.2789 71.7542C33.99 71.6923 33.6992 71.6376 33.4103 71.5761C32.843 71.4558 32.288 71.3429 31.7098 71.29C31.1509 71.239 30.5919 71.2135 30.0308 71.2044C29.438 71.1946 28.8409 71.2456 28.2495 71.2215C28.2019 71.2197 28.2004 71.2878 28.2488 71.2875C28.8285 71.2831 29.4216 71.3793 29.9973 71.4416C30.5679 71.5035 31.1378 71.5735 31.7073 71.6435C32.2644 71.712 32.8215 71.7418 33.3797 71.7943C33.6581 71.8205 33.9354 71.8592 34.2123 71.8974C34.4714 71.9331 34.7429 72.0002 35.0049 71.9907C35.0311 71.99 35.0329 71.9524 35.0114 71.943C34.7843 71.8406 34.5209 71.806 34.2789 71.7542Z" fill="#263238"/>
<path d="M35.463 68.7261C35.002 68.5341 32.8692 68.1814 32.3182 68.1234C31.2542 68.0119 30.1749 67.9948 29.1105 68.0972C29.0734 68.1009 29.0719 68.1588 29.1098 68.1632C30.1749 68.2808 31.244 68.3829 32.3113 68.4856C32.8332 68.5359 35.1959 68.8369 35.4474 68.8372C35.5078 68.8376 35.5129 68.7469 35.463 68.7261Z" fill="#263238"/>
<path d="M33.2407 74.6289C32.7917 74.4671 30.7899 74.1541 30.2735 74.1162C29.7888 74.0809 27.7732 74.1778 27.1986 74.3017C27.1622 74.3097 27.1601 74.3669 27.1979 74.3677C28.2234 74.3844 29.2455 74.383 30.2695 74.4482C30.7684 74.4802 32.7498 74.7225 33.2287 74.7116C33.272 74.7105 33.28 74.6431 33.2407 74.6289Z" fill="#263238"/>
<path d="M13.9523 72.2931L21.6891 82.875C21.6891 82.875 14.9563 87.3632 9.06231 89.4438C6.1486 90.472 3.08133 90.0923 1.5013 88.9398C-3.27445 85.4554 4.55729 66.5547 8.11655 61.2998C11.6758 56.0446 14.2827 54.6615 13.4411 62.758C12.5994 70.8546 11.829 74.245 11.829 74.245L13.9523 72.2931Z" fill="#1A6980"/>
<path d="M19.4991 83.365C19.2811 83.0571 19.0875 82.7331 18.863 82.4293C18.6454 82.1349 18.427 81.8404 18.2025 81.5508C17.7465 80.962 17.2858 80.3772 16.8252 79.792C15.903 78.6209 14.9737 77.4531 14.0115 76.3149C13.7379 75.9913 13.4635 75.6688 13.1917 75.3438C12.9362 75.0381 12.6775 74.7051 12.3791 74.4409C12.3573 74.4216 12.3314 74.4504 12.3438 74.473C12.5206 74.7991 12.7663 75.1059 12.989 75.4021C13.2091 75.6951 13.4278 75.9888 13.6469 76.2824C14.0919 76.8793 14.545 77.4688 15.0039 78.0551C15.9085 79.2108 16.819 80.3626 17.7458 81.5005C18.0133 81.8288 18.284 82.1538 18.558 82.4766C18.8339 82.802 19.1366 83.1004 19.4194 83.4193C19.4594 83.4644 19.5358 83.4171 19.4991 83.365Z" fill="#263238"/>
<path d="M5.0446 81.4987C5.28731 80.8972 5.65012 80.3237 5.99909 79.7789C6.34989 79.2317 6.72179 78.6928 7.15155 78.2052C8.80727 76.3277 10.7374 74.8862 11.8614 74.2213C11.884 74.2081 11.9018 74.2351 11.8807 74.2511C11.5962 74.4672 8.65989 76.9442 7.53218 78.1947C7.10169 78.672 6.71778 79.1894 6.33606 79.7068C6.11808 80.0019 5.90557 80.3018 5.70179 80.6071C5.49874 80.9117 5.31606 81.2306 5.10464 81.5293C5.0828 81.5607 5.02968 81.5355 5.0446 81.4987Z" fill="#263238"/>
<path d="M14.2647 72.5964C14.201 72.4634 13.9525 72.165 13.9263 72.1712C13.7982 72.2014 12.2909 73.6968 11.9059 74.126C12.0446 73.5933 12.1643 73.0103 12.2622 72.4692C12.3695 71.8749 12.4733 71.2799 12.5726 70.6842C12.7309 69.7361 12.8845 68.7822 13.0024 67.8261C13.177 67.3306 13.3251 66.8241 13.4689 66.3213C13.4747 66.3012 13.4456 66.2907 13.4383 66.3104C13.3066 66.6605 13.1756 67.0132 13.0551 67.3692C13.0649 67.2796 13.077 67.1899 13.0861 67.0999C13.1552 66.4146 13.228 65.7288 13.2647 65.0409C13.2662 65.0143 13.2287 65.0129 13.2243 65.038C12.8026 67.4071 12.522 69.801 12.1359 72.1763C12.0271 72.846 11.8095 74.2812 11.8161 74.2819C11.835 74.2885 13.8411 72.3923 13.8997 72.3628C13.9143 72.3555 14.1061 72.5344 14.2072 72.635C14.2341 72.662 14.2825 72.6339 14.2647 72.5964Z" fill="#263238"/>
<path d="M20.7611 81.4703C20.6879 81.396 20.6286 81.4499 20.6945 81.533C21.0351 81.9629 21.32 82.3918 21.6319 82.8203C19.9037 83.8241 18.1734 84.8254 16.4085 85.7647C14.604 86.7252 12.791 87.6722 10.9232 88.5044C6.47128 90.4876 4.18056 89.7133 3.61616 89.8285C3.59578 89.8329 3.60233 89.8551 3.62271 89.8602C4.06484 89.9669 6.36065 90.6957 10.5793 88.9529C12.4686 88.1724 17.0846 85.7636 18.8764 84.7463C19.8826 84.175 21.0052 83.5461 21.9616 82.8953C21.9987 82.8695 21.1675 81.8813 20.7611 81.4703Z" fill="#263238"/>
<path d="M17.3062 60.5172C17.8884 61.4394 18.944 62.8193 18.944 62.8193C18.944 62.8193 19.3822 60.7227 19.3589 60.3492C19.3356 59.9758 17.931 59.6963 17.931 59.6963L17.3062 60.5172Z" fill="#FFBF9D"/>
<path d="M18.3325 61.4424C16.7416 61.8046 14.0375 59.3513 12.9778 57.3732C12.9061 57.2373 13.1248 55.8163 13.3097 54.0772C13.4174 53.0212 13.5127 51.8429 13.5222 50.7614C13.5229 50.5395 20.2819 52.4681 20.2819 52.4681C20.2819 52.4681 19.5963 54.7294 19.5916 56.6146C19.5931 56.7724 19.6073 56.9188 19.6342 57.0588C19.6364 57.0792 19.6422 57.1039 19.6433 57.1324C19.7732 57.9766 19.87 61.0912 18.3325 61.4424Z" fill="#FFBF9D"/>
<path d="M13.9382 50.7935C14.2366 52.6244 15.3341 57.0518 18.948 57.1651C19.1994 57.1731 19.4309 57.1629 19.6412 57.1334C19.6434 57.1032 19.6361 57.0809 19.6332 57.0591C19.6081 56.9181 19.5917 56.7734 19.5892 56.6164C19.5946 54.7275 20.2816 52.4666 20.2816 52.4666C20.2816 52.4666 15.4062 51.0755 13.9382 50.7935Z" fill="#263238"/>
<path d="M11.3392 43.6062C11.0557 46.1046 13.5666 52.7051 15.5283 53.9166C18.3722 55.6732 22.3983 55.1449 23.7298 51.8663C25.0205 48.6883 21.5963 40.1443 19.4638 39.1085C16.3231 37.5821 11.758 39.9155 11.3392 43.6062Z" fill="#FFBF9D"/>
<path d="M13.1854 49.9005C14.4023 49.4246 13.3019 46.4263 13.3019 46.4263C13.3019 46.4263 15.0853 45.4724 15.1708 42.572C15.1708 42.572 18.1009 43.3146 20.0237 42.2813C23.0379 40.6616 21.6056 36.5243 20.1336 36.0637C18.0474 35.4108 15.5878 38.1424 15.5878 38.1424C15.5878 38.1424 10.5974 38.3483 10.2357 41.8899C10.2357 41.8899 8.22298 42.6402 8.81176 44.944C9.40018 47.2483 12.2782 50.2554 13.1854 49.9005Z" fill="#263238"/>
<path d="M12.9727 46.9283C13.8238 46.4543 14.5542 45.7525 14.9421 44.8449C15.3424 43.9078 15.3474 42.6664 14.7649 41.8032C14.7332 41.7562 14.8125 41.7088 14.8413 41.7584C15.4108 42.744 15.7001 43.8524 15.3151 44.9644C14.9624 45.9832 14.0869 46.8281 13.0098 47.0172C12.9585 47.0267 12.9217 46.9568 12.9727 46.9283Z" fill="#263238"/>
<path d="M8.22114 43.6745C8.59231 42.6707 9.51515 42.2335 10.4773 41.9584C10.5322 41.9427 10.5555 42.0327 10.4998 42.044C9.52898 42.24 8.78772 43.1713 8.54792 44.0968C8.31284 45.0041 8.72695 45.9161 9.18873 46.6845C10.0748 48.1588 11.4758 49.2934 13.1253 49.7915C13.1526 49.7999 13.1414 49.8414 13.1137 49.8341C11.2702 49.3561 9.64397 48.1391 8.73096 46.4561C8.28555 45.6352 7.87871 44.6007 8.22114 43.6745Z" fill="#263238"/>
<path d="M15.5111 38.3344C15.7316 37.5371 16.1545 36.8758 16.8335 36.4156C17.6152 35.8858 18.6461 35.6811 19.5777 35.8261C20.3677 35.9489 20.9721 36.5227 21.2676 37.2682C21.6049 38.1183 21.4637 39.0664 21.1937 39.9055C21.1861 39.9296 21.15 39.9197 21.1562 39.8946C21.3436 39.1225 21.4139 38.295 21.1162 37.5339C20.8214 36.7796 20.2065 36.2662 19.4154 36.1821C17.9136 36.0228 16.0228 36.7417 15.5945 38.3584C15.5799 38.4131 15.4958 38.389 15.5111 38.3344Z" fill="#263238"/>
<path d="M13.8276 48.9031C13.8276 48.9031 11.8381 47.0197 10.9539 47.7739C10.0693 48.5285 11.8814 51.4799 13.142 51.6745C14.4025 51.8694 14.6056 50.7045 14.6056 50.7045L13.8276 48.9031Z" fill="#FFBF9D"/>
<path d="M11.4937 48.6072C11.4744 48.6094 11.4763 48.6363 11.4941 48.6396C12.3835 48.8032 12.9726 49.4762 13.4377 50.2042C13.1309 49.9503 12.7641 49.8522 12.4169 50.2272C12.3987 50.2468 12.426 50.276 12.4482 50.2665C12.7695 50.1251 13.0243 50.1335 13.307 50.3562C13.5072 50.5139 13.6669 50.7325 13.8274 50.9293C13.8809 50.9949 14.0053 50.9282 13.9598 50.8495C13.9566 50.8437 13.9526 50.8375 13.9493 50.832C13.7546 49.7794 12.6393 48.4808 11.4937 48.6072Z" fill="#263238"/>
<path d="M19.0129 46.4893C19.0034 46.4737 18.9852 46.5232 18.9925 46.5414C19.1653 46.9863 19.2883 47.5252 18.9343 47.8182C18.9233 47.8273 18.9324 47.8495 18.947 47.8419C19.4182 47.597 19.2476 46.8832 19.0129 46.4893Z" fill="#263238"/>
<path d="M18.4458 46.1613C17.7038 46.3617 18.1583 47.8334 18.8461 47.6475C19.5226 47.465 19.0681 45.9933 18.4458 46.1613Z" fill="#263238"/>
<path d="M21.5381 45.6388C21.5363 45.6202 21.5804 45.6493 21.5854 45.6679C21.7121 46.1281 21.9341 46.6342 22.3926 46.6579C22.4068 46.6586 22.4126 46.6819 22.3966 46.6845C21.8722 46.7694 21.584 46.095 21.5381 45.6388Z" fill="#263238"/>
<path d="M21.7975 45.0362C22.5126 44.7539 23.0242 46.2066 22.3619 46.4682C21.7098 46.7258 21.1982 45.2731 21.7975 45.0362Z" fill="#263238"/>
<path d="M17.5541 45.6609C17.7393 45.5494 17.8914 45.4157 18.0632 45.2863C18.2567 45.1406 18.426 45.0444 18.5093 44.805C18.5541 44.6767 18.4649 44.4982 18.3448 44.4428C18.0646 44.3142 17.783 44.4341 17.5424 44.6002C17.2815 44.7802 17.1269 44.9861 17.0384 45.2903C16.9526 45.5851 17.3099 45.8077 17.5541 45.6609Z" fill="#263238"/>
<path d="M22.2578 44.0879C22.0468 44.1341 21.8445 44.1414 21.6308 44.1655C21.3899 44.1928 21.2007 44.2391 20.9762 44.1225C20.8558 44.0598 20.7979 43.8692 20.8477 43.7461C20.9631 43.4601 21.2502 43.3537 21.5388 43.3088C21.8521 43.2604 22.1057 43.3034 22.3786 43.4637C22.6428 43.6193 22.5362 44.027 22.2578 44.0879Z" fill="#263238"/>
<path d="M19.3378 50.4257C19.4463 50.543 19.5522 50.7026 19.7239 50.7259C19.8888 50.7482 20.0867 50.6833 20.2418 50.6319C20.257 50.6268 20.2716 50.6436 20.261 50.6574C20.1282 50.8341 19.8626 50.9354 19.6439 50.8855C19.4303 50.8367 19.3331 50.645 19.2909 50.445C19.2851 50.4169 19.3222 50.4089 19.3378 50.4257Z" fill="#263238"/>
<path d="M19.6183 49.4474C19.9953 49.764 20.4371 49.8642 20.8665 49.8176C21.0586 49.7979 21.2508 49.7451 21.432 49.6704C21.4684 49.6583 21.5037 49.6427 21.5346 49.6252C21.5666 49.611 21.5954 49.5979 21.6296 49.5789C21.6805 49.5545 21.6962 49.5017 21.6892 49.4485L21.6882 49.4452C21.6827 49.4284 21.6783 49.4153 21.6696 49.4C21.6696 49.4 21.6696 49.4 21.6685 49.3967L21.6554 49.357C21.5564 49.0032 21.3574 48.4796 21.3574 48.4796C21.5051 48.5044 22.2493 48.5962 22.1823 48.4159C21.6227 46.926 21.0004 45.2688 20.1292 43.9047C20.1027 43.858 20.0299 43.8934 20.0499 43.9422C20.531 45.3956 21.2642 46.7544 21.7711 48.2064C21.5382 48.1918 21.1529 48.1502 20.9706 48.2107C20.9254 48.2406 21.373 49.2153 21.4047 49.3778C21.4047 49.3778 21.4069 49.3843 21.4069 49.3956C20.8414 49.6532 20.3421 49.6128 19.6482 49.3938C19.6063 49.3778 19.5798 49.4201 19.6183 49.4474Z" fill="#263238"/>
<path d="M18.9442 62.8191L17.76 59.8881L13.0662 56.168L11.3013 58.1651L16.6738 62.8672L17.3259 61.4392L18.9442 62.8191Z" fill="#1A6980"/>
<path opacity="0.4" d="M18.9442 62.8191L17.76 59.8881L13.0662 56.168L11.3013 58.1651L16.6738 62.8672L17.3259 61.4392L18.9442 62.8191Z" fill="white"/>
<path opacity="0.1" d="M17.3259 61.4393L17.601 60.7915L18.9442 62.8192L17.3259 61.4393Z" fill="black"/>
<path d="M18.9441 62.8192L19.1064 59.4357L19.6329 57.0586L20.7166 58.3269L20.273 61.6387L19.5063 60.7044L18.9441 62.8192Z" fill="#1A6980"/>
<path opacity="0.4" d="M18.9441 62.8192L19.1064 59.4357L19.6329 57.0586L20.7166 58.3269L20.273 61.6387L19.5063 60.7044L18.9441 62.8192Z" fill="white"/>
<path opacity="0.1" d="M19.5063 60.7045L19.3677 60.5347L18.9441 62.8192L19.5063 60.7045Z" fill="black"/>
</svg>
