<svg width="170" height="119" viewBox="0 0 170 119" fill="none" xmlns="http://www.w3.org/2000/svg">
<path d="M29.0696 92.8034C29.0696 92.8034 -6.01804 50.8417 0.904432 46.737C7.8269 42.6324 32.0104 91.3951 32.0104 91.3951C32.0104 91.3951 11.8368 53.3213 19.0933 50.1075C26.3499 46.8937 34.4406 91.6736 34.4406 91.6736L27.5631 94.8599C27.5631 94.8599 -1.04106 78.2666 1.91455 73.7743C4.87016 69.2823 29.0696 92.8034 29.0696 92.8034Z" fill="#F5D7A6"/>
<path d="M28.5441 94.4654C19.1258 85.8745 10.9912 79.6757 3.67505 75.5151L3.81509 75.269C11.1498 79.4405 19.3009 85.651 28.7351 94.2563L28.5441 94.4654Z" fill="#DBA9A9"/>
<path d="M30.7478 93.3982C20.0132 74.7737 10.5447 60.0357 1.80054 48.3423L2.0274 48.1729C10.7783 59.8756 20.2533 74.6227 30.9931 93.2567L30.7478 93.3982Z" fill="#DBA9A9"/>
<path d="M32.9803 92.3195C29.0229 75.6922 24.7763 62.6864 19.9983 52.5588L20.2546 52.438C25.0409 62.5833 29.2936 75.6073 33.2559 92.2538L32.9803 92.3195Z" fill="#DBA9A9"/>
<path d="M117.384 44.3648C117.384 44.3648 131.821 10.0166 126.492 8.73133C121.163 7.44603 115.187 44.0371 115.187 44.0371C115.187 44.0371 120.694 15.2084 115.326 14.5697C109.957 13.931 113.66 44.7056 113.66 44.7056L118.776 45.4021C118.776 45.4021 134.075 28.8691 131.251 26.5363C128.427 24.2039 117.384 44.3648 117.384 44.3648Z" fill="#F5D7A6"/>
<path d="M118.098 45.3647L117.854 45.2208C122.274 37.7258 126.339 32.0467 130.28 27.8594L130.486 28.0534C126.559 32.2256 122.507 37.8881 118.098 45.3647Z" fill="#DBA9A9"/>
<path d="M116.454 45.0987L116.179 45.0357C119.439 30.7491 122.653 19.2482 126.006 9.87598L126.273 9.97148C122.923 19.3328 119.711 30.8231 116.454 45.0987Z" fill="#DBA9A9"/>
<path d="M114.504 44.8488C113.748 33.2155 113.908 23.8813 114.992 16.313L115.272 16.3534C114.191 23.9017 114.032 33.217 114.786 44.8307L114.504 44.8488Z" fill="#DBA9A9"/>
<path d="M67.3527 86.177L67.0696 86.1717C67.0715 86.0694 67.2202 75.7939 65.003 62.8069C62.9578 50.8282 58.424 34.0273 48.4395 22.0142L48.6573 21.833C58.6829 33.8959 63.2322 50.7501 65.283 62.7643C67.5041 75.7769 67.3546 86.0747 67.3527 86.177Z" fill="#DBA9A9"/>
<path d="M49.0251 22.1864C46.2299 22.1898 44.74 20.3315 44.1331 17.2144C47.0003 17.699 48.7261 19.2663 49.0251 22.1864Z" fill="#F5D7A6"/>
<path d="M50.7499 24.755C48.9003 26.8508 46.5211 26.7349 43.7844 25.1242C46.0474 23.298 48.3647 23.0443 50.7499 24.755Z" fill="#F5D7A6"/>
<path d="M54.2013 30.0423C52.3517 32.138 49.9725 32.0221 47.2358 30.4115C49.4988 28.5853 51.8161 28.3312 54.2013 30.0423Z" fill="#F5D7A6"/>
<path d="M57.3149 36.2874C55.4652 38.3831 53.086 38.2673 50.3494 36.6566C52.6123 34.8304 54.9296 34.5763 57.3149 36.2874Z" fill="#F5D7A6"/>
<path d="M52.6335 27.5578C51.0874 25.2292 51.814 22.961 54.0777 20.7339C55.2569 23.3917 54.9032 25.6961 52.6335 27.5578Z" fill="#F5D7A6"/>
<path d="M56.1708 33.5417C54.6247 31.2131 55.3514 28.9449 57.6151 26.7178C58.7943 29.3759 58.4406 31.68 56.1708 33.5417Z" fill="#F5D7A6"/>
<path d="M59.6962 40.9996C58.1501 38.671 58.8767 36.4028 61.1404 34.1753C62.3193 36.8335 61.9656 39.1375 59.6962 40.9996Z" fill="#F5D7A6"/>
<path d="M65.5282 66.8195L65.2526 66.7561C65.3221 66.4526 72.1075 36.1782 61.5032 16.0389L61.7538 15.9067C72.4072 36.14 65.5984 66.5153 65.5282 66.8195Z" fill="#DBA9A9"/>
<path d="M61.942 16.2431C59.8588 15.8044 59.0423 14.1847 59.0819 11.7666C61.1418 12.5801 62.1802 14.0201 61.942 16.2431Z" fill="#F5D7A6"/>
<path d="M62.8216 18.4303C61.1128 19.6998 59.3587 19.2377 57.574 17.6059C59.5478 16.6022 61.3144 16.7789 62.8216 18.4303Z" fill="#F5D7A6"/>
<path d="M64.5579 22.9135C62.8491 24.1829 61.095 23.7209 59.3103 22.0891C61.2845 21.0857 63.0511 21.2624 64.5579 22.9135Z" fill="#F5D7A6"/>
<path d="M65.8922 28.0575C64.1833 29.3269 62.4292 28.8649 60.6445 27.2331C62.6187 26.2298 64.3853 26.4064 65.8922 28.0575Z" fill="#F5D7A6"/>
<path d="M63.7826 20.8147C62.9982 18.8356 63.8977 17.2604 65.9357 15.9585C66.3947 18.1252 65.7673 19.7861 63.7826 20.8147Z" fill="#F5D7A6"/>
<path d="M65.4735 25.8318C64.6891 23.8527 65.5886 22.2775 67.6266 20.9756C68.0856 23.1419 67.4582 24.8028 65.4735 25.8318Z" fill="#F5D7A6"/>
<path d="M66.9225 31.9446C66.1381 29.9655 67.0376 28.3903 69.0756 27.0884C69.5342 29.2547 68.9068 30.9156 66.9225 31.9446Z" fill="#F5D7A6"/>
<path d="M148.538 91.1977L148.259 91.1505C150.299 79.0419 154.848 62.0606 164.935 49.9248L165.152 50.1056C155.106 62.1927 150.572 79.1231 148.538 91.1977Z" fill="#DBA9A9"/>
<path d="M164.566 50.2772C167.362 50.2806 168.851 48.4223 169.458 45.3052C166.591 45.7899 164.865 47.3571 164.566 50.2772Z" fill="#F5D7A6"/>
<path d="M162.842 52.847C164.691 54.9427 167.07 54.8268 169.807 53.2162C167.544 51.3899 165.227 51.1359 162.842 52.847Z" fill="#F5D7A6"/>
<path d="M159.39 58.1335C161.24 60.2292 163.619 60.1133 166.356 58.5026C164.093 56.6764 161.775 56.4227 159.39 58.1335Z" fill="#F5D7A6"/>
<path d="M156.277 64.3792C158.126 66.4749 160.505 66.3591 163.242 64.7484C160.979 62.9222 158.662 62.6681 156.277 64.3792Z" fill="#F5D7A6"/>
<path d="M160.957 55.6495C162.504 53.3209 161.777 51.0527 159.513 48.8252C158.334 51.4834 158.688 53.7875 160.957 55.6495Z" fill="#F5D7A6"/>
<path d="M157.421 61.6329C158.967 59.3043 158.24 57.0361 155.976 54.8086C154.797 57.4668 155.151 59.7712 157.421 61.6329Z" fill="#F5D7A6"/>
<path d="M153.895 69.0906C155.442 66.7619 154.715 64.4937 152.451 62.2666C151.272 64.9248 151.626 67.2289 153.895 69.0906Z" fill="#F5D7A6"/>
<path d="M117.274 86.0948C118.157 65.6644 123.6 48.6593 134.279 35.5874L136.875 37.619L135.689 33.919C141.031 27.8088 147.586 22.6103 155.429 18.3784C155.256 21.5896 155.026 25.3039 154.628 29.3746L150.822 31.0098L154.382 31.736C153.673 38.1217 152.525 45.265 150.548 52.6488L144.565 54.9585L149.609 55.9588C146.554 66.1408 141.837 76.6277 134.457 86.0944H117.274V86.0948Z" fill="#F5D7A6"/>
<path d="M125.497 86.1128L125.216 86.0773C129.635 50.861 151.617 23.2342 151.838 22.959L152.059 23.1368C151.838 23.4108 129.905 50.978 125.497 86.1128Z" fill="#DBA9A9"/>
<path d="M69.2902 97.7595C68.2382 73.4378 61.7593 53.1932 49.046 37.6315L45.9552 40.05L47.367 35.6452C41.0073 28.3713 33.2038 22.1823 23.8674 17.1445C24.0732 20.9672 24.3464 25.3893 24.8206 30.2353L29.3514 32.1819L25.1138 33.0467C25.9579 40.6486 27.3239 49.1527 29.6782 57.9429L36.8004 60.6928L30.7963 61.8837C34.4329 74.0051 40.0478 86.4897 48.8346 97.7595H69.2902Z" fill="#F5D7A6"/>
<path d="M59.5269 97.7773C56.7846 75.9186 48.3322 56.6954 41.7246 44.4185C34.5635 31.1137 27.9661 22.8731 27.9004 22.7916L28.1208 22.6138C28.1869 22.6957 34.7976 30.9518 41.9707 44.2781C48.5912 56.5776 57.0598 75.8371 59.8078 97.7418L59.5269 97.7773Z" fill="#DBA9A9"/>
<path d="M126.013 66.2898C127.884 57.0477 122.386 43.638 116.068 38.3036C109.75 32.9691 106.401 29.5628 104.646 19.0657C103.36 11.3784 99.8548 3.54701 91.7436 1.25839C87.1774 -0.0299233 82.2128 0.842794 78.3611 3.61684C74.2051 6.60982 71.9546 11.6763 70.7128 16.5072C69.6555 20.6186 69.2391 24.8455 67.2143 28.6576C65.1322 32.5773 61.7893 35.4816 58.4468 38.3036C52.129 43.638 46.6304 57.0477 48.5023 66.2898C50.3741 75.5318 46.7066 75.488 48.1308 84.045C49.555 92.6019 57.9583 98.7411 57.9583 98.7411L83.9379 100.428L86.5844 70.4182L87.257 55.1241L87.9297 70.4182L90.5761 100.428L116.556 98.7411C116.556 98.7411 124.959 92.6019 126.383 84.045C127.808 75.488 124.141 75.5318 126.013 66.2898Z" fill="black"/>
<path d="M92.5252 27.0503H81.8843V38.194H92.5252V27.0503Z" fill="#FFBF9D"/>
<path d="M119.199 58.7407C118.703 60.2544 108.634 66.836 105.648 66.5087L110.142 59.7527L119.199 58.7407Z" fill="#DDA8A8"/>
<path d="M106.371 65.5018L109.164 58.5752L116.856 59.2056L119.778 64.8092C117.54 68.4631 115.722 72.63 112.015 75.4244C109.634 73.4299 106.371 65.5018 106.371 65.5018Z" fill="#FFBF9D"/>
<path d="M93.3064 35.5449C93.3064 35.5449 102.491 35.8386 106.656 39.7651C112.097 45.0248 119.199 58.7406 119.199 58.7406C115.512 59.0249 106.415 64.4529 105.648 66.5086L100.861 60.1456L93.3064 35.5449Z" fill="white"/>
<path d="M56.1648 58.7407C56.66 60.2544 66.7291 66.836 69.7157 66.5087L65.2215 59.7527L56.1648 58.7407Z" fill="#DDA8A8"/>
<path d="M68.9926 65.5018L66.1993 58.5752L58.5072 59.2056L55.5859 64.8092C57.8236 68.4631 59.6415 72.63 63.3487 75.4244C65.729 73.4299 68.9926 65.5018 68.9926 65.5018Z" fill="#FFBF9D"/>
<path d="M81.0663 35.5449C81.0663 35.5449 72.8725 35.8386 68.7071 39.7651C63.2662 45.0248 56.1648 58.7406 56.1648 58.7406C59.8519 59.0249 68.949 64.4529 69.7157 66.5086L74.5024 60.1456L81.0663 35.5449Z" fill="white"/>
<path d="M121.226 103.312C123.338 103.465 125.891 103.532 127.81 103.206C132.503 102.113 133.319 105.544 135.549 108.56C137.045 110.583 139.242 111.967 141.684 112.577C146.458 113.768 147.315 115.686 146.245 118.211C141.984 118.273 129.575 117.693 120.008 115.495C121.177 111.779 121.681 107.763 121.226 103.312Z" fill="#F5D7A6"/>
<path d="M122.141 115.97L121.874 115.877C123.285 111.83 123.669 107.648 123.017 103.448L123.296 103.404C123.956 107.651 123.567 111.879 122.141 115.97Z" fill="black"/>
<path d="M87.9096 76.3579C93.8838 76.3609 99.8468 74.7823 105.853 71.4639C104.671 68.0512 102.952 66.0544 103.061 63.93C103.093 62.7104 95.339 62.1185 87.6812 62.1751C80.023 62.1185 72.2697 62.7104 72.3011 63.93C72.4102 66.0548 70.6911 68.0512 69.5093 71.4639C75.5156 74.7819 81.4786 76.3609 87.4528 76.3579C87.5291 76.359 87.6049 76.359 87.6812 76.3598C87.7574 76.3594 87.8337 76.359 87.9096 76.3579Z" fill="#FFBF9D"/>
<path d="M146.291 81.9799C136.588 78.9379 122.009 76.8693 108.625 76.1023C108.012 74.1553 107.075 72.5072 105.884 71.0947C95.8524 74.4965 78.3988 74.8159 69.4957 71.0947C68.4868 72.6473 67.679 74.3123 67.0969 76.1023C53.7132 76.8693 39.1345 78.9379 29.4308 81.9799C16.9357 85.752 17.5064 101.205 29.5403 104.397C36.5186 105.915 44.2051 106.615 53.0198 106.639C53.309 109.657 54.0314 112.836 55.0242 116.115L87.8609 111.771L120.15 116.05C121.367 113.525 121.893 110.951 122.292 107.707C130.787 106.713 139.203 105.915 146.182 104.397C158.216 101.205 158.787 85.752 146.291 81.9799Z" fill="#1A6980"/>
<path d="M122.276 107.565L87.8455 111.632L87.8786 111.913L122.31 107.846L122.276 107.565Z" fill="black"/>
<path d="M52.531 99.9622L52.4688 99.6859C59.3312 98.1375 65.5973 96.6174 71.6572 95.1479C91.1004 90.4318 107.892 86.3588 132.131 84.3926L132.154 84.6749C107.937 86.6393 91.1556 90.7096 71.7236 95.4231C65.6629 96.8926 59.3958 98.4127 52.531 99.9622Z" fill="black"/>
<path d="M83.7431 92.5105C79.595 91.6691 75.8112 90.8349 72.152 90.0283C62.7416 87.9541 54.6146 86.1626 44.9419 85.2748L44.9676 84.9932C54.658 85.8821 62.793 87.6751 72.2124 89.7516C75.8705 90.5579 79.6532 91.3917 83.7989 92.2331L83.7431 92.5105Z" fill="black"/>
<path d="M54.6487 114.848L23.8714 118.211C22.8013 115.686 23.6585 113.768 28.432 112.577C30.8735 111.967 33.0708 110.583 34.5675 108.56C36.7976 105.544 37.6137 102.113 42.3061 103.206C46.2359 103.873 52.833 102.896 52.833 102.896C52.8632 107.301 53.5763 111.168 54.6487 114.848Z" fill="#FFBF9D"/>
<path d="M48.8903 103.312C46.7784 103.465 44.2248 103.532 42.3061 103.206C37.6133 102.113 36.7972 105.544 34.5675 108.56C33.0712 110.583 30.8739 111.967 28.432 112.577C23.6585 113.768 22.8013 115.686 23.8714 118.211C28.132 118.273 40.5414 117.693 50.1084 115.495C48.9394 111.779 48.4355 107.763 48.8903 103.312Z" fill="#F5D7A6"/>
<path d="M105.532 43.7777C102.327 35.5095 92.555 35.5186 92.555 35.5186C89.5677 37.8574 84.6292 37.7207 81.8642 35.5186C81.8642 35.5186 72.8739 35.5091 69.6688 43.7777C67.3277 48.6565 66.2251 54.7719 71.0874 59.8119L71.4448 64.1706C81.7479 66.0146 92.5184 66.015 103.756 64.1706L104.113 59.8119C108.976 54.7719 107.874 48.6565 105.532 43.7777Z" fill="white"/>
<path d="M71.3039 64.1819L70.9506 59.8738C66.9569 55.7046 66.4692 50.1187 69.5415 43.7168L69.7966 43.8391C66.7282 50.2339 67.1966 55.5747 71.1899 59.7133L71.225 59.75L71.5866 64.1592L71.3039 64.1819Z" fill="black"/>
<path d="M103.897 64.1817L103.615 64.1587L103.976 59.7495L104.012 59.7129C108.005 55.5742 108.473 50.2334 105.405 43.8386L105.66 43.7163C108.732 50.1179 108.245 55.7037 104.251 59.8733L103.897 64.1817Z" fill="black"/>
<path d="M78.0402 85.8682C75.5689 80.0634 67.1245 76.2695 67.0396 76.2321L67.1543 75.9731C67.2404 76.0113 75.7856 79.8494 78.3011 85.7576L78.0402 85.8682Z" fill="black"/>
<path d="M101.936 82.5857L101.677 82.469C103.321 78.817 108.346 76.0916 108.558 75.978L108.692 76.2272C108.641 76.2547 103.54 79.022 101.936 82.5857Z" fill="black"/>
<path d="M86.7772 76.3052C80.2741 76.3052 74.0685 75.2505 68.3369 73.1408L68.4347 72.8754C79.9068 77.0971 93.2969 77.0703 107.159 72.7954L107.243 73.0661C100.241 75.2252 93.3569 76.3052 86.7772 76.3052Z" fill="black"/>
<path d="M87.4791 75.0139C87.4791 75.3333 87.2201 75.5919 86.9012 75.5919C86.5818 75.5919 86.3232 75.3329 86.3232 75.0139C86.3232 74.6946 86.5822 74.436 86.9012 74.436C87.2205 74.4357 87.4791 74.6946 87.4791 75.0139Z" fill="black"/>
<path d="M89.4935 75.0139C89.4935 75.3333 89.2345 75.5919 88.9156 75.5919C88.5962 75.5919 88.3376 75.3329 88.3376 75.0139C88.3376 74.6946 88.5966 74.436 88.9156 74.436C89.2345 74.4357 89.4935 74.6946 89.4935 75.0139Z" fill="black"/>
<path d="M88.9153 74.8721H86.9011V75.1552H88.9153V74.8721Z" fill="black"/>
<path d="M86.3439 84.3577C86.2144 84.3577 86.0792 84.3317 85.9388 84.2792C85.5602 84.138 85.2926 83.8609 85.1435 83.4555C84.2946 81.145 87.5963 75.1964 87.7375 74.9443C87.7677 74.8895 87.8296 74.8624 87.8911 74.8752C87.9523 74.8884 87.9972 74.9401 88.0021 75.0024C88.0274 75.3236 88.6068 82.8818 86.9127 84.161C86.7394 84.292 86.5488 84.3577 86.3439 84.3577ZM87.7526 75.515C87.0018 76.9422 84.7317 81.5131 85.4096 83.3578C85.5304 83.6866 85.7361 83.901 86.0381 84.0134C86.3084 84.1146 86.539 84.0886 86.7425 83.9346C88.0802 82.9248 87.8534 77.2329 87.7526 75.515Z" fill="black"/>
<path d="M89.6709 82.4333C89.0318 82.4333 88.5101 82.2219 88.1134 81.8029C86.4552 80.0499 87.5725 75.2651 87.6208 75.062C87.6329 75.0114 87.6714 74.9718 87.7216 74.9582C87.7714 74.9442 87.825 74.9597 87.8609 74.9975C88.033 75.1779 92.0678 79.4418 91.4556 81.4409C91.308 81.9229 90.9139 82.2374 90.2843 82.3752C90.0695 82.4144 89.8649 82.4333 89.6709 82.4333ZM87.8397 75.3912C87.6299 76.4213 86.9772 80.1903 88.3191 81.6085C88.7661 82.0815 89.4089 82.2457 90.2295 82.0977C90.7542 81.983 91.0683 81.741 91.1853 81.3586C91.6798 79.7438 88.6306 76.259 87.8397 75.3912Z" fill="black"/>
<path d="M88.1206 75.3238L87.8381 75.3428L88.7791 89.3565L89.0616 89.3375L88.1206 75.3238Z" fill="black"/>
<path d="M47.9753 115.97C46.5493 111.878 46.1605 107.651 46.8203 103.404L47.1 103.448C46.4473 107.648 46.832 111.829 48.2426 115.877L47.9753 115.97Z" fill="black"/>
<path d="M79.4309 61.1821C78.6763 61.1821 78.0101 61.1006 77.4541 60.99C75.7033 60.642 74.66 59.9587 74.6162 59.9297L74.7729 59.6937C74.8144 59.7209 78.95 62.3855 84.4052 59.6851L84.5309 59.9387C82.613 60.8877 80.863 61.1821 79.4309 61.1821Z" fill="black"/>
<path d="M96.1222 61.1761C94.655 61.1761 92.9311 60.8669 91.0562 59.9387L91.1815 59.6851C96.6378 62.3847 100.773 59.7213 100.815 59.6937L100.971 59.9297C100.943 59.9485 99.0431 61.1761 96.1222 61.1761Z" fill="black"/>
<path d="M55.5858 64.8086L55.4809 65.0098C45.8334 66.9474 29.2971 72.7502 29.2971 72.7502L31.551 81.9772C31.551 81.9772 54.9305 79.2069 62.9956 75.6836C63.1104 75.6149 63.2285 75.525 63.3486 75.4246C59.6414 72.6294 57.8235 68.4625 55.5858 64.8086Z" fill="#FFBF9D"/>
<path d="M34.2158 75.7712C33.5159 73.6173 32.1763 72.8476 30.6705 72.184C30.6705 72.184 30.0874 67.489 29.1773 66.8009C28.2672 66.1124 23.36 66.5748 23.36 66.5748C22.7912 68.4912 24.8129 69.7297 26.7562 69.7014C26.8837 69.5984 26.9185 73.5033 26.9185 73.5033L24.3449 74.6059L20.9408 72.4483C22.6987 70.875 24.1259 69.1846 22.9735 67.2648C21.5606 67.651 20.4697 68.4154 19.2641 69.1035C19.2641 69.1035 16.664 72.0633 16.7509 73.5377C16.8377 75.0121 19.4332 76.953 19.4332 76.953L12.2687 80.5164C10.2632 81.6692 9.9907 82.8737 10.706 84.1073L12.2378 83.5252C10.4841 84.8377 10.3021 86.1468 11.3115 87.4528L17.8002 85.1102C16.6871 86.0165 16.29 87.1727 16.8218 88.0504L26.5923 84.5391C31.5693 82.8269 35.4984 80.4545 34.2158 75.7712Z" fill="#FFBF9D"/>
<path d="M24.7961 82.1349L17.7488 84.9751L17.8546 85.2377L24.9019 82.3975L24.7961 82.1349Z" fill="black"/>
<path d="M22.81 78.7905L12.1841 83.3936L12.2965 83.653L22.9224 79.0499L22.81 78.7905Z" fill="black"/>
<path d="M20.938 72.3018L19.7417 72.3516L19.7535 72.6348L20.9498 72.585L20.938 72.3018Z" fill="black"/>
<path d="M27.7175 68.9263L26.6824 69.5762L26.8327 69.8156L27.8678 69.1657L27.7175 68.9263Z" fill="black"/>
<path d="M27.5458 78.6544C25.2247 75.8596 26.7852 73.4491 26.8014 73.4253L27.0369 73.5823C26.9765 73.6733 25.5814 75.846 27.7636 78.474L27.5458 78.6544Z" fill="black"/>
<path d="M32.0638 82.0391L31.8977 81.8096C31.9147 81.7971 33.6258 80.5413 34.044 79.1001L34.3162 79.179C33.87 80.7149 32.1374 81.9859 32.0638 82.0391Z" fill="black"/>
<path d="M55.6035 64.9504L55.355 65.0859L56.3754 66.9575L56.6239 66.822L55.6035 64.9504Z" fill="black"/>
<path d="M119.777 64.8086L119.882 65.0098C129.53 66.9474 146.066 72.7502 146.066 72.7502L143.812 81.9772C143.812 81.9772 120.433 79.2069 112.368 75.6836C112.253 75.6149 112.135 75.525 112.015 75.4246C115.722 72.6294 117.54 68.4625 119.777 64.8086Z" fill="#FFBF9D"/>
<path d="M141.147 75.7712C141.847 73.6173 143.187 72.8476 144.692 72.184C144.692 72.184 145.276 67.489 146.186 66.8009C147.096 66.1124 152.003 66.5748 152.003 66.5748C152.572 68.4912 150.55 69.7297 148.607 69.7014C148.479 69.5984 148.444 73.5033 148.444 73.5033L151.018 74.6059L154.422 72.4483C152.665 70.875 151.237 69.1846 152.389 67.2648C153.802 67.651 154.893 68.4154 156.099 69.1035C156.099 69.1035 158.699 72.0633 158.612 73.5377C158.525 75.0121 155.93 76.953 155.93 76.953L163.094 80.5164C165.1 81.6692 165.372 82.8737 164.657 84.1073L163.125 83.5252C164.879 84.8377 165.061 86.1468 164.051 87.4528L157.562 85.1102C158.675 86.0165 159.073 87.1727 158.541 88.0504L148.77 84.5391C143.794 82.8269 139.865 80.4545 141.147 75.7712Z" fill="#FFBF9D"/>
<path d="M150.561 82.1374L150.455 82.3999L157.501 85.2433L157.607 84.9807L150.561 82.1374Z" fill="black"/>
<path d="M163.069 83.6555L152.443 79.0518L152.556 78.7925L163.182 83.3958L163.069 83.6555Z" fill="black"/>
<path d="M154.418 72.3115L154.406 72.5947L155.603 72.6441L155.614 72.3608L154.418 72.3115Z" fill="black"/>
<path d="M147.643 68.9396L147.493 69.1792L148.529 69.8283L148.679 69.5887L147.643 68.9396Z" fill="black"/>
<path d="M147.818 78.6544L147.601 78.474C149.782 75.846 148.387 73.6733 148.327 73.5823L148.562 73.4253C148.578 73.4491 150.139 75.8592 147.818 78.6544Z" fill="black"/>
<path d="M143.3 82.0392C143.226 81.9856 141.493 80.7147 141.048 79.1795L141.32 79.1006C141.738 80.5433 143.449 81.7976 143.466 81.8101L143.3 82.0392Z" fill="black"/>
<path d="M119.755 64.9353L118.734 66.8062L118.982 66.9418L120.004 65.0709L119.755 64.9353Z" fill="black"/>
<path d="M87.1503 39.2835C87.0979 39.2835 87.0462 39.2832 86.9937 39.2828C84.7715 39.2556 81.5834 38.6324 79.0139 35.818L79.223 35.627C81.7238 38.3663 84.8308 38.9729 86.9971 38.9997C90.2702 39.0506 93.6625 37.7276 95.648 35.6572L95.8522 35.8534C93.8157 37.9771 90.4932 39.2835 87.1503 39.2835Z" fill="black"/>
<path d="M98.4215 12.2508C98.0957 9.21063 96.7296 6.47168 94.1553 4.7455C88.9428 1.25048 80.9369 2.05601 77.4634 7.62826C77.0218 8.33678 76.6809 9.1072 76.4612 9.91311C76.2533 10.676 76.137 11.4623 76.0932 12.2512C76.0932 12.2512 75.4708 18.0344 76.4054 21.6219C76.9572 23.6558 77.779 25.6503 79.039 27.3595C79.9212 28.5561 81.0215 29.5987 82.3158 30.3498C83.2459 30.8896 84.267 31.2758 85.3258 31.4789C85.9449 31.5978 86.5779 31.6574 87.2117 31.6706C87.2268 31.6706 87.2419 31.6684 87.257 31.6684C87.2721 31.6684 87.2872 31.6706 87.3023 31.6661C87.936 31.6574 88.5691 31.5978 89.1881 31.4792C90.2469 31.2762 91.268 30.89 92.1981 30.3502C93.4924 29.5991 94.5932 28.5565 95.4753 27.3599C96.7353 25.6503 97.5574 23.6561 98.1089 21.6223C99.0439 18.0352 98.4219 12.2542 98.4215 12.2508Z" fill="#FFBF9D"/>
<path d="M77.1616 17.2358C77.1616 17.2358 74.0985 15.6957 72.7845 17.7303C71.4701 19.7648 73.9913 26.759 77.8807 22.7461C81.7695 18.7336 77.1616 17.2358 77.1616 17.2358Z" fill="#FFBF9D"/>
<path d="M75.4616 22.3464C74.387 21.6975 73.8487 20.1344 74.1027 19.2224C74.2333 18.7532 74.55 18.4946 74.9943 18.4946V18.7777C74.6799 18.7777 74.4715 18.9529 74.3752 19.2983C74.1529 20.0978 74.6527 21.5272 75.6081 22.104L75.4616 22.3464Z" fill="black"/>
<path d="M75.8277 21.2186C75.2921 20.586 74.5707 21.0469 74.5405 21.0669L74.385 20.8302C74.7149 20.6135 75.4861 20.3768 76.044 21.0355L75.8277 21.2186Z" fill="black"/>
<path d="M97.2906 17.2358C97.2906 17.2358 100.354 15.6957 101.668 17.7303C102.982 19.7648 100.461 26.759 96.5715 22.7461C92.6827 18.7336 97.2906 17.2358 97.2906 17.2358Z" fill="#FFBF9D"/>
<path d="M98.9903 22.3464L98.8442 22.104C99.7989 21.5276 100.299 20.0978 100.077 19.2983C99.9804 18.9529 99.7721 18.7777 99.4576 18.7777V18.4946C99.9019 18.4946 100.219 18.7528 100.349 19.2224C100.603 20.1344 100.065 21.6979 98.9903 22.3464Z" fill="black"/>
<path d="M98.6246 21.2191L98.4087 21.0364C98.9666 20.3781 99.7374 20.6143 100.068 20.831L99.9125 21.0677C99.882 21.0477 99.1583 20.5887 98.6246 21.2191Z" fill="black"/>
<path d="M87.1149 31.892C85.4344 31.892 83.5478 31.4266 81.6133 30.0726L81.7756 29.8408C86.5027 33.149 90.9414 30.9936 92.6306 29.9137L92.7831 30.1522C91.7367 30.8215 89.6629 31.892 87.1149 31.892Z" fill="black"/>
<path d="M82.1469 21.2221C81.3916 21.2221 80.6676 20.9205 79.9636 20.3177L80.1478 20.1029C81.4388 21.2085 82.8101 21.2059 84.3397 20.0957L84.5058 20.3248C83.6821 20.9227 82.8992 21.2221 82.1469 21.2221Z" fill="black"/>
<path d="M75.8925 16.0432C75.8925 16.0432 79.3188 13.7036 80.7955 9.74922C80.7955 9.74922 85.9676 17.869 99.1206 15.1803C99.1206 15.1803 99.8978 -3.69598 80.6373 3.26386C73.4823 6.42708 75.8925 16.0432 75.8925 16.0432Z" fill="black"/>
<path d="M80.6693 9.81324C79.8728 8.24635 79.3632 6.79458 79.1111 5.37415L79.3897 5.32471C79.6365 6.71683 80.1378 8.14329 80.9214 9.68489L80.6693 9.81324Z" fill="#300E1F"/>
<path d="M98.6227 15.4208L98.594 15.1392C98.6144 15.1373 100.633 14.9078 101.903 13.0835L102.135 13.2454C100.789 15.1796 98.7106 15.4117 98.6227 15.4208Z" fill="#300E1F"/>
<path d="M87.2944 23.8648L87.1963 23.5994C87.6047 23.4485 87.855 23.2578 87.9399 23.0336C88.0633 22.7078 87.8516 22.3134 87.6466 21.9318C87.5409 21.7347 87.4409 21.5486 87.3873 21.3724C87.1582 20.6159 87.5198 19.542 87.5353 19.4971L87.8033 19.5884C87.7999 19.5986 87.4556 20.6216 87.6583 21.2901C87.7036 21.4399 87.7972 21.6136 87.8957 21.7978C88.1196 22.2149 88.3736 22.6875 88.2041 23.1336C88.0879 23.4424 87.7904 23.6814 87.2944 23.8648Z" fill="black"/>
<path d="M87.4683 26.0345C86.0724 26.0345 84.7444 25.7129 83.9944 25.178L84.159 24.9478C85.4775 25.888 88.7773 26.1024 90.7478 25.0115L90.8848 25.2592C89.9094 25.7986 88.6641 26.0345 87.4683 26.0345Z" fill="black"/>
<path d="M92.4765 21.2216C91.7216 21.2216 90.9972 20.9204 90.2932 20.3172L90.4774 20.1024C91.7684 21.2076 93.1401 21.2061 94.6689 20.0952L94.8353 20.3243C94.0117 20.9226 93.2284 21.2216 92.4765 21.2216Z" fill="black"/>
<path d="M87.3398 27.1864C86.808 27.1864 86.298 27.0358 85.802 26.7342L85.9492 26.4922C86.8472 27.038 87.8022 27.0365 88.8678 26.4873L88.9977 26.7391C88.4186 27.0373 87.8687 27.1864 87.3398 27.1864Z" fill="black"/>
<path d="M78.9922 18.1514C79.3195 17.7471 79.712 17.4115 80.1827 17.159C80.4258 17.0424 80.6553 16.9201 80.9996 16.9095C81.2974 16.9042 81.5458 16.9654 81.8028 17.0167C82.3053 17.1333 82.7801 17.3021 83.2448 17.4923C83.7117 17.6765 84.1632 17.889 84.6067 18.1253L84.4961 18.3782L83.0904 17.9253C82.6212 17.7849 82.1509 17.6478 81.6866 17.5444C81.4582 17.504 81.2174 17.4576 81.0177 17.4697C80.8629 17.4727 80.6259 17.5588 80.4243 17.6516C80.008 17.843 79.5909 18.0948 79.1813 18.3522L78.9922 18.1514Z" fill="black"/>
<path d="M95.7123 18.3543C95.2808 18.0935 94.8403 17.8402 94.4006 17.6485C94.1839 17.5556 93.9434 17.4722 93.7694 17.4695C93.5562 17.4582 93.3044 17.5054 93.0647 17.5462C92.5777 17.6496 92.0859 17.7862 91.5944 17.9267L90.1227 18.3789L90.0166 18.1241C90.4832 17.8878 90.9576 17.6753 91.4468 17.4914C91.9338 17.3016 92.4305 17.1332 92.9533 17.0173C93.2202 16.966 93.4788 16.9052 93.7838 16.9094C94.1295 16.9147 94.379 17.0355 94.6316 17.1506C95.1261 17.4012 95.5443 17.7391 95.8969 18.1486L95.7123 18.3543Z" fill="black"/>
<path d="M79.2173 21.8396C79.2173 22.1635 78.8141 22.4258 78.317 22.4258C77.8199 22.4258 77.4167 22.1635 77.4167 21.8396C77.4167 21.5158 77.8199 21.2534 78.317 21.2534C78.8141 21.2534 79.2173 21.5158 79.2173 21.8396Z" fill="#E57B5E"/>
<path d="M97.0774 21.8396C97.0774 22.1635 96.6743 22.4258 96.1771 22.4258C95.68 22.4258 95.2769 22.1635 95.2769 21.8396C95.2769 21.5158 95.68 21.2534 96.1771 21.2534C96.6743 21.2534 97.0774 21.5158 97.0774 21.8396Z" fill="#E57B5E"/>
<path d="M81.1239 24.3814C78.3426 24.3814 76.0801 22.4385 76.0801 20.0503C76.0801 17.662 78.3426 15.7188 81.1239 15.7188C83.9051 15.7188 86.1677 17.6616 86.1677 20.0503C86.1677 22.4385 83.9051 24.3814 81.1239 24.3814ZM81.1239 16.0022C78.4989 16.0022 76.3632 17.8183 76.3632 20.0506C76.3632 22.2826 78.4989 24.0986 81.1239 24.0986C83.7488 24.0986 85.8846 22.2826 85.8846 20.0506C85.8846 17.8183 83.7488 16.0022 81.1239 16.0022Z" fill="white"/>
<path d="M93.278 24.3814C90.4972 24.3814 88.2346 22.4385 88.2346 20.0503C88.2346 17.662 90.4972 15.7188 93.278 15.7188C96.0592 15.7188 98.3218 17.6616 98.3218 20.0503C98.3222 22.4385 96.0592 24.3814 93.278 24.3814ZM93.278 16.0022C90.6531 16.0022 88.5177 17.8183 88.5177 20.0506C88.5177 22.2826 90.6531 24.0986 93.278 24.0986C95.903 24.0986 98.0387 22.2826 98.0387 20.0506C98.0391 17.8183 95.903 16.0022 93.278 16.0022Z" fill="white"/>
<path d="M88.305 19.8491C87.5044 19.3845 86.7797 19.383 86.09 19.8442L85.9326 19.6091C86.7098 19.0889 87.5558 19.0874 88.4473 19.6042L88.305 19.8491Z" fill="white"/>
<path d="M91.1093 25.6276L90.827 25.6054C90.8568 25.2211 90.733 24.949 90.448 24.7734L90.5971 24.5322C90.9753 24.7663 91.1478 25.1343 91.1093 25.6276Z" fill="black"/>
<path d="M83.8554 25.6278C83.8169 25.1344 83.9894 24.7664 84.368 24.5327L84.5163 24.7739C84.2317 24.9494 84.1075 25.2216 84.1377 25.6059L83.8554 25.6278Z" fill="black"/>
</svg>
