<svg width="119" height="134" viewBox="0 0 119 134" fill="none" xmlns="http://www.w3.org/2000/svg">
<path d="M59.1366 24.3713C75.4542 17.2644 92.9621 44.4057 86.7274 66.7623C85.0354 72.8297 78.0137 67.5087 73.3339 70.2783C65.8651 74.6987 59.5249 67.7328 44.953 72.0165C35.3742 74.8323 37.8229 65.3306 24.2346 68.3959C-5.43118 75.0876 30.7197 13.9394 59.1366 24.3713Z" fill="black"/>
<path fill-rule="evenodd" clip-rule="evenodd" d="M60.8934 26.7719C57.2691 29.844 49.7073 26.3039 47.5574 20.7728C48.6259 15.2989 53.8246 10.2429 61.4385 12.5627C64.5062 15.6407 63.9018 24.2227 60.8934 26.7719Z" fill="black"/>
<path fill-rule="evenodd" clip-rule="evenodd" d="M63.3957 49.7685C62.1592 48.1415 56.2788 46.3518 55.2573 47.1531C54.9801 52.7467 53.871 60.1211 52.7087 62.9822C55.8495 63.9849 62.0764 63.6222 64.798 62.9151C63.3482 60.2032 63.115 51.8448 63.3957 49.7685Z" fill="#FFBF9D"/>
<path fill-rule="evenodd" clip-rule="evenodd" d="M70.7449 38.2417C68.6396 38.488 68.5094 46.6651 70.7449 48.0848C76.8219 48.0539 76.2369 37.6873 70.7449 38.2417Z" fill="white"/>
<path fill-rule="evenodd" clip-rule="evenodd" d="M55.257 47.1536C49.2358 50.3191 47.1318 38.4883 54.7516 41.6275C56.6612 38.6691 60.155 38.109 60.4797 32.7518C63.3086 32.5551 66.017 32.8867 68.5353 34.0533C74.613 42.1595 71.0833 51.9858 65.6715 53.8082C62.4642 54.8883 58.9207 52.1503 55.257 47.1536Z" fill="#FFBF9D"/>
<path fill-rule="evenodd" clip-rule="evenodd" d="M60.1653 34.7575C60.3245 34.1713 60.4341 33.5098 60.48 32.7518C63.3089 32.5551 66.0173 32.8867 68.5356 34.0533C68.6673 34.229 68.7928 34.4057 68.9155 34.5827L60.1653 34.7575Z" fill="#FFBF9D"/>
<path d="M65.1335 45.8147C64.9618 45.8054 64.8304 45.6583 64.8398 45.4866C64.8491 45.3149 64.9962 45.1832 65.1679 45.1929C65.6948 45.2225 65.9864 45.471 66.1053 45.7923C66.1821 45.9999 66.1768 46.2327 66.1103 46.4503C66.0472 46.6573 65.9274 46.8537 65.7707 47.0007C65.4872 47.267 65.0907 47.3859 64.6749 47.1683C64.5229 47.089 64.4636 46.9011 64.5432 46.7488C64.6228 46.5964 64.8104 46.5377 64.9628 46.617C65.1017 46.6898 65.2409 46.6439 65.3439 46.5468C65.4229 46.4725 65.4835 46.3735 65.5153 46.2696C65.5437 46.1765 65.5481 46.0826 65.52 46.0067C65.4828 45.9068 65.3655 45.8278 65.1335 45.8147Z" fill="black"/>
<path d="M66.253 39.3418C66.0894 39.3949 65.9136 39.3056 65.8603 39.1417C65.8072 38.9782 65.8968 38.8024 66.0604 38.749C66.5711 38.5829 67.4171 38.5552 68.224 38.6145C69.1172 38.6803 69.9891 38.8583 70.3331 39.0784C70.4779 39.1705 70.5204 39.3628 70.4283 39.5076C70.3359 39.6524 70.1439 39.6949 69.999 39.6028C69.7399 39.437 68.9845 39.2956 68.1803 39.2366C67.4408 39.182 66.6828 39.202 66.253 39.3418Z" fill="black"/>
<path d="M58.4557 40.9872C58.3068 41.0734 58.1164 41.0225 58.0302 40.8739C57.9441 40.725 57.9949 40.5346 58.1435 40.4484C58.8225 40.0541 59.5046 39.7239 60.192 39.4888C60.8866 39.2512 61.5874 39.1107 62.2967 39.1001C62.4684 39.0979 62.6092 39.2356 62.6114 39.4073C62.6132 39.579 62.4759 39.7198 62.3042 39.722C61.6683 39.7317 61.0308 39.8606 60.3924 40.0791C59.7466 40.2995 59.101 40.6126 58.4557 40.9872Z" fill="black"/>
<path d="M61.0067 48.785C60.8875 48.6611 60.8912 48.4638 61.0151 48.3448C61.1391 48.2256 61.3364 48.2293 61.4553 48.3533C61.8811 48.7941 62.6 49.1862 63.5172 49.3485C64.2855 49.4846 65.1883 49.4568 66.171 49.1602C66.3358 49.1112 66.5097 49.2049 66.5587 49.37C66.608 49.5352 66.5141 49.7087 66.3489 49.7577C65.2657 50.0846 64.2649 50.1142 63.4098 49.9632C62.3553 49.7765 61.5152 49.3113 61.0067 48.785Z" fill="black"/>
<path fill-rule="evenodd" clip-rule="evenodd" d="M64.1764 43.1157C62.3821 41.6048 59.3874 41.6547 58.1084 43.6673C59.2747 44.9766 62.5035 45.2407 64.1764 43.1157Z" fill="white"/>
<path fill-rule="evenodd" clip-rule="evenodd" d="M61.9591 42.1177C60.9617 41.9601 59.9315 42.1286 59.1127 42.6568C59.0138 42.8772 58.9585 43.1217 58.9585 43.3792C58.9585 43.7725 59.0871 44.1356 59.3047 44.4294C60.1182 44.7212 61.13 44.7777 62.0852 44.5037C62.3378 44.1983 62.4895 43.8066 62.4895 43.3792C62.4898 42.8847 62.2866 42.4383 61.9591 42.1177Z" fill="black"/>
<path d="M57.6588 43.2121C57.8299 43.1912 57.9853 43.3129 58.0063 43.484C58.0272 43.6551 57.9054 43.8105 57.7344 43.8314C57.396 43.873 57.101 43.8358 56.8416 43.749C56.5846 43.6632 56.368 43.5293 56.1804 43.3754C56.0477 43.2664 56.0286 43.0704 56.1376 42.9377C56.2469 42.805 56.4426 42.786 56.5753 42.8949C56.7092 43.0048 56.8615 43.0997 57.0388 43.159C57.2137 43.2174 57.4175 43.2417 57.6588 43.2121Z" fill="black"/>
<path d="M58.3228 42.3287C58.4945 42.3415 58.6235 42.4911 58.6107 42.6628C58.5979 42.8345 58.4483 42.9634 58.2766 42.9506C58.0431 42.9331 57.8337 42.875 57.6439 42.7911C57.4575 42.708 57.2952 42.6013 57.1516 42.4833C57.0189 42.3743 56.9998 42.1783 57.1088 42.0456C57.218 41.9129 57.4138 41.8939 57.5465 42.0028C57.6517 42.089 57.7672 42.1658 57.8952 42.2226C58.02 42.2782 58.1611 42.3166 58.3228 42.3287Z" fill="black"/>
<path fill-rule="evenodd" clip-rule="evenodd" d="M65.4548 43.2449C66.5933 41.5323 69.126 40.838 70.6972 42.2172C70.0378 43.6057 67.3853 44.6219 65.4548 43.2449Z" fill="white"/>
<path fill-rule="evenodd" clip-rule="evenodd" d="M66.0225 42.5756C66.8634 41.7852 68.0419 41.3678 69.1329 41.5136C69.3939 41.8214 69.5516 42.2197 69.5516 42.6549C69.5516 42.949 69.4798 43.2262 69.3524 43.47C68.4989 43.8952 67.3982 44.0562 66.3724 43.7129C66.1514 43.4179 66.0203 43.0517 66.0203 42.6549C66.0206 42.6287 66.0212 42.6021 66.0225 42.5756Z" fill="black"/>
<path d="M71.0106 42.0443C70.8435 42.0867 70.6737 41.9856 70.6313 41.8186C70.5888 41.6516 70.6899 41.4817 70.857 41.4393C71.058 41.3881 71.2119 41.3063 71.3315 41.207C71.4516 41.1071 71.5434 40.9841 71.6162 40.8543C71.7005 40.7041 71.8906 40.6504 72.0407 40.7347C72.1909 40.819 72.2443 41.0091 72.1603 41.1593C72.0548 41.3469 71.9171 41.5286 71.7289 41.685C71.54 41.8423 71.3056 41.9694 71.0106 42.0443Z" fill="black"/>
<path d="M70.2944 41.4929C70.1395 41.5669 69.9538 41.5014 69.8798 41.3465C69.8058 41.1917 69.8714 41.0059 70.0262 40.932C70.1476 40.8739 70.2475 40.7996 70.3306 40.7159C70.4142 40.6317 70.4823 40.5352 70.5391 40.4337C70.6234 40.2836 70.8132 40.2302 70.9634 40.3142C71.1135 40.3985 71.1669 40.5886 71.0829 40.7384C71.0014 40.8833 70.9009 41.025 70.772 41.1548C70.6427 41.285 70.4864 41.4012 70.2944 41.4929Z" fill="black"/>
<path fill-rule="evenodd" clip-rule="evenodd" d="M59.8575 46.0287C60.3832 45.8926 60.9195 46.2085 61.0559 46.7342C61.192 47.2599 60.8761 47.7965 60.3504 47.9326C59.8247 48.0687 59.2881 47.7528 59.152 47.2271C59.0159 46.7011 59.3318 46.1648 59.8575 46.0287Z" fill="#FFBF9D"/>
<path fill-rule="evenodd" clip-rule="evenodd" d="M68.9594 44.995C69.4851 44.8589 70.0218 45.1748 70.1579 45.7005C70.294 46.2262 69.9781 46.7628 69.4524 46.8989C68.9267 47.035 68.39 46.7191 68.2539 46.1934C68.1181 45.6674 68.4337 45.1311 68.9594 44.995Z" fill="#FFBF9D"/>
<path d="M54.9941 47.3194C54.9026 47.1739 54.9463 46.982 55.0918 46.8902C55.2373 46.7987 55.4296 46.8421 55.521 46.9876C56.1432 47.9765 56.8955 48.9939 57.8043 49.9623C58.7124 50.93 59.776 51.8481 61.0206 52.6404C61.1654 52.7328 61.2079 52.9248 61.1158 53.0697C61.0234 53.2145 60.8314 53.257 60.6866 53.1649C59.3923 52.3413 58.2897 51.3898 57.3507 50.3893C56.4123 49.3894 55.6359 48.3399 54.9941 47.3194Z" fill="black"/>
<path fill-rule="evenodd" clip-rule="evenodd" d="M52.7265 39.1056C54.9377 39.3643 55.0744 47.9522 52.7265 49.4435C46.3442 49.411 46.9585 38.5233 52.7265 39.1056Z" fill="white"/>
<path d="M52.5841 39.6074C52.4883 39.1882 52.7502 38.7705 53.1694 38.6746C53.5887 38.5785 54.0064 38.8407 54.1022 39.26C54.4294 40.6816 54.6919 43.2648 54.5499 45.5687C54.4409 47.335 54.0882 48.9751 53.3393 49.9254C53.0733 50.2638 52.5832 50.3225 52.2448 50.0565C51.9064 49.7905 51.8477 49.3004 52.1137 48.962C52.6434 48.2896 52.9038 46.9591 52.9949 45.4772C53.1279 43.321 52.8863 40.921 52.5841 39.6074Z" fill="#F2F2FF"/>
<path d="M50.7796 44.2143C50.8527 45.3094 49.1208 45.4677 49.1039 44.1893C47.593 22.1202 72.3059 21.2396 73.155 38.8318C72.756 38.554 72.2971 38.3595 71.7817 38.2721C70.4846 23.0805 49.4129 24.248 50.7796 44.2143Z" fill="#F2F2FF"/>
<path fill-rule="evenodd" clip-rule="evenodd" d="M73.3334 70.2788C74.0039 68.0395 73.1988 62.7685 71.7834 60.7469C62.8653 62.1629 54.8031 59.0486 47.3315 59.373C45.8727 61.3063 44.9927 67.4186 46.6444 70.7439C23.3791 71.2022 -7.61597 113.641 2.90646 127.972C5.8156 131.935 18.9106 138.337 26.9369 124.713C46.6544 135.64 70.9727 132 89.2989 124.731C96.7979 138.192 110.038 132.553 113.38 128.206C117.759 122.508 117.161 112.826 112.361 102.868C105.952 89.5732 92.3603 75.7103 73.3334 70.2788Z" fill="#1A6980"/>
<path d="M55.875 72.2214C55.7033 72.214 55.57 72.0688 55.5774 71.8971C55.5849 71.7254 55.7301 71.5921 55.9018 71.5996C59.327 71.7485 63.354 71.7011 66.7589 71.3826C69.5719 71.1195 71.9494 70.6737 73.1843 70.0041C73.3357 69.922 73.5252 69.9782 73.6073 70.1296C73.6894 70.2813 73.6332 70.4705 73.4815 70.5529C72.1701 71.264 69.708 71.7313 66.8148 72.0023C63.3805 72.3235 59.3232 72.3713 55.875 72.2214Z" fill="black"/>
<path d="M34.3034 105.159C34.3324 104.989 34.4935 104.875 34.663 104.904C34.8329 104.933 34.9468 105.095 34.9178 105.264C33.5364 113.291 30.2533 121.526 25.5903 126.93C23.7045 129.116 21.5911 130.842 19.2838 131.91C16.9622 132.984 14.4489 133.391 11.7773 132.932C8.91498 132.439 5.87753 130.95 2.70866 128.216C2.5788 128.104 2.56444 127.907 2.67682 127.777C2.7892 127.647 2.98587 127.633 3.11574 127.746C6.1922 130.4 9.12726 131.843 11.8819 132.317C14.422 132.754 16.8133 132.366 19.0225 131.344C21.2461 130.315 23.2896 128.644 25.1193 126.523C29.7063 121.207 32.9395 113.086 34.3034 105.159Z" fill="black"/>
<path d="M25.5626 94.366C25.6796 94.2398 25.8769 94.233 26.0027 94.35C26.1285 94.4671 26.1357 94.6644 26.0187 94.7902L8.00157 114.082C7.8845 114.208 7.68721 114.215 7.5614 114.098C7.4356 113.981 7.42841 113.783 7.54548 113.658L25.5626 94.366Z" fill="black"/>
<path d="M113.177 127.969C113.308 127.858 113.504 127.873 113.616 128.003C113.728 128.134 113.713 128.331 113.582 128.442C110.339 131.227 107.354 132.799 104.619 133.423C101.954 134.031 99.5299 133.739 97.3375 132.791C95.1569 131.847 93.2133 130.255 91.4958 128.255C86.7379 122.713 83.6995 114.009 82.1727 107.319C82.1349 107.152 82.2404 106.985 82.4081 106.948C82.5757 106.91 82.7424 107.015 82.7799 107.183C84.2896 113.798 87.2874 122.398 91.9687 127.85C93.6282 129.783 95.4975 131.318 97.5835 132.22C99.6575 133.118 101.954 133.393 104.482 132.816C107.121 132.214 110.015 130.685 113.177 127.969Z" fill="black"/>
<path d="M88.2834 94.5593C88.1414 94.4629 88.1043 94.2696 88.2004 94.1276C88.2966 93.9856 88.4898 93.9484 88.6321 94.0449L105.369 105.399C105.511 105.496 105.548 105.689 105.452 105.831C105.356 105.973 105.162 106.01 105.02 105.914L88.2834 94.5593Z" fill="black"/>
<path fill-rule="evenodd" clip-rule="evenodd" d="M75.2285 80.7379C76.7519 81.5892 77.4302 83.2749 76.7438 84.5037C76.0573 85.7321 74.2657 86.038 72.7426 85.1867C71.2192 84.3354 70.5409 82.6497 71.2274 81.4213C71.9135 80.1925 73.7051 79.8866 75.2285 80.7379Z" fill="#FFBF9D"/>
<path fill-rule="evenodd" clip-rule="evenodd" d="M40.3228 76.9297H69.0215C69.0336 77.4495 69.0355 77.9583 69.0293 78.4578C71.2644 78.6794 73.2174 79.8026 74.5869 81.4628C75.9873 83.161 76.7724 85.4214 76.6098 87.8426V87.8445C76.4468 90.2657 75.3648 92.4026 73.7471 93.9001C72.1079 95.4172 69.9243 96.2773 67.5845 96.1202H67.583C66.2775 96.0325 65.0628 95.6379 63.997 95.0076C62.5339 96.8694 60.9783 98.0919 59.6684 98.7528H49.6745C44.5046 95.9695 40.3228 88.6961 40.3228 76.9297ZM68.8813 81.4169C68.4599 86.116 67.2018 89.7837 65.6406 92.544C66.2856 92.8974 67.0086 93.1177 67.78 93.1696H67.7803C69.2824 93.2707 70.6878 92.7157 71.7458 91.7364C72.8253 90.7371 73.5486 89.2955 73.6594 87.6485V87.6482C73.7702 86.0014 73.2455 84.4749 72.3077 83.3377C71.4536 82.3025 70.253 81.5914 68.8813 81.4169Z" fill="#F5D7A6"/>
<path d="M40.3226 76.6177H69.0213C69.1936 76.6177 69.3335 76.7575 69.3335 76.9298C69.3335 76.9364 69.3332 76.9426 69.3329 76.9489C69.3388 77.1989 69.3419 77.4496 69.3432 77.7003C69.3438 77.862 69.3438 78.0221 69.3429 78.181C70.3777 78.3187 71.3498 78.6431 72.2308 79.1194C73.2254 79.657 74.1044 80.389 74.8274 81.2653C75.5667 82.1619 76.1404 83.2083 76.5019 84.3493C76.8503 85.4475 77.0033 86.6353 76.9209 87.8634V87.8653C76.8384 89.0927 76.5269 90.2497 76.0337 91.2933C75.5217 92.3762 74.8124 93.3374 73.9583 94.1281C73.0927 94.9295 72.0803 95.5538 70.9743 95.9524C69.9073 96.3367 68.7547 96.5112 67.5641 96.4313H67.5625C66.8954 96.3867 66.2505 96.2643 65.6346 96.0733C65.0886 95.9037 64.5669 95.6809 64.0746 95.4108C63.4259 96.2116 62.7601 96.8921 62.1054 97.4581C61.305 98.1508 60.5221 98.6712 59.8088 99.0311C59.7638 99.0536 59.7157 99.0645 59.6686 99.0645V99.0651H49.6747C49.6132 99.0651 49.5558 99.0473 49.5074 99.0164C46.72 97.5089 44.2182 94.7309 42.4838 90.683C40.9473 87.0976 40.0107 82.5128 40.0107 76.9298C40.0104 76.7575 40.1503 76.6177 40.3226 76.6177ZM68.7166 77.242H40.636C40.6701 82.5964 41.5807 86.9949 43.0566 90.4391C44.7218 94.3245 47.1039 96.991 49.753 98.4408H59.5952C60.2486 98.1033 60.9641 97.6223 61.6984 96.9873C62.3783 96.3992 63.0741 95.678 63.7521 94.8152C63.8474 94.6941 64.0197 94.6591 64.1558 94.7396C64.6765 95.0474 65.2331 95.2966 65.8175 95.4779C66.3866 95.6543 66.9844 95.7676 67.6037 95.8095H67.6053C68.7101 95.8834 69.7777 95.7227 70.7642 95.3671C71.7909 94.9972 72.7315 94.4169 73.536 93.6723C74.3301 92.9372 74.9913 92.0406 75.4699 91.0276C75.9303 90.0533 76.2213 88.9719 76.2984 87.8241V87.8222C76.3752 86.6753 76.2319 85.5649 75.9063 84.5372C75.5679 83.4702 75.0338 82.4943 74.3464 81.6605C73.6758 80.8473 72.8592 80.1677 71.9352 79.6682C71.0439 79.1862 70.0537 78.8722 68.9982 78.7676C68.839 78.752 68.7157 78.6168 68.7176 78.4542C68.7207 78.2054 68.7216 77.9547 68.7207 77.7025C68.7204 77.5514 68.7188 77.3978 68.7166 77.242ZM69.1593 81.7767C68.9505 83.8851 68.574 85.7843 68.0786 87.4857C67.5316 89.3634 66.8402 91.0007 66.0691 92.413C66.2923 92.5176 66.5246 92.6053 66.7634 92.6756C67.0943 92.7723 67.4408 92.8348 67.7998 92.8591L67.8054 92.8594C68.4969 92.9053 69.1655 92.8035 69.7843 92.58C70.4323 92.3459 71.0258 91.9791 71.5337 91.509C72.0544 91.0273 72.4877 90.4357 72.8017 89.7649C73.1042 89.119 73.2956 88.3978 73.3474 87.6283V87.628C73.3989 86.8598 73.3053 86.1193 73.0914 85.4366C72.8695 84.7289 72.5186 84.0839 72.0666 83.5358C71.6579 83.0403 71.1641 82.6233 70.6069 82.3108C70.1604 82.0598 69.6741 81.8775 69.1593 81.7767ZM67.4811 87.3124C67.9918 85.5589 68.3736 83.591 68.5705 81.3955C68.5709 81.3896 68.5715 81.3836 68.5721 81.378C68.5936 81.2076 68.7494 81.0871 68.9196 81.1086C69.6363 81.1998 70.3078 81.428 70.9118 81.7667C71.5346 82.1157 72.0878 82.5836 72.547 83.1402C73.0505 83.7508 73.4408 84.467 73.6868 85.2508C73.9231 86.0044 74.0267 86.8214 73.9696 87.6683V87.6692C73.9128 88.5155 73.7005 89.3116 73.3655 90.0277C73.0171 90.7713 72.5355 91.4281 71.9561 91.9647C71.386 92.4923 70.7214 92.9031 69.9969 93.1651C69.2982 93.4176 68.5443 93.5325 67.7667 93.4813L67.7576 93.481C67.3565 93.4538 66.966 93.3829 66.5904 93.2731C66.209 93.1616 65.845 93.0099 65.5022 92.8232C65.4969 92.8207 65.4919 92.8179 65.4869 92.8151C65.3374 92.7302 65.2849 92.5404 65.3698 92.3909C66.1824 90.9536 66.912 89.2666 67.4811 87.3124Z" fill="black"/>
<path fill-rule="evenodd" clip-rule="evenodd" d="M34.5148 104.62L25.7908 94.5787C27.1852 90.7362 31.2694 85.0047 34.6877 83.603C37.4717 82.6231 47.0192 82.2756 50.1303 82.87C51.0231 84.3563 50.6257 85.9658 48.1118 86.5546L50.4593 86.9208C51.6531 88.7411 50.7041 90.5997 49.4707 90.8994C50.6638 92.823 50.1359 94.6249 48.6678 95.2268C49.1651 98.12 45.3781 99.27 40.5328 100.403C37.3952 102.942 35.2431 104.441 34.5148 104.62Z" fill="#FFBF9D"/>
<path d="M38.1446 87.7188C37.9972 87.8072 37.8059 87.7591 37.7178 87.6115C37.6295 87.4638 37.6776 87.2728 37.8252 87.1847C38.807 86.5997 41.1748 86.2632 43.6479 86.1627C46.3488 86.0528 49.2024 86.2201 50.5104 86.65C50.674 86.703 50.7636 86.8788 50.7105 87.0427C50.6571 87.2063 50.4813 87.2959 50.3178 87.2428C49.0747 86.8345 46.3092 86.6777 43.6725 86.7848C41.2878 86.8816 39.0315 87.1906 38.1446 87.7188Z" fill="black"/>
<path d="M38.761 92.0286C38.6134 92.1169 38.4223 92.0689 38.3343 91.9212C38.2459 91.7739 38.294 91.5828 38.4417 91.4945C39.3654 90.9444 41.2063 90.611 43.1724 90.4549C45.5751 90.2642 48.1915 90.3332 49.5285 90.5932C49.6977 90.6257 49.8082 90.7889 49.7761 90.9578C49.7436 91.1267 49.5806 91.2375 49.4114 91.2054C48.1219 90.9547 45.5748 90.8904 43.221 91.0771C41.3361 91.2266 39.5923 91.5335 38.761 92.0286Z" fill="black"/>
<path d="M39.0777 96.3641C38.9303 96.4525 38.739 96.4044 38.6509 96.2567C38.5626 96.1094 38.6107 95.9183 38.7583 95.83C39.7036 95.2671 41.4964 94.9103 43.3376 94.7458C45.4872 94.5538 47.7264 94.6213 48.756 94.9275C48.9211 94.9765 49.0148 95.1504 48.9658 95.3152C48.9168 95.4803 48.7432 95.574 48.578 95.525C47.6144 95.2381 45.4701 95.1797 43.3913 95.3652C41.6319 95.5225 39.9365 95.8528 39.0777 96.3641Z" fill="black"/>
<path fill-rule="evenodd" clip-rule="evenodd" d="M82.8121 84.1635C80.4236 83.0026 73.9342 82.4628 70.3364 83.0853C68.3354 83.4315 69.3365 87.3405 70.4875 87.678C69.6299 88.9832 69.5943 91.2205 70.7569 92.8978C70.106 94.1244 70.4122 96.6167 71.5804 97.6962C71.5988 103.697 80.3159 104.98 82.006 106.062C82.9007 111.221 91.5205 104.661 88.4574 94.3023L82.8121 84.1635Z" fill="#FFBF9D"/>
<path d="M70.5129 87.9883C70.3412 88.0023 70.1904 87.8746 70.1763 87.703C70.1623 87.5313 70.29 87.3805 70.4617 87.3664C71.6935 87.2619 73.2469 87.3221 74.755 87.4604C76.6948 87.6387 78.5598 87.9471 79.565 88.2018C79.732 88.2436 79.8334 88.4128 79.7916 88.5799C79.7498 88.7469 79.5806 88.8483 79.4136 88.8068C78.4283 88.5571 76.6003 88.2549 74.6988 88.0801C73.2288 87.9449 71.7144 87.8862 70.5129 87.9883Z" fill="black"/>
<path d="M70.7812 93.1936C70.6095 93.2077 70.4587 93.08 70.4447 92.9083C70.4306 92.7366 70.5583 92.5858 70.73 92.5718C71.9384 92.4694 73.3753 92.53 74.7642 92.6686C76.6176 92.8537 78.3848 93.1774 79.4059 93.4362C79.5729 93.4777 79.6744 93.6472 79.6329 93.8142C79.591 93.9812 79.4218 94.0827 79.2548 94.0412C78.2527 93.7874 76.5192 93.4696 74.7033 93.2882C73.3522 93.153 71.955 93.0941 70.7812 93.1936Z" fill="black"/>
<path d="M71.5782 98.0027C71.4065 98.0021 71.2676 97.8622 71.2686 97.6905C71.2692 97.5188 71.409 97.3802 71.5807 97.3809C72.915 97.389 74.3375 97.4876 75.6512 97.6375C77.1043 97.8029 78.4323 98.0311 79.3691 98.2684C79.5362 98.3102 79.6376 98.4794 79.5961 98.6464C79.5543 98.8134 79.3851 98.9149 79.2181 98.8734C78.3043 98.6417 77.0063 98.4192 75.5828 98.2571C74.2807 98.1085 72.88 98.0105 71.5782 98.0027Z" fill="black"/>
<path d="M49.57 70.2483C49.4926 70.4019 49.3053 70.4637 49.1517 70.3863C48.9981 70.3089 48.9366 70.1216 49.014 69.968C50.3694 67.2748 49.6689 64.8555 48.9497 62.3709C48.2919 60.0989 47.6189 57.7745 48.385 55.0957C48.4321 54.93 48.6047 54.8338 48.7702 54.8813C48.936 54.9284 49.0321 55.101 48.985 55.2665C48.267 57.7764 48.9144 60.0125 49.5472 62.1977C50.3011 64.8015 51.035 67.3373 49.57 70.2483Z" fill="#F2F2FF"/>
<path d="M53.7448 72.8766C53.6667 73.0302 53.4788 73.0914 53.3252 73.0133C53.1716 72.9353 53.1104 72.7473 53.1888 72.5938C55.256 68.5333 54.066 65.3479 52.9341 62.3189C52.0999 60.0862 51.2961 57.9353 51.7637 55.5466C51.7968 55.3777 51.9604 55.2672 52.1296 55.3003C52.2988 55.3334 52.409 55.4973 52.3759 55.6662C51.9414 57.8851 52.7146 59.9542 53.5169 62.1016C54.6957 65.2561 55.9353 68.5739 53.7448 72.8766Z" fill="#F2F2FF"/>
<path d="M59.1049 70.3456C59.0275 70.4992 58.8402 70.561 58.6866 70.4833C58.533 70.4059 58.4715 70.2186 58.5489 70.065C59.9044 67.3719 59.2038 64.9525 58.4846 62.468C57.8269 60.196 57.1538 57.8715 57.9199 55.1928C57.967 55.0273 58.1396 54.9312 58.3051 54.9783C58.4709 55.0254 58.567 55.1978 58.5196 55.3635C57.8019 57.8734 58.449 60.1095 59.0818 62.2947C59.836 64.8988 60.5699 67.4346 59.1049 70.3456Z" fill="#F2F2FF"/>
<path fill-rule="evenodd" clip-rule="evenodd" d="M92.2806 39.4028L104.39 47.4497L118.163 53.2256L118.689 54.4299L108.872 73.2359L94.1246 67.1007L79.6348 57.8816L92.2806 39.4028Z" fill="white"/>
<path fill-rule="evenodd" clip-rule="evenodd" d="M94.6678 38.3369C97.9085 41.3744 102.075 43.3982 104.39 47.4496L118.163 53.2251L108.286 72.1462L94.4933 66.4085C91.5411 61.7933 86.5538 59.7489 82.5842 56.4192L94.6678 38.3369Z" fill="#F5D7A6"/>
<path d="M103.747 47.9964C103.828 47.8443 104.016 47.786 104.168 47.8659C104.32 47.9461 104.379 48.1343 104.299 48.2867L95.1813 65.4746C95.1011 65.627 94.9128 65.685 94.7605 65.6051C94.6081 65.5249 94.5498 65.3366 94.63 65.1843L103.747 47.9964Z" fill="black"/>
<path d="M118.413 54.2861C118.493 54.1341 118.681 54.0751 118.833 54.1544C118.985 54.234 119.044 54.4216 118.965 54.574L109.148 73.3802C109.073 73.5241 108.9 73.5847 108.753 73.5235L108.753 73.5241L94.0049 67.3887C93.9809 67.3787 93.9587 67.3662 93.9388 67.3512L79.4673 58.1437C79.3225 58.0513 79.28 57.8593 79.3721 57.7144C79.4645 57.5696 79.6565 57.5271 79.8014 57.6192L94.265 66.8215L108.729 72.8386L118.413 54.2861Z" fill="black"/>
<path fill-rule="evenodd" clip-rule="evenodd" d="M24.1433 77.8262C26.5858 77.8262 28.5659 79.7367 28.5659 82.0933C28.5659 84.4499 26.5858 86.3604 24.1433 86.3604C21.7006 86.3604 19.7205 84.4499 19.7205 82.0933C19.7205 79.7367 21.7006 77.8262 24.1433 77.8262ZM24.1433 80.1934C25.2309 80.1934 26.1125 81.0441 26.1125 82.0933C26.1125 83.1425 25.2309 83.9932 24.1433 83.9932C23.0557 83.9932 22.1741 83.1425 22.1741 82.0933C22.1738 81.0441 23.0557 80.1934 24.1433 80.1934Z" fill="#FFBF9D"/>
<path d="M22.8028 85.1684C22.6486 85.0916 22.5859 84.9043 22.6627 84.7501C22.7395 84.5959 22.9268 84.5331 23.081 84.6099C23.1743 84.6564 23.2761 84.687 23.3825 84.7014C23.4971 84.7167 23.6185 84.7145 23.7431 84.6952C23.9129 84.6689 24.0718 84.7851 24.098 84.9549C24.1243 85.1247 24.0081 85.2836 23.8383 85.3098C23.6547 85.3385 23.4743 85.3414 23.3023 85.3186C23.1234 85.2942 22.9552 85.2443 22.8028 85.1684Z" fill="black"/>
<path d="M24.4708 85.4877C24.3057 85.4384 24.2121 85.2648 24.2611 85.1C24.3101 84.9352 24.484 84.8412 24.6488 84.8902C24.6597 84.8934 24.6775 84.8946 24.6981 84.893C24.7093 84.8924 24.7143 84.8931 24.7153 84.8924C24.8661 84.8103 25.0549 84.8659 25.1373 85.0167C25.2194 85.1674 25.1639 85.3566 25.0131 85.4387C24.9297 85.4843 24.8351 85.508 24.7446 85.5149C24.6488 85.5221 24.5495 85.5111 24.4708 85.4877Z" fill="black"/>
<path d="M25.8542 79.6153C25.6825 79.6281 25.533 79.4992 25.5202 79.3275C25.5074 79.1558 25.6363 79.0063 25.808 78.9935C25.8898 78.9872 25.989 78.9975 26.0811 79.0253C26.1685 79.0515 26.2556 79.0949 26.3271 79.1567C26.457 79.2691 26.4714 79.4658 26.359 79.5956C26.2466 79.7255 26.0499 79.7399 25.9201 79.6275C25.9194 79.6269 25.9138 79.6259 25.9032 79.6228C25.8835 79.6169 25.866 79.6144 25.8542 79.6153Z" fill="black"/>
<path fill-rule="evenodd" clip-rule="evenodd" d="M13.5239 75.1011C15.9666 75.1011 17.9467 77.0116 17.9467 79.3682C17.9467 81.7248 15.9666 83.6353 13.5239 83.6353C11.0811 83.6353 9.10132 81.7248 9.10132 79.3682C9.10132 77.0116 11.0814 75.1011 13.5239 75.1011ZM13.5239 77.4683C14.6115 77.4683 15.4931 78.319 15.4931 79.3682C15.4931 80.4174 14.6115 81.2681 13.5239 81.2681C12.4363 81.2681 11.5547 80.4174 11.5547 79.3682C11.5547 78.319 12.4363 77.4683 13.5239 77.4683Z" fill="#FFBF9D"/>
<path d="M12.1842 82.4433C12.03 82.3665 11.9672 82.1792 12.044 82.025C12.1208 81.8708 12.3081 81.808 12.4623 81.8848C12.5557 81.9313 12.6574 81.9619 12.7639 81.976C12.8788 81.9913 12.9999 81.9894 13.1244 81.9697C13.2943 81.9435 13.4532 82.0596 13.4794 82.2295C13.5056 82.3993 13.3895 82.5582 13.2197 82.5844C13.0361 82.6131 12.8553 82.6159 12.6837 82.5931C12.5048 82.5691 12.3365 82.5192 12.1842 82.4433Z" fill="black"/>
<path d="M13.8517 82.7626C13.6868 82.7136 13.5929 82.5397 13.6419 82.3749C13.6909 82.2098 13.8648 82.1161 14.0296 82.1651C14.0405 82.1683 14.0583 82.1698 14.0789 82.1679C14.0902 82.167 14.0952 82.168 14.0964 82.1673C14.2472 82.0852 14.4364 82.1408 14.5185 82.2916C14.6006 82.4423 14.545 82.6312 14.3942 82.7136C14.3109 82.7589 14.2163 82.7829 14.1258 82.7898C14.0299 82.7973 13.9307 82.7861 13.8517 82.7626Z" fill="black"/>
<path d="M15.235 76.8902C15.0634 76.903 14.9138 76.7741 14.901 76.6024C14.8882 76.4307 15.0172 76.2812 15.1888 76.2684C15.2706 76.2621 15.3699 76.2724 15.462 76.3002C15.5494 76.3264 15.6365 76.3698 15.708 76.4316C15.8379 76.544 15.8522 76.7407 15.7398 76.8705C15.6274 77.0004 15.4308 77.0148 15.3009 76.9021C15.3003 76.9018 15.2947 76.9008 15.2841 76.8974C15.2644 76.8918 15.2469 76.8893 15.235 76.8902Z" fill="black"/>
<path fill-rule="evenodd" clip-rule="evenodd" d="M18.7505 63.1055C21.7792 63.1055 24.2341 65.4742 24.2341 68.3962C24.2341 71.3181 21.7789 73.6869 18.7505 73.6869C15.7218 73.6869 13.2668 71.3181 13.2668 68.3962C13.2665 65.4742 15.7218 63.1055 18.7505 63.1055ZM18.7505 66.0405C20.0991 66.0405 21.1923 67.095 21.1923 68.3962C21.1923 69.6973 20.0991 70.7518 18.7505 70.7518C17.4019 70.7518 16.3087 69.6973 16.3087 68.3962C16.3087 67.095 17.4019 66.0405 18.7505 66.0405Z" fill="#FFBF9D"/>
<path d="M17.1219 72.142C16.9677 72.0652 16.905 71.8779 16.9818 71.7237C17.0585 71.5695 17.2458 71.5068 17.4001 71.5836C17.5227 71.6447 17.657 71.685 17.7978 71.7037C17.947 71.7234 18.1043 71.7209 18.2657 71.6956C18.4355 71.6694 18.5944 71.7855 18.6207 71.9554C18.6469 72.1252 18.5308 72.2841 18.3609 72.3103C18.1405 72.345 17.9236 72.3481 17.7172 72.3206C17.5043 72.2925 17.3039 72.2329 17.1219 72.142Z" fill="black"/>
<path d="M19.1776 72.5334C19.0125 72.4844 18.9188 72.3105 18.9678 72.1457C19.0169 71.9805 19.1907 71.8869 19.3556 71.9359C19.3774 71.9425 19.4089 71.9453 19.4436 71.9425C19.467 71.9406 19.4864 71.9375 19.4951 71.9325C19.6459 71.8504 19.8348 71.9059 19.9172 72.0567C19.9993 72.2075 19.9437 72.3967 19.7929 72.4788C19.6996 72.5297 19.5928 72.5565 19.4901 72.5643C19.3805 72.573 19.2672 72.5603 19.1776 72.5334Z" fill="black"/>
<path d="M20.8662 65.2498C20.6945 65.2626 20.5449 65.1337 20.5321 64.962C20.5193 64.7903 20.6483 64.6408 20.82 64.628C20.9127 64.6208 21.026 64.633 21.1315 64.6645C21.2308 64.6942 21.3291 64.7432 21.409 64.8125C21.5389 64.9249 21.5532 65.1215 21.4409 65.2514C21.3285 65.3812 21.1318 65.3956 21.0019 65.2832C20.9938 65.2764 20.976 65.2689 20.9536 65.2623C20.9208 65.252 20.8893 65.248 20.8662 65.2498Z" fill="black"/>
<path fill-rule="evenodd" clip-rule="evenodd" d="M11.983 0.0546875C14.4897 0.0546875 16.5216 2.07039 16.5216 4.55716C16.5216 7.04393 14.4897 9.05964 11.983 9.05964C9.47652 9.05964 7.44458 7.04393 7.44458 4.55716C7.44427 2.07039 9.4762 0.0546875 11.983 0.0546875Z" fill="white"/>
<path d="M13.2531 4.1165C11.2211 8.35051 10.8659 14.1466 15.8157 20.0414C16.5874 22.1561 18.2066 23.7444 20.4359 24.3503C23.9285 23.662 34.5005 17.2852 37.818 12.9822C37.8473 11.2693 35.3075 7.4733 33.4419 6.90827C29.0378 3.02983 21.3383 1.13181 13.2531 4.1165Z" fill="#F5D7A6"/>
<path d="M7.14562 3.78313C6.97517 3.76097 6.85498 3.60488 6.87746 3.43444C6.89962 3.26399 7.05571 3.1438 7.22616 3.16628L8.27849 3.30644C8.44894 3.32861 8.56913 3.4847 8.54665 3.65514C8.52448 3.82559 8.3684 3.94577 8.19795 3.9233L7.14562 3.78313Z" fill="black"/>
<path d="M8.30531 1.31868C8.17326 1.20817 8.15577 1.01182 8.26628 0.879768C8.37679 0.747719 8.57315 0.730237 8.7052 0.840746L9.51997 1.52128C9.65202 1.63179 9.6695 1.82815 9.55899 1.9602C9.44848 2.09225 9.25181 2.10973 9.12008 1.99922L8.30531 1.31868Z" fill="black"/>
<path d="M14.6634 0.455188C14.7536 0.309091 14.9453 0.263824 15.0914 0.354042C15.2375 0.44426 15.2828 0.635935 15.1925 0.782032L14.6356 1.68578C14.5454 1.83187 14.3537 1.87713 14.2076 1.78692C14.0615 1.6967 14.0163 1.50502 14.1065 1.35893L14.6634 0.455188Z" fill="black"/>
<path d="M11.0866 9.37465C11.0597 9.54447 10.9002 9.65998 10.7304 9.63313C10.5606 9.60628 10.445 9.44676 10.4719 9.27694L10.6386 8.22866C10.6654 8.05884 10.825 7.94334 10.9948 7.97018C11.1646 7.99703 11.2801 8.15655 11.2533 8.32637L11.0866 9.37465Z" fill="black"/>
<path d="M7.18029 5.53231C7.01265 5.57071 6.84564 5.46582 6.80724 5.29818C6.76884 5.13054 6.87373 4.96353 7.04137 4.92514L8.07591 4.68663C8.24355 4.64824 8.41056 4.75313 8.44896 4.92076C8.48736 5.0884 8.38247 5.25542 8.21483 5.29381L7.18029 5.53231Z" fill="black"/>
<path d="M11.9834 1.33236C12.0271 1.16597 12.1976 1.0667 12.3639 1.11041C12.5303 1.15411 12.6296 1.32456 12.5859 1.49094L12.3811 2.26233C12.3374 2.42871 12.167 2.52799 12.0006 2.48428C11.8342 2.44058 11.7349 2.27013 11.7786 2.10374L11.9834 1.33236Z" fill="black"/>
<path d="M12.5381 7.73466C12.5234 7.90636 12.372 8.03372 12.2003 8.01873C12.0286 8.00406 11.9013 7.85266 11.9162 7.68096L11.9849 6.88586C11.9999 6.71416 12.151 6.5868 12.3227 6.60178C12.4944 6.61646 12.6217 6.76786 12.6068 6.93955L12.5381 7.73466Z" fill="black"/>
<path d="M9.5179 6.63845C9.36244 6.71181 9.1767 6.64532 9.10334 6.48955C9.02998 6.33408 9.09647 6.14834 9.25193 6.07498L9.97336 5.73346C10.1288 5.6601 10.3146 5.72659 10.3879 5.88237C10.4613 6.03783 10.3948 6.22357 10.239 6.29693L9.5179 6.63845Z" fill="black"/>
<path d="M32.7173 7.71183C32.8843 7.66937 33.0542 7.77052 33.0966 7.93753C33.1391 8.10454 33.0379 8.27436 32.8709 8.31682C31.0378 8.78289 28.0407 10.5242 25.0744 12.5814C21.6461 14.9592 18.274 17.7494 16.7824 19.4851C16.6707 19.6156 16.474 19.6309 16.3435 19.5192C16.2127 19.4074 16.1977 19.2107 16.3095 19.0802C17.8323 17.3077 21.2528 14.4741 24.7207 12.0691C27.7416 9.97415 30.8106 8.19664 32.7173 7.71183Z" fill="black"/>
<path d="M30.7773 10.4229C30.6237 10.3455 30.5622 10.1582 30.6397 10.0046C30.7171 9.85103 30.9044 9.78953 31.058 9.86695C31.8631 10.2746 32.5636 10.854 33.1623 11.5992C33.7542 12.3356 34.2462 13.2331 34.6417 14.2855C34.7023 14.4465 34.6211 14.626 34.46 14.6866C34.299 14.7472 34.1194 14.666 34.0589 14.5049C33.6865 13.5138 33.2269 12.6734 32.6769 11.9891C32.1337 11.3136 31.5016 10.7897 30.7773 10.4229Z" fill="black"/>
<path d="M33.0842 9.71053C32.9306 9.63311 32.8691 9.4458 32.9465 9.29221C33.024 9.13862 33.2113 9.07713 33.3648 9.15455C33.9143 9.43269 34.3919 9.82759 34.7996 10.3352C35.2007 10.834 35.5335 11.4409 35.8007 12.1517C35.8613 12.3128 35.7801 12.4923 35.6191 12.5529C35.458 12.6134 35.2785 12.5323 35.2179 12.3712C34.9738 11.7219 34.6735 11.1718 34.3145 10.7254C33.962 10.2874 33.5528 9.94778 33.0842 9.71053Z" fill="black"/>
<path d="M19.6594 18.5671C19.5758 18.417 19.6301 18.2275 19.7802 18.1438C19.9304 18.0601 20.1199 18.1145 20.2032 18.2646C20.5357 18.8606 20.9443 19.4246 21.3861 19.9322C21.8734 20.4923 22.3947 20.9774 22.8935 21.3564C23.0303 21.46 23.0571 21.6551 22.9532 21.7919C22.8495 21.9286 22.6544 21.9554 22.5177 21.8515C21.9801 21.4428 21.4254 20.9284 20.9153 20.3418C20.4505 19.8077 20.0169 19.208 19.6594 18.5671Z" fill="black"/>
</svg>
