<svg width="327" height="327" viewBox="0 0 327 327" fill="none" xmlns="http://www.w3.org/2000/svg">
<path d="M188.962 182.02H157.143V190.438H188.962V182.02Z" fill="#EBEBEB"/>
<path d="M175.507 199.304C175.504 199.301 175.501 199.249 175.497 199.151C175.495 199.038 175.492 198.896 175.487 198.719C175.481 198.323 175.473 197.771 175.463 197.063C175.45 195.609 175.431 193.521 175.409 190.886L175.507 190.985C168.242 190.999 156.688 191.022 143.69 191.048C143.762 190.977 143.527 191.21 143.85 190.887V190.889V190.893V190.902V190.919V190.953V191.021V191.156V191.427V191.967C143.85 192.326 143.85 192.684 143.85 193.041C143.85 193.754 143.85 194.462 143.85 195.165C143.849 196.57 143.848 197.951 143.847 199.305L143.689 199.147C152.749 199.176 160.678 199.201 166.364 199.219C169.196 199.238 171.469 199.254 173.057 199.264C173.829 199.273 174.433 199.28 174.866 199.285C175.061 199.29 175.217 199.293 175.34 199.295C175.447 199.297 175.504 199.3 175.507 199.304C175.511 199.307 175.461 199.31 175.36 199.314C175.242 199.317 175.093 199.32 174.906 199.325C174.482 199.33 173.889 199.337 173.131 199.346C171.552 199.356 169.291 199.372 166.474 199.391C160.76 199.409 152.793 199.434 143.689 199.463L143.531 199.464V199.305C143.53 197.951 143.529 196.569 143.528 195.164C143.528 194.462 143.527 193.753 143.527 193.04C143.527 192.684 143.527 192.325 143.527 191.966V191.427V191.156V191.02V190.952V190.918V190.901V190.893V190.888V190.886C143.852 190.562 143.618 190.796 143.692 190.724C156.689 190.75 168.243 190.773 175.509 190.788H175.608L175.607 190.886C175.584 193.545 175.565 195.654 175.553 197.122C175.543 197.82 175.535 198.365 175.529 198.756C175.525 198.926 175.521 199.062 175.518 199.171C175.514 199.262 175.511 199.307 175.507 199.304Z" fill="#E0E0E0"/>
<path d="M304.218 40.0634H272.399V48.481H304.218V40.0634Z" fill="#EBEBEB"/>
<path d="M290.763 57.3473C290.76 57.3441 290.757 57.2924 290.753 57.1943C290.751 57.0818 290.747 56.9399 290.743 56.7626C290.737 56.3663 290.729 55.8143 290.719 55.1061C290.706 53.6529 290.688 51.564 290.665 48.9297L290.764 49.0284C283.499 49.0428 271.944 49.0664 258.947 49.0919C259.019 49.0199 258.783 49.2534 259.107 48.9303V48.9323V48.9369V48.9454V48.9624V48.9964V49.0644V49.1998V49.4705V50.0101C259.107 50.3691 259.107 50.7275 259.107 51.084C259.107 51.7975 259.106 52.5058 259.106 53.2082C259.106 54.613 259.104 55.9949 259.104 57.3486L258.945 57.1904C268.006 57.2191 275.934 57.2446 281.62 57.2623C284.453 57.2813 286.725 57.297 288.313 57.3074C289.086 57.3166 289.69 57.3231 290.123 57.3284C290.318 57.3329 290.473 57.3362 290.596 57.3388C290.703 57.3401 290.759 57.3434 290.763 57.3473C290.766 57.3506 290.717 57.3539 290.616 57.3578C290.498 57.3604 290.349 57.3637 290.162 57.3683C289.738 57.3735 289.144 57.38 288.387 57.3892C286.808 57.3996 284.547 57.4153 281.73 57.4343C276.016 57.4526 268.049 57.4775 258.945 57.5062L258.786 57.5069V57.348C258.786 55.9942 258.785 54.6123 258.784 53.2075C258.784 52.5051 258.783 51.7968 258.783 51.0833C258.783 50.7269 258.783 50.3685 258.783 50.0094V49.4699V49.1991V49.0631V48.9951V48.9611V48.9441V48.9356V48.931V48.929C259.108 48.6047 258.874 48.8388 258.947 48.7668C271.945 48.793 283.499 48.8159 290.764 48.8303H290.864L290.863 48.929C290.84 51.5882 290.821 53.6967 290.809 55.1643C290.798 55.8627 290.791 56.4082 290.785 56.7986C290.781 56.9687 290.777 57.1047 290.774 57.2133C290.77 57.3055 290.766 57.3506 290.763 57.3473Z" fill="#E0E0E0"/>
<path d="M61.448 80.8018H29.6289V89.2194H61.448V80.8018Z" fill="#EBEBEB"/>
<path d="M47.9931 98.0857C47.9899 98.0824 47.9866 98.0308 47.9833 97.9327C47.9807 97.8202 47.9774 97.6782 47.9729 97.501C47.967 97.1047 47.9591 96.5527 47.9493 95.8444C47.9362 94.3912 47.9179 92.3024 47.895 89.6681L47.9938 89.7668C40.7285 89.7812 29.1743 89.8047 16.1767 89.8302C16.2486 89.7583 16.0132 89.9918 16.3369 89.6687V89.6707V89.6752V89.6837V89.7008V89.7348V89.8028V89.9382V90.2089V90.7485C16.3369 91.1075 16.3369 91.4652 16.3369 91.8223C16.3369 92.5358 16.3363 93.2441 16.3363 93.9465C16.3356 95.3513 16.3343 96.7332 16.3336 98.087L16.1754 97.9287C25.2359 97.9575 33.1637 97.983 38.8502 98.0007C41.6827 98.0196 43.9553 98.0353 45.5432 98.0458C46.3156 98.055 46.9199 98.0615 47.3529 98.0667C47.5478 98.0713 47.7034 98.0746 47.8264 98.0772C47.933 98.0791 47.9899 98.0824 47.9931 98.0857C47.9964 98.089 47.9467 98.0922 47.846 98.0962C47.7283 98.0988 47.5791 98.102 47.3921 98.1066C46.9677 98.1118 46.3738 98.1184 45.6165 98.1276C44.0377 98.138 41.7769 98.1537 38.9601 98.1727C33.2461 98.191 25.2791 98.2158 16.1747 98.2446L16.0165 98.2453V98.0863C16.0158 96.7326 16.0145 95.3507 16.0138 93.9459C16.0138 93.2435 16.0132 92.5352 16.0132 91.8217C16.0132 91.4652 16.0132 91.1069 16.0132 90.7478V90.2083V89.9375V89.8021V89.7341V89.7001V89.6831V89.6746V89.67V89.6681C16.3376 89.3437 16.1041 89.5778 16.1773 89.5059C29.1749 89.532 40.7292 89.5549 47.9944 89.5693H48.0938L48.0932 89.6681C48.0696 92.3272 48.0513 94.4357 48.0389 95.9026C48.0284 96.6011 48.0206 97.1465 48.0147 97.537C48.0108 97.707 48.0069 97.8431 48.0042 97.9516C47.9997 98.0438 47.9964 98.089 47.9931 98.0857Z" fill="#E0E0E0"/>
<path d="M296.696 175.595C296.692 175.591 296.689 175.54 296.686 175.441C296.683 175.329 296.68 175.187 296.675 175.01C296.67 174.614 296.662 174.062 296.651 173.353C296.638 171.9 296.62 169.811 296.597 167.177L296.696 167.276C289.43 167.29 277.876 167.313 264.879 167.339C264.951 167.267 264.715 167.501 265.039 167.177V167.179V167.183V167.192V167.209V167.243V167.311V167.446V167.717V168.257C265.039 168.616 265.039 168.974 265.039 169.331C265.039 170.044 265.038 170.752 265.038 171.455C265.038 172.859 265.036 174.241 265.036 175.595L264.877 175.437C273.938 175.466 281.866 175.491 287.552 175.509C290.385 175.528 292.657 175.543 294.245 175.554C295.018 175.563 295.622 175.57 296.055 175.575C296.25 175.579 296.405 175.583 296.528 175.585C296.636 175.588 296.692 175.591 296.696 175.595C296.699 175.598 296.649 175.601 296.549 175.605C296.431 175.608 296.282 175.611 296.095 175.615C295.67 175.621 295.077 175.627 294.319 175.636C292.74 175.647 290.48 175.663 287.663 175.681C281.949 175.7 273.982 175.725 264.877 175.753L264.719 175.754V175.595C264.718 174.241 264.717 172.859 264.716 171.455C264.716 170.752 264.716 170.044 264.716 169.331C264.716 168.974 264.716 168.616 264.716 168.257V167.717V167.446V167.311V167.243V167.209V167.192V167.183V167.179V167.177C265.04 166.852 264.807 167.087 264.88 167.015C277.878 167.041 289.432 167.064 296.697 167.078H296.796L296.796 167.177C296.772 169.836 296.754 171.945 296.742 173.412C296.731 174.111 296.723 174.655 296.717 175.046C296.713 175.216 296.709 175.353 296.707 175.461C296.702 175.553 296.699 175.598 296.696 175.595Z" fill="#E0E0E0"/>
<path d="M301.01 167.177C301.006 167.173 301.002 167.119 300.998 167.017C300.995 166.896 300.99 166.749 300.985 166.571C300.978 166.157 300.968 165.594 300.957 164.883C300.942 163.407 300.92 161.322 300.894 158.759L301.01 158.876C296.057 158.887 289.32 158.904 281.894 158.921C281.748 159.066 282.089 158.724 282.055 158.76V158.762V158.766V158.775V158.793V158.827V158.897V159.035V159.311V159.862C282.055 160.227 282.055 160.592 282.054 160.953C282.053 161.677 282.053 162.392 282.053 163.096C282.051 164.504 282.049 165.87 282.047 167.178L281.892 167.023C287.412 167.053 292.163 167.078 295.568 167.096C297.248 167.114 298.594 167.128 299.552 167.139C299.999 167.147 300.356 167.153 300.626 167.159C300.872 167.164 301.004 167.171 301.01 167.177C301.017 167.183 300.898 167.189 300.663 167.196C300.401 167.2 300.055 167.207 299.62 167.215C298.671 167.226 297.337 167.24 295.672 167.258C292.24 167.276 287.453 167.302 281.892 167.331L281.737 167.332V167.177C281.736 165.869 281.734 164.503 281.732 163.095C281.731 162.391 281.731 161.676 281.73 160.953C281.73 160.591 281.73 160.227 281.73 159.861V159.311V159.035V158.896V158.827V158.792V158.774V158.766V158.761V158.759C281.694 158.793 282.037 158.451 281.893 158.596C289.319 158.614 296.057 158.63 301.01 158.642L301.127 158.643L301.126 158.759C301.1 161.352 301.078 163.461 301.063 164.954C301.051 165.654 301.041 166.208 301.034 166.616C301.026 166.992 301.018 167.185 301.01 167.177Z" fill="#E0E0E0"/>
<path d="M166.061 26.7729C166.058 26.7696 166.054 26.7179 166.051 26.6198C166.049 26.5073 166.045 26.3654 166.041 26.1882C166.035 25.7919 166.027 25.2399 166.017 24.5316C166.003 23.0784 165.985 20.9895 165.962 18.3552L166.061 18.454C158.796 18.4684 147.242 18.4913 134.244 18.5174C134.316 18.4455 134.08 18.679 134.404 18.3552V18.3572V18.3618V18.3703V18.3873V18.4213V18.4893V18.6247V18.8954V19.435C134.404 19.794 134.404 20.1524 134.404 20.5088C134.403 21.2224 134.403 21.9306 134.403 22.633C134.403 24.0378 134.402 25.4197 134.401 26.7735L134.243 26.6152C143.303 26.644 151.232 26.6695 156.917 26.6872C159.75 26.7062 162.023 26.7218 163.61 26.7323C164.383 26.7415 164.987 26.748 165.42 26.7532C165.615 26.7572 165.771 26.7611 165.894 26.7631C166.001 26.7657 166.057 26.7689 166.061 26.7729C166.064 26.7761 166.015 26.7801 165.914 26.7833C165.796 26.7859 165.647 26.7892 165.46 26.7938C165.036 26.799 164.442 26.8056 163.684 26.8147C162.106 26.8252 159.845 26.8409 157.028 26.8598C151.314 26.8782 143.347 26.903 134.243 26.9318L134.084 26.9324V26.7735C134.084 25.4197 134.082 24.0378 134.082 22.633C134.082 21.9306 134.081 21.2224 134.081 20.5088C134.081 20.1524 134.081 19.794 134.081 19.435V18.8954V18.6247V18.4886V18.4206V18.3866V18.3696V18.3611V18.3565V18.3546C134.405 18.0302 134.172 18.2643 134.245 18.1924C147.243 18.2185 158.797 18.2414 166.062 18.2558H166.162L166.161 18.3546C166.138 21.0137 166.119 23.1229 166.107 24.5898C166.096 25.2883 166.088 25.8337 166.083 26.2242C166.079 26.3942 166.075 26.5302 166.073 26.6388C166.068 26.731 166.064 26.7761 166.061 26.7729Z" fill="#E0E0E0"/>
<path d="M170.375 18.3552C170.371 18.3512 170.367 18.297 170.362 18.1949C170.359 18.074 170.354 17.9275 170.35 17.7489C170.343 17.3349 170.333 16.7718 170.321 16.0609C170.306 14.5849 170.285 12.5006 170.258 9.93754L170.375 10.054C165.422 10.0657 158.685 10.0821 151.258 10.0997C151.113 10.2443 151.454 9.90222 151.419 9.93819V9.94016V9.94473V9.95323V9.97024V10.0049V10.0742V10.2129V10.4889V11.0395C151.419 11.4051 151.419 11.7694 151.419 12.1311C151.418 12.8544 151.418 13.5692 151.417 14.2736C151.415 15.6816 151.413 17.0472 151.411 18.3552L151.257 18.2008C156.776 18.2303 161.527 18.2558 164.933 18.2741C166.612 18.2924 167.958 18.3061 168.916 18.3166C169.364 18.3244 169.72 18.331 169.991 18.3362C170.237 18.3421 170.369 18.3486 170.375 18.3552C170.381 18.3617 170.262 18.3676 170.027 18.3741C169.765 18.3787 169.419 18.3853 168.985 18.3938C168.035 18.4042 166.701 18.4186 165.037 18.4363C161.605 18.4546 156.818 18.4801 151.257 18.5095L151.103 18.5102V18.3552C151.101 17.0472 151.099 15.6816 151.097 14.2736C151.096 13.5692 151.096 12.8544 151.096 12.1311C151.096 11.7694 151.096 11.4051 151.095 11.0395V10.4889V10.2129V10.0742V10.0049V9.97024V9.95323V9.94473V9.94016V9.93819C151.06 9.9722 151.402 9.63016 151.258 9.77535C158.685 9.793 165.422 9.80935 170.375 9.82113H170.492L170.491 9.93754C170.465 12.5306 170.443 14.6391 170.428 16.1322C170.416 16.832 170.406 17.3859 170.399 17.794C170.391 18.1701 170.383 18.363 170.375 18.3552Z" fill="#E0E0E0"/>
<path d="M254.773 228.114C254.773 228.397 254.773 243.771 254.773 243.771H252.159V245.47H254.773V255.949H303.639V246.414H300.02V244.337H303.639V241.221H305.248V239.805H303.338V228.113H254.773V228.114Z" fill="#F5F5F5"/>
<path d="M290.664 228.16V255.776H303.64V246.24H300.02V244.338L303.64 244.402V241.287L305.28 241.289L305.249 239.679L303.339 239.632V228.114L290.664 228.16Z" fill="#E0E0E0"/>
<path d="M291.588 245.246C291.588 245.342 282.745 245.419 271.84 245.419C260.931 245.419 252.091 245.342 252.091 245.246C252.091 245.151 260.932 245.073 271.84 245.073C282.746 245.072 291.588 245.15 291.588 245.246Z" fill="#E0E0E0"/>
<path d="M291.588 243.656C291.588 243.752 282.745 243.83 271.84 243.83C260.931 243.83 252.091 243.752 252.091 243.656C252.091 243.56 260.932 243.482 271.84 243.482C282.746 243.482 291.588 243.56 291.588 243.656Z" fill="#E0E0E0"/>
<path d="M294.124 239.375C294.124 239.471 285.282 239.549 274.377 239.549C263.468 239.549 254.627 239.471 254.627 239.375C254.627 239.28 263.468 239.202 274.377 239.202C285.282 239.202 294.124 239.28 294.124 239.375Z" fill="#E0E0E0"/>
<path d="M294.369 251.039C294.369 251.135 285.526 251.213 274.621 251.213C263.712 251.213 254.872 251.135 254.872 251.039C254.872 250.944 263.712 250.866 274.621 250.866C285.526 250.866 294.369 250.944 294.369 251.039Z" fill="#E0E0E0"/>
<path d="M258.46 255.176C258.46 255.46 258.46 270.834 258.46 270.834H255.846V272.533H258.46V283.012H307.326V273.477H303.706V271.4H307.326V268.284H308.935V266.868H307.024V255.176H258.46V255.176Z" fill="#F5F5F5"/>
<path d="M294.35 255.222V282.838H307.326V273.303H303.707V271.4L307.326 271.465V268.349L308.967 268.351L308.935 266.742L307.025 266.695V255.176L294.35 255.222Z" fill="#E0E0E0"/>
<path d="M295.274 272.309C295.274 272.405 286.432 272.482 275.527 272.482C264.617 272.482 255.777 272.404 255.777 272.309C255.777 272.212 264.618 272.135 275.527 272.135C286.432 272.135 295.274 272.212 295.274 272.309Z" fill="#E0E0E0"/>
<path d="M295.274 270.718C295.274 270.814 286.432 270.892 275.527 270.892C264.617 270.892 255.777 270.814 255.777 270.718C255.777 270.623 264.618 270.545 275.527 270.545C286.432 270.545 295.274 270.623 295.274 270.718Z" fill="#E0E0E0"/>
<path d="M297.811 266.438C297.811 266.534 288.969 266.611 278.064 266.611C267.155 266.611 258.314 266.533 258.314 266.438C258.314 266.342 267.155 266.264 278.064 266.264C288.969 266.264 297.811 266.341 297.811 266.438Z" fill="#E0E0E0"/>
<path d="M298.055 278.102C298.055 278.198 289.212 278.275 278.308 278.275C267.398 278.275 258.558 278.197 258.558 278.102C258.558 278.006 267.399 277.928 278.308 277.928C289.212 277.928 298.055 278.006 298.055 278.102Z" fill="#E0E0E0"/>
<path d="M254.177 281.874C254.177 282.157 254.177 297.531 254.177 297.531H251.563V299.231H254.177V309.71H303.043V300.174H299.423V298.097H303.043V294.981H304.652V293.566H302.742V281.874H254.177Z" fill="#F5F5F5"/>
<path d="M290.066 281.919V309.536H303.043V300H299.423V298.098L303.043 298.163V295.047L304.683 295.049L304.652 293.439L302.742 293.392V281.874L290.066 281.919Z" fill="#E0E0E0"/>
<path d="M290.991 299.006C290.991 299.102 282.149 299.18 271.244 299.18C260.334 299.18 251.494 299.102 251.494 299.006C251.494 298.911 260.334 298.833 271.244 298.833C282.149 298.832 290.991 298.91 290.991 299.006Z" fill="#E0E0E0"/>
<path d="M290.991 297.416C290.991 297.512 282.149 297.589 271.244 297.589C260.334 297.589 251.494 297.511 251.494 297.416C251.494 297.32 260.334 297.242 271.244 297.242C282.149 297.242 290.991 297.32 290.991 297.416Z" fill="#E0E0E0"/>
<path d="M293.528 293.135C293.528 293.231 284.686 293.309 273.781 293.309C262.871 293.309 254.031 293.231 254.031 293.135C254.031 293.04 262.872 292.962 273.781 292.962C284.686 292.961 293.528 293.039 293.528 293.135Z" fill="#E0E0E0"/>
<path d="M293.772 304.799C293.772 304.896 284.929 304.973 274.024 304.973C263.115 304.973 254.275 304.895 254.275 304.799C254.275 304.704 263.116 304.626 274.024 304.626C284.929 304.626 293.772 304.704 293.772 304.799Z" fill="#E0E0E0"/>
<path d="M263.074 204.098C263.074 204.381 263.074 219.756 263.074 219.756H260.46V221.455H263.074V231.934H311.941V222.399H308.321V220.321H311.941V217.206H313.55V215.79H311.639V204.098H263.074V204.098Z" fill="#F5F5F5"/>
<path d="M298.965 204.143V231.76H311.942V222.225H308.322V220.322L311.942 220.386V217.271L313.581 217.273L313.55 215.663L311.639 215.616V204.098L298.965 204.143Z" fill="#E0E0E0"/>
<path d="M299.889 221.23C299.889 221.326 291.046 221.403 280.142 221.403C269.232 221.403 260.392 221.325 260.392 221.23C260.392 221.134 269.233 221.057 280.142 221.057C291.047 221.057 299.889 221.134 299.889 221.23Z" fill="#E0E0E0"/>
<path d="M299.889 219.639C299.889 219.736 291.046 219.813 280.142 219.813C269.232 219.813 260.392 219.735 260.392 219.639C260.392 219.544 269.233 219.466 280.142 219.466C291.047 219.466 299.889 219.544 299.889 219.639Z" fill="#E0E0E0"/>
<path d="M302.426 215.359C302.426 215.455 293.583 215.532 282.678 215.532C271.769 215.532 262.929 215.454 262.929 215.359C262.929 215.263 271.769 215.186 282.678 215.186C293.583 215.186 302.426 215.263 302.426 215.359Z" fill="#E0E0E0"/>
<path d="M302.67 227.024C302.67 227.12 293.827 227.198 282.922 227.198C272.013 227.198 263.173 227.12 263.173 227.024C263.173 226.928 272.014 226.85 282.922 226.85C293.827 226.85 302.67 226.928 302.67 227.024Z" fill="#E0E0E0"/>
<path d="M100.786 255.345C100.786 255.628 100.786 271.003 100.786 271.003H98.1724V272.702H100.786V283.181H149.653V273.645H146.033V271.568H149.653V268.453H151.261V267.037H149.351V255.344H100.786V255.345Z" fill="#F5F5F5"/>
<path d="M136.677 255.391V283.007H149.653V273.471H146.034V271.569L149.653 271.634V268.518L151.294 268.52L151.262 266.911L149.352 266.863V255.345L136.677 255.391Z" fill="#E0E0E0"/>
<path d="M137.601 272.477C137.601 272.574 128.758 272.651 117.853 272.651C106.944 272.651 98.104 272.573 98.104 272.477C98.104 272.382 106.945 272.304 117.853 272.304C128.759 272.303 137.601 272.381 137.601 272.477Z" fill="#E0E0E0"/>
<path d="M137.601 270.887C137.601 270.983 128.758 271.061 117.853 271.061C106.944 271.061 98.104 270.983 98.104 270.887C98.104 270.791 106.945 270.714 117.853 270.714C128.759 270.714 137.601 270.791 137.601 270.887Z" fill="#E0E0E0"/>
<path d="M140.138 266.606C140.138 266.703 131.295 266.78 120.39 266.78C109.481 266.78 100.641 266.702 100.641 266.606C100.641 266.511 109.481 266.433 120.39 266.433C131.296 266.433 140.138 266.511 140.138 266.606Z" fill="#E0E0E0"/>
<path d="M140.382 278.27C140.382 278.367 131.539 278.444 120.634 278.444C109.725 278.444 100.885 278.366 100.885 278.27C100.885 278.175 109.726 278.097 120.634 278.097C131.539 278.097 140.382 278.175 140.382 278.27Z" fill="#E0E0E0"/>
<path d="M104.473 282.408C104.473 282.691 104.473 298.065 104.473 298.065H101.859V299.764H104.473V310.243H153.339V300.708H149.719V298.631H153.339V295.515H154.948V294.099H153.038V282.407H104.473V282.408Z" fill="#F5F5F5"/>
<path d="M140.363 282.453V310.069H153.34V300.534H149.72V298.631L153.34 298.696V295.58L154.98 295.582L154.948 293.973L153.038 293.926V282.408L140.363 282.453Z" fill="#E0E0E0"/>
<path d="M141.288 299.54C141.288 299.636 132.445 299.713 121.54 299.713C110.631 299.713 101.791 299.635 101.791 299.54C101.791 299.444 110.631 299.367 121.54 299.367C132.445 299.367 141.288 299.444 141.288 299.54Z" fill="#E0E0E0"/>
<path d="M141.288 297.949C141.288 298.045 132.445 298.123 121.54 298.123C110.631 298.123 101.791 298.045 101.791 297.949C101.791 297.854 110.631 297.776 121.54 297.776C132.445 297.776 141.288 297.854 141.288 297.949Z" fill="#E0E0E0"/>
<path d="M143.824 293.669C143.824 293.765 134.981 293.842 124.077 293.842C113.167 293.842 104.327 293.764 104.327 293.669C104.327 293.573 113.168 293.496 124.077 293.496C134.981 293.496 143.824 293.573 143.824 293.669Z" fill="#E0E0E0"/>
<path d="M144.068 305.333C144.068 305.429 135.226 305.506 124.321 305.506C113.411 305.506 104.571 305.428 104.571 305.333C104.571 305.237 113.412 305.16 124.321 305.16C135.226 305.16 144.068 305.237 144.068 305.333Z" fill="#E0E0E0"/>
<path d="M109.088 231.33C109.088 231.613 109.088 246.987 109.088 246.987H106.474V248.686H109.088V259.165H157.954V249.63H154.334V247.553H157.954V244.437H159.563V243.021H157.652V231.329H109.088V231.33Z" fill="#F5F5F5"/>
<path d="M144.978 231.375V258.991H157.955V249.456H154.335V247.553L157.955 247.617V244.502L159.595 244.504L159.564 242.894L157.653 242.847V231.33L144.978 231.375Z" fill="#E0E0E0"/>
<path d="M145.902 248.461C145.902 248.557 137.06 248.634 126.155 248.634C115.245 248.634 106.405 248.557 106.405 248.461C106.405 248.366 115.246 248.288 126.155 248.288C137.06 248.288 145.902 248.366 145.902 248.461Z" fill="#E0E0E0"/>
<path d="M145.902 246.871C145.902 246.967 137.06 247.044 126.155 247.044C115.245 247.044 106.405 246.966 106.405 246.871C106.405 246.775 115.246 246.697 126.155 246.697C137.06 246.697 145.902 246.775 145.902 246.871Z" fill="#E0E0E0"/>
<path d="M148.439 242.59C148.439 242.686 139.596 242.763 128.691 242.763C117.782 242.763 108.942 242.686 108.942 242.59C108.942 242.495 117.783 242.417 128.691 242.417C139.597 242.417 148.439 242.495 148.439 242.59Z" fill="#E0E0E0"/>
<path d="M148.683 254.255C148.683 254.351 139.84 254.429 128.936 254.429C118.026 254.429 109.186 254.351 109.186 254.255C109.186 254.16 118.027 254.082 128.936 254.082C139.84 254.082 148.683 254.159 148.683 254.255Z" fill="#E0E0E0"/>
<path d="M181.092 282.455C181.092 282.73 181.092 297.63 181.092 297.63H178.559V299.277H181.092V309.433H228.452V300.192H224.944V298.179H228.452V295.159H230.011V293.787H228.159V282.455H181.092V282.455Z" fill="#F5F5F5"/>
<path d="M215.875 282.499V309.264H228.452V300.023H224.944V298.179L228.452 298.241V295.222L230.042 295.224L230.011 293.664L228.16 293.618V282.455L215.875 282.499Z" fill="#E0E0E0"/>
<path d="M216.771 299.059C216.771 299.152 208.201 299.227 197.633 299.227C187.06 299.227 178.492 299.152 178.492 299.059C178.492 298.966 187.06 298.891 197.633 298.891C208.202 298.891 216.771 298.966 216.771 299.059Z" fill="#E0E0E0"/>
<path d="M216.771 297.518C216.771 297.611 208.201 297.686 197.633 297.686C187.06 297.686 178.492 297.611 178.492 297.518C178.492 297.425 187.06 297.35 197.633 297.35C208.202 297.35 216.771 297.425 216.771 297.518Z" fill="#E0E0E0"/>
<path d="M219.23 293.369C219.23 293.462 210.66 293.537 200.091 293.537C189.519 293.537 180.951 293.462 180.951 293.369C180.951 293.276 189.519 293.201 200.091 293.201C210.661 293.201 219.23 293.277 219.23 293.369Z" fill="#E0E0E0"/>
<path d="M219.467 304.674C219.467 304.767 210.897 304.842 200.328 304.842C189.756 304.842 181.188 304.767 181.188 304.674C181.188 304.581 189.756 304.506 200.328 304.506C210.897 304.506 219.467 304.581 219.467 304.674Z" fill="#E0E0E0"/>
<path d="M26.8632 282.455C26.8632 282.73 26.8632 297.63 26.8632 297.63H24.3296V299.277H26.8632V309.433H74.2226V300.192H70.7145V298.179H74.2226V295.159H75.7817V293.787H73.9303V282.455H26.8632V282.455Z" fill="#F5F5F5"/>
<path d="M61.6465 282.499V309.264H74.2229V300.023H70.7148V298.179L74.2229 298.241V295.222L75.8128 295.224L75.782 293.664L73.9306 293.618V282.455L61.6465 282.499Z" fill="#E0E0E0"/>
<path d="M62.5425 299.059C62.5425 299.152 53.9724 299.227 43.4038 299.227C32.8312 299.227 24.2632 299.152 24.2632 299.059C24.2632 298.966 32.8312 298.891 43.4038 298.891C53.9724 298.891 62.5425 298.966 62.5425 299.059Z" fill="#E0E0E0"/>
<path d="M62.5425 297.518C62.5425 297.611 53.9724 297.686 43.4038 297.686C32.8312 297.686 24.2632 297.611 24.2632 297.518C24.2632 297.425 32.8312 297.35 43.4038 297.35C53.9724 297.35 62.5425 297.425 62.5425 297.518Z" fill="#E0E0E0"/>
<path d="M65.001 293.369C65.001 293.462 56.4309 293.537 45.8623 293.537C35.2897 293.537 26.7217 293.462 26.7217 293.369C26.7217 293.276 35.2897 293.201 45.8623 293.201C56.4309 293.201 65.001 293.277 65.001 293.369Z" fill="#E0E0E0"/>
<path d="M65.2368 304.674C65.2368 304.767 56.6668 304.842 46.0981 304.842C35.5256 304.842 26.9575 304.767 26.9575 304.674C26.9575 304.581 35.5256 304.506 46.0981 304.506C56.6674 304.506 65.2368 304.581 65.2368 304.674Z" fill="#E0E0E0"/>
<path d="M230.64 116.416V122H229.52V118.368L228.024 122H227.176L225.672 118.368V122H224.552V116.416H225.824L227.6 120.568L229.376 116.416H230.64ZM234.339 122.056C233.817 122.056 233.337 121.933 232.899 121.688C232.462 121.443 232.115 121.104 231.859 120.672C231.603 120.235 231.475 119.741 231.475 119.192C231.475 118.648 231.603 118.16 231.859 117.728C232.115 117.291 232.462 116.949 232.899 116.704C233.337 116.459 233.817 116.336 234.339 116.336C234.867 116.336 235.347 116.459 235.779 116.704C236.217 116.949 236.561 117.291 236.811 117.728C237.067 118.16 237.195 118.648 237.195 119.192C237.195 119.741 237.067 120.235 236.811 120.672C236.561 121.104 236.217 121.443 235.779 121.688C235.342 121.933 234.862 122.056 234.339 122.056ZM234.339 121.056C234.675 121.056 234.971 120.981 235.227 120.832C235.483 120.677 235.683 120.459 235.827 120.176C235.971 119.893 236.043 119.565 236.043 119.192C236.043 118.819 235.971 118.493 235.827 118.216C235.683 117.933 235.483 117.717 235.227 117.568C234.971 117.419 234.675 117.344 234.339 117.344C234.003 117.344 233.705 117.419 233.443 117.568C233.187 117.717 232.987 117.933 232.843 118.216C232.699 118.493 232.627 118.819 232.627 119.192C232.627 119.565 232.699 119.893 232.843 120.176C232.987 120.459 233.187 120.677 233.443 120.832C233.705 120.981 234.003 121.056 234.339 121.056ZM239.981 116.416C240.567 116.416 241.082 116.531 241.525 116.76C241.973 116.989 242.317 117.317 242.557 117.744C242.802 118.165 242.925 118.656 242.925 119.216C242.925 119.776 242.802 120.267 242.557 120.688C242.317 121.104 241.973 121.427 241.525 121.656C241.082 121.885 240.567 122 239.981 122H238.029V116.416H239.981ZM239.941 121.048C240.527 121.048 240.981 120.888 241.301 120.568C241.621 120.248 241.781 119.797 241.781 119.216C241.781 118.635 241.621 118.181 241.301 117.856C240.981 117.525 240.527 117.36 239.941 117.36H239.149V121.048H239.941ZM244.883 117.32V118.72H246.763V119.608H244.883V121.088H247.003V122H243.763V116.408H247.003V117.32H244.883ZM250.901 122L249.669 119.824H249.141V122H248.021V116.416H250.117C250.549 116.416 250.917 116.493 251.221 116.648C251.525 116.797 251.751 117.003 251.901 117.264C252.055 117.52 252.133 117.808 252.133 118.128C252.133 118.496 252.026 118.829 251.813 119.128C251.599 119.421 251.282 119.624 250.861 119.736L252.197 122H250.901ZM249.141 118.984H250.077C250.381 118.984 250.607 118.912 250.757 118.768C250.906 118.619 250.981 118.413 250.981 118.152C250.981 117.896 250.906 117.699 250.757 117.56C250.607 117.416 250.381 117.344 250.077 117.344H249.141V118.984ZM256.57 120.936H254.346L253.978 122H252.802L254.81 116.408H256.114L258.122 122H256.938L256.57 120.936ZM256.266 120.04L255.458 117.704L254.65 120.04H256.266ZM262.672 116.416V117.32H261.184V122H260.064V117.32H258.576V116.416H262.672ZM264.61 117.32V118.72H266.49V119.608H264.61V121.088H266.73V122H263.49V116.408H266.73V117.32H264.61Z" fill="white"/>
<path d="M309.096 309.638C309.096 309.732 243.905 309.808 163.507 309.808C83.0803 309.808 17.9033 309.732 17.9033 309.638C17.9033 309.544 83.0803 309.468 163.507 309.468C243.905 309.468 309.096 309.544 309.096 309.638Z" fill="#263238"/>
<path d="M267.169 183.719C260.608 187.118 255.577 192.969 251.959 199.412C248.341 205.856 246.009 212.925 243.7 219.944L241.679 256.143C249.313 243.155 255.441 227.888 257.097 212.913C255.403 212.762 253.71 212.611 252.016 212.46C255.422 211.94 258.282 209.472 260.101 206.546C261.92 203.619 262.856 200.244 263.771 196.922C261.705 197.229 259.639 197.536 257.572 197.843C262.426 194.605 265.945 189.425 267.169 183.719Z" fill="#455A64"/>
<g opacity="0.3">
<path d="M267.169 183.719C260.608 187.118 255.577 192.969 251.959 199.412C248.341 205.856 246.009 212.925 243.7 219.944L241.679 256.143C249.313 243.155 255.441 227.888 257.097 212.913C255.403 212.762 253.71 212.611 252.016 212.46C255.422 211.94 258.282 209.472 260.101 206.546C261.92 203.619 262.856 200.244 263.771 196.922C261.705 197.229 259.639 197.536 257.572 197.843C262.426 194.605 265.945 189.425 267.169 183.719Z" fill="black"/>
</g>
<path d="M240.549 264.625C240.549 264.625 223.979 244.791 224.17 225.858H230.863C230.863 225.858 223.593 221.076 224.168 218.399C224.743 215.721 224.934 205.585 224.934 205.585L231.054 207.115C231.054 207.115 226.464 204.82 225.89 201.186C225.317 197.552 227.229 180.722 227.229 180.722C227.229 180.722 234.688 188.564 236.983 196.596C239.278 204.629 245.302 214 243.533 238.48C241.765 262.96 240.549 264.625 240.549 264.625Z" fill="#455A64"/>
<path d="M248.95 266.497C248.95 266.497 266.902 254.537 270.891 239.274L265.509 237.809C265.509 237.809 272.4 235.556 272.524 233.278C272.647 230.999 274.711 222.808 274.711 222.808L269.456 222.699C269.456 222.699 273.648 221.858 274.904 219.062C276.161 216.266 278.305 202.317 278.305 202.317C278.305 202.317 270.593 206.989 266.99 212.945C263.388 218.901 256.494 225.117 252.56 245.185C248.627 265.253 248.95 266.497 248.95 266.497Z" fill="#455A64"/>
<path d="M231.756 198.016C231.762 198.014 231.782 198.084 231.817 198.221C231.854 198.376 231.902 198.577 231.962 198.831C232.088 199.391 232.265 200.179 232.491 201.184C232.722 202.206 232.989 203.459 233.28 204.918C233.576 206.376 233.921 208.035 234.257 209.876C234.968 213.554 235.718 217.95 236.49 222.841C237.238 227.737 237.985 233.13 238.648 238.806C239.297 244.485 239.801 249.908 240.19 254.846C240.555 259.785 240.827 264.237 240.974 267.98C241.066 269.85 241.109 271.543 241.154 273.031C241.204 274.517 241.23 275.798 241.238 276.845C241.248 277.875 241.255 278.683 241.26 279.257C241.259 279.518 241.258 279.724 241.258 279.884C241.255 280.025 241.251 280.098 241.245 280.098C241.239 280.098 241.232 280.026 241.223 279.885C241.215 279.725 241.205 279.518 241.192 279.258C241.172 278.685 241.143 277.877 241.106 276.849C241.077 275.802 241.033 274.522 240.965 273.037C240.902 271.552 240.842 269.86 240.735 267.992C240.557 264.253 240.259 259.805 239.878 254.872C239.472 249.939 238.96 244.521 238.31 238.847C237.648 233.175 236.911 227.784 236.181 222.89C235.427 218 234.702 213.602 234.022 209.922C233.7 208.078 233.373 206.417 233.095 204.956C232.822 203.495 232.573 202.238 232.363 201.213C232.165 200.203 232.008 199.41 231.898 198.847C231.851 198.591 231.813 198.387 231.785 198.23C231.76 198.089 231.751 198.016 231.756 198.016Z" fill="#263238"/>
<path d="M238.25 276.77C238.25 276.77 223.086 259.564 218.378 249.163L221.932 247.645C219.356 248.07 216.716 246.963 214.718 245.281C212.72 243.6 211.253 241.388 209.815 239.209L214.498 238.418C210.239 237.223 206.488 234.317 204.267 230.492C209.793 231.401 214.791 234.436 218.911 238.229C222.247 241.301 225.071 244.867 227.784 248.511C229.107 250.288 230.266 252.182 231.23 254.177C233.778 259.445 238.259 270.452 238.25 276.77Z" fill="#455A64"/>
<path d="M271.129 212.332C271.135 212.334 271.111 212.394 271.061 212.507C271 212.638 270.924 212.802 270.829 213.008C270.608 213.468 270.3 214.106 269.908 214.919C269.097 216.571 267.947 218.975 266.555 221.957C263.767 227.92 260.094 236.243 256.468 245.609C252.849 254.981 249.966 263.611 248.018 269.899C247.042 273.042 246.276 275.594 245.765 277.362C245.508 278.226 245.306 278.906 245.162 279.394C245.094 279.61 245.039 279.783 244.996 279.92C244.957 280.039 244.934 280.098 244.929 280.097C244.923 280.096 244.935 280.033 244.963 279.911C244.997 279.772 245.041 279.595 245.095 279.376C245.226 278.883 245.407 278.197 245.638 277.325C246.11 275.545 246.842 272.982 247.789 269.828C249.679 263.518 252.528 254.868 256.151 245.486C259.78 236.111 263.492 227.795 266.337 221.854C267.759 218.883 268.942 216.495 269.791 214.86C270.206 214.06 270.533 213.43 270.768 212.978C270.876 212.778 270.962 212.619 271.03 212.492C271.09 212.383 271.124 212.329 271.129 212.332Z" fill="#263238"/>
<path d="M239.537 284.143C239.525 284.145 239.499 284.036 239.461 283.827C239.42 283.58 239.37 283.279 239.31 282.914C239.193 282.121 238.993 280.975 238.714 279.569C238.441 278.161 238.05 276.499 237.553 274.67C237.04 272.846 236.41 270.859 235.644 268.811C234.866 266.767 234.024 264.859 233.204 263.151C232.369 261.45 231.563 259.943 230.838 258.706C230.118 257.466 229.511 256.475 229.074 255.802C228.878 255.49 228.717 255.231 228.584 255.017C228.475 254.836 228.423 254.738 228.432 254.73C228.442 254.724 228.513 254.809 228.641 254.978C228.788 255.182 228.968 255.429 229.184 255.728C229.656 256.38 230.296 257.354 231.045 258.583C231.799 259.809 232.631 261.31 233.486 263.012C234.326 264.721 235.18 266.635 235.963 268.69C236.734 270.749 237.357 272.749 237.856 274.587C238.34 276.429 238.708 278.105 238.952 279.523C239.202 280.941 239.365 282.095 239.442 282.896C239.477 283.263 239.506 283.568 239.529 283.818C239.546 284.03 239.548 284.142 239.537 284.143Z" fill="#263238"/>
<path d="M259.547 280.096H226.357V286.867H259.547V280.096Z" fill="#1A6980"/>
<path d="M229.52 286.866L233.11 309.638H253.165L256.511 286.866H229.52Z" fill="#1A6980"/>
<path d="M257.51 286.866C257.51 286.96 251.232 287.036 243.489 287.036C235.743 287.036 229.467 286.959 229.467 286.866C229.467 286.772 235.744 286.696 243.489 286.696C251.232 286.696 257.51 286.772 257.51 286.866Z" fill="#263238"/>
<path d="M276.132 146.073H220.276C220.276 117.958 197.261 94.4022 169.145 94.4022C141.03 94.4022 118.066 117.958 118.066 146.073H62.1587C62.1587 87.0807 110.152 38.4048 169.145 38.4048C228.138 38.4048 276.132 87.0807 276.132 146.073Z" fill="#E0E0E0"/>
<path d="M169.175 45.3685C158.152 45.3685 147.539 47.1546 137.604 50.4429L151.322 93.0903C156.931 91.1956 162.935 90.1675 169.175 90.1675C175.969 90.1675 182.484 91.3872 188.513 93.6167L202.782 51.1433C192.266 47.4084 180.955 45.3685 169.175 45.3685Z" fill="#1A6980"/>
<path d="M269.88 146.073C269.88 125.436 263.636 106.232 252.944 90.2421L216.987 117.124C222.122 125.573 225.082 135.484 225.082 146.073H269.88Z" fill="#1A6980"/>
<path d="M68.4697 146.073H113.268C113.268 135.407 116.272 125.43 121.476 116.941L85.8642 89.5607C74.8914 105.684 68.4697 125.143 68.4697 146.073Z" fill="#1A6980"/>
<path d="M85.8633 89.5606L121.476 116.941C128.268 105.861 138.809 97.3171 151.321 93.0896L137.604 50.4423C116.357 57.4747 98.2219 71.3997 85.8633 89.5606Z" fill="#1A6980"/>
<path d="M202.782 51.1421L188.513 93.6155C200.442 98.0267 210.469 106.397 216.988 117.124L252.945 90.2421C240.971 72.3356 223.413 58.4675 202.782 51.1421Z" fill="#1A6980"/>
<g opacity="0.5">
<path d="M68.4697 146.073H113.268C113.268 135.407 116.272 125.43 121.476 116.941L85.8642 89.5607C74.8914 105.684 68.4697 125.143 68.4697 146.073Z" fill="white"/>
</g>
<g opacity="0.3">
<path d="M85.8638 89.5606L121.476 116.941C128.268 105.861 138.81 97.3171 151.322 93.0896L137.604 50.4423C116.358 57.4747 98.2224 71.3997 85.8638 89.5606Z" fill="white"/>
</g>
<g opacity="0.3">
<path d="M202.782 51.1421L188.513 93.6155C200.442 98.0267 210.469 106.397 216.988 117.124L252.945 90.2421C240.971 72.3356 223.413 58.4675 202.782 51.1421Z" fill="black"/>
</g>
<g opacity="0.5">
<path d="M269.88 146.074C269.88 125.437 263.636 106.232 252.944 90.2422L216.987 117.124C222.122 125.573 225.082 135.485 225.082 146.074H269.88Z" fill="black"/>
</g>
<path d="M252.945 90.2428C252.945 90.2428 253.712 91.3743 255.121 93.5998C256.488 95.8489 258.472 99.2177 260.619 103.812C261.145 104.965 261.72 106.176 262.241 107.489C262.511 108.141 262.788 108.81 263.071 109.495C263.33 110.19 263.594 110.901 263.865 111.629C264.433 113.076 264.897 114.632 265.44 116.234C265.677 117.046 265.92 117.874 266.167 118.718C266.288 119.14 266.411 119.568 266.536 119.998C266.644 120.433 266.754 120.872 266.865 121.314C267.789 124.848 268.542 128.703 269.089 132.84C269.637 136.978 269.97 141.403 269.983 146.074V146.177H269.879C256.839 146.185 241.774 146.194 225.082 146.204H224.952L224.952 146.074C224.93 140.201 224.028 134.085 221.971 128.122C219.945 122.157 216.803 116.341 212.592 111.134C208.386 105.928 203.117 101.327 197.013 97.7821C193.958 96.017 190.691 94.5429 187.285 93.3441C183.869 92.1728 180.3 91.3193 176.643 90.8242C169.328 89.8491 161.65 90.2932 154.251 92.3618C150.55 93.384 146.933 94.83 143.47 96.6363C140.006 98.4407 136.698 100.62 133.652 103.168C127.532 108.225 122.421 114.703 118.879 122.068C115.348 129.437 113.433 137.7 113.437 146.074V146.244H113.267C109.742 146.244 105.942 146.244 102.126 146.244C90.5965 146.244 79.2241 146.244 68.4697 146.243H68.3003L68.3009 146.074C68.3251 136.996 69.5409 128.058 71.8391 119.564C74.1765 111.078 77.5792 103.051 81.8139 95.6998C86.0891 88.3711 91.1667 81.7088 96.8363 75.8829C99.6387 72.936 102.665 70.2795 105.722 67.7524C108.791 65.2332 112.015 62.9933 115.256 60.8835C121.809 56.7724 128.613 53.4416 135.511 51.0329C142.385 48.5621 149.325 46.9605 156.1 46.0848C169.67 44.3229 182.534 45.4536 193.72 48.2874C204.939 51.1075 214.474 55.6161 222.216 60.4198C226.103 62.8128 229.526 65.3346 232.548 67.7962C235.595 70.2317 238.177 72.6875 240.455 74.9281C242.696 77.208 244.599 79.3119 246.178 81.1921C246.954 82.1424 247.671 83.0201 248.326 83.8219C248.949 84.6479 249.513 85.396 250.018 86.0651C250.531 86.7276 250.954 87.3319 251.312 87.8577C251.672 88.3796 251.975 88.8184 252.219 89.1716C252.703 89.8773 252.945 90.2428 252.945 90.2428C252.945 90.2428 252.685 89.8897 252.19 89.1905C251.942 88.8393 251.635 88.4044 251.27 87.8858C250.909 87.3633 250.482 86.7622 249.964 86.1037C247.979 83.4105 244.859 79.5532 240.364 75.0164C238.083 72.7856 235.498 70.3396 232.45 67.9146C229.426 65.4641 226.005 62.9527 222.12 60.5722C214.382 55.7914 204.859 51.3082 193.663 48.5085C182.499 45.6956 169.666 44.5825 156.133 46.3522C149.377 47.2319 142.458 48.8348 135.605 51.3037C128.729 53.711 121.947 57.0366 115.416 61.1392C112.186 63.2444 108.973 65.4791 105.914 67.9931C102.868 70.5143 99.8525 73.1643 97.0606 76.1033C91.412 81.9135 86.3527 88.5575 82.0938 95.864C77.8762 103.193 74.4865 111.194 72.1595 119.653C69.8712 128.12 68.6613 137.028 68.6384 146.075L68.469 145.906C79.2234 145.905 90.5958 145.905 102.125 145.905C105.942 145.905 109.741 145.905 113.267 145.905L113.097 146.075C113.093 137.65 115.02 129.336 118.574 121.923C122.138 114.513 127.281 107.998 133.439 102.912C136.503 100.35 139.832 98.1582 143.317 96.3446C146.801 94.5291 150.44 93.0753 154.163 92.0485C161.606 89.9708 169.329 89.5274 176.684 90.5116C180.363 91.0106 183.951 91.8713 187.386 93.0505C190.811 94.2577 194.095 95.7423 197.166 97.5186C203.3 101.087 208.595 105.716 212.819 110.952C217.048 116.189 220.202 122.036 222.232 128.034C224.295 134.028 225.196 140.174 225.211 146.075L225.081 145.945C241.774 145.956 256.838 145.965 269.879 145.973L269.776 146.075C269.771 141.413 269.445 136.996 268.906 132.865C268.367 128.734 267.623 124.885 266.709 121.354C266.599 120.912 266.49 120.473 266.382 120.039C266.26 119.609 266.138 119.182 266.017 118.761C265.772 117.917 265.532 117.09 265.297 116.279C264.758 114.678 264.299 113.122 263.736 111.676C263.468 110.948 263.205 110.238 262.949 109.543C262.668 108.858 262.394 108.189 262.126 107.537C261.609 106.225 261.038 105.013 260.517 103.86C258.389 99.2628 256.421 95.8888 255.07 93.6306C254.386 92.5063 253.832 91.6738 253.478 91.1035C253.121 90.5352 252.945 90.2428 252.945 90.2428Z" fill="#263238"/>
<path d="M246.979 111.114C246.874 110.739 246.844 110.382 246.888 110.043C246.934 109.709 247.053 109.422 247.246 109.18C247.439 108.938 247.699 108.769 248.026 108.672L248.348 109.828C248.131 109.905 247.978 110.031 247.888 110.205C247.8 110.385 247.79 110.598 247.859 110.844C247.929 111.096 248.043 111.278 248.201 111.389C248.364 111.498 248.544 111.526 248.739 111.471C248.898 111.427 249.016 111.342 249.091 111.216C249.167 111.089 249.212 110.944 249.227 110.779C249.249 110.618 249.26 110.399 249.26 110.122C249.266 109.744 249.287 109.431 249.323 109.183C249.366 108.939 249.465 108.709 249.621 108.494C249.784 108.283 250.035 108.13 250.374 108.035C250.692 107.947 250.992 107.949 251.273 108.043C251.553 108.136 251.795 108.31 251.999 108.563C252.207 108.815 252.363 109.126 252.466 109.496C252.62 110.051 252.609 110.539 252.432 110.959C252.263 111.382 251.941 111.679 251.468 111.85L251.138 110.663C251.32 110.601 251.449 110.479 251.526 110.297C251.609 110.119 251.617 109.909 251.55 109.668C251.492 109.457 251.391 109.303 251.247 109.204C251.105 109.111 250.931 109.093 250.725 109.15C250.581 109.19 250.474 109.27 250.402 109.39C250.336 109.513 250.292 109.653 250.269 109.808C250.253 109.968 250.241 110.187 250.236 110.465C250.23 110.843 250.207 111.157 250.166 111.407C250.124 111.656 250.023 111.889 249.862 112.106C249.701 112.322 249.453 112.477 249.119 112.57C248.831 112.65 248.543 112.65 248.255 112.569C247.967 112.489 247.709 112.325 247.48 112.079C247.256 111.831 247.089 111.51 246.979 111.114ZM252.631 113.763L251.283 114.138L251.787 115.949L250.931 116.187L250.427 114.376L249.001 114.773L249.57 116.815L248.691 117.06L247.822 113.938L253.21 112.439L254.078 115.561L253.2 115.805L252.631 113.763ZM255.688 121.376L249.759 120.9L249.395 119.589L254.225 116.12L254.547 117.276L250.681 119.946L255.368 120.228L255.688 121.376ZM255.297 123.344L253.948 123.72L254.452 125.531L253.597 125.769L253.093 123.958L251.667 124.354L252.235 126.397L251.357 126.641L250.488 123.52L255.876 122.021L256.744 125.142L255.865 125.387L255.297 123.344ZM252.401 130.396L254.168 128.626L254.026 128.117L251.93 128.701L251.629 127.622L257.009 126.125L257.571 128.144C257.687 128.56 257.711 128.936 257.643 129.27C257.581 129.603 257.444 129.876 257.232 130.09C257.027 130.308 256.77 130.46 256.462 130.545C256.107 130.644 255.758 130.631 255.413 130.505C255.073 130.378 254.793 130.127 254.572 129.751L252.749 131.645L252.401 130.396ZM254.835 127.892L255.086 128.794C255.168 129.087 255.298 129.286 255.476 129.391C255.66 129.495 255.878 129.512 256.13 129.442C256.377 129.373 256.547 129.249 256.64 129.068C256.739 128.885 256.748 128.647 256.666 128.355L256.415 127.453L254.835 127.892ZM257.812 132.384L256.463 132.759L256.967 134.57L256.112 134.808L255.608 132.997L254.182 133.394L254.75 135.436L253.872 135.681L253.003 132.559L258.39 131.06L259.259 134.182L258.38 134.426L257.812 132.384Z" fill="white"/>
<path d="M190.124 135.615C191.415 130.182 188.058 124.731 182.625 123.439C177.192 122.147 171.74 125.505 170.449 130.938C169.157 136.371 172.514 141.822 177.947 143.114C183.38 144.406 188.832 141.048 190.124 135.615Z" fill="#263238"/>
<path d="M100.853 106.623C100.355 107.963 101.061 109.45 102.416 109.909L180.282 138.995L184.576 128.782L103.99 105.088C102.702 104.684 101.324 105.358 100.853 106.623Z" fill="#263238"/>
<path d="M190.124 135.615C191.415 130.182 188.058 124.731 182.625 123.439C177.192 122.147 171.74 125.505 170.449 130.938C169.157 136.371 172.514 141.822 177.947 143.114C183.38 144.406 188.832 141.048 190.124 135.615Z" fill="#263238"/>
<path d="M100.853 106.623C100.355 107.963 101.061 109.45 102.416 109.909L180.282 138.995L184.576 128.782L103.99 105.088C102.702 104.684 101.324 105.358 100.853 106.623Z" fill="#263238"/>
<path d="M162.701 131.341C162.685 130.952 162.685 130.564 162.711 130.175C162.724 129.97 162.745 129.766 162.768 129.561C162.728 129.916 162.794 129.438 162.816 129.319C162.889 128.937 162.982 128.559 163.095 128.187C163.154 127.99 163.22 127.795 163.29 127.601C163.322 127.516 163.356 127.43 163.388 127.345C163.498 127.053 163.324 127.468 163.409 127.293C163.75 126.588 164.111 125.911 164.574 125.277C164.594 125.25 164.773 125.021 164.653 125.169C164.533 125.318 164.719 125.093 164.74 125.067C164.872 124.909 165.008 124.754 165.148 124.605C165.43 124.305 165.731 124.023 166.044 123.756C166.699 123.201 166.659 122.008 166.044 121.444C165.348 120.804 164.43 120.851 163.732 121.444C160.899 123.85 159.273 127.632 159.43 131.34C159.466 132.194 160.156 133.016 161.065 132.975C161.921 132.938 162.74 132.256 162.701 131.341Z" fill="#B56F57"/>
<path d="M162.712 129.754C162.668 129.843 161.994 129.572 161.123 129.468C160.253 129.353 159.533 129.446 159.513 129.348C159.487 129.263 160.228 129.007 161.166 129.13C162.105 129.245 162.759 129.678 162.712 129.754Z" fill="#263238"/>
<path d="M163.519 127.108C163.449 127.179 162.891 126.715 162.095 126.346C161.303 125.969 160.589 125.836 160.6 125.737C160.601 125.648 161.385 125.633 162.24 126.038C163.097 126.437 163.587 127.05 163.519 127.108Z" fill="#263238"/>
<path d="M164.706 125.204C164.617 125.25 164.236 124.632 163.6 124.029C162.97 123.418 162.336 123.064 162.377 122.974C162.407 122.89 163.154 123.125 163.835 123.783C164.521 124.434 164.788 125.171 164.706 125.204Z" fill="#263238"/>
<path d="M152.119 127.568C152.103 127.179 152.103 126.791 152.129 126.403C152.142 126.197 152.163 125.993 152.186 125.788C152.146 126.144 152.212 125.665 152.234 125.546C152.307 125.164 152.4 124.786 152.513 124.414C152.572 124.217 152.638 124.022 152.708 123.828C152.74 123.743 152.774 123.658 152.806 123.572C152.916 123.28 152.742 123.695 152.827 123.52C153.168 122.815 153.529 122.138 153.991 121.504C154.011 121.477 154.19 121.248 154.071 121.396C153.951 121.545 154.137 121.32 154.157 121.294C154.289 121.136 154.425 120.982 154.566 120.832C154.847 120.531 155.148 120.25 155.462 119.984C156.116 119.428 156.076 118.235 155.462 117.671C154.765 117.031 153.847 117.078 153.15 117.671C150.316 120.077 148.691 123.859 148.848 127.567C148.884 128.421 149.574 129.243 150.483 129.202C151.339 129.164 152.158 128.484 152.119 127.568Z" fill="#B56F57"/>
<path d="M152.13 125.981C152.086 126.07 151.412 125.8 150.541 125.695C149.671 125.58 148.951 125.673 148.931 125.575C148.905 125.49 149.646 125.234 150.584 125.357C151.523 125.473 152.177 125.905 152.13 125.981Z" fill="#263238"/>
<path d="M152.937 123.335C152.867 123.406 152.309 122.942 151.513 122.573C150.721 122.196 150.007 122.063 150.018 121.964C150.019 121.876 150.803 121.86 151.658 122.265C152.515 122.664 153.005 123.277 152.937 123.335Z" fill="#263238"/>
<path d="M154.124 121.431C154.035 121.477 153.654 120.858 153.018 120.255C152.388 119.644 151.754 119.29 151.795 119.2C151.825 119.116 152.572 119.352 153.253 120.009C153.939 120.661 154.206 121.398 154.124 121.431Z" fill="#263238"/>
<path d="M166.886 132.833C166.869 132.445 166.87 132.056 166.895 131.668C166.908 131.462 166.93 131.258 166.953 131.054C166.913 131.409 166.978 130.93 167.001 130.811C167.073 130.429 167.166 130.051 167.279 129.68C167.339 129.483 167.404 129.287 167.475 129.094C167.506 129.007 167.54 128.923 167.572 128.837C167.682 128.545 167.508 128.96 167.593 128.784C167.935 128.08 168.296 127.402 168.758 126.769C168.778 126.742 168.957 126.512 168.837 126.661C168.717 126.81 168.903 126.584 168.924 126.559C169.056 126.4 169.192 126.246 169.332 126.096C169.614 125.796 169.914 125.515 170.229 125.248C170.883 124.692 170.844 123.5 170.229 122.936C169.532 122.296 168.615 122.343 167.916 122.936C165.083 125.342 163.458 129.124 163.615 132.832C163.651 133.685 164.341 134.507 165.25 134.467C166.105 134.43 166.925 133.748 166.886 132.833Z" fill="#B56F57"/>
<path d="M166.897 131.246C166.853 131.336 166.179 131.065 165.308 130.96C164.438 130.845 163.718 130.939 163.698 130.841C163.672 130.756 164.413 130.5 165.351 130.622C166.29 130.737 166.943 131.17 166.897 131.246Z" fill="#263238"/>
<path d="M167.704 128.599C167.634 128.671 167.076 128.206 166.28 127.838C165.488 127.461 164.774 127.328 164.785 127.229C164.786 127.141 165.57 127.124 166.425 127.53C167.282 127.929 167.771 128.542 167.704 128.599Z" fill="#263238"/>
<path d="M168.89 126.696C168.802 126.742 168.421 126.123 167.784 125.52C167.155 124.909 166.52 124.556 166.562 124.465C166.591 124.382 167.339 124.617 168.02 125.274C168.705 125.926 168.973 126.663 168.89 126.696Z" fill="#263238"/>
<path d="M71.4228 298.931L78.1492 308.239C78.1492 308.239 63.8279 315.229 63.9332 317.991L92.6732 315.135L92.3953 312.182C92.3103 311.284 92.0519 310.41 91.6334 309.61L82.9051 292.917L71.4228 298.931Z" fill="#263238"/>
<path d="M92.6736 315.135L92.3629 312.814L64.9237 316.42C64.9237 316.42 63.6994 317.104 63.9336 317.991L92.6736 315.135Z" fill="#455A64"/>
<path d="M77.9967 308.249C78.015 308.388 78.7233 308.383 79.4584 308.765C80.204 309.129 80.6199 309.701 80.7435 309.633C80.8704 309.593 80.5774 308.775 79.6788 308.327C78.7854 307.87 77.9536 308.122 77.9967 308.249Z" fill="white"/>
<path d="M74.9687 309.885C74.9503 310.024 75.5815 310.202 76.1171 310.749C76.6684 311.279 76.8528 311.909 76.9921 311.889C77.1262 311.898 77.1412 311.066 76.4624 310.4C75.7901 309.727 74.9582 309.751 74.9687 309.885Z" fill="white"/>
<path d="M73.63 313.791C73.7601 313.808 73.8857 313.087 73.4495 312.354C73.0178 311.618 72.3259 311.381 72.2781 311.503C72.2101 311.627 72.6771 311.997 73.027 312.604C73.3906 313.203 73.4894 313.791 73.63 313.791Z" fill="white"/>
<path d="M76.8436 306.259C76.9542 306.348 77.4466 305.885 78.1843 305.579C78.9162 305.257 79.5904 305.22 79.6022 305.079C79.6297 304.952 78.8547 304.754 77.9908 305.128C77.1249 305.495 76.7325 306.191 76.8436 306.259Z" fill="white"/>
<path d="M159.095 283.608L170.753 297.734L183.196 306.247C184.092 306.861 184.282 308.106 183.609 308.959C183.232 309.436 182.653 309.702 182.045 309.67C178.178 309.47 163.954 308.664 163.159 307.583C162.238 306.33 149.873 293.5 149.873 293.5L159.095 283.608Z" fill="#263238"/>
<path d="M183.609 308.959L162.352 306.648L162.859 307.235C163.298 307.743 163.9 308.081 164.563 308.183C166.337 308.456 171.251 309.104 182.004 309.708C182.629 309.742 183.234 309.461 183.609 308.959Z" fill="#455A64"/>
<path d="M175.208 305.643C175.32 305.614 175.005 304.618 175.492 303.515C175.945 302.398 176.879 301.932 176.823 301.831C176.806 301.786 176.537 301.83 176.174 302.065C175.811 302.295 175.382 302.746 175.121 303.358C174.863 303.971 174.838 304.593 174.925 305.013C175.009 305.438 175.165 305.661 175.208 305.643Z" fill="white"/>
<path d="M177.8 306.645C177.917 306.648 177.972 305.813 178.512 304.988C179.032 304.151 179.766 303.75 179.714 303.644C179.693 303.539 178.771 303.822 178.172 304.772C177.563 305.716 177.695 306.67 177.8 306.645Z" fill="white"/>
<path d="M171.316 304.853C171.437 304.862 171.516 303.578 172.242 302.222C172.947 300.854 173.96 300.061 173.883 299.966C173.842 299.873 172.646 300.571 171.887 302.035C171.112 303.491 171.215 304.872 171.316 304.853Z" fill="white"/>
<path d="M167.413 300.855C167.521 300.906 168.01 299.924 168.975 299.028C169.928 298.117 170.936 297.688 170.892 297.576C170.871 297.475 169.725 297.759 168.699 298.735C167.665 299.701 167.313 300.829 167.413 300.855Z" fill="white"/>
<path d="M163.886 296.795C163.998 296.838 164.368 295.711 165.462 294.849C166.536 293.964 167.716 293.842 167.698 293.723C167.695 293.674 167.394 293.631 166.915 293.723C166.438 293.812 165.794 294.067 165.21 294.536C164.627 295.008 164.24 295.583 164.052 296.03C163.861 296.479 163.839 296.783 163.886 296.795Z" fill="white"/>
<path d="M164.768 294.097C164.786 294.082 164.656 293.868 164.334 293.556C164.013 293.247 163.489 292.838 162.731 292.544C162.359 292.416 161.917 292.22 161.372 292.371C161.1 292.445 160.844 292.729 160.839 293.054C160.83 293.373 160.975 293.645 161.161 293.869C161.935 294.736 163.425 294.934 164.524 294.205C165.612 293.456 166.021 292.11 165.758 291.011C165.674 290.74 165.525 290.447 165.215 290.306C164.905 290.162 164.542 290.311 164.374 290.516C164.015 290.933 163.96 291.395 163.871 291.78C163.725 292.576 163.778 293.235 163.856 293.674C163.934 294.114 164.034 294.343 164.056 294.336C164.136 294.33 163.818 293.353 164.149 291.837C164.245 291.471 164.342 291.03 164.614 290.746C164.746 290.607 164.92 290.557 165.071 290.629C165.221 290.695 165.342 290.894 165.401 291.113C165.606 292.022 165.228 293.25 164.3 293.87C163.38 294.493 162.07 294.317 161.44 293.625C161.291 293.456 161.188 293.246 161.192 293.066C161.196 292.889 161.308 292.744 161.481 292.685C161.845 292.56 162.277 292.696 162.634 292.81C164.098 293.324 164.719 294.164 164.768 294.097Z" fill="white"/>
<path d="M63.4746 227.964C63.4746 227.964 38.019 255.292 40.3747 261.927C44.1921 272.679 72.936 305.474 72.936 305.474L87.8341 298.253L69.2677 267.665L64.1521 260.182L84.5975 240.95L86.3306 240.768C86.3306 240.768 125.57 266.055 125.951 265.845C126.331 265.635 156.22 301.763 156.22 301.763L170.258 293.015C170.258 293.015 140.031 253.399 139.409 252.452C138.786 251.505 104.246 225.296 104.246 225.296L93.8791 211.262L64.6596 216.426L63.4746 227.964Z" fill="#455A64"/>
<path d="M84.0734 240.091C84.0165 240.123 83.5417 239.213 82.5522 237.902C82.0624 237.244 81.4195 236.506 80.6556 235.738C79.8787 234.984 78.9722 234.208 77.9487 233.49C76.9167 232.783 75.8716 232.208 74.8919 231.745C73.9044 231.3 72.9881 230.956 72.1988 230.73C70.6239 230.265 69.6057 230.14 69.6148 230.075C69.6174 230.052 69.8731 230.07 70.3342 230.123C70.5657 230.146 70.8469 230.183 71.1694 230.253C71.4924 230.32 71.8646 230.379 72.2635 230.498C73.0705 230.698 74.0103 231.022 75.0208 231.459C76.0234 231.913 77.0926 232.491 78.1423 233.21C79.1841 233.94 80.1004 234.738 80.8773 235.517C81.6419 236.309 82.2749 237.074 82.7465 237.76C82.9976 238.091 83.184 238.419 83.3599 238.698C83.5385 238.976 83.6732 239.226 83.7759 239.435C83.9878 239.847 84.0944 240.08 84.0734 240.091Z" fill="#263238"/>
<path d="M100.237 226.26C100.26 226.327 99.1988 226.63 97.6639 227.489C96.8863 227.9 96.0308 228.509 95.1094 229.213C94.2088 229.948 93.2716 230.818 92.3639 231.806C90.5601 233.799 89.2404 235.862 88.4072 237.413C87.5694 238.964 87.1763 239.989 87.1188 239.966C87.0965 239.957 87.1796 239.696 87.3483 239.229C87.4281 238.993 87.5413 238.711 87.6871 238.389C87.8277 238.065 87.9866 237.695 88.1933 237.301C88.9788 235.708 90.2828 233.597 92.1114 231.577C93.0316 230.575 93.9897 229.698 94.9145 228.966C95.8615 228.264 96.745 227.667 97.5488 227.277C97.9386 227.059 98.3107 226.903 98.6383 226.769C98.9621 226.625 99.2472 226.519 99.4885 226.453C99.966 226.307 100.231 226.237 100.237 226.26Z" fill="#263238"/>
<path d="M69.8066 163.857C69.8066 163.857 72.7863 164.282 77.4251 167.158C82.0639 170.034 95.3519 178.298 95.3519 178.298L110.57 164.26L117.604 170.655C117.604 170.655 102.359 188.852 101.343 189.763C97.5951 193.12 94.0884 191.257 94.0884 191.257L78.7436 183.821L69.8066 163.857Z" fill="#455A64"/>
<path d="M89.184 202.266L70.1415 163.831L56.7096 165.467L52.5764 164.091L38.2165 167.978L37.7253 175.404C37.7253 175.404 27.6335 185.532 27.9068 186.165L60.0274 219.375C60.0274 219.375 60.2275 231.85 60.3943 231.529C63.629 225.276 70.7719 228.65 80.6925 232.137L81.6323 217.258L88.5692 230.272L106.034 221.143L89.184 202.266Z" fill="#455A64"/>
<path d="M39.1289 171.109L63.3582 189.433L54.2846 165.327L51.9185 163.004L38.0615 168.229L39.1289 171.109Z" fill="#E0E0E0"/>
<path d="M26.8397 136.344C26.8012 135.192 27.5814 134.06 28.6716 133.687C29.3151 132.117 31.1457 131.133 32.8108 131.463C33.3948 130.453 34.5301 129.786 35.6962 129.768C36.863 129.75 38.0186 130.382 38.6333 131.374C39.5594 130.64 40.9603 130.577 41.9485 131.225C42.9367 131.873 43.437 133.183 43.1335 134.325C44.4428 134.062 45.881 134.919 46.274 136.195C46.6671 137.472 45.9594 138.989 44.7293 139.508L28.8449 138.874C27.7325 138.573 26.8783 137.496 26.8397 136.344Z" fill="#263238"/>
<path d="M45.2615 139.647C41.896 134.648 35.2566 133.072 30.003 136.024L29.4811 136.318C24.0372 139.81 23.962 146.384 27.6035 151.73L38.6692 169.868L52.2475 172.051L51.9179 163.005L51.2613 161.435C51.2613 161.435 56.1997 157.552 53.2259 152.105C51.7904 149.473 48.3922 144.296 45.2615 139.647Z" fill="#FFBF9D"/>
<path d="M51.3026 161.401C51.3026 161.401 47.9646 163.551 43.0479 163.31C43.0479 163.31 46.794 166.525 51.9187 163.004L51.3026 161.401Z" fill="#FF9A6C"/>
<path d="M46.3833 145.325C46.6272 145.725 46.4892 146.261 46.0765 146.523C45.6645 146.785 45.1322 146.675 44.8889 146.274C44.6449 145.874 44.7823 145.338 45.1943 145.076C45.6076 144.814 46.14 144.926 46.3833 145.325Z" fill="#263238"/>
<path d="M45.801 143.188C45.7618 143.342 44.9331 143.238 44.1032 143.708C43.2674 144.165 42.8972 144.936 42.7501 144.885C42.6801 144.864 42.6755 144.628 42.8325 144.285C42.9855 143.945 43.3263 143.507 43.8455 143.218C44.3648 142.93 44.9076 142.876 45.268 142.93C45.6342 142.983 45.8232 143.116 45.801 143.188Z" fill="#263238"/>
<path d="M39.3515 149.517C39.5955 149.917 39.4575 150.453 39.0448 150.716C38.6328 150.977 38.1011 150.867 37.8572 150.466C37.6139 150.067 37.7512 149.53 38.1632 149.268C38.5759 149.005 39.1083 149.117 39.3515 149.517Z" fill="#263238"/>
<path d="M37.783 147.542C37.7437 147.697 36.9144 147.593 36.0845 148.063C35.2487 148.52 34.8792 149.291 34.7314 149.24C34.6621 149.219 34.6562 148.983 34.8145 148.64C34.9675 148.3 35.3082 147.862 35.8275 147.573C36.3468 147.285 36.8896 147.231 37.2499 147.285C37.6149 147.338 37.8045 147.471 37.783 147.542Z" fill="#263238"/>
<path d="M43.9845 152.165C43.9538 152.12 44.4207 151.74 45.1977 151.162C45.3978 151.021 45.575 150.866 45.5293 150.701C45.4933 150.52 45.2755 150.341 45.0342 150.152C44.5463 149.75 44.0342 149.329 43.4979 148.888C41.3325 147.077 39.638 145.539 39.7113 145.452C39.7852 145.366 41.6 146.764 43.7654 148.576C44.2945 149.025 44.7994 149.453 45.2807 149.864C45.4966 150.06 45.7889 150.257 45.8589 150.635C45.8909 150.826 45.8 151.029 45.6843 151.142C45.5718 151.26 45.4534 151.33 45.352 151.395C44.5345 151.913 44.0139 152.21 43.9845 152.165Z" fill="#263238"/>
<path d="M41.8606 154.115C41.9914 154.031 42.5002 154.933 43.6323 155.139C44.7644 155.349 45.6695 154.706 45.7473 154.829C45.7918 154.878 45.6316 155.124 45.2313 155.364C44.8409 155.601 44.1876 155.8 43.4943 155.674C42.8024 155.545 42.3053 155.135 42.066 154.782C41.8207 154.424 41.7959 154.145 41.8606 154.115Z" fill="#263238"/>
<path d="M37.2871 145.654C37.2067 145.914 36.3637 145.801 35.3761 145.947C34.386 146.07 33.592 146.407 33.458 146.176C33.3984 146.066 33.5345 145.82 33.8543 145.565C34.1708 145.311 34.6783 145.067 35.2715 144.986C35.8647 144.905 36.4095 145.006 36.7718 145.168C37.1367 145.329 37.3218 145.53 37.2871 145.654Z" fill="#263238"/>
<path d="M44.3314 141.014C44.3137 141.287 43.6434 141.468 42.9829 141.902C42.3073 142.312 41.8554 142.839 41.601 142.737C41.4832 142.684 41.4492 142.445 41.5768 142.112C41.701 141.781 42.0071 141.373 42.4662 141.083C42.9253 140.793 43.4256 140.692 43.7775 140.723C44.1326 140.751 44.3334 140.885 44.3314 141.014Z" fill="#263238"/>
<path d="M43.3473 137.458C43.3473 137.458 40.0165 134.872 37.9381 134.999C35.4222 135.154 35.791 137.803 33.6099 138.335C31.4288 138.868 29.0247 139.011 27.9175 141.55C26.7056 144.33 28.3223 144.894 29.5407 147.368C34.4824 157.397 34.2521 161.148 31.1698 156.848C30.8324 156.377 29.2137 156.761 27.8148 154.755C26.0006 152.154 24.017 148.872 23.5337 146.574C23.1263 144.638 23.4258 142.973 24.4036 140.774C25.9477 137.302 29.5721 135.209 32.1907 134.066C34.8087 132.922 41.1885 133.089 43.3473 137.458Z" fill="#263238"/>
<path d="M31.4322 156.507C30.9286 155.691 29.8391 155.436 29.051 155.983C28.0962 156.646 27.295 157.85 28.5337 159.898C30.7305 163.53 33.9239 160.575 33.8677 160.467C33.8291 160.393 32.3655 158.018 31.4322 156.507Z" fill="#FFBF9D"/>
<path d="M32.2509 159.578C32.228 159.576 32.2143 159.66 32.1371 159.774C32.0619 159.885 31.9023 160.026 31.6702 160.07C31.2012 160.161 30.5093 159.747 30.096 159.103C29.8867 158.778 29.7657 158.422 29.7252 158.09C29.6755 157.757 29.735 157.468 29.907 157.316C30.0724 157.156 30.2791 157.188 30.385 157.264C30.4949 157.336 30.5158 157.422 30.5394 157.417C30.5551 157.42 30.5806 157.309 30.4603 157.176C30.4014 157.114 30.3072 157.054 30.1797 157.036C30.0495 157.018 29.8998 157.059 29.7742 157.155C29.5061 157.343 29.4093 157.754 29.4537 158.118C29.4832 158.492 29.612 158.898 29.8468 159.263C30.3131 159.981 31.1018 160.439 31.7185 160.273C32.0142 160.186 32.1809 159.98 32.2391 159.827C32.2973 159.67 32.2673 159.577 32.2509 159.578Z" fill="#FF9A6C"/>
<path d="M27.4773 149.3C28.1417 149.358 28.8395 149.411 29.4504 149.143C30.0612 148.875 30.5367 148.17 30.3117 147.542C30.211 147.26 29.9801 146.996 30.0377 146.702C30.1063 146.352 30.521 146.216 30.8493 146.075C31.9886 145.584 32.6622 144.205 32.3483 143.005C32.8531 143.261 33.4836 142.884 33.7478 142.383C34.0127 141.882 34.0336 141.294 34.1494 140.74C34.2651 140.185 34.5339 139.596 35.0624 139.391C35.358 139.276 35.7052 139.295 35.9662 139.116C36.4279 138.8 36.3449 138.097 36.148 137.574C35.9505 137.051 35.6915 136.456 35.9557 135.963C36.2003 135.506 36.7732 135.368 37.2578 135.183C37.7418 134.997 38.2604 134.568 38.129 134.066C38.0603 133.803 37.8262 133.617 37.5861 133.488C36.5005 132.905 35.0185 133.208 34.2488 134.17C33.1998 133.151 31.5223 132.842 30.1796 133.421C28.8369 134 27.9089 135.432 27.9298 136.893C26.7494 136.623 25.4466 136.964 24.5493 137.778C23.652 138.591 23.1851 139.854 23.3381 141.055C22.3054 141.324 21.4755 142.249 21.3185 143.305C21.1616 144.36 21.6874 145.486 22.5978 146.043C22.1465 146.797 21.9483 147.777 22.3649 148.551C22.7815 149.324 23.9561 149.668 24.5814 149.051C24.618 149.815 25.3158 150.487 26.0803 150.496C26.8448 150.504 27.5571 149.847 27.6107 149.085" fill="#263238"/>
<path d="M24.3049 149.196C24.2866 149.194 24.4115 149.546 24.9347 149.778C25.1891 149.884 25.5528 149.94 25.9242 149.803C26.2885 149.672 26.6515 149.361 26.8065 148.904L26.6371 148.969C26.9994 149.185 27.4225 149.373 27.8941 149.476C28.1962 149.541 28.5056 149.567 28.8038 149.516C29.1007 149.476 29.3819 149.331 29.5873 149.167C30.0268 148.852 30.2943 148.37 30.3106 147.955C30.3381 147.543 30.2426 147.227 30.1772 147.017C30.1085 146.807 30.0516 146.698 30.0379 146.703C30.0196 146.708 30.0457 146.828 30.085 147.041C30.1222 147.253 30.185 147.566 30.1386 147.936C30.0863 148.663 29.0961 149.576 27.9451 149.238C27.5076 149.142 27.1021 148.967 26.7555 148.769L26.6292 148.696L26.5861 148.833C26.4657 149.213 26.1636 149.493 25.8536 149.618C25.541 149.748 25.2238 149.72 24.9857 149.642C24.4992 149.472 24.3317 149.169 24.3049 149.196Z" fill="#455A64"/>
<path d="M26.5461 136.821C26.5513 136.835 26.6572 136.793 26.8613 136.77C27.0621 136.75 27.3786 136.755 27.7102 136.935L27.7939 136.981L27.8063 136.884C27.8913 136.226 28.1359 135.304 28.7808 134.43C29.1032 133.999 29.5276 133.589 30.0574 133.292C30.5825 132.994 31.2195 132.836 31.8748 132.86C32.3843 132.877 32.8768 133.006 33.3045 133.219C33.7296 133.439 34.0867 133.747 34.3378 134.105L34.4156 134.216L34.5105 134.122C34.9807 133.657 35.6072 133.447 36.1527 133.446C36.7046 133.44 37.1709 133.643 37.4999 133.874C38.1637 134.357 38.3115 134.867 38.3462 134.84C38.3553 134.837 38.3272 134.716 38.2213 134.512C38.1134 134.312 37.9204 134.026 37.581 133.763C37.2468 133.504 36.7524 133.266 36.1533 133.257C35.5634 133.243 34.8787 133.455 34.3515 133.962L34.5235 133.978C34.2554 133.584 33.8695 133.245 33.4131 133.005C32.9533 132.773 32.4268 132.634 31.8833 132.614C31.1849 132.588 30.4995 132.761 29.9403 133.086C29.3785 133.406 28.9364 133.846 28.6075 134.303C27.9495 135.229 27.7272 136.19 27.6735 136.869L27.7697 136.817C27.3943 136.636 27.0562 136.657 26.8489 136.699C26.6389 136.748 26.5415 136.813 26.5461 136.821Z" fill="#455A64"/>
<path d="M64.0057 191.207C64.0018 191.218 63.8789 191.187 63.648 191.119C63.3825 191.035 63.0509 190.93 62.6448 190.803C61.7331 190.499 60.4905 190.085 58.9752 189.581C55.8464 188.504 51.602 187.043 46.9115 185.429C45.733 185.017 44.5826 184.615 43.4747 184.227L43.3335 184.178L43.3675 184.032C43.7337 182.46 44.081 180.969 44.4027 179.587L44.5571 179.772C42.6474 179.845 40.9444 179.91 39.5076 179.964L39.4245 179.967L39.3957 179.892C38.8745 178.53 38.4507 177.422 38.14 176.61C38.0099 176.251 37.9033 175.958 37.8176 175.721C37.7476 175.517 37.7156 175.409 37.7261 175.405C37.7365 175.401 37.7882 175.501 37.8778 175.697C37.9785 175.928 38.1041 176.214 38.2565 176.563C38.592 177.367 39.0478 178.46 39.6096 179.807L39.4977 179.735C40.9339 179.66 42.6356 179.57 44.544 179.47L44.7428 179.46L44.6984 179.655C44.3857 181.039 44.0483 182.533 43.6932 184.108L43.5852 183.913C44.6938 184.298 45.8448 184.698 47.024 185.108C51.7014 186.759 55.9347 188.253 59.055 189.354C60.5552 189.901 61.7854 190.349 62.6886 190.678C63.0862 190.83 63.4106 190.954 63.6709 191.054C63.8939 191.143 64.0097 191.196 64.0057 191.207Z" fill="#263238"/>
<path d="M81.6317 217.258C81.6206 217.262 81.5644 217.159 81.4676 216.959C81.357 216.721 81.2217 216.43 81.0569 216.075C80.7017 215.307 80.2256 214.177 79.5873 212.811C78.9392 211.449 78.1067 209.855 77.059 208.159C76.5358 207.311 75.9596 206.438 75.3311 205.554C74.7033 204.672 74.01 203.785 73.3155 202.862C70.5281 199.181 68.02 195.838 66.2183 193.408C65.3458 192.219 64.629 191.243 64.0986 190.52C63.873 190.201 63.6873 189.938 63.5362 189.724C63.4106 189.54 63.3492 189.44 63.3583 189.433C63.3675 189.425 63.4473 189.512 63.5905 189.682C63.7553 189.886 63.958 190.136 64.2039 190.44C64.7559 191.146 65.5021 192.101 66.4099 193.262C68.2607 195.655 70.7995 198.975 73.5869 202.656C74.2801 203.577 74.972 204.467 75.6032 205.361C76.2323 206.253 76.8065 207.137 77.3264 207.995C78.3663 209.712 79.1818 211.327 79.8058 212.709C80.4205 214.097 80.8607 215.237 81.1792 216.022C81.3204 216.387 81.4362 216.687 81.531 216.931C81.6069 217.141 81.6422 217.253 81.6317 217.258Z" fill="#263238"/>
<path d="M103.497 222.426C103.5 222.432 103.412 222.485 103.237 222.583C103.044 222.688 102.785 222.829 102.458 223.008C101.75 223.384 100.744 223.919 99.4637 224.599C98.1603 225.287 96.5808 226.121 94.7614 227.081C93.8491 227.564 92.8766 228.079 91.8492 228.623C91.3358 228.898 90.8093 229.179 90.2691 229.468C90.0003 229.614 89.7282 229.762 89.4522 229.911L89.0396 230.14L88.8342 230.258L88.7341 230.318L88.6877 230.347L88.6714 230.359L88.6687 230.361C88.6733 230.355 88.6563 230.373 88.6786 230.349C88.7551 230.315 88.6511 230.102 88.6086 230.142L88.447 230.337C86.4249 226.56 84.0548 222.135 81.4852 217.335L81.7959 217.245C82.0306 220.385 82.2798 223.72 82.5368 227.153C82.6631 228.86 82.788 230.544 82.9096 232.186L82.9325 232.496L82.6533 232.343C82.1497 232.067 81.6494 231.792 81.1523 231.519C80.6514 231.256 80.1746 230.95 79.6527 230.748C78.6285 230.304 77.6338 229.828 76.592 229.533C75.577 229.153 74.5325 228.956 73.5175 228.73C73.0074 228.632 72.4921 228.599 71.9878 228.531C71.4836 228.452 70.98 228.446 70.4817 228.444C66.4988 228.337 62.8802 229.659 60.4761 231.617L60.2766 231.779L60.2708 231.531C60.1759 227.633 60.0994 224.472 60.0458 222.261C60.0275 221.184 60.0124 220.339 60.0026 219.74C60.0013 219.467 60.0007 219.25 60 219.084C60.0013 218.936 60.0052 218.861 60.0111 218.861C60.017 218.861 60.0255 218.936 60.0353 219.083C60.0445 219.249 60.0569 219.465 60.0726 219.738C60.0981 220.336 60.1347 221.18 60.1812 222.257C60.2609 224.467 60.3747 227.627 60.5154 231.523L60.31 231.437C62.7717 229.399 66.4282 228.049 70.4862 228.136C70.9931 228.137 71.5052 228.142 72.0173 228.22C72.53 228.287 73.0538 228.319 73.5718 228.417C74.6025 228.642 75.6633 228.84 76.692 229.221C77.7496 229.518 78.7561 229.998 79.7933 230.445C80.3217 230.649 80.8037 230.956 81.3106 231.222C81.8129 231.497 82.3184 231.774 82.8279 232.052L82.5722 232.209C82.4499 230.567 82.3243 228.884 82.1968 227.176C81.9437 223.743 81.6971 220.407 81.4656 217.268L81.4074 216.483L81.7762 217.178C84.3275 221.987 86.6799 226.422 88.6877 230.206L88.7073 230.243L88.5262 230.401C88.4856 230.436 88.383 230.219 88.4608 230.18C88.485 230.151 88.4732 230.167 88.4811 230.158L88.502 230.141L88.5347 230.119L88.5903 230.083L88.6962 230.02L88.9062 229.902L89.3227 229.674C89.6 229.525 89.8741 229.38 90.1442 229.234C90.687 228.949 91.2161 228.671 91.7314 228.4C92.7641 227.864 93.7412 227.357 94.6574 226.882C96.4886 225.944 98.0785 225.13 99.3904 224.458C100.685 223.806 101.703 223.293 102.418 222.933C102.754 222.769 103.018 222.64 103.216 222.543C103.399 222.46 103.494 222.419 103.497 222.426Z" fill="#263238"/>
<path d="M65.2816 190.741C65.2699 190.743 65.2424 190.634 65.2005 190.424C65.1554 190.175 65.1005 189.871 65.0344 189.504C64.8964 188.652 64.7113 187.506 64.4857 186.115C64.0371 183.25 63.4406 179.29 62.8023 174.912C62.6414 173.801 62.4851 172.717 62.3334 171.672L62.4838 171.814C60.9535 171.674 59.5042 171.542 58.1648 171.421L57.9418 171.4L58.0445 171.203C58.6592 170.022 59.223 168.94 59.7226 167.98L59.7593 168.133C58.6115 167.268 57.6678 166.557 56.9667 166.029C56.6671 165.795 56.4199 165.601 56.2178 165.443C56.0491 165.306 55.9634 165.229 55.9706 165.22C55.9778 165.21 56.0766 165.268 56.259 165.387C56.4716 165.532 56.7312 165.708 57.0458 165.921C57.7632 166.427 58.7286 167.109 59.9025 167.937L59.9862 167.996L59.9391 168.09C59.4545 169.058 58.9077 170.149 58.312 171.339L58.1916 171.122C59.5323 171.234 60.9822 171.354 62.5132 171.481L62.6447 171.493L62.6637 171.624C62.8174 172.669 62.9763 173.753 63.1398 174.863C63.7781 179.241 64.3366 183.207 64.7244 186.08C64.9056 187.478 65.0553 188.629 65.1659 189.485C65.2071 189.856 65.2411 190.162 65.2692 190.414C65.2882 190.627 65.2927 190.74 65.2816 190.741Z" fill="#263238"/>
<path d="M71.434 168.506C71.5171 168.462 75.3168 175.511 79.9197 184.25C84.5238 192.991 88.1875 200.11 88.1045 200.154C88.0214 200.197 84.2223 193.149 79.6182 184.408C75.0153 175.67 71.3509 168.55 71.434 168.506Z" fill="#263238"/>
<path d="M52.1931 172.544C52.1911 172.498 52.2023 174.858 52.2023 174.858L54.0949 175.649L55.2878 175.024L54.9425 172.944L52.5894 172.175L52.1931 172.544Z" fill="#1A6980"/>
<path d="M54.0957 175.649L56.2369 184.047L63.3583 189.433L59.6979 179.708L55.2592 174.85L54.0957 175.649Z" fill="#1A6980"/>
<path d="M52.2595 172.325C52.3066 172.326 52.3295 173.136 52.3288 174.444C52.3275 174.781 52.3256 175.138 52.3243 175.515C52.3223 175.709 52.3203 175.908 52.3184 176.111L52.3164 176.266L52.3138 176.361C52.2935 176.527 52.0751 176.509 52.0888 176.495L52.0509 176.485L51.7422 176.4C50.8998 176.161 49.9914 175.903 49.0379 175.633C47.1217 175.079 45.3938 174.555 44.1493 174.152C42.9053 173.75 42.1428 173.467 42.165 173.406C42.1801 173.39 42.3625 173.436 42.7222 173.525C43.1532 173.638 43.6496 173.77 44.2179 173.921C45.4788 174.264 47.2172 174.751 49.1327 175.306C50.083 175.585 50.9894 175.852 51.8292 176.098L52.1353 176.19L52.1732 176.201L52.1778 176.202C52.2092 176.095 52.1379 176.349 52.1451 176.323V176.324V176.33C52.1457 176.336 52.1503 176.336 52.1451 176.334L52.011 176.327V176.324V176.319V176.309L52.0116 176.29L52.013 176.251L52.0188 176.097C52.0267 175.894 52.0339 175.696 52.0417 175.502C52.0581 175.128 52.0738 174.772 52.0882 174.436C52.1503 173.132 52.2124 172.325 52.2595 172.325Z" fill="#263238"/>
<path d="M56.2734 170.51C56.3539 170.51 56.4193 171.628 56.433 173.131L56.4349 173.346L56.2237 173.291C55.9811 173.227 55.7339 173.162 55.4781 173.095C53.6692 172.609 52.2225 172.141 52.2474 172.051C52.2716 171.96 53.7575 172.28 55.5664 172.766C55.8215 172.836 56.0681 172.904 56.3094 172.97L56.1008 173.13C56.123 171.627 56.193 170.51 56.2734 170.51Z" fill="#263238"/>
<path d="M87.1847 206.371C87.1945 206.393 86.9401 206.536 86.4711 206.778C86.0022 207.02 85.3175 207.356 84.4647 207.759C82.7603 208.566 80.3811 209.63 77.718 210.721C75.0536 211.811 72.6109 212.72 70.8294 213.34C69.9387 213.65 69.2147 213.891 68.7111 214.047C68.2075 214.203 67.925 214.28 67.9172 214.258C67.9093 214.235 68.1768 214.117 68.6666 213.922C69.2225 213.706 69.9191 213.436 70.7464 213.114C72.5043 212.437 74.9287 211.494 77.5885 210.406C80.247 209.317 82.6367 208.289 84.3646 207.539C85.1801 207.188 85.8662 206.893 86.4142 206.657C86.9015 206.453 87.1748 206.35 87.1847 206.371Z" fill="#263238"/>
<path d="M111.704 165.601L119.31 159.643L122.457 163.007L116.479 169.631L111.704 165.601Z" fill="#FFBF9D"/>
<path d="M127.72 153.353C127.72 153.353 127.378 152.044 125.991 152.808C125.488 153.086 122.409 155.542 122.409 155.542C122.409 155.542 120.325 157.059 120.252 157.165C120.179 157.272 120.508 158.458 120.508 158.458L123.084 157.39L127.72 153.353Z" fill="#FF9A6C"/>
<path d="M64.8915 267.977C64.8574 267.781 61.3468 248.179 50.9429 227.438C48.0405 221.652 49.6264 214.523 54.7139 210.487L168.77 120.311L171.204 123.389L57.1501 213.562C53.5132 216.448 52.3765 221.545 54.4503 225.678C65.1249 246.959 68.6134 266.481 68.7566 267.302L64.8915 267.977Z" fill="#B56F57"/>
<path d="M56.6472 230.279C56.6283 230.375 55.6708 230.099 54.6395 230.604C53.5931 231.078 53.1961 231.992 53.1098 231.945C53.0725 231.932 53.1071 231.68 53.3158 231.33C53.5205 230.982 53.9286 230.563 54.4943 230.296C55.0606 230.03 55.6434 229.983 56.0416 230.046C56.4438 230.107 56.6616 230.241 56.6472 230.279Z" fill="#263238"/>
<path d="M54.3189 225.401C54.2999 225.497 53.3425 225.221 52.3111 225.726C51.2647 226.2 50.8677 227.114 50.7814 227.068C50.7435 227.055 50.7788 226.802 50.9874 226.452C51.1921 226.104 51.6002 225.686 52.1659 225.418C52.7323 225.153 53.315 225.105 53.7133 225.168C54.1161 225.23 54.3333 225.365 54.3189 225.401Z" fill="#263238"/>
<path d="M69.0239 204.261C68.9258 204.264 68.9768 203.269 68.2502 202.379C67.5504 201.468 66.5701 201.289 66.5962 201.195C66.6001 201.155 66.8545 201.131 67.2424 201.255C67.6276 201.376 68.1285 201.678 68.5177 202.168C68.9048 202.659 69.084 203.216 69.1128 203.618C69.1449 204.024 69.0631 204.266 69.0239 204.261Z" fill="#263238"/>
<path d="M72.4013 201.511C72.3032 201.514 72.3542 200.519 71.6276 199.629C70.9278 198.718 69.9475 198.539 69.9737 198.445C69.9776 198.405 70.232 198.381 70.6198 198.505C71.005 198.626 71.506 198.928 71.8951 199.418C72.2823 199.909 72.4615 200.466 72.4903 200.868C72.5223 201.274 72.4405 201.516 72.4013 201.511Z" fill="#263238"/>
<path d="M79.8525 195.739C79.7544 195.742 79.8054 194.748 79.0788 193.857C78.379 192.946 77.3987 192.768 77.4248 192.673C77.4288 192.634 77.6832 192.61 78.071 192.734C78.4562 192.854 78.9571 193.156 79.3463 193.646C79.7334 194.137 79.9126 194.694 79.9414 195.096C79.9735 195.502 79.8917 195.744 79.8525 195.739Z" fill="#263238"/>
<path d="M83.435 192.935C83.3369 192.938 83.3879 191.943 82.6613 191.053C81.9615 190.142 80.9812 189.964 81.0073 189.869C81.0113 189.829 81.2657 189.805 81.6535 189.93C82.0387 190.05 82.5397 190.352 82.9288 190.842C83.316 191.333 83.4952 191.89 83.5239 192.292C83.556 192.698 83.4742 192.94 83.435 192.935Z" fill="#263238"/>
<path d="M87.3118 189.886C87.2137 189.889 87.2647 188.894 86.5388 188.004C85.839 187.093 84.8586 186.915 84.8848 186.82C84.8887 186.781 85.1431 186.756 85.5309 186.881C85.9162 187.001 86.4171 187.303 86.8062 187.793C87.1934 188.284 87.3726 188.841 87.4014 189.243C87.4328 189.649 87.3517 189.892 87.3118 189.886Z" fill="#263238"/>
<path d="M91.1894 186.837C91.0913 186.841 91.1423 185.846 90.4157 184.956C89.7159 184.045 88.7356 183.866 88.7617 183.771C88.7657 183.732 89.0201 183.708 89.4079 183.832C89.7931 183.953 90.2941 184.255 90.6832 184.745C91.0704 185.236 91.2496 185.792 91.2783 186.195C91.3097 186.601 91.2286 186.843 91.1894 186.837Z" fill="#263238"/>
<path d="M95.0663 183.789C94.9682 183.792 95.0193 182.797 94.2927 181.907C93.5929 180.996 92.6125 180.817 92.6387 180.723C92.6426 180.683 92.897 180.659 93.2848 180.783C93.67 180.904 94.171 181.206 94.5602 181.696C94.9473 182.187 95.1265 182.743 95.1553 183.146C95.1873 183.552 95.1056 183.794 95.0663 183.789Z" fill="#263238"/>
<path d="M98.8424 180.789C98.7463 180.793 98.7267 179.84 98.0511 178.946C97.4076 178.022 96.49 177.761 96.5162 177.674C96.5221 177.634 96.7738 177.627 97.1421 177.778C97.5096 177.925 97.9694 178.256 98.3264 178.745C98.6855 179.233 98.8601 179.768 98.9033 180.158C98.9471 180.551 98.883 180.791 98.8424 180.789Z" fill="#263238"/>
<path d="M102.42 177.927C102.324 177.932 102.304 176.979 101.629 176.086C100.985 175.161 100.068 174.9 100.094 174.813C100.1 174.773 100.351 174.766 100.72 174.918C101.087 175.064 101.547 175.395 101.904 175.884C102.262 176.372 102.437 176.907 102.481 177.297C102.525 177.69 102.461 177.93 102.42 177.927Z" fill="#263238"/>
<path d="M106.153 174.92C106.057 174.924 106.038 173.971 105.362 173.078C104.719 172.153 103.801 171.892 103.827 171.805C103.833 171.765 104.085 171.758 104.453 171.91C104.821 172.056 105.28 172.387 105.637 172.876C105.997 173.364 106.171 173.899 106.214 174.289C106.258 174.682 106.194 174.922 106.153 174.92Z" fill="#263238"/>
<path d="M109.991 172.029C109.895 172.034 109.876 171.081 109.2 170.187C108.557 169.263 107.639 169.002 107.665 168.915C107.672 168.875 107.923 168.868 108.291 169.019C108.659 169.166 109.118 169.497 109.475 169.986C109.834 170.474 110.009 171.009 110.052 171.399C110.095 171.792 110.032 172.032 109.991 172.029Z" fill="#263238"/>
<path d="M114.03 168.715C113.934 168.72 113.915 167.767 113.239 166.873C112.596 165.949 111.678 165.688 111.704 165.601C111.71 165.561 111.962 165.554 112.33 165.705C112.698 165.852 113.157 166.183 113.514 166.672C113.873 167.16 114.048 167.695 114.091 168.085C114.134 168.478 114.071 168.718 114.03 168.715Z" fill="#263238"/>
<path d="M118.069 165.401C117.973 165.406 117.954 164.453 117.278 163.56C116.635 162.635 115.717 162.374 115.743 162.287C115.749 162.247 116.001 162.24 116.369 162.392C116.737 162.538 117.196 162.869 117.553 163.358C117.913 163.846 118.087 164.381 118.13 164.771C118.173 165.164 118.11 165.404 118.069 165.401Z" fill="#263238"/>
<path d="M122.109 162.087C122.012 162.092 121.993 161.139 121.317 160.245C120.674 159.32 119.756 159.059 119.782 158.972C119.789 158.933 120.04 158.926 120.408 159.077C120.776 159.224 121.235 159.555 121.593 160.044C121.951 160.532 122.126 161.067 122.169 161.456C122.213 161.85 122.149 162.09 122.109 162.087Z" fill="#263238"/>
<path d="M131.723 154.663C131.627 154.667 131.607 153.714 130.931 152.821C130.288 151.896 129.37 151.635 129.397 151.548C129.402 151.508 129.654 151.501 130.022 151.653C130.39 151.799 130.85 152.13 131.207 152.62C131.565 153.108 131.74 153.642 131.784 154.032C131.827 154.425 131.763 154.666 131.723 154.663Z" fill="#263238"/>
<path d="M135.753 151.366C135.657 151.371 135.637 150.418 134.962 149.525C134.318 148.6 133.401 148.339 133.427 148.252C133.433 148.212 133.684 148.205 134.053 148.357C134.42 148.503 134.88 148.834 135.237 149.323C135.595 149.811 135.771 150.346 135.814 150.736C135.857 151.129 135.794 151.37 135.753 151.366Z" fill="#263238"/>
<path d="M139.806 148.252C139.71 148.257 139.691 147.304 139.015 146.41C138.371 145.485 137.454 145.224 137.48 145.137C137.487 145.097 137.738 145.09 138.106 145.242C138.473 145.388 138.933 145.719 139.29 146.208C139.649 146.696 139.824 147.231 139.867 147.621C139.911 148.015 139.848 148.255 139.806 148.252Z" fill="#263238"/>
<path d="M143.824 145.138C143.728 145.142 143.708 144.189 143.033 143.295C142.389 142.371 141.471 142.11 141.498 142.023C141.504 141.983 141.755 141.976 142.123 142.127C142.491 142.274 142.951 142.605 143.308 143.094C143.666 143.582 143.842 144.117 143.885 144.507C143.929 144.9 143.864 145.14 143.824 145.138Z" fill="#263238"/>
<path d="M147.87 142.023C147.774 142.027 147.754 141.074 147.078 140.181C146.435 139.256 145.517 138.995 145.544 138.908C145.549 138.868 145.801 138.862 146.169 139.013C146.537 139.159 146.997 139.49 147.354 139.98C147.712 140.467 147.887 141.002 147.931 141.392C147.974 141.786 147.911 142.026 147.87 142.023Z" fill="#263238"/>
<path d="M151.744 138.586C151.648 138.591 151.628 137.638 150.952 136.744C150.309 135.819 149.391 135.558 149.418 135.471C149.424 135.431 149.675 135.424 150.043 135.576C150.411 135.722 150.871 136.053 151.228 136.542C151.586 137.03 151.761 137.565 151.805 137.955C151.848 138.349 151.784 138.589 151.744 138.586Z" fill="#263238"/>
<path d="M155.877 135.494C155.781 135.498 155.761 134.546 155.086 133.652C154.442 132.727 153.525 132.466 153.551 132.379C153.557 132.34 153.809 132.332 154.177 132.484C154.544 132.631 155.004 132.962 155.361 133.451C155.719 133.939 155.895 134.474 155.938 134.863C155.981 135.256 155.918 135.496 155.877 135.494Z" fill="#263238"/>
<path d="M159.927 132.38C159.831 132.384 159.812 131.431 159.136 130.538C158.493 129.613 157.575 129.352 157.601 129.265C157.608 129.225 157.859 129.218 158.227 129.37C158.595 129.516 159.054 129.847 159.411 130.336C159.77 130.825 159.945 131.359 159.988 131.749C160.032 132.142 159.969 132.382 159.927 132.38Z" fill="#263238"/>
<path d="M164.028 129.096C163.931 129.101 163.912 128.148 163.236 127.255C162.593 126.33 161.675 126.069 161.701 125.982C161.707 125.942 161.959 125.936 162.327 126.087C162.695 126.233 163.154 126.564 163.512 127.053C163.87 127.541 164.045 128.076 164.088 128.466C164.132 128.86 164.068 129.1 164.028 129.096Z" fill="#263238"/>
<path d="M76.2509 198.444C76.1528 198.447 76.2038 197.452 75.4772 196.562C74.7775 195.651 73.7971 195.473 73.8233 195.378C73.8272 195.339 74.0816 195.315 74.4694 195.439C74.8546 195.559 75.3556 195.861 75.7447 196.351C76.1319 196.842 76.3111 197.399 76.3399 197.801C76.3713 198.207 76.2902 198.45 76.2509 198.444Z" fill="#263238"/>
<path d="M58.5132 234.37C58.4943 234.466 57.5368 234.19 56.5055 234.695C55.4591 235.169 55.0621 236.083 54.9757 236.037C54.9378 236.024 54.9731 235.771 55.1818 235.421C55.3865 235.073 55.7946 234.655 56.3603 234.387C56.9266 234.122 57.5087 234.074 57.9076 234.137C58.3105 234.199 58.5276 234.334 58.5132 234.37Z" fill="#263238"/>
<path d="M60.5088 239.068C60.4899 239.164 59.5324 238.888 58.5011 239.393C57.4547 239.867 57.0577 240.781 56.9713 240.734C56.9334 240.721 56.9687 240.469 57.1774 240.119C57.3821 239.771 57.7902 239.352 58.3559 239.085C58.9222 238.819 59.5049 238.772 59.9032 238.835C60.3061 238.896 60.5232 239.031 60.5088 239.068Z" fill="#263238"/>
<path d="M62.3487 244.254C62.3251 244.35 61.3827 244.026 60.3265 244.478C59.2572 244.899 58.8151 245.792 58.7314 245.741C58.6948 245.726 58.7418 245.475 58.9681 245.136C59.1905 244.799 59.6189 244.401 60.197 244.163C60.7758 243.926 61.3598 243.907 61.7555 243.991C62.1544 244.072 62.3644 244.217 62.3487 244.254Z" fill="#263238"/>
<path d="M64.0447 249.079C64.0212 249.173 63.0787 248.85 62.0225 249.302C60.9532 249.723 60.5111 250.616 60.4274 250.565C60.3902 250.551 60.4379 250.3 60.6642 249.961C60.8865 249.623 61.3149 249.226 61.893 248.987C62.4718 248.75 63.0559 248.731 63.4509 248.815C63.8505 248.897 64.0604 249.042 64.0447 249.079Z" fill="#263238"/>
<path d="M65.5382 254.216C65.5055 254.309 64.5984 253.897 63.5043 254.246C62.3997 254.563 61.8739 255.409 61.796 255.35C61.7607 255.332 61.832 255.087 62.0897 254.772C62.3428 254.457 62.8078 254.103 63.4062 253.92C64.0053 253.74 64.5886 253.778 64.9738 253.899C65.3623 254.017 65.5578 254.182 65.5382 254.216Z" fill="#263238"/>
<path d="M67.1151 259.97C67.0759 260.06 66.2021 259.581 65.0844 259.847C63.9595 260.081 63.3723 260.885 63.2984 260.821C63.2643 260.8 63.3539 260.561 63.6339 260.266C63.9098 259.972 64.3997 259.652 65.0099 259.515C65.6207 259.38 66.1995 259.461 66.5749 259.611C66.9542 259.758 67.1367 259.937 67.1151 259.97Z" fill="#263238"/>
<path d="M68.5814 266.314C68.5422 266.403 67.6684 265.924 66.5507 266.191C65.4259 266.424 64.8386 267.228 64.7647 267.164C64.7307 267.143 64.8203 266.904 65.1008 266.609C65.3768 266.315 65.8667 265.995 66.4768 265.858C67.087 265.724 67.6665 265.804 68.0419 265.954C68.4205 266.102 68.603 266.28 68.5814 266.314Z" fill="#263238"/>
<path d="M126.347 153.243C126.478 153.145 128.223 152.474 129.632 153.498C130.949 154.455 131.4 155.247 131.4 155.247C131.4 155.247 131.794 156.057 131.042 156.623C130.29 157.189 128.285 157.139 128.285 157.139L129.169 156.392L127.75 155.106C127.75 155.106 126.572 155.378 126.063 154.43C125.554 153.481 126.347 153.243 126.347 153.243Z" fill="#FFBF9D"/>
<path d="M120.451 156.822C120.451 156.822 121.267 155.798 122.29 155.796C123.313 155.794 124.73 156.316 124.73 156.316C124.73 156.316 127.14 158.906 127.353 159.462C127.567 160.018 126.398 160.847 126.398 160.847C126.398 160.847 126.703 162.204 126.164 162.917C125.625 163.63 120.613 166.85 120.613 166.85L117.249 165.847C117.249 165.847 120.554 161.995 121.418 161.306C122.282 160.617 121.908 160.937 121.908 160.937L121.658 160.251C121.435 159.641 120.932 159.178 120.306 159.008L119.919 158.902L118.254 160.211C118.254 160.211 117.885 159.47 118.44 158.643C118.995 157.815 120.451 156.822 120.451 156.822Z" fill="#FFBF9D"/>
<path d="M124.06 157.332C124.06 157.332 123.084 155.967 123.828 155.459C124.571 154.95 125.306 155.313 126.095 155.545C126.883 155.776 127.872 156.614 128.078 157.432C128.284 158.25 128.499 159.42 127.353 159.462C126.208 159.505 124.06 157.332 124.06 157.332Z" fill="#FFBF9D"/>
<path d="M120.264 156.996C120.241 156.969 120.653 156.656 121.45 156.598C122.236 156.524 123.361 156.849 124.272 157.628C125.193 158.392 125.782 159.318 126.097 160.019C126.414 160.726 126.486 161.203 126.447 161.213C126.396 161.229 126.243 160.783 125.881 160.127C125.522 159.475 124.927 158.613 124.055 157.891C123.191 157.156 122.189 156.831 121.455 156.838C120.718 156.831 120.285 157.05 120.264 156.996Z" fill="#FF9A6C"/>
<path d="M127.339 159.753C127.285 159.755 127.263 159.407 127.104 158.885C126.948 158.372 126.626 157.66 126.05 157.098C125.445 156.574 124.691 156.333 124.175 156.16C123.649 155.993 123.31 155.919 123.316 155.869C123.321 155.826 123.676 155.816 124.235 155.927C124.785 156.05 125.578 156.245 126.28 156.847C126.934 157.488 127.229 158.265 127.338 158.829C127.444 159.398 127.378 159.755 127.339 159.753Z" fill="#FF9A6C"/>
<path d="M114.629 167.95C114.629 167.95 118.62 168.31 120.772 166.742C122.925 165.174 120.056 162.678 120.056 162.678L114.629 167.95Z" fill="#FFBF9D"/>
<path d="M122.493 161.996C122.411 162.041 122.203 161.819 122.03 161.501C121.857 161.182 121.783 160.888 121.866 160.843C121.948 160.798 122.156 161.019 122.329 161.338C122.502 161.656 122.575 161.951 122.493 161.996Z" fill="#FF9A6C"/>
<path d="M27.9068 186.165C27.9068 186.165 22.8907 214.861 23.27 219.92C23.701 225.669 26.0678 226.034 29.3332 226.327C32.3704 226.599 55.3847 223.378 55.3847 223.378L52.7111 212.739L37.5252 213.513L41.2511 197.861L27.9068 186.165Z" fill="#455A64"/>
<path d="M60.2563 219.633C60.1882 219.699 53.7444 213.088 45.865 204.869C37.983 196.649 31.6503 189.933 31.7183 189.869C31.7863 189.803 38.2289 196.413 46.1109 204.634C53.9903 212.852 60.3243 219.569 60.2563 219.633Z" fill="#263238"/>
<path d="M54.2711 212.877C54.2711 212.877 55.1495 208.17 57.2056 206.623C59.2618 205.075 64.6802 203.313 64.6802 203.313C64.6802 203.313 64.8411 203.928 64.0713 205.045C63.3016 206.162 60.6653 207.608 60.6653 207.608L66.4708 206.495L71.7499 203.641C71.9481 203.533 72.1992 203.566 72.3483 203.735C72.6283 204.051 72.8715 204.656 71.9285 205.499C70.4805 206.792 66.1864 209.729 66.1864 209.729C66.1864 209.729 66.6239 214.631 65.0562 215.407C63.4893 216.184 57.2462 218.257 57.2462 218.257L54.3097 219.209L52.8022 212.975L54.2711 212.877Z" fill="#FFBF9D"/>
<path d="M31.133 218.277C31.097 218.274 31.1048 217.74 31.4116 216.946C31.7098 216.159 32.3671 215.12 33.4468 214.369C34.5279 213.619 35.7306 213.366 36.5716 213.36C37.4231 213.35 37.9261 213.528 37.9163 213.563C37.9071 213.619 37.397 213.53 36.5841 213.6C35.7783 213.666 34.6561 213.944 33.6404 214.649C32.626 215.354 31.974 216.309 31.632 217.042C31.2827 217.778 31.1892 218.288 31.133 218.277Z" fill="#263238"/>
<path d="M81.0208 122.074L86.4247 123.481L86.1424 124.565L82.6276 123.65L85.7655 126.013L85.5518 126.833L81.658 127.374L85.1728 128.289L84.8906 129.373L79.4868 127.966L79.8073 126.735L84.2728 126.062L80.7023 123.297L81.0208 122.074ZM81.5821 119.919L86.9859 121.326L86.7037 122.409L81.2999 121.002L81.5821 119.919ZM86.6876 118.947L87.1512 117.167L88.0106 117.39L87.2647 120.255L81.8609 118.848L82.1431 117.764L86.6876 118.947ZM83.278 113.405C83.4258 112.838 83.6665 112.368 84 111.998C84.3348 111.622 84.7389 111.372 85.2123 111.247C85.6818 111.116 86.1876 111.121 86.7295 111.262C87.2714 111.403 87.7153 111.645 88.0613 111.989C88.4034 112.326 88.6289 112.74 88.738 113.231C88.8484 113.718 88.8297 114.245 88.6818 114.812L88.19 116.701L82.7861 115.294L83.278 113.405ZM87.7505 114.611C87.8983 114.043 87.8577 113.564 87.6287 113.174C87.3996 112.784 87.0038 112.515 86.4412 112.369C85.8787 112.222 85.3996 112.263 85.0042 112.491C84.6035 112.717 84.3293 113.114 84.1815 113.682L83.9819 114.448L87.5509 115.378L87.7505 114.611Z" fill="white"/>
<path d="M155.079 58.2118V63.7958H153.959V60.1638L152.463 63.7958H151.615L150.111 60.1638V63.7958H148.991V58.2118H150.263L152.039 62.3638L153.815 58.2118H155.079ZM158.778 63.8518C158.256 63.8518 157.776 63.7291 157.338 63.4838C156.901 63.2384 156.554 62.8998 156.298 62.4678C156.042 62.0304 155.914 61.5371 155.914 60.9878C155.914 60.4438 156.042 59.9558 156.298 59.5238C156.554 59.0864 156.901 58.7451 157.338 58.4998C157.776 58.2544 158.256 58.1318 158.778 58.1318C159.306 58.1318 159.786 58.2544 160.218 58.4998C160.656 58.7451 161 59.0864 161.25 59.5238C161.506 59.9558 161.634 60.4438 161.634 60.9878C161.634 61.5371 161.506 62.0304 161.25 62.4678C161 62.8998 160.656 63.2384 160.218 63.4838C159.781 63.7291 159.301 63.8518 158.778 63.8518ZM158.778 62.8518C159.114 62.8518 159.41 62.7771 159.666 62.6278C159.922 62.4731 160.122 62.2544 160.266 61.9718C160.41 61.6891 160.482 61.3611 160.482 60.9878C160.482 60.6144 160.41 60.2891 160.266 60.0118C160.122 59.7291 159.922 59.5131 159.666 59.3638C159.41 59.2144 159.114 59.1398 158.778 59.1398C158.442 59.1398 158.144 59.2144 157.882 59.3638C157.626 59.5131 157.426 59.7291 157.282 60.0118C157.138 60.2891 157.066 60.6144 157.066 60.9878C157.066 61.3611 157.138 61.6891 157.282 61.9718C157.426 62.2544 157.626 62.4731 157.882 62.6278C158.144 62.7771 158.442 62.8518 158.778 62.8518ZM164.42 58.2118C165.006 58.2118 165.521 58.3264 165.964 58.5558C166.412 58.7851 166.756 59.1131 166.996 59.5398C167.241 59.9611 167.364 60.4518 167.364 61.0118C167.364 61.5718 167.241 62.0624 166.996 62.4838C166.756 62.8998 166.412 63.2224 165.964 63.4518C165.521 63.6811 165.006 63.7958 164.42 63.7958H162.468V58.2118H164.42ZM164.38 62.8438C164.966 62.8438 165.42 62.6838 165.74 62.3638C166.06 62.0438 166.22 61.5931 166.22 61.0118C166.22 60.4304 166.06 59.9771 165.74 59.6518C165.42 59.3211 164.966 59.1558 164.38 59.1558H163.588V62.8438H164.38ZM169.322 59.1158V60.5158H171.202V61.4038H169.322V62.8838H171.442V63.7958H168.202V58.2038H171.442V59.1158H169.322ZM175.34 63.7958L174.108 61.6198H173.58V63.7958H172.46V58.2118H174.556C174.988 58.2118 175.356 58.2891 175.66 58.4438C175.964 58.5931 176.19 58.7984 176.34 59.0598C176.494 59.3158 176.572 59.6038 176.572 59.9238C176.572 60.2918 176.465 60.6251 176.252 60.9238C176.038 61.2171 175.721 61.4198 175.3 61.5318L176.636 63.7958H175.34ZM173.58 60.7798H174.516C174.82 60.7798 175.046 60.7078 175.196 60.5638C175.345 60.4144 175.42 60.2091 175.42 59.9478C175.42 59.6918 175.345 59.4944 175.196 59.3558C175.046 59.2118 174.82 59.1398 174.516 59.1398H173.58V60.7798ZM181.009 62.7318H178.785L178.417 63.7958H177.241L179.249 58.2038H180.553L182.561 63.7958H181.377L181.009 62.7318ZM180.705 61.8358L179.897 59.4998L179.089 61.8358H180.705ZM187.111 58.2118V59.1158H185.623V63.7958H184.503V59.1158H183.015V58.2118H187.111ZM189.048 59.1158V60.5158H190.928V61.4038H189.048V62.8838H191.168V63.7958H187.928V58.2038H191.168V59.1158H189.048Z" fill="white"/>
</svg>
