<svg width="124" height="550" viewBox="0 0 124 550" fill="none" xmlns="http://www.w3.org/2000/svg">
<line x1="14.5" y1="28" x2="14.5" y2="239" stroke="#4D4D4D" stroke-dasharray="5 5"/>
<line x1="14.5" y1="269" x2="14.5" y2="492" stroke="#4D4D4D" stroke-dasharray="5 5"/>
<rect x="0.5" y="0.5" width="27" height="27" rx="13.5" stroke="#4D4D4D"/>
<path d="M17 20H15V8C15 7.46957 14.7893 6.96086 14.4142 6.58579C14.0391 6.21071 13.5304 6 13 6H11V8H13V20H11V22H17V20Z" fill="#4D4D4D"/>
<path d="M46.8901 8.454V9.786H41.4361V14.016H45.8641V15.348H41.4361V21H39.7981V8.454H46.8901ZM49.7144 9.534C49.4024 9.534 49.1384 9.426 48.9224 9.21C48.7064 8.994 48.5984 8.73 48.5984 8.418C48.5984 8.106 48.7064 7.842 48.9224 7.626C49.1384 7.41 49.4024 7.302 49.7144 7.302C50.0144 7.302 50.2664 7.41 50.4704 7.626C50.6864 7.842 50.7944 8.106 50.7944 8.418C50.7944 8.73 50.6864 8.994 50.4704 9.21C50.2664 9.426 50.0144 9.534 49.7144 9.534ZM50.5064 11.136V21H48.8684V11.136H50.5064ZM54.9361 12.738C55.2241 12.174 55.6321 11.736 56.1601 11.424C56.7001 11.112 57.3541 10.956 58.1221 10.956V12.648H57.6901C55.8541 12.648 54.9361 13.644 54.9361 15.636V21H53.2981V11.136H54.9361V12.738ZM63.505 21.162C62.749 21.162 62.071 21.036 61.471 20.784C60.871 20.52 60.397 20.16 60.049 19.704C59.701 19.236 59.509 18.702 59.473 18.102H61.165C61.213 18.594 61.441 18.996 61.849 19.308C62.269 19.62 62.815 19.776 63.487 19.776C64.111 19.776 64.603 19.638 64.963 19.362C65.323 19.086 65.503 18.738 65.503 18.318C65.503 17.886 65.311 17.568 64.927 17.364C64.543 17.148 63.949 16.938 63.145 16.734C62.413 16.542 61.813 16.35 61.345 16.158C60.889 15.954 60.493 15.66 60.157 15.276C59.833 14.88 59.671 14.364 59.671 13.728C59.671 13.224 59.821 12.762 60.121 12.342C60.421 11.922 60.847 11.592 61.399 11.352C61.951 11.1 62.581 10.974 63.289 10.974C64.381 10.974 65.263 11.25 65.935 11.802C66.607 12.354 66.967 13.11 67.015 14.07H65.377C65.341 13.554 65.131 13.14 64.747 12.828C64.375 12.516 63.871 12.36 63.235 12.36C62.647 12.36 62.179 12.486 61.831 12.738C61.483 12.99 61.309 13.32 61.309 13.728C61.309 14.052 61.411 14.322 61.615 14.538C61.831 14.742 62.095 14.91 62.407 15.042C62.731 15.162 63.175 15.3 63.739 15.456C64.447 15.648 65.023 15.84 65.467 16.032C65.911 16.212 66.289 16.488 66.601 16.86C66.925 17.232 67.093 17.718 67.105 18.318C67.105 18.858 66.955 19.344 66.655 19.776C66.355 20.208 65.929 20.55 65.377 20.802C64.837 21.042 64.213 21.162 63.505 21.162ZM71.4153 12.486V18.3C71.4153 18.78 71.5173 19.122 71.7213 19.326C71.9253 19.518 72.2793 19.614 72.7832 19.614H73.9893V21H72.5133C71.6013 21 70.9173 20.79 70.4613 20.37C70.0053 19.95 69.7773 19.26 69.7773 18.3V12.486H68.4993V11.136H69.7773V8.652H71.4153V11.136H73.9893V12.486H71.4153Z" fill="#4D4D4D"/>
<rect x="0.5" y="239.5" width="27" height="27" rx="13.5" stroke="#4D4D4D"/>
<path d="M9 245H17C17.5304 245 18.0391 245.211 18.4142 245.586C18.7893 245.961 19 246.47 19 247V252C19 252.53 18.7893 253.039 18.4142 253.414C18.0391 253.789 17.5304 254 17 254H11V259H19V261H9V254C9 253.47 9.21071 252.961 9.58579 252.586C9.96086 252.211 10.4696 252 11 252H17V247H9V245Z" fill="#4D4D4D"/>
<path d="M43.4382 260.126C42.6102 260.126 41.8662 259.982 41.2062 259.694C40.5582 259.394 40.0482 258.986 39.6762 258.47C39.3042 257.942 39.1122 257.336 39.1002 256.652H40.8462C40.9062 257.24 41.1462 257.738 41.5662 258.146C41.9982 258.542 42.6222 258.74 43.4382 258.74C44.2182 258.74 44.8302 258.548 45.2742 258.164C45.7302 257.768 45.9582 257.264 45.9582 256.652C45.9582 256.172 45.8262 255.782 45.5622 255.482C45.2982 255.182 44.9682 254.954 44.5722 254.798C44.1762 254.642 43.6422 254.474 42.9702 254.294C42.1422 254.078 41.4762 253.862 40.9722 253.646C40.4802 253.43 40.0542 253.094 39.6942 252.638C39.3462 252.17 39.1722 251.546 39.1722 250.766C39.1722 250.082 39.3462 249.476 39.6942 248.948C40.0422 248.42 40.5282 248.012 41.1522 247.724C41.7882 247.436 42.5142 247.292 43.3302 247.292C44.5062 247.292 45.4662 247.586 46.2102 248.174C46.9662 248.762 47.3922 249.542 47.4882 250.514H45.6882C45.6282 250.034 45.3762 249.614 44.9322 249.254C44.4882 248.882 43.9002 248.696 43.1682 248.696C42.4842 248.696 41.9262 248.876 41.4942 249.236C41.0622 249.584 40.8462 250.076 40.8462 250.712C40.8462 251.168 40.9722 251.54 41.2242 251.828C41.4882 252.116 41.8062 252.338 42.1782 252.494C42.5622 252.638 43.0962 252.806 43.7802 252.998C44.6082 253.226 45.2742 253.454 45.7782 253.682C46.2822 253.898 46.7142 254.24 47.0742 254.708C47.4342 255.164 47.6142 255.788 47.6142 256.58C47.6142 257.192 47.4522 257.768 47.1282 258.308C46.8042 258.848 46.3242 259.286 45.6882 259.622C45.0522 259.958 44.3022 260.126 43.4382 260.126ZM59.0247 254.69C59.0247 255.002 59.0067 255.332 58.9707 255.68H51.0867C51.1467 256.652 51.4767 257.414 52.0767 257.966C52.6887 258.506 53.4267 258.776 54.2907 258.776C54.9987 258.776 55.5867 258.614 56.0547 258.29C56.5347 257.954 56.8707 257.51 57.0627 256.958H58.8267C58.5627 257.906 58.0347 258.68 57.2427 259.28C56.4507 259.868 55.4667 260.162 54.2907 260.162C53.3547 260.162 52.5147 259.952 51.7707 259.532C51.0387 259.112 50.4627 258.518 50.0427 257.75C49.6227 256.97 49.4127 256.07 49.4127 255.05C49.4127 254.03 49.6167 253.136 50.0247 252.368C50.4327 251.6 51.0027 251.012 51.7347 250.604C52.4787 250.184 53.3307 249.974 54.2907 249.974C55.2267 249.974 56.0547 250.178 56.7747 250.586C57.4947 250.994 58.0467 251.558 58.4307 252.278C58.8267 252.986 59.0247 253.79 59.0247 254.69ZM57.3327 254.348C57.3327 253.724 57.1947 253.19 56.9187 252.746C56.6427 252.29 56.2647 251.948 55.7847 251.72C55.3167 251.48 54.7947 251.36 54.2187 251.36C53.3907 251.36 52.6827 251.624 52.0947 252.152C51.5187 252.68 51.1887 253.412 51.1047 254.348H57.3327ZM60.5748 255.05C60.5748 254.03 60.7788 253.142 61.1868 252.386C61.5948 251.618 62.1588 251.024 62.8788 250.604C63.6108 250.184 64.4448 249.974 65.3808 249.974C66.5928 249.974 67.5888 250.268 68.3688 250.856C69.1608 251.444 69.6828 252.26 69.9348 253.304H68.1708C68.0028 252.704 67.6728 252.23 67.1808 251.882C66.7008 251.534 66.1008 251.36 65.3808 251.36C64.4448 251.36 63.6888 251.684 63.1128 252.332C62.5368 252.968 62.2488 253.874 62.2488 255.05C62.2488 256.238 62.5368 257.156 63.1128 257.804C63.6888 258.452 64.4448 258.776 65.3808 258.776C66.1008 258.776 66.7008 258.608 67.1808 258.272C67.6608 257.936 67.9908 257.456 68.1708 256.832H69.9348C69.6708 257.84 69.1428 258.65 68.3508 259.262C67.5588 259.862 66.5688 260.162 65.3808 260.162C64.4448 260.162 63.6108 259.952 62.8788 259.532C62.1588 259.112 61.5948 258.518 61.1868 257.75C60.7788 256.982 60.5748 256.082 60.5748 255.05ZM76.4224 260.162C75.4984 260.162 74.6584 259.952 73.9024 259.532C73.1584 259.112 72.5704 258.518 72.1384 257.75C71.7184 256.97 71.5084 256.07 71.5084 255.05C71.5084 254.042 71.7244 253.154 72.1564 252.386C72.6004 251.606 73.2004 251.012 73.9564 250.604C74.7124 250.184 75.5584 249.974 76.4944 249.974C77.4304 249.974 78.2764 250.184 79.0324 250.604C79.7884 251.012 80.3824 251.6 80.8144 252.368C81.2584 253.136 81.4804 254.03 81.4804 255.05C81.4804 256.07 81.2524 256.97 80.7964 257.75C80.3524 258.518 79.7464 259.112 78.9784 259.532C78.2104 259.952 77.3584 260.162 76.4224 260.162ZM76.4224 258.722C77.0104 258.722 77.5624 258.584 78.0784 258.308C78.5944 258.032 79.0084 257.618 79.3204 257.066C79.6444 256.514 79.8064 255.842 79.8064 255.05C79.8064 254.258 79.6504 253.586 79.3384 253.034C79.0264 252.482 78.6184 252.074 78.1144 251.81C77.6104 251.534 77.0644 251.396 76.4764 251.396C75.8764 251.396 75.3244 251.534 74.8204 251.81C74.3284 252.074 73.9324 252.482 73.6324 253.034C73.3324 253.586 73.1824 254.258 73.1824 255.05C73.1824 255.854 73.3264 256.532 73.6144 257.084C73.9144 257.636 74.3104 258.05 74.8024 258.326C75.2944 258.59 75.8344 258.722 76.4224 258.722ZM88.44 249.956C89.64 249.956 90.612 250.322 91.356 251.054C92.1 251.774 92.472 252.818 92.472 254.186V260H90.852V254.42C90.852 253.436 90.606 252.686 90.114 252.17C89.622 251.642 88.95 251.378 88.098 251.378C87.234 251.378 86.544 251.648 86.028 252.188C85.524 252.728 85.272 253.514 85.272 254.546V260H83.634V250.136H85.272V251.54C85.596 251.036 86.034 250.646 86.586 250.37C87.15 250.094 87.768 249.956 88.44 249.956ZM94.5357 255.032C94.5357 254.024 94.7397 253.142 95.1477 252.386C95.5557 251.618 96.1137 251.024 96.8217 250.604C97.5417 250.184 98.3457 249.974 99.2337 249.974C100.002 249.974 100.716 250.154 101.376 250.514C102.036 250.862 102.54 251.324 102.888 251.9V246.68H104.544V260H102.888V258.146C102.564 258.734 102.084 259.22 101.448 259.604C100.812 259.976 100.068 260.162 99.2157 260.162C98.3397 260.162 97.5417 259.946 96.8217 259.514C96.1137 259.082 95.5557 258.476 95.1477 257.696C94.7397 256.916 94.5357 256.028 94.5357 255.032ZM102.888 255.05C102.888 254.306 102.738 253.658 102.438 253.106C102.138 252.554 101.73 252.134 101.214 251.846C100.71 251.546 100.152 251.396 99.5397 251.396C98.9277 251.396 98.3697 251.54 97.8657 251.828C97.3617 252.116 96.9597 252.536 96.6597 253.088C96.3597 253.64 96.2097 254.288 96.2097 255.032C96.2097 255.788 96.3597 256.448 96.6597 257.012C96.9597 257.564 97.3617 257.99 97.8657 258.29C98.3697 258.578 98.9277 258.722 99.5397 258.722C100.152 258.722 100.71 258.578 101.214 258.29C101.73 257.99 102.138 257.564 102.438 257.012C102.738 256.448 102.888 255.794 102.888 255.05Z" fill="#4D4D4D"/>
<rect x="0.5" y="493.5" width="27" height="27" rx="13.5" stroke="#4D4D4D"/>
<path d="M9 499H17C17.5304 499 18.0391 499.211 18.4142 499.586C18.7893 499.961 19 500.47 19 501V513C19 513.53 18.7893 514.039 18.4142 514.414C18.0391 514.789 17.5304 515 17 515H9V513H17V508H10V506H17V501H9V499Z" fill="#4D4D4D"/>
<path d="M39.3277 500.954V502.286H35.9077V513.5H34.2697V502.286H30.8317V500.954H39.3277ZM46.24 503.456C46.984 503.456 47.656 503.618 48.256 503.942C48.856 504.254 49.324 504.728 49.66 505.364C50.008 506 50.182 506.774 50.182 507.686V513.5H48.562V507.92C48.562 506.936 48.316 506.186 47.824 505.67C47.332 505.142 46.66 504.878 45.808 504.878C44.944 504.878 44.254 505.148 43.738 505.688C43.234 506.228 42.982 507.014 42.982 508.046V513.5H41.344V500.18H42.982V505.04C43.306 504.536 43.75 504.146 44.314 503.87C44.89 503.594 45.532 503.456 46.24 503.456ZM53.7037 502.034C53.3917 502.034 53.1277 501.926 52.9117 501.71C52.6957 501.494 52.5877 501.23 52.5877 500.918C52.5877 500.606 52.6957 500.342 52.9117 500.126C53.1277 499.91 53.3917 499.802 53.7037 499.802C54.0037 499.802 54.2557 499.91 54.4597 500.126C54.6757 500.342 54.7837 500.606 54.7837 500.918C54.7837 501.23 54.6757 501.494 54.4597 501.71C54.2557 501.926 54.0037 502.034 53.7037 502.034ZM54.4957 503.636V513.5H52.8577V503.636H54.4957ZM58.9254 505.238C59.2134 504.674 59.6214 504.236 60.1494 503.924C60.6894 503.612 61.3434 503.456 62.1114 503.456V505.148H61.6794C59.8434 505.148 58.9254 506.144 58.9254 508.136V513.5H57.2874V503.636H58.9254V505.238ZM63.3902 508.532C63.3902 507.524 63.5942 506.642 64.0022 505.886C64.4102 505.118 64.9682 504.524 65.6762 504.104C66.3962 503.684 67.2002 503.474 68.0882 503.474C68.8562 503.474 69.5702 503.654 70.2302 504.014C70.8902 504.362 71.3942 504.824 71.7422 505.4V500.18H73.3982V513.5H71.7422V511.646C71.4182 512.234 70.9382 512.72 70.3022 513.104C69.6662 513.476 68.9222 513.662 68.0702 513.662C67.1942 513.662 66.3962 513.446 65.6762 513.014C64.9682 512.582 64.4102 511.976 64.0022 511.196C63.5942 510.416 63.3902 509.528 63.3902 508.532ZM71.7422 508.55C71.7422 507.806 71.5922 507.158 71.2922 506.606C70.9922 506.054 70.5842 505.634 70.0682 505.346C69.5642 505.046 69.0062 504.896 68.3942 504.896C67.7822 504.896 67.2242 505.04 66.7202 505.328C66.2162 505.616 65.8142 506.036 65.5142 506.588C65.2142 507.14 65.0642 507.788 65.0642 508.532C65.0642 509.288 65.2142 509.948 65.5142 510.512C65.8142 511.064 66.2162 511.49 66.7202 511.79C67.2242 512.078 67.7822 512.222 68.3942 512.222C69.0062 512.222 69.5642 512.078 70.0682 511.79C70.5842 511.49 70.9922 511.064 71.2922 510.512C71.5922 509.948 71.7422 509.294 71.7422 508.55Z" fill="#4D4D4D"/>
</svg>
