<svg width="156" height="156" viewBox="0 0 156 156" fill="none" xmlns="http://www.w3.org/2000/svg">
<path d="M51.9782 119.406C51.9782 119.406 66.6684 126.349 82.1901 125.707C100.997 124.93 107.196 119.406 107.196 119.406C107.196 119.406 110.759 134.166 114.042 146.92H41.8525C41.8525 146.92 45.4203 130.564 51.9782 119.406Z" fill="#303030"/>
<path d="M116.886 60.3262C115.565 53.1854 111.573 52.4625 110.685 47.6923C109.985 43.9399 111.675 42.4351 109.722 36.4432C107.993 31.1401 102.107 31.4165 100.139 27.3996C98.1905 23.4216 99.5533 21.0263 94.9513 17.2954C90.3905 13.5979 83.8849 14.1673 80.043 15.7108C76.2996 13.9514 69.8387 13.0139 65.0657 16.4462C60.2494 19.9097 61.4671 22.3782 59.2853 26.2386C57.082 30.137 51.7474 29.7595 49.7063 34.9556C47.3997 40.8265 51.207 42.8208 49.7986 47.4134C48.3744 52.0582 43.6079 53.7963 42.9708 59.1443C42.3325 64.502 45.2191 78.0462 77.6066 79.2539L77.9626 79.2199C78.1716 79.2256 121.196 83.6238 116.886 60.3262Z" fill="#303030"/>
<path d="M60.4169 23.7067C59.9448 25.7325 58.1296 27.0676 56.3628 27.9452C54.3033 28.9683 52.0119 29.5423 50.134 30.9142C48.3843 32.1925 47.1497 34.1272 46.7563 36.2625C46.5551 37.3551 46.5731 38.4662 46.8246 39.5491C47.0901 40.6917 47.5694 41.7715 48.0352 42.8432C48.496 43.9031 48.9615 44.9729 49.2158 46.1049C49.4716 47.244 49.5989 48.5447 48.9509 49.5815C48.8136 49.8011 48.6436 49.9902 48.4464 50.1577C48.14 50.4183 48.5834 50.8579 48.8876 50.5989C49.7889 49.8326 50.0975 48.6118 50.0398 47.4692C49.9774 46.2343 49.613 45.0394 49.1549 43.899C48.3063 41.7858 47.1245 39.7107 47.2489 37.3604C47.3616 35.2298 48.3971 33.1799 50.0148 31.7959C51.7991 30.2696 54.1526 29.6484 56.2486 28.6878C58.1125 27.8335 60.001 26.5453 60.7969 24.5769C60.8896 24.3478 60.9626 24.1123 61.0184 23.8717C61.1095 23.482 60.508 23.3151 60.4169 23.7067Z" fill="#303030"/>
<path d="M80.347 16.1284C81.8287 14.9422 83.6667 14.2258 85.5147 13.8552C87.4971 13.4577 89.5894 13.4636 91.5522 13.9684C93.4648 14.4605 95.2407 15.4617 96.5791 16.9228C97.9438 18.4126 98.7117 20.2758 99.0839 22.243C99.5113 24.5003 99.5444 26.8597 100.441 29.0062C100.555 29.2808 100.681 29.55 100.82 29.8127C101.008 30.1678 101.547 29.8527 101.359 29.4979C100.234 27.3757 100.161 24.9253 99.7784 22.6033C99.4339 20.5108 98.7216 18.5305 97.3632 16.8769C96.0668 15.2985 94.2784 14.1597 92.3381 13.5444C90.3145 12.9026 88.1361 12.814 86.0457 13.1307C84.0751 13.4293 82.1048 14.1145 80.4659 15.2651C80.2746 15.3996 80.0887 15.5412 79.9062 15.6872C79.7745 15.7927 79.7963 16.0186 79.9062 16.1284C80.036 16.2582 80.2151 16.2339 80.347 16.1284Z" fill="#303030"/>
<path d="M109.321 45.0181C109.474 46.9048 110.608 48.6264 111.787 50.0444C112.337 50.7056 112.943 51.308 113.576 51.889C114.13 52.3985 114.691 52.903 115.199 53.4602C117.484 55.9681 118.515 59.6047 117.982 62.9456C117.634 65.1331 116.648 67.1589 115.241 68.8602C114.987 69.1675 115.426 69.6112 115.682 69.3014C116.981 67.7308 117.966 65.9068 118.428 63.9138C118.823 62.2071 118.838 60.4284 118.488 58.713C118.133 56.974 117.399 55.2633 116.326 53.8462C115.361 52.571 114.095 51.6094 112.995 50.4622C112.249 49.6831 111.573 48.8311 111.016 47.9063C110.489 47.0308 110.029 46.0502 109.945 45.0184C109.912 44.6206 109.288 44.6172 109.321 45.0181Z" fill="#303030"/>
<path d="M84.318 17.4441C75.076 14.7328 65.3859 20.0275 62.6746 29.2695C59.9633 38.5116 65.258 48.2017 74.5 50.913C83.7421 53.6243 93.4322 48.3296 96.1435 39.0876C98.8547 29.8455 93.5604 20.1551 84.318 17.4441Z" fill="#303030"/>
<path d="M92.4035 55.152C92.4035 55.152 91.3774 55.3691 82.7852 57.2798L82.1063 53.6216C86.1688 53.5842 90.5762 51.9752 93.3158 48.0324C96.4237 43.5599 96.8876 37.0351 95.7822 33.0608C93.6303 25.3251 86.3298 26.18 82.9652 21.6494C79.3975 25.0721 74.6776 23.26 70.1501 26.8096C67.4875 28.8972 66.4913 32.1479 66.2991 34.6614C67.1921 36.2579 67.1705 38.0812 66.7986 39.2624C65.7971 37.4163 64.1114 35.8045 62.0057 35.3103C59.9 34.8161 57.4127 35.6978 56.5638 37.5889C55.7242 39.4587 56.7082 41.7856 58.4508 42.9921C60.1933 44.1983 62.766 44.656 65.2773 43.8214L65.2804 43.8201C65.8548 45.9015 67.4108 48.1326 69.8628 49.8224L68.4398 59.2398L55.5869 62.8122C55.5869 62.8122 58.5244 80.0162 82.4954 78.4237C102.62 77.0871 92.4035 55.152 92.4035 55.152Z" fill="#FFC4B0"/>
<path d="M74.123 51.8047C74.123 51.8047 76.6471 53.5403 82.1068 53.6215L82.5162 55.8282C82.5162 55.8282 76.0437 55.5078 74.123 51.8047Z" fill="#303030"/>
<path d="M59.3438 37.9147C59.8922 37.6604 61.1378 37.6127 62.2887 38.1524C63.4397 38.6922 64.2734 39.8185 64.4206 41.0322" stroke="#303030" stroke-width="2" stroke-miterlimit="10" stroke-linecap="round" stroke-linejoin="round"/>
<path d="M61.1729 39.5949C61.5766 39.4099 62.9541 39.0024 64.0679 39.8882" stroke="#303030" stroke-width="2" stroke-miterlimit="10" stroke-linecap="round" stroke-linejoin="round"/>
<path d="M82.9473 31.6787C83.2228 35.4227 85.2947 37.2142 84.2739 39.0101C83.5544 40.2756 82.3819 40.2887 81.4824 40.2565" stroke="#303030" stroke-width="2" stroke-miterlimit="10" stroke-linecap="round" stroke-linejoin="round"/>
<path d="M78.698 29.2512C76.3106 28.5124 74.4838 28.6375 72.3896 29.43" stroke="#303030" stroke-width="2" stroke-miterlimit="10" stroke-linecap="round" stroke-linejoin="round"/>
<path opacity="0.2" d="M79.2778 35.3144C79.1749 34.1029 78.3858 32.65 76.6159 32.0862C75.2792 31.6606 72.5976 31.7286 72.0029 34.0284C73.3611 36.1113 76.214 37.2086 79.2778 35.3144Z" fill="#303030"/>
<path d="M78.9842 35.2926C77.4326 37.0635 73.5214 36.3833 72.2051 34.1787" stroke="#303030" stroke-width="2" stroke-miterlimit="10" stroke-linecap="round" stroke-linejoin="round"/>
<path d="M70.9805 33.2031C71.1621 33.7432 71.6594 34.1254 72.2051 34.1787" stroke="#303030" stroke-width="2" stroke-miterlimit="10" stroke-linecap="round" stroke-linejoin="round"/>
<path d="M79.4092 43.8409C80.4712 44.1944 81.7261 44.765 81.8553 45.8108C82.7033 44.8237 83.6433 44.7232 83.6433 44.7232C83.6433 44.7232 82.7707 43.8777 81.6269 43.6927C80.4831 43.5076 79.4092 43.8409 79.4092 43.8409Z" fill="#303030"/>
<path d="M77.4795 43.8623C77.6829 44.4707 78.7369 46.0782 81.0132 46.3502C81.5124 46.3942 81.6126 46.1006 81.855 45.8108C81.8987 45.3372 81.3854 44.2823 79.4089 43.8408C78.8064 44.0383 78.0086 43.9837 77.4795 43.8623Z" fill="#D1E1F2"/>
<path d="M80.7839 47.6906C78.1066 47.559 77.0231 45.1709 77.316 43.9619C77.3295 44.1366 77.9301 44.9631 78.0608 45.0798C78.6951 45.6461 79.4704 46.0536 80.2966 46.2548C80.6008 46.3287 81.1093 46.3902 81.4017 46.2785C81.9258 46.0779 82.2388 45.2137 83.2977 45.1026C82.4849 46.0373 82.7189 47.7861 80.7839 47.6906Z" fill="#D1E1F2"/>
<path d="M78.7394 43.9198C78.7394 43.9198 78.7126 44.3488 79.3422 44.5828C79.9718 44.8168 81.3964 45.0081 81.9203 44.8515C82.4441 44.6945 82.7146 44.1111 82.7146 44.1111C82.7146 44.1111 81.9249 43.6003 81.31 43.6259C80.6944 43.6515 78.9528 43.913 78.7394 43.9198Z" fill="white"/>
<path d="M84.68 45.0419C83.589 44.7983 82.7232 43.9072 81.6262 43.6916C80.771 43.5237 79.899 43.7886 79.0338 43.8938C78.1686 43.9989 77.373 43.9849 76.5156 43.6357" stroke="#303030" stroke-width="2" stroke-miterlimit="10" stroke-linecap="round" stroke-linejoin="round"/>
<path d="M74.6998 42.6142C75.1014 42.6142 75.102 41.9902 74.6998 41.9902C74.2983 41.9902 74.2977 42.6142 74.6998 42.6142Z" fill="#303030"/>
<path d="M86.8698 44.9316C87.2713 44.9316 87.2719 44.3076 86.8698 44.3076C86.4682 44.3076 86.4676 44.9316 86.8698 44.9316Z" fill="#303030"/>
<path d="M83.7329 44.7797C82.9223 44.9681 82.2119 45.3279 81.7077 45.9899C81.626 46.0972 81.4712 46.3687 81.0132 46.3503C80.1721 46.3166 78.1568 45.5494 77.4795 43.9619" stroke="#303030" stroke-width="2" stroke-miterlimit="10" stroke-linecap="round" stroke-linejoin="round"/>
<path opacity="0.2" d="M85.5225 36.0893C85.9989 34.9705 87.4478 33.8763 89.3051 33.8938C90.7079 33.9072 92.9886 34.7705 92.8348 37.1411C90.8942 38.6951 87.8409 38.8461 85.5225 36.0893Z" fill="#303030"/>
<path d="M85.8086 36.1602C86.729 38.3273 90.6571 38.9033 92.5965 37.2203" stroke="#303030" stroke-width="2" stroke-miterlimit="10" stroke-linecap="round" stroke-linejoin="round"/>
<path d="M94.0637 36.6758C93.7223 37.1322 93.1305 37.3397 92.5957 37.2199" stroke="#303030" stroke-width="2" stroke-miterlimit="10" stroke-linecap="round" stroke-linejoin="round"/>
<path d="M87.3555 30.7339C89.853 30.6519 91.5821 31.2547 93.3927 32.5716" stroke="#303030" stroke-width="2" stroke-miterlimit="10" stroke-linecap="round" stroke-linejoin="round"/>
<path d="M63.0574 44.7237C63.0574 45.7645 62.2137 46.6081 61.1729 46.6081C60.132 46.6081 59.2881 45.7645 59.2881 44.7237C59.2881 43.6828 60.1317 42.8389 61.1729 42.8389C62.2134 42.8389 63.0574 43.6825 63.0574 44.7237Z" fill="white" stroke="#303030" stroke-width="1.5" stroke-miterlimit="10" stroke-linecap="round" stroke-linejoin="round"/>
<path d="M81.9887 21.9446C81.7163 22.7973 81.0028 23.407 80.2181 23.8416C79.2444 24.381 78.1583 24.7005 77.0863 24.9788C74.78 25.5776 72.3292 25.8602 70.25 27.1014C68.8145 27.9581 67.4726 29.1272 66.6043 30.5699C66.3968 30.9146 66.936 31.2288 67.1431 30.8847C67.9038 29.6208 69.0591 28.5902 70.2962 27.8055C70.9055 27.419 71.552 27.082 72.235 26.8455C72.7286 26.6749 73.2337 26.5379 73.7404 26.4112C74.8832 26.1254 76.0386 25.8927 77.1799 25.5991C78.2881 25.3142 79.4057 24.9804 80.4203 24.4416C81.3856 23.9289 82.2489 23.1795 82.5906 22.1106C82.7132 21.7268 82.1107 21.5627 81.9887 21.9446Z" fill="#303030"/>
<path d="M81.2609 17.5665C82.5448 18.9805 82.7121 20.8681 82.5707 22.692C82.5398 23.0926 83.1638 23.0904 83.1947 22.692C83.2699 21.7204 83.2687 20.7361 83.0621 19.7795C82.8478 18.7867 82.3848 17.8772 81.7021 17.1253C81.4319 16.8273 80.9914 17.2695 81.2609 17.5665Z" fill="#FFC4B0"/>
<path d="M64.6726 60.0315C69.9157 65.2538 84.2393 62.5069 86.1197 56.251L98.8977 52.9619C98.8977 52.9619 106.111 61.3772 106.625 71.5434C107.064 80.2298 105.519 88.4541 104.954 92.1123C104.389 95.7705 103.517 102.6 106.197 106.395C107.88 108.777 108.348 110.864 107.196 113.403C107.779 114.194 110.153 116.002 110.379 118.489C110.605 120.975 109.701 122.897 109.701 122.897C109.701 122.897 98.231 126.809 79.7216 126.809C61.2122 126.809 47.5821 122.445 47.5821 122.445C47.5821 122.445 45.9538 117.358 50.2488 113.855C49.9636 111.006 51.0438 109.105 52.8484 106.223C54.8829 102.973 56.6326 95.4697 55.6742 91.5395C54.0811 85.0062 50.9973 74.41 55.1862 62.3675L64.6726 60.0315Z" fill="#1A6980"/>
<path d="M109.701 122.897C109.701 122.897 98.2312 126.809 79.7218 126.809C61.2124 126.809 47.5824 122.445 47.5824 122.445L46.5624 125.89C46.1016 127.447 47.0204 129.076 48.5923 129.481C53.7322 130.804 65.3607 133.306 79.7864 133.306C94.6048 133.306 105.164 130.94 109.44 129.783C110.605 129.468 111.28 128.254 110.939 127.096L109.701 122.897Z" fill="#1A6980"/>
<path d="M109.701 122.897C109.701 122.897 98.2309 126.809 79.7215 126.809C61.2121 126.809 47.582 122.445 47.582 122.445" stroke="#303030" stroke-width="2" stroke-miterlimit="10" stroke-linecap="round" stroke-linejoin="round"/>
<path d="M51.6771 123.756C51.0581 125.881 50.6678 128.068 50.5059 130.276C50.4766 130.676 51.1006 130.674 51.1299 130.276C51.2878 128.123 51.6753 125.994 52.2787 123.922C52.3913 123.536 51.7895 123.371 51.6771 123.756Z" fill="#303030"/>
<path d="M57.8412 125.102C57.3869 127.258 57.0967 129.447 56.9616 131.646C56.937 132.047 57.561 132.045 57.5856 131.646C57.7176 129.502 58 127.37 58.443 125.268C58.5254 124.876 57.9242 124.709 57.8412 125.102Z" fill="#303030"/>
<path d="M64.4231 126.209C64.1423 128.362 63.9541 130.526 63.8462 132.694C63.8262 133.095 64.4502 133.094 64.4702 132.694C64.5781 130.526 64.7663 128.362 65.0471 126.209C65.0689 126.042 64.8879 125.897 64.7351 125.897C64.5482 125.897 64.4449 126.042 64.4231 126.209Z" fill="#303030"/>
<path d="M71.3079 126.886C71.1984 129.055 71.1054 131.225 71.0227 133.395C71.0074 133.797 71.6314 133.796 71.6467 133.395C71.7294 131.225 71.8224 129.055 71.9319 126.886C71.9522 126.485 71.3282 126.486 71.3079 126.886Z" fill="#303030"/>
<path d="M78.3254 127.192C78.3887 129.369 78.3896 131.547 78.3319 133.724C78.3213 134.126 78.9453 134.126 78.9559 133.724C79.0139 131.547 79.0127 129.369 78.9494 127.192C78.9378 126.791 78.3138 126.789 78.3254 127.192Z" fill="#303030"/>
<path d="M85.3997 127.1C85.6356 129.277 85.7311 131.467 85.6977 133.657C85.6914 134.059 86.3154 134.059 86.3217 133.657C86.3548 131.467 86.2596 129.277 86.0237 127.1C86.0056 126.933 85.8933 126.788 85.7117 126.788C85.5573 126.788 85.3816 126.931 85.3997 127.1Z" fill="#303030"/>
<path d="M92.3519 126.669C92.7532 128.81 92.9388 130.988 92.9304 133.167C92.9288 133.568 93.5528 133.569 93.5544 133.167C93.5628 130.932 93.365 128.699 92.9535 126.503C92.8798 126.108 92.2783 126.275 92.3519 126.669Z" fill="#303030"/>
<path d="M99.0324 125.706C99.5987 127.834 99.8864 130.025 99.9026 132.228C99.9054 132.629 100.529 132.63 100.527 132.228C100.51 129.972 100.214 127.719 99.6343 125.54C99.531 125.152 98.9289 125.316 99.0324 125.706Z" fill="#303030"/>
<path d="M105.32 124.269C106.047 126.377 106.441 128.585 106.482 130.815C106.49 131.216 107.114 131.217 107.106 130.815C107.064 128.533 106.666 126.261 105.922 124.103C105.792 123.726 105.189 123.888 105.32 124.269Z" fill="#303030"/>
<path d="M106.975 113.182C106.603 113.643 106.182 114.064 105.737 114.453C105.407 114.741 105.149 114.944 104.828 115.177C104.439 115.459 104.036 115.723 103.624 115.969C101.263 117.382 98.6046 118.246 95.9214 118.8C93.6915 119.26 91.4217 119.498 89.1485 119.596C88.7485 119.613 88.7463 120.237 89.1485 120.22C92.8619 120.06 96.6165 119.542 100.128 118.281C102.212 117.532 104.229 116.519 105.939 115.098C106.474 114.653 106.979 114.166 107.416 113.624C107.522 113.493 107.545 113.31 107.416 113.182C107.307 113.073 107.081 113.05 106.975 113.182Z" fill="#303030"/>
<path d="M49.8305 113.885C51.0089 115.601 52.9299 116.703 54.7966 117.521C57.1347 118.546 59.6239 119.211 62.1298 119.673C63.5566 119.936 64.9968 120.13 66.4423 120.254C66.8423 120.288 66.8401 119.664 66.4423 119.63C63.9394 119.415 61.4481 118.99 59.0236 118.33C56.7978 117.725 54.5604 116.929 52.621 115.657C51.7658 115.096 50.9524 114.419 50.3693 113.57C50.1431 113.242 49.6021 113.553 49.8305 113.885Z" fill="#303030"/>
<path d="M86.0197 61.4423C85.5676 64.6849 84.6834 67.8246 83.5293 70.8838C82.3936 73.8933 81.0817 76.833 79.9788 79.8556C79.2403 81.879 78.5882 83.9325 78.0353 86.0145C77.932 86.403 78.5339 86.5689 78.6372 86.1805C79.57 82.6658 80.8177 79.2613 82.188 75.8964C83.3599 73.0185 84.5748 70.1521 85.4391 67.1622C85.9654 65.3414 86.3598 63.4853 86.6215 61.608C86.6446 61.4414 86.581 61.2729 86.4038 61.2242C86.2578 61.1843 86.0431 61.2745 86.0197 61.4423Z" fill="#303030"/>
<path d="M66.4689 66.4235C68.5768 69.4998 70.9133 72.4202 73.4577 75.1467C74.1703 75.9102 74.8991 76.6584 75.6433 77.3913C75.9297 77.6733 76.3712 77.2324 76.0844 76.9501C73.4658 74.3702 71.0356 71.598 68.832 68.6556C68.2058 67.8197 67.598 66.9701 67.0077 66.1087C66.7822 65.7796 66.2411 66.0912 66.4689 66.4235Z" fill="#303030"/>
<path d="M75.5635 88.8962L78.6467 86.3615C81.9704 83.6306 85.7774 79.5665 86.1409 75.0805C86.4548 71.2071 83.4586 67.7439 79.6214 68.0303C76.59 68.2565 74.2731 70.6748 74.0197 73.6029C74.0066 73.6241 73.9926 73.6453 73.9776 73.6675C73.9582 73.6488 73.9402 73.6307 73.923 73.6129C73.0734 70.8005 70.3094 68.912 67.2964 69.3135C63.4816 69.8221 61.2614 73.8275 62.3656 77.5541C63.6448 81.87 68.2084 85.0633 72.0242 87.051L75.5635 88.8962Z" fill="#D1E1F2" stroke="#303030" stroke-width="2" stroke-miterlimit="10" stroke-linecap="round" stroke-linejoin="round"/>
<path d="M55.1865 62.3672C46.9267 64.7219 42.9714 66.221 41.4841 73.4217C39.912 81.0326 43.8338 93.4833 44.0491 95.1097C42.8975 98.1349 43.8912 101.898 46.9263 103.755C46.5897 106.662 48.6508 109.271 49.6317 110.253C53.907 114.528 60.7096 117.265 68.4285 109.132L64.1587 92.7716L61.9644 85.858L55.1865 62.3672Z" fill="#1A6980"/>
<path d="M56.4937 69.4492C58.888 72.0139 59.9338 75.5111 60.2096 78.9437C60.2951 80.0079 60.3138 81.0765 60.292 82.1439C60.2838 82.5454 60.9078 82.5454 60.916 82.1439C60.9908 78.4408 60.5409 74.6082 58.6608 71.3474C58.1757 70.5063 57.5975 69.7179 56.9345 69.0081C56.6603 68.7138 56.2197 69.156 56.4937 69.4492Z" fill="#303030"/>
<path d="M45.1108 92.0188C44.9399 92.542 44.7367 93.0543 44.5146 93.5576C44.3096 94.0225 44.0656 94.4708 43.8722 94.9404C43.4563 95.9503 43.29 97.0788 43.2891 98.1661C43.2888 98.5677 43.9128 98.5683 43.9131 98.1661C43.914 97.1287 44.0697 96.043 44.4837 95.0845C44.6831 94.6227 44.9224 94.1781 45.1221 93.7158C45.3392 93.2134 45.5423 92.7049 45.7127 92.1848C45.8375 91.8023 45.2353 91.6385 45.1108 92.0188Z" fill="#303030"/>
<path d="M60.8867 110.759C61.1619 112.278 59.8556 113.471 58.5733 113.978C58.4166 114.04 58.3071 114.187 58.3552 114.362C58.396 114.511 58.5814 114.642 58.7389 114.58C59.5579 114.256 60.3167 113.782 60.8571 113.075C61.3972 112.368 61.6477 111.473 61.4883 110.593C61.4583 110.427 61.2565 110.334 61.1045 110.375C60.9301 110.424 60.8565 110.593 60.8867 110.759Z" fill="#303030"/>
<path d="M57.3643 109.248C55.8779 110.889 53.6727 111.775 51.4641 111.623C51.0631 111.596 51.065 112.22 51.4641 112.247C53.8234 112.409 56.2183 111.441 57.8055 109.689C58.0744 109.392 57.6345 108.949 57.3643 109.248Z" fill="#303030"/>
<path d="M48.152 108.388C50.4982 108.264 52.8186 107.786 55.0182 106.959C55.1757 106.9 55.2837 106.748 55.2363 106.576C55.1948 106.424 55.011 106.298 54.8525 106.358C52.7044 107.165 50.4439 107.643 48.1523 107.764C47.7526 107.785 47.7501 108.409 48.152 108.388Z" fill="#303030"/>
<path d="M47.3406 102.738C49.2407 102.392 51.2443 102.642 53.0003 103.447C53.1535 103.517 53.3363 103.49 53.4271 103.335C53.5057 103.201 53.4692 102.978 53.3151 102.908C51.3944 102.028 49.2531 101.758 47.1746 102.136C46.7799 102.208 46.9472 102.809 47.3406 102.738Z" fill="#303030"/>
<path d="M49.1888 97.6942C51.0218 98.297 52.7244 99.2711 54.1715 100.548C54.4716 100.813 54.9147 100.373 54.6127 100.107C53.0826 98.7563 51.2939 97.7301 49.3548 97.0924C48.9723 96.9666 48.8082 97.5691 49.1888 97.6942Z" fill="#303030"/>
<path d="M54.0744 93.8779C55.6706 94.8308 56.9507 96.2419 57.7566 97.9161C57.9307 98.2777 58.4689 97.9617 58.2954 97.6013C57.4455 95.8357 56.0712 94.3431 54.3892 93.3394C54.0435 93.1325 53.7293 93.672 54.0744 93.8779Z" fill="#303030"/>
<path d="M49.4907 96.3441C48.4458 97.4505 47.7341 98.8267 47.2671 100.267C47.0374 100.974 46.8674 101.701 46.7516 102.435C46.6889 102.833 46.6197 103.241 46.6119 103.644C46.5729 105.659 47.2961 107.759 48.4779 109.374C49.1902 110.347 50.0925 111.185 51.0407 111.926C51.8775 112.58 52.7723 113.159 53.7348 113.611C55.7656 114.564 58.0092 114.913 60.2241 114.507C63.0895 113.981 65.6083 112.286 67.6896 110.313C68.0182 110.002 68.3377 109.681 68.6497 109.353C68.9264 109.062 68.4859 108.62 68.2085 108.911C66.2014 111.02 63.7928 112.924 60.9401 113.704C58.8685 114.269 56.7029 114.131 54.7051 113.353C52.83 112.623 51.1477 111.379 49.7584 109.935C48.8096 108.95 48.1032 107.747 47.6864 106.444C47.4196 105.61 47.2658 104.797 47.2383 103.943C47.2128 103.14 47.3769 102.325 47.5588 101.548C47.8879 100.139 48.4277 98.764 49.2729 97.5818C49.4735 97.301 49.6947 97.0365 49.9318 96.7856C50.2077 96.4936 49.7671 96.0515 49.4907 96.3441Z" fill="#303030"/>
<path d="M52.7416 94.7494C53.881 93.9947 55.1695 93.4858 56.5043 93.2016C57.8287 92.9195 59.2312 92.859 60.5593 93.1498C61.281 93.3076 61.9702 93.5688 62.5995 93.9578C62.9421 94.1697 63.2556 93.6299 62.9143 93.419C60.4508 91.8965 57.171 92.1252 54.5599 93.1267C53.813 93.4131 53.0935 93.7688 52.4264 94.2109C52.0935 94.4315 52.4055 94.9722 52.7416 94.7494Z" fill="#303030"/>
<path d="M98.8976 52.9617C109.381 50.788 115.029 59.2804 112.419 70.1158C109.526 82.13 108.348 87.0559 108.348 87.0559C109.518 90.2454 108.059 95.107 105.735 96.4262C106.063 99.9468 104.225 102.427 102.087 104.867C98.1725 109.333 89.1489 110.232 84.0283 104.499V87.7036C84.0283 87.7036 85.1097 84.3505 87.406 84.3234C86.0644 79.7956 89.0952 77.679 90.4059 71.2393C92.0907 62.9595 94.7995 56.1978 98.8976 52.9617Z" fill="#1A6980"/>
<path d="M89.7593 84.0816C88.9078 84.4058 88.1338 84.9056 87.5675 85.6282C86.999 86.3536 86.6617 87.2166 86.4908 88.1174C86.4162 88.5099 87.0174 88.678 87.0926 88.2834C87.2449 87.4821 87.5229 86.6953 88.028 86.0451C88.515 85.4179 89.1874 84.9643 89.9253 84.6835C90.0828 84.6236 90.1908 84.4732 90.1433 84.2997C90.1015 84.149 89.9175 84.0214 89.7593 84.0816Z" fill="#303030"/>
<path d="M88.7419 105.125C88.6476 105.983 89.0277 106.834 89.6102 107.449C90.2067 108.079 91.0095 108.467 91.8207 108.741C92.2019 108.87 92.3654 108.268 91.9867 108.139C91.2915 107.904 90.6089 107.576 90.0891 107.046C89.588 106.536 89.2869 105.845 89.3659 105.125C89.3843 104.957 89.2092 104.812 89.0539 104.812C88.8701 104.812 88.7603 104.956 88.7419 105.125Z" fill="#303030"/>
<path d="M93.8853 104.977C95.0407 106.545 96.9929 107.457 98.9419 107.27C99.1098 107.254 99.2539 107.138 99.2539 106.958C99.2539 106.802 99.1107 106.63 98.9419 106.646C97.2247 106.81 95.4538 106.059 94.4242 104.662C94.3243 104.526 94.1537 104.458 93.9973 104.55C93.8635 104.628 93.7849 104.84 93.8853 104.977Z" fill="#303030"/>
<path d="M103.582 102.219C101.511 102.473 99.4016 102.02 97.6253 100.924C97.2828 100.713 96.9689 101.252 97.3105 101.463C99.1704 102.611 101.412 103.11 103.582 102.843C103.75 102.822 103.894 102.714 103.894 102.531C103.894 102.378 103.751 102.198 103.582 102.219Z" fill="#303030"/>
<path d="M105.318 95.2248C103.304 96.6821 100.917 97.5957 98.4399 97.8237C98.2721 97.839 98.1279 97.956 98.1279 98.1357C98.1279 98.2927 98.2711 98.4633 98.4399 98.4477C101.026 98.2097 103.527 97.2877 105.633 95.7636C105.769 95.665 105.836 95.4921 105.745 95.3368C105.666 95.2023 105.455 95.1255 105.318 95.2248Z" fill="#303030"/>
<path d="M101.824 89.9408C101.562 90.3183 101.204 90.6182 100.847 90.9018C100.444 91.2222 100.029 91.5286 99.6104 91.829C99.1982 92.1251 98.7814 92.415 98.3639 92.7042C97.9777 92.9716 97.5936 93.2733 97.1296 93.3878C96.74 93.4842 96.905 94.086 97.2956 93.9893C97.7914 93.8667 98.2045 93.5709 98.6179 93.2851C99.0759 92.9682 99.5336 92.6502 99.9857 92.3245C100.427 92.0066 100.863 91.6811 101.289 91.3429C101.692 91.0225 102.067 90.6812 102.363 90.2556C102.592 89.9252 102.051 89.6129 101.824 89.9408Z" fill="#303030"/>
<path d="M95.3431 85.14C94.0729 86.2954 93.1419 87.7964 92.6614 89.4441C92.5488 89.8303 93.1507 89.9954 93.263 89.6101C93.7147 88.0607 94.5905 86.667 95.7839 85.5812C96.0819 85.3104 95.6398 84.8702 95.3431 85.14Z" fill="#303030"/>
<path d="M93.3169 59.7612C92.4386 61.2685 91.9011 62.9461 91.449 64.6225C90.9751 66.3794 90.5701 68.155 90.1576 69.9271C89.8347 71.3137 89.5324 72.708 89.1598 74.082C88.9673 74.7928 88.6943 75.4658 88.3692 76.1256C87.9795 76.9169 87.5814 77.7047 87.3259 78.5521C86.7652 80.4116 86.7166 82.5085 87.105 84.4064C87.2055 84.2748 87.3056 84.1431 87.4058 84.0114C86.5771 84.0158 85.7859 84.3771 85.1641 84.91C84.3638 85.5961 83.8883 86.5898 83.727 87.6207C83.7011 87.787 83.7694 87.9564 83.9448 88.0044C84.093 88.045 84.3023 87.9539 84.3285 87.7866C84.4727 86.865 84.862 86.0042 85.5706 85.3811C86.0795 84.934 86.7546 84.6389 87.4055 84.6354C87.6189 84.6342 87.7468 84.4376 87.7062 84.2405C87.3658 82.5781 87.4055 80.7698 87.8157 79.1237C88.2235 77.4872 89.23 76.0969 89.6959 74.4814C90.0543 73.2384 90.3227 71.9664 90.6156 70.7071C91.0197 68.9705 91.4181 67.2321 91.8618 65.5052C92.341 63.6385 92.8786 61.7527 93.8551 60.0767C94.0582 59.7285 93.5191 59.414 93.3169 59.7612Z" fill="#303030"/>
<path d="M99.7697 87.1425C98.7738 86.2018 97.5888 85.556 96.2925 85.1276C94.5138 84.5398 92.6215 84.2565 90.7591 84.1074C89.6441 84.0181 88.5243 83.986 87.4058 84.0113C87.0048 84.0203 87.0033 84.6443 87.4058 84.6353C89.3292 84.5916 91.2693 84.7027 93.1672 85.0253C94.7047 85.2867 96.29 85.6374 97.674 86.3834C98.2786 86.7091 98.8296 87.1122 99.3285 87.5837C99.6202 87.8595 100.062 87.4189 99.7697 87.1425Z" fill="#303030"/>
<path d="M104.436 93.8623C105.473 96.0503 105.588 98.7778 104.417 100.939C103.785 102.107 103.076 103.216 102.154 104.174C101.449 104.904 100.657 105.542 99.8066 106.095C98.7876 106.758 97.6813 107.369 96.5197 107.741C94.4652 108.398 92.2244 108.332 90.1521 107.789C88.1491 107.265 86.2006 106.285 84.732 104.806C84.5639 104.637 84.4032 104.461 84.2491 104.278C83.9895 103.971 83.5499 104.415 83.8079 104.72C85.2029 106.369 87.1709 107.499 89.2074 108.162C91.3617 108.864 93.7304 109.066 95.9478 108.546C97.1631 108.261 98.2984 107.715 99.3745 107.092C100.368 106.518 101.309 105.843 102.146 105.057C103.229 104.043 104.056 102.848 104.782 101.563C105.365 100.533 105.729 99.4415 105.84 98.259C105.96 96.9742 105.781 95.6503 105.346 94.4363C105.238 94.134 105.113 93.8373 104.975 93.5468C104.803 93.1846 104.265 93.501 104.436 93.8623Z" fill="#303030"/>
<path d="M103.945 77.1702C104.042 80.4506 106.014 83.2077 107.355 86.0806C107.732 86.8905 108.06 87.723 108.29 88.5875C108.393 88.9753 108.995 88.8109 108.892 88.4215C108.07 85.3296 106.016 82.7653 105.037 79.7379C104.768 78.9049 104.594 78.0466 104.568 77.1702C104.557 76.7696 103.933 76.768 103.945 77.1702Z" fill="#303030"/>
<path d="M98.5402 100.524C98.5402 100.524 97.1877 108.234 85.7782 105.013C78.9987 103.1 73.7097 99.7248 67.6276 96.8141C64.8676 95.4934 62.2303 95.2157 59.8563 94.4123C57.8417 93.7353 56.9091 92.9949 55.4914 91.8617C53.3894 90.1813 47.9051 88.2216 45.8147 87.622C44.0881 87.125 44.2828 84.9469 46.0013 84.804C49.15 84.5422 53.3872 86.9774 53.4634 87.0182C53.4169 86.9518 50.8847 84.8268 48.253 83.3067C45.5373 81.7376 44.2924 81.2544 44.5642 79.5926C42.2582 78.456 42.2582 76.0917 44.5898 75.6059C43.84 73.6519 45.0082 72.6928 47.3185 72.5268C52.3149 72.1736 59.5783 77.1353 59.7514 77.2573C57.6978 74.9732 57.7712 72.7511 59.3118 72.5829C60.3723 72.4678 61.6281 73.9002 63.4783 76.1741C65.1911 78.2863 66.0051 81.9008 68.0537 83.5279C69.586 84.745 76.1526 86.4485 79.2614 86.93C81.4751 87.2728 91.0151 88.8241 92.5732 89.4163C99.2151 91.9407 98.5402 100.524 98.5402 100.524Z" fill="#FFC4B0"/>
<path d="M66.2695 81.2461C66.7743 82.1496 67.3391 82.9596 68.0539 83.5274C69.5861 84.7446 76.1528 86.4481 79.2615 86.9295C81.4752 87.2724 90.9615 88.9915 92.5733 89.4158C95.4 90.1599 98.8189 94.1657 98.54 100.524" stroke="#303030" stroke-width="2" stroke-miterlimit="10" stroke-linecap="round" stroke-linejoin="round"/>
<path d="M44.6133 75.3762C47.1183 74.3326 52.4317 76.6083 57.5089 80.0665" stroke="#303030" stroke-width="2" stroke-miterlimit="10" stroke-linecap="round" stroke-linejoin="round"/>
<path d="M44.5254 79.4213C44.8146 79.0709 45.8745 78.4924 47.2114 78.8475C49.7427 79.5195 53.9727 82.3824 56.4207 84.3234" stroke="#303030" stroke-width="2" stroke-miterlimit="10" stroke-linecap="round" stroke-linejoin="round"/>
<path d="M61.1416 78.4551C59.887 77.2561 58.4574 76.2402 56.9121 75.4502" stroke="#303030" stroke-width="2" stroke-miterlimit="10" stroke-linecap="round" stroke-linejoin="round"/>
<path d="M97.0429 83.3138C96.7665 83.5993 96.5103 83.9047 96.2791 84.2339C97.349 83.7659 98.4566 83.384 99.5873 83.0926C100.544 82.8458 101.728 82.4671 102.722 82.5585C104.345 82.7076 104.839 84.6404 103.267 85.3599C101.289 86.2647 97.6057 87.1599 95.7986 89.1542C93.9887 91.1485 92.4821 91.4477 90.591 92.4174C88.3631 93.5655 86.4883 93.8288 84.3885 95.6169C82.2784 97.4168 79.2511 100.594 75.8378 103.521C72.1216 106.708 70.1541 108.524 66.7477 110.349C59.6581 114.146 55.9101 111.959 51.9795 103.147C55.9619 97.2733 61.069 94.4238 66.6085 91.5378C68.3183 90.663 72.0751 88.7588 73.0098 88.3192C75.859 86.9857 78.5269 85.753 80.8975 82.5725C82.8338 79.9736 83.7355 76.5456 85.1145 74.2016C86.6052 71.6772 87.6336 70.0738 88.6994 70.0295C90.2478 69.9662 90.6516 72.1526 88.9615 74.7173C90.5093 73.2372 92.2496 71.9296 94.1609 70.9555C95.1147 70.4691 96.1153 70.0672 97.1524 69.7977C97.9075 69.6014 98.6996 69.3846 99.4871 69.4641C100.091 69.5253 100.965 69.8741 100.995 70.5936C101.01 70.9636 100.814 71.3171 100.549 71.5758C100.284 71.8341 99.9695 72.0478 99.6269 72.1888C96.5768 73.4456 92.9632 75.6864 92.5682 77.4688C94.9753 75.3834 98.475 73.9273 101.658 73.8172C102.145 73.8003 102.646 73.8062 103.1 73.9819C103.555 74.1576 103.959 74.5357 104.038 75.0168C104.108 75.4452 103.994 76.1091 103.289 76.5918C103.661 76.7902 104.116 77.0626 104.224 77.4694C104.656 79.0831 102.946 79.7583 101.832 80.2728C100.108 81.069 98.3489 81.9663 97.0429 83.3138Z" fill="#FFC4B0"/>
<path d="M90.932 78.8287C91.7338 78.0528 92.5937 77.3935 93.5113 76.7626C93.6498 76.6672 93.7129 76.4887 93.6233 76.3358C93.5428 76.1985 93.336 76.128 93.1965 76.2238C92.2402 76.8812 91.3257 77.5798 90.4908 78.3875C90.2016 78.6671 90.6431 79.1083 90.932 78.8287Z" fill="#303030"/>
<path d="M77.541 85.8574C69.1887 90.7898 59.0266 93.6883 51.9785 103.147" stroke="#303030" stroke-width="2" stroke-miterlimit="10" stroke-linecap="round" stroke-linejoin="round"/>
<path d="M87.7646 76.1086C88.8267 74.7358 90.0887 73.5183 91.499 72.5068" stroke="#303030" stroke-width="2" stroke-miterlimit="10" stroke-linecap="round" stroke-linejoin="round"/>
<path d="M75.8369 103.521C79.2505 100.594 82.1006 97.1861 84.3876 95.6171C86.2031 94.3719 87.4377 93.7756 90.7246 92.3645C93.5863 91.1358 94.7114 90.3115 95.798 89.1543" stroke="#303030" stroke-width="2" stroke-miterlimit="10" stroke-linecap="round" stroke-linejoin="round"/>
<path d="M103.31 76.1191C100.362 76.604 97.5013 77.5677 94.9857 79.2036C94.1464 79.7492 93.3511 80.3617 92.6017 81.025C92.3003 81.2918 92.743 81.7317 93.0429 81.4662C95.3975 79.383 98.2102 77.949 101.253 77.179C101.987 76.993 102.729 76.8439 103.476 76.721C103.643 76.6935 103.736 76.4873 103.694 76.3372C103.646 76.1603 103.477 76.0917 103.31 76.1191Z" fill="#303030"/>
</svg>
