<svg width="227" height="198" viewBox="0 0 227 198" fill="none" xmlns="http://www.w3.org/2000/svg">
<g opacity="0.23">
<path d="M161.642 71.1105H158.821C158.446 69.0183 157.623 67.0817 156.454 65.4027L158.448 63.4112C159.458 62.4024 159.458 60.7669 158.448 59.7584C157.438 58.7495 155.8 58.7495 154.79 59.7584L152.796 61.7499C151.115 60.5821 149.176 59.7608 147.08 59.3857V56.5694C147.08 55.1427 145.922 53.9863 144.494 53.9863C143.065 53.9863 141.907 55.1427 141.907 56.5694V59.3857C139.812 59.7611 137.873 60.5821 136.191 61.7499L134.197 59.7584C133.187 58.7495 131.549 58.7495 130.539 59.7584C129.529 60.7672 129.529 62.4027 130.539 63.4112L132.534 65.4027C131.364 67.0817 130.542 69.0183 130.166 71.1105H127.346C125.918 71.1105 124.759 72.2669 124.759 73.6936C124.759 75.1202 125.917 76.2766 127.346 76.2766H130.166C130.542 78.3689 131.364 80.3054 132.534 81.9844L130.539 83.9759C129.529 84.9847 129.529 86.6202 130.539 87.6288C131.55 88.6376 133.187 88.6376 134.197 87.6288L136.191 85.6372C137.873 86.805 139.812 87.6263 141.907 88.0014V90.8178C141.907 92.2442 143.065 93.4008 144.494 93.4008C145.922 93.4008 147.08 92.2444 147.08 90.8178V88.0014C149.176 87.626 151.115 86.805 152.796 85.6372L154.79 87.6288C155.801 88.6376 157.438 88.6376 158.448 87.6288C159.458 86.6199 159.458 84.9845 158.448 83.9759L156.454 81.9844C157.623 80.3054 158.446 78.3689 158.821 76.2766H161.642C163.07 76.2766 164.228 75.1202 164.228 73.6936C164.228 72.2669 163.07 71.1105 161.642 71.1105ZM144.494 84.2166C138.674 84.2166 133.956 79.5051 133.956 73.6933C133.956 67.8815 138.674 63.17 144.494 63.17C150.314 63.17 155.032 67.8815 155.032 73.6933C155.031 79.5053 150.314 84.2166 144.494 84.2166Z" fill="#0E1117"/>
<path d="M144.493 93.8087C142.842 93.8087 141.498 92.4667 141.498 90.8173V88.3388C139.612 87.9572 137.847 87.2268 136.241 86.1644L134.486 87.9172C133.318 89.0828 131.418 89.0833 130.25 87.9172C129.082 86.751 129.082 84.8528 130.25 83.6867L132.005 81.9339C130.941 80.3308 130.21 78.568 129.828 76.6845H127.346C125.694 76.6845 124.351 75.3425 124.351 73.6931C124.351 72.0438 125.694 70.702 127.346 70.702H129.828C130.21 68.8186 130.941 67.0557 132.005 65.4527L130.25 63.6999C129.684 63.135 129.373 62.384 129.373 61.5848C129.373 60.7855 129.684 60.0345 130.25 59.4694C131.418 58.3035 133.319 58.3032 134.486 59.4694L136.241 61.2225C137.847 60.16 139.612 59.4296 141.498 59.048V56.5695C141.498 54.9199 142.842 53.5781 144.493 53.5781C146.145 53.5781 147.489 54.9201 147.489 56.5695V59.048C149.375 59.4296 151.14 60.16 152.745 61.2225L154.501 59.4694C155.668 58.3035 157.569 58.3032 158.737 59.4694C159.302 60.0342 159.614 60.7855 159.614 61.5848C159.614 62.384 159.302 63.1348 158.737 63.6999L156.982 65.4527C158.046 67.056 158.777 68.8189 159.159 70.702H161.641C163.293 70.702 164.636 72.0441 164.636 73.6931C164.636 75.3425 163.292 76.6845 161.641 76.6845H159.159C158.777 78.568 158.046 80.3308 156.982 81.9339L158.737 83.6867C159.905 84.8528 159.905 86.751 158.737 87.9172C157.569 89.0833 155.669 89.0836 154.501 87.9172L152.745 86.1644C151.14 87.2268 149.375 87.9572 147.489 88.3388V90.8173C147.489 92.4667 146.145 93.8087 144.493 93.8087ZM136.144 85.1063L136.424 85.3015C138.102 86.4663 139.971 87.2393 141.979 87.5989L142.315 87.6594V90.8173C142.315 92.0164 143.292 92.9921 144.493 92.9921C145.694 92.9921 146.671 92.0164 146.671 90.8173V87.6594L147.007 87.5989C149.016 87.2393 150.885 86.4663 152.562 85.3015L152.842 85.1063L155.078 87.3395C155.927 88.1872 157.309 88.1872 158.158 87.3395C158.569 86.9288 158.796 86.3824 158.796 85.8018C158.796 85.2211 158.569 84.6745 158.158 84.264L155.922 82.0313L156.118 81.751C157.284 80.0763 158.058 78.21 158.418 76.2043L158.478 75.8681H161.641C162.842 75.8681 163.818 74.8925 163.818 73.6934C163.818 72.4946 162.842 71.519 161.641 71.519H158.478L158.418 71.1828C158.058 69.1771 157.284 67.3108 156.118 65.6361L155.922 65.3558L158.158 63.1228C158.569 62.712 158.796 62.1659 158.796 61.5853C158.796 61.0047 158.569 60.4581 158.158 60.0476C157.309 59.2002 155.928 59.2002 155.078 60.0476L152.842 62.2808L152.562 62.0856C150.885 60.9208 149.016 60.1477 147.007 59.7882L146.671 59.7277V56.5698C146.671 55.3707 145.694 54.395 144.493 54.395C143.292 54.395 142.315 55.3707 142.315 56.5698V59.7277L141.979 59.7882C139.971 60.1477 138.102 60.9208 136.424 62.0856L136.144 62.2808L133.908 60.0476C133.059 59.2002 131.677 59.1996 130.828 60.0476C130.417 60.4583 130.19 61.0047 130.19 61.5853C130.19 62.1659 130.417 62.7123 130.828 63.1228L133.064 65.3558L132.869 65.6361C131.702 67.3108 130.928 69.1771 130.568 71.1828L130.508 71.519H127.345C126.145 71.519 125.168 72.4946 125.168 73.6934C125.168 74.8925 126.145 75.8681 127.345 75.8681H130.508L130.568 76.2043C130.928 78.2103 131.703 80.0766 132.869 81.751L133.064 82.0313L130.828 84.264C130.417 84.6748 130.19 85.2211 130.19 85.8018C130.19 86.3824 130.417 86.929 130.828 87.3395C131.677 88.1872 133.059 88.1872 133.908 87.3395L136.144 85.1063ZM144.493 84.6245C138.457 84.6245 133.547 79.7205 133.547 73.6929C133.547 67.6652 138.457 62.7616 144.493 62.7616C150.53 62.7616 155.44 67.6655 155.44 73.6929C155.44 79.7208 150.529 84.6245 144.493 84.6245ZM144.493 63.5782C138.908 63.5782 134.364 68.1157 134.364 73.6929C134.364 79.2703 138.908 83.8078 144.493 83.8078C150.079 83.8078 154.622 79.2703 154.622 73.6929C154.622 68.1157 150.079 63.5782 144.493 63.5782Z" fill="#0E1117"/>
</g>
<g opacity="0.23">
<path d="M204.777 90.668C217.05 78.4112 217.05 58.539 204.777 46.2822C192.503 34.0254 172.603 34.0254 160.33 46.2822C148.056 58.539 148.056 78.4112 160.33 90.668C172.603 102.925 192.503 102.925 204.777 90.668Z" fill="#0E1117"/>
<path d="M182.556 100.272C168.275 100.272 155.252 90.5912 151.656 76.141C147.423 59.1273 157.84 41.8461 174.877 37.6183C191.913 33.3905 209.219 43.7932 213.453 60.8071C217.686 77.8208 207.269 95.1021 190.232 99.3299C187.665 99.9671 185.09 100.272 182.556 100.272ZM182.553 37.4933C180.082 37.4933 177.577 37.7901 175.074 38.411C158.474 42.5301 148.325 59.3674 152.45 75.9444C155.953 90.0223 168.643 99.4543 182.556 99.4553C185.026 99.4553 187.532 99.1584 190.035 98.5374C206.635 94.4186 216.784 77.5813 212.659 61.0042C209.156 46.9264 196.466 37.4933 182.553 37.4933Z" fill="#0E1117"/>
</g>
<path d="M192.93 45.5413C192.711 45.5413 192.491 45.523 192.273 45.4857C191.184 45.3006 190.217 44.6623 189.62 43.734L189.1 42.9236C188.01 41.2275 188.413 38.9422 190.019 37.7211L202.762 28.0313C203.479 27.4861 204.366 27.2583 205.258 27.3914C206.15 27.5245 206.931 28.0006 207.458 28.732L207.7 29.0685C208.666 30.4094 208.398 32.2518 207.09 33.2628L198.054 40.2437C197.779 40.4563 197.381 40.4059 197.168 40.1307C197.064 39.9976 197.019 39.8318 197.041 39.6647C197.062 39.4976 197.147 39.3487 197.281 39.2452L206.316 32.2643C207.083 31.6717 207.241 30.5915 206.674 29.8051L206.431 29.4686C206.106 29.0162 205.622 28.7219 205.071 28.6395C204.52 28.5573 203.972 28.6977 203.528 29.0353L190.785 38.725C189.7 39.5504 189.427 41.0952 190.164 42.2418L190.684 43.0521C191.095 43.6913 191.734 44.1135 192.485 44.2412C193.235 44.368 193.979 44.181 194.578 43.7136L209.391 32.1614C210.76 31.094 211.02 29.1014 209.972 27.7197L209.113 26.5872C207.958 25.0639 205.763 24.7435 204.22 25.8732L194.112 33.2712C193.829 33.4764 193.434 33.4152 193.228 33.1348C193.128 32.999 193.088 32.8324 193.113 32.6658C193.139 32.4992 193.228 32.3525 193.365 32.2528L203.472 24.8549C204.001 24.4681 204.593 24.1986 205.232 24.0546C207.073 23.6394 208.991 24.3349 210.121 25.8248L210.979 26.9572C212.442 28.8858 212.079 31.6665 210.17 33.1558L195.356 44.708C194.66 45.2514 193.802 45.5413 192.93 45.5413ZM204.761 27.6271C204.101 27.6271 203.462 27.8411 202.927 28.2483L190.184 37.938C188.691 39.0737 188.315 41.1992 189.329 42.7769L189.85 43.5873C190.405 44.451 191.305 45.0453 192.318 45.2176C193.331 45.3891 194.377 45.1261 195.188 44.4943L210.001 32.9421C211.794 31.5437 212.135 28.9329 210.762 27.1224L209.903 25.99C208.838 24.5854 207.028 23.9302 205.292 24.3211C204.689 24.4569 204.131 24.7106 203.633 25.0754L193.525 32.4733C193.448 32.53 193.397 32.6133 193.382 32.708C193.368 32.8027 193.391 32.8974 193.448 32.9748C193.564 33.1337 193.79 33.1688 193.951 33.0518L204.058 25.6541C205.721 24.4373 208.086 24.7816 209.33 26.4234L210.189 27.5558C211.327 29.0554 211.044 31.2182 209.559 32.3764L194.745 43.9287C194.085 44.4437 193.267 44.6503 192.439 44.5101C191.612 44.3694 190.907 43.9042 190.455 43.1997L189.934 42.3893C189.121 41.1243 189.422 39.42 190.62 38.5091L203.363 28.8194C203.866 28.4369 204.487 28.2777 205.112 28.3711C205.737 28.4644 206.284 28.7982 206.653 29.3105L206.895 29.6469C207.548 30.5531 207.367 31.7974 206.482 32.4804L197.447 39.4614C197.372 39.5199 197.323 39.6048 197.311 39.6998C197.299 39.7948 197.324 39.889 197.383 39.9647C197.505 40.1212 197.731 40.1501 197.888 40.0289L206.923 33.048C208.114 32.1274 208.359 30.4491 207.479 29.2277L207.237 28.8913C206.754 28.2203 206.037 27.7834 205.218 27.6611C205.065 27.6383 204.912 27.6271 204.761 27.6271Z" fill="#B69CDC"/>
<path d="M203.633 88.0988C215.907 75.842 215.907 55.9699 203.633 43.7132C191.359 31.4565 171.46 31.4566 159.186 43.7134C146.912 55.9702 146.912 75.8423 159.186 88.0989C171.459 100.356 191.359 100.356 203.633 88.0988Z" fill="#0E1117"/>
<path d="M199.546 84.0174C209.563 74.0146 209.563 57.7969 199.546 47.7941C189.53 37.7913 173.29 37.7913 163.273 47.7941C153.256 57.7969 153.256 74.0146 163.273 84.0174C173.29 94.0202 189.53 94.0202 199.546 84.0174Z" fill="white"/>
<path opacity="0.54" d="M181.369 89.1386C177.173 89.1386 173.043 88.0021 169.355 85.7852C164.005 82.5692 160.229 77.4652 158.724 71.4136C157.218 65.3623 158.162 59.0869 161.383 53.7445C164.603 48.402 169.714 44.6315 175.774 43.1278C181.833 41.6244 188.118 42.5671 193.468 45.783C198.818 48.9989 202.593 54.103 204.099 60.1546C207.207 72.647 199.559 85.336 187.048 88.4404C185.166 88.9078 183.261 89.1386 181.369 89.1386ZM181.453 42.7021C179.583 42.7021 177.701 42.9302 175.839 43.3921C169.85 44.8782 164.799 48.6048 161.616 53.8846C158.433 59.1648 157.5 65.3669 158.988 71.348C160.476 77.3291 164.208 82.3735 169.495 85.5519C174.783 88.7305 180.993 89.6626 186.983 88.1763C199.347 85.1082 206.906 72.567 203.834 60.2202C202.346 54.2391 198.614 49.1949 193.327 46.0163C189.682 43.8255 185.6 42.7021 181.453 42.7021Z" fill="#1A6980"/>
<path d="M197.619 61.2842C197.541 60.9704 197.732 60.6527 198.047 60.5748L200.75 59.9041C201.064 59.8262 201.382 60.0173 201.46 60.3312C201.538 60.6451 201.347 60.9627 201.032 61.0406L198.329 61.7113C198.015 61.7892 197.697 61.5981 197.619 61.2842Z" fill="#1A6980"/>
<path d="M161.145 70.4092C161.067 70.0954 161.259 69.7777 161.573 69.6998L164.276 69.0291C164.59 68.9512 164.908 69.1423 164.986 69.4562C165.064 69.7701 164.873 70.0877 164.559 70.1656L161.856 70.8363C161.541 70.9145 161.223 70.7231 161.145 70.4092Z" fill="#1A6980"/>
<path d="M185.395 81.6643C185.709 81.5865 186.027 81.7776 186.105 82.0915L186.777 84.7907C186.855 85.1046 186.663 85.4223 186.349 85.5001C186.035 85.578 185.717 85.3869 185.639 85.073L184.967 82.3737C184.889 82.0599 185.08 81.7422 185.395 81.6643Z" fill="#1A6980"/>
<path d="M176.257 45.241C176.571 45.1632 176.889 45.3542 176.967 45.6681L177.639 48.3674C177.717 48.6813 177.525 48.9989 177.211 49.0768C176.897 49.1546 176.579 48.9635 176.501 48.6497L175.829 45.9504C175.751 45.6365 175.942 45.3189 176.257 45.241Z" fill="#1A6980"/>
<path d="M196.375 74.3877C196.542 74.1106 196.903 74.0213 197.18 74.1879L198.395 74.9185C198.673 75.0854 198.762 75.4452 198.595 75.7221C198.428 75.9992 198.068 76.0885 197.791 75.9219L196.575 75.1912C196.298 75.0247 196.208 74.6648 196.375 74.3877Z" fill="#1A6980"/>
<path d="M163.989 55.0058C164.156 54.7287 164.517 54.6394 164.794 54.806L166.297 55.7095C166.575 55.8764 166.664 56.2362 166.497 56.5131C166.33 56.7902 165.97 56.8795 165.693 56.7129L164.189 55.8094C163.912 55.6428 163.822 55.2829 163.989 55.0058Z" fill="#1A6980"/>
<path d="M172.256 80.4253C172.533 80.5922 172.622 80.952 172.456 81.2289L171.724 82.4427C171.557 82.7198 171.197 82.8091 170.919 82.6425C170.642 82.4756 170.552 82.1157 170.719 81.8389L171.451 80.6251C171.618 80.348 171.978 80.2584 172.256 80.4253Z" fill="#1A6980"/>
<path d="M191.664 48.0853C191.942 48.2522 192.031 48.6118 191.865 48.8889L190.96 50.3899C190.793 50.667 190.433 50.7563 190.155 50.5897C189.878 50.4228 189.788 50.0632 189.955 49.7861L190.86 48.2851C191.027 48.008 191.387 47.9187 191.664 48.0853Z" fill="#1A6980"/>
<path d="M180.304 66.1626L180.228 66.042C180.037 65.7409 180.128 65.3429 180.429 65.1529L191.068 58.4496C191.37 58.2596 191.768 58.3497 191.959 58.6508L192.035 58.7714C192.225 59.0725 192.135 59.4704 191.833 59.6605L181.194 66.3637C180.892 66.5537 180.494 66.4636 180.304 66.1626Z" fill="#1A6980"/>
<path d="M180.144 65.3506L180.226 65.2344C180.432 64.9436 180.835 64.8748 181.126 65.0803L188.192 70.0705C188.483 70.276 188.552 70.6781 188.346 70.9688L188.264 71.0851C188.058 71.3758 187.656 71.4447 187.365 71.2391L180.298 66.2489C180.007 66.0434 179.938 65.6413 180.144 65.3506Z" fill="#1A6980"/>
<g opacity="0.23">
<path d="M188.397 17.9723L168.658 17.876L188.474 17.891L188.482 5.28525C188.483 4.68828 188.01 4.20401 187.426 4.20347L180.469 4.19829L180.47 2.47354C180.471 1.79573 179.934 1.24585 179.271 1.24531H179.245C178.582 1.24477 178.044 1.79382 178.044 2.47191L178.043 4.19666L167.516 4.18849L167.517 2.46374C167.518 1.78593 166.981 1.23605 166.318 1.23551H166.292C165.629 1.23497 165.091 1.78402 165.091 2.46211L165.09 4.18686L126.834 4.15801L126.836 2.44387C126.836 1.76606 126.299 1.21618 125.636 1.21564H125.61C124.947 1.21509 124.41 1.76442 124.409 2.44224L124.408 4.1561L113.48 4.14793L113.481 2.4338C113.482 1.75598 112.945 1.20611 112.282 1.20557H112.256C111.593 1.20502 111.056 1.75408 111.055 2.43216L111.054 4.14603L104.28 4.14085C103.697 4.14031 103.223 4.62404 103.223 5.221L103.214 17.5567L103.141 17.5564L103.299 61.9954C103.314 66.0677 107.256 69.3879 112.104 69.4116L179.802 69.7421C184.651 69.7658 188.569 66.4837 188.555 62.4116L188.397 17.9723Z" fill="#0E1117"/>
<path d="M179.854 70.15C179.836 70.15 179.818 70.15 179.8 70.15L112.102 69.8196C107.038 69.7948 102.906 66.2854 102.89 61.9961L102.73 17.1453L102.805 17.1455L102.813 5.22009C102.814 4.82429 102.965 4.45163 103.24 4.17097C103.517 3.88787 103.886 3.73216 104.279 3.73216C104.279 3.73216 104.28 3.73216 104.28 3.73216L110.645 3.73706L110.646 2.43152C110.646 1.99625 110.813 1.58711 111.115 1.27869C111.419 0.968098 111.824 0.796875 112.255 0.796875C112.255 0.796875 112.256 0.796875 112.256 0.796875C112.714 0.797147 113.119 0.968643 113.423 1.28006C113.724 1.58875 113.89 1.99843 113.89 2.43343L113.889 3.73924L123.999 3.74686L124 2.44132C124 2.00605 124.167 1.59664 124.469 1.28849C124.773 0.977898 125.178 0.806947 125.609 0.806947C125.61 0.806947 125.61 0.806947 125.61 0.806947C126.524 0.807491 127.245 1.54193 127.244 2.44377L127.243 3.74931L164.681 3.77762L164.682 2.46119C164.682 2.02592 164.848 1.61651 165.151 1.30837C165.455 0.997769 165.86 0.826819 166.291 0.826819C166.291 0.826819 166.292 0.826819 166.292 0.826819C167.205 0.827363 167.927 1.5618 167.926 2.46364L167.925 3.78007L177.634 3.78742L177.635 2.47127C177.635 2.036 177.801 1.62658 178.104 1.31844C178.408 1.00784 178.813 0.836618 179.244 0.836618C179.244 0.836618 179.245 0.836618 179.245 0.836618C180.158 0.837163 180.88 1.5716 180.879 2.47344L180.878 3.78987L187.426 3.79504C187.819 3.79532 188.189 3.95184 188.466 4.23549C188.741 4.51668 188.891 4.88935 188.891 5.28542L188.883 18.2994H188.807L188.964 62.4099C188.971 64.2533 188.204 66.0374 186.804 67.4333C185.07 69.1619 182.54 70.15 179.854 70.15ZM103.552 17.9665L103.708 61.9934C103.722 65.8357 107.489 68.9803 112.107 69.0029L179.805 69.3334C179.821 69.3334 179.838 69.3334 179.854 69.3334C182.325 69.3334 184.645 68.4321 186.226 66.8554C187.47 65.6144 188.152 64.0366 188.146 62.4126L187.989 18.3784L168.656 18.2839L168.66 17.4673L188.065 17.482L188.074 5.2846C188.074 5.10304 188.005 4.9329 187.881 4.8055C187.759 4.68056 187.597 4.61196 187.426 4.61169L180.06 4.60597L180.061 2.4729C180.062 2.02129 179.707 1.65353 179.271 1.65326H179.27C179.035 1.65326 178.838 1.7371 178.688 1.88927C178.537 2.04416 178.453 2.25104 178.453 2.47181L178.452 4.60461L167.107 4.59617L167.109 2.4631C167.109 2.0115 166.754 1.64373 166.318 1.64346H166.317C166.082 1.64346 165.885 1.7273 165.736 1.87947C165.584 2.03436 165.501 2.24124 165.5 2.46201L165.499 4.59508L126.426 4.56568L126.427 2.4435C126.427 1.9919 126.073 1.62413 125.637 1.62386H125.636C125.401 1.62386 125.203 1.7077 125.054 1.85987C124.902 2.01476 124.819 2.22192 124.819 2.44241L124.817 4.5646L113.072 4.55588L113.073 2.43343C113.073 2.21266 112.99 2.00578 112.838 1.85062C112.69 1.69791 112.492 1.61379 112.283 1.61379H112.282C112.047 1.61379 111.849 1.69763 111.7 1.8498C111.549 2.00469 111.465 2.21185 111.465 2.43234L111.463 4.55452L104.281 4.54908H104.28C104.109 4.54908 103.948 4.61768 103.826 4.74235C103.701 4.86975 103.632 5.03961 103.632 5.22118L103.623 17.9673L103.552 17.9665Z" fill="#0E1117"/>
</g>
<path d="M161.642 67.0221H158.821C158.446 64.9299 157.623 62.9934 156.454 61.3144L158.448 59.3228C159.458 58.314 159.458 56.6785 158.448 55.67C157.438 54.6612 155.8 54.6612 154.79 55.67L152.796 57.6615C151.115 56.4937 149.176 55.6724 147.08 55.2973V52.481C147.08 51.0543 145.922 49.8979 144.494 49.8979C143.065 49.8979 141.907 51.0543 141.907 52.481V55.2973C139.812 55.6727 137.873 56.4937 136.191 57.6615L134.197 55.67C133.187 54.6612 131.549 54.6612 130.539 55.67C129.529 56.6788 129.529 58.3143 130.539 59.3228L132.534 61.3144C131.364 62.9934 130.542 64.9299 130.166 67.0221H127.346C125.918 67.0221 124.759 68.1785 124.759 69.6052C124.759 71.0319 125.917 72.1882 127.346 72.1882H130.166C130.542 74.2805 131.364 76.217 132.534 77.896L130.539 79.8875C129.529 80.8964 129.529 82.5318 130.539 83.5404C131.55 84.5492 133.187 84.5492 134.197 83.5404L136.191 81.5489C137.873 82.7167 139.812 83.5379 141.907 83.913V86.7294C141.907 88.1558 143.065 89.3124 144.494 89.3124C145.922 89.3124 147.08 88.156 147.08 86.7294V83.913C149.176 83.5377 151.115 82.7167 152.796 81.5489L154.79 83.5404C155.801 84.5492 157.438 84.5492 158.448 83.5404C159.458 82.5316 159.458 80.8964 158.448 79.8875L156.454 77.896C157.623 76.217 158.446 74.2805 158.821 72.1882H161.642C163.07 72.1882 164.228 71.0319 164.228 69.6052C164.228 68.1788 163.07 67.0221 161.642 67.0221ZM144.494 80.1284C138.674 80.1284 133.956 75.417 133.956 69.6052C133.956 63.7934 138.674 59.0819 144.494 59.0819C150.314 59.0819 155.032 63.7934 155.032 69.6052C155.032 75.417 150.314 80.1284 144.494 80.1284Z" fill="#1A6980"/>
<path d="M144.493 77.427C139.391 77.427 135.24 73.2817 135.24 68.1864C135.24 63.0911 139.391 58.9458 144.493 58.9458C149.595 58.9458 153.746 63.0914 153.746 68.1864C153.746 73.2814 149.595 77.427 144.493 77.427ZM144.493 59.2177C139.541 59.2177 135.512 63.2408 135.512 68.1861C135.512 73.1314 139.541 77.1545 144.493 77.1545C149.445 77.1545 153.474 73.1314 153.474 68.1861C153.474 63.2411 149.445 59.2177 144.493 59.2177Z" fill="#1A6980"/>
<path d="M177.232 66.9533L111.591 66.6405C106.89 66.6182 103.068 63.4744 103.054 59.6187L102.9 17.5444L185.564 17.9383L185.718 60.0126C185.732 63.8682 181.933 66.9756 177.232 66.9533Z" fill="white"/>
<path opacity="0.54" d="M132.702 59.8262H156.548C156.922 59.8262 157.224 60.1283 157.224 60.5007V60.7871C157.224 61.1598 156.921 61.4616 156.548 61.4616H132.702C132.329 61.4616 132.026 61.1595 132.026 60.7871V60.5007C132.026 60.1283 132.329 59.8262 132.702 59.8262Z" fill="#1A6980"/>
<path d="M185.639 17.8624L102.97 17.8014L102.979 5.6966C102.979 5.2254 103.362 4.84348 103.834 4.84375L184.793 4.90337C185.265 4.90364 185.648 5.2861 185.647 5.7573L185.639 17.8624Z" fill="#0E1117"/>
<path d="M185.638 17.8619L102.97 17.8009L102.971 16.2713C102.971 15.7998 103.354 15.4182 103.826 15.4185L184.785 15.4781C185.257 15.4783 185.639 15.8608 185.639 16.332L185.638 17.8619Z" fill="#F5D7A6"/>
<path d="M176.698 12.4899C176.697 12.4899 176.697 12.4899 176.696 12.4899C175.277 12.4888 174.124 11.306 174.125 9.8535C174.126 9.15037 174.393 8.48971 174.878 7.99265C175.364 7.49504 176.011 7.22119 176.698 7.22119C176.698 7.22119 176.699 7.22119 176.7 7.22119C178.118 7.22201 179.271 8.40478 179.271 9.85759C179.27 11.3093 178.115 12.4899 176.698 12.4899ZM176.698 7.49341C176.085 7.49341 175.508 7.73813 175.074 8.18265C174.638 8.62854 174.398 9.22197 174.398 9.85378C174.397 11.1563 175.428 12.2166 176.696 12.2177C176.697 12.2177 176.698 12.2177 176.698 12.2177C177.966 12.2177 178.997 11.159 178.998 9.85704C178.999 8.5545 177.968 7.49422 176.7 7.49313C176.699 7.49341 176.698 7.49341 176.698 7.49341Z" fill="#1A6980"/>
<path d="M176.903 10.2682L176.492 10.2679C175.956 10.2674 175.522 9.83349 175.522 9.29831L175.526 3.07032C175.527 2.53514 175.961 2.10178 176.497 2.10205L176.909 2.10232C177.445 2.10287 177.879 2.53678 177.879 3.07195L177.874 9.29995C177.874 9.83512 177.439 10.2685 176.903 10.2682Z" fill="white"/>
<path d="M111.745 12.452C111.745 12.452 111.744 12.452 111.743 12.452C111.056 12.4515 110.409 12.1766 109.923 11.6779C109.439 11.18 109.172 10.5188 109.172 9.81591C109.173 9.11278 109.44 8.45211 109.926 7.95505C110.412 7.45744 111.058 7.18359 111.745 7.18359C111.746 7.18359 111.746 7.18359 111.747 7.18359C113.166 7.18468 114.319 8.36745 114.318 9.81999C114.318 10.5228 114.05 11.1838 113.564 11.6808C113.078 12.1782 112.432 12.452 111.745 12.452ZM111.745 7.45554C111.132 7.45554 110.555 7.70026 110.121 8.14505C109.685 8.59094 109.445 9.18437 109.445 9.81618C109.445 10.4477 109.684 11.0414 110.119 11.4881C110.553 11.9337 111.13 12.1795 111.744 12.1801C111.745 12.1801 111.745 12.1801 111.746 12.1801C112.359 12.1801 112.935 11.9351 113.369 11.4908C113.805 11.0447 114.045 10.4513 114.045 9.81972C114.046 8.51717 113.015 7.4569 111.747 7.45581C111.746 7.45554 111.746 7.45554 111.745 7.45554Z" fill="#1A6980"/>
<path d="M111.95 10.2301L111.538 10.2299C111.003 10.2293 110.569 9.7954 110.569 9.26023L110.573 3.03223C110.573 2.49706 111.008 2.06342 111.544 2.06397L111.956 2.06424C112.492 2.06451 112.926 2.49869 112.925 3.03387L112.921 9.26186C112.921 9.79703 112.486 10.2307 111.95 10.2301Z" fill="white"/>
<path d="M124.694 12.4613C124.693 12.4613 124.692 12.4613 124.692 12.4613C124.004 12.4608 123.357 12.1858 122.872 11.6871C122.387 11.1892 122.12 10.528 122.121 9.82518C122.121 9.12233 122.389 8.46139 122.874 7.96433C123.36 7.46672 124.006 7.19287 124.693 7.19287C124.694 7.19287 124.695 7.19287 124.695 7.19287C126.114 7.19369 127.267 8.37646 127.266 9.82927C127.266 10.5321 126.998 11.1931 126.513 11.6901C126.027 12.1875 125.381 12.4613 124.694 12.4613ZM124.693 7.46481C124.08 7.46481 123.504 7.70953 123.069 8.15406C122.634 8.59995 122.394 9.19337 122.393 9.82518C122.393 10.4567 122.632 11.0507 123.067 11.4971C123.501 11.9427 124.078 12.1885 124.692 12.1888C124.693 12.1888 124.693 12.1888 124.694 12.1888C125.307 12.1888 125.883 11.9441 126.318 11.4996C126.753 11.0534 126.993 10.46 126.994 9.82845C126.995 8.5259 125.963 7.46563 124.695 7.46454C124.694 7.46481 124.694 7.46481 124.693 7.46481Z" fill="#1A6980"/>
<path d="M124.899 10.2399L124.487 10.2396C123.951 10.2393 123.517 9.80516 123.518 9.26999L123.522 3.042C123.522 2.50682 123.957 2.07319 124.493 2.07373L124.905 2.074C125.44 2.07428 125.874 2.50846 125.874 3.04363L125.87 9.27162C125.87 9.8068 125.435 10.2404 124.899 10.2399Z" fill="white"/>
<path d="M164.138 12.4801C164.138 12.4801 164.137 12.4801 164.137 12.4801C162.718 12.479 161.565 11.2963 161.565 9.84374C161.566 9.14061 161.833 8.47994 162.319 7.98288C162.805 7.48527 163.451 7.21143 164.138 7.21143C164.139 7.21143 164.14 7.21143 164.14 7.21143C164.828 7.21197 165.475 7.48691 165.96 7.9856C166.445 8.48348 166.712 9.14469 166.711 9.84755C166.71 11.2995 165.556 12.4801 164.138 12.4801ZM164.138 7.48337C163.525 7.48337 162.949 7.72809 162.514 8.17261C162.079 8.6185 161.839 9.21193 161.838 9.84374C161.837 11.1463 162.868 12.2066 164.137 12.2076C164.137 12.2076 164.138 12.2076 164.138 12.2076C165.406 12.2079 166.438 11.149 166.439 9.84701C166.439 9.21547 166.2 8.6215 165.765 8.17507C165.331 7.72945 164.754 7.48364 164.14 7.48309C164.139 7.48337 164.139 7.48337 164.138 7.48337Z" fill="#1A6980"/>
<path d="M164.344 10.2589L163.932 10.2587C163.396 10.2581 162.962 9.82421 162.962 9.28903L162.967 3.06104C162.967 2.52587 163.402 2.09223 163.938 2.09277L164.349 2.09305C164.885 2.09332 165.319 2.5275 165.319 3.06267L165.315 9.29067C165.314 9.82584 164.88 10.2592 164.344 10.2589Z" fill="white"/>
<path opacity="0.57" d="M122.33 22.4458H111.624V31.5952H122.33V22.4458Z" fill="#0E1117"/>
<path d="M150.105 22.4458H139.398V31.5952H150.105V22.4458Z" fill="#1A6980"/>
<path opacity="0.43" d="M136.4 22.4458H125.693V31.5952H136.4V22.4458Z" fill="#1A6980"/>
<path d="M164.268 22.4458H153.562V31.5952H164.268V22.4458Z" fill="#1A6980"/>
<path opacity="0.57" d="M122.33 46.1011H111.624V55.2505H122.33V46.1011Z" fill="#0E1117"/>
<path opacity="0.54" d="M150.105 46.1011H139.398V55.2505H150.105V46.1011Z" fill="#1A6980"/>
<path opacity="0.43" d="M136.4 46.1011H125.693V55.2505H136.4V46.1011Z" fill="#1A6980"/>
<path opacity="0.57" d="M164.268 46.1011H153.562V55.2505H164.268V46.1011Z" fill="#0E1117"/>
<path opacity="0.57" d="M139.398 43.5698H150.104V34.4202H139.398V43.5698Z" fill="#0E1117"/>
<path opacity="0.43" d="M153.561 43.5698H164.268V34.4202H153.561V43.5698Z" fill="#1A6980"/>
<path opacity="0.57" d="M125.693 43.5698H136.4V34.4202H125.693V43.5698Z" fill="#0E1117"/>
<path opacity="0.43" d="M177.784 22.4458H167.078V31.5952H177.784V22.4458Z" fill="#1A6980"/>
<path opacity="0.43" d="M177.784 46.1011H167.078V55.2505H177.784V46.1011Z" fill="#1A6980"/>
<path opacity="0.54" d="M167.077 43.5698H177.784V34.4202H167.077V43.5698Z" fill="#1A6980"/>
<path opacity="0.43" d="M111.624 43.5698H122.33V34.4202H111.624V43.5698Z" fill="#1A6980"/>
<path d="M120.708 25.1307C120.267 25.1307 119.908 24.7722 119.908 24.3314C119.908 23.8907 120.267 23.5322 120.708 23.5322C121.15 23.5322 121.509 23.8907 121.509 24.3314C121.508 24.7722 121.15 25.1307 120.708 25.1307ZM120.708 23.8044C120.417 23.8044 120.18 24.041 120.18 24.3314C120.18 24.6219 120.417 24.8585 120.708 24.8585C120.999 24.8585 121.236 24.6219 121.236 24.3314C121.236 24.041 120.999 23.8044 120.708 23.8044Z" fill="white"/>
<path d="M120.708 37.0672C120.267 37.0672 119.908 36.7087 119.908 36.268C119.908 35.8273 120.267 35.4688 120.708 35.4688C121.15 35.4688 121.509 35.8273 121.509 36.268C121.508 36.7087 121.15 37.0672 120.708 37.0672ZM120.708 35.741C120.417 35.741 120.18 35.9775 120.18 36.268C120.18 36.5584 120.417 36.795 120.708 36.795C120.999 36.795 121.236 36.5584 121.236 36.268C121.236 35.9775 120.999 35.741 120.708 35.741Z" fill="white"/>
<path d="M120.708 48.6575C120.267 48.6575 119.908 48.299 119.908 47.8583C119.908 47.4176 120.267 47.0591 120.708 47.0591C121.15 47.0591 121.509 47.4176 121.509 47.8583C121.508 48.299 121.15 48.6575 120.708 48.6575ZM120.708 47.331C120.417 47.331 120.18 47.5676 120.18 47.858C120.18 48.1485 120.417 48.385 120.708 48.385C120.999 48.385 121.236 48.1485 121.236 47.858C121.236 47.5676 120.999 47.331 120.708 47.331Z" fill="white"/>
<path d="M134.74 25.1307C134.299 25.1307 133.94 24.7722 133.94 24.3314C133.94 23.8907 134.299 23.5322 134.74 23.5322C135.181 23.5322 135.541 23.8907 135.541 24.3314C135.541 24.7722 135.181 25.1307 134.74 25.1307ZM134.74 23.8044C134.449 23.8044 134.213 24.041 134.213 24.3314C134.213 24.6219 134.449 24.8585 134.74 24.8585C135.031 24.8585 135.268 24.6219 135.268 24.3314C135.268 24.041 135.031 23.8044 134.74 23.8044Z" fill="white"/>
<path d="M134.74 37.0672C134.299 37.0672 133.94 36.7087 133.94 36.268C133.94 35.8273 134.299 35.4688 134.74 35.4688C135.181 35.4688 135.541 35.8273 135.541 36.268C135.541 36.7087 135.181 37.0672 134.74 37.0672ZM134.74 35.741C134.449 35.741 134.213 35.9775 134.213 36.268C134.213 36.5584 134.449 36.795 134.74 36.795C135.031 36.795 135.268 36.5584 135.268 36.268C135.268 35.9775 135.031 35.741 134.74 35.741Z" fill="white"/>
<path d="M134.74 48.6575C134.299 48.6575 133.94 48.299 133.94 47.8583C133.94 47.4176 134.299 47.0591 134.74 47.0591C135.181 47.0591 135.541 47.4176 135.541 47.8583C135.541 48.299 135.181 48.6575 134.74 48.6575ZM134.74 47.331C134.449 47.331 134.213 47.5676 134.213 47.858C134.213 48.1485 134.449 48.385 134.74 48.385C135.031 48.385 135.268 48.1485 135.268 47.858C135.268 47.5676 135.031 47.331 134.74 47.331Z" fill="white"/>
<path d="M148.599 25.1307C148.158 25.1307 147.799 24.7722 147.799 24.3314C147.799 23.8907 148.158 23.5322 148.599 23.5322C149.04 23.5322 149.399 23.8907 149.399 24.3314C149.399 24.7722 149.04 25.1307 148.599 25.1307ZM148.599 23.8044C148.308 23.8044 148.071 24.041 148.071 24.3314C148.071 24.6219 148.308 24.8585 148.599 24.8585C148.89 24.8585 149.127 24.6219 149.127 24.3314C149.127 24.041 148.89 23.8044 148.599 23.8044Z" fill="white"/>
<path d="M148.599 37.0672C148.158 37.0672 147.799 36.7087 147.799 36.268C147.799 35.8273 148.158 35.4688 148.599 35.4688C149.04 35.4688 149.399 35.8273 149.399 36.268C149.399 36.7087 149.04 37.0672 148.599 37.0672ZM148.599 35.741C148.308 35.741 148.071 35.9775 148.071 36.268C148.071 36.5584 148.308 36.795 148.599 36.795C148.89 36.795 149.127 36.5584 149.127 36.268C149.127 35.9775 148.89 35.741 148.599 35.741Z" fill="white"/>
<path d="M148.599 48.6575C148.158 48.6575 147.799 48.299 147.799 47.8583C147.799 47.4176 148.158 47.0591 148.599 47.0591C149.04 47.0591 149.399 47.4176 149.399 47.8583C149.399 48.299 149.04 48.6575 148.599 48.6575ZM148.599 47.331C148.308 47.331 148.071 47.5676 148.071 47.858C148.071 48.1485 148.308 48.385 148.599 48.385C148.89 48.385 149.127 48.1485 149.127 47.858C149.127 47.5676 148.89 47.331 148.599 47.331Z" fill="white"/>
<path d="M162.573 25.1307C162.131 25.1307 161.772 24.7722 161.772 24.3314C161.772 23.8907 162.131 23.5322 162.573 23.5322C163.014 23.5322 163.373 23.8907 163.373 24.3314C163.373 24.7722 163.014 25.1307 162.573 25.1307ZM162.573 23.8044C162.282 23.8044 162.045 24.041 162.045 24.3314C162.045 24.6219 162.282 24.8585 162.573 24.8585C162.864 24.8585 163.101 24.6219 163.101 24.3314C163.101 24.041 162.864 23.8044 162.573 23.8044Z" fill="white"/>
<path d="M162.573 37.0672C162.131 37.0672 161.772 36.7087 161.772 36.268C161.772 35.8273 162.131 35.4688 162.573 35.4688C163.014 35.4688 163.373 35.8273 163.373 36.268C163.373 36.7087 163.014 37.0672 162.573 37.0672ZM162.573 35.741C162.282 35.741 162.045 35.9775 162.045 36.268C162.045 36.5584 162.282 36.795 162.573 36.795C162.864 36.795 163.101 36.5584 163.101 36.268C163.101 35.9775 162.864 35.741 162.573 35.741Z" fill="white"/>
<path d="M162.573 48.6575C162.131 48.6575 161.772 48.299 161.772 47.8583C161.772 47.4176 162.131 47.0591 162.573 47.0591C163.014 47.0591 163.373 47.4176 163.373 47.8583C163.373 48.299 163.014 48.6575 162.573 48.6575ZM162.573 47.331C162.282 47.331 162.045 47.5676 162.045 47.858C162.045 48.1485 162.282 48.385 162.573 48.385C162.864 48.385 163.101 48.1485 163.101 47.858C163.101 47.5676 162.864 47.331 162.573 47.331Z" fill="white"/>
<path d="M176.258 25.1307C175.817 25.1307 175.458 24.7722 175.458 24.3314C175.458 23.8907 175.817 23.5322 176.258 23.5322C176.7 23.5322 177.059 23.8907 177.059 24.3314C177.059 24.7722 176.7 25.1307 176.258 25.1307ZM176.258 23.8044C175.967 23.8044 175.731 24.041 175.731 24.3314C175.731 24.6219 175.967 24.8585 176.258 24.8585C176.549 24.8585 176.786 24.6219 176.786 24.3314C176.786 24.041 176.549 23.8044 176.258 23.8044Z" fill="white"/>
<path d="M176.258 37.0672C175.817 37.0672 175.458 36.7087 175.458 36.268C175.458 35.8273 175.817 35.4688 176.258 35.4688C176.7 35.4688 177.059 35.8273 177.059 36.268C177.059 36.7087 176.7 37.0672 176.258 37.0672ZM176.258 35.741C175.967 35.741 175.731 35.9775 175.731 36.268C175.731 36.5584 175.967 36.795 176.258 36.795C176.549 36.795 176.786 36.5584 176.786 36.268C176.786 35.9775 176.549 35.741 176.258 35.741Z" fill="white"/>
<path d="M176.258 48.6575C175.817 48.6575 175.458 48.299 175.458 47.8583C175.458 47.4176 175.817 47.0591 176.258 47.0591C176.7 47.0591 177.059 47.4176 177.059 47.8583C177.059 48.299 176.7 48.6575 176.258 48.6575ZM176.258 47.331C175.967 47.331 175.731 47.5676 175.731 47.858C175.731 48.1485 175.967 48.385 176.258 48.385C176.549 48.385 176.786 48.1485 176.786 47.858C176.786 47.5676 176.549 47.331 176.258 47.331Z" fill="white"/>
<path d="M187.585 38.4471L186.173 38.471C179.68 38.5815 174.326 33.4146 174.216 26.9302L174.192 25.5201C174.081 19.0357 179.255 13.6894 185.748 13.5789L187.16 13.555C193.654 13.4444 199.008 18.6113 199.118 25.0958L199.142 26.5058C199.253 32.9903 194.079 38.3363 187.585 38.4471Z" fill="#1A6980"/>
<path d="M186.767 31.8549C183.541 31.9099 180.871 29.3336 180.816 26.1123C180.761 22.8903 183.342 20.2248 186.567 20.1698C189.793 20.1148 192.463 22.6911 192.518 25.913C192.573 29.1344 189.993 31.7999 186.767 31.8549ZM186.584 21.1593C183.904 21.205 181.761 23.4195 181.807 26.0954C181.852 28.7712 184.07 30.9111 186.75 30.8654C189.43 30.8197 191.573 28.6057 191.527 25.9299C191.481 23.254 189.264 21.1136 186.584 21.1593Z" fill="white"/>
<path d="M186.562 27.5297C186.402 27.5324 186.251 27.4725 186.138 27.3609L183.786 25.0925C183.589 24.9025 183.584 24.5895 183.774 24.3929C183.964 24.1964 184.278 24.191 184.475 24.381L186.541 26.3749L193.805 18.8703C193.996 18.6737 194.309 18.6683 194.506 18.8583C194.703 19.0483 194.708 19.3613 194.518 19.5579L186.834 27.4965L186.562 27.5297ZM186.265 26.6599C186.264 26.6613 186.263 26.6624 186.262 26.6638L186.265 26.6599Z" fill="white"/>
<path d="M138.58 99.0511L136.594 76.8318C136.088 71.1661 130.415 67.0416 123.924 67.62L118.794 68.0773C112.303 68.6558 112.791 72.4631 113.298 78.1292L111.122 93.3559C110.881 93.8682 110.712 94.4249 110.631 95.0149L106.956 121.741C106.525 124.878 108.722 127.771 111.863 128.201L119.636 129.267C122.778 129.698 125.674 127.504 126.106 124.367L128.036 110.325C134.379 109.622 139.078 104.631 138.58 99.0511Z" fill="#FDBC9A"/>
<path opacity="0.32" d="M117.236 103.375C117.236 103.375 119.498 109.361 127.949 110.062L127.454 115.138C127.024 115.056 115.351 112.951 117.236 103.375Z" fill="#FF755F"/>
<path d="M139.952 73.5573C138.276 64.3774 131.683 58.3833 120.785 60.4286V57.0875C119.063 56.5325 117.3 56.1594 115.514 56.0759C112.665 55.9422 109.744 56.5773 107.296 58.2432C105.144 59.7075 103.498 61.8719 102.165 64.2555C100.609 60.6459 97.3513 58.1601 93.5823 58.1601C88.305 58.1601 84.0271 63.0315 84.0271 69.0408C84.0271 74.9838 88.2122 79.8109 93.4088 79.9166C91.6778 81.6169 89.7525 83.157 88.1367 85.0077C85.743 87.5309 83.6369 90.5781 82.8236 94.1729C82.1635 97.0903 82.4135 100.264 83.5194 103.001C83.9339 104.027 84.4717 105.022 84.5926 106.142C84.8179 108.229 83.573 110.104 82.4718 111.791C81.3705 113.479 80.2974 115.582 80.8957 117.571C81.3006 118.917 82.4165 119.86 83.6075 120.292C84.7985 120.724 86.0724 120.724 87.3225 120.715C99.0971 120.639 110.869 120.253 122.631 119.632C123.89 119.566 125.232 119.464 126.24 118.603C128.213 116.918 127.767 113.229 126.163 111.095C124.716 109.171 122.652 108.048 120.785 106.653C120.582 106.501 120.379 106.349 120.182 106.189C119.59 105.71 118.941 102.893 118.362 99.5575L117.76 99.6371C117.586 99.6602 117.413 99.672 117.241 99.6769C117.168 99.6794 117.095 99.6769 117.022 99.6764C116.93 99.6755 116.838 99.6735 116.747 99.6676C116.652 99.6617 116.558 99.6533 116.464 99.6425C116.404 99.6351 116.345 99.6263 116.285 99.617C116.175 99.6002 116.066 99.583 115.958 99.5595C113.626 99.0512 111.767 96.9714 111.491 94.2619L111.46 93.9674L111.456 93.9237C111.451 93.8716 111.449 93.8205 111.445 93.7684C111.442 93.732 111.439 93.6951 111.437 93.6587C111.428 93.5196 111.424 93.382 111.424 93.2444C111.424 92.4028 111.58 91.5912 111.869 90.847C112.577 89.0174 114.073 87.5993 115.944 87.1559C116.119 87.1146 116.295 87.0782 116.476 87.0546L120.675 86.4986C120.713 86.4328 120.747 86.3586 120.785 86.2912C121.563 84.8942 122.22 83.2514 122.696 81.4105C125.134 81.8204 127.75 81.849 130.438 81.4419C131.158 81.3333 130.367 77.9391 131.095 77.767L133.179 79.7126C133.805 80.2976 134.723 80.5208 135.623 80.3074L140.954 79.0451L139.952 73.5573Z" fill="black"/>
<path d="M132.77 103.177C132.77 103.177 134.354 102.526 135.452 103.782Z" fill="#FDBC9A"/>
<path d="M135.452 104.102C135.362 104.102 135.273 104.065 135.21 103.992C134.282 102.93 132.948 103.45 132.891 103.473C132.727 103.539 132.54 103.46 132.473 103.297C132.406 103.134 132.484 102.948 132.648 102.88C133.268 102.625 134.705 102.44 135.693 103.571C135.809 103.704 135.796 103.906 135.662 104.023C135.601 104.076 135.526 104.102 135.452 104.102Z" fill="#FF755F"/>
<path d="M128.72 84.8906C129.21 84.9337 129.746 84.6981 130.277 84.4995C130.808 84.2886 131.346 84.0901 131.82 83.9339C132.295 83.7772 132.847 83.6158 133.399 83.4694C133.944 83.3123 134.518 83.1816 134.879 82.858C135.23 82.5515 135.232 82.0037 134.549 81.5572C133.901 81.1166 132.504 80.8664 130.931 81.3809C129.363 81.9026 128.41 82.9289 128.17 83.6623C127.908 84.4218 128.251 84.8547 128.72 84.8906Z" fill="#3A011F"/>
<path d="M117.175 87.4565L118.811 90.2452L117.051 91.2438" fill="#FDBC9A"/>
<path d="M117.051 91.5635C116.939 91.5635 116.831 91.5055 116.772 91.4017C116.685 91.248 116.739 91.0525 116.892 90.965L118.369 90.1269L116.898 87.6179C116.809 87.4655 116.86 87.2691 117.013 87.1799C117.165 87.0902 117.362 87.1415 117.452 87.2943L119.251 90.363L117.21 91.5217C117.16 91.5503 117.105 91.5635 117.051 91.5635Z" fill="#FF755F"/>
<path d="M137.436 87.5781C137.685 88.6173 138.731 89.2576 139.772 89.0087C140.377 88.8636 140.986 89.2367 141.131 89.8417L141.172 90.0099C141.488 91.3274 140.675 92.6513 139.356 92.9668L137.528 93.4039" fill="#FDBC9A"/>
<path d="M137.529 93.7254C137.384 93.7254 137.253 93.6268 137.218 93.4799C137.176 93.3079 137.282 93.135 137.455 93.094L139.282 92.6568C139.836 92.5241 140.306 92.1838 140.605 91.698C140.903 91.2125 140.994 90.64 140.861 90.0859L140.821 89.9168C140.717 89.4852 140.279 89.2163 139.847 89.3213C139.26 89.4617 138.655 89.3657 138.141 89.0506C137.626 88.7355 137.266 88.2399 137.125 87.6541C137.084 87.4821 137.19 87.3092 137.362 87.2682C137.533 87.2285 137.708 87.3327 137.749 87.5051C137.849 87.9244 138.108 88.2796 138.476 88.505C138.843 88.7304 139.278 88.7991 139.698 88.6988C140.475 88.5148 141.258 88.993 141.444 89.7683L141.485 89.9373C141.657 90.6571 141.539 91.4012 141.152 92.0327C140.764 92.6641 140.153 93.1068 139.432 93.2797L137.605 93.7169C137.579 93.7224 137.554 93.7254 137.529 93.7254Z" fill="#FF755F"/>
<path d="M136.312 88.8574C136.086 89.4658 135.604 89.9679 134.979 90.2565C135.211 90.2296 135.422 90.2022 135.603 90.1766C136.07 90.1096 136.407 89.6891 136.362 89.2203C136.351 89.1136 136.335 88.9975 136.316 88.8779C136.315 88.8711 136.314 88.8638 136.312 88.8574Z" fill="white"/>
<path d="M131.1 88.1565C131.067 86.8142 132.24 85.697 133.718 85.6607C133.737 85.6602 133.755 85.6619 133.774 85.6619C133.508 85.5749 133.217 85.507 132.896 85.4651C132.483 85.4113 132.102 85.425 131.743 85.4809C130.083 85.7405 128.985 87.0379 128.338 88.1407C127.859 88.9569 128.345 90.0153 129.279 90.1733C130.559 90.3893 131.834 90.4341 132.943 90.4025C131.895 90.0947 131.126 89.2148 131.1 88.1565Z" fill="white"/>
<path d="M136.312 88.8575C136.136 87.7718 135.564 86.2507 133.774 85.662C133.756 85.662 133.737 85.6603 133.718 85.6607C132.24 85.697 131.068 86.8143 131.101 88.1565C131.127 89.2153 131.896 90.0947 132.944 90.403C133.724 90.3808 134.419 90.321 134.979 90.2566C135.604 89.968 136.086 89.4655 136.312 88.8575Z" fill="#3A011F"/>
<path d="M134.74 97.7163C132.802 98.0664 131.367 97.8751 130.463 97.1455C129.459 96.3344 129.522 95.1761 129.525 95.1274C129.538 94.9345 129.704 94.788 129.897 94.8C130.091 94.8124 130.237 94.978 130.226 95.1701C130.223 95.2069 130.191 96.0308 130.914 96.608C131.56 97.1233 132.977 97.5575 136.06 96.6879C136.249 96.6439 136.44 96.7438 136.494 96.9303C136.546 97.1165 136.437 97.3107 136.251 97.3633C135.718 97.5127 135.214 97.6305 134.74 97.7163Z" fill="#FF755F"/>
<path d="M112.402 89.8622L112.409 89.9433C112.406 89.9119 112.403 89.88 112.401 89.8486C112.402 89.8533 112.401 89.8575 112.402 89.8622Z" fill="#3A011F"/>
<path d="M195.101 81.0085L194.288 80.8796L195.708 80.2016C195.928 80.0966 196.722 79.6487 197.265 79.3405C197.698 79.0942 198.009 78.648 198.012 78.1498C198.015 77.4885 197.564 77.0774 196.638 77.0599L191.147 76.9604C189.374 76.9275 187.64 77.7771 186.573 79.2013L183.706 83.0274C182.454 84.6975 182.233 86.8155 183.131 88.5279L170.496 110.085L169.222 112.258L131.741 122.966L150.182 146.421L175.102 136.318C178.546 134.922 181.277 132.195 182.674 128.756L195.65 96.823C197.958 93.239 200.664 89.433 200.773 88.3815C201.144 84.809 198.653 81.5729 195.101 81.0085Z" fill="#FDBC9A"/>
<path d="M190.997 82.073C190.964 82.073 190.929 82.0653 190.897 82.0482C190.793 81.9931 190.753 81.8638 190.809 81.7596C191.771 79.9456 194.467 80.5313 194.581 80.5569C194.697 80.583 194.768 80.6974 194.742 80.8122C194.717 80.9271 194.603 80.9992 194.487 80.9736C194.462 80.9681 191.995 80.4344 191.186 81.9594C191.148 82.032 191.073 82.073 190.997 82.073Z" fill="#FF755F"/>
<path d="M167.463 115.472C167.426 115.472 167.388 115.463 167.354 115.442C167.253 115.382 167.219 115.251 167.28 115.149L171.09 108.758C171.151 108.656 171.282 108.623 171.383 108.683C171.485 108.744 171.518 108.875 171.458 108.976L167.647 115.368C167.607 115.435 167.536 115.472 167.463 115.472Z" fill="#FF755F"/>
<path d="M100.447 152.19L88.4888 188.82C87.0468 195.22 80.1963 199.12 73.2103 197.518C65.1559 195.67 60.001 188.197 61.696 180.825L71.31 152.637L100.447 152.19Z" fill="#FDBC9A"/>
<path d="M166.435 139.984L157.514 114.741C157.151 113.717 156.08 113.123 155.018 113.359L133.419 118.148C133.221 118.192 133.038 118.264 132.869 118.355C130.49 117.756 127.725 117.509 124.578 117.534L97.6841 117.751C94.6894 117.776 91.9199 118.794 89.6481 120.512C87.4045 122.208 85.6487 124.588 84.6368 127.365L66.7949 158.749C65.9399 160.252 66.9099 162.138 68.6319 162.32L83.9425 163.938L84.2353 197.9L144.042 198L146.031 171.805L149.365 166.685C151.825 162.907 152.338 158.056 150.728 153.782L149.784 151.272L165.451 142.576C166.369 142.068 166.784 140.972 166.435 139.984Z" fill="#1A6980"/>
<path d="M128.097 118.617H106.369C106.262 118.617 106.176 118.531 106.176 118.424V116.025C106.176 115.918 106.262 115.832 106.369 115.832H128.097C128.203 115.832 128.29 115.918 128.29 116.025V118.424C128.29 118.531 128.203 118.617 128.097 118.617Z" fill="#474F7C"/>
<path opacity="0.27" d="M128.096 118.829H106.368C106.144 118.829 105.961 118.647 105.961 118.423V116.024C105.961 115.799 106.144 115.617 106.368 115.617H128.096C128.32 115.617 128.503 115.799 128.503 116.024V118.423C128.503 118.647 128.32 118.829 128.096 118.829ZM128.075 116.024L106.368 116.044L106.389 118.423L128.075 118.402V116.024Z" fill="#353535"/>
<path opacity="0.27" d="M84.1605 172.945C84.0425 172.945 83.9468 172.85 83.9468 172.732V148.857C83.9468 148.739 84.0425 148.644 84.1605 148.644C84.2785 148.644 84.3743 148.739 84.3743 148.857V172.732C84.3743 172.85 84.279 172.945 84.1605 172.945Z" fill="#353535"/>
<path opacity="0.27" d="M143.705 154.716C143.63 154.716 143.556 154.675 143.518 154.605C143.461 154.501 143.5 154.371 143.603 154.315L152.942 149.241C153.046 149.185 153.176 149.223 153.233 149.326C153.289 149.43 153.251 149.56 153.147 149.616L143.808 154.69C143.775 154.707 143.74 154.716 143.705 154.716Z" fill="#353535"/>
<path opacity="0.27" d="M84.2606 157.129C84.2554 157.129 84.2507 157.129 84.2456 157.128L70.4493 156.184C70.3317 156.175 70.2428 156.073 70.2505 155.956C70.259 155.839 70.3642 155.748 70.4783 155.758L84.2747 156.702C84.3922 156.711 84.4811 156.812 84.4735 156.93C84.4653 157.043 84.3713 157.129 84.2606 157.129Z" fill="#353535"/>
<path opacity="0.27" d="M70.911 161.805C70.893 161.805 70.8746 161.803 70.8563 161.798C70.7421 161.768 70.6741 161.651 70.7045 161.537L72.099 156.264C72.129 156.15 72.2448 156.081 72.3603 156.113C72.4744 156.143 72.5424 156.259 72.512 156.373L71.1175 161.646C71.0922 161.742 71.0059 161.805 70.911 161.805Z" fill="#353535"/>
<path opacity="0.27" d="M75.2943 162.102C75.2763 162.102 75.2579 162.1 75.2396 162.095C75.1254 162.065 75.0574 161.948 75.0878 161.834L76.4823 156.561C76.5123 156.447 76.6286 156.379 76.7436 156.41C76.8577 156.44 76.9257 156.557 76.8953 156.671L75.5008 161.943C75.4755 162.039 75.3892 162.102 75.2943 162.102Z" fill="#353535"/>
<path opacity="0.27" d="M80.1756 162.402C80.161 162.402 80.1469 162.401 80.1324 162.398C80.0165 162.374 79.9426 162.261 79.9656 162.145L81.0618 156.823C81.0862 156.707 81.2003 156.635 81.3145 156.657C81.4299 156.681 81.5043 156.793 81.4812 156.909L80.385 162.231C80.3637 162.332 80.2743 162.402 80.1756 162.402Z" fill="#353535"/>
<path opacity="0.27" d="M158.945 144.172C158.858 144.172 158.775 144.117 158.744 144.03L148.556 115.702C148.516 115.591 148.573 115.469 148.685 115.429C148.797 115.389 148.918 115.446 148.958 115.557L159.147 143.886C159.187 143.997 159.129 144.119 159.018 144.159C158.994 144.168 158.969 144.172 158.945 144.172Z" fill="#353535"/>
<path opacity="0.27" d="M153.034 127.225C152.94 127.225 152.854 127.163 152.828 127.068C152.797 126.955 152.863 126.837 152.978 126.806L158.242 125.356C158.355 125.327 158.473 125.391 158.505 125.505C158.536 125.619 158.469 125.736 158.355 125.768L153.09 127.218C153.072 127.222 153.053 127.225 153.034 127.225Z" fill="#353535"/>
<path opacity="0.27" d="M151.455 122.93C151.362 122.93 151.276 122.869 151.25 122.775C151.217 122.661 151.283 122.544 151.397 122.512L156.649 121.019C156.763 120.985 156.88 121.053 156.912 121.166C156.945 121.28 156.879 121.397 156.765 121.429L151.513 122.922C151.494 122.927 151.474 122.93 151.455 122.93Z" fill="#353535"/>
<path opacity="0.27" d="M156.935 137.591C156.841 137.591 156.755 137.528 156.729 137.434C156.698 137.32 156.765 137.203 156.879 137.171L162.143 135.721C162.257 135.692 162.374 135.757 162.406 135.87C162.437 135.984 162.37 136.101 162.256 136.133L156.992 137.583C156.973 137.588 156.954 137.591 156.935 137.591Z" fill="#353535"/>
<path opacity="0.27" d="M158.729 142.677C158.641 142.677 158.559 142.623 158.527 142.535C158.487 142.424 158.545 142.302 158.657 142.262L163.798 140.427C163.91 140.389 164.032 140.445 164.072 140.556C164.111 140.667 164.054 140.79 163.942 140.829L158.8 142.665C158.776 142.673 158.753 142.677 158.729 142.677Z" fill="#353535"/>
<path opacity="0.27" d="M154.929 132.442C154.836 132.442 154.75 132.381 154.724 132.288C154.691 132.174 154.757 132.056 154.871 132.024L160.123 130.532C160.238 130.497 160.355 130.565 160.387 130.679C160.419 130.792 160.354 130.91 160.24 130.942L154.987 132.434C154.968 132.44 154.948 132.442 154.929 132.442Z" fill="#353535"/>
<path opacity="0.27" d="M149.907 118.469C149.815 118.469 149.73 118.41 149.702 118.318C149.668 118.205 149.732 118.086 149.845 118.052L155.149 116.448C155.261 116.414 155.381 116.477 155.415 116.59C155.45 116.702 155.386 116.822 155.273 116.856L149.968 118.46C149.948 118.466 149.927 118.469 149.907 118.469Z" fill="#353535"/>
<path opacity="0.27" d="M127.094 119.825C126.996 119.825 126.907 119.757 126.885 119.657C126.86 119.542 126.933 119.428 127.049 119.403L135.715 117.513C135.833 117.488 135.944 117.56 135.969 117.676C135.995 117.791 135.922 117.904 135.806 117.93L127.14 119.82C127.124 119.823 127.109 119.825 127.094 119.825Z" fill="#353535"/>
</svg>
