<svg width="20" height="20" viewBox="0 0 20 20" fill="none" xmlns="http://www.w3.org/2000/svg">
<g clip-path="url(#clip0_413_1824)">
<path d="M15.3666 8.67238L9.99995 3.3335L4.63328 8.67238C4.56997 8.7206 4.51775 8.78186 4.48016 8.85201C4.44258 8.92217 4.4205 8.99958 4.41543 9.079C4.41037 9.15843 4.42242 9.23802 4.45079 9.31238C4.47915 9.38674 4.52316 9.45414 4.57984 9.51001C4.63652 9.56588 4.70454 9.60893 4.7793 9.63623C4.85406 9.66353 4.93381 9.67445 5.01315 9.66824C5.0925 9.66204 5.16958 9.63886 5.23919 9.60028C5.3088 9.5617 5.36931 9.50861 5.41662 9.44461L9.4444 5.45016V16.0779C9.4444 16.2253 9.50293 16.3666 9.60711 16.4708C9.7113 16.575 9.85261 16.6335 9.99995 16.6335C10.1473 16.6335 10.2886 16.575 10.3928 16.4708C10.497 16.3666 10.5555 16.2253 10.5555 16.0779V5.45016L14.5833 9.44461C14.6879 9.54848 14.8295 9.60655 14.9769 9.60603C15.1243 9.60551 15.2655 9.54644 15.3694 9.44183C15.4733 9.33722 15.5313 9.19562 15.5308 9.0482C15.5303 8.90077 15.4712 8.75959 15.3666 8.65572V8.67238Z" fill="#1E1E1E"/>
</g>
<defs>
<clipPath id="clip0_413_1824">
<rect width="20" height="20" fill="white"/>
</clipPath>
</defs>
</svg>
