<svg width="32" height="32" viewBox="0 0 32 32" fill="none" xmlns="http://www.w3.org/2000/svg">
<g clip-path="url(#clip0_606_1263)">
<path d="M25 25.3813V18C25 17.1688 24.3312 16.5 23.5 16.5C22.6688 16.5 22 17.1688 22 18V27.5375C20.2062 28.475 18.1625 29 16 29C13.8375 29 11.7937 28.4688 10 27.5375V18C10 17.1688 9.33125 16.5 8.5 16.5C7.66875 16.5 7 17.1688 7 18V25.3813C4.5375 23.0125 3 19.6875 3 16C3 8.81875 8.81875 3 16 3C23.1812 3 29 8.81875 29 16C29 19.6875 27.4625 23.0125 25 25.3813ZM16 32C20.2435 32 24.3131 30.3143 27.3137 27.3137C30.3143 24.3131 32 20.2435 32 16C32 11.7565 30.3143 7.68687 27.3137 4.68629C24.3131 1.68571 20.2435 0 16 0C11.7565 0 7.68687 1.68571 4.68629 4.68629C1.68571 7.68687 0 11.7565 0 16C0 20.2435 1.68571 24.3131 4.68629 27.3137C7.68687 30.3143 11.7565 32 16 32ZM9.975 13.75C10.6375 13.75 11.2188 13.9875 11.5625 14.3562C12.0375 14.8625 12.825 14.8875 13.3313 14.4125C13.8375 13.9375 13.8625 13.15 13.3875 12.6438C12.4812 11.675 11.1875 11.25 9.975 11.25C8.7625 11.25 7.46875 11.675 6.5625 12.6438C6.0875 13.15 6.11875 13.9375 6.61875 14.4125C7.11875 14.8875 7.9125 14.8562 8.3875 14.3562C8.73125 13.9937 9.3125 13.75 9.975 13.75ZM20.3875 14.3562C20.7313 13.9937 21.3125 13.75 21.975 13.75C22.6375 13.75 23.2188 13.9875 23.5625 14.3562C24.0375 14.8625 24.825 14.8875 25.3312 14.4125C25.8375 13.9375 25.8625 13.15 25.3875 12.6438C24.4813 11.675 23.1875 11.25 21.975 11.25C20.7625 11.25 19.4688 11.675 18.5625 12.6438C18.0875 13.15 18.1187 13.9375 18.6187 14.4125C19.1187 14.8875 19.9125 14.8562 20.3875 14.3562ZM13 20V22C13 23.6562 14.3438 25 16 25C17.6562 25 19 23.6562 19 22V20C19 18.3438 17.6562 17 16 17C14.3438 17 13 18.3438 13 20Z" fill="white"/>
</g>
<defs>
<clipPath id="clip0_606_1263">
<rect width="32" height="32" fill="white"/>
</clipPath>
</defs>
</svg>
