<svg width="36" height="36" viewBox="0 0 36 36" fill="none" xmlns="http://www.w3.org/2000/svg">
<path d="M15.75 15.75C15.75 15.9716 15.7064 16.191 15.6215 16.3958C15.5367 16.6005 15.4124 16.7865 15.2557 16.9432C15.099 17.0999 14.913 17.2242 14.7083 17.309C14.5035 17.3939 14.2841 17.4375 14.0625 17.4375C13.8409 17.4375 13.6215 17.3939 13.4167 17.309C13.212 17.2242 13.026 17.0999 12.8693 16.9432C12.7126 16.7865 12.5883 16.6005 12.5035 16.3958C12.4186 16.191 12.375 15.9716 12.375 15.75C12.375 15.3024 12.5528 14.8732 12.8693 14.5568C13.1857 14.2403 13.6149 14.0625 14.0625 14.0625C14.5101 14.0625 14.9393 14.2403 15.2557 14.5568C15.5722 14.8732 15.75 15.3024 15.75 15.75ZM21.9375 17.4375C22.3851 17.4375 22.8143 17.2597 23.1307 16.9432C23.4472 16.6268 23.625 16.1976 23.625 15.75C23.625 15.3024 23.4472 14.8732 23.1307 14.5568C22.8143 14.2403 22.3851 14.0625 21.9375 14.0625C21.4899 14.0625 21.0607 14.2403 20.7443 14.5568C20.4278 14.8732 20.25 15.3024 20.25 15.75C20.25 16.1976 20.4278 16.6268 20.7443 16.9432C21.0607 17.2597 21.4899 17.4375 21.9375 17.4375ZM13.5 20.25C13.2016 20.25 12.9155 20.3685 12.7045 20.5795C12.4935 20.7905 12.375 21.0766 12.375 21.375C12.375 21.6734 12.4935 21.9595 12.7045 22.1705C12.9155 22.3815 13.2016 22.5 13.5 22.5H22.5C22.7984 22.5 23.0845 22.3815 23.2955 22.1705C23.5065 21.9595 23.625 21.6734 23.625 21.375C23.625 21.0766 23.5065 20.7905 23.2955 20.5795C23.0845 20.3685 22.7984 20.25 22.5 20.25H13.5ZM18 4.5C19.7728 4.5 21.5283 4.84919 23.1662 5.52763C24.8041 6.20606 26.2924 7.20047 27.5459 8.45406C28.7995 9.70765 29.7939 11.1959 30.4724 12.8338C31.1508 14.4717 31.5 16.2272 31.5 18C31.5 19.7728 31.1508 21.5283 30.4724 23.1662C29.7939 24.8041 28.7995 26.2924 27.5459 27.5459C26.2924 28.7995 24.8041 29.7939 23.1662 30.4724C21.5283 31.1508 19.7728 31.5 18 31.5C14.4196 31.5 10.9858 30.0777 8.45406 27.5459C5.92232 25.0142 4.5 21.5804 4.5 18C4.5 14.4196 5.92232 10.9858 8.45406 8.45406C10.9858 5.92232 14.4196 4.5 18 4.5ZM18 6.75C15.0163 6.75 12.1548 7.93526 10.045 10.045C7.93526 12.1548 6.75 15.0163 6.75 18C6.75 20.9837 7.93526 23.8452 10.045 25.955C12.1548 28.0647 15.0163 29.25 18 29.25C20.9837 29.25 23.8452 28.0647 25.955 25.955C28.0647 23.8452 29.25 20.9837 29.25 18C29.25 15.0163 28.0647 12.1548 25.955 10.045C23.8452 7.93526 20.9837 6.75 18 6.75Z" fill="white"/>
</svg>
