<svg width="32" height="32" viewBox="0 0 32 32" fill="none" xmlns="http://www.w3.org/2000/svg">
<path d="M15.9998 2.66675C14.2489 2.66675 12.5151 3.01162 10.8974 3.68169C9.27972 4.35175 7.80986 5.33388 6.57175 6.57199C4.07126 9.07248 2.6665 12.4639 2.6665 16.0001C2.6665 19.5363 4.07126 22.9277 6.57175 25.4282C7.80986 26.6663 9.27972 27.6484 10.8974 28.3185C12.5151 28.9885 14.2489 29.3334 15.9998 29.3334C19.5361 29.3334 22.9274 27.9287 25.4279 25.4282C27.9284 22.9277 29.3332 19.5363 29.3332 16.0001C29.3332 14.2491 28.9883 12.5153 28.3182 10.8976C27.6482 9.27996 26.666 7.81011 25.4279 6.57199C24.1898 5.33388 22.72 4.35175 21.1023 3.68169C19.4846 3.01162 17.7508 2.66675 15.9998 2.66675ZM15.9998 26.6667C13.1709 26.6667 10.4578 25.5429 8.45736 23.5426C6.45698 21.5422 5.33317 18.8291 5.33317 16.0001C5.33317 13.1711 6.45698 10.458 8.45736 8.45761C10.4578 6.45722 13.1709 5.33341 15.9998 5.33341C18.8288 5.33341 21.5419 6.45722 23.5423 8.45761C25.5427 10.458 26.6665 13.1711 26.6665 16.0001C26.6665 18.8291 25.5427 21.5422 23.5423 23.5426C21.5419 25.5429 18.8288 26.6667 15.9998 26.6667ZM15.9998 18.6667C18.3332 18.6667 20.3865 19.6267 21.5865 21.0801L19.6932 22.9734C19.0932 22.0001 17.6665 21.3334 15.9998 21.3334C14.3332 21.3334 12.9065 22.0001 12.3065 22.9734L10.4132 21.0801C11.6132 19.6267 13.6665 18.6667 15.9998 18.6667ZM13.3332 12.6667C13.3332 13.7334 12.3998 14.6667 11.3332 14.6667C10.2665 14.6667 9.33317 13.7334 9.33317 12.6667V10.6667L13.3332 12.6667ZM22.6665 12.6667C22.6665 13.7334 21.7332 14.6667 20.6665 14.6667C19.5998 14.6667 18.6665 13.7334 18.6665 12.6667L22.6665 10.6667V12.6667Z" fill="white"/>
</svg>
