<svg width="32" height="32" viewBox="0 0 32 32" fill="none" xmlns="http://www.w3.org/2000/svg">
<path d="M5.99989 2.00008C5.49989 1.50008 4.21289 0.740083 2.99989 1.10008C1.39989 1.57508 0.399893 4.00008 1.39989 6.00008C1.73789 6.67508 2.28289 7.40408 2.86289 8.09608C3.26689 8.57708 3.68789 9.04108 4.06689 9.45608C4.14156 9.53808 4.22156 9.61108 4.30689 9.67508C4.85189 10.0821 5.59689 10.1331 6.15289 9.70908C7.38289 8.77208 8.91089 7.38308 9.49989 6.50008C10.4999 5.00008 11.0249 3.02508 9.74989 1.75008C8.16789 0.168083 6.49989 1.50008 5.99989 2.00008ZM10.9589 1.67008C11.3156 2.24867 11.5037 2.91537 11.5019 3.59508C12.8319 3.21008 14.3289 3.00008 15.9989 3.00008C20.4289 3.00008 23.6469 4.48008 25.7629 6.77808C27.8919 9.08908 28.9979 12.3281 28.9979 15.9981V16.0001H28.9999C29.8119 16.0001 30.4779 16.2551 30.9869 16.6641C30.9936 16.4441 30.9969 16.2224 30.9969 15.9991C30.9969 11.9381 29.7709 8.17808 27.2339 5.42308C24.6839 2.65408 20.9029 1.00008 15.9999 1.00008C14.1599 1.00008 12.4779 1.23308 10.9599 1.67008M25.6639 25.9021C25.5456 25.8427 25.4402 25.7605 25.3539 25.6601C24.3919 24.5341 22.6249 22.4381 21.9999 21.5001C20.9999 20.0001 21.1029 17.7331 22.9999 17.1001C24.4999 16.6001 26.1669 18.0001 26.4999 18.5001C26.6669 18.0001 27.3999 17.0001 28.9999 17.0001C29.1346 17.0001 29.2629 17.0094 29.3849 17.0281C29.5782 17.0574 29.7552 17.1074 29.9159 17.1781C30.3539 17.3661 30.6749 17.6901 30.8859 18.0821C31.2769 18.8041 31.2979 19.7551 30.9999 20.5001C30.7519 21.1201 30.3199 21.7941 29.8109 22.4601C28.8189 23.7551 27.5309 25.0141 26.7359 25.7501C26.5947 25.8828 26.4159 25.9687 26.224 25.9959C26.0321 26.0231 25.8365 25.9904 25.6639 25.9021ZM15.9989 28.9981C19.6809 28.9981 22.5249 27.9761 24.5959 26.3111C24.8955 26.6641 25.3104 26.8996 25.7671 26.976C26.2238 27.0523 26.6928 26.9645 27.0909 26.7281C24.5439 29.4041 20.8109 30.9981 15.9989 30.9981C13.5239 30.9981 11.3349 30.5761 9.44489 29.8031C9.82589 29.3231 10.2499 28.7371 10.6069 28.1091C12.1509 28.6791 13.9439 28.9981 15.9989 28.9981ZM8.50389 29.3771C8.42389 29.4751 8.34623 29.5684 8.27089 29.6571C7.83889 30.1621 7.10289 30.2351 6.55289 29.8601C5.62789 29.2301 4.31589 28.3161 3.99989 28.0001C2.88189 26.8821 2.49989 25.0001 3.49989 24.0001C4.49989 23.0001 6.49989 23.5001 6.49989 23.5001C6.49989 23.5001 6.99989 22.2501 8.49989 22.5001C10.4999 22.7501 10.7499 25.0001 10.2499 26.5001C10.1149 26.9051 9.91189 27.3201 9.67589 27.7221C9.32759 28.3026 8.9358 28.8558 8.50389 29.3771ZM4.37889 22.4731C3.83989 22.5871 3.26289 22.8231 2.79289 23.2931C2.73839 23.3477 2.68602 23.4044 2.63589 23.4631C1.53689 21.2431 0.999893 18.6871 0.999893 15.9991C0.999893 13.5261 1.45489 11.1651 2.38289 9.07408C2.71489 9.45808 3.04189 9.81608 3.32889 10.1311C3.50089 10.3191 3.69889 10.4811 3.91489 10.6131C3.30889 12.2401 2.99989 14.0601 2.99989 16.0001C2.99989 18.3861 3.46689 20.5901 4.37889 22.4741M8.98189 11.1901C9.02989 10.9441 9.13989 10.6401 9.34889 10.4131C9.52889 10.2171 9.84689 10.0001 10.4989 10.0001C11.1419 10.0001 11.4689 10.2221 11.6569 10.4291C11.8749 10.6691 11.9799 10.9741 12.0149 11.1711C12.0655 11.4273 12.2144 11.6536 12.4297 11.8015C12.645 11.9495 12.9096 12.0073 13.167 11.9626C13.4244 11.9179 13.654 11.7743 13.8069 11.5625C13.9597 11.3506 14.0236 11.0874 13.9849 10.8291C13.87 10.1789 13.5756 9.57375 13.1349 9.08208C12.5629 8.45208 11.6959 8.00008 10.4999 8.00008C9.31589 8.00008 8.45289 8.43108 7.87589 9.06008C7.32789 9.65608 7.10689 10.3531 7.01789 10.8101C6.9675 11.0705 7.02264 11.3403 7.17116 11.5601C7.31969 11.7799 7.54945 11.9317 7.80989 11.9821C8.07034 12.0325 8.34013 11.9773 8.55992 11.8288C8.77972 11.6803 8.9315 11.4505 8.98189 11.1901Z" fill="white"/>
<path d="M19.982 11.19C20.03 10.944 20.14 10.64 20.349 10.413C20.529 10.217 20.847 10 21.5 10C22.142 10 22.469 10.222 22.657 10.429C22.876 10.669 22.981 10.974 23.015 11.171C23.0656 11.4273 23.2145 11.6536 23.4298 11.8015C23.6451 11.9494 23.9097 12.0072 24.1671 11.9625C24.4245 11.9178 24.6541 11.7742 24.807 11.5624C24.9598 11.3506 25.0237 11.0873 24.985 10.829C24.8701 10.1788 24.5757 9.57367 24.135 9.082C23.563 8.452 22.696 8 21.5 8C20.316 8 19.453 8.431 18.876 9.06C18.328 9.656 18.107 10.353 18.019 10.81C17.9906 10.9402 17.9885 11.0749 18.0128 11.2059C18.0372 11.337 18.0875 11.4619 18.1609 11.5732C18.2342 11.6845 18.329 11.7801 18.4398 11.8542C18.5506 11.9284 18.6751 11.9796 18.806 12.005C18.9368 12.0303 19.0715 12.0292 19.2019 12.0018C19.3324 11.9743 19.456 11.9211 19.5656 11.8451C19.6752 11.7692 19.7684 11.6721 19.84 11.5596C19.9115 11.4471 19.9598 11.3214 19.982 11.19ZM13 16C13 15.7348 12.8946 15.4804 12.7071 15.2929C12.5196 15.1054 12.2652 15 12 15C11.7348 15 11.4804 15.1054 11.2929 15.2929C11.1054 15.4804 11 15.7348 11 16C11 16.827 11.24 18.044 11.989 19.084C12.774 20.175 14.074 21 16 21C17.926 21 19.226 20.175 20.012 19.084C20.76 18.044 21 16.827 21 16C21 15.7348 20.8946 15.4804 20.7071 15.2929C20.5196 15.1054 20.2652 15 20 15C19.7348 15 19.4804 15.1054 19.2929 15.2929C19.1054 15.4804 19 15.7348 19 16C19 16.507 18.84 17.289 18.389 17.916C17.974 18.49 17.274 19 16 19C14.726 19 14.026 18.491 13.611 17.916C13.162 17.289 13 16.506 13 16Z" fill="white"/>
</svg>
