<svg width="32" height="32" viewBox="0 0 32 32" fill="none" xmlns="http://www.w3.org/2000/svg">
<g clip-path="url(#clip0_630_7875)">
<path d="M16.0001 1.77783C13.1872 1.77783 10.4374 2.61195 8.09862 4.17471C5.75978 5.73747 3.93689 7.95867 2.86044 10.5574C1.78399 13.1562 1.50235 16.0158 2.05111 18.7747C2.59988 21.5335 3.95442 24.0677 5.94343 26.0567C7.93244 28.0457 10.4666 29.4002 13.2254 29.949C15.9843 30.4978 18.8439 30.2161 21.4427 29.1397C24.0414 28.0632 26.2626 26.2403 27.8254 23.9015C29.3882 21.5627 30.2223 18.8129 30.2223 16.0001C30.2223 12.2281 28.7239 8.61061 26.0567 5.94342C23.3895 3.27624 19.772 1.77783 16.0001 1.77783ZM16.0001 28.4445C13.5388 28.4445 11.1328 27.7146 9.0863 26.3472C7.03982 24.9798 5.44478 23.0363 4.50289 20.7623C3.561 18.4884 3.31456 15.9862 3.79473 13.5723C4.2749 11.1583 5.46012 8.94089 7.20051 7.2005C8.9409 5.46012 11.1583 4.2749 13.5723 3.79473C15.9863 3.31455 18.4884 3.561 20.7623 4.50289C23.0363 5.44478 24.9798 7.03981 26.3472 9.08629C27.7147 11.1328 28.4445 13.5388 28.4445 16.0001C28.4445 19.3005 27.1334 22.4658 24.7996 24.7996C22.4658 27.1334 19.3005 28.4445 16.0001 28.4445Z" fill="#FFCD63"/>
<path d="M9.68012 14.1244C10.662 14.1244 11.4579 13.3285 11.4579 12.3466C11.4579 11.3648 10.662 10.5688 9.68012 10.5688C8.69828 10.5688 7.90234 11.3648 7.90234 12.3466C7.90234 13.3285 8.69828 14.1244 9.68012 14.1244Z" fill="#FFCD63"/>
<path d="M22.2665 14.1244C23.2484 14.1244 24.0443 13.3285 24.0443 12.3466C24.0443 11.3648 23.2484 10.5688 22.2665 10.5688C21.2847 10.5688 20.4888 11.3648 20.4888 12.3466C20.4888 13.3285 21.2847 14.1244 22.2665 14.1244Z" fill="#FFCD63"/>
<path d="M16.1157 25.0755C17.7463 25.0777 19.3357 24.5625 20.655 23.6041C21.9744 22.6458 22.9557 21.2936 23.4579 19.7422H8.77344C9.27562 21.2936 10.257 22.6458 11.5763 23.6041C12.8957 24.5625 14.485 25.0777 16.1157 25.0755Z" fill="#FFCD63"/>
</g>
<defs>
<clipPath id="clip0_630_7875">
<rect width="32" height="32" fill="white"/>
</clipPath>
</defs>
</svg>
